<?xml version="1.0" encoding="utf-8"?>
<!-- Generator: Adobe Illustrator 25.0.0, SVG Export Plug-In . SVG Version: 6.00 Build 0)  -->
<svg version="1.1" id="_x3C_Layer_x3E_" xmlns="http://www.w3.org/2000/svg" xmlns:xlink="http://www.w3.org/1999/xlink" x="0px"
	 y="0px" viewBox="0 0 500 500" style="enable-background:new 0 0 500 500;" xml:space="preserve">
<style type="text/css">
	.st0{opacity:0.1;}
	.st1{opacity:0.5;}
	.st2{opacity:0;fill:#FFFFFF;}
	.st3{opacity:4.761905e-02;fill:#F9FBFB;}
	.st4{opacity:9.523810e-02;fill:#F3F6F7;}
	.st5{opacity:0.1429;fill:#EEF2F4;}
	.st6{opacity:0.1905;fill:#E8EDF0;}
	.st7{opacity:0.2381;fill:#E2E9EC;}
	.st8{opacity:0.2857;fill:#DCE4E8;}
	.st9{opacity:0.3333;fill:#D7E0E5;}
	.st10{opacity:0.381;fill:#D1DCE1;}
	.st11{opacity:0.4286;fill:#CBD7DD;}
	.st12{opacity:0.4762;fill:#C5D3D9;}
	.st13{opacity:0.5238;fill:#C0CED6;}
	.st14{opacity:0.5714;fill:#BACAD2;}
	.st15{opacity:0.619;fill:#B4C5CE;}
	.st16{opacity:0.6667;fill:#AEC1CA;}
	.st17{opacity:0.7143;fill:#A9BDC7;}
	.st18{opacity:0.7619;fill:#A3B8C3;}
	.st19{opacity:0.8095;fill:#9DB4BF;}
	.st20{opacity:0.8571;fill:#97AFBB;}
	.st21{opacity:0.9048;fill:#92ABB8;}
	.st22{opacity:0.9524;fill:#8CA6B4;}
	.st23{fill:#86A2B0;}
	.st24{fill:#FFE3AB;}
	.st25{fill:url(#SVGID_1_);}
	.st26{fill:url(#SVGID_2_);}
	.st27{fill:url(#SVGID_3_);}
	.st28{fill:url(#SVGID_4_);}
	.st29{fill:url(#SVGID_5_);}
	.st30{fill:url(#SVGID_6_);}
	.st31{fill:url(#SVGID_7_);}
	.st32{fill:url(#SVGID_8_);}
	.st33{fill:url(#SVGID_9_);}
	.st34{fill:url(#SVGID_10_);}
	.st35{fill:url(#SVGID_11_);}
	.st36{fill:url(#SVGID_12_);}
	.st37{fill:url(#SVGID_13_);}
	.st38{fill:url(#SVGID_14_);}
	.st39{fill:url(#SVGID_15_);}
	.st40{fill:url(#SVGID_16_);}
	.st41{opacity:2.380952e-02;fill:#F9FBFB;}
	.st42{opacity:4.761905e-02;fill:#F3F6F7;}
	.st43{opacity:7.142857e-02;fill:#EEF2F4;}
	.st44{opacity:9.523810e-02;fill:#E8EDF0;}
	.st45{opacity:0.119;fill:#E2E9EC;}
	.st46{opacity:0.1429;fill:#DCE4E8;}
	.st47{opacity:0.1667;fill:#D7E0E5;}
	.st48{opacity:0.1905;fill:#D1DCE1;}
	.st49{opacity:0.2143;fill:#CBD7DD;}
	.st50{opacity:0.2381;fill:#C5D3D9;}
	.st51{opacity:0.2619;fill:#C0CED6;}
	.st52{opacity:0.2857;fill:#BACAD2;}
	.st53{opacity:0.3095;fill:#B4C5CE;}
	.st54{opacity:0.3333;fill:#AEC1CA;}
	.st55{opacity:0.3571;fill:#A9BDC7;}
	.st56{opacity:0.381;fill:#A3B8C3;}
	.st57{opacity:0.4048;fill:#9DB4BF;}
	.st58{opacity:0.4286;fill:#97AFBB;}
	.st59{opacity:0.4524;fill:#92ABB8;}
	.st60{opacity:0.4762;fill:#8CA6B4;}
	.st61{opacity:0.5;fill:#86A2B0;}
	.st62{fill:url(#SVGID_17_);}
	.st63{opacity:0.15;}
	.st64{fill:url(#SVGID_18_);}
	.st65{opacity:2.857143e-02;fill:#F9FBFB;}
	.st66{opacity:5.714286e-02;fill:#F3F6F7;}
	.st67{opacity:8.571429e-02;fill:#EEF2F4;}
	.st68{opacity:0.1143;fill:#E8EDF0;}
	.st69{opacity:0.1429;fill:#E2E9EC;}
	.st70{opacity:0.1714;fill:#DCE4E8;}
	.st71{opacity:0.2;fill:#D7E0E5;}
	.st72{opacity:0.2286;fill:#D1DCE1;}
	.st73{opacity:0.2571;fill:#CBD7DD;}
	.st74{opacity:0.2857;fill:#C5D3D9;}
	.st75{opacity:0.3143;fill:#C0CED6;}
	.st76{opacity:0.3429;fill:#BACAD2;}
	.st77{opacity:0.3714;fill:#B4C5CE;}
	.st78{opacity:0.4;fill:#AEC1CA;}
	.st79{opacity:0.4286;fill:#A9BDC7;}
	.st80{opacity:0.4571;fill:#A3B8C3;}
	.st81{opacity:0.4857;fill:#9DB4BF;}
	.st82{opacity:0.5143;fill:#97AFBB;}
	.st83{opacity:0.5429;fill:#92ABB8;}
	.st84{opacity:0.5714;fill:#8CA6B4;}
	.st85{opacity:0.6;fill:#86A2B0;}
	.st86{fill:url(#SVGID_19_);}
	.st87{fill:url(#SVGID_20_);}
	.st88{fill:url(#SVGID_21_);}
	.st89{opacity:0.2;}
	.st90{opacity:9.523810e-02;fill:#F4F6F8;}
	.st91{opacity:0.1905;fill:#E9EDF1;}
	.st92{opacity:0.2381;fill:#E3E9ED;}
	.st93{opacity:0.2857;fill:#DEE5EA;}
	.st94{opacity:0.3333;fill:#D8E0E6;}
	.st95{opacity:0.381;fill:#D3DCE3;}
	.st96{opacity:0.4286;fill:#CDD8DF;}
	.st97{opacity:0.4762;fill:#C8D3DC;}
	.st98{opacity:0.5238;fill:#C2CFD8;}
	.st99{opacity:0.5714;fill:#BDCAD5;}
	.st100{opacity:0.619;fill:#B7C6D1;}
	.st101{opacity:0.6667;fill:#B2C2CE;}
	.st102{opacity:0.7143;fill:#ACBDCA;}
	.st103{opacity:0.7619;fill:#A7B9C7;}
	.st104{opacity:0.8095;fill:#A1B5C3;}
	.st105{opacity:0.8571;fill:#9CB0C0;}
	.st106{opacity:0.9048;fill:#96ACBC;}
	.st107{opacity:0.9524;fill:#91A7B9;}
	.st108{fill:#8BA3B5;}
	.st109{fill:#EEF7FA;}
	.st110{fill:#E4F1F5;}
	.st111{fill:#FFFFFF;}
	.st112{fill:#E9F2F5;}
	.st113{opacity:0.3;}
	.st114{fill:url(#SVGID_22_);}
	.st115{fill:url(#SVGID_23_);}
	.st116{fill:url(#SVGID_24_);}
	.st117{fill:url(#SVGID_25_);}
	.st118{fill:url(#SVGID_26_);}
	.st119{fill:url(#SVGID_27_);}
	.st120{fill:url(#SVGID_28_);}
	.st121{fill:url(#SVGID_29_);}
	.st122{fill:url(#SVGID_30_);}
	.st123{fill:url(#SVGID_31_);}
	.st124{fill:url(#SVGID_32_);}
	.st125{fill:url(#SVGID_33_);}
	.st126{fill:url(#SVGID_34_);}
	.st127{fill:url(#SVGID_35_);}
	.st128{fill:url(#SVGID_36_);}
	.st129{fill:url(#SVGID_37_);}
	.st130{fill:url(#SVGID_38_);}
	.st131{fill:url(#SVGID_39_);}
	.st132{opacity:5.000000e-02;}
	.st133{opacity:0;fill:#515151;}
	.st134{opacity:4.761905e-02;fill:#545556;}
	.st135{opacity:9.523810e-02;fill:#57595B;}
	.st136{opacity:0.1429;fill:#595D5F;}
	.st137{opacity:0.1905;fill:#5C6164;}
	.st138{opacity:0.2381;fill:#5F6569;}
	.st139{opacity:0.2857;fill:#62686E;}
	.st140{opacity:0.3333;fill:#646C72;}
	.st141{opacity:0.381;fill:#677077;}
	.st142{opacity:0.4286;fill:#6A747C;}
	.st143{opacity:0.4762;fill:#6D7881;}
	.st144{opacity:0.5238;fill:#6F7C85;}
	.st145{opacity:0.5714;fill:#72808A;}
	.st146{opacity:0.619;fill:#75848F;}
	.st147{opacity:0.6667;fill:#788894;}
	.st148{opacity:0.7143;fill:#7A8C98;}
	.st149{opacity:0.7619;fill:#7D8F9D;}
	.st150{opacity:0.8095;fill:#8093A2;}
	.st151{opacity:0.8571;fill:#8397A7;}
	.st152{opacity:0.9048;fill:#859BAB;}
	.st153{opacity:0.9524;fill:#889FB0;}
	.st154{fill:#008DD4;}
	.st155{fill:url(#SVGID_40_);}
	.st156{fill:#4FC5FF;}
	.st157{fill:url(#SVGID_41_);}
	.st158{fill:url(#SVGID_42_);}
	.st159{fill:#63CCFF;}
	.st160{fill:#007FC9;}
	.st161{fill:#6ED8FF;}
	.st162{fill:#008CDE;}
	.st163{fill:#B3EDFF;}
	.st164{fill:#61D7FF;}
	.st165{fill:url(#SVGID_43_);}
	.st166{fill:url(#SVGID_44_);}
	.st167{opacity:2.580645e-02;fill:#505051;}
	.st168{opacity:5.161290e-02;fill:#4E4F51;}
	.st169{opacity:7.741936e-02;fill:#4D4F50;}
	.st170{opacity:0.1032;fill:#4C4E50;}
	.st171{opacity:0.129;fill:#4B4D50;}
	.st172{opacity:0.1548;fill:#494C50;}
	.st173{opacity:0.1806;fill:#484B4F;}
	.st174{opacity:0.2065;fill:#474B4F;}
	.st175{opacity:0.2323;fill:#464A4F;}
	.st176{opacity:0.2581;fill:#44494F;}
	.st177{opacity:0.2839;fill:#43484F;}
	.st178{opacity:0.3097;fill:#42474E;}
	.st179{opacity:0.3355;fill:#41474E;}
	.st180{opacity:0.3613;fill:#3F464E;}
	.st181{opacity:0.3871;fill:#3E454E;}
	.st182{opacity:0.4129;fill:#3D444D;}
	.st183{opacity:0.4387;fill:#3C434D;}
	.st184{opacity:0.4645;fill:#3A424D;}
	.st185{opacity:0.4903;fill:#39424D;}
	.st186{opacity:0.5161;fill:#38414C;}
	.st187{opacity:0.5419;fill:#37404C;}
	.st188{opacity:0.5677;fill:#353F4C;}
	.st189{opacity:0.5935;fill:#343E4C;}
	.st190{opacity:0.6194;fill:#333E4C;}
	.st191{opacity:0.6452;fill:#323D4B;}
	.st192{opacity:0.671;fill:#303C4B;}
	.st193{opacity:0.6968;fill:#2F3B4B;}
	.st194{opacity:0.7226;fill:#2E3A4B;}
	.st195{opacity:0.7484;fill:#2D3A4A;}
	.st196{opacity:0.7742;fill:#2B394A;}
	.st197{opacity:0.8;fill:#2A384A;}
	.st198{fill:url(#SVGID_45_);}
	.st199{fill:url(#SVGID_46_);}
	.st200{fill:#91D5EB;}
	.st201{fill:#E1F0FA;}
	.st202{fill:#9DDEF2;}
	.st203{fill:#A2DEF2;}
	.st204{fill:#BEE9F7;}
	.st205{fill:#C8EEFA;}
	.st206{fill:url(#SVGID_47_);}
	.st207{opacity:0.3;fill:url(#SVGID_48_);}
	.st208{opacity:2.580645e-02;fill:#FBFCFC;}
	.st209{opacity:5.161290e-02;fill:#F7F9FA;}
	.st210{opacity:7.741936e-02;fill:#F3F6F7;}
	.st211{opacity:0.1032;fill:#EFF3F5;}
	.st212{opacity:0.129;fill:#EBF0F2;}
	.st213{opacity:0.1548;fill:#E8EDF0;}
	.st214{opacity:0.1806;fill:#E4EAED;}
	.st215{opacity:0.2065;fill:#E0E7EB;}
	.st216{opacity:0.2323;fill:#DCE4E8;}
	.st217{opacity:0.2581;fill:#D8E1E6;}
	.st218{opacity:0.2839;fill:#D4DEE3;}
	.st219{opacity:0.3097;fill:#D0DBE0;}
	.st220{opacity:0.3355;fill:#CCD8DE;}
	.st221{opacity:0.3613;fill:#C8D5DB;}
	.st222{opacity:0.3871;fill:#C4D2D9;}
	.st223{opacity:0.4129;fill:#C1CFD6;}
	.st224{opacity:0.4387;fill:#BDCCD4;}
	.st225{opacity:0.4645;fill:#B9C9D1;}
	.st226{opacity:0.4903;fill:#B5C6CF;}
	.st227{opacity:0.5161;fill:#B1C3CC;}
	.st228{opacity:0.5419;fill:#ADC0C9;}
	.st229{opacity:0.5677;fill:#A9BDC7;}
	.st230{opacity:0.5935;fill:#A5BAC4;}
	.st231{opacity:0.6194;fill:#A1B7C2;}
	.st232{opacity:0.6452;fill:#9DB4BF;}
	.st233{opacity:0.671;fill:#9AB1BD;}
	.st234{opacity:0.6968;fill:#96AEBA;}
	.st235{opacity:0.7226;fill:#92ABB8;}
	.st236{opacity:0.7484;fill:#8EA8B5;}
	.st237{opacity:0.7742;fill:#8AA5B3;}
	.st238{opacity:0.8;fill:#86A2B0;}
	.st239{fill:url(#SVGID_49_);}
	.st240{clip-path:url(#SVGID_51_);}
	.st241{fill:#0A4D80;}
	.st242{fill:url(#SVGID_52_);}
	.st243{clip-path:url(#SVGID_54_);}
</style>
<g>
	<g>
		<g class="st132">
			<path class="st133" d="M393.9,285.8c24.8-24.9,23.6-44.8,15.3-66.2c-6.2-16.1-9.1-26.8-19.5-41.6c-9.3-13.3-29.1-30.4-58.7-34.6
				c-28.7-4.1-96.7,42.7-120.1,48.9c-25.3,6.8-56.2,24.6-88.6,37.7c-16.6,6.7-41.1,27.9-41.5,39.2c-0.7,18.3,5.4,25.8,13.5,33.2
				c8.1,7.4,24.9,20.1,35,24.9c9.5,4.6,34.2,11.2,42.6,12.1c18.3,1.9,24.9-3.7,39.5-2.1c19,2,25.3,3.4,33.9,3.1
				c7.9-0.2,14.4-1.9,18.7-2.1c6.3-0.3,23.6,4.2,31.3,2.6c20-4.2,15.4-6.3,25.7-9.5C342.6,324.8,373.5,306.3,393.9,285.8z"/>
			<path class="st134" d="M391.9,285.4c24.1-23.8,23.1-43.6,14.8-64.3c-6.3-15.8-9.6-26.1-19.8-40.6c-9.3-13.1-28-29.9-57.5-34.8
				c-28.5-4.6-94.8,41.7-118.1,48c-25.2,6.8-55,24.6-86.8,37.5c-16.3,6.6-42.8,26.7-43,38.3c-0.3,17.7,5.9,24.8,14,32
				c8.2,7.3,24.7,19.9,34.6,24.4c9.9,4.4,33.4,10.2,41.9,11c18.1,1.9,24.8-2.8,39.3-1.3c19,1.9,24.9,3,33.6,2.8
				c7.8-0.2,14.1-1.6,18.8-1.7c6.7-0.2,23.5,3.6,31.1,2c19.6-4,15.2-5.8,25.8-9.2C342.3,322.7,371.8,305,391.9,285.4z"/>
			<path class="st135" d="M389.9,284.9c23.6-22.7,22.5-42.3,14.2-62.4c-6.4-15.5-10-25.5-20.1-39.6c-9.2-12.8-26.8-29.6-56.3-35
				c-28.2-5.2-92.9,40.8-116.1,47.1c-25.1,6.8-53.9,24.7-85.1,37.3c-16,6.5-44.4,25.4-44.4,37.4c0,17.1,6.4,23.8,14.6,30.9
				c8.4,7.2,24.4,19.8,34.3,23.9c10.2,4.3,32.6,9.1,41.3,9.9c18,1.8,24.7-2,39.2-0.5c19,1.8,24.6,2.6,33.2,2.4
				c7.6-0.1,13.8-1.3,18.9-1.4c7.2-0.2,23.4,3,31,1.5c19.1-3.9,15.1-5.4,26-8.9C342,320.6,370.2,303.8,389.9,284.9z"/>
			<path class="st136" d="M387.8,284.4c23-21.6,22-41,13.7-60.6c-6.5-15.2-10.5-24.8-20.4-38.5c-9.1-12.5-25.6-29.2-55-35.2
				c-28-5.7-91,39.9-114.1,46.2c-25.1,6.8-52.8,24.7-83.3,37.1c-15.7,6.3-46.1,24.2-45.9,36.5c0.3,16.5,6.9,22.8,15.2,29.7
				c8.4,7.1,24.2,19.6,34,23.4c10.6,4.1,31.7,8,40.7,8.8c17.9,1.7,24.6-1.1,39.1,0.2c19,1.8,24.2,2.2,32.9,2.1
				c7.4-0.1,13.5-1,19-1.1c7.6-0.2,23.3,2.5,30.8,1c18.6-3.7,15-5,26.1-8.6C341.7,318.6,368.6,302.5,387.8,284.4z"/>
			<path class="st137" d="M385.8,283.9c22.4-20.5,21.5-39.8,13.1-58.7c-6.6-14.9-10.9-24.2-20.7-37.5c-9-12.2-24.4-28.8-53.8-35.5
				c-27.8-6.3-89.2,39-112.1,45.3c-25,6.9-51.6,24.8-81.6,36.9c-15.4,6.2-47.8,22.9-47.3,35.6c0.6,15.9,7.4,21.8,15.7,28.6
				c8.6,7,23.9,19.4,33.7,22.9c11,3.9,30.9,6.9,40.1,7.7c17.8,1.6,24.5-0.3,39,1c19,1.7,23.9,1.8,32.5,1.7
				c7.3-0.1,13.2-0.7,19.1-0.8c8.1-0.2,23.2,1.9,30.6,0.5c18.1-3.6,14.9-4.5,26.3-8.3C341.4,316.5,366.9,301.2,385.8,283.9z"/>
			<path class="st138" d="M383.8,283.4c21.7-19.4,20.9-38.5,12.6-56.8c-6.6-14.5-11.4-23.5-21-36.5c-8.9-12-23.2-28.4-52.5-35.7
				c-27.5-6.8-87.3,38-110.1,44.3c-24.9,6.9-50.5,24.8-79.8,36.7c-15.1,6.1-49.5,21.6-48.8,34.7c0.8,15.3,7.9,20.7,16.3,27.4
				c8.7,6.9,23.7,19.2,33.4,22.4c11.3,3.8,30,5.8,39.5,6.6c17.6,1.5,24.4,0.6,38.9,1.8c19,1.6,23.5,1.5,32.2,1.4
				c7.1-0.1,12.9-0.4,19.2-0.4c8.5-0.1,23.1,1.4,30.4-0.1c17.7-3.4,14.8-4.1,26.5-8C341,314.4,365.2,300,383.8,283.4z"/>
			<path class="st139" d="M381.8,282.9c21.1-18.3,20.4-37.2,12-54.9c-6.7-14.2-11.8-22.9-21.3-35.5c-8.8-11.7-22-28-51.3-35.9
				c-27.3-7.4-85.4,37.1-108.1,43.4c-24.9,6.9-49.4,24.9-78.1,36.4c-14.8,6-51.2,20.4-50.2,33.8c1,14.7,8.4,19.7,16.8,26.3
				c8.8,6.8,23.4,18.9,33.1,21.9c11.7,3.6,29.2,4.7,38.9,5.5c17.5,1.5,24.3,1.4,38.8,2.6c19,1.5,23.2,1.1,31.8,1
				c6.9-0.1,12.6,0,19.3-0.1c9-0.1,23.1,0.8,30.3-0.6c17.2-3.3,14.7-3.6,26.6-7.7C340.7,312.4,363.6,298.7,381.8,282.9z"/>
			<path class="st140" d="M379.8,282.4c20.5-17.2,19.9-36,11.5-53c-6.8-13.9-12.3-22.2-21.6-34.5c-8.7-11.5-20.9-27.6-50.1-36.1
				c-27.1-7.9-83.6,36.2-106.1,42.5c-24.8,7-48.2,24.9-76.3,36.2c-14.5,5.8-52.9,19.1-51.7,32.9c1.2,14.1,8.9,18.7,17.4,25.1
				c8.9,6.8,23.2,18.7,32.8,21.4c12.1,3.4,28.4,3.7,38.3,4.4c17.4,1.4,24.2,2.3,38.7,3.3c19,1.4,22.8,0.6,31.4,0.7
				c6.8,0,12.3,0.3,19.4,0.2c9.4-0.1,23,0.2,30.1-1.1c16.7-3.1,14.6-3.2,26.8-7.4C340.4,310.3,361.9,297.4,379.8,282.4z"/>
			<path class="st141" d="M377.7,281.9c19.9-16.2,19.3-34.7,10.9-51.1c-6.9-13.6-12.7-21.6-21.9-33.5c-8.6-11.2-19.7-27.2-48.8-36.3
				c-26.8-8.4-81.7,35.3-104.1,41.6c-24.7,7-47.1,24.9-74.6,36c-14.2,5.7-54.6,17.8-53.1,32c1.4,13.5,9.4,17.7,17.9,24
				c9,6.7,23,18.5,32.5,20.9c12.5,3.2,27.5,2.6,37.7,3.4c17.2,1.3,24.1,3.1,38.5,4.1c19,1.3,22.4,0.2,31.1,0.3
				c6.6,0.1,12,0.6,19.5,0.5c9.9-0.1,22.9-0.3,29.9-1.6c16.3-3,14.5-2.7,27-7C340.1,308.3,360.2,296.2,377.7,281.9z"/>
			<path class="st142" d="M375.7,281.4c19.2-15.1,18.8-33.4,10.4-49.3c-7-13.3-13.2-20.9-22.2-32.5c-8.5-10.9-18.5-26.7-47.6-36.6
				c-26.6-9-79.8,34.4-102.1,40.7c-24.7,7-46,25-72.8,35.8c-13.9,5.6-56.3,16.5-54.6,31.1c1.6,12.9,9.9,16.7,18.5,22.9
				c9.1,6.6,22.8,18.2,32.2,20.4c12.9,3,26.7,1.5,37.1,2.3c17.1,1.2,24,4,38.4,4.9c19,1.2,22.1-0.2,30.7,0
				c6.5,0.1,11.7,0.9,19.6,0.9c10.3,0,22.8-0.9,29.7-2.1c15.8-2.8,14.3-2.3,27.1-6.7C339.8,306.3,358.5,294.9,375.7,281.4z"/>
			<path class="st143" d="M373.7,280.9c18.6-14,18.2-32.2,9.9-47.4c-7.1-13-13.6-20.3-22.5-31.5c-8.4-10.6-17.3-26.3-46.3-36.8
				c-26.4-9.5-77.9,33.4-100.1,39.8c-24.6,7-44.8,25-71.1,35.6c-13.6,5.5-58.1,15.3-56,30.2c1.7,12.3,10.4,15.7,19,21.7
				c9.2,6.5,22.5,17.9,31.8,19.9c13.3,2.8,25.8,0.4,36.5,1.2c17,1.2,23.8,4.8,38.3,5.6c19,1.1,21.7-0.6,30.4-0.4
				c6.3,0.2,11.4,1.2,19.7,1.2c10.8,0,22.7-1.5,29.6-2.7c15.3-2.7,14.2-1.9,27.3-6.4C339.5,304.2,356.8,293.6,373.7,280.9z"/>
			<path class="st144" d="M371.7,280.4c18-12.9,17.6-30.9,9.3-45.5c-7.2-12.7-14.1-19.6-22.8-30.4c-8.3-10.4-16.1-25.9-45.1-37
				c-26.2-10-76.1,32.5-98.1,38.8c-24.5,7.1-43.7,25.1-69.3,35.4c-13.3,5.3-59.8,14-57.5,29.4c1.8,11.7,11,14.6,19.6,20.6
				c9.3,6.4,22.3,17.7,31.5,19.4c13.7,2.5,25-0.6,35.9,0.1c16.9,1.1,23.7,5.7,38.2,6.4c19,1,21.4-1,30-0.7
				c6.1,0.2,11.1,1.5,19.8,1.5c11.2,0,22.6-2,29.4-3.2c14.8-2.5,14.1-1.4,27.4-6.1C339.2,302.2,355.1,292.3,371.7,280.4z"/>
			<path class="st145" d="M369.6,279.9c17.3-11.9,17.1-29.6,8.8-43.6c-7.3-12.4-14.5-19-23.1-29.4c-8.3-10.1-15-25.5-43.9-37.2
				c-25.9-10.5-74.2,31.6-96,37.9c-24.5,7.1-42.6,25.1-67.5,35.2c-13,5.2-61.6,12.7-58.9,28.5c1.9,11.1,11.5,13.6,20.1,19.4
				c9.4,6.3,22.1,17.4,31.2,18.9c14.1,2.3,24.2-1.7,35.3-1c16.7,1,23.6,6.5,38.1,7.2c19,0.9,21-1.4,29.7-1.1
				c6,0.2,10.8,1.8,19.9,1.8c11.7,0.1,22.5-2.6,29.2-3.7c14.4-2.4,14-0.9,27.6-5.8C338.9,300.1,353.4,291.1,369.6,279.9z"/>
			<path class="st146" d="M367.6,279.4c16.6-10.8,16.5-28.3,8.2-41.7c-7.4-12-15-18.3-23.4-28.4c-8.2-9.8-13.8-25-42.6-37.4
				c-25.7-11-72.3,30.7-94,37c-24.4,7.1-41.4,25.2-65.8,34.9c-12.7,5.1-63.4,11.4-60.3,27.6c2,10.5,12,12.6,20.7,18.3
				c9.5,6.2,21.9,17.1,30.9,18.4c14.5,2,23.3-2.8,34.7-2.1c16.6,1,23.5,7.4,38,8c19,0.8,20.7-1.8,29.3-1.4c5.8,0.2,10.5,2.1,20,2.2
				c12.2,0.1,22.4-3.2,29.1-4.2c13.9-2.3,13.9-0.5,27.8-5.5C338.6,298.1,351.7,289.8,367.6,279.4z"/>
			<path class="st147" d="M365.6,279c16-9.8,15.9-27,7.7-39.8c-7.6-11.7-15.4-17.7-23.7-27.4c-8.1-9.6-12.6-24.6-41.4-37.7
				c-25.5-11.6-70.5,29.7-92,36.1c-24.3,7.2-40.3,25.2-64,34.7c-12.4,5-65.2,10.2-61.8,26.7c2,9.9,12.5,11.6,21.2,17.1
				c9.6,6.1,21.7,16.8,30.6,17.8c14.9,1.7,22.5-3.9,34.1-3.2c16.5,0.9,23.4,8.2,37.9,8.7c19,0.7,20.3-2.2,29-1.8
				c5.6,0.3,10.2,2.4,20.1,2.5c12.6,0.1,22.3-3.7,28.9-4.8c13.4-2.1,13.8,0,27.9-5.2C338.3,296.1,350,288.5,365.6,279z"/>
			<path class="st148" d="M363.6,278.5c15.3-8.7,15.4-25.8,7.1-38c-7.7-11.4-15.9-17-24-26.4c-8-9.3-11.4-24.2-40.2-37.9
				c-25.3-12.1-68.6,28.8-90,35.2c-24.2,7.2-39.2,25.2-62.3,34.5c-12.1,4.8-67.1,8.9-63.2,25.8c2.1,9.3,13,10.6,21.8,16
				c9.8,6,21.5,16.5,30.3,17.3c15.3,1.5,21.6-4.9,33.5-4.3c16.3,0.9,23.3,9.1,37.7,9.5c19,0.6,20-2.6,28.6-2.1
				c5.5,0.3,9.9,2.7,20.2,2.8c13.1,0.1,22.3-4.3,28.7-5.3c13-2,13.7,0.4,28.1-4.9C338,294,348.3,287.2,363.6,278.5z"/>
			<path class="st149" d="M361.6,278c14.6-7.7,14.8-24.5,6.6-36.1c-7.8-11.1-16.3-16.4-24.3-25.4c-7.9-9-10.3-23.7-38.9-38.1
				c-25-12.6-66.7,27.9-88,34.3c-24.2,7.2-38,25.3-60.5,34.3c-11.8,4.7-69,7.7-64.7,24.9c2.1,8.7,13.5,9.5,22.3,14.9
				c9.9,5.9,21.2,16.2,30,16.8c15.7,1.2,20.8-6,32.9-5.4c16.2,0.8,23.2,9.9,37.6,10.3c19,0.5,19.6-3,28.3-2.5
				c5.3,0.3,9.6,3,20.3,3.1c13.5,0.2,22.2-4.9,28.5-5.8c12.5-1.8,13.6,0.9,28.2-4.6C337.7,292,346.6,285.9,361.6,278z"/>
			<path class="st150" d="M359.5,277.5c13.9-6.7,14.2-23.2,6-34.2c-7.9-10.7-16.8-15.7-24.5-24.4c-7.8-8.7-9.1-23.3-37.7-38.3
				c-24.8-13.1-64.8,27-86,33.3c-24.1,7.2-36.9,25.3-58.8,34.1c-11.5,4.6-70.9,6.4-66.1,24c2.2,8.1,14,8.5,22.9,13.7
				c10,5.9,21,15.9,29.7,16.3c16.1,0.8,19.9-7.1,32.2-6.5c16.1,0.7,23.1,10.7,37.5,11c19,0.4,19.3-3.4,27.9-2.8
				c5.2,0.4,9.3,3.3,20.4,3.5c14,0.2,22.1-5.4,28.4-6.3c12-1.7,13.5,1.3,28.4-4.3C337.4,290,344.9,284.5,359.5,277.5z"/>
			<path class="st151" d="M357.5,277c13.3-5.7,13.6-21.9,5.5-32.3c-8.1-10.4-17.2-15-24.8-23.3c-7.7-8.5-8-22.8-36.4-38.5
				c-24.6-13.6-63,26.1-84,32.4c-24,7.3-35.8,25.4-57,33.9c-11.2,4.5-72.8,5.2-67.6,23.1c2.2,7.5,14.6,7.5,23.5,12.6
				c10.1,5.7,20.8,15.6,29.3,15.8c16.6,0.5,19.1-8.1,31.6-7.6c15.9,0.7,23,11.6,37.4,11.8c19,0.3,18.9-3.9,27.6-3.2
				c5,0.4,9,3.6,20.5,3.8c14.4,0.2,22-6,28.2-6.8c11.5-1.6,13.4,1.8,28.6-4C337.1,287.9,343.1,283.2,357.5,277z"/>
			<path class="st152" d="M355.5,276.5c12.6-4.7,13-20.6,4.9-30.4c-8.2-10.1-17.7-14.4-25.1-22.3c-7.7-8.2-6.8-22.4-35.2-38.8
				c-24.4-14.1-61.1,25.1-82,31.5c-24,7.3-34.6,25.4-55.3,33.7c-10.9,4.3-74.9,4-69,22.2c2.2,6.9,15.1,6.4,24,11.4
				c10.2,5.6,20.6,15.5,29,15.3c16.9-0.4,18.3-9.2,31-8.7c15.8,0.7,22.9,12.4,37.3,12.6c19,0.2,18.6-4.3,27.2-3.5
				c4.8,0.4,8.7,3.9,20.6,4.1c14.9,0.2,21.9-6.6,28-7.4c11.1-1.4,13.3,2.3,28.7-3.7C336.8,285.9,341.4,281.8,355.5,276.5z"/>
			<path class="st153" d="M353.5,276c11.9-3.8,12.4-19.3,4.4-28.6c-8.3-9.7-18.2-13.7-25.4-21.3c-7.6-7.9-5.7-21.9-34-39
				c-24.2-14.5-59.2,24.2-80,30.6c-23.9,7.3-33.5,25.5-53.5,33.5c-10.6,4.2-77,2.9-70.5,21.3c2.3,6.4,15.6,5.4,24.6,10.3
				c10.3,5.6,20.3,14.9,28.7,14.8c17.3-0.2,17.4-10.3,30.4-9.8c15.7,0.6,22.8,13.3,37.2,13.4c19,0.1,18.2-4.7,26.8-3.9
				c4.7,0.4,8.4,4.2,20.7,4.5c15.3,0.3,21.8-7.2,27.8-7.9c10.6-1.3,13.2,2.7,28.9-3.4C336.5,283.9,339.6,280.4,353.5,276z"/>
			<path class="st108" d="M351.4,275.5c11.2-2.8,11.8-17.9,3.9-26.7c-8.5-9.3-18.6-13.1-25.7-20.3c-7.5-7.6-4.5-21.5-32.7-39.2
				c-24-15.1-57.4,23.3-78,29.7c-23.8,7.4-32.4,25.5-51.8,33.2c-10.3,4.1-79.2,1.8-71.9,20.4c2.3,5.8,16.1,4.4,25.1,9.1
				c10.4,5.5,20.1,14.6,28.4,14.3c17.7-0.6,16.6-11.3,29.8-10.9c15.5,0.5,22.7,14.1,37.1,14.1c19,0,17.9-5.1,26.5-4.2
				c4.5,0.5,8.1,4.6,20.8,4.8c15.8,0.3,21.7-7.7,27.7-8.4c10.1-1.2,13.1,3.2,29.1-3.1C336.2,281.9,337.9,278.9,351.4,275.5z"/>
		</g>
		<path class="st154" d="M380.5,251.1c-2.9-10.3-9.2-19.2-17.5-25.6c2.1-5.6,3.4-11.7,3.7-18.1c1.4-32.4-23.7-59.7-56.1-61.1
			c-24.7-1.1-46.6,13.4-56.1,34.7c-1.7-0.2-3.4-0.4-5.2-0.5c-20.4-0.9-38.9,8.6-50.4,23.9c-3.2-1.3-6.7-2.1-10.3-2.2
			c-17.6-0.8-32.5,12.9-33.2,30.5c-0.1,2.9,0.2,5.7,0.8,8.4c-6.4,1.1-11.9,4.9-15.2,10.3c-5.3-7.2-13.7-12-23.3-12.4
			c-13.3-0.6-25,7.5-29.8,19.2c-0.6-0.1-1.2-0.2-1.8-0.2c-12.2-0.5-22.5,8.9-23,21.1c-0.5,12.2,8.9,22.5,21.1,23
			c6.3,0.3,12-2.1,16.2-6.1c4.2,2.6,9.2,4.2,14.5,4.4c4.8,10.6,15.2,18.2,27.7,18.8c12.9,0.5,24.3-6.7,29.8-17.5
			c3.6,1.7,7.6,2.7,11.9,2.9c1.3,0.1,2.7,0,4-0.1c7.5,10,19.2,16.7,32.6,17.2c13.1,0.6,25.1-4.8,33.4-13.7
			c5.1,9.8,15.1,16.6,26.9,17.1c12.5,0.5,23.7-6.3,29.3-16.6c6.2,3.2,13.1,5.2,20.5,5.5c16.2,0.7,30.8-6.5,40.3-18.1
			c2.2,0.8,4.6,1.3,7.1,1.4c12.8,0.6,23.6-9.4,24.1-22.1C403,262.5,393.2,251.7,380.5,251.1z"/>
		<linearGradient id="SVGID_1_" gradientUnits="userSpaceOnUse" x1="157.8734" y1="177.8853" x2="334.0512" y2="354.0632">
			<stop  offset="0" style="stop-color:#1062A1"/>
			<stop  offset="1" style="stop-color:#0A4D80"/>
		</linearGradient>
		<path class="st25" d="M381.4,252c-2.9-10.3-9.2-19.2-17.5-25.6c2.1-5.6,3.4-11.7,3.7-18.1c1.4-32.4-23.7-59.7-56.1-61.1
			c-24.7-1.1-46.6,13.4-56.1,34.7c-1.7-0.2-3.4-0.4-5.2-0.5c-20.5-0.9-38.9,8.6-50.4,23.9c-3.2-1.3-6.7-2.1-10.3-2.2
			c-17.6-0.8-32.5,12.9-33.2,30.5c-0.1,2.9,0.2,5.7,0.8,8.4c-6.4,1.1-11.9,4.9-15.2,10.3c-5.3-7.2-13.7-12-23.4-12.4
			c-13.3-0.6-25,7.5-29.8,19.2c-0.6-0.1-1.2-0.2-1.8-0.2c-12.2-0.5-22.5,8.9-23,21.1c-0.5,12.2,8.9,22.5,21.1,23
			c6.3,0.3,12-2.1,16.2-6.1c4.2,2.6,9.2,4.2,14.5,4.4c4.8,10.6,15.2,18.2,27.7,18.8c12.9,0.5,24.3-6.7,29.8-17.5
			c3.6,1.7,7.6,2.7,11.9,2.9c1.3,0.1,2.7,0,4-0.1c7.5,10,19.2,16.7,32.6,17.2c13.1,0.6,25.1-4.8,33.4-13.7
			c5.1,9.8,15.1,16.6,26.9,17.1c12.5,0.5,23.7-6.3,29.3-16.6c6.2,3.2,13.1,5.2,20.5,5.5c16.2,0.7,30.8-6.5,40.3-18.1
			c2.2,0.8,4.6,1.3,7.1,1.4c12.8,0.6,23.6-9.4,24.1-22.1C403.9,263.4,394.1,252.6,381.4,252z"/>
	</g>
	<g>
		<g class="st132">
			<path class="st108" d="M287.2,258.4c15.1-9,15.9-19.8,9.5-26.7c-6.8-7.5-8.3-8.1-19.6-12.9c-7.9-3.4,2.5-40.4-20.1-54.6
				c-19.2-12-55.6,25.3-72.1,30.4c-19,5.9-49.2,15.4-54.7,20.5c-6.5,6-35.3,26.4-22.3,43.8c6,8,17.9,3.5,31,5.2
				c9,1.2,19.7-0.1,27.4,0.1c19.5,0.4,24.4-13.2,29.1-11.2c6.8,2.9,19.6,12,44.4,8.2c19.9-3,19.7-9,23.3-6.8
				C270.2,258.7,277.6,264.1,287.2,258.4z"/>
		</g>
		<path class="st156" d="M287.9,218.4c1.5-5.4,2.3-11.1,2.3-17c0-35-28.4-63.3-63.4-63.3c-29.6,0-54.5,20.3-61.4,47.8
			c-0.6,0-1.3-0.1-1.9-0.1c-13.8,0-26,7.1-33.1,17.9c-3.6-1.5-7.6-2.3-11.7-2.3c-16.9,0-30.7,13.7-30.7,30.7
			c0,16.9,13.7,30.7,30.7,30.7c7.5,0,14.3-2.7,19.6-7.1c6.8,5.7,15.6,9.1,25.2,9.1c10.7,0,20.4-4.3,27.5-11.1
			c10.2,7,22.6,11.1,35.9,11.1c12.2,0,23.5-3.4,33.2-9.4c4.4,5.5,11.1,9,18.7,9c13.2,0,23.9-10.7,23.9-23.9
			C302.7,230.5,296.6,222,287.9,218.4z"/>
		<linearGradient id="SVGID_2_" gradientUnits="userSpaceOnUse" x1="88.9585" y1="202.3461" x2="303.5695" y2="202.3461">
			<stop  offset="0" style="stop-color:#076BBA"/>
			<stop  offset="1" style="stop-color:#0060AB"/>
		</linearGradient>
		<path class="st26" d="M288.8,219.3c1.5-5.4,2.3-11.1,2.3-17c0-35-28.4-63.3-63.4-63.3c-29.6,0-54.5,20.3-61.4,47.8
			c-0.6,0-1.3-0.1-1.9-0.1c-13.8,0-26,7.1-33.1,17.9c-3.6-1.5-7.6-2.3-11.7-2.3c-16.9,0-30.7,13.7-30.7,30.7
			c0,16.9,13.7,30.7,30.7,30.7c7.5,0,14.3-2.7,19.6-7.1c6.8,5.7,15.6,9.1,25.2,9.1c10.7,0,20.4-4.3,27.5-11.1
			c10.2,7,22.6,11.1,35.9,11.1c12.2,0,23.5-3.4,33.2-9.4c4.4,5.5,11.1,9,18.7,9c13.2,0,23.9-10.7,23.9-23.9
			C303.6,231.4,297.5,222.9,288.8,219.3z"/>
	</g>
	<g>
		<g class="st132">
			<path class="st133" d="M435.6,286.4c16-13.5,13.1-55.5,4.9-66.7c-10.7-14.7-22.1-23.7-31.9-28.6c-9.8-4.9-37.4-9.2-50-9.2
				c-17.6,0-34.8,4.3-49,8.1c-15.3,4.1-45.4,15.1-59.7,30.8c-16.7,18.3-2,54.7,2.3,60.1c8,10,17.6,19.9,29.8,25.7
				c11.6,5.6,21.7,5.3,30.4,5.9c6.6,0.5,35.8,3.7,52.9,0.1c12.1-2.5,32.7-6.3,38.5-9.2C409.3,300.8,422.8,297.2,435.6,286.4z"/>
			<path class="st134" d="M433.8,285.6c15.8-13.2,13.2-53.8,5.1-65.2c-10.6-14.9-22-23.4-31.7-28.2c-9.7-4.8-36.1-9.1-48.6-9.2
				c-17.2-0.2-34.5,4-48.6,7.8c-15.3,4.1-45.2,15.3-59.1,30.4c-16.2,17.7-2.4,53.2,2.2,58.9c7.8,9.7,16.9,19.6,29.1,25.3
				c11.6,5.4,21.5,4.9,30,5.6c6.5,0.5,34.8,4.3,52,0.7c12.3-2.5,32.1-6.7,37.9-9.5C407.6,299.3,421,296.1,433.8,285.6z"/>
			<path class="st135" d="M432,284.7c15.7-12.7,13.3-52.1,5.3-63.8c-10.5-15.1-21.8-23-31.6-27.8c-9.5-4.7-34.7-9-47.1-9.3
				c-16.8-0.3-34.2,3.7-48.3,7.5c-15.3,4.2-45.1,15.4-58.4,29.9c-15.6,17-2.8,51.7,2.1,57.8c7.6,9.4,16.1,19.2,28.5,24.8
				c11.5,5.2,21.4,4.5,29.6,5.2c6.5,0.6,33.8,4.8,51.2,1.3c12.5-2.5,31.6-7.1,37.2-9.9C405.9,297.8,419.3,295.1,432,284.7z"/>
			<path class="st136" d="M430.3,283.9c15.6-12.4,13.4-50.5,5.4-62.4c-10.3-15.2-21.7-22.6-31.4-27.4c-9.3-4.6-33.3-9-45.7-9.4
				c-16.4-0.5-33.8,3.4-47.9,7.2c-15.3,4.2-44.9,15.5-57.8,29.5c-15.1,16.4-3.3,50.2,2,56.7c7.3,9.1,15.4,18.9,27.9,24.4
				c11.4,5,21.2,4.1,29.2,4.9c6.4,0.7,32.8,5.3,50.3,1.8c12.7-2.5,31.1-7.5,36.5-10.2C404.2,296.4,417.5,294,430.3,283.9z"/>
			<path class="st137" d="M428.5,283c15.5-12,13.5-48.8,5.6-60.9c-10.1-15.4-21.5-22.3-31.2-27c-9.2-4.5-32-8.9-44.2-9.4
				c-16-0.7-33.5,3.1-47.5,6.9c-15.3,4.2-44.8,15.6-57.2,29.1c-14.5,15.7-3.7,48.7,1.9,55.6c7.1,8.8,14.6,18.6,27.2,24
				c11.4,4.9,21.1,3.7,28.8,4.6c6.4,0.7,31.8,5.9,49.4,2.4c12.9-2.5,30.5-7.9,35.8-10.5C402.5,294.9,415.7,292.9,428.5,283z"/>
			<path class="st138" d="M426.7,282.2c15.3-11.6,13.6-47.1,5.7-59.5c-10-15.6-21.4-21.9-31-26.6c-9-4.4-30.6-8.9-42.8-9.5
				c-15.7-0.8-33.2,2.8-47.2,6.6c-15.3,4.2-44.6,15.8-56.5,28.7c-14,15.1-4.1,47.2,1.7,54.5c6.9,8.5,13.9,18.2,26.6,23.5
				c11.3,4.7,20.9,3.3,28.4,4.3c6.3,0.8,30.8,6.4,48.6,3c13.1-2.5,30-8.3,35.1-10.9C400.8,293.4,414,291.8,426.7,282.2z"/>
			<path class="st139" d="M425,281.3c15.2-11.2,13.8-45.4,5.9-58c-9.8-15.7-21.2-21.6-30.8-26.2c-8.8-4.3-29.2-8.8-41.4-9.6
				c-15.3-1-32.9,2.5-46.8,6.3c-15.3,4.3-44.4,15.9-55.9,28.2c-13.4,14.5-4.6,45.7,1.6,53.3c6.7,8.2,13.1,17.9,26,23.1
				c11.3,4.5,20.8,2.9,28,3.9c6.3,0.9,29.8,6.9,47.7,3.5c13.2-2.5,29.4-8.7,34.4-11.2C399.2,292,412.2,290.8,425,281.3z"/>
			<path class="st140" d="M423.2,280.5c15-10.8,13.9-43.8,6-56.6c-9.7-15.9-21.1-21.2-30.6-25.8c-8.7-4.2-27.8-8.7-39.9-9.6
				c-14.9-1.1-32.6,2.1-46.4,6c-15.3,4.3-44.3,16-55.3,27.8c-12.9,13.8-5,44.2,1.5,52.2c6.5,7.9,12.3,17.6,25.3,22.6
				c11.2,4.4,20.6,2.5,27.6,3.6c6.2,1,28.8,7.5,46.8,4.1c13.4-2.5,28.9-9.1,33.8-11.6C397.5,290.5,410.5,289.7,423.2,280.5z"/>
			<path class="st141" d="M421.4,279.6c14.9-10.4,14-42.1,6.2-55.1c-9.6-16-20.9-20.9-30.4-25.4c-8.5-4.1-26.5-8.6-38.5-9.7
				c-14.5-1.2-32.3,1.8-46.1,5.8c-15.3,4.3-44.1,16.1-54.6,27.4c-12.3,13.2-5.5,42.7,1.4,51.1c6.3,7.6,11.6,17.2,24.7,22.2
				c11.1,4.2,20.4,2.1,27.2,3.3c6.2,1,27.8,8,46,4.7c13.6-2.5,28.4-9.5,33.1-11.9C395.8,289,408.7,288.6,421.4,279.6z"/>
			<path class="st142" d="M419.7,278.8c14.7-10.1,14.1-40.4,6.3-53.7c-9.4-16.2-20.8-20.5-30.3-25c-8.3-3.9-25.1-8.6-37-9.7
				c-14.2-1.4-31.9,1.5-45.7,5.5c-15.3,4.4-43.9,16.3-54,27c-11.8,12.5-5.9,41.2,1.3,50c6,7.3,10.8,16.9,24,21.7
				c11.1,4,20.3,1.8,26.8,3c6.1,1.1,26.8,8.6,45.1,5.2c13.8-2.5,27.8-9.9,32.4-12.3C394.1,287.6,406.9,287.5,419.7,278.8z"/>
			<path class="st143" d="M417.9,278c14.6-9.7,14.2-38.7,6.5-52.3c-9.3-16.3-20.6-20.1-30.1-24.6c-8.2-3.8-23.7-8.5-35.6-9.8
				c-13.8-1.5-31.6,1.2-45.4,5.2c-15.3,4.4-43.8,16.4-53.4,26.6c-11.2,11.9-6.3,39.7,1.2,48.8c5.8,7,10,16.6,23.4,21.3
				c11,3.9,20.1,1.4,26.4,2.6c6.1,1.2,25.8,9.1,44.2,5.8c14-2.5,27.3-10.3,31.7-12.6C392.4,286.1,405.2,286.4,417.9,278z"/>
			<path class="st144" d="M416.1,277.1c14.4-9.3,14.3-37.1,6.6-50.8c-9.2-16.5-20.5-19.8-29.9-24.2c-8-3.7-22.3-8.4-34.2-9.9
				c-13.4-1.7-31.3,0.9-45,4.9c-15.3,4.4-43.6,16.5-52.7,26.1c-10.7,11.2-6.8,38.2,1.1,47.7c5.6,6.8,9.3,16.3,22.8,20.9
				c10.9,3.7,20,1,26,2.3c6,1.3,24.8,9.6,43.4,6.4c14.2-2.5,26.7-10.7,31-13C390.7,284.6,403.4,285.3,416.1,277.1z"/>
			<path class="st145" d="M414.4,276.3c14.3-8.9,14.4-35.4,6.8-49.4c-9-16.7-20.3-19.4-29.7-23.8c-7.8-3.6-21-8.3-32.7-9.9
				c-13-1.8-31,0.6-44.6,4.6c-15.3,4.5-43.4,16.7-52.1,25.7c-10.1,10.6-7.2,36.7,1,46.6c5.4,6.5,8.5,16,22.1,20.4
				c10.9,3.6,19.8,0.6,25.6,2c6,1.4,23.8,10.2,42.5,6.9c14.4-2.5,26.2-11.1,30.3-13.3C389.1,283.2,401.6,284.2,414.4,276.3z"/>
			<path class="st146" d="M412.6,275.4c14.1-8.6,14.4-33.7,6.9-47.9c-8.9-16.8-20.2-19.1-29.5-23.4c-7.7-3.5-19.6-8.2-31.3-10
				c-12.6-1.9-30.7,0.3-44.3,4.3c-15.3,4.5-43.3,16.8-51.5,25.3c-9.6,10-7.7,35.2,0.9,45.5c5.1,6.2,7.7,15.6,21.5,20
				c10.8,3.4,19.7,0.3,25.2,1.6c5.9,1.5,22.8,10.7,41.6,7.5c14.5-2.5,25.7-11.5,29.7-13.7C387.4,281.7,399.8,283.1,412.6,275.4z"/>
			<path class="st147" d="M410.8,274.6c14-8.2,14.5-32,7.1-46.5c-8.8-17-20-18.7-29.3-23c-7.5-3.4-18.2-8.1-29.9-10.1
				c-12.3-2-30.3,0-43.9,4c-15.3,4.5-43.1,16.9-50.8,24.9c-9,9.3-8.1,33.7,0.8,44.3c4.9,5.9,7,15.3,20.9,19.5
				c10.7,3.3,19.5-0.1,24.8,1.3c5.9,1.6,21.8,11.3,40.8,8c14.7-2.5,25.1-11.9,29-14C385.7,280.2,398.1,282,410.8,274.6z"/>
			<path class="st148" d="M409.1,273.7c13.8-7.8,14.6-30.3,7.2-45c-8.6-17.1-19.9-18.4-29.1-22.6c-7.3-3.3-16.8-8-28.4-10.1
				c-11.9-2.1-30-0.3-43.6,3.7c-15.3,4.5-43,17-50.2,24.4c-8.5,8.7-8.6,32.2,0.7,43.2c4.7,5.6,6.2,15,20.2,19.1
				c10.7,3.1,19.4-0.5,24.5,1c5.8,1.7,20.8,11.8,39.9,8.6c14.9-2.5,24.6-12.3,28.3-14.3C384,278.7,396.3,280.9,409.1,273.7z"/>
			<path class="st149" d="M407.3,272.9c13.7-7.5,14.7-28.7,7.4-43.6c-8.5-17.3-19.7-18-29-22.2c-7.2-3.2-15.5-7.9-27-10.2
				c-11.5-2.2-29.7-0.6-43.2,3.5c-15.3,4.6-42.8,17.2-49.6,24c-7.9,8-9,30.7,0.5,42.1c4.5,5.3,5.4,14.7,19.6,18.7
				c10.6,3,19.2-0.8,24.1,0.7c5.7,1.8,19.8,12.3,39,9.2c15.1-2.4,24-12.7,27.6-14.7C382.3,277.3,394.5,279.8,407.3,272.9z"/>
			<path class="st150" d="M405.5,272c13.5-7.1,14.8-27,7.5-42.2c-8.4-17.4-19.5-17.7-28.8-21.8c-7-3.1-14.1-7.8-25.5-10.2
				c-11.1-2.4-29.4-0.9-42.8,3.2c-15.3,4.6-42.6,17.3-48.9,23.6c-7.4,7.4-9.5,29.2,0.4,41c4.2,5,4.7,14.4,19,18.2
				c10.5,2.8,19-1.2,23.7,0.3c5.7,1.9,18.8,12.9,38.1,9.7c15.3-2.4,23.5-13.2,26.9-15C380.6,275.8,392.7,278.7,405.5,272z"/>
			<path class="st151" d="M403.8,271.2c13.4-6.8,14.9-25.3,7.7-40.7c-8.3-17.6-19.4-17.3-28.6-21.4c-6.8-3-12.7-7.7-24.1-10.3
				c-10.8-2.5-29.1-1.2-42.5,2.9c-15.3,4.6-42.5,17.4-48.3,23.2c-6.8,6.7-9.9,27.7,0.3,39.8c4,4.8,3.9,14.1,18.3,17.8
				c10.5,2.7,18.9-1.5,23.3,0c5.6,2,17.7,13.4,37.3,10.3c15.5-2.4,22.9-13.6,26.2-15.4C378.9,274.3,391,277.6,403.8,271.2z"/>
			<path class="st152" d="M402,270.3c13.2-6.4,15-23.6,7.8-39.3c-8.1-17.7-19.2-17-28.4-21c-6.6-2.9-11.4-7.6-22.7-10.4
				c-10.4-2.6-28.8-1.5-42.1,2.6c-15.3,4.7-42.3,17.5-47.7,22.8c-6.3,6.1-10.4,26.2,0.2,38.7c3.8,4.5,3.1,13.8,17.7,17.3
				c10.4,2.5,18.7-1.9,22.9-0.3c5.6,2.1,16.7,13.9,36.4,10.9c15.6-2.4,22.4-14,25.6-15.7C377.3,272.9,389.2,276.5,402,270.3z"/>
			<path class="st153" d="M400.2,269.5c13-6.1,15.1-21.9,8-37.8c-8-17.9-19.1-16.6-28.2-20.6c-6.5-2.8-10-7.5-21.2-10.4
				c-10-2.6-28.4-1.8-41.7,2.3c-15.3,4.7-42.1,17.7-47,22.3c-5.7,5.5-10.8,24.8,0.1,37.6c3.6,4.2,2.4,13.5,17.1,16.9
				c10.3,2.4,18.5-2.2,22.5-0.6c5.5,2.2,15.7,14.5,35.5,11.4c15.8-2.4,21.9-14.4,24.9-16.1C375.6,271.4,387.4,275.4,400.2,269.5z"/>
			<path class="st108" d="M398.5,268.6c12.9-5.7,15.2-20.2,8.1-36.4c-7.9-18-18.9-16.3-28-20.2c-6.3-2.7-8.6-7.4-19.8-10.5
				c-9.7-2.7-28.1-2.1-41.4,2c-15.3,4.7-42,17.8-46.4,21.9c-5.2,4.8-11.3,23.3,0,36.5c3.3,3.9,1.6,13.2,16.4,16.4
				c10.3,2.2,18.4-2.6,22.1-1c5.4,2.4,14.7,15,34.7,12c16-2.4,21.3-14.8,24.2-16.4C373.9,269.9,385.6,274.3,398.5,268.6z"/>
		</g>
		<path class="st156" d="M381.3,208c-0.7,0-1.4,0-2.1,0.1c-3.7-10.6-13.8-18.1-25.6-18.1c-3.5,0-6.9,0.7-10,1.9
			c-3.7-10.1-13.4-17.3-24.7-17.3c-11.1,0-20.6,6.8-24.4,16.6c-1.3-0.2-2.6-0.4-4-0.4c-11.9,0-21.8,9.1-23,20.7
			c-1.7-0.3-3.4-0.5-5.2-0.5c-14.4,0-26.1,11.7-26.1,26.1c0,14.4,11.7,26.1,26.1,26.1c0.2,0,0.4,0,0.7,0c2.5,10.6,12,18.4,23.4,18.4
			c8.8,0,16.4-4.7,20.6-11.7c5.7,9.8,16.3,16.4,28.5,16.4c13.5,0,25-8.1,30.2-19.6c4.6,2.6,9.9,4.2,15.6,4.2
			c17.3,0,31.3-14,31.3-31.3C412.6,222,398.6,208,381.3,208z"/>
		<linearGradient id="SVGID_3_" gradientUnits="userSpaceOnUse" x1="237.2871" y1="231.3664" x2="413.6534" y2="231.3664">
			<stop  offset="0" style="stop-color:#076BBA"/>
			<stop  offset="1" style="stop-color:#0060AB"/>
		</linearGradient>
		<path class="st27" d="M382.3,209.1c-0.7,0-1.4,0-2.1,0.1c-3.7-10.6-13.8-18.1-25.6-18.1c-3.5,0-6.9,0.7-10,1.9
			c-3.7-10.1-13.4-17.3-24.7-17.3c-11.1,0-20.6,6.9-24.4,16.6c-1.3-0.2-2.6-0.3-4-0.3c-12,0-21.8,9.1-23,20.7
			c-1.7-0.3-3.4-0.5-5.2-0.5c-14.4,0-26.1,11.7-26.1,26.1c0,14.4,11.7,26.1,26.1,26.1c0.2,0,0.4,0,0.7,0c2.5,10.5,12,18.4,23.4,18.4
			c8.8,0,16.4-4.7,20.6-11.7c5.7,9.8,16.3,16.4,28.5,16.4c13.5,0,25-8.1,30.2-19.6c4.6,2.6,9.9,4.2,15.6,4.2
			c17.3,0,31.3-14,31.3-31.3C413.7,223.1,399.6,209.1,382.3,209.1z"/>
	</g>
	<g>
		<g class="st132">
			<path class="st133" d="M401.5,224.8c18.7-19.4,17.4-59,7.1-73.2c-13.5-18.6-30-25.5-42.4-31.7c-12.4-6.2-30.4-11.9-46.1-14.3
				c-19.4-2.9-40.8,5.4-58.7,10.2c-19.3,5.2-79,25.3-97.1,45.1c-10,10.9-12.5,25.1-11,38.2c1.7,14.6,8.1,27.8,11,31.3
				c10.1,12.6,46.9,25.2,62.2,32.6c14.7,7,27.4,6.7,38.3,7.4c8.3,0.6,31.5,0,53.1-4.5c15.3-3.2,30.5-15.1,37.9-18.7
				C362.9,243.8,387.4,239.5,401.5,224.8z"/>
			<path class="st134" d="M400,224.3c18.6-18.8,17.6-57.7,7.4-71.9c-13.3-18.5-29.5-25-41.8-31.1c-12.2-6.1-29.3-11.8-45.1-14.3
				c-19-3-39.9,5-57.9,9.9c-19.3,5.3-80,25.5-97.6,44.4c-10,10.8-12.5,24.9-10.8,37.9c2,14.4,9,27,12.2,30.5
				c10.3,11.7,45.3,24.8,60.8,32c14.6,6.8,27.1,6.1,37.8,7c8.2,0.7,30.6,0.9,52.9-3.8c15.5-3.3,30.3-15.4,37.5-19
				C362.2,242.4,385.7,238.7,400,224.3z"/>
			<path class="st135" d="M398.5,223.9c18.5-18.1,17.8-56.4,7.8-70.7c-13.1-18.3-29-24.5-41.3-30.6c-12-5.9-28.3-11.6-44.2-14.3
				c-18.6-3.1-39.1,4.5-57.1,9.5c-19.3,5.3-80.9,25.7-98.1,43.7c-10.1,10.6-12.6,24.8-10.6,37.6c2.3,14.2,9.9,26.1,13.4,29.7
				c10.5,10.8,43.8,24.3,59.4,31.4c14.5,6.6,26.8,5.6,37.2,6.5c8.2,0.8,29.8,1.9,52.7-3.1c15.7-3.4,30-15.7,37-19.2
				C361.6,241.1,384.2,238,398.5,223.9z"/>
			<path class="st136" d="M396.9,223.5c18.4-17.5,18.1-55.1,8.1-69.4c-12.8-18.2-28.5-24-40.8-30c-11.8-5.8-27.2-11.4-43.2-14.2
				c-18.3-3.2-38.3,4-56.3,9.1c-19.3,5.4-81.8,25.9-98.6,42.9c-10.2,10.4-12.7,24.7-10.4,37.3c2.5,14.1,10.8,25.3,14.6,28.9
				c10.6,9.9,42.3,23.8,58,30.8c14.5,6.4,26.6,5,36.6,6.1c8.1,0.8,28.9,2.9,52.4-2.3c16-3.5,29.7-16,36.6-19.5
				C361,239.8,382.5,237.2,396.9,223.5z"/>
			<path class="st137" d="M395.4,223.1c18.3-16.9,18.3-53.8,8.4-68.1c-12.6-18.1-28-23.5-40.2-29.4c-11.6-5.7-26.1-11.2-42.2-14.2
				c-17.9-3.3-37.5,3.6-55.5,8.7c-19.3,5.5-82.7,26-99.1,42.2c-10.3,10.2-12.8,24.5-10.2,37c2.8,13.9,11.6,24.5,15.9,28.1
				c10.6,9.1,40.7,23.3,56.6,30.2c14.4,6.1,26.3,4.5,36,5.6c8,0.9,28,3.8,52.2-1.6c16.2-3.6,29.4-16.4,36.1-19.7
				C360.3,238.4,380.9,236.5,395.4,223.1z"/>
			<path class="st138" d="M393.9,222.7c18.2-16.3,18.5-52.6,8.7-66.8c-12.3-18-27.6-23-39.7-28.9c-11.3-5.5-25-11.1-41.2-14.2
				c-17.5-3.4-36.7,3.1-54.7,8.4c-19.3,5.6-83.7,26.2-99.6,41.5c-10.3,10-12.9,24.4-10,36.7c3.1,13.7,12.4,23.6,17.1,27.3
				c10.5,8.4,39.2,22.9,55.3,29.6c14.3,5.9,26,3.9,35.5,5.1c8,1,27.1,4.8,52-0.8c16.4-3.7,29.2-16.7,35.6-20
				C359.7,237.1,379.3,235.7,393.9,222.7z"/>
			<path class="st139" d="M392.3,222.3c18.1-15.7,18.7-51.3,9.1-65.6c-12.1-17.8-27.1-22.5-39.2-28.3c-11.1-5.4-23.9-10.9-40.3-14.2
				c-17.2-3.5-35.8,2.6-53.9,8c-19.2,5.7-84.7,26.3-100.1,40.8c-10.4,9.8-12.9,24.2-9.8,36.4c3.4,13.5,13.3,22.8,18.3,26.5
				c10.4,7.7,37.6,22.4,53.9,29c14.2,5.7,25.7,3.4,34.9,4.7c7.9,1.1,26.3,5.7,51.8-0.1c16.6-3.8,28.9-17,35.2-20.2
				C359.1,235.7,377.7,235,392.3,222.3z"/>
			<path class="st140" d="M390.8,221.9c18-15.1,19-50,9.4-64.3c-11.8-17.7-26.6-22-38.6-27.8c-10.9-5.3-22.8-10.7-39.3-14.2
				c-16.8-3.5-35,2.2-53.1,7.6c-19.2,5.8-85.7,26.5-100.6,40.1c-10.5,9.6-13,24.1-9.6,36.1c3.7,13.3,14.1,22,19.5,25.7
				c10.2,7,36.1,22,52.5,28.3c14.1,5.5,25.5,2.9,34.3,4.2c7.8,1.2,25.4,6.7,51.5,0.6c16.8-3.8,28.6-17.3,34.7-20.5
				C358.5,234.4,376.1,234.2,390.8,221.9z"/>
			<path class="st141" d="M389.3,221.5c17.9-14.5,19.2-48.7,9.7-63c-11.6-17.6-26.1-21.5-38.1-27.2c-10.7-5.1-21.7-10.5-38.3-14.2
				c-16.4-3.6-34.2,1.7-52.3,7.2c-19.2,5.8-86.6,26.6-101,39.4c-10.6,9.4-13.1,23.9-9.5,35.8c4,13.2,14.3,22.2,20.8,25
				c8.7,8.1,34.6,21.5,51.1,27.7c14.1,5.3,25.2,2.3,33.7,3.8c7.8,1.3,24.5,7.7,51.3,1.4c17-3.9,28.3-17.7,34.3-20.7
				C357.8,233.1,374.5,233.5,389.3,221.5z"/>
			<path class="st142" d="M387.7,221.1c17.8-13.9,19.4-47.4,10-61.8c-11.3-17.4-25.6-21-37.6-26.7c-10.5-5-20.6-10.3-37.4-14.1
				c-16.1-3.7-33.4,1.2-51.6,6.9c-19.2,5.9-87.7,26.7-101.5,38.7c-10.7,9.3-13.2,23.8-9.3,35.5c4.3,13,15,21.5,22,24.2
				c8.5,7.5,33,21,49.7,27.1c14,5.1,24.9,1.8,33.2,3.3c7.7,1.4,23.6,8.6,51.1,2.1c17.2-4,28-18,33.8-21
				C357.2,231.7,372.8,232.7,387.7,221.1z"/>
			<path class="st143" d="M386.2,220.7c17.7-13.3,19.6-46.1,10.4-60.5c-11.1-17.3-25.1-20.5-37.1-26.1
				c-10.3-4.8-19.6-10.1-36.4-14.1c-15.7-3.8-32.6,0.8-50.8,6.5c-19.2,6-88.7,26.8-102,38c-10.8,9.1-13.2,23.6-9.1,35.2
				c4.6,12.8,15.8,20.8,23.2,23.4c8.3,6.9,31.5,20.6,48.3,26.5c13.9,4.9,24.7,1.3,32.6,2.9c7.7,1.5,22.8,9.6,50.9,2.9
				c17.4-4.1,27.8-18.3,33.4-21.2C356.6,230.4,371.2,232,386.2,220.7z"/>
			<path class="st144" d="M384.7,220.2c17.6-12.7,19.8-44.8,10.7-59.2c-10.8-17.1-24.6-20-36.5-25.5c-10.1-4.7-18.5-9.9-35.4-14.1
				c-15.3-3.8-31.7,0.3-50,6.1c-19.2,6.1-89.7,26.9-102.5,37.3c-11,8.8-13.3,23.5-8.9,34.9c4.9,12.6,16.6,20.1,24.4,22.6
				c8.2,6.4,29.9,20.1,47,25.9c13.8,4.7,24.4,0.8,32,2.4c7.6,1.6,21.9,10.6,50.6,3.6c17.7-4.2,27.5-18.6,32.9-21.5
				C355.9,229,369.6,231.2,384.7,220.2z"/>
			<path class="st145" d="M383.2,219.8c17.5-12.2,20.1-43.5,11-57.9c-10.6-17-24.2-19.5-36-25c-9.9-4.6-17.4-9.7-34.4-14.1
				c-15-3.9-30.9-0.2-49.2,5.7c-19.1,6.2-90.8,27-103,36.6c-11.1,8.6-13.4,23.3-8.7,34.6c5.1,12.4,17.3,19.5,25.6,21.8
				c8,5.8,28.4,19.7,45.6,25.3c13.7,4.5,24.1,0.2,31.4,1.9c7.5,1.7,21,11.5,50.4,4.3c17.9-4.3,27.2-19,32.4-21.7
				C355.3,227.7,368,230.4,383.2,219.8z"/>
			<path class="st146" d="M381.6,219.4c17.3-11.6,20.3-42.2,11.4-56.7c-10.4-16.9-23.7-19-35.5-24.4c-9.7-4.5-16.3-9.5-33.5-14.1
				c-14.6-3.9-30.1-0.6-48.4,5.3c-19.1,6.2-91.8,27.1-103.5,35.8c-11.2,8.4-13.5,23.2-8.5,34.3c5.4,12.3,18.6,17.3,26.9,21
				c8.6,3.8,26.8,19.3,44.2,24.7c13.7,4.3,23.8-0.3,30.9,1.5c7.5,1.9,20.1,12.5,50.2,5.1c18.1-4.4,26.9-19.3,32-22
				C354.7,226.3,366.3,229.7,381.6,219.4z"/>
			<path class="st147" d="M380.1,219c17.2-11,20.5-40.9,11.7-55.4c-10.1-16.7-23.2-18.5-34.9-23.9c-9.5-4.3-15.2-9.3-32.5-14.1
				c-14.2-4-29.3-1.1-47.6,5c-19.1,6.3-92.9,27.1-104,35.1c-11.4,8.2-13.5,23.1-8.3,34c5.7,12.1,19.3,16.6,28.1,20.2
				c8.3,3.4,25.3,18.8,42.8,24.1c13.6,4.1,23.6-0.8,30.3,1c7.4,2,19.3,13.4,50,5.8c18.3-4.5,26.7-19.6,31.5-22.2
				C354,225,364.7,228.9,380.1,219z"/>
			<path class="st148" d="M378.6,218.6c17.1-10.5,20.7-39.6,12-54.1c-9.9-16.6-22.7-18-34.4-23.3c-9.2-4.2-14.1-9-31.5-14.1
				c-13.9-4-28.5-1.6-46.8,4.6c-19.1,6.4-94,27.1-104.5,34.4c-11.5,7.9-13.6,22.9-8.1,33.7c6,11.9,20,16,29.3,19.4
				c8,2.9,23.7,18.4,41.4,23.5c13.5,3.9,23.3-1.3,29.7,0.6c7.3,2.1,18.4,14.4,49.7,6.6c18.5-4.6,26.4-19.9,31.1-22.5
				C353.4,223.6,363.1,228.1,378.6,218.6z"/>
			<path class="st149" d="M377,218.2c16.9-9.9,20.9-38.3,12.3-52.8c-9.7-16.5-22.2-17.5-33.9-22.8c-9-4.1-13.1-8.8-30.6-14
				c-13.5-4-27.6-2-46,4.2c-19.1,6.5-95,27.2-105,33.7c-11.7,7.7-13.7,22.8-7.9,33.4c6.3,11.7,20.7,15.3,30.5,18.6
				c7.7,2.5,22.2,18,40,22.9c13.4,3.7,23-1.8,29.1,0.1c7.3,2.2,17.5,15.4,49.5,7.3c18.7-4.7,26.1-20.3,30.6-22.7
				C352.7,222.3,361.4,227.3,377,218.2z"/>
			<path class="st150" d="M375.5,217.8c16.8-9.3,21.1-37,12.7-51.6c-9.4-16.3-21.7-17-33.3-22.2c-8.8-3.9-12-8.6-29.6-14
				c-13.2-4.1-26.8-2.5-45.2,3.8c-19.1,6.6-96.1,27.2-105.5,33c-11.9,7.4-13.8,22.6-7.8,33.1c6.6,11.5,21.4,14.8,31.8,17.8
				c7.4,2.1,20.6,17.5,38.6,22.3c13.3,3.5,22.7-2.3,28.6-0.3c7.2,2.4,16.6,16.3,49.3,8c18.9-4.8,25.8-20.6,30.2-23
				C352.1,221,359.8,226.5,375.5,217.8z"/>
			<path class="st151" d="M374,217.4c16.7-8.8,21.3-35.6,13-50.3c-9.2-16.2-21.2-16.5-32.8-21.6c-8.6-3.8-10.9-8.3-28.6-14
				c-12.8-4.1-26-3-44.4,3.5c-19,6.6-97.2,27.2-106,32.3c-12.1,7-13.8,22.5-7.6,32.8c6.9,11.4,22.1,14.3,33,17
				c7.1,1.8,19.1,17.1,37.3,21.7c13.2,3.4,22.4-2.8,28-0.8c7.1,2.5,15.8,17.3,49,8.8c19.1-4.9,25.5-20.9,29.7-23.2
				C351.5,219.6,358.1,225.7,374,217.4z"/>
			<path class="st152" d="M372.4,217c16.5-8.2,21.5-34.3,13.3-49c-9-16-20.7-16.1-32.3-21.1c-8.4-3.7-9.9-8.1-27.6-14
				c-12.5-4.1-25.2-3.4-43.6,3.1c-19,6.7-98.3,27.1-106.5,31.6c-12.3,6.7-13.9,22.3-7.4,32.5c7.2,11.2,22.8,13.9,34.2,16.2
				c6.9,1.4,17.5,16.7,35.9,21.1c13.1,3.2,22.2-3.3,27.4-1.3c7,2.7,14.9,18.3,48.8,9.5c19.4-5,25.3-21.3,29.2-23.5
				C350.8,218.2,356.5,224.9,372.4,217z"/>
			<path class="st153" d="M370.9,216.6c16.4-7.7,21.7-33,13.6-47.8c-8.8-15.9-20.2-15.6-31.8-20.5c-8.2-3.6-8.8-7.8-26.7-14
				c-12.1-4.2-24.4-3.9-42.8,2.7c-19,6.8-99.4,27.1-107,30.9c-12.5,6.2-14,22.2-7.2,32.2c7.5,11,23.5,13.5,35.4,15.4
				c6.6,1,16,16.3,34.5,20.5c13.1,3,21.9-3.7,26.8-1.7c6.9,2.8,14,19.2,48.6,10.3c19.6-5.1,25-21.6,28.8-23.7
				C350.2,216.9,354.8,224.1,370.9,216.6z"/>
			<path class="st108" d="M369.4,216.1c16.3-7.2,21.9-31.7,14-46.5c-8.5-15.7-19.8-15.1-31.2-20c-8-3.4-7.7-7.6-25.7-14
				c-11.8-4.2-23.5-4.4-42.1,2.3c-19,6.9-100.5,27-107.5,30.2c-12.8,5.7-14.1,22-7,32c7.7,10.8,24.2,13.2,36.7,14.6
				c6.4,0.7,14.4,15.9,33.1,19.9c13,2.8,21.6-4.2,26.3-2.2c6.8,3,13.1,20.2,48.4,11c19.8-5.2,24.7-21.9,28.3-24
				C349.6,215.6,353.2,223.3,369.4,216.1z"/>
		</g>
		<path class="st159" d="M355.6,144.7c-1.4,0-2.8,0.1-4.2,0.3c-5.3-15.5-19.9-26.7-37.2-26.7c-8,0-15.4,2.4-21.6,6.5
			c-4.3-11.6-15.4-20-28.5-20c-14.8,0-27.1,10.6-29.8,24.6c-4.2-3.1-9.4-4.9-15-4.9c-12.8,0-23.4,9.6-24.9,22.1c-0.1,0-0.1,0-0.2,0
			c-20,0-36.2,16.2-36.2,36.2c0,20,16.2,36.2,36.2,36.2c6.4,0,12.4-1.6,17.6-4.5c1.9,12.5,12.7,22.2,25.8,22.2
			c10.3,0,19.3-6,23.5-14.7c8,11.7,21.4,19.4,36.6,19.4c19.7,0,36.3-12.8,42.1-30.6c4.8,2.5,10.2,3.9,16,3.9
			c19.3,0,34.9-15.6,34.9-34.9S374.9,144.7,355.6,144.7z"/>
		<path class="st160" d="M356.7,145.7c-1.4,0-2.8,0.1-4.2,0.3c-5.3-15.5-19.9-26.7-37.2-26.7c-8,0-15.4,2.4-21.6,6.5
			c-4.3-11.6-15.4-19.9-28.5-19.9c-14.8,0-27.1,10.6-29.8,24.6c-4.2-3.1-9.4-4.9-15-4.9c-12.8,0-23.4,9.6-24.9,22.1
			c-0.1,0-0.1,0-0.2,0c-20,0-36.2,16.2-36.2,36.2c0,20,16.2,36.2,36.2,36.2c6.4,0,12.4-1.6,17.6-4.5c1.9,12.5,12.7,22.2,25.8,22.2
			c10.3,0,19.2-6,23.5-14.7c8,11.7,21.4,19.4,36.7,19.4c19.7,0,36.3-12.8,42.1-30.6c4.8,2.5,10.2,3.9,16,3.9
			c19.3,0,34.9-15.6,34.9-34.9C391.6,161.3,375.9,145.7,356.7,145.7z"/>
	</g>
	<g>
		<g class="st132">
			<path class="st133" d="M277,281.2c9.6-14.3,5-40.6-1.7-49.8c-8.8-12.1-20.3-17.4-28.4-21.5c-8.1-4-25.6-11.2-35.9-11.2
				c-14.4,0-21.7,5.3-33.4,8.4c-12.6,3.4-33.9,23-45.6,35.8c-13.7,15-10.2,37.6-6.7,42c6.6,8.2,14.5,16.3,24.4,21.1
				c9.5,4.6,17.8,4.3,24.9,4.8c5.4,0.4,11.7,3,25.7,0.1c10-2.1,14.7-2.9,19.8-4.5C231,303.2,265.4,298.4,277,281.2z"/>
			<path class="st134" d="M275.7,281c9.7-13.8,5.7-39.3-1-48.7c-8.7-12.2-20.4-17.3-28.4-21.2c-7.9-3.9-25.1-11.4-35.3-11.5
				c-14.1-0.1-21.8,5-33.4,8.1C165,211,144,230.5,132.7,243c-13.3,14.5-10.7,36.7-7,41.4c6.4,8,14.1,16,24.2,20.6
				c9.7,4.4,17.8,3.8,24.7,4.4c5.4,0.4,11.7,3.1,25.9,0.2c10.1-2.1,15-3,20-4.5C231,301.9,264.2,297.6,275.7,281z"/>
			<path class="st135" d="M274.5,280.8c9.7-13.4,6.4-38.1-0.2-47.7c-8.6-12.4-20.5-17.1-28.5-21c-7.8-3.9-24.6-11.6-34.8-11.8
				c-13.8-0.3-21.9,4.7-33.5,7.8c-12.6,3.4-33.2,22.9-44.2,34.9c-12.8,14-11.2,35.7-7.2,40.7c6.2,7.7,13.7,15.7,23.9,20
				c9.9,4.2,17.8,3.3,24.5,3.9c5.3,0.5,11.8,3.1,26.1,0.2c10.3-2.1,15.3-3.2,20.2-4.4C231.1,300.6,262.9,296.8,274.5,280.8z"/>
			<path class="st136" d="M273.2,280.6c9.7-12.9,7.2-36.8,0.6-46.6c-8.5-12.5-20.6-16.9-28.6-20.8c-7.7-3.8-24-11.8-34.2-12.1
				c-13.5-0.4-22,4.3-33.5,7.5c-12.6,3.4-32.9,22.9-43.5,34.4c-12.4,13.5-11.7,34.7-7.4,40.1c6,7.5,13.3,15.4,23.7,19.5
				c10,4,17.8,2.8,24.4,3.4c5.3,0.6,11.8,3.2,26.2,0.3c10.5-2.1,15.6-3.3,20.3-4.4C231.1,299.3,261.7,296,273.2,280.6z"/>
			<path class="st137" d="M272,280.4c9.8-12.5,7.9-35.6,1.3-45.6c-8.3-12.7-20.7-16.7-28.7-20.6c-7.5-3.7-23.5-12-33.6-12.4
				c-13.2-0.5-22.1,4-33.6,7.2c-12.6,3.5-32.6,22.8-42.8,33.9c-11.9,12.9-12.3,33.8-7.7,39.4c5.9,7.2,12.9,15.1,23.4,19
				c10.2,3.8,17.8,2.2,24.2,3c5.2,0.6,11.9,3.2,26.4,0.3c10.6-2.1,15.9-3.4,20.5-4.4C231.2,298.1,260.5,295.2,272,280.4z"/>
			<path class="st138" d="M270.8,280.3c9.8-12.1,8.6-34.3,2.1-44.6c-8.2-12.8-20.8-16.5-28.7-20.4c-7.4-3.6-23-12.2-33.1-12.7
				c-12.9-0.7-22.2,3.6-33.7,6.8c-12.6,3.5-32.2,22.8-42.1,33.4c-11.5,12.4-12.8,32.8-7.9,38.8c5.7,7,12.5,14.8,23.2,18.5
				c10.4,3.6,17.8,1.7,24,2.5c5.2,0.7,11.9,3.2,26.6,0.4c10.8-2.1,16.2-3.5,20.7-4.4C231.2,296.8,259.2,294.5,270.8,280.3z"/>
			<path class="st139" d="M269.5,280.1c9.8-11.6,9.4-33.1,2.8-43.5c-8.1-13-20.9-16.4-28.8-20.2c-7.3-3.5-22.5-12.4-32.5-13
				c-12.6-0.8-22.2,3.3-33.7,6.5c-12.6,3.5-31.9,22.8-41.3,32.9c-11,11.9-13.3,31.8-8.1,38.1c5.5,6.8,12.2,14.5,22.9,17.9
				c10.5,3.4,17.8,1.2,23.8,2c5.2,0.7,12,3.3,26.8,0.4c10.9-2.1,16.5-3.7,20.8-4.4C231.3,295.5,258,293.7,269.5,280.1z"/>
			<path class="st140" d="M268.3,279.9c9.9-11.2,10.1-31.8,3.6-42.5c-8-13.1-21-16.2-28.9-19.9c-7.1-3.4-22-12.6-32-13.3
				c-12.3-0.9-22.3,3-33.8,6.2c-12.6,3.6-31.6,22.7-40.6,32.5c-10.6,11.4-13.8,30.9-8.4,37.5c5.3,6.5,11.8,14.2,22.7,17.4
				c10.7,3.2,17.8,0.7,23.6,1.6c5.1,0.8,12,3.3,26.9,0.5c11.1-2.1,16.8-3.8,21-4.4C231.3,294.2,256.8,292.9,268.3,279.9z"/>
			<path class="st141" d="M267,279.7c9.9-10.8,10.8-30.6,4.4-41.4c-7.9-13.3-21.1-16-29-19.7c-7-3.3-21.4-12.7-31.4-13.6
				c-12-1-22.4,2.6-33.9,5.9c-12.7,3.6-31.2,22.7-39.9,32c-10.1,10.8-14.3,29.9-8.6,36.9c5.2,6.3,11.4,13.9,22.4,16.9
				c10.9,3,17.9,0.1,23.4,1.1c5.1,0.9,12,3.3,27.1,0.6c11.3-2.1,17.1-3.9,21.2-4.4C231.4,292.9,255.6,292.1,267,279.7z"/>
			<path class="st142" d="M265.8,279.6c10-10.3,11.6-29.3,5.1-40.4c-7.8-13.4-21.2-15.8-29.1-19.5c-6.9-3.3-20.9-12.9-30.8-13.9
				c-11.7-1.2-22.5,2.3-33.9,5.6c-12.7,3.6-30.9,22.7-39.2,31.5c-9.7,10.3-14.8,28.9-8.8,36.2c5,6.1,11,13.5,22.2,16.3
				c11.1,2.8,17.9-0.4,23.2,0.6c5.1,0.9,12.1,3.4,27.3,0.6c11.4-2.1,17.4-4.1,21.4-4.4C231.4,291.6,254.4,291.3,265.8,279.6z"/>
			<path class="st143" d="M264.5,279.4c10-9.9,12.3-28.1,5.9-39.3c-7.7-13.6-21.3-15.6-29.1-19.3c-6.8-3.2-20.4-13.1-30.3-14.2
				c-11.4-1.3-22.6,2-34,5.2c-12.7,3.6-30.6,22.6-38.5,31c-9.3,9.8-15.3,28-9.1,35.6c4.8,5.8,10.6,13.2,21.9,15.8
				c11.2,2.6,17.9-0.9,23.1,0.1c5,1,12.1,3.4,27.4,0.7c11.6-2.1,17.7-4.2,21.5-4.4C231.5,290.3,253.2,290.5,264.5,279.4z"/>
			<path class="st144" d="M263.3,279.2c10.1-9.4,13-26.8,6.7-38.3c-7.6-13.7-21.4-15.4-29.2-19.1c-6.6-3.1-19.9-13.3-29.7-14.5
				c-11.1-1.4-22.7,1.6-34.1,4.9c-12.7,3.7-30.2,22.6-37.8,30.5c-8.8,9.3-15.8,27-9.3,34.9c4.6,5.6,10.3,12.9,21.7,15.3
				c11.4,2.4,17.9-1.4,22.9-0.3c5,1.1,12.2,3.4,27.6,0.7c11.8-2.1,18-4.3,21.7-4.3C231.5,289,252,289.8,263.3,279.2z"/>
			<path class="st145" d="M262,279c10.2-9,13.7-25.6,7.4-37.2C262,228,248,226.6,240.2,223c-6.5-3-19.4-13.5-29.1-14.8
				c-10.8-1.5-22.8,1.3-34.1,4.6c-12.7,3.7-29.9,22.6-37,30c-8.4,8.7-16.4,26-9.5,34.3c4.4,5.4,9.9,12.6,21.4,14.8
				c11.6,2.2,17.9-1.9,22.7-0.8c4.9,1.2,12.2,3.5,27.8,0.8c11.9-2.1,18.3-4.5,21.9-4.3C231.6,287.8,250.8,289,262,279z"/>
			<path class="st146" d="M260.8,278.9c10.2-8.5,14.5-24.3,8.2-36.2c-7.4-14-21.6-15.1-29.4-18.6c-6.4-2.9-18.8-13.6-28.6-15.1
				c-10.5-1.6-22.9,0.9-34.2,4.3c-12.7,3.7-29.6,22.5-36.3,29.6c-7.9,8.2-16.9,25.1-9.7,33.7c4.3,5.1,9.5,12.3,21.2,14.2
				c11.8,2,17.9-2.4,22.5-1.3c4.9,1.2,12.3,3.5,28,0.8c12.1-2.1,18.6-4.6,22-4.3C231.6,286.5,249.6,288.2,260.8,278.9z"/>
			<path class="st147" d="M259.5,278.7c10.3-8.1,15.2-23,9-35.1c-7.3-14.1-21.7-14.9-29.5-18.4c-6.2-2.8-18.3-13.8-28-15.4
				c-10.2-1.7-23,0.6-34.2,3.9c-12.7,3.8-29.2,22.5-35.6,29.1c-7.5,7.7-17.4,24.1-10,33c4.1,4.9,9.1,12,20.9,13.7
				c11.9,1.7,17.9-2.9,22.3-1.7c4.9,1.3,12.3,3.6,28.1,0.9c12.3-2,18.9-4.7,22.2-4.3C231.6,285.2,248.4,287.5,259.5,278.7z"/>
			<path class="st148" d="M258.3,278.5c10.4-7.6,15.9-21.8,9.7-34.1c-7.2-14.3-21.8-14.7-29.5-18.2c-6.1-2.8-17.8-14-27.5-15.7
				c-9.9-1.8-23,0.3-34.3,3.6c-12.7,3.8-28.9,22.5-34.9,28.6c-7,7.2-17.9,23.2-10.2,32.4c3.9,4.7,8.7,11.7,20.7,13.2
				c12.1,1.5,17.9-3.4,22.1-2.2c4.8,1.4,12.4,3.6,28.3,0.9c12.4-2,19.2-4.9,22.4-4.3C231.7,283.9,247.2,286.7,258.3,278.5z"/>
			<path class="st149" d="M257,278.3c10.4-7.2,16.6-20.5,10.5-33c-7.1-14.4-21.9-14.5-29.6-18c-6-2.7-17.3-14.1-26.9-16
				c-9.6-1.9-23.1-0.1-34.4,3.3c-12.8,3.8-28.6,22.4-34.2,28.1c-6.6,6.6-18.4,22.2-10.4,31.7c3.7,4.4,8.4,11.3,20.4,12.6
				c12.3,1.3,17.9-3.9,22-2.7c4.8,1.5,12.4,3.6,28.5,1c12.6-2,19.5-5,22.6-4.3C231.7,282.6,246,285.9,257,278.3z"/>
			<path class="st150" d="M255.8,278.2c10.5-6.7,17.4-19.3,11.3-32c-7-14.6-22-14.3-29.7-17.8c-5.8-2.6-16.8-14.3-26.3-16.3
				c-9.3-2-23.2-0.4-34.4,3c-12.8,3.8-28.2,22.4-33.5,27.6c-6.1,6.1-19,21.3-10.7,31.1c3.5,4.2,8,11,20.2,12.1
				c12.4,1.1,17.9-4.4,21.8-3.1c4.7,1.6,12.4,3.7,28.6,1.1c12.8-2,19.8-5.1,22.7-4.3C231.8,281.3,244.8,285.2,255.8,278.2z"/>
			<path class="st151" d="M254.6,278c10.6-6.2,18.1-18,12-30.9c-6.9-14.7-22.1-14.2-29.8-17.5c-5.7-2.5-16.3-14.4-25.8-16.6
				c-9-2-23.3-0.7-34.5,2.7c-12.8,3.9-27.9,22.4-32.8,27.1c-5.7,5.6-19.5,20.3-10.9,30.5c3.3,4,7.6,10.7,19.9,11.6
				c12.6,0.9,17.9-4.9,21.6-3.6c4.7,1.7,12.5,3.7,28.8,1.1c12.9-2,20.1-5.3,22.9-4.3C231.8,280,243.6,284.4,254.6,278z"/>
			<path class="st152" d="M253.3,277.8c10.7-5.8,18.8-16.7,12.8-29.9c-6.8-14.8-22.2-14-29.9-17.3c-5.6-2.4-15.7-14.6-25.2-16.9
				c-8.7-2.1-23.4-1.1-34.6,2.3c-12.8,3.9-27.6,22.3-32,26.7c-5.3,5.1-20,19.3-11.1,29.8c3.2,3.7,7.2,10.4,19.7,11.1
				c12.8,0.7,17.9-5.4,21.4-4.1c4.6,1.8,12.5,3.7,29,1.2c13.1-2,20.4-5.4,23.1-4.3C231.9,278.7,242.4,283.7,253.3,277.8z"/>
			<path class="st153" d="M252.1,277.6c10.7-5.3,19.5-15.5,13.6-28.8c-6.7-15-22.3-13.8-29.9-17.1c-5.4-2.4-15.2-14.7-24.6-17.2
				c-8.4-2.2-23.5-1.4-34.6,2c-12.8,3.9-27.2,22.3-31.3,26.2c-4.8,4.6-20.5,18.4-11.4,29.2c3,3.5,6.8,10,19.4,10.5
				c13,0.5,17.9-5.9,21.2-4.5c4.6,1.9,12.6,3.8,29.2,1.2c13.3-2,20.7-5.5,23.2-4.2C231.9,277.4,241.2,282.9,252.1,277.6z"/>
			<path class="st108" d="M250.8,277.5c10.8-4.8,20.2-14.2,14.3-27.8c-6.6-15.1-22.4-13.6-30-16.9c-5.3-2.3-14.7-14.9-24.1-17.5
				c-8.1-2.3-23.6-1.7-34.7,1.7c-12.8,4-26.9,22.3-30.6,25.7c-4.4,4-21.1,17.4-11.6,28.5c2.8,3.3,6.5,9.7,19.2,10
				c13.1,0.3,17.9-6.4,21-5c4.5,2,12.6,3.8,29.3,1.3c13.4-2,21-5.7,23.4-4.2C232,276.2,240.1,282.2,250.8,277.5z"/>
		</g>
		<path class="st161" d="M242.3,231.5c-3-0.2-5.9,0.3-8.6,1.2c-3.5-18-18.9-32-38.1-33c-18.6-0.9-34.9,10.6-40.8,27.3c0,0,0,0,0,0
			c-15.7-0.8-29.1,11.2-29.9,26.9c-0.8,15.7,11.2,29.1,26.9,29.9c8.1,0.4,15.6-2.6,21-7.7c5.5,3.2,11.7,5.2,18.4,5.5
			c12,0.6,23.1-4,31-11.9c4.1,5.2,10.3,8.7,17.4,9.1c13.1,0.7,24.2-9.4,24.9-22.4C265.4,243.3,255.4,232.2,242.3,231.5z"/>
		<path class="st162" d="M243.8,231.6c-3-0.2-5.9,0.3-8.6,1.2c-3.5-18-18.9-32-38.1-33c-18.6-1-34.9,10.6-40.8,27.2h0
			c-15.7-0.8-29.1,11.2-29.9,27c-0.8,15.7,11.2,29.1,26.9,29.9c8.1,0.4,15.6-2.6,21-7.8c5.4,3.2,11.7,5.2,18.5,5.5
			c12,0.6,23.1-4,31-11.9c4.1,5.2,10.3,8.7,17.4,9.1c13.1,0.7,24.2-9.4,24.9-22.4C266.8,243.5,256.8,232.3,243.8,231.6z"/>
	</g>
	<g>
		<g>
			<g class="st63">
				<path class="st23" d="M256.1,358.1c3,0,11,14,10.3,22.3c-0.5,5.8-4.3,10.6-10.3,10.6c-8.3,0-9.9-7.5-9.9-10.5
					C246.2,375.4,252.9,358.1,256.1,358.1z"/>
			</g>
			<path class="st163" d="M266.6,376.8c0,9.2-7.5,16.8-16.8,16.8c-9.2,0-17.4-7.5-17.4-16.8C232.4,361,250,340,250,340l1.3-0.7
				c0,0,0,0.7,0.3,1.2C254.7,345.6,266.6,364.8,266.6,376.8z"/>
			<path class="st164" d="M268,377.2c0,9.2-7.5,16.8-16.8,16.8c-9.2,0-16.7-7.5-16.7-16.8c0-13.9,16.7-37.9,16.7-37.9
				S268,363.3,268,377.2z"/>
		</g>
		<g>
			<g class="st63">
				<path class="st23" d="M212.2,314.9c2.2,0,8.1,10.3,7.6,16.5c-0.3,4.3-3.2,7.8-7.6,7.8c-6.1,0-7.3-5.5-7.3-7.7
					C205,327.7,209.9,314.9,212.2,314.9z"/>
			</g>
			<path class="st163" d="M220,328.7c0,6.8-5.5,12.4-12.4,12.4c-6.8,0-12.8-5.5-12.8-12.4c0-11.6,13-27.1,13-27.1l0.9-0.5
				c0,0,0,0.5,0.2,0.9C211.3,305.6,220,319.8,220,328.7z"/>
			<path class="st164" d="M221.1,329c0,6.8-5.5,12.4-12.4,12.4c-6.8,0-12.4-5.5-12.4-12.4c0-10.2,12.4-28,12.4-28
				S221.1,318.8,221.1,329z"/>
		</g>
		<g>
			<g class="st63">
				<path class="st23" d="M118.1,302c1.8,0,6.5,8.2,6.1,13.1c-0.3,3.4-2.5,6.3-6,6.3c-4.9,0-5.9-4.4-5.8-6.2
					C112.3,312.2,116.3,302,118.1,302z"/>
			</g>
			<path class="st163" d="M124.3,313c0,5.5-4.4,9.9-9.9,9.9c-5.5,0-10.3-4.4-10.3-9.9c0-9.3,10.3-21.7,10.3-21.7l0.7-0.4
				c0,0,0,0.4,0.2,0.7C117.3,294.6,124.3,305.9,124.3,313z"/>
			<path class="st164" d="M125.2,313.2c0,5.5-4.4,9.9-9.9,9.9c-5.5,0-9.9-4.4-9.9-9.9c0-8.2,9.9-22.3,9.9-22.3
				S125.2,305.1,125.2,313.2z"/>
		</g>
		<g>
			<g class="st63">
				<path class="st23" d="M387.3,264.4c1.7,0,6.1,7.7,5.7,12.3c-0.3,3.2-2.4,5.9-5.7,5.9c-4.6,0-5.5-4.1-5.5-5.8
					C381.9,273.9,385.6,264.4,387.3,264.4z"/>
			</g>
			<path class="st163" d="M393.1,274.6c0,5.1-4.2,9.3-9.3,9.3c-5.1,0-9.6-4.2-9.6-9.3c0-8.7,9.7-20.3,9.7-20.3l0.7-0.4
				c0,0,0,0.4,0.2,0.7C386.6,257.4,393.1,268,393.1,274.6z"/>
			<path class="st164" d="M393.9,274.9c0,5.1-4.1,9.2-9.3,9.2c-5.1,0-9.3-4.1-9.3-9.2c0-7.7,9.3-20.9,9.3-20.9
				S393.9,267.2,393.9,274.9z"/>
		</g>
		<g>
			<g class="st63">
				<path class="st23" d="M367.1,349.1c1.7,0,6.1,7.7,5.7,12.3c-0.3,3.2-2.4,5.9-5.7,5.9c-4.6,0-5.5-4.1-5.5-5.8
					C361.6,358.6,365.4,349.1,367.1,349.1z"/>
			</g>
			<path class="st163" d="M372.9,359.3c0,5.1-4.1,9.2-9.2,9.2c-5.1,0-9.6-4.1-9.6-9.2c0-8.7,9.7-20.3,9.7-20.3l0.7-0.4
				c0,0,0,0.4,0.2,0.7C366.4,342.1,372.9,352.7,372.9,359.3z"/>
			<path class="st164" d="M373.7,359.6c0,5.1-4.1,9.3-9.2,9.3c-5.1,0-9.3-4.2-9.3-9.3c0-7.7,9.3-20.9,9.3-20.9
				S373.7,351.9,373.7,359.6z"/>
		</g>
		<g>
			<g class="st63">
				<path class="st23" d="M332,313.7c2.7,0,9.7,12.3,9.1,19.7c-0.4,5.2-3.8,9.4-9.1,9.4c-7.3,0-8.8-6.6-8.8-9.3
					C323.3,328.9,329.2,313.7,332,313.7z"/>
			</g>
			<path class="st163" d="M341.3,330.1c0,8.2-6.6,14.8-14.8,14.8c-8.2,0-15.4-6.6-15.4-14.8c0-13.9,15.5-32.5,15.5-32.5l1.1-0.6
				c0,0,0,0.7,0.3,1.1C330.8,302.5,341.3,319.5,341.3,330.1z"/>
			<path class="st164" d="M342.5,330.5c0,8.2-6.6,14.8-14.8,14.8c-8.2,0-14.8-6.6-14.8-14.8c0-12.3,14.8-33.5,14.8-33.5
				S342.5,318.3,342.5,330.5z"/>
		</g>
	</g>
</g>
</svg>
