<?xml version="1.0" encoding="utf-8"?>
<!-- Generator: Adobe Illustrator 25.0.0, SVG Export Plug-In . SVG Version: 6.00 Build 0)  -->
<svg version="1.1" id="_x3C_Layer_x3E_" xmlns="http://www.w3.org/2000/svg" xmlns:xlink="http://www.w3.org/1999/xlink" x="0px"
	 y="0px" viewBox="0 0 500 500" style="enable-background:new 0 0 500 500;" xml:space="preserve">
<style type="text/css">
	.st0{opacity:0.1;}
	.st1{opacity:0.5;}
	.st2{opacity:0;fill:#FFFFFF;}
	.st3{opacity:4.761905e-02;fill:#F9FBFB;}
	.st4{opacity:9.523810e-02;fill:#F3F6F7;}
	.st5{opacity:0.1429;fill:#EEF2F4;}
	.st6{opacity:0.1905;fill:#E8EDF0;}
	.st7{opacity:0.2381;fill:#E2E9EC;}
	.st8{opacity:0.2857;fill:#DCE4E8;}
	.st9{opacity:0.3333;fill:#D7E0E5;}
	.st10{opacity:0.381;fill:#D1DCE1;}
	.st11{opacity:0.4286;fill:#CBD7DD;}
	.st12{opacity:0.4762;fill:#C5D3D9;}
	.st13{opacity:0.5238;fill:#C0CED6;}
	.st14{opacity:0.5714;fill:#BACAD2;}
	.st15{opacity:0.619;fill:#B4C5CE;}
	.st16{opacity:0.6667;fill:#AEC1CA;}
	.st17{opacity:0.7143;fill:#A9BDC7;}
	.st18{opacity:0.7619;fill:#A3B8C3;}
	.st19{opacity:0.8095;fill:#9DB4BF;}
	.st20{opacity:0.8571;fill:#97AFBB;}
	.st21{opacity:0.9048;fill:#92ABB8;}
	.st22{opacity:0.9524;fill:#8CA6B4;}
	.st23{fill:#86A2B0;}
	.st24{fill:#FFE3AB;}
	.st25{fill:url(#SVGID_1_);}
	.st26{fill:url(#SVGID_2_);}
	.st27{fill:url(#SVGID_3_);}
	.st28{fill:url(#SVGID_4_);}
	.st29{fill:url(#SVGID_5_);}
	.st30{fill:url(#SVGID_6_);}
	.st31{fill:url(#SVGID_7_);}
	.st32{fill:url(#SVGID_8_);}
	.st33{fill:url(#SVGID_9_);}
	.st34{fill:url(#SVGID_10_);}
	.st35{fill:url(#SVGID_11_);}
	.st36{fill:url(#SVGID_12_);}
	.st37{fill:url(#SVGID_13_);}
	.st38{fill:url(#SVGID_14_);}
	.st39{fill:url(#SVGID_15_);}
	.st40{fill:url(#SVGID_16_);}
	.st41{opacity:2.380952e-02;fill:#F9FBFB;}
	.st42{opacity:4.761905e-02;fill:#F3F6F7;}
	.st43{opacity:7.142857e-02;fill:#EEF2F4;}
	.st44{opacity:9.523810e-02;fill:#E8EDF0;}
	.st45{opacity:0.119;fill:#E2E9EC;}
	.st46{opacity:0.1429;fill:#DCE4E8;}
	.st47{opacity:0.1667;fill:#D7E0E5;}
	.st48{opacity:0.1905;fill:#D1DCE1;}
	.st49{opacity:0.2143;fill:#CBD7DD;}
	.st50{opacity:0.2381;fill:#C5D3D9;}
	.st51{opacity:0.2619;fill:#C0CED6;}
	.st52{opacity:0.2857;fill:#BACAD2;}
	.st53{opacity:0.3095;fill:#B4C5CE;}
	.st54{opacity:0.3333;fill:#AEC1CA;}
	.st55{opacity:0.3571;fill:#A9BDC7;}
	.st56{opacity:0.381;fill:#A3B8C3;}
	.st57{opacity:0.4048;fill:#9DB4BF;}
	.st58{opacity:0.4286;fill:#97AFBB;}
	.st59{opacity:0.4524;fill:#92ABB8;}
	.st60{opacity:0.4762;fill:#8CA6B4;}
	.st61{opacity:0.5;fill:#86A2B0;}
	.st62{fill:url(#SVGID_17_);}
	.st63{opacity:0.15;}
	.st64{fill:url(#SVGID_18_);}
	.st65{opacity:2.857143e-02;fill:#F9FBFB;}
	.st66{opacity:5.714286e-02;fill:#F3F6F7;}
	.st67{opacity:8.571429e-02;fill:#EEF2F4;}
	.st68{opacity:0.1143;fill:#E8EDF0;}
	.st69{opacity:0.1429;fill:#E2E9EC;}
	.st70{opacity:0.1714;fill:#DCE4E8;}
	.st71{opacity:0.2;fill:#D7E0E5;}
	.st72{opacity:0.2286;fill:#D1DCE1;}
	.st73{opacity:0.2571;fill:#CBD7DD;}
	.st74{opacity:0.2857;fill:#C5D3D9;}
	.st75{opacity:0.3143;fill:#C0CED6;}
	.st76{opacity:0.3429;fill:#BACAD2;}
	.st77{opacity:0.3714;fill:#B4C5CE;}
	.st78{opacity:0.4;fill:#AEC1CA;}
	.st79{opacity:0.4286;fill:#A9BDC7;}
	.st80{opacity:0.4571;fill:#A3B8C3;}
	.st81{opacity:0.4857;fill:#9DB4BF;}
	.st82{opacity:0.5143;fill:#97AFBB;}
	.st83{opacity:0.5429;fill:#92ABB8;}
	.st84{opacity:0.5714;fill:#8CA6B4;}
	.st85{opacity:0.6;fill:#86A2B0;}
	.st86{fill:url(#SVGID_19_);}
	.st87{fill:url(#SVGID_20_);}
	.st88{fill:url(#SVGID_21_);}
	.st89{opacity:0.2;}
	.st90{opacity:9.523810e-02;fill:#F4F6F8;}
	.st91{opacity:0.1905;fill:#E9EDF1;}
	.st92{opacity:0.2381;fill:#E3E9ED;}
	.st93{opacity:0.2857;fill:#DEE5EA;}
	.st94{opacity:0.3333;fill:#D8E0E6;}
	.st95{opacity:0.381;fill:#D3DCE3;}
	.st96{opacity:0.4286;fill:#CDD8DF;}
	.st97{opacity:0.4762;fill:#C8D3DC;}
	.st98{opacity:0.5238;fill:#C2CFD8;}
	.st99{opacity:0.5714;fill:#BDCAD5;}
	.st100{opacity:0.619;fill:#B7C6D1;}
	.st101{opacity:0.6667;fill:#B2C2CE;}
	.st102{opacity:0.7143;fill:#ACBDCA;}
	.st103{opacity:0.7619;fill:#A7B9C7;}
	.st104{opacity:0.8095;fill:#A1B5C3;}
	.st105{opacity:0.8571;fill:#9CB0C0;}
	.st106{opacity:0.9048;fill:#96ACBC;}
	.st107{opacity:0.9524;fill:#91A7B9;}
	.st108{fill:#8BA3B5;}
	.st109{fill:#EEF7FA;}
	.st110{fill:#E4F1F5;}
	.st111{fill:#FFFFFF;}
	.st112{fill:#E9F2F5;}
	.st113{opacity:0.3;}
	.st114{fill:url(#SVGID_22_);}
	.st115{fill:url(#SVGID_23_);}
	.st116{fill:url(#SVGID_24_);}
	.st117{fill:url(#SVGID_25_);}
	.st118{fill:url(#SVGID_26_);}
	.st119{fill:url(#SVGID_27_);}
	.st120{fill:url(#SVGID_28_);}
	.st121{fill:url(#SVGID_29_);}
	.st122{fill:url(#SVGID_30_);}
	.st123{fill:url(#SVGID_31_);}
	.st124{fill:url(#SVGID_32_);}
	.st125{fill:url(#SVGID_33_);}
	.st126{fill:url(#SVGID_34_);}
	.st127{fill:url(#SVGID_35_);}
	.st128{fill:url(#SVGID_36_);}
	.st129{fill:url(#SVGID_37_);}
	.st130{fill:url(#SVGID_38_);}
	.st131{fill:url(#SVGID_39_);}
	.st132{opacity:5.000000e-02;}
	.st133{opacity:0;fill:#515151;}
	.st134{opacity:4.761905e-02;fill:#545556;}
	.st135{opacity:9.523810e-02;fill:#57595B;}
	.st136{opacity:0.1429;fill:#595D5F;}
	.st137{opacity:0.1905;fill:#5C6164;}
	.st138{opacity:0.2381;fill:#5F6569;}
	.st139{opacity:0.2857;fill:#62686E;}
	.st140{opacity:0.3333;fill:#646C72;}
	.st141{opacity:0.381;fill:#677077;}
	.st142{opacity:0.4286;fill:#6A747C;}
	.st143{opacity:0.4762;fill:#6D7881;}
	.st144{opacity:0.5238;fill:#6F7C85;}
	.st145{opacity:0.5714;fill:#72808A;}
	.st146{opacity:0.619;fill:#75848F;}
	.st147{opacity:0.6667;fill:#788894;}
	.st148{opacity:0.7143;fill:#7A8C98;}
	.st149{opacity:0.7619;fill:#7D8F9D;}
	.st150{opacity:0.8095;fill:#8093A2;}
	.st151{opacity:0.8571;fill:#8397A7;}
	.st152{opacity:0.9048;fill:#859BAB;}
	.st153{opacity:0.9524;fill:#889FB0;}
	.st154{fill:#008DD4;}
	.st155{fill:url(#SVGID_40_);}
	.st156{fill:#4FC5FF;}
	.st157{fill:url(#SVGID_41_);}
	.st158{fill:url(#SVGID_42_);}
	.st159{fill:#63CCFF;}
	.st160{fill:#007FC9;}
	.st161{fill:#6ED8FF;}
	.st162{fill:#008CDE;}
	.st163{fill:#B3EDFF;}
	.st164{fill:#61D7FF;}
	.st165{fill:url(#SVGID_43_);}
	.st166{fill:url(#SVGID_44_);}
	.st167{opacity:2.580645e-02;fill:#505051;}
	.st168{opacity:5.161290e-02;fill:#4E4F51;}
	.st169{opacity:7.741936e-02;fill:#4D4F50;}
	.st170{opacity:0.1032;fill:#4C4E50;}
	.st171{opacity:0.129;fill:#4B4D50;}
	.st172{opacity:0.1548;fill:#494C50;}
	.st173{opacity:0.1806;fill:#484B4F;}
	.st174{opacity:0.2065;fill:#474B4F;}
	.st175{opacity:0.2323;fill:#464A4F;}
	.st176{opacity:0.2581;fill:#44494F;}
	.st177{opacity:0.2839;fill:#43484F;}
	.st178{opacity:0.3097;fill:#42474E;}
	.st179{opacity:0.3355;fill:#41474E;}
	.st180{opacity:0.3613;fill:#3F464E;}
	.st181{opacity:0.3871;fill:#3E454E;}
	.st182{opacity:0.4129;fill:#3D444D;}
	.st183{opacity:0.4387;fill:#3C434D;}
	.st184{opacity:0.4645;fill:#3A424D;}
	.st185{opacity:0.4903;fill:#39424D;}
	.st186{opacity:0.5161;fill:#38414C;}
	.st187{opacity:0.5419;fill:#37404C;}
	.st188{opacity:0.5677;fill:#353F4C;}
	.st189{opacity:0.5935;fill:#343E4C;}
	.st190{opacity:0.6194;fill:#333E4C;}
	.st191{opacity:0.6452;fill:#323D4B;}
	.st192{opacity:0.671;fill:#303C4B;}
	.st193{opacity:0.6968;fill:#2F3B4B;}
	.st194{opacity:0.7226;fill:#2E3A4B;}
	.st195{opacity:0.7484;fill:#2D3A4A;}
	.st196{opacity:0.7742;fill:#2B394A;}
	.st197{opacity:0.8;fill:#2A384A;}
	.st198{fill:url(#SVGID_45_);}
	.st199{fill:url(#SVGID_46_);}
	.st200{fill:#91D5EB;}
	.st201{fill:#E1F0FA;}
	.st202{fill:#9DDEF2;}
	.st203{fill:#A2DEF2;}
	.st204{fill:#BEE9F7;}
	.st205{fill:#C8EEFA;}
	.st206{fill:url(#SVGID_47_);}
	.st207{opacity:0.3;fill:url(#SVGID_48_);}
	.st208{opacity:2.580645e-02;fill:#FBFCFC;}
	.st209{opacity:5.161290e-02;fill:#F7F9FA;}
	.st210{opacity:7.741936e-02;fill:#F3F6F7;}
	.st211{opacity:0.1032;fill:#EFF3F5;}
	.st212{opacity:0.129;fill:#EBF0F2;}
	.st213{opacity:0.1548;fill:#E8EDF0;}
	.st214{opacity:0.1806;fill:#E4EAED;}
	.st215{opacity:0.2065;fill:#E0E7EB;}
	.st216{opacity:0.2323;fill:#DCE4E8;}
	.st217{opacity:0.2581;fill:#D8E1E6;}
	.st218{opacity:0.2839;fill:#D4DEE3;}
	.st219{opacity:0.3097;fill:#D0DBE0;}
	.st220{opacity:0.3355;fill:#CCD8DE;}
	.st221{opacity:0.3613;fill:#C8D5DB;}
	.st222{opacity:0.3871;fill:#C4D2D9;}
	.st223{opacity:0.4129;fill:#C1CFD6;}
	.st224{opacity:0.4387;fill:#BDCCD4;}
	.st225{opacity:0.4645;fill:#B9C9D1;}
	.st226{opacity:0.4903;fill:#B5C6CF;}
	.st227{opacity:0.5161;fill:#B1C3CC;}
	.st228{opacity:0.5419;fill:#ADC0C9;}
	.st229{opacity:0.5677;fill:#A9BDC7;}
	.st230{opacity:0.5935;fill:#A5BAC4;}
	.st231{opacity:0.6194;fill:#A1B7C2;}
	.st232{opacity:0.6452;fill:#9DB4BF;}
	.st233{opacity:0.671;fill:#9AB1BD;}
	.st234{opacity:0.6968;fill:#96AEBA;}
	.st235{opacity:0.7226;fill:#92ABB8;}
	.st236{opacity:0.7484;fill:#8EA8B5;}
	.st237{opacity:0.7742;fill:#8AA5B3;}
	.st238{opacity:0.8;fill:#86A2B0;}
	.st239{fill:url(#SVGID_49_);}
	.st240{clip-path:url(#SVGID_51_);}
	.st241{fill:#0A4D80;}
	.st242{fill:url(#SVGID_52_);}
	.st243{clip-path:url(#SVGID_54_);}
</style>
<g>
	<g>
		<g class="st63">
			<path class="st133" d="M404.3,275.2c26.5-26.7,25.2-48,16.4-70.9c-6.7-17.2-9.8-28.7-20.9-44.5c-10-14.3-31.2-32.5-62.9-37
				c-30.7-4.4-103.5,45.7-128.6,52.4c-27.1,7.2-60.1,26.4-94.8,40.4c-17.8,7.2-44,29.9-44.5,42c-0.7,19.6,5.7,27.6,14.4,35.5
				c8.7,7.9,26.7,21.5,37.4,26.7c10.2,4.9,36.7,12,45.6,13c19.6,2.1,26.7-3.9,42.2-2.2c20.3,2.2,27,3.6,36.3,3.3
				c8.5-0.2,15.4-2,20-2.2c6.7-0.3,16.9,0.6,25.2-1.1c21.4-4.5,24.8-2.9,35.8-6.3C349.3,316.9,382.5,297.1,404.3,275.2z"/>
			<path class="st134" d="M402.8,275.1c25.9-25.5,24.7-46.7,15.8-69c-6.8-16.9-10.3-28-21.3-43.5c-9.9-14-29.9-32.1-61.7-37.4
				c-30.6-5-101.7,44.8-126.7,51.5c-27.1,7.3-59,26.5-93.2,40.3c-17.5,7.1-46.1,28.6-46.3,41.1c-0.3,19,6.4,26.5,15.1,34.3
				c8.9,7.8,26.5,21.4,37.2,26.2c10.6,4.7,35.8,10.8,45,11.7c19.5,2,26.7-2.9,42.3-1.3c20.4,2.1,26.7,3.2,36,3
				c8.3-0.2,15.1-1.7,20.2-1.9c7.3-0.3,17.3,0.2,25.5-1.5c21-4.3,24.3-2.6,35.7-6.2C349.7,315.1,381.4,296.2,402.8,275.1z"/>
			<path class="st135" d="M401.4,274.9c25.3-24.3,24.2-45.4,15.2-67c-6.9-16.7-10.9-27.4-21.7-42.5c-9.9-13.8-28.7-31.9-60.5-37.8
				c-30.4-5.7-99.9,43.9-124.9,50.6c-27.1,7.4-57.9,26.6-91.5,40.2c-17.2,6.9-48.1,27.2-48.1,40.2c0.1,18.4,7,25.5,15.8,33.1
				c9,7.7,26.3,21.3,37,25.7c11.1,4.6,35,9.6,44.5,10.5c19.4,1.9,26.6-2,42.3-0.5c20.4,2,26.4,2.7,35.7,2.6
				c8.2-0.1,14.8-1.3,20.4-1.5c7.8-0.2,17.7-0.3,25.8-1.9c20.5-4.2,23.8-2.3,35.6-6C350,313.3,380.2,295.2,401.4,274.9z"/>
			<path class="st136" d="M399.9,274.8c24.7-23.2,23.7-44.1,14.7-65.1c-7-16.4-11.4-26.7-22.1-41.5c-9.8-13.5-27.4-31.5-59.3-38.2
				c-30.2-6.3-98.1,43-123,49.8c-27.1,7.4-56.9,26.8-89.8,40.1c-16.9,6.8-50.2,25.9-49.9,39.3c0.4,17.8,7.6,24.4,16.5,31.9
				c9.2,7.7,26.1,21.1,36.7,25.2c11.5,4.4,34.1,8.4,44,9.3c19.3,1.8,26.6-1,42.3,0.4c20.5,1.9,26.1,2.3,35.5,2.2
				c8-0.1,14.5-1,20.6-1.1c8.4-0.2,18.1-0.7,26.1-2.3c20-4,23.4-2,35.5-5.9C350.3,311.5,379.1,294.3,399.9,274.8z"/>
			<path class="st137" d="M398.5,274.7c24.1-22,23.2-42.9,14.1-63.2c-7.1-16.1-12-26.1-22.6-40.5c-9.7-13.2-26.2-31.2-58.1-38.6
				c-30.1-7-96.3,42.1-121.2,48.9c-27.1,7.5-55.8,26.9-88.1,40c-16.6,6.7-52.3,24.6-51.7,38.4c0.7,17.1,8.2,23.3,17.2,30.7
				c9.3,7.6,25.9,21,36.5,24.7c12,4.2,33.3,7.2,43.4,8.1c19.2,1.7,26.6-0.1,42.3,1.3c20.6,1.8,25.8,1.8,35.2,1.8
				c7.9-0.1,14.2-0.6,20.7-0.8c8.9-0.2,18.4-1.2,26.4-2.7c19.6-3.9,22.9-1.7,35.4-5.8C350.6,309.7,378,293.3,398.5,274.7z"/>
			<path class="st138" d="M397,274.6c23.5-20.8,22.6-41.6,13.5-61.3c-7.3-15.8-12.5-25.4-23-39.5c-9.7-13-24.9-30.8-56.9-38.9
				c-29.9-7.6-94.6,41.2-119.3,48c-27.1,7.5-54.7,27.1-86.4,39.9c-16.3,6.6-54.4,23.2-53.6,37.6c1,16.5,8.8,22.3,17.9,29.5
				c9.5,7.5,25.7,20.8,36.3,24.3c12.5,4,32.5,6,42.9,6.9c19.2,1.6,26.5,0.9,42.3,2.2c20.7,1.7,25.5,1.5,34.9,1.4
				c7.7-0.1,14-0.3,20.9-0.4c9.4-0.1,18.8-1.6,26.8-3.2c19.1-3.7,22.4-1.4,35.2-5.6C350.9,307.9,376.9,292.4,397,274.6z"/>
			<path class="st139" d="M395.6,274.4c22.9-19.7,22.1-40.3,13-59.4c-7.4-15.5-13.1-24.8-23.4-38.5c-9.6-12.7-23.7-30.5-55.7-39.3
				c-29.8-8.2-92.8,40.3-117.5,47.2c-27.2,7.6-53.6,27.2-84.7,39.8c-16.1,6.5-56.5,21.8-55.4,36.7c1.2,15.9,9.4,21.2,18.6,28.3
				c9.6,7.5,25.5,20.6,36.1,23.8c13,3.9,31.6,4.8,42.3,5.7c19.1,1.6,26.5,1.9,42.3,3.1c20.7,1.6,25.2,1.1,34.6,1
				c7.5-0.1,13.7,0,21.1,0c10-0.1,19.2-2.1,27.1-3.6c18.6-3.5,22-1.1,35.1-5.5C351.3,306.1,375.8,291.5,395.6,274.4z"/>
			<path class="st140" d="M394.1,274.3c22.3-18.5,21.6-39,12.4-57.5c-7.5-15.2-13.6-24.1-23.8-37.5c-9.5-12.5-22.4-30.1-54.5-39.7
				c-29.6-8.9-91,39.4-115.6,46.3c-27.2,7.7-52.5,27.3-83.1,39.7c-15.8,6.4-58.6,20.5-57.2,35.8c1.4,15.2,10,20.1,19.3,27.2
				c9.8,7.4,25.4,20.4,35.8,23.3c13.4,3.6,30.8,3.6,41.8,4.5c19,1.5,26.5,2.8,42.4,3.9c20.8,1.5,24.9,0.5,34.4,0.6
				c7.4,0.1,13.4,0.4,21.3,0.3c10.5-0.1,19.6-2.5,27.4-4c18.2-3.4,21.5-0.8,35-5.4C351.6,304.4,374.6,290.5,394.1,274.3z"/>
			<path class="st141" d="M392.6,274.2c21.6-17.4,21-37.7,11.8-55.5c-7.7-14.9-14.2-23.5-24.2-36.5c-9.5-12.2-21.2-29.8-53.3-40.1
				c-29.4-9.5-89.2,38.5-113.8,45.4c-27.2,7.7-51.4,27.5-81.4,39.6c-15.5,6.2-60.8,19.1-59,34.9c1.6,14.6,10.6,19.1,19.9,26
				c9.9,7.3,25.2,20.2,35.6,22.8c13.9,3.4,30,2.4,41.3,3.3c18.9,1.4,26.4,3.8,42.4,4.8c20.9,1.4,24.6,0.1,34.1,0.2
				c7.2,0.1,13.1,0.7,21.5,0.7c11.1,0,20-3,27.7-4.4c17.7-3.2,21-0.5,34.9-5.2C351.9,302.6,373.5,289.6,392.6,274.2z"/>
			<path class="st142" d="M391.2,274c21-16.2,20.5-36.4,11.3-53.6c-7.8-14.6-14.7-22.9-24.6-35.4c-9.4-12-19.9-29.4-52.1-40.5
				c-29.3-10.1-87.4,37.6-111.9,44.6c-27.2,7.8-50.3,27.6-79.7,39.5c-15.2,6.1-62.9,17.8-60.8,34c1.8,14,11.2,18,20.6,24.8
				c10.1,7.2,25,20,35.4,22.3c14.4,3.2,29.1,1.2,40.7,2c18.8,1.3,26.4,4.7,42.4,5.7c21,1.3,24.3-0.4,33.8-0.2
				c7.1,0.1,12.8,1.1,21.7,1.1c11.6,0,20.4-3.4,28-4.8c17.2-3.1,20.6-0.1,34.8-5.1C352.2,300.8,372.3,288.6,391.2,274z"/>
			<path class="st143" d="M389.7,273.9c20.3-15.1,19.9-35.1,10.7-51.7c-7.9-14.3-15.3-22.2-25-34.4c-9.3-11.7-18.7-29-50.9-40.9
				c-29.1-10.7-85.6,36.7-110.1,43.7c-27.2,7.8-49.2,27.8-78,39.4c-14.9,6-65.1,16.4-62.7,33.2c1.9,13.4,11.8,16.9,21.3,23.6
				c10.2,7.2,24.9,19.8,35.2,21.8c14.9,3,28.3,0,40.2,0.8c18.8,1.3,26.4,5.7,42.4,6.6c21,1.1,24-0.8,33.5-0.6
				c6.9,0.2,12.5,1.4,21.8,1.4c12.2,0,20.8-3.9,28.3-5.2c16.8-2.9,20.1,0.2,34.7-5C352.6,299.1,371.2,287.7,389.7,273.9z"/>
			<path class="st144" d="M388.3,273.8c19.7-14,19.4-33.8,10.1-49.8c-8.1-14-15.8-21.6-25.4-33.4c-9.3-11.4-17.5-28.6-49.6-41.2
				c-29-11.3-83.8,35.8-108.2,42.8c-27.2,7.9-48.1,27.9-76.3,39.3c-14.6,5.9-67.2,15-64.5,32.3c2,12.7,12.4,15.8,22,22.4
				c10.4,7.1,24.7,19.5,34.9,21.3c15.4,2.7,27.4-1.2,39.7-0.4c18.7,1.2,26.4,6.7,42.4,7.4c21.1,1,23.6-1.3,33.2-1
				c6.8,0.2,12.2,1.8,22,1.8c12.7,0,21.1-4.3,28.6-5.6c16.3-2.8,19.6,0.5,34.5-4.8C352.9,297.3,370.1,286.7,388.3,273.8z"/>
			<path class="st145" d="M386.8,273.7c19-12.8,18.8-32.5,9.6-47.9c-8.2-13.7-16.4-20.9-25.9-32.4c-9.2-11.2-16.2-28.3-48.4-41.6
				c-28.8-12-82,34.9-106.4,41.9c-27.2,7.9-47,28.1-74.7,39.1c-14.4,5.8-69.4,13.7-66.3,31.4c2.1,12.1,13,14.8,22.7,21.2
				c10.6,7,24.6,19.3,34.7,20.8c15.9,2.4,26.6-2.4,39.1-1.6c18.6,1.1,26.3,7.6,42.4,8.3c21.2,0.9,23.3-1.7,33-1.4
				c6.6,0.3,11.9,2.1,22.2,2.2c13.2,0.1,21.5-4.8,29-6c15.8-2.6,19.2,0.8,34.4-4.7C353.2,295.6,368.9,285.7,386.8,273.7z"/>
			<path class="st146" d="M385.4,273.5c18.4-11.7,18.2-31.2,9-46c-8.4-13.4-17-20.3-26.3-31.4c-9.1-10.9-15-27.9-47.2-42
				c-28.7-12.6-80.2,34-104.5,41.1c-27.3,8-45.9,28.2-73,39c-14.1,5.7-71.7,12.3-68.1,30.5c2.2,11.5,13.6,13.7,23.4,20
				c10.7,6.9,24.4,19,34.5,20.4c16.4,2.2,25.8-3.6,38.6-2.8c18.5,1.1,26.3,8.6,42.5,9.2c21.3,0.8,23-2.2,32.7-1.7
				c6.4,0.3,11.7,2.5,22.4,2.6c13.8,0.1,21.9-5.2,29.3-6.4c15.4-2.5,18.7,1.1,34.3-4.6C353.6,293.8,367.7,284.8,385.4,273.5z"/>
			<path class="st147" d="M383.9,273.4c17.7-10.6,17.7-29.9,8.4-44.1c-8.5-13.1-17.5-19.6-26.7-30.4c-9.1-10.6-13.7-27.5-46-42.4
				c-28.5-13.2-78.5,33.1-102.7,40.2c-27.3,8.1-44.8,28.3-71.3,38.9c-13.8,5.5-73.9,11-69.9,29.6c2.3,10.9,14.2,12.6,24.1,18.8
				c10.9,6.9,24.3,18.8,34.2,19.9c16.9,1.9,24.9-4.8,38-4c18.4,1,26.3,9.5,42.5,10.1c21.3,0.7,22.7-2.6,32.4-2.1
				c6.3,0.3,11.4,2.8,22.6,2.9c14.3,0.1,22.3-5.7,29.6-6.8c14.9-2.3,18.3,1.4,34.2-4.5C353.9,292,366.6,283.8,383.9,273.4z"/>
			<path class="st148" d="M382.5,273.3c17-9.5,17.1-28.6,7.9-42.1c-8.7-12.7-18.1-19-27.1-29.4c-9-10.4-12.5-27.1-44.8-42.8
				c-28.4-13.8-76.7,32.2-100.8,39.3c-27.3,8.1-43.7,28.5-69.6,38.8c-13.5,5.4-76.2,9.6-71.8,28.8c2.4,10.3,14.8,11.5,24.8,17.6
				c11,6.8,24.1,18.5,34,19.4c17.4,1.5,24.1-5.9,37.5-5.2c18.4,1,26.2,10.5,42.5,11c21.4,0.6,22.4-3.1,32.1-2.5
				c6.1,0.4,11.1,3.1,22.8,3.3c14.9,0.2,22.7-6.1,29.9-7.2c14.4-2.2,17.8,1.7,34.1-4.3C354.2,290.3,365.4,282.8,382.5,273.3z"/>
			<path class="st149" d="M381,273.1c16.3-8.4,16.5-27.3,7.3-40.2c-8.9-12.4-18.6-18.3-27.5-28.4c-8.9-10.1-11.3-26.7-43.6-43.2
				c-28.3-14.4-74.9,31.3-99,38.5c-27.3,8.2-42.6,28.6-67.9,38.7c-13.2,5.3-78.5,8.3-73.6,27.9c2.4,9.6,15.5,10.5,25.4,16.4
				c11.2,6.7,23.9,18.2,33.8,18.9c17.9,1.2,23.3-7.1,37-6.5c18.3,0.9,26.2,11.5,42.5,11.8c21.5,0.5,22.1-3.5,31.9-2.9
				c6,0.4,10.8,3.5,23,3.7c15.4,0.2,23-6.6,30.2-7.6c14-2,17.3,2.1,34-4.2C354.6,288.5,364.2,281.8,381,273.1z"/>
			<path class="st150" d="M379.6,273c15.6-7.3,15.9-26,6.7-38.3c-9-12.1-19.2-17.6-27.9-27.4c-8.9-9.8-10-26.3-42.4-43.5
				c-28.1-15-73.1,30.4-97.1,37.6c-27.3,8.2-41.6,28.8-66.2,38.6c-12.9,5.2-80.9,7-75.4,27c2.5,9,16.1,9.4,26.1,15.3
				c11.3,6.6,23.8,18,33.6,18.4c18.4,0.9,22.4-8.3,36.4-7.7c18.2,0.8,26.2,12.4,42.5,12.7c21.6,0.4,21.8-4,31.6-3.3
				c5.8,0.4,10.5,3.8,23.1,4c15.9,0.2,23.4-7.1,30.5-8.1c13.5-1.9,16.9,2.4,33.9-4.1C354.9,286.8,363,280.8,379.6,273z"/>
			<path class="st151" d="M378.1,272.9c14.9-6.3,15.3-24.6,6.1-36.4c-9.2-11.8-19.8-17-28.3-26.4c-8.8-9.6-8.8-25.9-41.2-43.9
				c-28-15.5-71.3,29.5-95.2,36.7c-27.3,8.3-40.5,28.9-64.6,38.5c-12.6,5.1-83.3,5.7-77.2,26.1c2.5,8.4,16.7,8.3,26.8,14.1
				c11.5,6.5,23.6,17.7,33.3,17.9c18.9,0.5,21.6-9.5,35.9-8.9c18.1,0.8,26.2,13.4,42.6,13.6c21.7,0.3,21.5-4.5,31.3-3.7
				c5.7,0.4,10.2,4.2,23.3,4.4c16.5,0.3,23.8-7.5,30.8-8.5c13-1.8,16.4,2.7,33.7-3.9C355.2,285,361.8,279.8,378.1,272.9z"/>
			<path class="st152" d="M376.7,272.8c14.2-5.3,14.8-23.3,5.6-34.5c-9.4-11.4-20.3-16.3-28.8-25.4c-8.8-9.3-7.6-25.5-40-44.3
				c-27.8-16.1-69.5,28.6-93.4,35.9c-27.4,8.4-39.4,29-62.9,38.4c-12.4,4.9-85.8,4.5-79,25.2c2.6,7.9,17.3,7.2,27.5,12.9
				c11.7,6.4,23.5,17.7,33.1,17.4c19.4-0.4,20.7-10.7,35.4-10.1c18,0.7,26.1,14.3,42.6,14.5c21.7,0.2,21.2-4.9,31-4.1
				c5.5,0.5,9.9,4.5,23.5,4.8c17,0.3,24.2-8,31.2-8.9c12.6-1.6,15.9,3,33.6-3.8C355.6,283.3,360.6,278.7,376.7,272.8z"/>
			<path class="st153" d="M375.2,272.6c13.5-4.2,14.2-22,5-32.6c-9.6-11.1-20.9-15.7-29.2-24.4c-8.7-9.1-6.4-25.1-38.8-44.7
				c-27.7-16.7-67.7,27.7-91.5,35c-27.4,8.4-38.3,29.2-61.2,38.3c-12.1,4.8-88.4,3.2-80.9,24.4c2.6,7.3,17.9,6.1,28.2,11.7
				c11.8,6.4,23.3,17.1,32.9,17c19.9-0.3,19.9-11.9,34.8-11.3c18,0.7,26.1,15.3,42.6,15.4c21.8,0.1,20.9-5.4,30.7-4.5
				c5.3,0.5,9.6,4.9,23.7,5.1c17.6,0.3,24.6-8.4,31.5-9.3c12.1-1.5,15.5,3.4,33.5-3.7C355.9,281.6,359.4,277.6,375.2,272.6z"/>
			<path class="st108" d="M373.8,272.5c12.9-3.3,13.6-20.6,4.4-30.7c-9.8-10.8-21.4-15-29.6-23.3c-8.6-8.8-5.1-24.7-37.6-45.1
				c-27.6-17.3-65.9,26.8-89.7,34.1c-27.4,8.5-37.2,29.3-59.5,38.2c-11.8,4.7-91,2-82.7,23.5c2.6,6.7,18.5,5.1,28.9,10.5
				c12,6.3,23.1,16.8,32.7,16.5c20.4-0.7,19.1-13,34.3-12.5c17.9,0.6,26.1,16.2,42.6,16.2c21.9,0,20.6-5.9,30.5-4.9
				c5.2,0.5,9.4,5.2,23.9,5.5c18.1,0.3,25-8.9,31.8-9.7c11.6-1.4,15,3.7,33.4-3.5C356.2,279.8,358.2,276.5,373.8,272.5z"/>
		</g>
		<path class="st109" d="M383.6,235.7c-3.1-10.7-9.5-20.1-18.2-26.7c2.2-5.9,3.5-12.2,3.8-18.8c1.4-33.7-24.7-62.2-58.4-63.7
			c-25.8-1.1-48.5,13.9-58.4,36.1c-1.8-0.2-3.6-0.4-5.4-0.5c-21.3-0.9-40.6,9-52.5,24.9c-3.4-1.3-7-2.2-10.8-2.3
			c-18.3-0.8-33.8,13.4-34.6,31.8c-0.1,3,0.2,5.9,0.8,8.8c-6.7,1.1-12.4,5.1-15.9,10.7c-5.6-7.5-14.3-12.5-24.3-12.9
			c-13.9-0.6-26.1,7.8-31,20c-0.6-0.1-1.2-0.1-1.9-0.2c-12.7-0.5-23.4,9.3-24,22c-0.5,12.7,9.3,23.4,22,24
			c6.5,0.3,12.5-2.2,16.9-6.4c4.4,2.7,9.6,4.3,15.1,4.6c5,11.1,15.9,19,28.8,19.6c13.5,0.6,25.3-6.9,31.1-18.2c3.8,1.7,8,2.8,12.4,3
			c1.4,0.1,2.8,0,4.1-0.1c7.8,10.4,20,17.4,34,18c13.7,0.6,26.1-5,34.8-14.3c5.3,10.2,15.7,17.3,28,17.9
			c13.1,0.5,24.7-6.5,30.5-17.3c6.4,3.3,13.7,5.3,21.4,5.7c16.8,0.7,32.1-6.7,42-18.9c2.3,0.9,4.8,1.4,7.4,1.5
			c13.3,0.6,24.5-9.8,25.1-23.1C407.1,247.5,396.8,236.3,383.6,235.7z"/>
		<path class="st200" d="M384.6,236.6c-3.1-10.7-9.5-20.1-18.2-26.7c2.2-5.9,3.5-12.2,3.8-18.8c1.4-33.7-24.7-62.2-58.4-63.7
			c-25.8-1.1-48.5,13.9-58.4,36.1c-1.8-0.2-3.5-0.4-5.4-0.5c-21.3-0.9-40.6,9-52.5,24.9c-3.4-1.3-7-2.2-10.8-2.3
			c-18.3-0.8-33.8,13.5-34.6,31.8c-0.1,3,0.2,6,0.8,8.8c-6.7,1.1-12.4,5.1-15.9,10.7c-5.6-7.5-14.3-12.5-24.3-12.9
			c-13.9-0.6-26.1,7.8-31,20c-0.6-0.1-1.3-0.2-1.9-0.2c-12.7-0.5-23.4,9.3-24,22c-0.5,12.7,9.3,23.4,22,24
			c6.5,0.3,12.5-2.2,16.9-6.4c4.4,2.7,9.6,4.3,15.1,4.6c5,11.1,15.9,19,28.9,19.6c13.5,0.6,25.3-6.9,31.1-18.2c3.8,1.7,8,2.8,12.4,3
			c1.4,0.1,2.8,0,4.1-0.1c7.8,10.4,20,17.4,34,18c13.7,0.6,26.1-5,34.8-14.3c5.3,10.2,15.7,17.3,28,17.9
			c13.1,0.5,24.7-6.5,30.6-17.3c6.4,3.3,13.7,5.3,21.4,5.7c16.8,0.7,32.1-6.7,42-18.9c2.3,0.9,4.8,1.4,7.4,1.5
			c13.3,0.6,24.5-9.8,25.1-23.1C408,248.5,397.8,237.3,384.6,236.6z"/>
	</g>
	<g>
		<g>
			<path class="st111" d="M205.4,302.4c-0.1,0-0.1,0.1-0.2,0.1l-68.3,31.6c-0.4,0.2-0.9,0.2-1.3,0.1c-0.4-0.2-0.8-0.5-1-0.9
				c-0.4-0.8-0.1-1.7,0.6-2.2c0.1,0,0.1-0.1,0.2-0.1l68.3-31.7c0.9-0.4,1.9,0,2.3,0.9C206.4,301,206.1,301.9,205.4,302.4z"/>
			<path class="st111" d="M201.5,310.3c-0.1,0-0.2,0.1-0.2,0.1c-0.9,0.4-1.9,0-2.3-0.9l-4.6-10c-0.4-0.8-0.1-1.7,0.6-2.2
				c0.1,0,0.2-0.1,0.2-0.1c0.9-0.4,1.9,0,2.3,0.9l4.6,10C202.5,308.9,202.2,309.9,201.5,310.3z"/>
			<path class="st111" d="M145.7,336.2c-0.1,0.1-0.2,0.1-0.2,0.1c-0.9,0.4-1.9,0-2.3-0.8l-4.6-10c-0.4-0.8-0.1-1.7,0.6-2.2
				c0.1-0.1,0.2-0.1,0.2-0.1c0.9-0.4,1.9,0,2.3,0.8l4.6,10C146.7,334.8,146.4,335.7,145.7,336.2z"/>
			<path class="st111" d="M187.1,352.4c-0.1,0-0.1,0.1-0.2,0.1c-0.4,0.2-0.9,0.2-1.3,0.1c-0.4-0.2-0.8-0.5-1-0.9l-31.6-68.3
				c-0.4-0.8-0.1-1.7,0.6-2.2c0.1-0.1,0.1-0.1,0.2-0.1c0.4-0.2,0.9-0.2,1.4-0.1c0.5,0.2,0.8,0.5,1,0.9l31.6,68.3
				C188.1,351,187.8,351.9,187.1,352.4z"/>
			<path class="st111" d="M189.2,343.8c-0.1,0-0.2,0.1-0.2,0.1l-10,4.6c-0.4,0.2-0.9,0.2-1.3,0.1c-0.4-0.2-0.8-0.5-1-0.9
				c-0.4-0.8-0.1-1.7,0.6-2.2c0.1,0,0.2-0.1,0.2-0.1l10-4.6c0.4-0.2,0.9-0.2,1.3-0.1c0.4,0.2,0.8,0.5,1,0.9
				C190.2,342.4,189.9,343.4,189.2,343.8z"/>
			<path class="st111" d="M163.3,288c-0.1,0.1-0.2,0.1-0.2,0.1l-10,4.6c-0.4,0.2-0.9,0.2-1.3,0.1c-0.4-0.2-0.8-0.5-1-0.9
				c-0.4-0.8-0.1-1.7,0.6-2.2c0.1-0.1,0.2-0.1,0.2-0.1l10-4.6c0.4-0.2,0.9-0.2,1.3-0.1c0.4,0.2,0.8,0.5,1,0.9
				C164.3,286.6,164.1,287.5,163.3,288z"/>
			<path class="st111" d="M158.3,353.6c-0.1,0-0.1,0.1-0.2,0.1c-0.4,0.2-0.9,0.2-1.3,0.1c-0.5-0.2-0.8-0.5-1-0.9
				c-0.2-0.4-0.2-0.9-0.1-1.4l25.9-70.7c0.1-0.4,0.4-0.6,0.7-0.8c0.5-0.3,1-0.4,1.6-0.2c0.4,0.1,0.8,0.5,1,0.9
				c0.2,0.4,0.2,0.9,0.1,1.3L159,352.7C158.8,353.1,158.6,353.4,158.3,353.6z"/>
			<path class="st111" d="M165.8,349c-0.1,0-0.2,0.1-0.2,0.1c-0.4,0.2-0.9,0.2-1.3,0.1l-10.4-3.8c-0.4-0.2-0.8-0.5-1-0.9
				c-0.2-0.4-0.2-0.9-0.1-1.3c0.1-0.4,0.4-0.7,0.7-0.9c0.5-0.3,1-0.4,1.6-0.2l10.4,3.8c0.4,0.2,0.8,0.5,1,0.9
				c0.2,0.4,0.2,0.9,0.1,1.4C166.4,348.5,166.2,348.8,165.8,349z"/>
			<path class="st111" d="M187,291.3c-0.1,0.1-0.2,0.1-0.2,0.1c-0.4,0.2-0.9,0.2-1.3,0.1l-10.4-3.8c-0.9-0.3-1.4-1.3-1.1-2.2
				c0.1-0.4,0.4-0.7,0.7-0.9c0.5-0.3,1-0.4,1.6-0.2l10.4,3.8c0.4,0.2,0.8,0.5,1,0.9c0.2,0.4,0.2,0.9,0.1,1.3
				C187.6,290.8,187.3,291.1,187,291.3z"/>
			<path class="st111" d="M206.6,331.2c-0.1,0-0.1,0.1-0.2,0.1c-0.4,0.2-0.9,0.2-1.3,0.1l-70.7-25.9c-0.4-0.2-0.8-0.5-1-0.9
				c-0.2-0.4-0.2-0.9-0.1-1.3c0.1-0.4,0.4-0.7,0.7-0.8c0.5-0.3,1-0.4,1.6-0.2l70.7,25.9c0.5,0.2,0.8,0.5,1,0.9
				c0.2,0.4,0.2,0.9,0.1,1.3C207.1,330.7,206.9,331,206.6,331.2z"/>
			<path class="st111" d="M140.5,312.8c-0.1,0-0.2,0.1-0.2,0.1c-0.4,0.2-0.9,0.2-1.3,0.1c-0.4-0.2-0.8-0.5-1-0.9
				c-0.2-0.4-0.2-0.9-0.1-1.3l3.8-10.3c0.1-0.4,0.4-0.7,0.7-0.9c0.5-0.3,1-0.4,1.6-0.2c0.4,0.2,0.8,0.5,1,0.9
				c0.2,0.4,0.2,0.9,0.1,1.3l-3.8,10.4C141,312.3,140.8,312.6,140.5,312.8z"/>
			<path class="st111" d="M198.2,334c-0.1,0-0.2,0.1-0.2,0.1c-0.4,0.2-0.9,0.2-1.3,0.1c-0.4-0.2-0.8-0.5-1-0.9
				c-0.2-0.4-0.2-0.9-0.1-1.3l3.8-10.3c0.1-0.4,0.4-0.7,0.7-0.9c0.5-0.3,1-0.4,1.6-0.2c0.4,0.2,0.8,0.5,1,0.9c0.2,0.4,0.2,0.9,0,1.3
				l-3.8,10.4C198.8,333.5,198.5,333.8,198.2,334z"/>
			<path class="st111" d="M180,337.1c-0.1,0-0.1,0.1-0.2,0.1c-0.5,0.2-1,0.2-1.4-0.1L171,333l-7,4.7c-0.4,0.3-1,0.4-1.4,0.2
				c-0.5-0.2-0.8-0.6-1-1.1l-2.3-8.1l-8.3-1.6c-0.5-0.1-0.9-0.4-1.1-0.9c-0.2-0.5-0.2-1,0.1-1.4l4.1-7.4l-4.7-7
				c-0.3-0.4-0.4-1-0.2-1.4c0.1-0.3,0.3-0.6,0.6-0.8c0.1-0.1,0.3-0.1,0.4-0.2l8.1-2.3l1.6-8.3c0.1-0.4,0.3-0.8,0.7-1
				c0.1-0.1,0.1-0.1,0.2-0.1c0.5-0.2,1-0.2,1.4,0.1l7.4,4.1c7-4.7,7-4.7,7-4.7c0.4-0.3,0.9-0.4,1.4-0.2c0.5,0.2,0.8,0.6,1,1.1
				l2.3,8.1l8.3,1.6c0.5,0.1,0.9,0.4,1.1,0.9c0.2,0.5,0.2,1-0.1,1.4l-4.1,7.4l4.6,6.8c0.1,0.1,0.2,0.2,0.3,0.4
				c0.3,0.7,0.1,1.6-0.6,2c-0.1,0.1-0.1,0.1-0.2,0.1l-0.1,0c-0.1,0-0.1,0.1-0.2,0.1l-8.1,2.3l-1.6,8.3
				C180.6,336.5,180.3,336.9,180,337.1z M170,329.9c0.1,0,0.1-0.1,0.2-0.1c0.5-0.2,1-0.2,1.4,0.1l6.3,3.5l1.4-7.1
				c0.1-0.4,0.3-0.8,0.7-1c0.1-0.1,0.3-0.2,0.4-0.2l7-1.9l-4.1-6c-0.3-0.5-0.4-1.1-0.1-1.7l3.5-6.3l-7.1-1.4
				c-0.6-0.1-1.1-0.5-1.2-1.1l-2-7l-6,4.1c-0.5,0.3-1.1,0.4-1.7,0.1l-6.3-3.5l-1.4,7.1c-0.1,0.4-0.3,0.8-0.7,1
				c-0.1,0.1-0.3,0.1-0.4,0.2l-7,2l4.1,6c0.3,0.5,0.4,1.1,0.1,1.7l-3.5,6.3l7.1,1.4c0.6,0.1,1.1,0.6,1.2,1.1l2,7L170,329.9
				L170,329.9z"/>
			<path class="st111" d="M191.6,336.9c-0.1,0-0.1,0.1-0.2,0.1c-0.3,0.1-0.6,0.2-0.9,0.1l-11.4-1.4l-6.3,9.6
				c-0.1,0.2-0.3,0.4-0.5,0.5c-0.2,0.2-0.5,0.2-0.8,0.3c-0.5,0-1-0.2-1.3-0.6l-7.1-9.1l-11.3,2.3c-0.5,0.1-1-0.1-1.4-0.4
				c-0.4-0.4-0.6-0.8-0.5-1.3l1.4-11.4l-9.6-6.4c-0.4-0.3-0.7-0.7-0.7-1.3c0-0.5,0.2-1,0.6-1.3l9-7.1l-2.3-11.3
				c-0.1-0.5,0-1,0.4-1.4c0.1-0.1,0.2-0.2,0.3-0.2c0.3-0.2,0.7-0.3,1.1-0.2l11.4,1.4l6.3-9.6c0.1-0.2,0.3-0.3,0.5-0.5
				c0.2-0.2,0.5-0.2,0.8-0.2c0.5,0,1,0.2,1.3,0.6l7.1,9l11.3-2.3c0.5-0.1,1,0,1.4,0.4c0.4,0.3,0.6,0.8,0.5,1.3l-1.4,11.4l9.6,6.3
				c0.4,0.3,0.7,0.7,0.7,1.3c0,0.5-0.2,1-0.6,1.3l-9,7.1l2.3,11.3c0.1,0.5,0,1-0.4,1.4C191.8,336.7,191.7,336.8,191.6,336.9z
				 M177.4,332.8c0.3-0.2,0.7-0.3,1.1-0.2l10.2,1.2l-2.1-10.1c-0.1-0.6,0.1-1.2,0.6-1.6l8.1-6.4l-8.6-5.7c-0.5-0.3-0.8-0.9-0.7-1.5
				l1.2-10.2l-10.1,2.1c-0.6,0.1-1.2-0.1-1.6-0.6l-6.4-8.1l-5.7,8.6c-0.1,0.2-0.3,0.3-0.5,0.5c-0.3,0.2-0.7,0.3-1.1,0.2l-10.2-1.2
				l2.1,10.1c0.1,0.6-0.1,1.2-0.6,1.6l-8.1,6.4l8.6,5.7c0.5,0.3,0.8,0.9,0.7,1.5l-1.2,10.2l10.1-2.1c0.6-0.1,1.2,0.1,1.6,0.6
				l6.4,8.1l5.7-8.6C177.1,333,177.3,332.9,177.4,332.8z"/>
		</g>
		<g>
			<path class="st201" d="M206.3,302.4c-0.1,0-0.2,0.1-0.2,0.1l-68.3,31.6c-0.4,0.2-0.9,0.2-1.3,0.1c-0.4-0.2-0.8-0.5-1-0.9
				c-0.4-0.8-0.1-1.7,0.6-2.2c0.1,0,0.2-0.1,0.2-0.1l68.3-31.7c0.9-0.4,1.9,0,2.3,0.9C207.3,301,207,301.9,206.3,302.4z"/>
			<path class="st201" d="M202.4,310.3c-0.1,0-0.2,0.1-0.2,0.1c-0.9,0.4-1.9,0-2.3-0.9l-4.6-10c-0.4-0.8-0.1-1.7,0.6-2.2
				c0.1,0,0.2-0.1,0.2-0.1c0.9-0.4,1.9,0,2.3,0.9l4.6,10C203.4,308.9,203.1,309.9,202.4,310.3z"/>
			<path class="st201" d="M146.6,336.2c-0.1,0.1-0.2,0.1-0.2,0.1c-0.9,0.4-1.9,0-2.3-0.8l-4.6-10c-0.4-0.8-0.1-1.7,0.6-2.2
				c0.1-0.1,0.2-0.1,0.2-0.1c0.9-0.4,1.9,0,2.3,0.8l4.6,10C147.6,334.8,147.3,335.7,146.6,336.2z"/>
			<path class="st201" d="M188,352.4c-0.1,0-0.2,0.1-0.2,0.1c-0.4,0.2-0.9,0.2-1.3,0.1c-0.4-0.2-0.8-0.5-1-0.9l-31.7-68.3
				c-0.4-0.8-0.1-1.7,0.6-2.2c0.1-0.1,0.1-0.1,0.2-0.1c0.4-0.2,0.9-0.2,1.3-0.1c0.4,0.2,0.8,0.5,1,0.9l31.7,68.3
				C189,351,188.7,351.9,188,352.4z"/>
			<path class="st201" d="M190.1,343.8c-0.1,0-0.1,0.1-0.2,0.1l-10,4.6c-0.4,0.2-0.9,0.2-1.3,0.1c-0.4-0.2-0.8-0.5-1-0.9
				c-0.4-0.8-0.1-1.7,0.6-2.2c0.1,0,0.1-0.1,0.2-0.1l10-4.6c0.4-0.2,0.9-0.2,1.4-0.1c0.4,0.2,0.8,0.5,1,0.9
				C191.1,342.4,190.8,343.4,190.1,343.8z"/>
			<path class="st201" d="M164.2,288c-0.1,0.1-0.1,0.1-0.2,0.1l-10,4.6c-0.4,0.2-0.9,0.2-1.4,0.1c-0.4-0.2-0.8-0.5-1-0.9
				c-0.4-0.8-0.1-1.7,0.6-2.2c0.1-0.1,0.1-0.1,0.2-0.1l10-4.6c0.4-0.2,0.9-0.2,1.3-0.1c0.4,0.2,0.8,0.5,1,0.9
				C165.2,286.6,164.9,287.5,164.2,288z"/>
			<path class="st201" d="M159.2,353.6c-0.1,0-0.2,0.1-0.2,0.1c-0.4,0.2-0.9,0.2-1.4,0.1c-0.4-0.2-0.8-0.5-1-0.9
				c-0.2-0.4-0.2-0.9-0.1-1.4l25.9-70.7c0.1-0.4,0.4-0.6,0.7-0.8c0.5-0.3,1.1-0.4,1.6-0.2c0.4,0.1,0.8,0.5,1,0.9
				c0.2,0.4,0.2,0.9,0.1,1.3l-25.9,70.7C159.7,353.1,159.5,353.4,159.2,353.6z"/>
			<path class="st201" d="M166.7,349c-0.1,0-0.2,0.1-0.2,0.1c-0.4,0.2-0.9,0.2-1.3,0.1l-10.4-3.8c-0.4-0.2-0.8-0.5-1-0.9
				c-0.2-0.4-0.2-0.9-0.1-1.3c0.1-0.4,0.4-0.7,0.7-0.9c0.5-0.3,1-0.4,1.6-0.2l10.4,3.8c0.4,0.2,0.8,0.5,1,0.9
				c0.2,0.4,0.2,0.9,0.1,1.4C167.3,348.5,167,348.8,166.7,349z"/>
			<path class="st201" d="M187.9,291.3c-0.1,0.1-0.1,0.1-0.2,0.1c-0.4,0.2-0.9,0.2-1.3,0.1l-10.4-3.8c-0.9-0.3-1.4-1.3-1-2.2
				c0.1-0.4,0.4-0.7,0.7-0.9c0.5-0.3,1-0.4,1.6-0.2l10.4,3.8c0.4,0.2,0.8,0.5,1,0.9c0.2,0.4,0.2,0.9,0.1,1.3
				C188.5,290.8,188.2,291.1,187.9,291.3z"/>
			<path class="st201" d="M207.5,331.2c-0.1,0-0.2,0.1-0.2,0.1c-0.4,0.2-0.9,0.2-1.4,0.1l-70.7-25.9c-0.4-0.2-0.8-0.5-1-0.9
				c-0.2-0.4-0.2-0.9-0.1-1.3c0.1-0.4,0.4-0.7,0.7-0.8c0.5-0.3,1-0.4,1.6-0.2l70.7,25.9c0.4,0.2,0.8,0.5,1,0.9
				c0.2,0.4,0.2,0.9,0.1,1.3C208,330.7,207.8,331,207.5,331.2z"/>
			<path class="st201" d="M141.4,312.8c-0.1,0-0.2,0.1-0.2,0.1c-0.4,0.2-0.9,0.2-1.3,0.1c-0.4-0.2-0.8-0.5-1-0.9
				c-0.2-0.4-0.2-0.9-0.1-1.3l3.8-10.3c0.1-0.4,0.4-0.7,0.7-0.9c0.5-0.3,1-0.4,1.6-0.2c0.4,0.2,0.8,0.5,1,0.9c0.2,0.4,0.2,0.9,0,1.3
				l-3.8,10.4C141.9,312.3,141.7,312.6,141.4,312.8z"/>
			<path class="st201" d="M199.1,334c-0.1,0-0.1,0.1-0.2,0.1c-0.4,0.2-0.9,0.2-1.3,0.1c-0.4-0.2-0.8-0.5-1-0.9
				c-0.2-0.4-0.2-0.9-0.1-1.3l3.8-10.3c0.1-0.4,0.4-0.7,0.7-0.9c0.5-0.3,1-0.4,1.6-0.2c0.4,0.2,0.8,0.5,1,0.9
				c0.2,0.4,0.2,0.9,0.1,1.3l-3.8,10.4C199.7,333.5,199.4,333.8,199.1,334z"/>
			<path class="st201" d="M180.9,337.1c-0.1,0-0.1,0.1-0.2,0.1c-0.5,0.2-1,0.2-1.4-0.1l-7.4-4.1l-7,4.7c-0.4,0.3-1,0.4-1.4,0.2
				c-0.5-0.2-0.8-0.6-1-1.1l-2.3-8.1l-8.3-1.6c-0.5-0.1-0.9-0.4-1.1-0.9c-0.2-0.5-0.2-1,0.1-1.4l4.1-7.4l-4.7-7
				c-0.3-0.4-0.3-1-0.2-1.4c0.1-0.3,0.3-0.6,0.6-0.8c0.1-0.1,0.3-0.1,0.4-0.2l8.1-2.3l1.6-8.3c0.1-0.4,0.3-0.8,0.7-1
				c0.1-0.1,0.1-0.1,0.2-0.1c0.5-0.2,1-0.2,1.4,0.1l7.4,4.1c7-4.7,7-4.7,7-4.7c0.4-0.3,0.9-0.4,1.4-0.2c0.5,0.2,0.8,0.6,1,1.1
				l2.3,8.1l8.3,1.6c0.5,0.1,0.9,0.4,1.1,0.9c0.2,0.5,0.2,1-0.1,1.4l-4.1,7.4l4.6,6.8c0.1,0.1,0.2,0.2,0.3,0.4
				c0.3,0.7,0.1,1.6-0.6,2c-0.1,0.1-0.1,0.1-0.2,0.1l-0.1,0c-0.1,0-0.1,0.1-0.2,0.1l-8.2,2.3l-1.6,8.3
				C181.5,336.5,181.2,336.9,180.9,337.1z M170.9,329.9c0.1,0,0.1-0.1,0.2-0.1c0.5-0.2,1-0.2,1.4,0.1l6.3,3.5l1.4-7.1
				c0.1-0.4,0.3-0.8,0.7-1c0.1-0.1,0.3-0.2,0.4-0.2l7-1.9l-4.1-6c-0.3-0.5-0.4-1.1-0.1-1.7l3.5-6.3l-7.1-1.4
				c-0.6-0.1-1.1-0.5-1.2-1.1l-2-7l-6,4.1c-0.5,0.3-1.1,0.4-1.7,0.1l-6.3-3.5l-1.4,7.1c-0.1,0.4-0.3,0.8-0.7,1
				c-0.1,0.1-0.3,0.1-0.4,0.2l-7,2l4.1,6c0.3,0.5,0.4,1.1,0.1,1.7l-3.6,6.3l7.1,1.4c0.6,0.1,1.1,0.6,1.2,1.1l2,7L170.9,329.9
				L170.9,329.9z"/>
			<path class="st201" d="M192.4,336.9c-0.1,0-0.1,0.1-0.2,0.1c-0.3,0.1-0.6,0.2-0.8,0.1l-11.4-1.4l-6.3,9.6
				c-0.1,0.2-0.3,0.4-0.5,0.5c-0.2,0.2-0.5,0.2-0.8,0.3c-0.5,0-1-0.2-1.3-0.6l-7.1-9.1l-11.3,2.3c-0.5,0.1-1-0.1-1.4-0.4
				c-0.4-0.4-0.5-0.8-0.5-1.3l1.4-11.4l-9.6-6.4c-0.4-0.3-0.7-0.7-0.7-1.3c0-0.5,0.2-1,0.6-1.3l9-7.1l-2.3-11.3
				c-0.1-0.5,0-1,0.4-1.4c0.1-0.1,0.2-0.2,0.3-0.2c0.3-0.2,0.7-0.3,1.1-0.2l11.4,1.4l6.3-9.6c0.1-0.2,0.3-0.3,0.5-0.5
				c0.2-0.2,0.5-0.2,0.8-0.2c0.5,0,1,0.2,1.3,0.6l7.1,9l11.3-2.3c0.5-0.1,1,0,1.4,0.4c0.4,0.3,0.6,0.8,0.5,1.3l-1.4,11.4l9.6,6.3
				c0.4,0.3,0.7,0.7,0.7,1.3s-0.2,1-0.6,1.3l-9,7.1l2.3,11.3c0.1,0.5,0,1-0.4,1.4C192.6,336.7,192.6,336.8,192.4,336.9z
				 M178.3,332.8c0.3-0.2,0.7-0.3,1.1-0.2l10.2,1.2l-2.1-10.1c-0.1-0.6,0.1-1.2,0.6-1.6l8.1-6.4l-8.6-5.7c-0.5-0.3-0.8-0.9-0.7-1.5
				l1.2-10.2l-10.1,2.1c-0.6,0.1-1.2-0.1-1.6-0.6l-6.4-8.1l-5.7,8.6c-0.1,0.2-0.3,0.3-0.5,0.5c-0.3,0.2-0.7,0.3-1.1,0.2l-10.2-1.2
				l2.1,10.1c0.1,0.6-0.1,1.2-0.6,1.6l-8.1,6.4l8.6,5.7c0.5,0.3,0.8,0.9,0.7,1.5l-1.2,10.2l10.1-2.1c0.6-0.1,1.2,0.1,1.6,0.6
				l6.4,8.1l5.7-8.6C178,333,178.1,332.9,178.3,332.8z"/>
		</g>
	</g>
	<g>
		<g>
			<path class="st111" d="M274.6,357.2c-0.1,0-0.1,0.1-0.2,0.1l-52.5,24.3c-0.3,0.2-0.7,0.2-1,0c-0.3-0.1-0.6-0.4-0.8-0.7
				c-0.3-0.6-0.1-1.3,0.5-1.7c0.1,0,0.1-0.1,0.2-0.1l52.5-24.3c0.7-0.3,1.5,0,1.8,0.7C275.3,356.1,275.1,356.9,274.6,357.2z"/>
			<path class="st111" d="M271.5,363.3c-0.1,0-0.1,0.1-0.2,0.1c-0.7,0.3-1.5,0-1.8-0.7L266,355c-0.3-0.6-0.1-1.3,0.5-1.7
				c0.1,0,0.1-0.1,0.2-0.1c0.7-0.3,1.5,0,1.8,0.7l3.6,7.7C272.3,362.2,272.1,362.9,271.5,363.3z"/>
			<path class="st111" d="M228.7,383.1c-0.1,0-0.1,0.1-0.2,0.1c-0.7,0.3-1.5,0-1.8-0.7l-3.6-7.7c-0.3-0.6-0.1-1.3,0.5-1.7
				c0.1,0,0.1-0.1,0.2-0.1c0.7-0.3,1.5,0,1.8,0.7l3.6,7.7C229.4,382,229.2,382.8,228.7,383.1z"/>
			<path class="st111" d="M260.5,395.6c-0.1,0-0.1,0.1-0.2,0.1c-0.3,0.1-0.7,0.2-1,0c-0.3-0.1-0.6-0.4-0.8-0.7l-24.3-52.5
				c-0.3-0.6-0.1-1.3,0.5-1.7c0.1,0,0.1-0.1,0.2-0.1c0.3-0.1,0.7-0.2,1,0c0.3,0.1,0.6,0.4,0.8,0.7l24.3,52.5
				C261.2,394.5,261,395.2,260.5,395.6z"/>
			<path class="st111" d="M262.1,389c-0.1,0-0.1,0.1-0.2,0.1l-7.7,3.5c-0.3,0.2-0.7,0.2-1,0.1c-0.3-0.1-0.6-0.4-0.8-0.7
				c-0.3-0.6-0.1-1.3,0.5-1.7c0.1,0,0.1-0.1,0.2-0.1l7.7-3.6c0.3-0.1,0.7-0.2,1,0c0.3,0.1,0.6,0.4,0.8,0.7
				C262.9,387.9,262.7,388.7,262.1,389z"/>
			<path class="st111" d="M242.2,346.2c-0.1,0-0.1,0.1-0.2,0.1l-7.7,3.5c-0.3,0.2-0.7,0.2-1,0.1c-0.3-0.1-0.6-0.4-0.8-0.7
				c-0.3-0.6-0.1-1.3,0.5-1.7c0.1,0,0.1-0.1,0.2-0.1l7.7-3.6c0.3-0.2,0.7-0.2,1,0c0.3,0.1,0.6,0.4,0.8,0.7
				C243,345.1,242.8,345.8,242.2,346.2z"/>
			<path class="st111" d="M238.4,396.5c-0.1,0-0.1,0.1-0.2,0.1c-0.3,0.2-0.7,0.2-1,0.1c-0.3-0.1-0.6-0.4-0.8-0.7
				c-0.2-0.3-0.2-0.7,0-1l19.9-54.3c0.1-0.3,0.3-0.5,0.5-0.7c0.4-0.2,0.8-0.3,1.2-0.1c0.3,0.1,0.6,0.4,0.8,0.7c0.2,0.3,0.2,0.7,0,1
				l-19.9,54.3C238.8,396.1,238.6,396.4,238.4,396.5z"/>
			<path class="st111" d="M244.2,393c-0.1,0-0.1,0.1-0.2,0.1c-0.3,0.2-0.7,0.2-1,0.1l-8-2.9c-0.3-0.1-0.6-0.4-0.8-0.7
				c-0.2-0.3-0.2-0.7,0-1c0.1-0.3,0.3-0.5,0.5-0.7c0.4-0.2,0.8-0.3,1.2-0.1l8,2.9c0.3,0.1,0.6,0.4,0.8,0.7c0.2,0.3,0.2,0.7,0,1
				C244.6,392.6,244.4,392.8,244.2,393z"/>
			<path class="st111" d="M260.4,348.7c-0.1,0.1-0.1,0.1-0.2,0.1c-0.3,0.2-0.7,0.2-1,0l-7.9-2.9c-0.7-0.2-1.1-1-0.8-1.7
				c0.1-0.3,0.3-0.5,0.5-0.7c0.4-0.2,0.8-0.3,1.2-0.1l8,2.9c0.3,0.1,0.6,0.4,0.8,0.7c0.2,0.3,0.2,0.7,0,1
				C260.9,348.3,260.7,348.5,260.4,348.7z"/>
			<path class="st111" d="M275.5,379.3c-0.1,0-0.1,0.1-0.2,0.1c-0.3,0.2-0.7,0.2-1,0.1L220,359.5c-0.3-0.1-0.6-0.4-0.8-0.7
				c-0.2-0.3-0.2-0.7,0-1c0.1-0.3,0.3-0.5,0.5-0.7c0.4-0.2,0.8-0.3,1.2-0.2l54.3,19.9c0.3,0.1,0.6,0.4,0.8,0.7c0.2,0.3,0.2,0.7,0,1
				C275.9,378.9,275.7,379.2,275.5,379.3z"/>
			<path class="st111" d="M224.7,365.2c-0.1,0.1-0.1,0.1-0.2,0.1c-0.3,0.2-0.7,0.2-1,0s-0.6-0.4-0.8-0.7c-0.2-0.3-0.2-0.7,0-1l2.9-8
				c0.1-0.3,0.3-0.5,0.5-0.7c0.4-0.2,0.8-0.3,1.2-0.1c0.3,0.1,0.6,0.4,0.8,0.7c0.1,0.3,0.2,0.7,0,1l-2.9,7.9
				C225.1,364.8,224.9,365,224.7,365.2z"/>
			<path class="st111" d="M269,381.5c-0.1,0-0.1,0.1-0.2,0.1c-0.3,0.1-0.7,0.2-1,0c-0.4-0.1-0.6-0.4-0.8-0.7c-0.2-0.3-0.2-0.7,0-1
				l2.9-7.9c0.1-0.3,0.3-0.5,0.5-0.7c0.4-0.2,0.8-0.3,1.2-0.1c0.3,0.1,0.6,0.4,0.8,0.7c0.2,0.3,0.2,0.7,0,1l-2.9,8
				C269.5,381.1,269.3,381.3,269,381.5z"/>
			<path class="st111" d="M255,383.9c0,0-0.1,0.1-0.2,0.1c-0.4,0.2-0.8,0.2-1.1-0.1l-5.7-3.2l-5.4,3.7c-0.3,0.2-0.7,0.3-1.1,0.1
				c-0.4-0.1-0.6-0.4-0.8-0.8l-1.7-6.2l-6.4-1.2c-0.4-0.1-0.7-0.3-0.9-0.7c-0.2-0.3-0.1-0.8,0.1-1.1l3.2-5.7l-3.6-5.4
				c-0.2-0.3-0.3-0.7-0.2-1.1c0.1-0.2,0.3-0.4,0.5-0.6c0.1-0.1,0.2-0.1,0.3-0.1l6.2-1.8l1.2-6.4c0.1-0.3,0.3-0.6,0.5-0.8
				c0,0,0.1-0.1,0.2-0.1c0.4-0.2,0.8-0.1,1.1,0.1l5.7,3.2c5.4-3.6,5.4-3.6,5.4-3.6c0.3-0.2,0.7-0.3,1.1-0.1c0.4,0.1,0.6,0.4,0.8,0.8
				l1.7,6.3l6.4,1.2c0.4,0.1,0.7,0.3,0.9,0.7c0.2,0.4,0.2,0.8,0,1.1l-3.2,5.6l3.5,5.2c0.1,0.1,0.2,0.2,0.2,0.3
				c0.2,0.5,0.1,1.2-0.4,1.5c0,0-0.1,0.1-0.1,0.1l0,0c-0.1,0-0.1,0.1-0.2,0.1l-6.3,1.8l-1.2,6.4C255.5,383.4,255.3,383.7,255,383.9z
				 M247.4,378.3c0.1,0,0.1-0.1,0.2-0.1c0.4-0.2,0.8-0.2,1.1,0l4.8,2.7l1.1-5.5c0.1-0.3,0.3-0.6,0.5-0.8c0.1-0.1,0.2-0.1,0.3-0.2
				l5.4-1.5l-3.1-4.6c-0.2-0.4-0.3-0.9,0-1.3l2.7-4.9l-5.5-1.1c-0.5-0.1-0.8-0.4-0.9-0.9l-1.5-5.3l-4.6,3.1
				c-0.4,0.3-0.9,0.3-1.3,0.1l-4.8-2.7l-1.1,5.5c-0.1,0.3-0.3,0.6-0.5,0.8c-0.1,0.1-0.2,0.1-0.3,0.1l-5.4,1.5l3.1,4.6
				c0.3,0.4,0.3,0.9,0.1,1.3l-2.7,4.8l5.5,1.1c0.5,0.1,0.8,0.4,0.9,0.9l1.5,5.4L247.4,378.3L247.4,378.3z"/>
			<path class="st111" d="M263.9,383.7c-0.1,0-0.1,0.1-0.2,0.1c-0.2,0.1-0.4,0.1-0.7,0.1l-8.8-1.1l-4.9,7.4
				c-0.1,0.1-0.2,0.2-0.4,0.4c-0.2,0.1-0.4,0.2-0.6,0.2c-0.4,0-0.8-0.1-1-0.4l-5.5-7l-8.7,1.8c-0.4,0.1-0.8,0-1.1-0.3
				c-0.3-0.3-0.4-0.6-0.4-1l1.1-8.8l-7.4-4.9c-0.3-0.2-0.5-0.6-0.5-1c0-0.4,0.2-0.8,0.5-1l6.9-5.4l-1.8-8.7c-0.1-0.4,0-0.8,0.3-1.1
				c0.1-0.1,0.1-0.1,0.2-0.2c0.2-0.2,0.5-0.2,0.8-0.2l8.8,1.1l4.9-7.4c0.1-0.1,0.2-0.3,0.3-0.4c0.2-0.1,0.4-0.2,0.6-0.2
				c0.4,0,0.8,0.2,1,0.5l5.5,6.9l8.7-1.8c0.4-0.1,0.8,0,1.1,0.3c0.3,0.3,0.4,0.7,0.4,1l-1.1,8.8l7.4,4.9c0.3,0.2,0.5,0.6,0.5,1
				c0,0.4-0.2,0.8-0.5,1l-6.9,5.5l1.8,8.6c0.1,0.4,0,0.8-0.3,1.1C264.1,383.6,264,383.6,263.9,383.7z M253.1,380.5
				c0.2-0.2,0.5-0.2,0.8-0.2l7.9,0.9l-1.6-7.7c-0.1-0.5,0.1-0.9,0.4-1.2l6.2-4.9l-6.6-4.3c-0.4-0.3-0.6-0.7-0.5-1.2l1-7.8l-7.7,1.6
				c-0.5,0.1-0.9-0.1-1.2-0.4l-4.9-6.2l-4.4,6.6c-0.1,0.1-0.2,0.2-0.3,0.4c-0.2,0.2-0.5,0.2-0.8,0.2l-7.8-0.9l1.6,7.7
				c0.1,0.4-0.1,0.9-0.4,1.2l-6.2,4.9l6.6,4.4c0.4,0.2,0.6,0.7,0.5,1.1l-0.9,7.8l7.7-1.6c0.5-0.1,0.9,0.1,1.2,0.4l4.9,6.2l4.4-6.6
				C252.8,380.7,252.9,380.6,253.1,380.5z"/>
		</g>
		<g>
			<path class="st201" d="M275.2,357.2c-0.1,0-0.1,0.1-0.2,0.1l-52.5,24.3c-0.3,0.2-0.7,0.2-1,0c-0.3-0.1-0.6-0.4-0.8-0.7
				c-0.3-0.6-0.1-1.3,0.5-1.7c0.1,0,0.1-0.1,0.2-0.1l52.5-24.3c0.7-0.3,1.5,0,1.8,0.7C276,356.1,275.8,356.9,275.2,357.2z"/>
			<path class="st201" d="M272.2,363.3c-0.1,0-0.1,0.1-0.2,0.1c-0.7,0.3-1.5,0-1.8-0.7l-3.6-7.7c-0.3-0.6-0.1-1.3,0.5-1.7
				c0.1,0,0.1-0.1,0.2-0.1c0.7-0.3,1.5,0,1.8,0.7l3.5,7.7C273,362.2,272.8,362.9,272.2,363.3z"/>
			<path class="st201" d="M229.4,383.1c-0.1,0-0.1,0.1-0.2,0.1c-0.7,0.3-1.5,0-1.8-0.7l-3.6-7.7c-0.3-0.6-0.1-1.3,0.5-1.7
				c0.1,0,0.1-0.1,0.2-0.1c0.7-0.3,1.5,0,1.8,0.7l3.6,7.7C230.1,382,229.9,382.8,229.4,383.1z"/>
			<path class="st201" d="M261.2,395.6c-0.1,0-0.1,0.1-0.2,0.1c-0.3,0.1-0.7,0.2-1,0c-0.3-0.1-0.6-0.4-0.8-0.7l-24.3-52.5
				c-0.3-0.6-0.1-1.3,0.5-1.7c0.1,0,0.1-0.1,0.2-0.1c0.3-0.1,0.7-0.2,1,0s0.6,0.4,0.8,0.7l24.3,52.5
				C261.9,394.5,261.7,395.2,261.2,395.6z"/>
			<path class="st201" d="M262.8,389c-0.1,0-0.1,0.1-0.2,0.1l-7.7,3.5c-0.3,0.2-0.7,0.2-1,0.1c-0.3-0.1-0.6-0.4-0.8-0.7
				c-0.3-0.6-0.1-1.3,0.5-1.7c0.1,0,0.1-0.1,0.2-0.1l7.7-3.6c0.3-0.1,0.7-0.2,1,0c0.3,0.1,0.6,0.4,0.8,0.7
				C263.5,387.9,263.3,388.7,262.8,389z"/>
			<path class="st201" d="M242.9,346.2c-0.1,0-0.1,0.1-0.2,0.1l-7.7,3.5c-0.3,0.2-0.7,0.2-1,0.1c-0.3-0.1-0.6-0.4-0.8-0.7
				c-0.3-0.6-0.1-1.3,0.5-1.7c0.1,0,0.1-0.1,0.2-0.1l7.7-3.6c0.3-0.2,0.7-0.2,1,0c0.3,0.1,0.6,0.4,0.8,0.7
				C243.7,345.1,243.5,345.8,242.9,346.2z"/>
			<path class="st201" d="M239.1,396.5c-0.1,0-0.1,0.1-0.2,0.1c-0.3,0.2-0.7,0.2-1,0.1c-0.3-0.1-0.6-0.4-0.8-0.7
				c-0.2-0.3-0.2-0.7,0-1l19.9-54.3c0.1-0.3,0.3-0.5,0.5-0.7c0.4-0.2,0.8-0.3,1.2-0.1c0.3,0.1,0.6,0.4,0.8,0.7c0.2,0.3,0.2,0.7,0,1
				l-19.9,54.3C239.5,396.1,239.3,396.4,239.1,396.5z"/>
			<path class="st201" d="M244.8,393c0,0-0.1,0.1-0.2,0.1c-0.3,0.2-0.7,0.2-1,0.1l-8-2.9c-0.3-0.1-0.6-0.4-0.8-0.7
				c-0.2-0.3-0.2-0.7,0-1c0.1-0.3,0.3-0.5,0.5-0.7c0.4-0.2,0.8-0.3,1.2-0.1l8,2.9c0.3,0.1,0.6,0.4,0.8,0.7c0.2,0.3,0.2,0.7,0,1
				C245.3,392.6,245.1,392.8,244.8,393z"/>
			<path class="st201" d="M261.1,348.7c-0.1,0.1-0.1,0.1-0.2,0.1c-0.3,0.2-0.7,0.2-1,0l-8-2.9c-0.7-0.2-1.1-1-0.8-1.7
				c0.1-0.3,0.3-0.5,0.5-0.7c0.4-0.2,0.8-0.3,1.2-0.1l8,2.9c0.3,0.1,0.6,0.4,0.8,0.7c0.2,0.3,0.2,0.7,0,1
				C261.5,348.3,261.4,348.5,261.1,348.7z"/>
			<path class="st201" d="M276.2,379.3c-0.1,0-0.1,0.1-0.2,0.1c-0.3,0.2-0.7,0.2-1,0.1l-54.3-19.9c-0.3-0.1-0.6-0.4-0.8-0.7
				c-0.2-0.3-0.2-0.7,0-1c0.1-0.3,0.3-0.5,0.5-0.7c0.4-0.2,0.8-0.3,1.2-0.2l54.3,19.9c0.3,0.1,0.6,0.4,0.8,0.7c0.2,0.3,0.2,0.7,0,1
				C276.6,378.9,276.4,379.2,276.2,379.3z"/>
			<path class="st201" d="M225.4,365.2c-0.1,0.1-0.1,0.1-0.2,0.1c-0.3,0.2-0.7,0.2-1,0c-0.3-0.1-0.6-0.4-0.8-0.7
				c-0.2-0.3-0.2-0.7,0-1l2.9-8c0.1-0.3,0.3-0.5,0.5-0.7c0.4-0.2,0.8-0.3,1.2-0.1c0.3,0.1,0.6,0.4,0.8,0.7c0.2,0.3,0.2,0.7,0,1
				l-2.9,7.9C225.8,364.8,225.6,365,225.4,365.2z"/>
			<path class="st201" d="M269.7,381.5c0,0-0.1,0.1-0.2,0.1c-0.3,0.1-0.7,0.2-1,0c-0.3-0.1-0.6-0.4-0.8-0.7c-0.2-0.3-0.2-0.7,0-1
				l2.9-7.9c0.1-0.3,0.3-0.5,0.5-0.7c0.4-0.2,0.8-0.3,1.2-0.1c0.3,0.1,0.6,0.4,0.8,0.7c0.2,0.3,0.2,0.7,0,1l-2.9,8
				C270.2,381.1,270,381.3,269.7,381.5z"/>
			<path class="st201" d="M255.7,383.9c-0.1,0-0.1,0.1-0.2,0.1c-0.4,0.2-0.8,0.2-1.1-0.1l-5.7-3.2l-5.4,3.7
				c-0.3,0.2-0.7,0.3-1.1,0.1c-0.4-0.1-0.6-0.4-0.8-0.8l-1.8-6.2l-6.4-1.2c-0.4-0.1-0.7-0.3-0.9-0.7c-0.2-0.3-0.1-0.8,0-1.1l3.2-5.7
				l-3.6-5.4c-0.2-0.3-0.3-0.7-0.1-1.1c0.1-0.2,0.3-0.4,0.5-0.6c0.1-0.1,0.2-0.1,0.3-0.1l6.3-1.8l1.2-6.4c0.1-0.3,0.2-0.6,0.5-0.8
				c0.1,0,0.1-0.1,0.2-0.1c0.4-0.2,0.8-0.1,1.1,0.1l5.7,3.2c5.4-3.6,5.4-3.6,5.4-3.6c0.3-0.2,0.7-0.3,1.1-0.1
				c0.4,0.1,0.6,0.4,0.8,0.8l1.8,6.3l6.4,1.2c0.4,0.1,0.7,0.3,0.9,0.7c0.2,0.4,0.1,0.8,0,1.1l-3.2,5.6l3.5,5.2
				c0.1,0.1,0.2,0.2,0.2,0.3c0.3,0.5,0.1,1.2-0.4,1.5c0,0-0.1,0.1-0.2,0.1l0,0c-0.1,0-0.1,0.1-0.2,0.1l-6.2,1.8l-1.2,6.4
				C256.2,383.4,256,383.7,255.7,383.9z M248,378.3c0.1,0,0.1-0.1,0.2-0.1c0.4-0.2,0.8-0.2,1.1,0l4.8,2.7l1.1-5.5
				c0.1-0.3,0.2-0.6,0.5-0.8c0.1-0.1,0.2-0.1,0.3-0.2l5.3-1.5l-3.1-4.6c-0.3-0.4-0.3-0.9-0.1-1.3l2.7-4.9l-5.5-1.1
				c-0.4-0.1-0.8-0.4-0.9-0.9l-1.5-5.3l-4.6,3.1c-0.4,0.3-0.9,0.3-1.3,0.1l-4.9-2.7l-1.1,5.5c-0.1,0.3-0.2,0.6-0.5,0.8
				c-0.1,0.1-0.2,0.1-0.3,0.1l-5.4,1.5l3.1,4.6c0.3,0.4,0.3,0.9,0.1,1.3l-2.7,4.8l5.5,1.1c0.4,0.1,0.8,0.4,0.9,0.9l1.5,5.4
				L248,378.3L248,378.3z"/>
			<path class="st201" d="M264.6,383.7c-0.1,0-0.1,0.1-0.1,0.1c-0.2,0.1-0.4,0.1-0.7,0.1l-8.8-1.1l-4.9,7.4
				c-0.1,0.1-0.2,0.2-0.3,0.4c-0.2,0.1-0.4,0.2-0.6,0.2c-0.4,0-0.8-0.1-1-0.4l-5.5-7l-8.6,1.8c-0.4,0.1-0.8,0-1.1-0.3
				c-0.3-0.3-0.4-0.6-0.4-1l1.1-8.8l-7.4-4.9c-0.3-0.2-0.5-0.6-0.5-1c0-0.4,0.2-0.8,0.5-1l6.9-5.4l-1.8-8.7c-0.1-0.4,0-0.8,0.3-1.1
				c0.1-0.1,0.1-0.1,0.2-0.2c0.2-0.2,0.5-0.2,0.8-0.2l8.8,1.1l4.9-7.4c0.1-0.1,0.2-0.3,0.4-0.4c0.2-0.1,0.4-0.2,0.6-0.2
				c0.4,0,0.8,0.2,1,0.5l5.5,6.9l8.6-1.8c0.4-0.1,0.8,0,1.1,0.3c0.3,0.3,0.4,0.7,0.4,1l-1.1,8.8l7.4,4.9c0.3,0.2,0.5,0.6,0.5,1
				c0,0.4-0.2,0.8-0.5,1l-6.9,5.5l1.8,8.6c0.1,0.4,0,0.8-0.3,1.1C264.8,383.6,264.7,383.6,264.6,383.7z M253.8,380.5
				c0.2-0.2,0.5-0.2,0.8-0.2l7.8,0.9l-1.6-7.7c-0.1-0.5,0.1-0.9,0.4-1.2l6.2-4.9l-6.6-4.3c-0.4-0.3-0.6-0.7-0.5-1.2l0.9-7.8
				l-7.7,1.6c-0.5,0.1-0.9-0.1-1.2-0.4l-4.9-6.2l-4.4,6.6c-0.1,0.1-0.2,0.2-0.3,0.4c-0.2,0.2-0.5,0.2-0.8,0.2l-7.8-0.9l1.6,7.7
				c0.1,0.4-0.1,0.9-0.4,1.2L229,369l6.6,4.4c0.4,0.2,0.6,0.7,0.5,1.1l-0.9,7.8l7.7-1.6c0.5-0.1,0.9,0.1,1.2,0.4l4.9,6.2l4.4-6.6
				C253.5,380.7,253.6,380.6,253.8,380.5z"/>
		</g>
	</g>
	<g>
		<g>
			<path class="st111" d="M367.9,298.5c-0.1,0.1-0.2,0.1-0.3,0.1l-77.3,35.8c-0.5,0.2-1,0.2-1.5,0.1c-0.5-0.2-0.9-0.5-1.1-1
				c-0.4-0.9-0.1-2,0.7-2.5c0.1-0.1,0.2-0.1,0.3-0.1L366,295c1-0.5,2.2,0,2.6,1C369,296.9,368.7,297.9,367.9,298.5z"/>
			<path class="st111" d="M363.4,307.4c-0.1,0.1-0.2,0.1-0.2,0.1c-1,0.5-2.2,0-2.6-1l-5.2-11.3c-0.4-0.9-0.1-2,0.7-2.5
				c0.1-0.1,0.2-0.1,0.3-0.1c1-0.5,2.2,0,2.6,1l5.2,11.3C364.6,305.8,364.3,306.9,363.4,307.4z"/>
			<path class="st111" d="M300.3,336.7c-0.1,0-0.2,0.1-0.3,0.1c-1,0.5-2.2,0-2.6-1l-5.3-11.3c-0.4-0.9-0.1-2,0.7-2.5
				c0.1-0.1,0.2-0.1,0.3-0.1c1-0.5,2.2,0,2.6,1l5.3,11.3C301.4,335.1,301.1,336.2,300.3,336.7z"/>
			<path class="st111" d="M347.1,355.1c-0.1,0.1-0.2,0.1-0.3,0.2c-0.5,0.2-1,0.2-1.5,0.1c-0.5-0.2-0.9-0.5-1.1-1l-35.8-77.3
				c-0.4-0.9-0.1-2,0.7-2.5c0.1-0.1,0.2-0.1,0.3-0.1c0.5-0.2,1-0.2,1.5-0.1c0.5,0.2,0.9,0.5,1.1,1l35.8,77.3
				C348.3,353.5,348,354.5,347.1,355.1z"/>
			<path class="st111" d="M349.5,345.3c-0.1,0.1-0.2,0.1-0.3,0.2l-11.3,5.2c-0.5,0.2-1,0.2-1.5,0.1c-0.5-0.2-0.9-0.5-1.1-1
				c-0.4-0.9-0.1-2,0.7-2.5c0.1-0.1,0.2-0.1,0.3-0.1l11.3-5.3c0.5-0.2,1-0.2,1.5-0.1c0.5,0.2,0.9,0.5,1.1,1
				C350.6,343.8,350.4,344.8,349.5,345.3z"/>
			<path class="st111" d="M320.3,282.2c-0.1,0.1-0.2,0.1-0.3,0.1l-11.3,5.2c-0.5,0.2-1,0.2-1.5,0.1c-0.5-0.2-0.9-0.5-1.1-1
				c-0.4-0.9-0.1-2,0.7-2.5c0.1-0.1,0.2-0.1,0.3-0.1l11.3-5.2c0.5-0.2,1-0.2,1.5-0.1c0.5,0.2,0.9,0.5,1.1,1
				C321.4,280.6,321.1,281.7,320.3,282.2z"/>
			<path class="st111" d="M314.6,356.4c-0.1,0.1-0.2,0.1-0.3,0.1c-0.5,0.2-1,0.2-1.5,0.1c-0.5-0.2-0.9-0.5-1.1-1
				c-0.2-0.5-0.2-1-0.1-1.5l29.3-80c0.1-0.4,0.4-0.7,0.8-1c0.5-0.4,1.2-0.4,1.8-0.2c0.5,0.2,0.9,0.5,1.1,1c0.2,0.5,0.2,1,0.1,1.5
				l-29.3,80C315.2,355.8,314.9,356.2,314.6,356.4z"/>
			<path class="st111" d="M323.1,351.2c-0.1,0.1-0.2,0.1-0.3,0.1c-0.5,0.2-1,0.2-1.5,0.1l-11.7-4.3c-0.5-0.2-0.9-0.5-1.1-1
				c-0.2-0.5-0.2-1-0.1-1.5c0.2-0.4,0.4-0.8,0.8-1c0.5-0.3,1.2-0.4,1.8-0.2l11.7,4.3c0.5,0.2,0.9,0.5,1.1,1c0.2,0.5,0.2,1,0.1,1.5
				C323.7,350.7,323.5,351,323.1,351.2z"/>
			<path class="st111" d="M347.1,285.9c-0.1,0.1-0.2,0.1-0.2,0.1c-0.5,0.2-1,0.2-1.5,0.1l-11.7-4.3c-1-0.4-1.6-1.5-1.2-2.5
				c0.2-0.4,0.4-0.7,0.8-1c0.5-0.4,1.2-0.4,1.8-0.2l11.7,4.3c0.5,0.2,0.9,0.5,1.1,1c0.2,0.5,0.2,1,0.1,1.5
				C347.7,285.3,347.4,285.6,347.1,285.9z"/>
			<path class="st111" d="M369.2,331.1c-0.1,0.1-0.2,0.1-0.3,0.1c-0.5,0.2-1,0.2-1.5,0.1l-80-29.4c-0.5-0.2-0.9-0.5-1.1-1
				c-0.2-0.5-0.2-1-0.1-1.5c0.2-0.4,0.4-0.7,0.8-1c0.5-0.4,1.2-0.4,1.8-0.2l80,29.4c0.5,0.2,0.9,0.6,1.1,1c0.2,0.5,0.2,1,0.1,1.5
				C369.9,330.5,369.6,330.8,369.2,331.1z"/>
			<path class="st111" d="M294.4,310.3c-0.1,0.1-0.2,0.1-0.3,0.1c-0.5,0.2-1,0.2-1.5,0.1c-0.5-0.2-0.9-0.5-1.1-1
				c-0.2-0.5-0.2-1-0.1-1.5l4.3-11.7c0.2-0.4,0.4-0.7,0.8-1c0.5-0.4,1.2-0.4,1.8-0.2c0.5,0.2,0.9,0.5,1.1,1c0.2,0.5,0.2,1,0.1,1.5
				l-4.3,11.7C295,309.7,294.8,310,294.4,310.3z"/>
			<path class="st111" d="M359.8,334.2c-0.1,0.1-0.2,0.1-0.2,0.1c-0.5,0.2-1,0.2-1.5,0.1c-0.5-0.2-0.9-0.5-1.1-1
				c-0.2-0.5-0.2-1-0.1-1.5l4.3-11.7c0.1-0.4,0.4-0.7,0.8-1c0.5-0.4,1.2-0.4,1.8-0.2c0.5,0.2,0.9,0.5,1.1,1c0.2,0.5,0.2,1,0.1,1.5
				l-4.3,11.7C360.4,333.7,360.1,334,359.8,334.2z"/>
			<path class="st111" d="M339.1,337.8c-0.1,0.1-0.2,0.1-0.2,0.1c-0.5,0.2-1.1,0.2-1.6-0.1l-8.3-4.7l-7.9,5.4
				c-0.5,0.3-1.1,0.4-1.6,0.2c-0.5-0.2-1-0.6-1.1-1.2l-2.6-9.2l-9.4-1.8c-0.6-0.1-1-0.5-1.3-1c-0.2-0.5-0.2-1.1,0.1-1.6l4.7-8.3
				l-5.4-7.9c-0.3-0.5-0.4-1.1-0.2-1.6c0.1-0.4,0.4-0.7,0.7-0.9c0.2-0.1,0.3-0.2,0.5-0.2l9.2-2.6l1.8-9.4c0.1-0.5,0.4-0.9,0.8-1.1
				c0.1-0.1,0.2-0.1,0.2-0.1c0.5-0.2,1.1-0.2,1.6,0.1l8.3,4.7c7.9-5.3,7.9-5.3,7.9-5.3c0.5-0.3,1.1-0.4,1.6-0.2
				c0.5,0.2,0.9,0.6,1.1,1.2l2.6,9.2l9.4,1.8c0.6,0.1,1,0.5,1.3,1c0.2,0.5,0.2,1.1-0.1,1.6l-4.7,8.3l5.2,7.7
				c0.1,0.1,0.2,0.3,0.3,0.5c0.4,0.8,0.1,1.7-0.6,2.2c-0.1,0.1-0.2,0.1-0.2,0.1l-0.1,0c-0.1,0-0.2,0.1-0.2,0.1l-9.2,2.6l-1.8,9.4
				C339.8,337.1,339.5,337.5,339.1,337.8z M327.8,329.6c0.1-0.1,0.2-0.1,0.2-0.1c0.5-0.2,1.1-0.2,1.6,0.1l7.1,4l1.6-8
				c0.1-0.5,0.4-0.9,0.8-1.1c0.2-0.1,0.3-0.2,0.5-0.2l7.9-2.2l-4.6-6.8c-0.4-0.5-0.4-1.3-0.1-1.9l4-7.1l-8-1.6
				c-0.7-0.1-1.2-0.6-1.4-1.3l-2.2-7.9l-6.8,4.6c-0.6,0.4-1.3,0.4-1.9,0.1l-7.1-4l-1.6,8.1c-0.1,0.5-0.4,0.9-0.8,1.1
				c-0.2,0.1-0.3,0.2-0.5,0.2l-7.9,2.2l4.6,6.8c0.4,0.6,0.4,1.3,0.1,1.9l-4,7.1l8,1.6c0.7,0.1,1.2,0.6,1.4,1.3l2.2,7.9L327.8,329.6
				L327.8,329.6z"/>
			<path class="st111" d="M352.2,337.5c-0.1,0-0.1,0.1-0.2,0.1c-0.3,0.1-0.6,0.2-1,0.2l-12.9-1.6l-7.2,10.9
				c-0.1,0.2-0.3,0.4-0.5,0.5c-0.3,0.2-0.6,0.3-0.9,0.3c-0.6,0-1.1-0.2-1.5-0.7l-8-10.3l-12.8,2.6c-0.6,0.1-1.1-0.1-1.6-0.4
				c-0.4-0.4-0.6-1-0.6-1.5l1.6-12.9l-10.9-7.2c-0.5-0.3-0.8-0.8-0.8-1.4c0-0.6,0.2-1.1,0.7-1.5l10.2-8l-2.6-12.8
				c-0.1-0.6,0-1.1,0.4-1.6c0.1-0.1,0.2-0.2,0.3-0.3c0.4-0.2,0.8-0.3,1.2-0.3l12.9,1.6l7.2-10.9c0.1-0.2,0.3-0.4,0.5-0.5
				c0.3-0.2,0.6-0.3,0.9-0.3c0.6,0,1.1,0.2,1.5,0.7l8,10.2l12.8-2.6c0.6-0.1,1.1,0.1,1.6,0.4c0.4,0.4,0.6,1,0.6,1.5l-1.6,12.9
				l10.9,7.2c0.5,0.3,0.8,0.8,0.8,1.4c0,0.6-0.2,1.1-0.7,1.5l-10.2,8l2.6,12.7c0.1,0.6-0.1,1.2-0.4,1.6
				C352.5,337.3,352.3,337.4,352.2,337.5z M336.2,332.8c0.4-0.2,0.8-0.3,1.2-0.3l11.6,1.4l-2.3-11.4c-0.1-0.7,0.1-1.3,0.6-1.8
				l9.2-7.2l-9.7-6.4c-0.6-0.4-0.9-1-0.8-1.7l1.4-11.6l-11.4,2.3c-0.7,0.1-1.3-0.1-1.8-0.7l-7.2-9.2l-6.4,9.7
				c-0.1,0.2-0.3,0.4-0.5,0.5c-0.4,0.2-0.8,0.3-1.2,0.3l-11.6-1.4l2.3,11.4c0.1,0.7-0.1,1.3-0.6,1.8l-9.2,7.2l9.7,6.4
				c0.6,0.4,0.9,1,0.8,1.7l-1.4,11.6l11.4-2.3c0.7-0.1,1.3,0.1,1.8,0.6l7.2,9.2l6.4-9.7C335.9,333.1,336,333,336.2,332.8z"/>
		</g>
		<g>
			<path class="st201" d="M368.9,298.5c-0.1,0.1-0.2,0.1-0.3,0.1l-77.3,35.8c-0.5,0.2-1,0.2-1.5,0.1c-0.5-0.2-0.9-0.5-1.1-1
				c-0.4-0.9-0.1-2,0.7-2.5c0.1-0.1,0.2-0.1,0.3-0.1L367,295c1-0.5,2.2,0,2.6,1C370,296.9,369.7,297.9,368.9,298.5z"/>
			<path class="st201" d="M364.5,307.4c-0.1,0.1-0.2,0.1-0.3,0.1c-1,0.5-2.2,0-2.6-1l-5.3-11.3c-0.4-0.9-0.1-2,0.7-2.5
				c0.1-0.1,0.2-0.1,0.3-0.1c1-0.5,2.2,0,2.6,1l5.2,11.3C365.6,305.8,365.3,306.9,364.5,307.4z"/>
			<path class="st201" d="M301.3,336.7c-0.1,0-0.2,0.1-0.3,0.1c-1,0.5-2.2,0-2.6-1l-5.3-11.3c-0.4-0.9-0.1-2,0.7-2.5
				c0.1-0.1,0.2-0.1,0.3-0.1c1-0.5,2.2,0,2.6,1l5.2,11.3C302.4,335.1,302.1,336.2,301.3,336.7z"/>
			<path class="st201" d="M348.2,355.1c-0.1,0.1-0.2,0.1-0.3,0.2c-0.5,0.2-1,0.2-1.5,0.1c-0.5-0.2-0.9-0.5-1.1-1l-35.8-77.3
				c-0.4-0.9-0.1-2,0.7-2.5c0.1-0.1,0.2-0.1,0.2-0.1c0.5-0.2,1-0.2,1.5-0.1c0.5,0.2,0.9,0.5,1.1,1l35.8,77.3
				C349.3,353.5,349,354.5,348.2,355.1z"/>
			<path class="st201" d="M350.5,345.3c-0.1,0.1-0.2,0.1-0.3,0.2l-11.3,5.2c-0.5,0.2-1,0.2-1.5,0.1c-0.5-0.2-0.9-0.5-1.1-1
				c-0.4-0.9-0.1-2,0.7-2.5c0.1-0.1,0.2-0.1,0.2-0.1l11.3-5.3c0.5-0.2,1-0.2,1.5-0.1c0.5,0.2,0.9,0.5,1.1,1
				C351.7,343.8,351.4,344.8,350.5,345.3z"/>
			<path class="st201" d="M321.3,282.2c-0.1,0.1-0.2,0.1-0.2,0.1l-11.3,5.2c-0.5,0.2-1,0.2-1.5,0.1c-0.5-0.2-0.9-0.5-1.1-1
				c-0.4-0.9-0.1-2,0.7-2.5c0.1-0.1,0.2-0.1,0.3-0.1l11.3-5.2c0.5-0.2,1-0.2,1.5-0.1c0.5,0.2,0.9,0.5,1.1,1
				C322.4,280.6,322.1,281.7,321.3,282.2z"/>
			<path class="st201" d="M315.6,356.4c-0.1,0.1-0.2,0.1-0.3,0.1c-0.5,0.2-1,0.2-1.5,0.1c-0.5-0.2-0.9-0.5-1.1-1
				c-0.2-0.5-0.2-1-0.1-1.5l29.3-80c0.2-0.4,0.4-0.7,0.8-1c0.5-0.4,1.2-0.4,1.8-0.2c0.5,0.2,0.9,0.5,1.1,1c0.2,0.5,0.2,1,0.1,1.5
				l-29.4,80C316.2,355.8,315.9,356.2,315.6,356.4z"/>
			<path class="st201" d="M324.1,351.2c-0.1,0.1-0.2,0.1-0.3,0.1c-0.5,0.2-1,0.2-1.5,0.1l-11.7-4.3c-0.5-0.2-0.9-0.5-1.1-1
				c-0.2-0.5-0.2-1-0.1-1.5c0.2-0.4,0.4-0.8,0.8-1c0.5-0.3,1.2-0.4,1.8-0.2l11.7,4.3c0.5,0.2,0.9,0.5,1.1,1c0.2,0.5,0.2,1,0.1,1.5
				C324.7,350.7,324.5,351,324.1,351.2z"/>
			<path class="st201" d="M348.1,285.9c-0.1,0.1-0.2,0.1-0.3,0.1c-0.5,0.2-1,0.2-1.5,0.1l-11.7-4.3c-1-0.4-1.6-1.5-1.2-2.5
				c0.2-0.4,0.4-0.7,0.8-1c0.5-0.4,1.2-0.4,1.8-0.2l11.7,4.3c0.5,0.2,0.9,0.5,1.1,1c0.2,0.5,0.2,1,0.1,1.5
				C348.7,285.3,348.4,285.6,348.1,285.9z"/>
			<path class="st201" d="M370.3,331.1c-0.1,0.1-0.2,0.1-0.3,0.1c-0.5,0.2-1,0.2-1.5,0.1l-80-29.4c-0.5-0.2-0.9-0.5-1.1-1
				c-0.2-0.5-0.2-1-0.1-1.5c0.2-0.4,0.4-0.7,0.8-1c0.5-0.4,1.2-0.4,1.8-0.2l80,29.4c0.5,0.2,0.9,0.6,1.1,1c0.2,0.5,0.2,1,0.1,1.5
				C370.9,330.5,370.6,330.8,370.3,331.1z"/>
			<path class="st201" d="M295.4,310.3c-0.1,0.1-0.2,0.1-0.3,0.1c-0.5,0.2-1,0.2-1.5,0.1c-0.5-0.2-0.9-0.5-1.1-1
				c-0.2-0.5-0.2-1-0.1-1.5l4.3-11.7c0.1-0.4,0.4-0.7,0.8-1c0.5-0.4,1.2-0.4,1.8-0.2c0.5,0.2,0.9,0.5,1.1,1c0.2,0.5,0.2,1,0.1,1.5
				l-4.3,11.7C296,309.7,295.8,310,295.4,310.3z"/>
			<path class="st201" d="M360.8,334.2c-0.1,0.1-0.2,0.1-0.3,0.1c-0.5,0.2-1,0.2-1.5,0.1c-0.5-0.2-0.9-0.5-1.1-1
				c-0.2-0.5-0.2-1-0.1-1.5l4.3-11.7c0.2-0.4,0.4-0.7,0.8-1c0.5-0.4,1.2-0.4,1.8-0.2c0.5,0.2,0.9,0.5,1.1,1c0.2,0.5,0.2,1,0.1,1.5
				l-4.3,11.7C361.4,333.7,361.1,334,360.8,334.2z"/>
			<path class="st201" d="M340.1,337.8c-0.1,0.1-0.2,0.1-0.2,0.1c-0.5,0.2-1.1,0.2-1.6-0.1l-8.3-4.7l-7.9,5.4
				c-0.5,0.3-1.1,0.4-1.6,0.2c-0.5-0.2-1-0.6-1.1-1.2l-2.6-9.2l-9.4-1.8c-0.6-0.1-1-0.5-1.3-1c-0.2-0.5-0.2-1.1,0.1-1.6l4.7-8.3
				l-5.4-7.9c-0.3-0.5-0.4-1.1-0.2-1.6c0.1-0.4,0.4-0.7,0.7-0.9c0.2-0.1,0.3-0.2,0.5-0.2l9.2-2.6l1.8-9.4c0.1-0.5,0.4-0.9,0.8-1.1
				c0.1-0.1,0.1-0.1,0.2-0.1c0.5-0.2,1.1-0.2,1.6,0.1l8.3,4.7c7.9-5.3,7.9-5.3,7.9-5.3c0.5-0.3,1.1-0.4,1.6-0.2
				c0.5,0.2,0.9,0.6,1.1,1.2l2.6,9.2l9.4,1.8c0.6,0.1,1,0.5,1.3,1c0.2,0.5,0.2,1.1-0.1,1.6l-4.7,8.3l5.2,7.7
				c0.1,0.1,0.2,0.3,0.3,0.5c0.4,0.8,0.1,1.7-0.6,2.2c-0.1,0.1-0.2,0.1-0.2,0.1l-0.1,0c-0.1,0-0.2,0.1-0.2,0.1l-9.2,2.6l-1.8,9.4
				C340.8,337.1,340.5,337.5,340.1,337.8z M328.8,329.6c0.1-0.1,0.2-0.1,0.2-0.1c0.5-0.2,1.1-0.2,1.6,0.1l7.1,4l1.6-8
				c0.1-0.5,0.4-0.9,0.8-1.1c0.2-0.1,0.3-0.2,0.5-0.2l7.9-2.2l-4.6-6.8c-0.4-0.5-0.4-1.3-0.1-1.9l4-7.1l-8.1-1.6
				c-0.7-0.1-1.2-0.6-1.4-1.3l-2.2-7.9l-6.8,4.6c-0.6,0.4-1.3,0.4-1.9,0.1l-7.1-4l-1.6,8.1c-0.1,0.5-0.4,0.9-0.8,1.1
				c-0.2,0.1-0.3,0.2-0.5,0.2l-7.9,2.2l4.6,6.8c0.4,0.6,0.4,1.3,0.1,1.9l-4,7.1l8.1,1.6c0.7,0.1,1.2,0.6,1.4,1.3l2.2,7.9
				L328.8,329.6L328.8,329.6z"/>
			<path class="st201" d="M353.2,337.5c-0.1,0-0.2,0.1-0.2,0.1c-0.3,0.1-0.6,0.2-1,0.2l-12.9-1.6l-7.2,10.9
				c-0.1,0.2-0.3,0.4-0.5,0.5c-0.3,0.2-0.6,0.3-0.9,0.3c-0.6,0-1.1-0.2-1.5-0.7l-8-10.3l-12.7,2.6c-0.6,0.1-1.2-0.1-1.6-0.4
				c-0.4-0.4-0.6-1-0.6-1.5l1.6-12.9l-10.9-7.2c-0.5-0.3-0.8-0.8-0.8-1.4c0-0.6,0.2-1.1,0.7-1.5l10.2-8l-2.6-12.8
				c-0.1-0.6,0-1.1,0.4-1.6c0.1-0.1,0.2-0.2,0.3-0.3c0.3-0.2,0.8-0.3,1.2-0.3l12.9,1.6l7.2-10.9c0.1-0.2,0.3-0.4,0.5-0.5
				c0.3-0.2,0.6-0.3,0.9-0.3c0.6,0,1.1,0.2,1.5,0.7l8,10.2l12.7-2.6c0.6-0.1,1.1,0.1,1.6,0.4c0.4,0.4,0.6,1,0.6,1.5l-1.6,12.9
				l10.9,7.2c0.5,0.3,0.8,0.8,0.8,1.4c0,0.6-0.2,1.1-0.7,1.5l-10.2,8l2.6,12.7c0.1,0.6,0,1.2-0.4,1.6
				C353.5,337.3,353.3,337.4,353.2,337.5z M337.2,332.8c0.4-0.2,0.8-0.3,1.2-0.3l11.6,1.4l-2.3-11.4c-0.1-0.7,0.1-1.3,0.7-1.8
				l9.2-7.2l-9.7-6.4c-0.6-0.4-0.9-1-0.8-1.7l1.4-11.6l-11.4,2.3c-0.7,0.1-1.3-0.1-1.8-0.7l-7.2-9.2l-6.4,9.7
				c-0.1,0.2-0.3,0.4-0.5,0.5c-0.3,0.2-0.8,0.3-1.2,0.3l-11.6-1.4l2.3,11.4c0.1,0.7-0.1,1.3-0.6,1.8l-9.2,7.2l9.7,6.4
				c0.5,0.4,0.9,1,0.8,1.7l-1.4,11.6l11.4-2.3c0.7-0.1,1.3,0.1,1.8,0.6l7.2,9.2l6.4-9.7C336.9,333.1,337,333,337.2,332.8z"/>
		</g>
	</g>
	<g>
		<g class="st132">
			<path class="st108" d="M286.4,243.3c15.7-9.4,16.5-20.6,9.9-27.9c-7.1-7.8-8.6-8.4-20.4-13.5c-8.2-3.5,2.6-42.1-20.9-56.9
				c-20-12.5-57.9,26.4-75.1,31.7c-19.8,6.1-51.3,16.1-57,21.4c-6.7,6.2-36.7,27.5-23.3,45.6c6.2,8.3,18.6,3.6,32.3,5.3
				c9.4,1.2,20.5-0.1,28.5,0.1c20.3,0.4,25.4-13.8,30.3-11.6c7,3.1,20.4,12.5,46.2,8.6c20.8-3.1,20.6-9.3,24.2-7.1
				C268.7,243.6,276.4,249.3,286.4,243.3z"/>
		</g>
		<path class="st111" d="M287.2,201.6c1.6-5.6,2.4-11.5,2.4-17.7c0-36.4-29.5-66-66-66c-30.9,0-56.8,21.2-64,49.8
			c-0.7,0-1.3-0.1-2-0.1c-14.4,0-27.1,7.4-34.4,18.7c-3.8-1.6-7.9-2.4-12.2-2.4c-17.7,0-32,14.3-32,32c0,17.7,14.3,32,32,32
			c7.8,0,14.9-2.8,20.4-7.4c7.1,5.9,16.3,9.4,26.2,9.4c11.1,0,21.2-4.4,28.6-11.6c10.6,7.3,23.5,11.6,37.4,11.6
			c12.7,0,24.5-3.6,34.6-9.8c4.6,5.7,11.6,9.4,19.5,9.4c13.8,0,24.9-11.2,24.9-24.9C302.5,214.2,296.2,205.3,287.2,201.6z"/>
		<path class="st202" d="M288.1,202.6c1.6-5.6,2.4-11.5,2.4-17.7c0-36.5-29.6-66-66-66c-30.9,0-56.8,21.2-64,49.8
			c-0.7,0-1.3-0.1-2-0.1c-14.4,0-27.1,7.4-34.4,18.7c-3.8-1.6-7.9-2.4-12.2-2.4c-17.7,0-32,14.3-32,32c0,17.7,14.3,32,32,32
			c7.8,0,14.9-2.8,20.4-7.4c7.1,5.9,16.3,9.4,26.2,9.4c11.1,0,21.2-4.4,28.6-11.6c10.6,7.3,23.5,11.6,37.4,11.6
			c12.7,0,24.5-3.6,34.6-9.8c4.6,5.7,11.6,9.4,19.5,9.4c13.8,0,24.9-11.2,24.9-24.9C303.5,215.2,297.1,206.3,288.1,202.6z"/>
	</g>
	<g>
		<g class="st132">
			<path class="st133" d="M423.8,262c14.9-12.6,12.2-51.8,4.6-62.2c-10-13.8-20.7-22.1-29.8-26.7c-9.2-4.6-35-8.6-46.7-8.6
				c-16.4,0-32.5,4-45.7,7.5c-14.3,3.8-42.4,14.1-55.7,28.7c-15.6,17.1-1.8,51.1,2.1,56.1c7.4,9.3,16.5,18.6,27.8,24
				c10.8,5.2,20.2,4.9,28.3,5.5c6.1,0.4,33.4,3.5,49.4,0.1c11.3-2.4,30.5-5.9,36-8.6C399.2,275.4,411.8,272.1,423.8,262z"/>
			<path class="st134" d="M422.7,261.6c14.9-12.3,12.4-50.3,4.8-61.1c-9.9-14-20.6-21.9-29.8-26.4c-9-4.5-33.7-8.5-45.4-8.7
				c-16.1-0.2-32.3,3.7-45.6,7.3c-14.4,3.9-42.5,14.3-55.4,28.5c-15.1,16.5-2.3,49.8,2,55.2c7.3,9.1,15.8,18.4,27.3,23.7
				c10.8,5.1,20.2,4.5,28.1,5.2c6.1,0.5,32.6,4,48.8,0.7c11.6-2.4,30.1-6.3,35.5-9C398.1,274.4,410.8,271.5,422.7,261.6z"/>
			<path class="st135" d="M421.7,261.2c14.8-12,12.6-48.9,5-59.9c-9.8-14.2-20.6-21.6-29.8-26.2c-8.9-4.4-32.5-8.5-44.2-8.8
				c-15.8-0.3-32.2,3.4-45.5,7c-14.5,3.9-42.5,14.5-55,28.2c-14.6,15.9-2.8,48.5,1.9,54.4c7.1,8.8,15.1,18.1,26.8,23.4
				c10.8,4.9,20.1,4.2,27.8,4.9c6.1,0.6,31.7,4.6,48.1,1.3c11.8-2.4,29.7-6.8,35-9.4C397.1,273.5,409.7,270.9,421.7,261.2z"/>
			<path class="st136" d="M420.7,260.9c14.8-11.6,12.8-47.4,5.2-58.8c-9.7-14.5-20.5-21.4-29.7-25.9c-8.8-4.3-31.2-8.5-42.9-8.9
				c-15.5-0.5-32,3.1-45.4,6.7c-14.5,4-42.6,14.7-54.7,27.9c-14.1,15.4-3.2,47.2,1.8,53.5c6.9,8.6,14.4,17.8,26.3,23
				c10.8,4.7,20.1,3.8,27.6,4.6c6.1,0.7,30.8,5.2,47.5,1.9c12.1-2.4,29.3-7.2,34.4-9.8C396,272.5,408.6,270.4,420.7,260.9z"/>
			<path class="st137" d="M419.7,260.5c14.7-11.3,13-46,5.4-57.6c-9.6-14.8-20.5-21.1-29.7-25.6c-8.7-4.3-30-8.5-41.7-9
				c-15.2-0.7-31.9,2.8-45.2,6.5c-14.6,4-42.6,15-54.3,27.6c-13.7,14.8-3.7,45.9,1.7,52.6c6.7,8.3,13.7,17.6,25.8,22.7
				c10.8,4.6,20,3.4,27.3,4.3c6.1,0.7,30,5.8,46.9,2.5c12.3-2.4,28.9-7.7,33.9-10.2C394.9,271.6,407.5,269.8,419.7,260.5z"/>
			<path class="st138" d="M418.7,260.1c14.6-11,13.1-44.5,5.5-56.5c-9.5-15-20.5-20.9-29.7-25.4c-8.6-4.2-28.8-8.5-40.5-9.1
				c-14.9-0.8-31.7,2.5-45.1,6.2c-14.7,4.1-42.7,15.2-54,27.3c-13.2,14.2-4.2,44.7,1.6,51.8c6.5,8,13,17.4,25.2,22.4
				c10.8,4.4,20,3,27.1,3.9c6,0.8,29.1,6.4,46.2,3.1c12.6-2.4,28.5-8.1,33.4-10.6C393.9,270.6,406.4,269.3,418.7,260.1z"/>
			<path class="st139" d="M417.6,259.7c14.6-10.6,13.3-43,5.7-55.3c-9.4-15.2-20.4-20.6-29.6-25.1c-8.4-4.1-27.5-8.4-39.2-9.2
				c-14.6-1-31.6,2.2-45,6c-14.8,4.1-42.8,15.4-53.6,27c-12.7,13.6-4.6,43.4,1.5,50.9c6.4,7.8,12.3,17.1,24.7,22.1
				c10.8,4.3,19.9,2.6,26.8,3.6c6,0.9,28.3,6.9,45.6,3.7c12.9-2.4,28.1-8.6,32.9-11C392.8,269.7,405.4,268.7,417.6,259.7z"/>
			<path class="st140" d="M416.6,259.3c14.5-10.3,13.5-41.6,5.9-54.1c-9.3-15.5-20.4-20.4-29.6-24.8c-8.3-4-26.3-8.4-38-9.4
				c-14.3-1.1-31.4,1.9-44.9,5.7c-14.8,4.2-42.8,15.6-53.3,26.8c-12.2,13.1-5.1,42.1,1.4,50.1c6.2,7.5,11.6,16.9,24.2,21.7
				c10.8,4.1,19.9,2.2,26.6,3.3c6,1,27.4,7.5,45,4.3c13.1-2.4,27.8-9,32.4-11.4C391.7,268.7,404.3,268.1,416.6,259.3z"/>
			<path class="st141" d="M415.6,258.9c14.4-10,13.7-40.1,6.1-53c-9.3-15.7-20.3-20.1-29.6-24.5c-8.2-3.9-25.1-8.4-36.7-9.5
				c-14-1.3-31.3,1.6-44.7,5.5c-14.9,4.2-42.9,15.8-52.9,26.5c-11.7,12.5-5.6,40.8,1.3,49.2c6,7.3,10.9,16.6,23.7,21.4
				c10.8,4,19.8,1.9,26.3,3c6,1.1,26.5,8.1,44.3,4.8c13.4-2.4,27.4-9.5,31.9-11.8C390.7,267.7,403.2,267.5,415.6,258.9z"/>
			<path class="st142" d="M414.6,258.6c14.4-9.6,13.8-38.7,6.3-51.8c-9.2-16-20.3-19.9-29.6-24.3c-8.1-3.8-23.8-8.4-35.5-9.6
				c-13.7-1.4-31.1,1.3-44.6,5.2c-15,4.3-43,16-52.6,26.2c-11.2,11.9-6,39.5,1.2,48.3c5.8,7,10.2,16.4,23.2,21.1
				c10.8,3.9,19.8,1.5,26.1,2.7c6,1.2,25.7,8.7,43.7,5.4c13.6-2.4,27-9.9,31.4-12.2C389.6,266.8,402.1,266.9,414.6,258.6z"/>
			<path class="st143" d="M413.6,258.2c14.3-9.3,14-37.2,6.5-50.7c-9.1-16.2-20.2-19.6-29.5-24c-7.9-3.7-22.6-8.3-34.3-9.7
				c-13.4-1.6-31,1.1-44.5,4.9c-15.1,4.4-43,16.2-52.2,25.9c-10.7,11.3-6.5,38.2,1.1,47.5c5.6,6.8,9.5,16.2,22.7,20.7
				c10.8,3.7,19.7,1.1,25.8,2.4c5.9,1.2,24.8,9.3,43.1,6c13.9-2.4,26.6-10.4,30.8-12.6C388.5,265.8,401,266.4,413.6,258.2z"/>
			<path class="st144" d="M412.5,257.8c14.2-9,14.2-35.7,6.6-49.5c-9-16.4-20.2-19.4-29.5-23.7c-7.8-3.6-21.3-8.3-33-9.8
				c-13.1-1.7-30.8,0.8-44.4,4.7c-15.1,4.4-43.1,16.4-51.9,25.6c-10.3,10.8-7,37,1,46.6c5.4,6.5,8.7,15.9,22.2,20.4
				c10.8,3.6,19.7,0.8,25.5,2.1c5.9,1.3,24,9.9,42.5,6.6c14.1-2.4,26.2-10.8,30.3-13C387.4,264.9,399.9,265.8,412.5,257.8z"/>
			<path class="st145" d="M411.5,257.4c14.1-8.7,14.4-34.3,6.8-48.3c-8.9-16.7-20.1-19.1-29.5-23.5c-7.7-3.6-20.1-8.2-31.8-9.9
				c-12.7-1.8-30.7,0.5-44.2,4.4c-15.2,4.5-43.2,16.6-51.5,25.4c-9.8,10.2-7.4,35.7,0.9,45.7c5.2,6.3,8,15.7,21.7,20.1
				c10.8,3.5,19.6,0.4,25.3,1.8c5.9,1.4,23.1,10.4,41.8,7.2c14.4-2.4,25.8-11.3,29.8-13.5C386.4,263.9,398.8,265.2,411.5,257.4z"/>
			<path class="st146" d="M410.5,257c14.1-8.4,14.5-32.8,7-47.2c-8.8-16.9-20.1-18.9-29.4-23.2c-7.6-3.5-18.9-8.2-30.5-10
				c-12.4-2-30.5,0.2-44.1,4.2c-15.3,4.5-43.2,16.9-51.2,25.1c-9.3,9.6-7.9,34.4,0.8,44.9c5,6,7.3,15.5,21.2,19.8
				c10.8,3.3,19.6,0,25,1.5c5.9,1.5,22.2,11,41.2,7.8c14.6-2.5,25.4-11.8,29.3-13.9C385.3,263,397.7,264.6,410.5,257z"/>
			<path class="st147" d="M409.5,256.6c14-8.1,14.7-31.4,7.2-46c-8.7-17.1-20.1-18.6-29.4-22.9c-7.4-3.4-17.6-8.1-29.3-10.1
				c-12.1-2.1-30.4-0.1-44,3.9c-15.4,4.6-43.3,17.1-50.8,24.8c-8.8,9-8.4,33.1,0.7,44c4.8,5.8,6.6,15.3,20.7,19.4
				c10.8,3.2,19.5-0.3,24.8,1.2c5.9,1.6,21.4,11.6,40.6,8.4c14.9-2.5,25-12.2,28.8-14.3C384.2,262,396.6,264,409.5,256.6z"/>
			<path class="st148" d="M408.5,256.2c13.9-7.7,14.9-29.9,7.4-44.9c-8.7-17.4-20-18.4-29.4-22.6c-7.3-3.3-16.4-8.1-28.1-10.3
				c-11.8-2.2-30.2-0.4-43.9,3.7c-15.5,4.6-43.3,17.3-50.5,24.5c-8.3,8.5-8.9,31.8,0.6,43.2c4.6,5.5,5.9,15,20.2,19.1
				c10.8,3.1,19.5-0.7,24.5,0.8c5.8,1.7,20.5,12.2,39.9,9c15.2-2.5,24.6-12.7,28.3-14.7C383.2,261,395.6,263.4,408.5,256.2z"/>
			<path class="st149" d="M407.4,255.9c13.8-7.4,15-28.4,7.6-43.7c-8.6-17.6-20-18.2-29.4-22.4c-7.2-3.2-15.1-8-26.8-10.4
				c-11.5-2.3-30.1-0.7-43.7,3.4c-15.5,4.7-43.4,17.5-50.1,24.2c-7.8,7.9-9.3,30.6,0.5,42.3c4.4,5.3,5.2,14.8,19.7,18.8
				c10.8,2.9,19.4-1,24.3,0.5c5.8,1.8,19.7,12.8,39.3,9.6c15.4-2.5,24.2-13.1,27.8-15.1C382.1,260.1,394.5,262.8,407.4,255.9z"/>
			<path class="st150" d="M406.4,255.5c13.8-7.1,15.2-27,7.7-42.5c-8.5-17.8-19.9-17.9-29.3-22.1c-7.1-3.1-13.9-8-25.6-10.5
				c-11.2-2.4-29.9-1-43.6,3.1c-15.6,4.7-43.5,17.7-49.8,23.9c-7.4,7.3-9.8,29.3,0.4,41.4c4.2,5,4.5,14.6,19.1,18.5
				c10.7,2.8,19.4-1.4,24,0.2c5.8,2,18.8,13.3,38.7,10.2c15.7-2.5,23.8-13.6,27.2-15.5C381,259.1,393.4,262.2,406.4,255.5z"/>
			<path class="st151" d="M405.4,255.1c13.7-6.8,15.3-25.5,7.9-41.4c-8.5-18.1-19.9-17.7-29.3-21.8c-6.9-3.1-12.7-7.9-24.3-10.6
				c-10.9-2.5-29.8-1.3-43.5,2.9c-15.7,4.8-43.5,17.9-49.4,23.7c-6.9,6.7-10.3,28,0.3,40.6c4,4.8,3.8,14.4,18.6,18.1
				c10.7,2.7,19.3-1.7,23.8-0.1c5.8,2.1,17.9,13.9,38,10.7c15.9-2.5,23.4-14,26.7-15.9C379.9,258.1,392.3,261.6,405.4,255.1z"/>
			<path class="st152" d="M404.4,254.7c13.6-6.5,15.5-24,8.1-40.2c-8.4-18.3-19.8-17.4-29.3-21.5c-6.8-3-11.5-7.8-23.1-10.7
				c-10.7-2.7-29.6-1.6-43.4,2.6c-15.8,4.8-43.6,18.1-49,23.4c-6.4,6.2-10.8,26.8,0.2,39.7c3.8,4.5,3.1,14.2,18.1,17.8
				c10.7,2.6,19.3-2,23.5-0.4c5.7,2.2,17.1,14.5,37.4,11.3c16.2-2.5,23-14.5,26.2-16.3C378.9,257.2,391.2,261,404.4,254.7z"/>
			<path class="st153" d="M403.4,254.3c13.5-6.2,15.7-22.6,8.3-39.1c-8.3-18.5-19.8-17.2-29.2-21.3c-6.7-2.9-10.2-7.7-21.8-10.8
				c-10.4-2.8-29.5-1.9-43.3,2.4c-15.8,4.9-43.7,18.3-48.7,23.1c-5.9,5.6-11.3,25.5,0.1,38.9c3.6,4.3,2.4,14,17.6,17.5
				c10.7,2.5,19.2-2.4,23.3-0.7c5.7,2.3,16.2,15.1,36.8,11.9c16.4-2.5,22.6-15,25.7-16.7C377.8,256.2,390.1,260.4,403.4,254.3z"/>
			<path class="st108" d="M402.3,253.9c13.4-5.9,15.8-21.1,8.5-37.9c-8.2-18.8-19.7-16.9-29.2-21c-6.6-2.8-9-7.6-20.6-10.9
				c-10.1-2.8-29.3-2.2-43.1,2.1c-15.9,4.9-43.7,18.5-48.3,22.8c-5.4,5-11.7,24.2,0,38c3.5,4,1.7,13.8,17.1,17.1
				c10.7,2.3,19.1-2.7,23-1c5.6,2.5,15.4,15.7,36.1,12.5c16.7-2.5,22.2-15.4,25.2-17.1C376.7,255.3,389,259.8,402.3,253.9z"/>
		</g>
		<path class="st111" d="M384.4,190.8c-0.7,0-1.4,0-2.2,0.1c-3.9-11-14.3-18.9-26.7-18.9c-3.7,0-7.2,0.7-10.4,2
			c-3.8-10.5-13.9-18.1-25.8-18.1c-11.5,0-21.4,7.1-25.4,17.2c-1.4-0.2-2.7-0.4-4.2-0.4c-12.5,0-22.7,9.4-24,21.6
			c-1.7-0.4-3.5-0.5-5.4-0.5c-15,0-27.2,12.2-27.2,27.2c0,15,12.2,27.2,27.2,27.2c0.2,0,0.5,0,0.7,0c2.6,11,12.5,19.1,24.3,19.1
			c9.1,0,17.1-4.9,21.5-12.2c6,10.2,17,17.1,29.7,17.1c14,0,26.1-8.4,31.4-20.4c4.8,2.8,10.3,4.3,16.3,4.3c18,0,32.6-14.6,32.6-32.6
			S402.4,190.8,384.4,190.8z"/>
		<path class="st203" d="M385.5,191.9c-0.7,0-1.4,0-2.2,0.1c-3.9-11-14.3-18.9-26.6-18.9c-3.7,0-7.2,0.7-10.4,2
			c-3.8-10.6-13.9-18.1-25.8-18.1c-11.6,0-21.4,7.1-25.5,17.3c-1.4-0.2-2.7-0.4-4.1-0.4c-12.5,0-22.7,9.4-24,21.6
			c-1.7-0.3-3.5-0.5-5.4-0.5c-15,0-27.2,12.2-27.2,27.2c0,15,12.2,27.2,27.2,27.2c0.2,0,0.5,0,0.7,0c2.7,11,12.5,19.2,24.3,19.2
			c9.1,0,17.1-4.9,21.5-12.2c6,10.2,17,17.1,29.7,17.1c14,0,26.1-8.4,31.4-20.4c4.8,2.8,10.3,4.3,16.2,4.3c18,0,32.6-14.6,32.6-32.6
			S403.6,191.9,385.5,191.9z"/>
	</g>
	<g>
		<g class="st132">
			<path class="st133" d="M398.3,204.4c18.8-19.5,17.5-59.4,7.1-73.6c-13.6-18.7-30.2-25.6-42.6-31.8c-12.5-6.2-30.6-12-46.4-14.4
				c-19.5-2.9-41,5.5-59,10.3c-19.5,5.2-79.5,25.5-97.6,45.3c-10,11-12.5,25.3-11,38.4c1.7,14.7,8.2,27.9,11,31.5
				c10.1,12.7,47.1,25.4,62.5,32.8c14.8,7.1,27.5,6.7,38.6,7.5c8.4,0.6,31.7,0,53.4-4.6c15.4-3.2,30.7-15.2,38.2-18.9
				C359.5,223.5,384.1,219.1,398.3,204.4z"/>
			<path class="st134" d="M395.5,202.9c18.5-18.8,17.6-57.6,7.4-71.8c-13.3-18.5-29.5-25-41.8-31.1c-12.2-6.1-29.5-11.8-45.2-14.3
				c-19-3-40,5-57.9,9.9c-19.3,5.2-79.7,25.4-97.3,44.4c-10,10.8-12.5,24.9-10.8,37.9c1.9,14.4,8.9,27,12,30.6
				c10.3,11.8,45.5,24.8,60.9,32c14.6,6.8,27.1,5.7,37.8,6.5c8.2,0.7,30.7,1,52.8-3.6c15.5-3.3,30.1-15.5,37.3-19
				C357.6,221,381.3,217.3,395.5,202.9z"/>
			<path class="st135" d="M392.7,201.5c18.4-18.1,17.6-55.8,7.6-69.9c-13-18.2-28.9-24.4-41.1-30.4c-11.9-5.9-28.3-11.5-44-14.1
				c-18.6-3.1-39,4.6-56.8,9.5c-19.1,5.3-79.9,25.4-97,43.5c-10,10.5-12.5,24.6-10.5,37.3c2.1,14.2,9.6,26.1,12.9,29.7
				c10.4,10.9,43.8,24.2,59.3,31.3c14.4,6.6,26.7,4.6,37,5.5c8.1,0.7,29.7,2.1,52.2-2.7c15.5-3.3,29.5-15.7,36.5-19.2
				C355.7,218.5,378.6,215.5,392.7,201.5z"/>
			<path class="st136" d="M389.9,200.1c18.1-17.5,17.7-54,7.8-68c-12.7-17.9-28.2-23.8-40.3-29.7c-11.7-5.8-27.2-11.3-42.9-14
				c-18.1-3.1-38,4.2-55.7,9.1c-19,5.3-80,25.4-96.7,42.5c-10,10.3-12.5,24.3-10.3,36.8c2.4,13.9,10.2,25.2,13.9,28.8
				c10.4,10.1,42.2,23.6,57.6,30.5c14.2,6.3,26.2,3.6,36.2,4.6c8,0.8,28.8,3.2,51.7-1.8c15.6-3.4,28.9-16,35.7-19.4
				C353.8,216.1,375.8,213.7,389.9,200.1z"/>
			<path class="st137" d="M387.1,198.7c17.9-16.8,17.7-52.2,8-66.1c-12.4-17.7-27.6-23.2-39.5-29c-11.4-5.6-26-11.1-41.7-13.9
				c-17.6-3.2-37,3.7-54.6,8.7c-18.8,5.3-80.2,25.3-96.4,41.6c-10,10-12.4,24-10.1,36.3c2.6,13.6,10.9,24.3,14.8,27.9
				c10.3,9.3,40.5,23,56,29.7c14.1,6.1,25.8,2.5,35.4,3.6c7.9,0.9,27.8,4.3,51.1-0.9c15.7-3.4,28.3-16.3,34.9-19.6
				C351.9,213.6,373.1,211.9,387.1,198.7z"/>
			<path class="st138" d="M384.3,197.2c17.7-16.2,17.8-50.3,8.3-64.2c-12.1-17.4-27-22.6-38.8-28.3C342.7,99.3,329,94,313.3,91
				c-17.2-3.2-36,3.3-53.4,8.3c-18.7,5.4-80.4,25.3-96.1,40.6c-10,9.8-12.4,23.7-9.8,35.7c2.8,13.4,11.5,23.4,15.8,26.9
				c10.2,8.6,38.9,22.4,54.3,29c13.9,5.9,25.4,1.5,34.7,2.6c7.8,0.9,26.8,5.4,50.5,0.1c15.7-3.5,27.7-16.6,34.1-19.8
				C350,211.1,370.3,210,384.3,197.2z"/>
			<path class="st139" d="M381.5,195.8c17.5-15.5,17.8-48.6,8.5-62.3c-11.7-17.2-26.3-21.9-38-27.6c-10.8-5.3-23.7-10.6-39.3-13.6
				c-16.7-3.3-35,2.9-52.3,7.9c-18.5,5.4-80.7,25.2-95.8,39.7c-10,9.6-12.4,23.4-9.6,35.2c3.1,13.1,12.2,22.5,16.8,26
				c10,7.9,37.2,21.9,52.7,28.2c13.7,5.6,24.9,0.5,33.9,1.7c7.6,1,25.8,6.4,49.9,1c15.8-3.5,27.1-16.9,33.3-20
				C348.1,208.6,367.5,208.2,381.5,195.8z"/>
			<path class="st140" d="M378.7,194.4c17.3-14.8,17.9-46.7,8.7-60.4c-11.4-17-25.7-21.3-37.2-26.9c-10.6-5.1-22.5-10.3-38.2-13.5
				c-16.3-3.3-34,2.4-51.2,7.5c-18.3,5.4-80.9,25.1-95.5,38.8c-10,9.3-12.3,23.1-9.3,34.6c3.3,12.9,12.8,21.5,17.7,25.1
				c9.8,7.2,35.5,21.3,51,27.5c13.5,5.4,24.5-0.6,33.1,0.7c7.5,1.1,24.8,7.5,49.3,1.9c15.9-3.6,26.5-17.1,32.4-20.2
				C346.2,206.1,364.7,206.4,378.7,194.4z"/>
			<path class="st141" d="M375.9,193c17-14.2,18-44.9,8.9-58.5c-11.1-16.7-25.1-20.7-36.5-26.2c-10.3-4.9-21.4-10.1-37-13.4
				c-15.8-3.4-33,2-50.1,7.1c-18.2,5.4-81.1,25-95.1,37.8c-10,9.1-12.3,22.7-9.1,34.1c3.5,12.6,13.4,20.6,18.7,24.2
				c9.6,6.6,33.9,20.7,49.4,26.7c13.4,5.2,24-1.6,32.3-0.3c7.4,1.2,23.9,8.6,48.7,2.8c15.9-3.7,25.9-17.4,31.6-20.4
				C344.3,203.7,362,204.6,375.9,193z"/>
			<path class="st142" d="M373.1,191.6c16.8-13.5,18-43.1,9.1-56.6c-10.8-16.4-24.4-20.1-35.7-25.5c-10-4.8-20.2-9.8-35.8-13.3
				c-15.3-3.4-32,1.5-49,6.7c-18,5.5-81.4,25-94.8,36.9c-10,8.8-12.3,22.4-8.8,33.6c3.8,12.3,13.5,20.8,19.6,23.3
				c8.1,7.5,32.2,20.1,47.8,26c13.2,4.9,23.6-2.6,31.6-1.2c7.3,1.3,22.9,9.7,48.1,3.7c16-3.7,25.2-17.7,30.8-20.6
				C342.4,201.2,359.2,202.7,373.1,191.6z"/>
			<path class="st143" d="M370.3,190.1c16.6-12.9,18.1-41.3,9.4-54.7c-10.5-16.2-23.8-19.5-34.9-24.7c-9.8-4.6-19.1-9.6-34.7-13.2
				c-14.9-3.4-31,1.1-47.9,6.3c-17.9,5.5-81.6,24.9-94.5,35.9c-10,8.6-12.3,22.1-8.6,33c4,12.1,14.1,20,20.6,22.4
				c7.9,6.9,30.6,19.5,46.1,25.2c13,4.7,23.2-3.6,30.8-2.2c7.2,1.3,21.9,10.7,47.5,4.7c16.1-3.8,24.6-18,30-20.8
				C340.5,198.7,356.4,200.9,370.3,190.1z"/>
			<path class="st144" d="M367.5,188.7c16.3-12.2,18.1-39.5,9.6-52.8c-10.2-15.9-23.1-18.9-34.1-24c-9.5-4.5-17.9-9.3-33.5-13
				c-14.4-3.5-30,0.7-46.8,5.9c-17.7,5.5-81.9,24.8-94.2,35c-10,8.3-12.2,21.8-8.4,32.5c4.2,11.8,14.6,19.2,21.5,21.5
				c7.7,6.4,28.9,19,44.5,24.4c12.8,4.5,22.7-4.6,30-3.2c7.1,1.4,20.9,11.8,46.9,5.6c16.1-3.8,24-18.3,29.2-21
				C338.6,196.2,353.6,199.1,367.5,188.7z"/>
			<path class="st145" d="M364.7,187.3c16.1-11.6,18.2-37.7,9.8-50.9c-9.9-15.7-22.5-18.2-33.4-23.3c-9.2-4.3-16.8-9-32.3-12.9
				c-14-3.5-29,0.2-45.6,5.5c-17.5,5.6-82.2,24.6-93.9,34c-10,8.1-12.2,21.5-8.1,31.9c4.5,11.5,15.2,18.4,22.5,20.6
				c7.5,5.8,27.2,18.4,42.8,23.7c12.6,4.3,22.3-5.7,29.2-4.1c6.9,1.5,19.9,12.9,46.3,6.5c16.2-3.9,23.4-18.6,28.3-21.2
				C336.7,193.7,350.9,197.3,364.7,187.3z"/>
			<path class="st146" d="M361.9,185.9c15.8-11,18.2-35.9,10-49c-9.6-15.4-21.9-17.6-32.6-22.6c-8.9-4.1-15.6-8.8-31.1-12.8
				c-13.5-3.5-28-0.2-44.5,5.2c-17.4,5.6-82.5,24.5-93.6,33.1c-10.1,7.8-12.2,21.2-7.9,31.4c4.7,11.3,15.8,17.6,23.4,19.6
				c7.2,5.2,25.6,17.8,41.2,22.9c12.5,4.1,21.8-6.7,28.5-5.1c6.8,1.6,19,14,45.7,7.4c16.2-3.9,22.8-18.9,27.5-21.4
				C334.8,191.3,348.1,195.4,361.9,185.9z"/>
			<path class="st147" d="M359.1,184.4c15.6-10.3,18.3-34.1,10.3-47.1c-9.3-15.2-21.2-17-31.8-21.9c-8.7-4-14.5-8.5-30-12.7
				c-13.1-3.5-27-0.6-43.4,4.8c-17.2,5.6-82.8,24.4-93.3,32.2c-10.1,7.5-12.1,20.9-7.6,30.9c4.9,11,16.8,15.4,24.4,18.7
				c7.7,3.4,23.9,17.3,39.6,22.2c12.3,3.8,21.4-7.7,27.7-6.1c6.7,1.7,18,15.1,45.1,8.4c16.3-4,22.2-19.1,26.7-21.6
				C332.9,188.8,345.3,193.6,359.1,184.4z"/>
			<path class="st148" d="M356.3,183c15.3-9.7,18.3-32.3,10.5-45.2c-9-14.9-20.6-16.4-31.1-21.2c-8.4-3.8-13.4-8.2-28.8-12.6
				c-12.6-3.5-26-1.1-42.3,4.4c-17,5.7-83.1,24.2-92.9,31.2c-10.2,7.2-12.1,20.6-7.4,30.3c5.2,10.7,17.4,14.7,25.3,17.8
				c7.3,2.9,22.2,16.7,37.9,21.4c12.1,3.6,21-8.7,26.9-7c6.6,1.8,17,16.1,44.5,9.3c16.4-4,21.6-19.4,25.9-21.7
				C331,186.3,342.5,191.7,356.3,183z"/>
			<path class="st149" d="M353.5,181.6c15.1-9.1,18.4-30.4,10.7-43.3c-8.7-14.6-19.9-15.8-30.3-20.5c-8.1-3.7-12.2-7.9-27.6-12.4
				c-12.2-3.6-25-1.5-41.2,4c-16.9,5.7-83.4,24-92.6,30.3c-10.2,6.9-12.1,20.2-7.1,29.8c5.4,10.5,17.9,13.9,26.3,16.9
				c7,2.5,20.6,16.2,36.3,20.7c11.9,3.4,20.5-9.7,26.1-8c6.5,1.9,16,17.2,43.9,10.2c16.4-4.1,21-19.7,25.1-21.9
				C329.1,183.8,339.7,189.9,353.5,181.6z"/>
			<path class="st150" d="M350.7,180.2c14.8-8.5,18.4-28.6,10.9-41.4c-8.4-14.4-19.3-15.2-29.5-19.8c-7.8-3.5-11.1-7.6-26.5-12.3
				c-11.7-3.6-23.9-2-40.1,3.6c-16.7,5.7-83.8,23.9-92.3,29.3c-10.3,6.6-12,19.9-6.9,29.2c5.6,10.2,18.4,13.2,27.2,16
				c6.6,2.1,18.9,15.6,34.6,19.9c11.7,3.2,20.1-10.7,25.4-9c6.3,2,15,18.3,43.3,11.1c16.5-4.1,20.4-20,24.3-22.1
				C327.2,181.3,336.9,188,350.7,180.2z"/>
			<path class="st151" d="M347.8,178.7c14.6-7.9,18.4-26.8,11.2-39.5c-8.1-14.1-18.7-14.6-28.8-19.1c-7.6-3.4-9.9-7.3-25.3-12.2
				c-11.3-3.6-22.9-2.4-39,3.2c-16.6,5.8-84.1,23.6-92,28.4c-10.4,6.3-12,19.6-6.7,28.7c5.9,10,18.9,12.6,28.2,15.1
				c6.3,1.7,17.2,15,33,19.1c11.5,3,19.6-11.7,24.6-10c6.2,2.1,14.1,19.4,42.8,12.1c16.6-4.2,19.7-20.3,23.4-22.3
				C325.3,178.8,334.1,186.2,347.8,178.7z"/>
			<path class="st152" d="M345,177.3c14.3-7.3,18.5-25,11.4-37.6c-7.8-13.9-18-14-28-18.4c-7.3-3.2-8.8-7-24.1-12.1
				c-10.8-3.6-21.9-2.8-37.9,2.8c-16.4,5.8-84.5,23.4-91.7,27.4c-10.5,5.9-12,19.3-6.4,28.1c6.1,9.7,19.5,12.1,29.1,14.2
				c6,1.3,15.6,14.5,31.3,18.4c11.4,2.8,19.2-12.6,23.8-10.9c6.1,2.3,13.1,20.4,42.2,13c16.6-4.3,19.1-20.6,22.6-22.5
				C323.4,176.4,331.3,184.3,345,177.3z"/>
			<path class="st153" d="M342.2,175.9c14-6.7,18.5-23.2,11.6-35.7c-7.5-13.6-17.4-13.4-27.2-17.6c-7-3-7.7-6.7-22.9-11.9
				c-10.4-3.6-20.9-3.3-36.7,2.4c-16.2,5.8-84.8,23.2-91.4,26.5c-10.7,5.4-12,19-6.2,27.6c6.3,9.4,20,11.6,30.1,13.3
				c5.7,1,13.9,14,29.7,17.6c11.2,2.6,18.7-13.6,23-11.9c5.9,2.4,12.1,21.5,41.6,13.9c16.7-4.3,18.5-20.9,21.8-22.7
				C321.5,173.9,328.5,182.4,342.2,175.9z"/>
			<path class="st108" d="M339.4,174.5c13.8-6.1,18.6-21.4,11.8-33.9c-7.2-13.3-16.7-12.8-26.4-16.9c-6.7-2.9-6.5-6.4-21.8-11.8
				c-10-3.5-19.9-3.7-35.6,2c-16.1,5.8-85.2,22.9-91.1,25.6c-10.8,4.9-11.9,18.7-5.9,27.1c6.6,9.2,20.5,11.2,31,12.3
				c5.4,0.6,12.2,13.4,28.1,16.9c11,2.4,18.3-14.6,22.3-12.9c5.8,2.5,11.1,22.6,41,14.8c16.8-4.4,17.9-21.2,21-22.9
				C319.6,171.4,325.7,180.5,339.4,174.5z"/>
		</g>
		<path class="st111" d="M357.7,124.8c-1.5,0-2.9,0.1-4.4,0.3c-5.5-16.2-20.8-27.8-38.8-27.8c-8.3,0-16.1,2.5-22.5,6.7
			c-4.4-12.1-16.1-20.8-29.7-20.8c-15.4,0-28.3,11-31.1,25.6c-4.4-3.2-9.8-5.2-15.6-5.2c-13.4,0-24.4,10-26,23c-0.1,0-0.1,0-0.2,0
			c-20.8,0-37.7,16.9-37.7,37.7c0,20.8,16.9,37.7,37.7,37.7c6.6,0,12.9-1.7,18.3-4.7c2,13.1,13.2,23.1,26.8,23.1
			c10.8,0,20.1-6.2,24.4-15.3c8.3,12.2,22.3,20.2,38.2,20.2c20.5,0,37.9-13.4,43.9-31.8c5,2.6,10.6,4,16.6,4
			c20.1,0,36.3-16.3,36.3-36.3C394,141.1,377.8,124.8,357.7,124.8z"/>
		<path class="st204" d="M358.8,125.8c-1.5,0-3,0.1-4.4,0.3c-5.5-16.2-20.8-27.8-38.8-27.8c-8.3,0-16.1,2.5-22.5,6.8
			c-4.4-12.1-16.1-20.8-29.7-20.8c-15.4,0-28.2,11-31.1,25.6c-4.4-3.2-9.8-5.2-15.6-5.2c-13.4,0-24.4,10-26,23c-0.1,0-0.1,0-0.2,0
			c-20.8,0-37.7,16.9-37.7,37.7c0,20.8,16.9,37.7,37.7,37.7c6.6,0,12.9-1.7,18.3-4.7c2,13.1,13.2,23.1,26.8,23.1
			c10.8,0,20.1-6.2,24.4-15.3c8.3,12.2,22.3,20.2,38.2,20.2c20.5,0,37.9-13.4,43.9-31.8c5,2.6,10.6,4,16.6,4
			c20.1,0,36.3-16.3,36.3-36.3S378.9,125.8,358.8,125.8z"/>
	</g>
	<g>
		<g class="st132">
			<path class="st133" d="M273.1,265.6c9.8-14.5,5-41.4-1.8-50.8c-9-12.3-20.7-17.8-28.9-21.9c-8.2-4.1-26.1-11.4-36.6-11.4
				c-14.7,0-22.2,5.4-34,8.6c-12.8,3.4-34.6,23.4-46.6,36.5c-14,15.3-10.4,38.4-6.9,42.9c6.7,8.4,14.8,16.7,24.9,21.5
				c9.7,4.7,18.2,4.4,25.4,4.9c5.5,0.4,11.9,3.1,26.2,0.1c10.2-2.1,15-2.9,20.2-4.6C226.2,288.1,261.2,283.2,273.1,265.6z"/>
			<path class="st134" d="M271.1,265c9.8-14,5.6-40-1.1-49.5c-8.8-12.4-20.6-17.5-28.8-21.6c-8-4-25.5-11.5-35.8-11.6
				c-14.3-0.1-22.1,5.1-33.8,8.3c-12.7,3.4-34,23.2-45.6,35.9c-13.5,14.8-10.8,37.3-7,42c6.5,8.1,14.3,16.3,24.5,20.9
				c9.8,4.5,18,3.9,25.1,4.5c5.4,0.4,11.9,3.1,26.2,0.2c10.2-2.1,15.1-3,20.2-4.5C225.6,286.3,259.3,281.9,271.1,265z"/>
			<path class="st135" d="M269,264.3c9.7-13.6,6.2-38.6-0.4-48.2c-8.7-12.4-20.6-17.2-28.6-21.2c-7.9-3.9-24.8-11.6-35.1-11.7
				c-13.9-0.2-22,4.8-33.6,7.9c-12.7,3.4-33.5,23-44.6,35.2c-13,14.2-11.2,36.1-7.2,41.1c6.3,7.8,13.9,15.9,24.1,20.3
				c9.9,4.2,17.9,3.4,24.7,4c5.4,0.5,11.8,3.1,26.1,0.2c10.3-2.1,15.3-3.1,20.2-4.5C225,284.6,257.4,280.6,269,264.3z"/>
			<path class="st136" d="M267,263.7c9.7-13.1,6.8-37.2,0.2-46.9c-8.5-12.4-20.5-16.9-28.5-20.8c-7.7-3.8-24.2-11.7-34.3-11.9
				c-13.6-0.4-21.9,4.4-33.4,7.6c-12.6,3.4-32.9,22.8-43.7,34.5c-12.5,13.6-11.5,35-7.3,40.2c6.1,7.5,13.4,15.5,23.7,19.7
				c9.9,4,17.8,2.9,24.4,3.6c5.3,0.5,11.8,3.1,26.1,0.3c10.3-2.1,15.4-3.2,20.2-4.4C224.5,282.8,255.5,279.3,267,263.7z"/>
			<path class="st137" d="M265,263.1c9.6-12.6,7.4-35.9,0.9-45.6c-8.3-12.5-20.4-16.6-28.3-20.5c-7.5-3.7-23.5-11.7-33.6-12.1
				c-13.2-0.5-21.8,4.1-33.2,7.2c-12.5,3.4-32.4,22.6-42.7,33.8c-12,13.1-11.9,33.9-7.4,39.4c5.9,7.3,13,15.1,23.3,19.1
				c10,3.8,17.6,2.5,24,3.2c5.2,0.6,11.7,3.1,26,0.3c10.4-2,15.6-3.3,20.2-4.4C223.9,281,253.5,278,265,263.1z"/>
			<path class="st138" d="M263,262.4c9.6-12.1,8-34.5,1.6-44.4c-8.1-12.5-20.4-16.4-28.2-20.1c-7.3-3.6-22.9-11.8-32.8-12.3
				c-12.8-0.6-21.7,3.8-33,6.9c-12.4,3.4-31.8,22.4-41.7,33.1c-11.5,12.5-12.2,32.8-7.6,38.5c5.7,7,12.6,14.7,22.9,18.4
				c10.1,3.6,17.5,2,23.6,2.7c5.1,0.6,11.7,3.1,26,0.3c10.5-2,15.7-3.4,20.2-4.3C223.4,279.3,251.6,276.7,263,262.4z"/>
			<path class="st139" d="M260.9,261.8c9.5-11.6,8.6-33.1,2.2-43.1c-8-12.5-20.3-16-28-19.8c-7.2-3.5-22.3-11.9-32-12.4
				c-12.5-0.7-21.6,3.4-32.8,6.6c-12.3,3.4-31.3,22.2-40.8,32.4c-11,11.9-12.6,31.7-7.7,37.6c5.5,6.7,12.1,14.3,22.5,17.8
				c10.1,3.4,17.4,1.5,23.3,2.3c5.1,0.7,11.6,3.2,25.9,0.4c10.5-2,15.9-3.5,20.2-4.3C222.8,277.5,249.7,275.4,260.9,261.8z"/>
			<path class="st140" d="M258.9,261.1c9.5-11.1,9.2-31.7,2.9-41.8c-7.8-12.6-20.2-15.7-27.9-19.4c-7-3.4-21.6-12-31.3-12.6
				c-12.1-0.8-21.5,3.1-32.6,6.2c-12.2,3.4-30.7,22-39.8,31.7c-10.6,11.4-12.9,30.5-7.9,36.7c5.3,6.5,11.7,13.9,22.1,17.2
				c10.2,3.2,17.2,1,22.9,1.8c5,0.7,11.6,3.2,25.9,0.4c10.6-2,16-3.6,20.2-4.2C222.2,275.8,247.8,274.1,258.9,261.1z"/>
			<path class="st141" d="M256.9,260.5c9.5-10.7,9.8-30.3,3.6-40.5c-7.7-12.6-20.2-15.5-27.7-19.1c-6.8-3.3-21-12-30.5-12.8
				c-11.7-0.9-21.4,2.8-32.4,5.9c-12.1,3.4-30.2,21.8-38.8,31c-10.1,10.8-13.3,29.4-8,35.9c5.1,6.2,11.2,13.5,21.7,16.6
				c10.3,3,17.1,0.5,22.6,1.4c4.9,0.8,11.5,3.2,25.8,0.5c10.7-2,16.2-3.7,20.2-4.2C221.7,274,245.9,272.8,256.9,260.5z"/>
			<path class="st142" d="M254.8,259.9c9.5-10.2,10.4-28.9,4.2-39.2c-7.5-12.6-20.1-15.2-27.6-18.7c-6.6-3.2-20.3-12.1-29.8-12.9
				c-11.4-1-21.3,2.5-32.2,5.5c-12,3.4-29.6,21.6-37.9,30.3c-9.6,10.2-13.7,28.3-8.2,35c4.9,5.9,10.8,13.1,21.3,16
				c10.4,2.8,17,0.1,22.2,1c4.8,0.8,11.5,3.2,25.8,0.5c10.7-1.9,16.3-3.7,20.2-4.2C221.1,272.3,244,271.5,254.8,259.9z"/>
			<path class="st143" d="M252.8,259.2c9.4-9.7,11-27.5,4.9-37.9c-7.3-12.7-20-14.9-27.4-18.4c-6.5-3.1-19.7-12.2-29-13.1
				c-11-1.1-21.2,2.1-32,5.2c-12,3.4-29.1,21.4-36.9,29.6c-9.1,9.7-14,27.2-8.3,34.1c4.7,5.7,10.4,12.7,20.9,15.4
				c10.4,2.6,16.8-0.4,21.9,0.5c4.8,0.9,11.4,3.2,25.7,0.6c10.8-1.9,16.4-3.8,20.1-4.1C220.5,270.5,242.1,270.3,252.8,259.2z"/>
			<path class="st144" d="M250.8,258.6c9.4-9.2,11.5-26.1,5.6-36.7c-7.2-12.7-19.9-14.6-27.3-18c-6.3-3-19-12.2-28.2-13.3
				c-10.6-1.2-21.1,1.8-31.8,4.9c-11.9,3.4-28.5,21.2-35.9,28.9c-8.6,9.1-14.4,26.1-8.5,33.2c4.5,5.4,9.9,12.3,20.5,14.7
				c10.5,2.4,16.7-0.9,21.5,0.1c4.7,1,11.3,3.2,25.7,0.6c10.9-1.9,16.6-3.9,20.1-4.1C220,268.7,240.2,269,250.8,258.6z"/>
			<path class="st145" d="M248.8,257.9c9.4-8.7,12.1-24.7,6.3-35.4c-7-12.7-19.9-14.3-27.1-17.7c-6.1-2.9-18.4-12.3-27.5-13.5
				c-10.2-1.3-21.1,1.5-31.6,4.5c-11.8,3.4-28,20.9-35,28.2c-8.1,8.6-14.7,25-8.6,32.4c4.3,5.1,9.5,11.9,20.1,14.1
				c10.6,2.2,16.6-1.4,21.2-0.3c4.6,1,11.3,3.2,25.6,0.7c10.9-1.9,16.7-4,20.1-4C219.4,266.9,238.3,267.7,248.8,257.9z"/>
			<path class="st146" d="M246.7,257.3c9.4-8.2,12.7-23.3,6.9-34.1c-6.9-12.7-19.8-14-27-17.3c-5.9-2.8-17.7-12.4-26.7-13.6
				c-9.9-1.4-21,1.1-31.4,4.2c-11.7,3.4-27.5,20.7-34,27.6c-7.6,8-15.1,23.8-8.8,31.5c4.1,4.9,9,11.6,19.7,13.5
				c10.7,2,16.4-1.8,20.8-0.8c4.5,1.1,11.2,3.2,25.6,0.7c11-1.9,16.9-4.1,20.1-4C218.9,265.2,236.4,266.4,246.7,257.3z"/>
			<path class="st147" d="M244.7,256.7c9.3-7.7,13.3-22,7.6-32.8c-6.7-12.8-19.7-13.7-26.8-17c-5.8-2.7-17.1-12.4-26-13.8
				c-9.5-1.5-20.9,0.8-31.2,3.8c-11.6,3.4-26.9,20.5-33,26.9c-7.1,7.4-15.5,22.7-8.9,30.6c3.8,4.6,8.6,11.2,19.3,12.9
				c10.7,1.7,16.3-2.3,20.5-1.2c4.5,1.1,11.2,3.2,25.5,0.8c11.1-1.9,17-4.2,20.1-3.9C218.3,263.4,234.5,265.1,244.7,256.7z"/>
			<path class="st148" d="M242.7,256c9.3-7.2,13.9-20.6,8.3-31.5c-6.6-12.8-19.6-13.4-26.7-16.6c-5.6-2.6-16.5-12.5-25.2-14
				c-9.1-1.6-20.8,0.5-31,3.5c-11.5,3.4-26.4,20.3-32.1,26.2c-6.7,6.9-15.8,21.6-9.1,29.7c3.6,4.4,8.2,10.8,18.9,12.3
				c10.8,1.5,16.2-2.8,20.1-1.7c4.4,1.2,11.1,3.2,25.5,0.8c11.1-1.8,17.2-4.3,20.1-3.9C217.7,261.7,232.6,263.8,242.7,256z"/>
			<path class="st149" d="M240.7,255.4c9.3-6.7,14.5-19.2,8.9-30.2c-6.4-12.8-19.6-13.1-26.5-16.3c-5.4-2.4-15.8-12.5-24.4-14.1
				c-8.8-1.6-20.7,0.2-30.8,3.2c-11.4,3.4-25.8,20.1-31.1,25.5c-6.2,6.3-16.2,20.5-9.2,28.9c3.4,4.1,7.7,10.4,18.5,11.7
				c10.9,1.3,16-3.2,19.8-2.1c4.3,1.3,11.1,3.2,25.4,0.8c11.2-1.8,17.3-4.4,20.1-3.8C217.2,259.9,230.7,262.6,240.7,255.4z"/>
			<path class="st150" d="M238.6,254.7c9.3-6.2,15-17.8,9.6-28.9c-6.3-12.9-19.5-12.8-26.3-15.9c-5.2-2.3-15.2-12.6-23.7-14.3
				c-8.4-1.7-20.6-0.2-30.6,2.8c-11.3,3.4-25.3,19.9-30.1,24.8c-5.7,5.7-16.6,19.4-9.4,28c3.2,3.8,7.3,10,18.1,11
				c11,1.1,15.9-3.7,19.4-2.5c4.2,1.4,11,3.2,25.4,0.9c11.3-1.8,17.4-4.5,20.1-3.8C216.6,258.2,228.8,261.3,238.6,254.7z"/>
			<path class="st151" d="M236.6,254.1c9.3-5.7,15.6-16.4,10.3-27.7c-6.1-12.9-19.4-12.6-26.2-15.5c-5.1-2.3-14.5-12.6-22.9-14.5
				c-8-1.8-20.5-0.5-30.4,2.5c-11.3,3.4-24.7,19.7-29.1,24.1c-5.2,5.2-16.9,18.3-9.5,27.1c3,3.6,6.9,9.6,17.7,10.4
				c11,0.9,15.8-4.1,19.1-3c4.2,1.4,11,3.2,25.3,0.9c11.3-1.8,17.6-4.6,20.1-3.8C216,256.4,226.9,260,236.6,254.1z"/>
			<path class="st152" d="M234.6,253.5c9.3-5.2,16.2-15,10.9-26.4c-6-12.9-19.4-12.3-26-15.2c-4.9-2.2-13.9-12.7-22.2-14.7
				c-7.7-1.8-20.4-0.8-30.2,2.1c-11.2,3.4-24.2,19.5-28.2,23.4c-4.7,4.6-17.3,17.2-9.7,26.2c2.8,3.3,6.4,9.1,17.3,9.8
				c11.1,0.7,15.6-4.6,18.7-3.4c4.1,1.5,10.9,3.2,25.3,1c11.4-1.8,17.7-4.7,20.1-3.7C215.5,254.6,225.1,258.8,234.6,253.5z"/>
			<path class="st153" d="M232.6,252.8c9.3-4.6,16.8-13.6,11.6-25.1c-5.8-12.9-19.3-12-25.9-14.8c-4.7-2-13.3-12.7-21.4-14.8
				c-7.3-1.9-20.3-1.2-30,1.8c-11.1,3.4-23.6,19.3-27.2,22.7c-4.2,4-17.7,16.1-9.8,25.4c2.6,3.1,6,8.7,16.9,9.2
				c11.2,0.4,15.5-5,18.4-3.9c4,1.6,10.9,3.2,25.2,1c11.5-1.7,17.9-4.8,20.1-3.7C214.9,252.9,223.2,257.5,232.6,252.8z"/>
			<path class="st108" d="M230.5,252.2c9.3-4.1,17.4-12.2,12.3-23.8c-5.7-13-19.2-11.7-25.7-14.5c-4.5-1.9-12.6-12.7-20.6-15
				c-7-2-20.2-1.5-29.8,1.5c-11,3.4-23.1,19.1-26.2,22c-3.7,3.5-18.1,15-10,24.5c2.4,2.8,5.5,8.3,16.5,8.6c11.3,0.2,15.3-5.5,18-4.3
				c3.9,1.7,10.8,3.3,25.2,1.1c11.5-1.7,18-4.9,20.1-3.6C214.4,251.1,221.3,256.3,230.5,252.2z"/>
		</g>
		<path class="st111" d="M240,214.3c-3.1-0.2-6.2,0.3-9,1.2c-3.7-18.7-19.7-33.3-39.7-34.3c-19.3-1-36.3,11-42.5,28.4c0,0,0,0,0,0
			c-16.4-0.9-30.3,11.7-31.2,28.1c-0.8,16.4,11.7,30.3,28.1,31.2c8.4,0.4,16.2-2.7,21.9-8.1c5.7,3.3,12.2,5.3,19.2,5.7
			c12.5,0.7,24.1-4.2,32.3-12.4c4.3,5.5,10.7,9.1,18.2,9.5c13.6,0.7,25.2-9.7,25.9-23.4C264.1,226.6,253.6,215,240,214.3z"/>
		<path class="st205" d="M241.1,215.4c-3.1-0.2-6.2,0.3-9,1.2c-3.7-18.7-19.7-33.3-39.7-34.3c-19.3-1-36.3,11-42.5,28.4h0
			c-16.4-0.8-30.3,11.7-31.2,28.1c-0.8,16.4,11.7,30.3,28.1,31.2c8.4,0.4,16.2-2.7,21.9-8.1c5.7,3.3,12.2,5.4,19.2,5.7
			c12.5,0.7,24.1-4.2,32.3-12.4c4.2,5.5,10.7,9.1,18.2,9.5c13.6,0.7,25.2-9.7,25.9-23.4C265.2,227.7,254.7,216.1,241.1,215.4z"/>
	</g>
</g>
</svg>
