<?xml version="1.0" encoding="utf-8"?>
<!-- Generator: Adobe Illustrator 25.0.0, SVG Export Plug-In . SVG Version: 6.00 Build 0)  -->
<svg version="1.1" id="_x3C_Layer_x3E_" xmlns="http://www.w3.org/2000/svg" xmlns:xlink="http://www.w3.org/1999/xlink" x="0px"
	 y="0px" viewBox="0 0 500 500" style="enable-background:new 0 0 500 500;" xml:space="preserve">
<style type="text/css">
	.st0{opacity:0.1;}
	.st1{opacity:0.5;}
	.st2{opacity:0;fill:#FFFFFF;}
	.st3{opacity:4.761905e-02;fill:#F9FBFB;}
	.st4{opacity:9.523810e-02;fill:#F3F6F7;}
	.st5{opacity:0.1429;fill:#EEF2F4;}
	.st6{opacity:0.1905;fill:#E8EDF0;}
	.st7{opacity:0.2381;fill:#E2E9EC;}
	.st8{opacity:0.2857;fill:#DCE4E8;}
	.st9{opacity:0.3333;fill:#D7E0E5;}
	.st10{opacity:0.381;fill:#D1DCE1;}
	.st11{opacity:0.4286;fill:#CBD7DD;}
	.st12{opacity:0.4762;fill:#C5D3D9;}
	.st13{opacity:0.5238;fill:#C0CED6;}
	.st14{opacity:0.5714;fill:#BACAD2;}
	.st15{opacity:0.619;fill:#B4C5CE;}
	.st16{opacity:0.6667;fill:#AEC1CA;}
	.st17{opacity:0.7143;fill:#A9BDC7;}
	.st18{opacity:0.7619;fill:#A3B8C3;}
	.st19{opacity:0.8095;fill:#9DB4BF;}
	.st20{opacity:0.8571;fill:#97AFBB;}
	.st21{opacity:0.9048;fill:#92ABB8;}
	.st22{opacity:0.9524;fill:#8CA6B4;}
	.st23{fill:#86A2B0;}
	.st24{fill:#FFE3AB;}
	.st25{fill:url(#SVGID_1_);}
	.st26{fill:url(#SVGID_2_);}
	.st27{fill:url(#SVGID_3_);}
	.st28{fill:url(#SVGID_4_);}
	.st29{fill:url(#SVGID_5_);}
	.st30{fill:url(#SVGID_6_);}
	.st31{fill:url(#SVGID_7_);}
	.st32{fill:url(#SVGID_8_);}
	.st33{fill:url(#SVGID_9_);}
	.st34{fill:url(#SVGID_10_);}
	.st35{fill:url(#SVGID_11_);}
	.st36{fill:url(#SVGID_12_);}
	.st37{fill:url(#SVGID_13_);}
	.st38{fill:url(#SVGID_14_);}
	.st39{fill:url(#SVGID_15_);}
	.st40{fill:url(#SVGID_16_);}
	.st41{opacity:2.380952e-02;fill:#F9FBFB;}
	.st42{opacity:4.761905e-02;fill:#F3F6F7;}
	.st43{opacity:7.142857e-02;fill:#EEF2F4;}
	.st44{opacity:9.523810e-02;fill:#E8EDF0;}
	.st45{opacity:0.119;fill:#E2E9EC;}
	.st46{opacity:0.1429;fill:#DCE4E8;}
	.st47{opacity:0.1667;fill:#D7E0E5;}
	.st48{opacity:0.1905;fill:#D1DCE1;}
	.st49{opacity:0.2143;fill:#CBD7DD;}
	.st50{opacity:0.2381;fill:#C5D3D9;}
	.st51{opacity:0.2619;fill:#C0CED6;}
	.st52{opacity:0.2857;fill:#BACAD2;}
	.st53{opacity:0.3095;fill:#B4C5CE;}
	.st54{opacity:0.3333;fill:#AEC1CA;}
	.st55{opacity:0.3571;fill:#A9BDC7;}
	.st56{opacity:0.381;fill:#A3B8C3;}
	.st57{opacity:0.4048;fill:#9DB4BF;}
	.st58{opacity:0.4286;fill:#97AFBB;}
	.st59{opacity:0.4524;fill:#92ABB8;}
	.st60{opacity:0.4762;fill:#8CA6B4;}
	.st61{opacity:0.5;fill:#86A2B0;}
	.st62{fill:url(#SVGID_17_);}
	.st63{opacity:0.15;}
	.st64{fill:url(#SVGID_18_);}
	.st65{opacity:2.857143e-02;fill:#F9FBFB;}
	.st66{opacity:5.714286e-02;fill:#F3F6F7;}
	.st67{opacity:8.571429e-02;fill:#EEF2F4;}
	.st68{opacity:0.1143;fill:#E8EDF0;}
	.st69{opacity:0.1429;fill:#E2E9EC;}
	.st70{opacity:0.1714;fill:#DCE4E8;}
	.st71{opacity:0.2;fill:#D7E0E5;}
	.st72{opacity:0.2286;fill:#D1DCE1;}
	.st73{opacity:0.2571;fill:#CBD7DD;}
	.st74{opacity:0.2857;fill:#C5D3D9;}
	.st75{opacity:0.3143;fill:#C0CED6;}
	.st76{opacity:0.3429;fill:#BACAD2;}
	.st77{opacity:0.3714;fill:#B4C5CE;}
	.st78{opacity:0.4;fill:#AEC1CA;}
	.st79{opacity:0.4286;fill:#A9BDC7;}
	.st80{opacity:0.4571;fill:#A3B8C3;}
	.st81{opacity:0.4857;fill:#9DB4BF;}
	.st82{opacity:0.5143;fill:#97AFBB;}
	.st83{opacity:0.5429;fill:#92ABB8;}
	.st84{opacity:0.5714;fill:#8CA6B4;}
	.st85{opacity:0.6;fill:#86A2B0;}
	.st86{fill:url(#SVGID_19_);}
	.st87{fill:url(#SVGID_20_);}
	.st88{fill:url(#SVGID_21_);}
	.st89{opacity:0.2;}
	.st90{opacity:9.523810e-02;fill:#F4F6F8;}
	.st91{opacity:0.1905;fill:#E9EDF1;}
	.st92{opacity:0.2381;fill:#E3E9ED;}
	.st93{opacity:0.2857;fill:#DEE5EA;}
	.st94{opacity:0.3333;fill:#D8E0E6;}
	.st95{opacity:0.381;fill:#D3DCE3;}
	.st96{opacity:0.4286;fill:#CDD8DF;}
	.st97{opacity:0.4762;fill:#C8D3DC;}
	.st98{opacity:0.5238;fill:#C2CFD8;}
	.st99{opacity:0.5714;fill:#BDCAD5;}
	.st100{opacity:0.619;fill:#B7C6D1;}
	.st101{opacity:0.6667;fill:#B2C2CE;}
	.st102{opacity:0.7143;fill:#ACBDCA;}
	.st103{opacity:0.7619;fill:#A7B9C7;}
	.st104{opacity:0.8095;fill:#A1B5C3;}
	.st105{opacity:0.8571;fill:#9CB0C0;}
	.st106{opacity:0.9048;fill:#96ACBC;}
	.st107{opacity:0.9524;fill:#91A7B9;}
	.st108{fill:#8BA3B5;}
	.st109{fill:#EEF7FA;}
	.st110{fill:#E4F1F5;}
	.st111{fill:#FFFFFF;}
	.st112{fill:#E9F2F5;}
	.st113{opacity:0.3;}
	.st114{fill:url(#SVGID_22_);}
	.st115{fill:url(#SVGID_23_);}
	.st116{fill:url(#SVGID_24_);}
	.st117{fill:url(#SVGID_25_);}
	.st118{fill:url(#SVGID_26_);}
	.st119{fill:url(#SVGID_27_);}
	.st120{fill:url(#SVGID_28_);}
	.st121{fill:url(#SVGID_29_);}
	.st122{fill:url(#SVGID_30_);}
	.st123{fill:url(#SVGID_31_);}
	.st124{fill:url(#SVGID_32_);}
	.st125{fill:url(#SVGID_33_);}
	.st126{fill:url(#SVGID_34_);}
	.st127{fill:url(#SVGID_35_);}
	.st128{fill:url(#SVGID_36_);}
	.st129{fill:url(#SVGID_37_);}
	.st130{fill:url(#SVGID_38_);}
	.st131{fill:url(#SVGID_39_);}
	.st132{opacity:5.000000e-02;}
	.st133{opacity:0;fill:#515151;}
	.st134{opacity:4.761905e-02;fill:#545556;}
	.st135{opacity:9.523810e-02;fill:#57595B;}
	.st136{opacity:0.1429;fill:#595D5F;}
	.st137{opacity:0.1905;fill:#5C6164;}
	.st138{opacity:0.2381;fill:#5F6569;}
	.st139{opacity:0.2857;fill:#62686E;}
	.st140{opacity:0.3333;fill:#646C72;}
	.st141{opacity:0.381;fill:#677077;}
	.st142{opacity:0.4286;fill:#6A747C;}
	.st143{opacity:0.4762;fill:#6D7881;}
	.st144{opacity:0.5238;fill:#6F7C85;}
	.st145{opacity:0.5714;fill:#72808A;}
	.st146{opacity:0.619;fill:#75848F;}
	.st147{opacity:0.6667;fill:#788894;}
	.st148{opacity:0.7143;fill:#7A8C98;}
	.st149{opacity:0.7619;fill:#7D8F9D;}
	.st150{opacity:0.8095;fill:#8093A2;}
	.st151{opacity:0.8571;fill:#8397A7;}
	.st152{opacity:0.9048;fill:#859BAB;}
	.st153{opacity:0.9524;fill:#889FB0;}
	.st154{fill:#008DD4;}
	.st155{fill:url(#SVGID_40_);}
	.st156{fill:#4FC5FF;}
	.st157{fill:url(#SVGID_41_);}
	.st158{fill:url(#SVGID_42_);}
	.st159{fill:#63CCFF;}
	.st160{fill:#007FC9;}
	.st161{fill:#6ED8FF;}
	.st162{fill:#008CDE;}
	.st163{fill:#B3EDFF;}
	.st164{fill:#61D7FF;}
	.st165{fill:url(#SVGID_43_);}
	.st166{fill:url(#SVGID_44_);}
	.st167{opacity:2.580645e-02;fill:#505051;}
	.st168{opacity:5.161290e-02;fill:#4E4F51;}
	.st169{opacity:7.741936e-02;fill:#4D4F50;}
	.st170{opacity:0.1032;fill:#4C4E50;}
	.st171{opacity:0.129;fill:#4B4D50;}
	.st172{opacity:0.1548;fill:#494C50;}
	.st173{opacity:0.1806;fill:#484B4F;}
	.st174{opacity:0.2065;fill:#474B4F;}
	.st175{opacity:0.2323;fill:#464A4F;}
	.st176{opacity:0.2581;fill:#44494F;}
	.st177{opacity:0.2839;fill:#43484F;}
	.st178{opacity:0.3097;fill:#42474E;}
	.st179{opacity:0.3355;fill:#41474E;}
	.st180{opacity:0.3613;fill:#3F464E;}
	.st181{opacity:0.3871;fill:#3E454E;}
	.st182{opacity:0.4129;fill:#3D444D;}
	.st183{opacity:0.4387;fill:#3C434D;}
	.st184{opacity:0.4645;fill:#3A424D;}
	.st185{opacity:0.4903;fill:#39424D;}
	.st186{opacity:0.5161;fill:#38414C;}
	.st187{opacity:0.5419;fill:#37404C;}
	.st188{opacity:0.5677;fill:#353F4C;}
	.st189{opacity:0.5935;fill:#343E4C;}
	.st190{opacity:0.6194;fill:#333E4C;}
	.st191{opacity:0.6452;fill:#323D4B;}
	.st192{opacity:0.671;fill:#303C4B;}
	.st193{opacity:0.6968;fill:#2F3B4B;}
	.st194{opacity:0.7226;fill:#2E3A4B;}
	.st195{opacity:0.7484;fill:#2D3A4A;}
	.st196{opacity:0.7742;fill:#2B394A;}
	.st197{opacity:0.8;fill:#2A384A;}
	.st198{fill:url(#SVGID_45_);}
	.st199{fill:url(#SVGID_46_);}
	.st200{fill:#91D5EB;}
	.st201{fill:#E1F0FA;}
	.st202{fill:#9DDEF2;}
	.st203{fill:#A2DEF2;}
	.st204{fill:#BEE9F7;}
	.st205{fill:#C8EEFA;}
	.st206{fill:url(#SVGID_47_);}
	.st207{opacity:0.3;fill:url(#SVGID_48_);}
	.st208{opacity:2.580645e-02;fill:#FBFCFC;}
	.st209{opacity:5.161290e-02;fill:#F7F9FA;}
	.st210{opacity:7.741936e-02;fill:#F3F6F7;}
	.st211{opacity:0.1032;fill:#EFF3F5;}
	.st212{opacity:0.129;fill:#EBF0F2;}
	.st213{opacity:0.1548;fill:#E8EDF0;}
	.st214{opacity:0.1806;fill:#E4EAED;}
	.st215{opacity:0.2065;fill:#E0E7EB;}
	.st216{opacity:0.2323;fill:#DCE4E8;}
	.st217{opacity:0.2581;fill:#D8E1E6;}
	.st218{opacity:0.2839;fill:#D4DEE3;}
	.st219{opacity:0.3097;fill:#D0DBE0;}
	.st220{opacity:0.3355;fill:#CCD8DE;}
	.st221{opacity:0.3613;fill:#C8D5DB;}
	.st222{opacity:0.3871;fill:#C4D2D9;}
	.st223{opacity:0.4129;fill:#C1CFD6;}
	.st224{opacity:0.4387;fill:#BDCCD4;}
	.st225{opacity:0.4645;fill:#B9C9D1;}
	.st226{opacity:0.4903;fill:#B5C6CF;}
	.st227{opacity:0.5161;fill:#B1C3CC;}
	.st228{opacity:0.5419;fill:#ADC0C9;}
	.st229{opacity:0.5677;fill:#A9BDC7;}
	.st230{opacity:0.5935;fill:#A5BAC4;}
	.st231{opacity:0.6194;fill:#A1B7C2;}
	.st232{opacity:0.6452;fill:#9DB4BF;}
	.st233{opacity:0.671;fill:#9AB1BD;}
	.st234{opacity:0.6968;fill:#96AEBA;}
	.st235{opacity:0.7226;fill:#92ABB8;}
	.st236{opacity:0.7484;fill:#8EA8B5;}
	.st237{opacity:0.7742;fill:#8AA5B3;}
	.st238{opacity:0.8;fill:#86A2B0;}
	.st239{fill:url(#SVGID_49_);}
	.st240{clip-path:url(#SVGID_51_);}
	.st241{fill:#0A4D80;}
	.st242{fill:url(#SVGID_52_);}
	.st243{clip-path:url(#SVGID_54_);}
</style>
<g>
	<g>
		<g>
			<g class="st63">
				<path class="st2" d="M253.6,413.9c-50.4,3.9-127.3-24.5-144.6-61.8c-16.7-35.9-3.5-62.9,23.7-72c16.9-5.6,59.2,26,97.4,24.7
					c51.7-1.7,61.3-18.4,78.2-43.1c13.7-20,81-5.4,74.6,46.2C374.6,375.3,317.1,409,253.6,413.9z"/>
				<path class="st3" d="M253.7,411.2c-49.1,4.2-123.3-23.4-141-59.2c-17.4-35-5.3-61,20.9-69.8c16.3-5.5,58.3,26,97.2,24.3
					c50.8-2.2,61.5-19.3,78-43.4c13.4-19.5,77-4.5,70.4,45.4C370.5,373.2,315.4,406,253.7,411.2z"/>
				<path class="st4" d="M253.9,408.5c-47.7,4.4-119.3-22.4-137.4-56.6c-18-34.1-7.2-59.1,18-67.7c15.7-5.5,57.3,26,96.9,23.9
					c49.8-2.6,61.7-20.2,77.8-43.6c13.1-19,73.1-3.6,66.2,44.7C366.4,371.1,313.8,403.1,253.9,408.5z"/>
				<path class="st5" d="M254.1,405.8c-46.4,4.6-115.4-21.4-133.8-54.1c-18.7-33.2-9-57.1,15.1-65.6c15.2-5.4,56.3,26,96.6,23.5
					c48.9-3,61.9-21.1,77.6-43.9c12.7-18.5,69.2-2.6,62,43.9C362.4,369,312.1,400.1,254.1,405.8z"/>
				<path class="st6" d="M254.3,403.1c-45,4.9-111.5-20.3-130.2-51.5c-19.5-32.3-10.9-55.1,12.3-63.5c14.6-5.3,55.3,26,96.4,23.1
					c48-3.4,62.1-21.9,77.5-44.2c12.4-18,65.3-1.7,57.7,43.2C358.3,366.9,310.5,397.2,254.3,403.1z"/>
				<path class="st7" d="M254.4,400.4c-43.7,5-107.6-19.3-126.6-48.9c-20.2-31.4-12.7-53.2,9.4-61.3c14.1-5.2,54.4,26.1,96.1,22.7
					c47.1-3.8,62.3-22.8,77.3-44.5c12-17.5,61.4-0.8,53.5,42.4C354.3,364.7,308.8,394.1,254.4,400.4z"/>
				<path class="st8" d="M254.6,397.7c-42.4,5.3-103.8-18.3-123-46.3c-21-30.5-14.6-51.2,6.6-59.2c13.5-5.1,53.4,26.1,95.8,22.3
					c46.1-4.2,62.6-23.7,77.1-44.8c11.7-17,57.5,0.2,49.3,41.7C350.2,362.6,307.1,391.1,254.6,397.7z"/>
				<path class="st9" d="M254.8,395c-41,5.5-100-17.2-119.4-43.7c-21.7-29.6-16.4-49.3,3.7-57.1c13-5,52.4,26.2,95.5,21.9
					c45.2-4.5,62.8-24.6,76.9-45.1c11.4-16.5,53.6,1.1,45.1,41C346.2,360.5,305.5,388.2,254.8,395z"/>
				<path class="st10" d="M255,392.2c-39.7,5.7-96.2-16.1-115.8-41.1c-22.6-28.7-18.3-47.3,0.8-54.9c12.4-4.9,51.4,26.3,95.3,21.5
					c44.3-4.8,63-25.5,76.7-45.3c11-16,49.7,2,40.9,40.2C342.2,358.3,303.8,385.2,255,392.2z"/>
				<path class="st11" d="M255.1,389.5c-38.4,6-92.4-15.1-112.2-38.5c-23.4-27.7-20.1-45.4-2-52.8c11.9-4.9,50.5,26.4,95,21.1
					c43.4-5.1,63.2-26.3,76.5-45.6c10.7-15.5,45.9,2.9,36.6,39.5C338.2,356.2,302.2,382.3,255.1,389.5z"/>
				<path class="st12" d="M255.3,386.8c-37,6.2-88.7-14-108.6-35.9c-24.3-26.8-22-43.5-4.9-50.7c11.3-4.8,49.5,26.5,94.7,20.7
					c42.4-5.4,63.4-27.2,76.3-45.9c10.3-15,42,3.8,32.4,38.7C334.2,354.1,300.5,379.3,255.3,386.8z"/>
				<path class="st13" d="M255.5,384.1c-35.7,6.4-85.1-12.8-105-33.3c-25.2-25.9-23.8-41.5-7.8-48.6c10.7-4.7,48.5,26.6,94.5,20.3
					c41.5-5.7,63.6-28.1,76.2-46.2c10-14.5,38.2,4.7,28.2,38C330.3,351.9,298.9,376.3,255.5,384.1z"/>
				<path class="st14" d="M255.7,381.4c-34.4,6.7-81.4-11.7-101.4-30.7c-26.2-24.9-25.7-39.6-10.6-46.4
					c10.2-4.6,47.5,26.7,94.2,19.9c40.6-5.9,63.8-29,76-46.5c9.7-14,34.3,5.6,24,37.3C326.3,349.8,297.2,373.4,255.7,381.4z"/>
				<path class="st15" d="M255.8,378.7c-33,6.9-77.8-10.5-97.8-28.1c-27.2-23.9-27.5-37.7-13.5-44.3c9.6-4.6,46.6,26.9,93.9,19.5
					c39.7-6.2,64.1-29.8,75.8-46.8c9.3-13.5,30.5,6.5,19.8,36.5C322.5,347.7,295.5,370.4,255.8,378.7z"/>
				<path class="st16" d="M256,376c-31.7,7.1-74.2-9.3-94.2-25.5c-28.2-22.8-29.4-35.7-16.3-42.2c9.1-4.5,45.6,27,93.6,19.1
					c38.8-6.4,64.3-30.7,75.6-47c9-13,26.8,7.4,15.6,35.8C318.6,345.6,293.9,367.5,256,376z"/>
				<path class="st17" d="M256.2,373.3c-30.3,7.4-70.6-8.1-90.6-22.9c-29.3-21.7-31.2-33.8-19.2-40c8.5-4.4,44.6,27.2,93.4,18.7
					c37.9-6.6,64.5-31.6,75.4-47.3c8.7-12.5,23,8.3,11.3,35C314.8,343.4,292.2,364.5,256.2,373.3z"/>
				<path class="st18" d="M256.4,370.6c-29,7.6-67.1-6.8-87-20.4c-30.4-20.5-33.1-31.9-22.1-37.9c8-4.4,43.7,27.4,93.1,18.3
					c37-6.8,64.7-32.5,75.2-47.6c8.3-12,19.3,9.3,7.1,34.3C311,341.3,290.6,361.6,256.4,370.6z"/>
				<path class="st19" d="M256.5,367.9c-27.7,7.9-63.5-5.5-83.4-17.8c-31.5-19.3-34.9-30-24.9-35.8c7.4-4.3,42.7,27.6,92.8,17.9
					c36.1-7,64.9-33.4,75-47.9c8-11.5,15.6,10.2,2.9,33.6C307.3,339.3,288.9,358.7,256.5,367.9z"/>
				<path class="st20" d="M256.7,365.2c-26.3,8.2-60-4.2-79.8-15.2c-32.6-18-36.8-28.1-27.8-33.7c6.8-4.2,41.8,27.9,92.5,17.5
					c35.2-7.2,65.1-34.2,74.9-48.2c7.6-11,12.1,11.2-1.3,32.8C303.6,337.2,287.3,355.7,256.7,365.2z"/>
				<path class="st21" d="M256.9,362.5c-25,8.4-56.4-2.8-76.2-12.6c-33.7-16.6-38.7-26.2-30.7-31.5c6.3-4.2,40.8,28.2,92.3,17.1
					c34.3-7.4,65.4-35.1,74.7-48.5c7.3-10.5,8.5,12.3-5.5,32.1C299.9,335.2,285.6,352.8,256.9,362.5z"/>
				<path class="st22" d="M257.1,359.8c-23.6,8.7-52.8-1.4-72.6-10c-34.9-15.1-40.6-24.3-33.5-29.4c5.7-4.1,39.9,28.5,92,16.6
					c33.4-7.6,65.6-36,74.5-48.7c7-10,5.1,13.4-9.7,31.3C296.3,333.3,284,350,257.1,359.8z"/>
				<path class="st23" d="M257.2,357.1c-22.3,9-49.3,0.1-69-7.4c-36-13.6-42.5-22.4-36.4-27.3c5.1-4.1,39,28.8,91.7,16.2
					c32.5-7.7,65.8-36.9,74.3-49c6.6-9.5,1.7,14.7-14,30.6C292.8,331.5,282.3,347,257.2,357.1z"/>
			</g>
			<g class="st63">
				<path class="st2" d="M98.4,198.3c20.1-48.4,74.6-65.3,101.6-65c16.7,0.1,31.5,17.8,7.1,58.6c-27.4,45.6-13.1,83.8,7.8,104.1
					c24.9,24.2,60.1,23.4,52.7,44.1c-13,36.4-76.5,43.8-125.9,14.8C91.9,325.7,75.3,254,98.4,198.3z"/>
				<path class="st3" d="M99.1,199.8c19.6-48.6,73.7-66.4,99.4-65.9c15.9,0.3,29.3,17.4,5.3,57.5c-27.1,45.7-12.9,83.6,7.9,104.2
					c24.4,24,60,24.3,52.9,44.2c-12.5,34.8-75.1,41.9-123.2,13.4C93,324.8,77.1,254.7,99.1,199.8z"/>
				<path class="st4" d="M99.9,201.4c19-48.9,72.8-67.6,97.2-66.8c15.1,0.5,27,16.9,3.6,56.5c-26.9,45.8-12.7,83.5,8,104.4
					c23.8,24,60,25.3,53.1,44.2c-12,33.1-73.7,39.9-120.6,12C94,323.9,78.9,255.3,99.9,201.4z"/>
				<path class="st5" d="M100.6,203c18.5-49.1,71.9-68.7,95-67.7c14.3,0.7,24.7,16.4,1.9,55.5c-26.8,45.9-12.5,83.3,8.2,104.6
					c23.2,23.9,59.9,26.2,53.3,44.2c-11.6,31.5-72.3,37.9-118,10.7C95.1,323.1,80.7,255.9,100.6,203z"/>
				<path class="st6" d="M101.3,204.5c17.9-49.4,71-69.9,92.8-68.5c13.5,0.8,22.4,15.9,0.1,54.5c-26.6,46-12.3,83.2,8.3,104.8
					c22.7,23.7,59.8,27.2,53.5,44.2c-11.1,29.9-70.8,35.9-115.4,9.3C96.2,322.2,82.5,256.5,101.3,204.5z"/>
				<path class="st7" d="M102.1,206.1c17.3-49.7,70.1-71,90.6-69.4c12.7,1,20.1,15.5-1.6,53.5c-26.4,46.1-12.1,83,8.4,104.9
					c22.2,23.6,59.8,28.2,53.8,44.3c-10.7,28.3-69.4,34-112.8,7.9C97.3,321.4,84.3,257.1,102.1,206.1z"/>
				<path class="st8" d="M102.8,207.7c16.8-50,69.2-72.2,88.4-70.3c11.9,1.2,17.9,15-3.4,52.5c-26.2,46.2-11.9,82.9,8.5,105.1
					c21.6,23.5,59.7,29.1,54,44.3c-10.2,26.6-68,32-110.2,6.5C98.3,320.5,86,257.6,102.8,207.7z"/>
				<path class="st9" d="M103.5,209.2c16.2-50.3,68.3-73.3,86.2-71.2c11.1,1.3,15.6,14.6-5.1,51.4c-26,46.2-11.7,82.7,8.7,105.3
					c21.1,23.4,59.7,30.1,54.2,44.3c-9.7,25-66.6,30-107.6,5.1C99.4,319.6,87.8,258.2,103.5,209.2z"/>
				<path class="st10" d="M104.2,210.8c15.6-50.6,67.5-74.5,84-72c10.3,1.5,13.3,14.1-6.9,50.4c-25.7,46.3-11.5,82.5,8.8,105.5
					c20.6,23.2,59.6,31.1,54.4,44.3c-9.2,23.4-65.2,28-104.9,3.7C100.5,318.8,89.5,258.8,104.2,210.8z"/>
				<path class="st11" d="M105,212.4c15-50.9,66.6-75.6,81.8-72.9c9.4,1.7,11,13.6-8.6,49.4c-25.5,46.4-11.3,82.4,8.9,105.6
					c20.1,23.1,59.6,32,54.6,44.3c-8.8,21.8-63.8,26-102.3,2.3C101.6,317.9,91.2,259.3,105,212.4z"/>
				<path class="st12" d="M105.7,213.9c14.3-51.2,65.7-76.8,79.6-73.8c8.6,1.9,8.8,13.2-10.4,48.4c-25.3,46.5-11.1,82.2,9,105.8
					c19.5,22.9,59.5,33,54.9,44.4c-8.3,20.1-62.4,24.1-99.7,0.9C102.6,317.1,92.8,259.9,105.7,213.9z"/>
				<path class="st13" d="M106.4,215.5c13.7-51.5,64.8-77.9,77.4-74.6c7.9,2,6.5,12.7-12.1,47.4c-25.1,46.6-10.9,82,9.2,106
					c19,22.8,59.5,34,55.1,44.4c-7.8,18.5-61,22.1-97.1-0.5C103.7,316.2,94.5,260.4,106.4,215.5z"/>
				<path class="st14" d="M107.2,217.1c13-51.8,64-79,75.2-75.5c7.1,2.2,4.3,12.3-13.8,46.4c-24.8,46.7-10.6,81.8,9.3,106.2
					c18.5,22.6,59.4,34.9,55.3,44.4c-7.4,16.9-59.5,20.1-94.5-1.9C104.8,315.3,96.2,260.9,107.2,217.1z"/>
				<path class="st15" d="M107.9,218.6c12.3-52.1,63.1-80.2,73-76.4c6.3,2.4,2,11.8-15.6,45.3c-24.6,46.8-10.4,81.6,9.4,106.3
					c18,22.5,59.4,35.9,55.5,44.4c-6.9,15.3-58.1,18.1-91.9-3.3C105.9,314.5,97.8,261.5,107.9,218.6z"/>
				<path class="st16" d="M108.6,220.2c11.6-52.5,62.3-81.3,70.8-77.3c5.5,2.6-0.2,11.4-17.3,44.3c-24.4,46.9-10.1,81.4,9.5,106.5
					c17.5,22.3,59.3,36.9,55.7,44.5c-6.4,13.6-56.7,16.2-89.3-4.7C107,313.6,99.4,262,108.6,220.2z"/>
				<path class="st17" d="M109.4,221.8c10.8-52.8,61.4-82.4,68.6-78.1c4.7,2.8-2.5,10.9-19.1,43.3c-24.1,47.1-9.9,81.2,9.7,106.7
					c17,22.1,59.3,37.8,56,44.5c-6,12-55.3,14.2-86.7-6.1C108,312.8,101,262.5,109.4,221.8z"/>
				<path class="st18" d="M110.1,223.3c10.1-53.1,60.6-83.4,66.4-79c3.9,3-4.7,10.5-20.8,42.3c-23.9,47.2-9.6,81,9.8,106.9
					c16.6,22,59.2,38.8,56.2,44.5c-5.5,10.4-53.9,12.2-84-7.5C109.1,311.9,102.6,263.1,110.1,223.3z"/>
				<path class="st19" d="M110.8,224.9c9.3-53.5,59.7-84.4,64.2-79.9c3.2,3.2-7,10-22.6,41.3c-23.6,47.3-9.4,80.8,9.9,107
					c16.1,21.8,59.1,39.8,56.4,44.5c-5.1,8.8-52.5,10.2-81.4-8.9C110.2,311,104.1,263.6,110.8,224.9z"/>
				<path class="st20" d="M111.5,226.4c8.4-53.8,58.8-85.4,62-80.8c2.4,3.5-9.2,9.6-24.3,40.3c-23.4,47.4-9.1,80.6,10.1,107.2
					c15.6,21.6,59.1,40.7,56.6,44.6c-4.6,7.1-51.1,8.3-78.8-10.3C111.3,310.2,105.6,264.1,111.5,226.4z"/>
				<path class="st21" d="M112.3,228c7.6-54.2,57.9-86.4,59.8-81.6c1.5,3.8-11.4,9.2-26,39.2c-23,47.6-8.8,80.4,10.2,107.4
					c15.1,21.5,59,41.7,56.8,44.6c-4.2,5.5-49.7,6.3-76.2-11.7C112.3,309.3,107.2,264.6,112.3,228z"/>
				<path class="st22" d="M113,229.6c6.6-54.5,56.9-87.4,57.6-82.5c0.6,4.1-13.6,8.7-27.8,38.2c-22.8,47.7-8.6,80.2,10.3,107.6
					c14.7,21.3,58.9,42.6,57.1,44.6c-3.7,3.9-48.3,4.3-73.6-13.1C113.4,308.5,108.7,265.2,113,229.6z"/>
				<path class="st23" d="M113.7,231.1c5.7-54.9,55.8-88.5,55.4-83.4c-0.4,4.3-15.9,8.3-29.5,37.2c-22.5,47.8-8.3,80,10.4,107.7
					c14.2,21.1,58.9,43.6,57.3,44.6c-3.3,2.2-46.8,2.3-71-14.5C114.5,307.6,110.2,265.7,113.7,231.1z"/>
			</g>
		</g>
		<path class="st24" d="M298.4,298.3c-38.6,38.6-101.2,38.6-139.8,0c-38.6-38.6-38.6-101.2,0-139.8c15.1-15.1,35.8-22.5,55.4-25.8
			c-31-1.4-63.8,9-87.4,32.6c-46,46-46,120.5,0,166.5c46,46,120.5,46,166.5,0c25.9-25.9,39-59.1,35.8-92.9
			C325.9,261.3,315.5,281.2,298.4,298.3z"/>
		<g>
			
				<linearGradient id="SVGID_1_" gradientUnits="userSpaceOnUse" x1="1136.3125" y1="-105.502" x2="1302.804" y2="60.9894" gradientTransform="matrix(0.7071 -0.7071 0.7071 0.7071 -634.9735 1128.486)">
				<stop  offset="0" style="stop-color:#FFD45C"/>
				<stop  offset="1" style="stop-color:#FF9D00"/>
			</linearGradient>
			<path class="st25" d="M300.2,300.1c-38.6,38.6-101.2,38.6-139.8,0c-38.6-38.6-38.6-101.2,0-139.9c15.1-15.1,34-24.3,53.6-27.6
				c-30.9-0.6-62,10.9-85.6,34.4c-46,46-46,120.5,0,166.5c46,46,120.5,46,166.5,0c25.9-25.9,37.2-60.9,33.9-94.7
				C326.8,261.3,317.3,283,300.2,300.1z"/>
		</g>
	</g>
	<g>
		<g class="st0">
			<path class="st2" d="M370.8,130.7c-1.1-4-6.6-10.5-10-13.8c-3.5-3.4-7.2-9.7-17.6-11.9c-7.2-1.5-24.5,5-27.6,21
				c-3.8,19.4-4.8,44.2,13.5,47.4c5.4,1,19.9-5.3,24.1-4.8c3.6,0.5,9.6-3,14.2-6c4.9-3.2,4.2-8.4,5.6-13.8
				C374.1,143.7,371.8,134.5,370.8,130.7z"/>
			<path class="st65" d="M369.9,130.7c-1.1-3.9-6.6-10.1-10-13.4c-3.5-3.4-7.2-9.6-17.3-11.8c-6.9-1.5-23.7,5.2-26.8,20.8
				c-3.7,18.9-4.6,42.6,12.9,45.9c5.3,1,19.6-5.2,23.6-4.7c3.5,0.5,9.5-2.7,13.9-5.6c4.7-3.2,4-8.3,5.3-13.5
				C372.8,143.3,370.9,134.3,369.9,130.7z"/>
			<path class="st66" d="M368.9,130.6c-1-3.8-6.7-9.7-10-13c-3.4-3.5-7.1-9.6-16.9-11.7c-6.7-1.4-22.8,5.4-25.9,20.7
				c-3.7,18.3-4.4,41,12.3,44.3c5.2,1,19.3-5.2,23.1-4.6c3.4,0.5,9.3-2.3,13.5-5.2c4.6-3.1,3.7-8.1,5.1-13.3
				C371.5,142.9,369.9,134.2,368.9,130.6z"/>
			<path class="st67" d="M368,130.6c-1-3.7-6.8-9.4-10-12.7c-3.4-3.5-7.1-9.6-16.5-11.5c-6.4-1.3-22,5.7-25.1,20.6
				c-3.7,17.8-4.1,39.5,11.7,42.7c5.1,1,19-5.1,22.7-4.5c3.3,0.5,9.1-1.9,13.2-4.7c4.4-3,3.5-8,4.9-13.1
				C370.2,142.4,368.9,134,368,130.6z"/>
			<path class="st68" d="M367.1,130.6c-1-3.5-6.9-9-9.9-12.3c-3.3-3.5-7-9.5-16.1-11.4c-6.1-1.3-21.2,5.9-24.2,20.5
				c-3.6,17.2-3.9,37.9,11.1,41.2c4.9,1.1,18.6-5.1,22.2-4.4c3.1,0.6,8.9-1.6,12.9-4.3c4.2-2.9,3.3-7.8,4.6-12.9
				C368.9,142,368,133.9,367.1,130.6z"/>
			<path class="st69" d="M366.1,130.5c-0.9-3.4-6.9-8.6-9.9-11.9c-3.3-3.6-7-9.5-15.7-11.2c-5.8-1.2-20.3,6.1-23.4,20.4
				c-3.6,16.7-3.7,36.4,10.5,39.6c4.8,1.1,18.3-5.1,21.7-4.4c3,0.6,8.7-1.2,12.6-3.9c4.1-2.8,3-7.7,4.4-12.7
				C367.6,141.6,367,133.7,366.1,130.5z"/>
			<path class="st70" d="M365.2,130.5c-0.9-3.3-7-8.3-9.9-11.5c-3.2-3.6-7-9.5-15.4-11.1c-5.6-1.1-19.5,6.3-22.5,20.2
				c-3.5,16.1-3.4,34.8,9.9,38.1c4.7,1.2,18-5,21.3-4.3c2.9,0.6,8.6-0.8,12.2-3.4c3.9-2.7,2.8-7.5,4.2-12.5
				C366.3,141.2,366.1,133.6,365.2,130.5z"/>
			<path class="st71" d="M364.3,130.5c-0.9-3.2-7.1-7.9-9.9-11.1c-3.2-3.7-6.9-9.4-15-11c-5.3-1-18.7,6.6-21.7,20.1
				c-3.5,15.6-3.2,33.3,9.3,36.5c4.6,1.2,17.7-5,20.8-4.2c2.8,0.7,8.4-0.5,11.9-3c3.7-2.6,2.6-7.4,3.9-12.2
				C365,140.8,365.1,133.4,364.3,130.5z"/>
			<path class="st72" d="M363.4,130.4c-0.8-3.1-7.2-7.5-9.8-10.7c-3.1-3.7-6.9-9.4-14.6-10.8c-5-0.9-17.8,6.8-20.8,20
				c-3.4,15-3,31.8,8.7,34.9c4.5,1.2,17.4-4.9,20.3-4.1c2.7,0.7,8.2-0.1,11.6-2.5c3.5-2.5,2.3-7.2,3.7-12
				C363.7,140.3,364.1,133.3,363.4,130.4z"/>
			<path class="st73" d="M362.4,130.4c-0.8-2.9-7.2-7.2-9.8-10.3c-3-3.7-6.8-9.3-14.2-10.7c-4.8-0.9-17,7-20,19.9
				c-3.3,14.4-2.7,30.2,8.1,33.4c4.4,1.3,17.1-4.9,19.8-4.1c2.6,0.7,8,0.3,11.3-2.1c3.4-2.5,2.1-7.1,3.4-11.8
				C362.4,139.9,363.2,133.1,362.4,130.4z"/>
			<path class="st74" d="M361.5,130.4c-0.8-2.8-7.3-6.8-9.8-9.9c-3-3.8-6.8-9.3-13.8-10.5c-4.5-0.8-16.2,7.3-19.1,19.7
				c-3.3,13.9-2.5,28.8,7.5,31.8c4.3,1.3,16.7-4.8,19.4-4c2.4,0.8,7.8,0.6,10.9-1.7c3.2-2.4,1.9-6.9,3.2-11.6
				C361.1,139.5,362.2,133,361.5,130.4z"/>
			<path class="st75" d="M360.6,130.3c-0.7-2.7-7.4-6.5-9.8-9.6c-2.9-3.8-6.7-9.3-13.5-10.4c-4.2-0.7-15.3,7.5-18.3,19.6
				c-3.2,13.3-2.3,27.3,6.9,30.2c4.2,1.3,16.4-4.7,18.9-3.9c2.3,0.8,7.7,1,10.6-1.2c3-2.3,1.6-6.8,3-11.4
				C359.8,139.1,361.3,132.8,360.6,130.3z"/>
			<path class="st76" d="M359.7,130.3c-0.7-2.6-7.5-6.1-9.7-9.2c-2.9-3.9-6.7-9.2-13.1-10.3c-3.9-0.6-14.5,7.7-17.4,19.5
				c-3.2,12.8-2.1,25.8,6.3,28.7c4.1,1.4,16.1-4.7,18.4-3.8c2.2,0.8,7.5,1.3,10.3-0.8c2.9-2.2,1.4-6.6,2.7-11.2
				C358.5,138.7,360.3,132.7,359.7,130.3z"/>
			<path class="st77" d="M358.7,130.3c-0.6-2.4-7.5-5.8-9.7-8.8c-2.8-3.9-6.6-9.2-12.7-10.1c-3.7-0.6-13.7,8-16.6,19.4
				c-3.1,12.2-1.8,24.4,5.7,27.1c4,1.4,15.8-4.6,18-3.7c2.1,0.9,7.3,1.7,10-0.4c2.7-2.1,1.2-6.5,2.5-11
				C357.2,138.2,359.3,132.5,358.7,130.3z"/>
			<path class="st78" d="M357.8,130.2c-0.6-2.3-7.6-5.4-9.7-8.4c-2.8-4-6.6-9.2-12.3-10c-3.4-0.5-12.8,8.2-15.7,19.2
				c-3.1,11.7-1.6,22.9,5.1,25.5c3.9,1.5,15.5-4.6,17.5-3.7c2,0.9,7.1,2.1,9.6,0.1c2.5-2,0.9-6.4,2.2-10.7
				C355.9,137.8,358.4,132.4,357.8,130.2z"/>
			<path class="st79" d="M356.9,130.2c-0.6-2.2-7.7-5-9.7-8c-2.7-4-6.6-9.1-11.9-9.8c-3.1-0.4-12,8.4-14.9,19.1
				c-3,11.1-1.4,21.5,4.5,24c3.8,1.6,15.2-4.5,17-3.6c1.9,0.9,6.9,2.4,9.3,0.5c2.3-1.9,0.7-6.2,2-10.5
				C354.6,137.4,357.4,132.2,356.9,130.2z"/>
			<path class="st80" d="M356,130.2c-0.5-2.1-7.7-4.7-9.6-7.6c-2.6-4-6.5-9.1-11.6-9.7c-2.9-0.3-11.1,8.7-14,19
				c-2.9,10.6-1.2,20.1,3.9,22.4c3.7,1.6,14.8-4.5,16.5-3.5c1.7,1,6.8,2.8,9,0.9c2.2-1.8,0.5-6.1,1.8-10.3
				C353.3,137,356.4,132,356,130.2z"/>
			<path class="st81" d="M355,130.1c-0.5-2-7.8-4.3-9.6-7.2c-2.6-4.1-6.5-9.1-11.2-9.6c-2.6-0.3-10.3,8.9-13.1,18.9
				c-2.9,10-1,18.8,3.3,20.8c3.5,1.7,14.5-4.4,16.1-3.4c1.6,1,6.6,3.2,8.7,1.4c2-1.7,0.2-5.9,1.5-10.1
				C352,136.6,355.5,131.9,355,130.1z"/>
			<path class="st82" d="M354.1,130.1c-0.5-1.8-7.9-4-9.6-6.9c-2.5-4.1-6.4-9.1-10.8-9.4c-2.3-0.2-9.4,9.1-12.3,18.8
				c-2.8,9.5-0.8,17.4,2.7,19.3c3.4,1.8,14.2-4.3,15.6-3.4c1.5,1.1,6.4,3.5,8.3,1.8c1.8-1.6,0-5.8,1.3-9.9
				C350.7,136.2,354.5,131.7,354.1,130.1z"/>
			<path class="st83" d="M353.2,130.1c-0.4-1.7-7.9-3.6-9.6-6.5c-2.4-4.2-6.4-9-10.4-9.3c-2-0.1-8.6,9.4-11.4,18.6
				c-2.7,8.9-0.7,16.1,2.1,17.7c3.3,1.9,13.9-4.3,15.1-3.3c1.4,1.1,6.2,3.9,8,2.2c1.7-1.5-0.2-5.6,1.1-9.7
				C349.4,135.7,353.6,131.6,353.2,130.1z"/>
			<path class="st84" d="M352.3,130c-0.4-1.6-8-3.3-9.5-6.1c-2.4-4.2-6.3-9-10.1-9.2c-1.8-0.1-7.7,9.6-10.6,18.5
				c-2.7,8.4-0.5,14.7,1.5,16.1c3.1,2.1,13.6-4.2,14.7-3.2c1.2,1.2,6.1,4.3,7.7,2.7c1.5-1.5-0.5-5.5,0.8-9.4
				C348.1,135.3,352.6,131.4,352.3,130z"/>
			<path class="st85" d="M351.3,130c-0.4-1.5-8-2.9-9.5-5.7c-2.3-4.3-6.3-9-9.7-9c-1.5,0-6.9,9.8-9.7,18.4c-2.6,7.8-0.4,13.4,1,14.6
				c2.8,2.4,13.2-4.1,14.2-3.1c1.1,1.2,5.9,4.6,7.4,3.1c1.3-1.4-0.7-5.3,0.6-9.2C346.8,134.9,351.6,131.3,351.3,130z"/>
		</g>
		<path class="st24" d="M330.2,112.1l5.3,10.7l11.8,1.7c1.8,0.3,2.2,1.5,0.9,2.8l-8.5,8.3l2,11.8c0.3,1.8-0.7,2.5-2.3,1.7l-10.6-5.5
			l-10.5,5.6c-1.6,0.9-2.7,0.1-2.4-1.7l2-11.8l-8.6-8.3c-1.3-1.3-0.9-2.5,0.9-2.8l11.8-1.7l5.3-10.7
			C328.1,110.5,329.4,110.5,330.2,112.1z"/>
		
			<linearGradient id="SVGID_2_" gradientUnits="userSpaceOnUse" x1="913.9783" y1="380.5526" x2="942.2075" y2="408.7818" gradientTransform="matrix(1 -1.400000e-03 1.400000e-03 1 -599.1525 -259.2441)">
			<stop  offset="0" style="stop-color:#FFCA36"/>
			<stop  offset="1" style="stop-color:#FF9D00"/>
		</linearGradient>
		<path class="st26" d="M330.9,112.8l5.3,10.7l11.8,1.7c1.8,0.3,2.2,1.5,0.9,2.8l-8.5,8.3l2,11.7c0.3,1.8-0.7,2.6-2.3,1.7l-10.6-5.5
			l-10.6,5.6c-1.6,0.9-2.7,0.1-2.4-1.7l2-11.8L310,128c-1.3-1.3-0.9-2.5,0.9-2.8l11.8-1.7l5.3-10.7
			C328.8,111.2,330.1,111.2,330.9,112.8z"/>
	</g>
	<g>
		<g class="st0">
			<path class="st2" d="M320.5,208.1c-1.3-4.8-7.7-12.3-11.8-16.3c-4.1-4-8.5-11.4-20.8-14.1c-8.5-1.8-28.9,5.8-32.6,24.7
				c-4.5,22.9-5.7,52.1,15.9,55.9c6.4,1.1,23.4-6.2,28.4-5.6c4.3,0.5,11.4-3.5,16.7-7.1c5.8-3.8,4.9-9.9,6.6-16.2
				C324.4,223.4,321.7,212.5,320.5,208.1z"/>
			<path class="st65" d="M319.4,208.1c-1.3-4.6-7.8-11.9-11.8-15.8c-4.1-4.1-8.4-11.4-20.3-13.9c-8.2-1.7-27.9,6.1-31.6,24.6
				c-4.4,22.2-5.4,50.2,15.1,54c6.2,1.2,23.1-6.2,27.8-5.5c4.1,0.6,11.1-3.1,16.3-6.6c5.6-3.7,4.7-9.7,6.3-16
				C322.9,222.9,320.6,212.4,319.4,208.1z"/>
			<path class="st66" d="M318.3,208c-1.2-4.5-7.9-11.4-11.8-15.4c-4-4.1-8.4-11.3-19.9-13.7c-7.8-1.7-26.9,6.4-30.6,24.4
				c-4.3,21.6-5.1,48.3,14.4,52.2c6.1,1.2,22.7-6.1,27.3-5.4c4,0.6,10.9-2.7,16-6.1c5.4-3.6,4.4-9.6,6-15.7
				C321.3,222.4,319.4,212.2,318.3,208z"/>
			<path class="st67" d="M317.2,208c-1.2-4.3-8-11-11.7-14.9c-4-4.1-8.3-11.3-19.4-13.6c-7.5-1.6-25.9,6.7-29.5,24.3
				c-4.3,20.9-4.9,46.5,13.7,50.3c6,1.2,22.3-6.1,26.7-5.3c3.8,0.6,10.7-2.3,15.6-5.6c5.2-3.5,4.1-9.4,5.7-15.4
				C319.8,221.9,318.3,212,317.2,208z"/>
			<path class="st68" d="M316.1,208c-1.1-4.2-8.1-10.6-11.7-14.4c-3.9-4.2-8.3-11.2-19-13.4c-7.2-1.5-24.9,6.9-28.5,24.1
				c-4.2,20.3-4.6,44.6,13,48.5c5.8,1.3,22-6,26.1-5.2c3.7,0.7,10.5-1.8,15.2-5.1c5-3.4,3.8-9.2,5.4-15.2
				C318.3,221.4,317.2,211.8,316.1,208z"/>
			<path class="st69" d="M315,207.9c-1.1-4-8.2-10.2-11.7-14c-3.8-4.2-8.2-11.2-18.6-13.2c-6.9-1.4-24,7.2-27.5,24
				c-4.2,19.6-4.3,42.8,12.3,46.7c5.7,1.3,21.6-5.9,25.6-5.1c3.6,0.7,10.3-1.4,14.8-4.5c4.8-3.3,3.5-9,5.2-14.9
				C316.7,220.9,316,211.7,315,207.9z"/>
			<path class="st70" d="M313.9,207.9c-1.1-3.9-8.3-9.7-11.6-13.5c-3.8-4.3-8.2-11.1-18.1-13.1c-6.6-1.3-23,7.5-26.5,23.8
				c-4.1,19-4,41,11.6,44.8c5.6,1.4,21.2-5.9,25-5c3.4,0.7,10.1-1,14.4-4c4.6-3.2,3.3-8.9,4.9-14.7
				C315.2,220.5,314.9,211.5,313.9,207.9z"/>
			<path class="st71" d="M312.8,207.8c-1-3.8-8.3-9.3-11.6-13.1c-3.7-4.3-8.1-11.1-17.7-12.9c-6.2-1.2-22,7.7-25.5,23.7
				c-4.1,18.3-3.8,39.2,10.9,43c5.4,1.4,20.8-5.8,24.5-5c3.3,0.8,9.9-0.6,14-3.5c4.4-3.1,3-8.7,4.6-14.4
				C313.7,220,313.8,211.3,312.8,207.8z"/>
			<path class="st72" d="M311.8,207.8c-1-3.6-8.4-8.9-11.6-12.6c-3.7-4.4-8.1-11-17.2-12.7c-5.9-1.1-21,8-24.5,23.5
				c-4,17.7-3.5,37.4,10.2,41.1c5.3,1.4,20.5-5.8,23.9-4.9c3.2,0.8,9.7-0.1,13.7-3c4.2-3,2.7-8.5,4.3-14.2
				C312.2,219.5,312.6,211.1,311.8,207.8z"/>
			<path class="st73" d="M310.7,207.8c-0.9-3.5-8.5-8.5-11.6-12.2c-3.6-4.4-8-11-16.8-12.6c-5.6-1-20,8.3-23.5,23.4
				c-3.9,17-3.2,35.6,9.5,39.3c5.2,1.5,20.1-5.7,23.4-4.8c3,0.9,9.5,0.3,13.3-2.5c4-2.9,2.5-8.3,4-13.9
				C310.6,219,311.5,210.9,310.7,207.8z"/>
			<path class="st74" d="M309.6,207.7c-0.9-3.3-8.6-8-11.5-11.7c-3.5-4.4-8-11-16.3-12.4c-5.3-0.9-19,8.6-22.5,23.3
				c-3.9,16.4-3,33.8,8.8,37.4c5.1,1.5,19.7-5.6,22.8-4.7c2.9,0.9,9.2,0.7,12.9-2c3.8-2.8,2.2-8.2,3.8-13.7
				C309.1,218.5,310.4,210.8,309.6,207.7z"/>
			<path class="st75" d="M308.5,207.7c-0.9-3.2-8.7-7.6-11.5-11.3c-3.5-4.5-7.9-10.9-15.9-12.2c-5-0.8-18.1,8.8-21.5,23.1
				c-3.8,15.7-2.7,32.1,8.1,35.6c4.9,1.6,19.3-5.6,22.3-4.6c2.7,0.9,9,1.2,12.5-1.5c3.6-2.7,1.9-8,3.5-13.4
				C307.6,218,309.3,210.6,308.5,207.7z"/>
			<path class="st76" d="M307.4,207.6c-0.8-3-8.8-7.2-11.5-10.8c-3.4-4.5-7.9-10.9-15.4-12.1c-4.7-0.7-17.1,9.1-20.5,23
				c-3.7,15.1-2.4,30.4,7.4,33.8c4.8,1.6,19-5.5,21.7-4.5c2.6,1,8.8,1.6,12.1-1c3.4-2.6,1.6-7.8,3.2-13.2
				C306,217.5,308.1,210.4,307.4,207.6z"/>
			<path class="st77" d="M306.3,207.6c-0.8-2.9-8.9-6.8-11.4-10.4c-3.3-4.6-7.8-10.8-15-11.9c-4.3-0.7-16.1,9.4-19.5,22.8
				c-3.7,14.4-2.2,28.7,6.7,31.9c4.7,1.7,18.6-5.5,21.1-4.4c2.5,1,8.6,2,11.8-0.4c3.2-2.5,1.4-7.6,2.9-12.9
				C304.5,217,307,210.2,306.3,207.6z"/>
			<path class="st78" d="M305.2,207.6c-0.7-2.8-8.9-6.4-11.4-9.9c-3.2-4.7-7.8-10.8-14.5-11.7c-4-0.6-15.1,9.6-18.5,22.7
				c-3.6,13.8-1.9,27,6,30.1c4.6,1.8,18.2-5.4,20.6-4.3c2.3,1.1,8.4,2.4,11.4,0.1c3-2.4,1.1-7.5,2.6-12.6
				C303,216.5,305.9,210.1,305.2,207.6z"/>
			<path class="st79" d="M304.1,207.5c-0.7-2.6-9-5.9-11.4-9.5c-3.2-4.7-7.7-10.8-14.1-11.6c-3.7-0.5-14.1,9.9-17.5,22.5
				c-3.5,13.1-1.7,25.3,5.3,28.2c4.4,1.8,17.9-5.3,20-4.2c2.2,1.1,8.2,2.9,11,0.6c2.8-2.3,0.8-7.3,2.4-12.4
				C301.5,216,304.7,209.9,304.1,207.5z"/>
			<path class="st80" d="M303,207.5c-0.6-2.5-9.1-5.5-11.4-9c-3.1-4.8-7.7-10.7-13.6-11.4c-3.4-0.4-13.1,10.2-16.5,22.4
				c-3.5,12.5-1.4,23.7,4.6,26.4c4.3,1.9,17.5-5.2,19.5-4.1c2,1.2,8,3.3,10.6,1.1c2.6-2.1,0.5-7.1,2.1-12.1
				C299.9,215.5,303.6,209.7,303,207.5z"/>
			<path class="st81" d="M301.9,207.4c-0.6-2.3-9.2-5.1-11.3-8.6c-3-4.8-7.6-10.7-13.2-11.2c-3.1-0.3-12.1,10.5-15.5,22.2
				c-3.4,11.8-1.2,22.1,3.9,24.5c4.2,2,17.1-5.2,18.9-4c1.9,1.2,7.8,3.7,10.2,1.6c2.4-2,0.3-7,1.8-11.9
				C298.4,215,302.5,209.5,301.9,207.4z"/>
			<path class="st82" d="M300.8,207.4c-0.5-2.2-9.2-4.7-11.3-8.1c-2.9-4.9-7.6-10.7-12.7-11.1c-2.7-0.2-11.1,10.7-14.5,22.1
				c-3.3,11.2-1,20.5,3.2,22.7c4,2.1,16.7-5.1,18.4-3.9c1.8,1.3,7.6,4.2,9.8,2.1c2.2-1.9,0-6.8,1.5-11.6
				C296.9,214.5,301.3,209.3,300.8,207.4z"/>
			<path class="st83" d="M299.8,207.4c-0.5-2-9.3-4.3-11.3-7.6c-2.9-4.9-7.5-10.6-12.3-10.9c-2.4-0.1-10.1,11-13.5,21.9
				c-3.2,10.5-0.8,18.9,2.5,20.8c3.9,2.3,16.4-5,17.8-3.8c1.6,1.3,7.3,4.6,9.5,2.6c2-1.8-0.3-6.6,1.2-11.4
				C295.3,214.1,300.2,209.2,299.8,207.4z"/>
			<path class="st84" d="M298.7,207.3c-0.5-1.9-9.4-3.9-11.2-7.2c-2.8-5-7.5-10.6-11.8-10.8c-2.1-0.1-9.1,11.3-12.5,21.8
				c-3.1,9.9-0.6,17.4,1.8,19c3.6,2.5,16-4.9,17.3-3.8c1.5,1.4,7.1,5,9.1,3.1c1.8-1.7-0.6-6.4,1-11.1
				C293.8,213.6,299.1,209,298.7,207.3z"/>
			<path class="st85" d="M297.6,207.3c-0.4-1.8-9.5-3.4-11.2-6.7c-2.7-5-7.4-10.6-11.4-10.6c-1.8,0-8.1,11.6-11.5,21.7
				c-3.1,9.2-0.5,15.8,1.1,17.2c3.3,2.8,15.6-4.9,16.7-3.7c1.3,1.4,6.9,5.5,8.7,3.7c1.6-1.6-0.8-6.3,0.7-10.9
				C292.3,213.1,297.9,208.8,297.6,207.3z"/>
		</g>
		<path class="st24" d="M272.7,186.2l6.2,12.6l13.9,2c2.1,0.3,2.6,1.8,1.1,3.2l-10,9.8l2.4,13.9c0.4,2.1-0.9,3-2.8,2l-12.5-6.5
			l-12.4,6.6c-1.9,1-3.1,0.1-2.8-2l2.4-13.9l-10.1-9.8c-1.5-1.5-1.1-2.9,1-3.2l13.9-2.1l6.2-12.6
			C270.2,184.3,271.8,184.3,272.7,186.2z"/>
		
			<linearGradient id="SVGID_3_" gradientUnits="userSpaceOnUse" x1="853.7036" y1="455.9824" x2="886.9538" y2="489.2326" gradientTransform="matrix(1 -1.400000e-03 1.400000e-03 1 -599.1525 -259.2441)">
			<stop  offset="0" style="stop-color:#FFCA36"/>
			<stop  offset="1" style="stop-color:#FF9D00"/>
		</linearGradient>
		<path class="st27" d="M273.5,187l6.2,12.6l13.9,2c2.1,0.3,2.6,1.8,1.1,3.2l-10,9.8l2.4,13.9c0.4,2.1-0.9,3-2.8,2l-12.5-6.5
			l-12.4,6.6c-1.9,1-3.1,0.1-2.8-2l2.4-13.9l-10.1-9.8c-1.5-1.5-1-2.9,1.1-3.2l13.9-2l6.2-12.6C271,185.1,272.6,185.1,273.5,187z"/>
	</g>
	<g>
		<g class="st0">
			<path class="st2" d="M429.1,232.4c-0.8-2.9-4.7-7.5-7.2-9.9c-2.5-2.4-5.2-6.9-12.6-8.5c-5.1-1.1-17.5,3.5-19.8,15
				c-2.7,13.9-3.5,31.6,9.6,34c3.9,0.7,14.2-3.8,17.2-3.4c2.6,0.3,6.9-2.2,10.2-4.3c3.5-2.3,3-6,4-9.9
				C431.5,241.7,429.9,235.1,429.1,232.4z"/>
			<path class="st65" d="M428.5,232.4c-0.8-2.8-4.7-7.2-7.2-9.6c-2.5-2.5-5.1-6.9-12.4-8.4c-5-1.1-16.9,3.7-19.2,14.9
				c-2.7,13.5-3.3,30.5,9.2,32.8c3.8,0.7,14-3.8,16.9-3.4c2.5,0.3,6.8-1.9,9.9-4c3.4-2.3,2.8-5.9,3.8-9.7
				C430.6,241.4,429.2,235,428.5,232.4z"/>
			<path class="st66" d="M427.8,232.4c-0.8-2.7-4.8-6.9-7.1-9.3c-2.4-2.5-5.1-6.9-12.1-8.3c-4.8-1-16.3,3.9-18.6,14.8
				c-2.6,13.1-3.1,29.4,8.8,31.7c3.7,0.7,13.8-3.7,16.6-3.3c2.4,0.4,6.7-1.6,9.7-3.7c3.3-2.2,2.7-5.8,3.7-9.5
				C429.7,241.1,428.5,234.9,427.8,232.4z"/>
			<path class="st67" d="M427.1,232.3c-0.7-2.6-4.9-6.7-7.1-9c-2.4-2.5-5.1-6.8-11.8-8.2c-4.6-0.9-15.7,4-18,14.7
				c-2.6,12.7-3,28.3,8.4,30.6c3.6,0.7,13.6-3.7,16.2-3.2c2.3,0.4,6.5-1.4,9.5-3.4c3.1-2.1,2.5-5.7,3.5-9.4
				C428.7,240.8,427.8,234.8,427.1,232.3z"/>
			<path class="st68" d="M426.5,232.3c-0.7-2.5-4.9-6.4-7.1-8.8c-2.4-2.5-5-6.8-11.6-8.1c-4.4-0.9-15.2,4.2-17.3,14.7
				c-2.6,12.3-2.8,27.1,7.9,29.5c3.5,0.8,13.3-3.7,15.9-3.2c2.2,0.4,6.4-1.1,9.2-3.1c3-2.1,2.3-5.6,3.3-9.2
				C427.8,240.5,427.1,234.7,426.5,232.3z"/>
			<path class="st69" d="M425.8,232.3c-0.7-2.4-5-6.2-7.1-8.5c-2.3-2.6-5-6.8-11.3-8c-4.2-0.8-14.6,4.4-16.7,14.6
				c-2.5,11.9-2.6,26,7.5,28.4c3.5,0.8,13.1-3.6,15.6-3.1c2.2,0.4,6.3-0.9,9-2.8c2.9-2,2.2-5.5,3.1-9.1
				C426.9,240.2,426.4,234.6,425.8,232.3z"/>
			<path class="st70" d="M425.2,232.3c-0.6-2.4-5-5.9-7.1-8.2c-2.3-2.6-5-6.8-11-7.9c-4-0.8-14,4.5-16.1,14.5
				c-2.5,11.5-2.5,24.9,7.1,27.2c3.4,0.8,12.9-3.6,15.2-3.1c2.1,0.5,6.1-0.6,8.8-2.4c2.8-1.9,2-5.4,3-8.9
				C425.9,239.9,425.7,234.5,425.2,232.3z"/>
			<path class="st71" d="M424.5,232.2c-0.6-2.3-5.1-5.7-7.1-7.9c-2.3-2.6-5-6.7-10.7-7.8c-3.8-0.7-13.4,4.7-15.5,14.4
				c-2.5,11.1-2.3,23.8,6.7,26.1c3.3,0.8,12.7-3.6,14.9-3c2,0.5,6-0.3,8.5-2.1c2.7-1.9,1.8-5.3,2.8-8.8
				C425,239.6,425.1,234.3,424.5,232.2z"/>
			<path class="st72" d="M423.8,232.2c-0.6-2.2-5.1-5.4-7-7.7c-2.2-2.6-4.9-6.7-10.5-7.7c-3.6-0.7-12.8,4.9-14.9,14.3
				c-2.4,10.7-2.1,22.7,6.2,25c3.2,0.9,12.4-3.5,14.5-3c1.9,0.5,5.9-0.1,8.3-1.8c2.5-1.8,1.7-5.2,2.6-8.6
				C424.1,239.3,424.4,234.2,423.8,232.2z"/>
			<path class="st73" d="M423.2,232.2c-0.6-2.1-5.2-5.1-7-7.4c-2.2-2.7-4.9-6.7-10.2-7.6c-3.4-0.6-12.2,5-14.3,14.2
				c-2.4,10.3-2,21.6,5.8,23.9c3.1,0.9,12.2-3.5,14.2-2.9c1.8,0.5,5.7,0.2,8.1-1.5c2.4-1.8,1.5-5.1,2.5-8.5
				C423.1,239,423.7,234.1,423.2,232.2z"/>
			<path class="st74" d="M422.5,232.2c-0.5-2-5.2-4.9-7-7.1c-2.1-2.7-4.9-6.7-9.9-7.5c-3.2-0.6-11.6,5.2-13.7,14.1
				c-2.4,9.9-1.8,20.6,5.4,22.8c3.1,0.9,12-3.4,13.9-2.9c1.7,0.5,5.6,0.4,7.8-1.2c2.3-1.7,1.3-5,2.3-8.3
				C422.2,238.7,423,234,422.5,232.2z"/>
			<path class="st75" d="M421.8,232.1c-0.5-1.9-5.3-4.6-7-6.8c-2.1-2.7-4.8-6.6-9.6-7.4c-3-0.5-11,5.4-13.1,14
				c-2.3,9.5-1.6,19.5,4.9,21.6c3,1,11.8-3.4,13.5-2.8c1.7,0.6,5.5,0.7,7.6-0.9c2.2-1.6,1.2-4.9,2.1-8.2
				C421.3,238.4,422.3,233.9,421.8,232.1z"/>
			<path class="st76" d="M421.2,232.1c-0.5-1.8-5.3-4.4-7-6.6c-2.1-2.8-4.8-6.6-9.4-7.3c-2.8-0.5-10.4,5.5-12.5,14
				c-2.3,9.2-1.5,18.5,4.5,20.5c2.9,1,11.5-3.4,13.2-2.7c1.6,0.6,5.4,1,7.4-0.6c2-1.6,1-4.8,1.9-8
				C420.4,238.1,421.6,233.8,421.2,232.1z"/>
			<path class="st77" d="M420.5,232.1c-0.5-1.8-5.4-4.1-7-6.3c-2-2.8-4.8-6.6-9.1-7.2c-2.6-0.4-9.8,5.7-11.8,13.9
				c-2.2,8.8-1.3,17.4,4.1,19.4c2.8,1,11.3-3.3,12.8-2.7c1.5,0.6,5.2,1.2,7.1-0.3c1.9-1.5,0.8-4.7,1.8-7.8
				C419.4,237.8,420.9,233.7,420.5,232.1z"/>
			<path class="st78" d="M419.9,232.1c-0.4-1.7-5.4-3.9-6.9-6c-2-2.8-4.7-6.6-8.8-7.1c-2.4-0.3-9.2,5.9-11.2,13.8
				c-2.2,8.4-1.2,16.4,3.7,18.3c2.8,1.1,11.1-3.3,12.5-2.6c1.4,0.7,5.1,1.5,6.9,0.1c1.8-1.4,0.7-4.5,1.6-7.7
				C418.5,237.5,420.2,233.6,419.9,232.1z"/>
			<path class="st79" d="M419.2,232c-0.4-1.6-5.5-3.6-6.9-5.7c-1.9-2.9-4.7-6.5-8.6-7c-2.2-0.3-8.6,6-10.6,13.7
				c-2.1,8-1,15.4,3.2,17.2c2.7,1.1,10.9-3.2,12.2-2.6c1.3,0.7,5,1.8,6.7,0.4c1.7-1.4,0.5-4.4,1.4-7.5
				C417.6,237.2,419.6,233.5,419.2,232z"/>
			<path class="st80" d="M418.5,232c-0.4-1.5-5.5-3.4-6.9-5.5c-1.9-2.9-4.7-6.5-8.3-6.9c-2-0.2-8,6.2-10,13.6
				c-2.1,7.6-0.9,14.4,2.8,16c2.6,1.2,10.6-3.2,11.8-2.5c1.2,0.7,4.8,2,6.4,0.7c1.6-1.3,0.3-4.3,1.3-7.4
				C416.6,236.9,418.9,233.4,418.5,232z"/>
			<path class="st81" d="M417.9,232c-0.4-1.4-5.6-3.1-6.9-5.2c-1.8-2.9-4.6-6.5-8-6.8c-1.9-0.2-7.4,6.4-9.4,13.5
				c-2.1,7.2-0.7,13.4,2.4,14.9c2.5,1.2,10.4-3.2,11.5-2.5c1.2,0.7,4.7,2.3,6.2,1c1.4-1.2,0.2-4.2,1.1-7.2
				C415.7,236.6,418.2,233.3,417.9,232z"/>
			<path class="st82" d="M417.2,232c-0.3-1.3-5.6-2.8-6.9-4.9c-1.8-3-4.6-6.5-7.7-6.7c-1.7-0.1-6.7,6.5-8.8,13.4
				c-2,6.8-0.6,12.5,2,13.8c2.4,1.3,10.2-3.1,11.2-2.4c1.1,0.8,4.6,2.5,6,1.3c1.3-1.2,0-4.1,0.9-7.1
				C414.8,236.3,417.5,233.2,417.2,232z"/>
			<path class="st83" d="M416.5,232c-0.3-1.2-5.7-2.6-6.8-4.6c-1.7-3-4.6-6.5-7.5-6.6c-1.5-0.1-6.1,6.7-8.2,13.3
				c-2,6.4-0.5,11.5,1.5,12.7c2.3,1.4,9.9-3.1,10.8-2.4c1,0.8,4.5,2.8,5.7,1.6c1.2-1.1-0.2-4,0.8-6.9
				C413.9,236,416.8,233.1,416.5,232z"/>
			<path class="st84" d="M415.9,231.9c-0.3-1.2-5.7-2.3-6.8-4.4c-1.7-3-4.5-6.4-7.2-6.5c-1.3,0-5.5,6.9-7.6,13.3
				c-1.9,6-0.4,10.6,1.1,11.6c2.2,1.5,9.7-3,10.5-2.3c0.9,0.8,4.3,3.1,5.5,1.9c1.1-1-0.3-3.9,0.6-6.8
				C412.9,235.7,416.1,232.9,415.9,231.9z"/>
			<path class="st85" d="M415.2,231.9c-0.3-1.1-5.8-2.1-6.8-4.1c-1.6-3.1-4.5-6.4-6.9-6.4c-1.1,0-4.9,7-7,13.2
				c-1.9,5.6-0.3,9.6,0.7,10.4c2,1.7,9.5-3,10.1-2.2c0.8,0.9,4.2,3.3,5.3,2.2c1-1-0.5-3.8,0.4-6.6
				C412,235.4,415.4,232.8,415.2,231.9z"/>
		</g>
		<path class="st24" d="M400.1,219.1l3.8,7.7l8.4,1.2c1.3,0.2,1.6,1.1,0.6,2l-6.1,6l1.5,8.4c0.2,1.3-0.5,1.8-1.7,1.2l-7.6-4l-7.6,4
			c-1.1,0.6-1.9,0.1-1.7-1.2l1.4-8.4l-6.1-6c-0.9-0.9-0.6-1.8,0.6-2l8.5-1.2l3.8-7.7C398.6,217.9,399.5,217.9,400.1,219.1z"/>
		
			<linearGradient id="SVGID_4_" gradientUnits="userSpaceOnUse" x1="987.9271" y1="485.3947" x2="1008.1409" y2="505.6085" gradientTransform="matrix(1 -1.400000e-03 1.400000e-03 1 -599.1525 -259.2441)">
			<stop  offset="0" style="stop-color:#FFCA36"/>
			<stop  offset="1" style="stop-color:#FF9D00"/>
		</linearGradient>
		<path class="st28" d="M400.6,219.6l3.8,7.7l8.4,1.2c1.3,0.2,1.6,1.1,0.6,2l-6.1,6l1.5,8.4c0.2,1.3-0.5,1.8-1.7,1.2l-7.6-4l-7.6,4
			c-1.1,0.6-1.9,0.1-1.7-1.2l1.4-8.4l-6.1-6c-0.9-0.9-0.6-1.8,0.6-2l8.4-1.2l3.8-7.7C399.1,218.4,400,218.4,400.6,219.6z"/>
	</g>
</g>
</svg>
