<?xml version="1.0" encoding="utf-8"?>
<!-- Generator: Adobe Illustrator 25.0.0, SVG Export Plug-In . SVG Version: 6.00 Build 0)  -->
<svg version="1.1" id="_x3C_Layer_x3E_" xmlns="http://www.w3.org/2000/svg" xmlns:xlink="http://www.w3.org/1999/xlink" x="0px"
	 y="0px" viewBox="0 0 309.4 500" style="enable-background:new 0 0 309.4 500;" xml:space="preserve">
<style type="text/css">
	.st0{opacity:0.1;}
	.st1{opacity:0.5;}
	.st2{opacity:0;fill:#FFFFFF;}
	.st3{opacity:4.761905e-02;fill:#F9FBFB;}
	.st4{opacity:9.523810e-02;fill:#F3F6F7;}
	.st5{opacity:0.1429;fill:#EEF2F4;}
	.st6{opacity:0.1905;fill:#E8EDF0;}
	.st7{opacity:0.2381;fill:#E2E9EC;}
	.st8{opacity:0.2857;fill:#DCE4E8;}
	.st9{opacity:0.3333;fill:#D7E0E5;}
	.st10{opacity:0.381;fill:#D1DCE1;}
	.st11{opacity:0.4286;fill:#CBD7DD;}
	.st12{opacity:0.4762;fill:#C5D3D9;}
	.st13{opacity:0.5238;fill:#C0CED6;}
	.st14{opacity:0.5714;fill:#BACAD2;}
	.st15{opacity:0.619;fill:#B4C5CE;}
	.st16{opacity:0.6667;fill:#AEC1CA;}
	.st17{opacity:0.7143;fill:#A9BDC7;}
	.st18{opacity:0.7619;fill:#A3B8C3;}
	.st19{opacity:0.8095;fill:#9DB4BF;}
	.st20{opacity:0.8571;fill:#97AFBB;}
	.st21{opacity:0.9048;fill:#92ABB8;}
	.st22{opacity:0.9524;fill:#8CA6B4;}
	.st23{fill:#86A2B0;}
	.st24{fill:#FFE3AB;}
	.st25{fill:url(#SVGID_1_);}
	.st26{fill:url(#SVGID_2_);}
	.st27{fill:url(#SVGID_3_);}
	.st28{fill:url(#SVGID_4_);}
	.st29{fill:url(#SVGID_5_);}
	.st30{fill:url(#SVGID_6_);}
	.st31{fill:url(#SVGID_7_);}
	.st32{fill:url(#SVGID_8_);}
	.st33{fill:url(#SVGID_9_);}
	.st34{fill:url(#SVGID_10_);}
	.st35{fill:url(#SVGID_11_);}
	.st36{fill:url(#SVGID_12_);}
	.st37{fill:url(#SVGID_13_);}
	.st38{fill:url(#SVGID_14_);}
	.st39{fill:url(#SVGID_15_);}
	.st40{fill:url(#SVGID_16_);}
	.st41{opacity:2.380952e-02;fill:#F9FBFB;}
	.st42{opacity:4.761905e-02;fill:#F3F6F7;}
	.st43{opacity:7.142857e-02;fill:#EEF2F4;}
	.st44{opacity:9.523810e-02;fill:#E8EDF0;}
	.st45{opacity:0.119;fill:#E2E9EC;}
	.st46{opacity:0.1429;fill:#DCE4E8;}
	.st47{opacity:0.1667;fill:#D7E0E5;}
	.st48{opacity:0.1905;fill:#D1DCE1;}
	.st49{opacity:0.2143;fill:#CBD7DD;}
	.st50{opacity:0.2381;fill:#C5D3D9;}
	.st51{opacity:0.2619;fill:#C0CED6;}
	.st52{opacity:0.2857;fill:#BACAD2;}
	.st53{opacity:0.3095;fill:#B4C5CE;}
	.st54{opacity:0.3333;fill:#AEC1CA;}
	.st55{opacity:0.3571;fill:#A9BDC7;}
	.st56{opacity:0.381;fill:#A3B8C3;}
	.st57{opacity:0.4048;fill:#9DB4BF;}
	.st58{opacity:0.4286;fill:#97AFBB;}
	.st59{opacity:0.4524;fill:#92ABB8;}
	.st60{opacity:0.4762;fill:#8CA6B4;}
	.st61{opacity:0.5;fill:#86A2B0;}
	.st62{fill:url(#SVGID_17_);}
	.st63{opacity:0.15;}
	.st64{fill:url(#SVGID_18_);}
	.st65{opacity:2.857143e-02;fill:#F9FBFB;}
	.st66{opacity:5.714286e-02;fill:#F3F6F7;}
	.st67{opacity:8.571429e-02;fill:#EEF2F4;}
	.st68{opacity:0.1143;fill:#E8EDF0;}
	.st69{opacity:0.1429;fill:#E2E9EC;}
	.st70{opacity:0.1714;fill:#DCE4E8;}
	.st71{opacity:0.2;fill:#D7E0E5;}
	.st72{opacity:0.2286;fill:#D1DCE1;}
	.st73{opacity:0.2571;fill:#CBD7DD;}
	.st74{opacity:0.2857;fill:#C5D3D9;}
	.st75{opacity:0.3143;fill:#C0CED6;}
	.st76{opacity:0.3429;fill:#BACAD2;}
	.st77{opacity:0.3714;fill:#B4C5CE;}
	.st78{opacity:0.4;fill:#AEC1CA;}
	.st79{opacity:0.4286;fill:#A9BDC7;}
	.st80{opacity:0.4571;fill:#A3B8C3;}
	.st81{opacity:0.4857;fill:#9DB4BF;}
	.st82{opacity:0.5143;fill:#97AFBB;}
	.st83{opacity:0.5429;fill:#92ABB8;}
	.st84{opacity:0.5714;fill:#8CA6B4;}
	.st85{opacity:0.6;fill:#86A2B0;}
	.st86{fill:url(#SVGID_19_);}
	.st87{fill:url(#SVGID_20_);}
	.st88{fill:url(#SVGID_21_);}
	.st89{opacity:0.2;}
	.st90{opacity:9.523810e-02;fill:#F4F6F8;}
	.st91{opacity:0.1905;fill:#E9EDF1;}
	.st92{opacity:0.2381;fill:#E3E9ED;}
	.st93{opacity:0.2857;fill:#DEE5EA;}
	.st94{opacity:0.3333;fill:#D8E0E6;}
	.st95{opacity:0.381;fill:#D3DCE3;}
	.st96{opacity:0.4286;fill:#CDD8DF;}
	.st97{opacity:0.4762;fill:#C8D3DC;}
	.st98{opacity:0.5238;fill:#C2CFD8;}
	.st99{opacity:0.5714;fill:#BDCAD5;}
	.st100{opacity:0.619;fill:#B7C6D1;}
	.st101{opacity:0.6667;fill:#B2C2CE;}
	.st102{opacity:0.7143;fill:#ACBDCA;}
	.st103{opacity:0.7619;fill:#A7B9C7;}
	.st104{opacity:0.8095;fill:#A1B5C3;}
	.st105{opacity:0.8571;fill:#9CB0C0;}
	.st106{opacity:0.9048;fill:#96ACBC;}
	.st107{opacity:0.9524;fill:#91A7B9;}
	.st108{fill:#8BA3B5;}
	.st109{fill:#EEF7FA;}
	.st110{fill:#E4F1F5;}
	.st111{fill:#FFFFFF;}
	.st112{fill:#E9F2F5;}
	.st113{opacity:0.3;}
	.st114{fill:url(#SVGID_22_);}
	.st115{fill:url(#SVGID_23_);}
	.st116{fill:url(#SVGID_24_);}
	.st117{fill:url(#SVGID_25_);}
	.st118{fill:url(#SVGID_26_);}
	.st119{fill:url(#SVGID_27_);}
	.st120{fill:url(#SVGID_28_);}
	.st121{fill:url(#SVGID_29_);}
	.st122{fill:url(#SVGID_30_);}
	.st123{fill:url(#SVGID_31_);}
	.st124{fill:url(#SVGID_32_);}
	.st125{fill:url(#SVGID_33_);}
	.st126{fill:url(#SVGID_34_);}
	.st127{fill:url(#SVGID_35_);}
	.st128{fill:url(#SVGID_36_);}
	.st129{fill:url(#SVGID_37_);}
	.st130{fill:url(#SVGID_38_);}
	.st131{fill:url(#SVGID_39_);}
	.st132{opacity:5.000000e-02;}
	.st133{opacity:0;fill:#515151;}
	.st134{opacity:4.761905e-02;fill:#545556;}
	.st135{opacity:9.523810e-02;fill:#57595B;}
	.st136{opacity:0.1429;fill:#595D5F;}
	.st137{opacity:0.1905;fill:#5C6164;}
	.st138{opacity:0.2381;fill:#5F6569;}
	.st139{opacity:0.2857;fill:#62686E;}
	.st140{opacity:0.3333;fill:#646C72;}
	.st141{opacity:0.381;fill:#677077;}
	.st142{opacity:0.4286;fill:#6A747C;}
	.st143{opacity:0.4762;fill:#6D7881;}
	.st144{opacity:0.5238;fill:#6F7C85;}
	.st145{opacity:0.5714;fill:#72808A;}
	.st146{opacity:0.619;fill:#75848F;}
	.st147{opacity:0.6667;fill:#788894;}
	.st148{opacity:0.7143;fill:#7A8C98;}
	.st149{opacity:0.7619;fill:#7D8F9D;}
	.st150{opacity:0.8095;fill:#8093A2;}
	.st151{opacity:0.8571;fill:#8397A7;}
	.st152{opacity:0.9048;fill:#859BAB;}
	.st153{opacity:0.9524;fill:#889FB0;}
	.st154{fill:#008DD4;}
	.st155{fill:url(#SVGID_40_);}
	.st156{fill:#4FC5FF;}
	.st157{fill:url(#SVGID_41_);}
	.st158{fill:url(#SVGID_42_);}
	.st159{fill:#63CCFF;}
	.st160{fill:#007FC9;}
	.st161{fill:#6ED8FF;}
	.st162{fill:#008CDE;}
	.st163{fill:#B3EDFF;}
	.st164{fill:#61D7FF;}
	.st165{fill:url(#SVGID_43_);}
	.st166{fill:url(#SVGID_44_);}
	.st167{opacity:2.580645e-02;fill:#505051;}
	.st168{opacity:5.161290e-02;fill:#4E4F51;}
	.st169{opacity:7.741936e-02;fill:#4D4F50;}
	.st170{opacity:0.1032;fill:#4C4E50;}
	.st171{opacity:0.129;fill:#4B4D50;}
	.st172{opacity:0.1548;fill:#494C50;}
	.st173{opacity:0.1806;fill:#484B4F;}
	.st174{opacity:0.2065;fill:#474B4F;}
	.st175{opacity:0.2323;fill:#464A4F;}
	.st176{opacity:0.2581;fill:#44494F;}
	.st177{opacity:0.2839;fill:#43484F;}
	.st178{opacity:0.3097;fill:#42474E;}
	.st179{opacity:0.3355;fill:#41474E;}
	.st180{opacity:0.3613;fill:#3F464E;}
	.st181{opacity:0.3871;fill:#3E454E;}
	.st182{opacity:0.4129;fill:#3D444D;}
	.st183{opacity:0.4387;fill:#3C434D;}
	.st184{opacity:0.4645;fill:#3A424D;}
	.st185{opacity:0.4903;fill:#39424D;}
	.st186{opacity:0.5161;fill:#38414C;}
	.st187{opacity:0.5419;fill:#37404C;}
	.st188{opacity:0.5677;fill:#353F4C;}
	.st189{opacity:0.5935;fill:#343E4C;}
	.st190{opacity:0.6194;fill:#333E4C;}
	.st191{opacity:0.6452;fill:#323D4B;}
	.st192{opacity:0.671;fill:#303C4B;}
	.st193{opacity:0.6968;fill:#2F3B4B;}
	.st194{opacity:0.7226;fill:#2E3A4B;}
	.st195{opacity:0.7484;fill:#2D3A4A;}
	.st196{opacity:0.7742;fill:#2B394A;}
	.st197{opacity:0.8;fill:#2A384A;}
	.st198{fill:url(#SVGID_45_);}
	.st199{fill:url(#SVGID_46_);}
	.st200{fill:#91D5EB;}
	.st201{fill:#E1F0FA;}
	.st202{fill:#9DDEF2;}
	.st203{fill:#A2DEF2;}
	.st204{fill:#BEE9F7;}
	.st205{fill:#C8EEFA;}
	.st206{fill:url(#SVGID_47_);}
	.st207{opacity:0.3;fill:url(#SVGID_48_);}
	.st208{opacity:2.580645e-02;fill:#FBFCFC;}
	.st209{opacity:5.161290e-02;fill:#F7F9FA;}
	.st210{opacity:7.741936e-02;fill:#F3F6F7;}
	.st211{opacity:0.1032;fill:#EFF3F5;}
	.st212{opacity:0.129;fill:#EBF0F2;}
	.st213{opacity:0.1548;fill:#E8EDF0;}
	.st214{opacity:0.1806;fill:#E4EAED;}
	.st215{opacity:0.2065;fill:#E0E7EB;}
	.st216{opacity:0.2323;fill:#DCE4E8;}
	.st217{opacity:0.2581;fill:#D8E1E6;}
	.st218{opacity:0.2839;fill:#D4DEE3;}
	.st219{opacity:0.3097;fill:#D0DBE0;}
	.st220{opacity:0.3355;fill:#CCD8DE;}
	.st221{opacity:0.3613;fill:#C8D5DB;}
	.st222{opacity:0.3871;fill:#C4D2D9;}
	.st223{opacity:0.4129;fill:#C1CFD6;}
	.st224{opacity:0.4387;fill:#BDCCD4;}
	.st225{opacity:0.4645;fill:#B9C9D1;}
	.st226{opacity:0.4903;fill:#B5C6CF;}
	.st227{opacity:0.5161;fill:#B1C3CC;}
	.st228{opacity:0.5419;fill:#ADC0C9;}
	.st229{opacity:0.5677;fill:#A9BDC7;}
	.st230{opacity:0.5935;fill:#A5BAC4;}
	.st231{opacity:0.6194;fill:#A1B7C2;}
	.st232{opacity:0.6452;fill:#9DB4BF;}
	.st233{opacity:0.671;fill:#9AB1BD;}
	.st234{opacity:0.6968;fill:#96AEBA;}
	.st235{opacity:0.7226;fill:#92ABB8;}
	.st236{opacity:0.7484;fill:#8EA8B5;}
	.st237{opacity:0.7742;fill:#8AA5B3;}
	.st238{opacity:0.8;fill:#86A2B0;}
	.st239{fill:url(#SVGID_49_);}
	.st240{clip-path:url(#SVGID_51_);}
	.st241{fill:#0A4D80;}
	.st242{fill:url(#SVGID_52_);}
	.st243{clip-path:url(#SVGID_54_);}
</style>
<g>
	<g class="st1">
		<path class="st2" d="M53.9,337.8C50,297.9,65.3,59.4,103.5,61.6c46.8,2.7,84.4,120.7,95.4,151.1c15.4,42.6,40.6,48.2,61.1,70.7
			c33.4,36.7,70.6,110.3,34.9,162.8c-33,48.5-121.1,57.1-192.3,7.7C38.6,409.6,56.1,361.1,53.9,337.8z"/>
		<path class="st208" d="M103.7,63.7c45.8,2.6,82,120.1,93.2,150.2c15.4,41.8,40.3,47.6,60.4,69.9c32.8,36.3,68.9,108.4,34.2,160.1
			c-32.1,47.6-118.2,57-188.2,8.9c-63.1-43.2-46.4-91.3-48.6-114.2C50.8,299.5,66.4,61.6,103.7,63.7z"/>
		<path class="st209" d="M103.8,65.9c44.8,2.6,79.7,119.5,91,149.4c15.5,41,39.9,47.1,59.7,69.1c32.2,35.8,67.3,106.5,33.5,157.3
			c-31.2,46.7-115.4,56.9-184.1,10.1c-62.3-42.1-46.5-89.8-48.6-112.2C51.6,301.1,67.4,63.8,103.8,65.9z"/>
		<path class="st210" d="M104,68c43.8,2.5,77.4,118.8,88.9,148.5c15.5,40.2,39.6,46.6,59,68.3c31.6,35.4,65.7,104.6,32.8,154.6
			c-30.3,45.7-112.4,56.6-180,11.3c-61.5-41.1-46.5-88.2-48.6-110.3C52.5,302.7,68.5,66,104,68z"/>
		<path class="st211" d="M104.2,70.2c42.8,2.4,75,118.2,86.7,147.7c15.6,39.4,39.3,46,58.3,67.5c31,35,64.1,102.7,32.2,151.9
			c-29.3,44.8-109.5,56.4-176,12.5c-60.7-40-46.5-86.7-48.6-108.3C53.3,304.4,69.5,68.2,104.2,70.2z"/>
		<path class="st212" d="M104.3,72.3c41.8,2.4,72.7,117.5,84.5,146.8c15.6,38.6,38.9,45.5,57.6,66.7
			c30.4,34.6,62.6,100.9,31.5,149.1c-28.3,43.9-106.6,56.2-171.9,13.7c-59.8-38.9-46.6-85.1-48.5-106.4
			C54.1,306,70.6,70.4,104.3,72.3z"/>
		<path class="st213" d="M104.5,74.5c40.9,2.3,70.3,116.9,82.3,146c15.6,37.8,38.6,44.9,56.9,65.9c29.8,34.1,61,99,30.8,146.4
			c-27.4,43-103.7,56-167.8,15c-59-37.8-46.6-83.6-48.5-104.4C54.9,307.6,71.6,72.6,104.5,74.5z"/>
		<path class="st214" d="M104.7,76.6c39.9,2.3,68,116.3,80.2,145.1c15.6,37,38.3,44.4,56.2,65.1c29.2,33.7,59.4,97.1,30.1,143.7
			c-26.5,42.1-100.8,55.8-163.7,16.2C49.2,410,60.8,364.6,59,344.2C55.7,309.2,72.7,74.8,104.7,76.6z"/>
		<path class="st215" d="M104.9,78.7c38.9,2.2,65.6,115.6,78,144.3c15.6,36.2,37.9,43.8,55.5,64.3c28.6,33.3,57.8,95.2,29.4,140.9
			c-25.6,41.2-97.9,55.6-159.6,17.4C50.7,410,61.5,365.1,59.7,345.1C56.6,310.8,73.7,77,104.9,78.7z"/>
		<path class="st216" d="M105,80.9c37.9,2.2,63.2,115,75.8,143.4c15.6,35.4,37.6,43.3,54.8,63.5c28,32.9,56.2,93.4,28.7,138.2
			c-24.6,40.2-95,55.4-155.5,18.6c-56.6-34.5-46.7-79-48.4-98.6C57.4,312.4,74.8,79.2,105,80.9z"/>
		<path class="st217" d="M105.2,83c36.9,2.1,60.9,114.3,73.6,142.6c15.6,34.6,37.3,42.7,54.1,62.7c27.4,32.4,54.6,91.5,28.1,135.5
			c-23.7,39.3-92.1,55.3-151.4,19.8c-55.8-33.4-46.7-77.4-48.4-96.6C58.2,314,75.8,81.4,105.2,83z"/>
		<path class="st218" d="M105.4,85.2c35.9,2,58.5,113.7,71.5,141.7c15.6,33.8,37,42.2,53.4,61.9c26.8,32,53,89.6,27.4,132.8
			c-22.8,38.4-89.2,55.1-147.3,21c-55-32.3-46.7-75.9-48.4-94.7C59,315.6,76.9,83.6,105.4,85.2z"/>
		<path class="st219" d="M105.6,87.3c34.9,2,56.1,113.1,69.3,140.9c15.6,33.1,36.6,41.6,52.7,61.1c26.2,31.6,51.4,87.7,26.7,130
			c-21.9,37.5-86.3,54.9-143.3,22.2c-54.2-31.2-46.8-74.3-48.4-92.7C59.8,317.2,77.9,85.7,105.6,87.3z"/>
		<path class="st220" d="M105.7,89.5c33.9,1.9,53.8,112.4,67.1,140c15.6,32.3,36.3,41.1,52,60.3c25.6,31.2,49.8,85.8,26,127.3
			c-21,36.5-83.4,54.8-139.2,23.4c-53.4-30.1-46.8-72.8-48.3-90.8C60.7,318.8,79,87.9,105.7,89.5z"/>
		<path class="st221" d="M105.9,91.6c32.9,1.9,51.4,111.8,64.9,139.2c15.6,31.5,36,40.6,51.3,59.5c25,30.7,48.2,83.9,25.3,124.6
			c-20,35.6-80.5,54.6-135.1,24.6c-52.6-28.9-46.8-71.2-48.3-88.8C61.5,320.4,80,90.1,105.9,91.6z"/>
		<path class="st222" d="M106.1,93.8c32,1.8,49,111.2,62.8,138.3c15.5,30.7,35.6,40,50.6,58.7c24.3,30.3,46.6,82,24.6,121.8
			c-19.1,34.7-77.6,54.4-131,25.8c-51.8-27.8-46.9-69.7-48.3-86.9C62.3,322,81.1,92.3,106.1,93.8z"/>
		<path class="st223" d="M106.2,95.9c31,1.8,46.6,110.5,60.6,137.5c15.5,29.9,35.3,39.5,49.9,57.9c23.7,29.9,45,80.2,24,119.1
			c-18.2,33.7-74.8,54.3-126.9,27c-51.1-26.7-46.9-68.1-48.3-84.9C63.1,323.6,82.1,94.5,106.2,95.9z"/>
		<path class="st224" d="M106.4,98c30,1.7,44.2,109.9,58.4,136.6c15.5,29.2,35,38.9,49.2,57.1c23.1,29.5,43.4,78.3,23.3,116.4
			c-17.3,32.8-71.9,54.1-122.8,28.2c-50.3-25.6-46.9-66.6-48.2-83C63.9,325.3,83.2,96.7,106.4,98z"/>
		<path class="st225" d="M106.6,100.2c29,1.7,41.8,109.3,56.2,135.8c15.4,28.4,34.6,38.4,48.5,56.3c22.5,29,41.8,76.4,22.6,113.6
			c-16.4,31.9-69,54-118.7,29.4c-49.5-24.5-46.9-65-48.2-81C64.8,326.9,84.2,98.9,106.6,100.2z"/>
		<path class="st226" d="M106.8,102.3c28,1.6,39.4,108.6,54.1,134.9c15.4,27.6,34.3,37.8,47.8,55.5c21.9,28.6,40.1,74.5,21.9,110.9
			c-15.5,30.9-66.1,53.8-114.6,30.6c-48.7-23.3-47-63.5-48.2-79.1C65.6,328.5,85.3,101.1,106.8,102.3z"/>
		<path class="st227" d="M106.9,104.5c27,1.5,37,108,51.9,134.1c15.3,26.9,34,37.3,47.1,54.7c21.3,28.2,38.5,72.6,21.2,108.2
			c-14.6,30-63.3,53.7-110.6,31.8c-47.9-22.2-47-61.9-48.2-77.1C66.4,330.1,86.3,103.3,106.9,104.5z"/>
		<path class="st228" d="M107.1,106.6c26,1.5,34.6,107.4,49.7,133.2c15.3,26.1,33.7,36.7,46.4,53.9c20.7,27.8,36.9,70.7,20.5,105.4
			c-13.7,29-60.4,53.5-106.5,33c-47.2-21-47-60.4-48.2-75.2C67.2,331.7,87.4,105.5,107.1,106.6z"/>
		<path class="st229" d="M107.3,108.8c25,1.4,32.2,106.8,47.5,132.4c15.2,25.3,33.3,36.2,45.7,53.1c20.1,27.4,35.3,68.8,19.9,102.7
			c-12.8,28.1-57.6,53.4-102.4,34.2c-46.4-19.9-47.1-58.8-48.1-73.2C68,333.3,88.4,107.7,107.3,108.8z"/>
		<path class="st230" d="M107.4,110.9c24.1,1.4,29.8,106.2,45.4,131.5c15.1,24.6,33,35.6,45,52.3c19.5,26.9,33.7,66.9,19.2,100
			c-11.9,27.2-54.7,53.3-98.3,35.4c-45.6-18.7-47.1-57.3-48.1-71.3C68.9,334.9,89.4,109.9,107.4,110.9z"/>
		<path class="st231" d="M107.6,113c23.1,1.3,27.3,105.6,43.2,130.7c15.1,23.8,32.7,35.1,44.3,51.4c18.9,26.5,32,65,18.5,97.2
			c-11,26.2-51.8,53.2-94.2,36.6c-44.9-17.6-47.1-55.7-48.1-69.3C69.7,336.5,90.5,112.1,107.6,113z"/>
		<path class="st232" d="M107.8,115.2c22.1,1.3,24.9,105,41,129.8c15,23.1,32.3,34.6,43.6,50.6c18.3,26.1,30.4,63.1,17.8,94.5
			c-10.1,25.3-49,53.1-90.1,37.8C76,411.6,73,373.8,72.1,360.6C70.5,338.1,91.5,114.3,107.8,115.2z"/>
		<path class="st233" d="M108,117.3c21.1,1.2,22.5,104.4,38.8,129c14.9,22.4,32,34,42.9,49.8c17.7,25.7,28.7,61.1,17.1,91.8
			c-9.2,24.3-46.1,53-86,39c-43.4-15.2-47.2-52.6-48-65.4C71.3,339.7,92.6,116.5,108,117.3z"/>
		<path class="st234" d="M108.1,119.5c20.1,1.1,20,103.8,36.7,128.1c14.8,21.6,31.7,33.5,42.2,49c17.1,25.2,27.1,59.2,16.4,89
			c-8.3,23.4-43.3,52.9-81.9,40.2c-42.6-14-47.2-51.1-48-63.5C72.1,341.3,93.6,118.6,108.1,119.5z"/>
		<path class="st235" d="M108.3,121.6c19.1,1.1,17.6,103.2,34.5,127.3c14.7,20.9,31.3,32.9,41.5,48.2c16.5,24.8,25.4,57.3,15.8,86.3
			c-7.5,22.4-40.4,52.9-77.9,41.4c-41.8-12.8-47.2-49.6-48-61.5C72.9,342.9,94.7,120.8,108.3,121.6z"/>
		<path class="st236" d="M108.5,123.8c18.1,1,15.1,102.6,32.3,126.4c14.6,20.2,31,32.4,40.8,47.4c15.9,24.4,23.8,55.4,15.1,83.6
			c-6.6,21.5-37.6,52.8-73.8,42.6c-41.1-11.6-47.3-48-48-59.6C73.8,344.5,95.7,123,108.5,123.8z"/>
		<path class="st237" d="M108.6,125.9c17.1,1,12.6,102.1,30.2,125.6c14.5,19.4,30.7,31.8,40.1,46.6c15.3,24,22.1,53.5,14.4,80.8
			c-5.8,20.5-34.8,52.7-69.7,43.8c-40.3-10.3-47.3-46.5-47.9-57.6C74.6,346.2,96.8,125.2,108.6,125.9z"/>
		<path class="st238" d="M108.8,128c16.2,0.9,10.1,101.5,28,124.7c14.4,18.7,30.4,31.3,39.4,45.8c14.7,23.5,20.4,51.6,13.7,78.1
			c-4.9,19.6-31.9,52.7-65.6,45c-39.6-9-47.3-44.9-47.9-55.7C75.4,347.8,97.8,127.4,108.8,128z"/>
	</g>
	<path class="st204" d="M120.8,361.8c-12.4,0-22.5-10.1-22.5-22.5V52.9c0-12.4,10.1-22.5,22.5-22.5s22.5,10.1,22.5,22.5v286.4
		C143.3,351.7,133.2,361.8,120.8,361.8z"/>
	<linearGradient id="SVGID_1_" gradientUnits="userSpaceOnUse" x1="96.0101" y1="278.6117" x2="201.3538" y2="375.3412">
		<stop  offset="0" style="stop-color:#FF1A1A"/>
		<stop  offset="0.9955" style="stop-color:#D40000"/>
	</linearGradient>
	<path class="st25" d="M143.3,295.6V117.8H98.3v177.9c-38.9,10-67.8,45.3-67.8,87.4c0,49.8,40.5,90.3,90.4,90.3s90.4-40.5,90.4-90.3
		C211.2,341,182.3,305.7,143.3,295.6z"/>
	<g>
		<defs>
			<path id="SVGID_50_" d="M143.3,295.6V177.5V52.9c0-12.4-10.1-22.5-22.5-22.5S98.3,40.5,98.3,52.9v124.6v118.2
				c-38.9,10-67.8,45.3-67.8,87.4c0,49.8,40.5,90.3,90.4,90.3s90.4-40.5,90.4-90.3C211.2,341,182.3,305.7,143.3,295.6z"/>
		</defs>
		<clipPath id="SVGID_2_">
			<use xlink:href="#SVGID_50_"  style="overflow:visible;"/>
		</clipPath>
		<g style="clip-path:url(#SVGID_2_);">
			<path class="st2" d="M117.4,383c-12.6,28.3-4.4,64.4,0,84.3c10,45-56.4,44-81.8,29.8c-88.1-49.2-69.5-153-51.4-180
				c19.6-29.4,43.7-44.9,65.3-75.8c10.5-14.9,16.3-96.7,18.3-158.8C68.6,58.4,59.8,40,91.6,3.9c16.1-18.3,84.8-9,63.8,26.5
				c-18.3,30.8-10.7,56-12,84.4c-2,41.4,9.3,164.6-2.4,201.8C131.5,346.5,126.3,363.1,117.4,383z"/>
			<path class="st3" d="M113.9,381.2c-12.9,28.4-4.5,64.9,0,84.3c10.3,44-54.3,42.5-78.8,28.5c-84-47.8-66.9-148.1-49.3-175
				c19.2-29.1,44.3-45.4,65-75.6c10.4-15.1,15.9-98.9,17.8-160.6c0.8-24.1-7.3-42.7,23.2-77.5c16.1-18.4,82.4-9,61.7,25.3
				c-17.7,29.6-10.9,54.3-12.1,82.5c-1.8,42.3,9.1,166.6-2.4,202.5C129.8,344.7,123.4,360.4,113.9,381.2z"/>
			<path class="st90" d="M110.4,379.4c-13.2,28.5-4.7,65.5-0.1,84.3c10.5,43-52.2,40.9-75.9,27.2C-45.5,444.5-29.9,347.6-12.7,321
				c18.7-28.9,45-45.8,64.8-75.5c10.3-15.4,15.4-101.1,17.3-162.4C70.1,59,62.7,40.3,92,6.9c16.2-18.5,79.9-9.1,59.7,24
				c-17.3,28.3-11,52.7-12.2,80.7c-1.7,43.2,8.9,168.6-2.3,203.2C128.1,343,120.4,357.8,110.4,379.4z"/>
			<path class="st5" d="M106.9,377.6c-13.5,28.7-4.8,66-0.1,84.3c10.7,42-50.2,39.4-72.9,25.9C-42,442.8-27.9,349.4-11.1,323
				c18.2-28.6,45.6-46.3,64.5-75.4c10.2-15.6,15-103.3,16.8-164.2c0.7-24-6.1-43,22-75c16.2-18.6,77.5-9.2,57.7,22.7
				c-16.8,27-11.2,51-12.3,78.9c-1.6,44.1,8.6,170.6-2.3,203.9C126.3,341.3,117.5,355.2,106.9,377.6z"/>
			<path class="st91" d="M103.4,375.7c-13.8,28.8-4.9,66.5-0.2,84.3c11,41-48.1,37.8-70,24.6c-71.8-43.5-59.2-133.4-42.8-159.7
				c17.7-28.3,46.2-46.8,64.3-75.3C64.8,233.8,69.3,144.2,71,83.6c0.7-23.9-5.4-43,21.4-73.7c16.3-18.6,75-9.2,55.7,21.5
				c-16.2,25.8-11.3,49.4-12.3,77.1c-1.4,45,8.5,172.6-2.3,204.6C124.7,339.6,114.5,352.6,103.4,375.7z"/>
			<path class="st92" d="M99.9,373.9c-14,28.9-5.1,67.1-0.2,84.3c11.3,40-46,36.3-67,23.3c-67.7-42-56.6-128.5-40.6-154.6
				c17.2-28.1,46.8-47.3,64-75.1c10-16.2,14.2-107.7,15.8-167.9C72.5,60,67,40.7,92.7,11.3c16.3-18.7,72.6-9.3,53.7,20.2
				c-15.7,24.5-11.6,47.7-12.4,75.3c-1.4,45.9,8.3,174.6-2.2,205.4C122.9,337.9,111.6,349.9,99.9,373.9z"/>
			<path class="st93" d="M96.4,372.1c-14.3,29-5.2,67.6-0.2,84.3c11.6,39-43.9,34.8-64,21.9c-63.6-40.5-54-123.6-38.5-149.5
				C10.4,301,41,281,57.4,253.8C67.3,237.4,71.1,144,72.7,84.1c0.6-23.8-4.2-43.3,20.2-71.3c16.4-18.8,70.2-9.3,51.6,19
				C129.3,55,132.8,77.9,132,105.3c-1.3,46.8,8,176.6-2.2,206.1C121.2,336.1,108.6,347.3,96.4,372.1z"/>
			<path class="st94" d="M92.9,370.3c-14.6,29.2-5.3,68.1-0.3,84.3c11.8,38.1-41.8,33.3-61.1,20.6C-28,436.3-19.9,356.5-4.8,330.8
				c16.2-27.5,48-48.4,63.5-74.9C68.5,239.2,72,143.8,73.5,84.3c0.6-23.7-3.6-43.4,19.6-70c16.4-18.9,67.7-9.4,49.6,17.7
				c-14.7,22-11.9,44.4-12.6,71.6c-1.2,47.7,7.8,178.5-2.2,206.8C119.5,334.4,105.7,344.7,92.9,370.3z"/>
			<path class="st95" d="M89.4,368.5c-14.8,29.3-5.4,68.6-0.3,84.3c12.1,37.1-39.7,31.7-58.1,19.3c-55.5-37.3-48.8-113.8-34.2-139.3
				C12.6,305.5,45.3,283.8,60,258c9.7-17,12.9-114.3,14.3-173.4c0.6-23.6-3-43.5,19-68.8c16.5-18.9,65.3-9.4,47.6,16.5
				c-14.2,20.7-12.1,42.8-12.6,69.8c-1,48.6,7.6,180.5-2.1,207.5C117.8,332.7,102.8,342.1,89.4,368.5z"/>
			<path class="st96" d="M85.9,366.6c-15.1,29.4-5.6,69.2-0.4,84.3c12.4,36.1-37.6,30.2-55.2,18c-51.5-35.7-46.2-108.9-32-134.2
				c15.3-27,49.1-49.5,63-74.6c9.6-17.3,12.5-116.5,13.8-175.2c0.5-23.5-2.3-43.7,18.4-67.5c16.5-19,62.9-9.5,45.6,15.2
				c-13.6,19.4-12.2,41.2-12.7,68c-0.9,49.4,7.4,182.5-2.1,208.2C116.1,331,99.9,339.5,85.9,366.6z"/>
			<path class="st97" d="M82.4,364.8c-15.3,29.6-5.7,69.7-0.4,84.3c12.7,35.1-35.5,28.7-52.2,16.7c-47.5-34.1-43.6-104-29.8-129.1
				c14.8-26.7,49.6-50,62.7-74.5c9.4-17.6,12-118.7,13.3-177.1c0.5-23.5-1.7-43.8,17.8-66.3c16.6-19.1,60.5-9.5,43.6,14
				c-13.1,18.2-12.4,39.5-12.8,66.2c-0.8,50.3,7.2,184.5-2.1,208.9C114.4,329.3,96.9,336.9,82.4,364.8z"/>
			<path class="st98" d="M78.9,363c-15.6,29.7-5.8,70.2-0.5,84.3c13,34.1-33.4,27.2-49.2,15.4c-43.4-32.4-41-99.1-27.7-124.1
				C15.8,312.1,51.6,288,64,264.2c9.3-17.9,11.6-120.8,12.8-178.9c0.5-23.4-1.1-43.9,17.2-65.1C110.6,1.1,152,10.7,135.5,33
				c-12.5,16.9-12.5,37.9-12.9,64.4c-0.6,51.2,6.9,186.5-2,209.6C112.6,327.5,94,334.2,78.9,363z"/>
			<path class="st99" d="M75.4,361.2c-15.8,29.8-5.9,70.7-0.5,84.3c13.3,33.1-31.3,25.7-46.3,14.1c-39.5-30.7-38.5-94.2-25.5-119
				c13.8-26.2,50.6-51.2,62.2-74.3c9.2-18.2,11.2-123,12.3-180.7c0.4-23.3-0.5-44,16.6-63.8c16.7-19.3,55.7-9.6,39.5,11.5
				c-12,15.6-12.7,36.2-12.9,62.5c-0.5,52.1,6.7,188.5-2,210.3C110.9,325.8,91.1,331.6,75.4,361.2z"/>
			<path class="st100" d="M71.9,359.4c-16.1,30-6.1,71.3-0.5,84.2c13.6,32.1-29.2,24.3-43.3,12.8C-7.5,427.5-7.8,367,4.7,342.5
				c13.3-26,51.1-51.8,61.9-74.1c9-18.5,10.7-125.2,11.8-182.5c0.4-23.3,0.1-44.2,16-62.6c16.7-19.4,53.3-9.6,37.5,10.2
				c-11.4,14.4-12.8,34.6-13,60.7c-0.4,53,6.5,190.5-2,211C109.2,324.1,88.2,329,71.9,359.4z"/>
			<path class="st101" d="M68.4,357.6c-16.3,30.1-6.2,71.8-0.6,84.2c13.9,31.1-27.1,22.8-40.4,11.4c-31.6-27-33.3-84.5-21.2-108.8
				c12.8-25.7,51.5-52.4,61.7-74C76.8,251.6,78.3,143,79.2,86.1c0.4-23.2,0.7-44.3,15.4-61.4c16.7-19.4,50.9-9.7,35.5,9
				c-10.9,13.1-13,32.9-13.1,58.9c-0.2,53.9,6.2,192.4-1.9,211.7C107.4,322.4,85.3,326.4,68.4,357.6z"/>
			<path class="st102" d="M64.9,355.7C48.4,386,58.6,428,64.3,440c14.2,30-25,21.4-37.4,10.1C-0.8,425-3.8,370.6,7.8,346.4
				c12.4-25.4,52-53,61.4-73.9c8.7-19.2,9.9-129.6,10.7-186.2c0.4-23.1,1.3-44.4,14.8-60.1c16.8-19.5,48.5-9.7,33.4,7.7
				C118,45.8,115.1,65.2,115.1,91c-0.1,54.8,6,194.4-1.9,212.5C105.7,320.7,82.4,323.8,64.9,355.7z"/>
			<path class="st103" d="M61.4,353.9c-16.8,30.4-6.4,72.8-0.7,84.2c14.6,29-22.9,20-34.4,8.8C2.4,423.9-1.8,372.3,9.4,348.4
				c11.9-25.2,52.4-53.6,61.2-73.8c8.5-19.5,9.5-131.8,10.2-188c0.3-23,1.9-44.6,14.2-58.9c16.8-19.6,46.2-9.7,31.4,6.5
				c-9.7,10.7-13.2,29.7-13.2,55.3c0.2,55.7,5.8,196.4-1.9,213.2C104,318.9,79.5,321.2,61.4,353.9z"/>
			<path class="st104" d="M57.9,352.1c-17,30.6-6.5,73.3-0.7,84.2c14.9,28-20.9,18.6-31.5,7.5c-20.1-21-25.5-69.8-14.7-93.5
				c11.4-24.9,52.8-54.2,60.9-73.7c8.2-19.8,9-134,9.7-189.9c0.3-23,2.5-44.7,13.6-57.6c16.9-19.7,43.8-9.7,29.4,5.2
				c-9.1,9.4-13.4,28-13.3,53.5c0.3,56.6,5.5,198.4-1.8,213.9C102.2,317.2,76.6,318.6,57.9,352.1z"/>
			<path class="st105" d="M54.4,350.3c-17.3,30.7-6.6,73.9-0.7,84.2c15.2,27-18.9,17.3-28.5,6.2c-16.5-18.9-22.9-64.9-12.6-88.4
				c10.9-24.6,53.2-54.8,60.7-73.5c8-20.2,8.6-136.2,9.2-191.7c0.3-22.9,3.1-44.9,13-56.4c16.9-19.8,41.5-9.7,27.4,4
				c-8.5,8.2-13.5,26.4-13.4,51.6c0.5,57.4,5.2,200.3-1.8,214.6C100.5,315.5,73.7,316,54.4,350.3z"/>
			<path class="st106" d="M50.9,348.5c-17.4,30.9-6.7,74.4-0.8,84.2c15.6,26-17,16-25.6,4.9c-12.9-16.7-20.3-60-10.4-83.3
				c10.4-24.4,53.6-55.4,60.4-73.4c7.7-20.5,8.2-138.4,8.7-193.5c0.2-22.8,3.7-45,12.4-55.2c16.9-19.9,39.2-9.7,25.4,2.7
				c-7.9,7-13.7,24.7-13.4,49.8c0.6,58.3,5,202.3-1.7,215.3C98.7,313.7,70.8,313.4,50.9,348.5z"/>
			<path class="st107" d="M47.4,346.6c-17.7,31-6.8,74.9-0.8,84.2c15.9,24.9-15.2,14.8-22.6,3.6c-9.5-14.4-17.8-55.1-8.2-78.3
				c9.9-24.1,54-56,60.1-73.3c7.4-20.9,7.8-140.6,8.2-195.3c0.2-22.7,4.3-45.1,11.8-53.9c16.9-20,36.9-9.6,23.3,1.5
				c-7.2,5.9-13.8,23.1-13.5,48c0.7,59.2,4.7,204.3-1.7,216C96.9,312,67.9,310.8,47.4,346.6z"/>
			<path class="st108" d="M43.9,344.8C26,376,37,420.2,43,429c16.3,23.9-13.7,13.7-19.6,2.3c-6.3-12.2-15.2-50.2-6.1-73.2
				c9.4-23.8,54.4-56.6,59.9-73.2c7.1-21.3,7.3-142.8,7.7-197.2c0.2-22.7,4.9-45.3,11.2-52.7c17-20.1,34.7-9.4,21.3,0.2
				c-6.6,4.7-14,21.4-13.6,46.2c0.9,60.1,4.4,206.2-1.7,216.7C95.1,310.2,65,308.2,43.9,344.8z"/>
		</g>
	</g>
	<path class="st111" d="M167.5,274.4v-224c0-27.1-22-49.1-49.1-49.1c-27.2,0-49.1,22-49.1,49.1v224C29.2,293,1.4,333.6,1.4,380.6
		c0,64.6,52.4,117,117,117c64.6,0,116.9-52.4,116.9-117C235.3,333.6,207.6,293,167.5,274.4z M118.4,471C68.5,471,28,430.4,28,380.6
		c0-42.1,28.9-77.4,67.9-87.4V175.1V50.5C95.9,38.1,106,28,118.4,28c12.4,0,22.5,10.1,22.5,22.5v124.6v118.1
		c39,10,67.8,45.3,67.8,87.4C208.7,430.4,168.2,471,118.4,471z"/>
	<path class="st110" d="M169.9,276.9v-224c0-27.1-22-49.1-49.1-49.1c-27.1,0-49.1,22-49.1,49.1v224C31.6,295.4,3.8,336,3.8,383.1
		c0,64.6,52.4,116.9,117,116.9s117-52.3,117-116.9C237.8,336,210,295.4,169.9,276.9z M120.8,473.4c-49.8,0-90.4-40.5-90.4-90.3
		c0-42.1,28.9-77.4,67.8-87.4V177.5V52.9c0-12.4,10.1-22.5,22.5-22.5s22.5,10.1,22.5,22.5v124.6v118.2c38.9,10,67.8,45.3,67.8,87.4
		C211.2,432.9,170.6,473.4,120.8,473.4z"/>
	<g>
		<rect x="148" y="117.8" class="st241" width="22" height="13.5"/>
		<rect x="148" y="73.7" class="st241" width="22" height="13.5"/>
		<rect x="148" y="161.9" class="st241" width="22" height="13.5"/>
		<rect x="148" y="206" class="st241" width="22" height="13.5"/>
		<rect x="148" y="250.2" class="st241" width="22" height="13.5"/>
	</g>
</g>
<g>
	<g>
		<defs>
			<path id="SVGID_53_" d="M473.6,293.1V175.9V52.4c0-12.3-10-22.3-22.3-22.3c-12.3,0-22.3,10-22.3,22.3v123.5v117.2
				c-38.6,9.9-67.3,45-67.3,86.7c0,49.4,40.2,89.5,89.6,89.5s89.6-40.2,89.6-89.5C540.9,338,512.2,303,473.6,293.1z"/>
		</defs>
		<clipPath id="SVGID_3_">
			<use xlink:href="#SVGID_53_"  style="overflow:visible;"/>
		</clipPath>
		<g style="clip-path:url(#SVGID_3_);">
			<path class="st2" d="M448,379.7c-12.5,28.1-4.4,63.9,0,83.6c9.8,44.6-56,43.6-81.2,29.6c-87.3-48.8-68.9-151.7-51-178.5
				c19.4-29.1,43.3-44.5,64.7-75.1c10.3-14.7,16.2-95.8,18.1-157.4c0.8-24-7.9-42.2,23.6-78c16-18.1,84.1-8.9,63.2,26.3
				c-18.2,30.6-10.6,55.5-12,83.6c-1.9,41.1,9.3,163.2-2.3,200.1C461.9,343.5,456.8,359.9,448,379.7z"/>
			<path class="st3" d="M444.5,377.9c-12.8,28.2-4.5,64.4,0,83.6c10.1,43.6-53.9,42.1-78.2,28.3c-83.3-47.4-66.3-146.8-48.8-173.4
				c19-28.9,43.9-45,64.5-75c10.3-15,15.7-98,17.6-159.2c0.7-23.9-7.3-42.3,23-76.8c16-18.2,81.7-8.9,61.2,25
				c-17.6,29.3-10.8,53.8-12,81.8c-1.8,42,9,165.2-2.3,200.8C460.2,341.7,453.9,357.3,444.5,377.9z"/>
			<path class="st90" d="M441,376.1c-13.1,28.3-4.6,64.9-0.1,83.6c10.4,42.6-51.9,40.6-75.3,27c-79.2-46-63.8-142-46.7-168.4
				c18.5-28.6,44.6-45.4,64.2-74.8c10.2-15.2,15.3-100.2,17.1-161c0.7-23.9-6.7-42.5,22.4-75.6c16-18.3,79.3-9,59.2,23.8
				c-17.1,28.1-10.9,52.2-12.1,80c-1.6,42.8,8.8,167.1-2.3,201.5C458.5,340,450.9,354.7,441,376.1z"/>
			<path class="st5" d="M437.6,374.3c-13.4,28.4-4.8,65.4-0.1,83.6c10.7,41.6-49.8,39-72.3,25.7c-75.2-44.5-61.2-137.1-44.5-163.3
				c18-28.3,45.2-45.9,64-74.7c10.1-15.5,14.9-102.4,16.6-162.8c0.7-23.8-6.1-42.6,21.8-74.3c16.1-18.4,76.8-9.1,57.2,22.5
				C463.6,57.7,469,81.4,468,109.1c-1.6,43.7,8.6,169.1-2.3,202.2C456.8,338.3,448,352.1,437.6,374.3z"/>
		</g>
	</g>
</g>
</svg>
