<?xml version="1.0" encoding="utf-8"?>
<!-- Generator: Adobe Illustrator 25.0.0, SVG Export Plug-In . SVG Version: 6.00 Build 0)  -->
<svg version="1.1" id="_x3C_Layer_x3E_" xmlns="http://www.w3.org/2000/svg" xmlns:xlink="http://www.w3.org/1999/xlink" x="0px"
	 y="0px" viewBox="0 0 500 500" style="enable-background:new 0 0 500 500;" xml:space="preserve">
<style type="text/css">
	.st0{opacity:0.1;}
	.st1{opacity:0.5;}
	.st2{opacity:0;fill:#FFFFFF;}
	.st3{opacity:4.761905e-02;fill:#F9FBFB;}
	.st4{opacity:9.523810e-02;fill:#F3F6F7;}
	.st5{opacity:0.1429;fill:#EEF2F4;}
	.st6{opacity:0.1905;fill:#E8EDF0;}
	.st7{opacity:0.2381;fill:#E2E9EC;}
	.st8{opacity:0.2857;fill:#DCE4E8;}
	.st9{opacity:0.3333;fill:#D7E0E5;}
	.st10{opacity:0.381;fill:#D1DCE1;}
	.st11{opacity:0.4286;fill:#CBD7DD;}
	.st12{opacity:0.4762;fill:#C5D3D9;}
	.st13{opacity:0.5238;fill:#C0CED6;}
	.st14{opacity:0.5714;fill:#BACAD2;}
	.st15{opacity:0.619;fill:#B4C5CE;}
	.st16{opacity:0.6667;fill:#AEC1CA;}
	.st17{opacity:0.7143;fill:#A9BDC7;}
	.st18{opacity:0.7619;fill:#A3B8C3;}
	.st19{opacity:0.8095;fill:#9DB4BF;}
	.st20{opacity:0.8571;fill:#97AFBB;}
	.st21{opacity:0.9048;fill:#92ABB8;}
	.st22{opacity:0.9524;fill:#8CA6B4;}
	.st23{fill:#86A2B0;}
	.st24{fill:#FFE3AB;}
	.st25{fill:url(#SVGID_1_);}
	.st26{fill:url(#SVGID_2_);}
	.st27{fill:url(#SVGID_3_);}
	.st28{fill:url(#SVGID_4_);}
	.st29{fill:url(#SVGID_5_);}
	.st30{fill:url(#SVGID_6_);}
	.st31{fill:url(#SVGID_7_);}
	.st32{fill:url(#SVGID_8_);}
	.st33{fill:url(#SVGID_9_);}
	.st34{fill:url(#SVGID_10_);}
	.st35{fill:url(#SVGID_11_);}
	.st36{fill:url(#SVGID_12_);}
	.st37{fill:url(#SVGID_13_);}
	.st38{fill:url(#SVGID_14_);}
	.st39{fill:url(#SVGID_15_);}
	.st40{fill:url(#SVGID_16_);}
	.st41{opacity:2.380952e-02;fill:#F9FBFB;}
	.st42{opacity:4.761905e-02;fill:#F3F6F7;}
	.st43{opacity:7.142857e-02;fill:#EEF2F4;}
	.st44{opacity:9.523810e-02;fill:#E8EDF0;}
	.st45{opacity:0.119;fill:#E2E9EC;}
	.st46{opacity:0.1429;fill:#DCE4E8;}
	.st47{opacity:0.1667;fill:#D7E0E5;}
	.st48{opacity:0.1905;fill:#D1DCE1;}
	.st49{opacity:0.2143;fill:#CBD7DD;}
	.st50{opacity:0.2381;fill:#C5D3D9;}
	.st51{opacity:0.2619;fill:#C0CED6;}
	.st52{opacity:0.2857;fill:#BACAD2;}
	.st53{opacity:0.3095;fill:#B4C5CE;}
	.st54{opacity:0.3333;fill:#AEC1CA;}
	.st55{opacity:0.3571;fill:#A9BDC7;}
	.st56{opacity:0.381;fill:#A3B8C3;}
	.st57{opacity:0.4048;fill:#9DB4BF;}
	.st58{opacity:0.4286;fill:#97AFBB;}
	.st59{opacity:0.4524;fill:#92ABB8;}
	.st60{opacity:0.4762;fill:#8CA6B4;}
	.st61{opacity:0.5;fill:#86A2B0;}
	.st62{fill:url(#SVGID_17_);}
	.st63{opacity:0.15;}
	.st64{fill:url(#SVGID_18_);}
	.st65{opacity:2.857143e-02;fill:#F9FBFB;}
	.st66{opacity:5.714286e-02;fill:#F3F6F7;}
	.st67{opacity:8.571429e-02;fill:#EEF2F4;}
	.st68{opacity:0.1143;fill:#E8EDF0;}
	.st69{opacity:0.1429;fill:#E2E9EC;}
	.st70{opacity:0.1714;fill:#DCE4E8;}
	.st71{opacity:0.2;fill:#D7E0E5;}
	.st72{opacity:0.2286;fill:#D1DCE1;}
	.st73{opacity:0.2571;fill:#CBD7DD;}
	.st74{opacity:0.2857;fill:#C5D3D9;}
	.st75{opacity:0.3143;fill:#C0CED6;}
	.st76{opacity:0.3429;fill:#BACAD2;}
	.st77{opacity:0.3714;fill:#B4C5CE;}
	.st78{opacity:0.4;fill:#AEC1CA;}
	.st79{opacity:0.4286;fill:#A9BDC7;}
	.st80{opacity:0.4571;fill:#A3B8C3;}
	.st81{opacity:0.4857;fill:#9DB4BF;}
	.st82{opacity:0.5143;fill:#97AFBB;}
	.st83{opacity:0.5429;fill:#92ABB8;}
	.st84{opacity:0.5714;fill:#8CA6B4;}
	.st85{opacity:0.6;fill:#86A2B0;}
	.st86{fill:url(#SVGID_19_);}
	.st87{fill:url(#SVGID_20_);}
	.st88{fill:url(#SVGID_21_);}
	.st89{opacity:0.2;}
	.st90{opacity:9.523810e-02;fill:#F4F6F8;}
	.st91{opacity:0.1905;fill:#E9EDF1;}
	.st92{opacity:0.2381;fill:#E3E9ED;}
	.st93{opacity:0.2857;fill:#DEE5EA;}
	.st94{opacity:0.3333;fill:#D8E0E6;}
	.st95{opacity:0.381;fill:#D3DCE3;}
	.st96{opacity:0.4286;fill:#CDD8DF;}
	.st97{opacity:0.4762;fill:#C8D3DC;}
	.st98{opacity:0.5238;fill:#C2CFD8;}
	.st99{opacity:0.5714;fill:#BDCAD5;}
	.st100{opacity:0.619;fill:#B7C6D1;}
	.st101{opacity:0.6667;fill:#B2C2CE;}
	.st102{opacity:0.7143;fill:#ACBDCA;}
	.st103{opacity:0.7619;fill:#A7B9C7;}
	.st104{opacity:0.8095;fill:#A1B5C3;}
	.st105{opacity:0.8571;fill:#9CB0C0;}
	.st106{opacity:0.9048;fill:#96ACBC;}
	.st107{opacity:0.9524;fill:#91A7B9;}
	.st108{fill:#8BA3B5;}
	.st109{fill:#EEF7FA;}
	.st110{fill:#E4F1F5;}
	.st111{fill:#FFFFFF;}
	.st112{fill:#E9F2F5;}
	.st113{opacity:0.3;}
	.st114{fill:url(#SVGID_22_);}
	.st115{fill:url(#SVGID_23_);}
	.st116{fill:url(#SVGID_24_);}
	.st117{fill:url(#SVGID_25_);}
	.st118{fill:url(#SVGID_26_);}
	.st119{fill:url(#SVGID_27_);}
	.st120{fill:url(#SVGID_28_);}
	.st121{fill:url(#SVGID_29_);}
	.st122{fill:url(#SVGID_30_);}
	.st123{fill:url(#SVGID_31_);}
	.st124{fill:url(#SVGID_32_);}
	.st125{fill:url(#SVGID_33_);}
	.st126{fill:url(#SVGID_34_);}
	.st127{fill:url(#SVGID_35_);}
	.st128{fill:url(#SVGID_36_);}
	.st129{fill:url(#SVGID_37_);}
	.st130{fill:url(#SVGID_38_);}
	.st131{fill:url(#SVGID_39_);}
	.st132{opacity:5.000000e-02;}
	.st133{opacity:0;fill:#515151;}
	.st134{opacity:4.761905e-02;fill:#545556;}
	.st135{opacity:9.523810e-02;fill:#57595B;}
	.st136{opacity:0.1429;fill:#595D5F;}
	.st137{opacity:0.1905;fill:#5C6164;}
	.st138{opacity:0.2381;fill:#5F6569;}
	.st139{opacity:0.2857;fill:#62686E;}
	.st140{opacity:0.3333;fill:#646C72;}
	.st141{opacity:0.381;fill:#677077;}
	.st142{opacity:0.4286;fill:#6A747C;}
	.st143{opacity:0.4762;fill:#6D7881;}
	.st144{opacity:0.5238;fill:#6F7C85;}
	.st145{opacity:0.5714;fill:#72808A;}
	.st146{opacity:0.619;fill:#75848F;}
	.st147{opacity:0.6667;fill:#788894;}
	.st148{opacity:0.7143;fill:#7A8C98;}
	.st149{opacity:0.7619;fill:#7D8F9D;}
	.st150{opacity:0.8095;fill:#8093A2;}
	.st151{opacity:0.8571;fill:#8397A7;}
	.st152{opacity:0.9048;fill:#859BAB;}
	.st153{opacity:0.9524;fill:#889FB0;}
	.st154{fill:#008DD4;}
	.st155{fill:url(#SVGID_40_);}
	.st156{fill:#4FC5FF;}
	.st157{fill:url(#SVGID_41_);}
	.st158{fill:url(#SVGID_42_);}
	.st159{fill:#63CCFF;}
	.st160{fill:#007FC9;}
	.st161{fill:#6ED8FF;}
	.st162{fill:#008CDE;}
	.st163{fill:#B3EDFF;}
	.st164{fill:#61D7FF;}
	.st165{fill:url(#SVGID_43_);}
	.st166{fill:url(#SVGID_44_);}
	.st167{opacity:2.580645e-02;fill:#505051;}
	.st168{opacity:5.161290e-02;fill:#4E4F51;}
	.st169{opacity:7.741936e-02;fill:#4D4F50;}
	.st170{opacity:0.1032;fill:#4C4E50;}
	.st171{opacity:0.129;fill:#4B4D50;}
	.st172{opacity:0.1548;fill:#494C50;}
	.st173{opacity:0.1806;fill:#484B4F;}
	.st174{opacity:0.2065;fill:#474B4F;}
	.st175{opacity:0.2323;fill:#464A4F;}
	.st176{opacity:0.2581;fill:#44494F;}
	.st177{opacity:0.2839;fill:#43484F;}
	.st178{opacity:0.3097;fill:#42474E;}
	.st179{opacity:0.3355;fill:#41474E;}
	.st180{opacity:0.3613;fill:#3F464E;}
	.st181{opacity:0.3871;fill:#3E454E;}
	.st182{opacity:0.4129;fill:#3D444D;}
	.st183{opacity:0.4387;fill:#3C434D;}
	.st184{opacity:0.4645;fill:#3A424D;}
	.st185{opacity:0.4903;fill:#39424D;}
	.st186{opacity:0.5161;fill:#38414C;}
	.st187{opacity:0.5419;fill:#37404C;}
	.st188{opacity:0.5677;fill:#353F4C;}
	.st189{opacity:0.5935;fill:#343E4C;}
	.st190{opacity:0.6194;fill:#333E4C;}
	.st191{opacity:0.6452;fill:#323D4B;}
	.st192{opacity:0.671;fill:#303C4B;}
	.st193{opacity:0.6968;fill:#2F3B4B;}
	.st194{opacity:0.7226;fill:#2E3A4B;}
	.st195{opacity:0.7484;fill:#2D3A4A;}
	.st196{opacity:0.7742;fill:#2B394A;}
	.st197{opacity:0.8;fill:#2A384A;}
	.st198{fill:url(#SVGID_45_);}
	.st199{fill:url(#SVGID_46_);}
	.st200{fill:#91D5EB;}
	.st201{fill:#E1F0FA;}
	.st202{fill:#9DDEF2;}
	.st203{fill:#A2DEF2;}
	.st204{fill:#BEE9F7;}
	.st205{fill:#C8EEFA;}
	.st206{fill:url(#SVGID_47_);}
	.st207{opacity:0.3;fill:url(#SVGID_48_);}
	.st208{opacity:2.580645e-02;fill:#FBFCFC;}
	.st209{opacity:5.161290e-02;fill:#F7F9FA;}
	.st210{opacity:7.741936e-02;fill:#F3F6F7;}
	.st211{opacity:0.1032;fill:#EFF3F5;}
	.st212{opacity:0.129;fill:#EBF0F2;}
	.st213{opacity:0.1548;fill:#E8EDF0;}
	.st214{opacity:0.1806;fill:#E4EAED;}
	.st215{opacity:0.2065;fill:#E0E7EB;}
	.st216{opacity:0.2323;fill:#DCE4E8;}
	.st217{opacity:0.2581;fill:#D8E1E6;}
	.st218{opacity:0.2839;fill:#D4DEE3;}
	.st219{opacity:0.3097;fill:#D0DBE0;}
	.st220{opacity:0.3355;fill:#CCD8DE;}
	.st221{opacity:0.3613;fill:#C8D5DB;}
	.st222{opacity:0.3871;fill:#C4D2D9;}
	.st223{opacity:0.4129;fill:#C1CFD6;}
	.st224{opacity:0.4387;fill:#BDCCD4;}
	.st225{opacity:0.4645;fill:#B9C9D1;}
	.st226{opacity:0.4903;fill:#B5C6CF;}
	.st227{opacity:0.5161;fill:#B1C3CC;}
	.st228{opacity:0.5419;fill:#ADC0C9;}
	.st229{opacity:0.5677;fill:#A9BDC7;}
	.st230{opacity:0.5935;fill:#A5BAC4;}
	.st231{opacity:0.6194;fill:#A1B7C2;}
	.st232{opacity:0.6452;fill:#9DB4BF;}
	.st233{opacity:0.671;fill:#9AB1BD;}
	.st234{opacity:0.6968;fill:#96AEBA;}
	.st235{opacity:0.7226;fill:#92ABB8;}
	.st236{opacity:0.7484;fill:#8EA8B5;}
	.st237{opacity:0.7742;fill:#8AA5B3;}
	.st238{opacity:0.8;fill:#86A2B0;}
	.st239{fill:url(#SVGID_49_);}
	.st240{clip-path:url(#SVGID_51_);}
	.st241{fill:#0A4D80;}
	.st242{fill:url(#SVGID_52_);}
	.st243{clip-path:url(#SVGID_54_);}
</style>
<g>
	<g>
		<g class="st132">
			<path class="st133" d="M409.4,269.8c25.4-25.5,24.1-45.9,15.7-67.8c-6.4-16.5-9.3-27.4-20-42.6c-9.6-13.7-29.8-31.1-60.1-35.4
				c-29.4-4.2-99,43.7-123,50.1c-25.9,6.9-57.5,25.2-90.7,38.6c-17,6.9-42.1,28.6-42.5,40.1c-0.7,18.8,5.5,26.4,13.8,33.9
				c8.3,7.5,25.5,20.6,35.8,25.5c9.8,4.7,35.1,11.5,43.6,12.4c18.7,2,25.5-3.7,40.4-2.1c19.4,2.1,25.9,3.4,34.7,3.2
				c8.1-0.2,14.7-1.9,19.1-2.1c6.4-0.3,16.2,0.6,24.1-1.1c20.5-4.3,23.7-2.7,34.2-6C356.9,309.6,388.6,290.7,409.4,269.8z"/>
			<path class="st134" d="M408.5,269.9c24.8-24.4,23.7-44.7,15.1-66c-6.5-16.2-9.9-26.8-20.4-41.7c-9.5-13.4-28.6-30.8-59.1-35.9
				c-29.3-4.8-97.4,42.9-121.4,49.3c-26,7-56.5,25.4-89.2,38.6c-16.7,6.8-44.2,27.3-44.4,39.3c-0.3,18.2,6.1,25.4,14.5,32.8
				c8.5,7.5,25.4,20.5,35.6,25.1c10.2,4.5,34.3,10.3,43.1,11.2c18.7,1.9,25.5-2.8,40.5-1.3c19.5,2,25.6,3,34.5,2.8
				c8-0.2,14.5-1.6,19.4-1.8c7-0.2,16.6,0.1,24.5-1.5c20.1-4.1,23.3-2.4,34.2-5.9C357.6,308.2,387.9,290.1,408.5,269.9z"/>
			<path class="st135" d="M407.5,270c24.3-23.3,23.2-43.5,14.6-64.2c-6.6-16-10.5-26.2-20.9-40.7c-9.5-13.2-27.5-30.6-58-36.3
				c-29.2-5.5-95.8,42.1-119.8,48.6c-26,7.1-55.6,25.6-87.7,38.6c-16.5,6.7-46.4,26.1-46.3,38.5c0.1,17.6,6.7,24.4,15.3,31.7
				c8.7,7.4,25.2,20.4,35.5,24.7c10.7,4.4,33.5,9.1,42.7,10c18.6,1.8,25.6-1.8,40.6-0.4c19.6,1.9,25.4,2.6,34.3,2.4
				c7.8-0.1,14.2-1.3,19.6-1.4c7.5-0.2,17-0.3,24.8-1.9c19.7-4,22.9-2.2,34.2-5.8C358.3,306.7,387.3,289.4,407.5,270z"/>
			<path class="st136" d="M406.6,270.2c23.7-22.2,22.7-42.3,14.1-62.5c-6.8-15.7-11.1-25.6-21.4-39.8c-9.4-13-26.3-30.3-56.9-36.8
				c-29.1-6.2-94.3,41.3-118.2,47.8c-26.1,7.1-54.6,25.8-86.2,38.6c-16.2,6.6-48.6,24.8-48.3,37.7c0.4,17,7.3,23.4,16,30.6
				c8.8,7.4,25.1,20.3,35.3,24.2c11.2,4.2,32.8,8,42.3,8.8c18.6,1.7,25.6-0.9,40.7,0.5c19.8,1.8,25.1,2.2,34.1,2
				c7.7-0.1,14-0.9,19.8-1c8.1-0.2,17.4-0.8,25.2-2.3c19.2-3.8,22.5-1.9,34.1-5.7C359.1,305.3,386.6,288.8,406.6,270.2z"/>
			<path class="st137" d="M405.7,270.3c23.2-21.1,22.3-41.2,13.5-60.7c-6.9-15.5-11.6-25.1-21.8-38.9c-9.4-12.7-25.1-30-55.8-37.3
				c-29-6.8-92.7,40.5-116.6,47.1c-26.2,7.2-53.6,26-84.8,38.5c-16,6.5-50.8,23.5-50.2,37c0.7,16.4,8,22.4,16.7,29.5
				c9,7.3,24.9,20.2,35.2,23.8c11.6,4.1,32,6.8,41.8,7.6c18.5,1.7,25.6,0.1,40.8,1.4c19.9,1.7,24.9,1.7,33.9,1.7
				c7.6-0.1,13.7-0.6,20-0.7c8.7-0.2,17.9-1.2,25.6-2.7c18.8-3.7,22-1.6,34.1-5.5C359.8,303.8,386,288.2,405.7,270.3z"/>
			<path class="st138" d="M404.7,270.4c22.6-19.9,21.8-40,13-58.9c-7-15.2-12.2-24.5-22.3-38c-9.3-12.5-23.9-29.7-54.8-37.7
				c-28.9-7.5-91.1,39.7-115,46.3c-26.2,7.3-52.7,26.2-83.3,38.5c-15.7,6.4-52.9,22.2-52.1,36.2c1,15.9,8.6,21.4,17.4,28.4
				c9.2,7.3,24.8,20.1,35,23.4c12.1,3.9,31.3,5.6,41.4,6.5c18.5,1.6,25.6,1,40.9,2.2c20,1.6,24.6,1.4,33.7,1.3
				c7.4-0.1,13.4-0.2,20.3-0.3c9.2-0.1,18.3-1.6,25.9-3.1c18.4-3.5,21.6-1.3,34-5.4C360.5,302.4,385.3,287.5,404.7,270.4z"/>
			<path class="st139" d="M403.8,270.6c22.1-18.8,21.3-38.8,12.5-57.2c-7.2-14.9-12.8-23.9-22.7-37.1c-9.3-12.3-22.7-29.5-53.7-38.2
				C311,130,250.3,177,226.4,183.7c-26.3,7.4-51.7,26.4-81.8,38.5c-15.5,6.3-55.1,20.9-54,35.4c1.2,15.3,9.2,20.3,18.1,27.2
				c9.3,7.2,24.7,20,34.9,22.9c12.6,3.7,30.5,4.4,40.9,5.3c18.5,1.5,25.7,2,41,3.1c20.1,1.5,24.3,1,33.5,0.9
				c7.3-0.1,13.2,0.1,20.5,0c9.8-0.1,18.7-2.1,26.3-3.5c18-3.4,21.2-1,34-5.3C361.2,301,384.7,286.9,403.8,270.6z"/>
			<path class="st140" d="M402.9,270.7c21.5-17.8,20.8-37.6,11.9-55.4c-7.3-14.7-13.3-23.3-23.2-36.2c-9.2-12.1-21.5-29.2-52.6-38.6
				c-28.7-8.7-88,38-111.9,44.8c-26.4,7.4-50.7,26.6-80.3,38.5c-15.3,6.2-57.4,19.6-55.9,34.6c1.4,14.7,9.8,19.3,18.8,26.1
				c9.5,7.2,24.6,19.8,34.7,22.5c13.1,3.5,29.7,3.3,40.5,4.1c18.4,1.4,25.7,2.9,41.1,4c20.2,1.4,24.1,0.4,33.3,0.5
				c7.1,0.1,12.9,0.4,20.7,0.4c10.3-0.1,19.1-2.5,26.7-3.9c17.6-3.2,20.8-0.7,34-5.2C362,299.6,384,286.3,402.9,270.7z"/>
			<path class="st141" d="M401.9,270.8c20.9-16.7,20.3-36.4,11.4-53.6c-7.5-14.4-13.9-22.7-23.6-35.2c-9.2-11.8-20.3-28.9-51.6-39.1
				c-28.6-9.4-86.4,37.2-110.3,44c-26.5,7.5-49.8,26.8-78.8,38.5c-15,6-59.6,18.3-57.8,33.8c1.6,14.1,10.4,18.3,19.6,25
				c9.7,7.1,24.5,19.6,34.6,22.1c13.7,3.3,29,2.1,40,2.9c18.4,1.4,25.7,3.9,41.2,4.9c20.3,1.3,23.8,0,33.1,0.1
				c7,0.1,12.7,0.8,20.9,0.8c10.9,0,19.5-3,27-4.3c17.1-3.1,20.4-0.4,33.9-5.1C362.7,298.1,383.4,285.6,401.9,270.8z"/>
			<path class="st142" d="M401,271c20.3-15.6,19.8-35.2,10.9-51.9c-7.6-14.1-14.5-22.1-24.1-34.3c-9.1-11.6-19.2-28.6-50.5-39.6
				c-28.5-10-84.8,36.4-108.7,43.3c-26.5,7.6-48.8,27-77.3,38.4c-14.8,5.9-61.8,17-59.7,33c1.8,13.5,11,17.3,20.3,23.9
				c9.9,7,24.4,19.5,34.4,21.6c14.2,3.1,28.2,0.9,39.6,1.7c18.4,1.3,25.8,4.8,41.3,5.7c20.5,1.2,23.6-0.5,32.9-0.3
				c6.9,0.2,12.4,1.1,21.2,1.1c11.4,0,19.9-3.4,27.4-4.8c16.7-3,20-0.1,33.9-5C363.4,296.7,382.7,285,401,271z"/>
			<path class="st143" d="M400.1,271.1c19.7-14.5,19.3-34,10.3-50.1c-7.8-13.9-15.1-21.5-24.6-33.4c-9.1-11.4-18-28.3-49.4-40
				c-28.4-10.6-83.2,35.6-107.1,42.5c-26.6,7.7-47.8,27.2-75.8,38.4c-14.5,5.8-64.1,15.7-61.6,32.2c1.9,12.9,11.7,16.3,21,22.8
				c10,7,24.3,19.3,34.3,21.2c14.7,2.8,27.4-0.3,39.2,0.5c18.3,1.2,25.8,5.8,41.4,6.6c20.6,1.1,23.3-0.9,32.7-0.6
				c6.7,0.2,12.2,1.5,21.4,1.5c12,0,20.4-3.9,27.8-5.2c16.3-2.8,19.5,0.2,33.8-4.8C364.2,295.3,382,284.3,400.1,271.1z"/>
			<path class="st144" d="M399.1,271.2c19.1-13.4,18.8-32.8,9.8-48.3c-7.9-13.6-15.6-21-25-32.5c-9-11.1-16.8-28-48.3-40.5
				c-28.3-11.3-81.7,34.8-105.5,41.7c-26.7,7.7-46.9,27.4-74.4,38.4c-14.3,5.7-66.3,14.4-63.6,31.4c2,12.3,12.3,15.3,21.7,21.7
				C124,290,138,302.2,148,303.9c15.2,2.6,26.7-1.4,38.7-0.7c18.3,1.2,25.8,6.7,41.6,7.5c20.7,1,23.1-1.3,32.5-1
				c6.6,0.2,11.9,1.8,21.6,1.9c12.6,0,20.8-4.3,28.1-5.6c15.9-2.7,19.1,0.5,33.8-4.7C364.9,293.9,381.3,283.7,399.1,271.2z"/>
			<path class="st145" d="M398.2,271.3c18.5-12.3,18.3-31.6,9.3-46.6c-8.1-13.3-16.2-20.4-25.5-31.6c-9-10.9-15.6-27.6-47.3-40.9
				c-28.3-11.9-80.1,34-104,41c-26.7,7.8-45.9,27.6-72.9,38.4c-14,5.6-68.6,13.1-65.5,30.6c2.1,11.7,12.9,14.3,22.4,20.5
				c10.4,6.9,24.1,18.9,34,20.4c15.7,2.3,25.9-2.6,38.3-1.8c18.2,1.1,25.8,7.7,41.7,8.4c20.8,0.9,22.8-1.8,32.3-1.4
				c6.4,0.3,11.7,2.2,21.8,2.2c13.1,0.1,21.2-4.8,28.5-6c15.4-2.5,18.7,0.8,33.8-4.6C365.6,292.5,380.7,283,398.2,271.3z"/>
			<path class="st146" d="M397.3,271.5c17.9-11.3,17.8-30.4,8.7-44.8c-8.3-13.1-16.8-19.8-25.9-30.7c-9-10.7-14.5-27.3-46.2-41.4
				c-28.2-12.5-78.5,33.2-102.4,40.2c-26.8,7.9-44.9,27.8-71.4,38.4c-13.8,5.5-71,11.8-67.4,29.8c2.2,11.2,13.5,13.2,23.1,19.4
				c10.6,6.8,24,18.7,33.9,19.9c16.3,2.1,25.2-3.8,37.8-3c18.2,1,25.9,8.6,41.8,9.2c20.9,0.8,22.6-2.2,32.1-1.8
				c6.3,0.3,11.4,2.5,22.1,2.6c13.7,0.1,21.6-5.2,28.9-6.4c15-2.4,18.3,1.2,33.7-4.5C366.3,291,380,282.3,397.3,271.5z"/>
			<path class="st147" d="M396.3,271.6c17.3-10.2,17.3-29.2,8.2-43c-8.4-12.8-17.4-19.2-26.4-29.8c-8.9-10.4-13.3-27-45.1-41.9
				c-28.1-13.1-77,32.4-100.8,39.4c-26.9,8-44,28-69.9,38.4c-13.5,5.4-73.3,10.5-69.3,29c2.3,10.6,14.2,12.2,23.9,18.3
				c10.7,6.7,23.9,18.5,33.7,19.5c16.8,1.8,24.4-4.9,37.4-4.2c18.2,1,25.9,9.6,41.9,10.1c21.1,0.7,22.3-2.7,31.9-2.2
				c6.2,0.3,11.1,2.8,22.3,3c14.2,0.1,22-5.7,29.2-6.8c14.6-2.3,17.9,1.5,33.7-4.4C367.1,289.6,379.3,281.7,396.3,271.6z"/>
			<path class="st148" d="M395.4,271.7c16.7-9.2,16.8-28,7.6-41.3c-8.6-12.5-17.9-18.6-26.8-28.8c-8.9-10.2-12.1-26.7-44.1-42.3
				c-28-13.7-75.4,31.6-99.2,38.7c-27,8-43,28.1-68.4,38.3c-13.3,5.3-75.7,9.3-71.2,28.2c2.4,10,14.8,11.2,24.6,17.2
				c10.9,6.7,23.8,18.2,33.6,19.1c17.3,1.5,23.6-6.1,36.9-5.4c18.1,0.9,25.9,10.5,42,11c21.2,0.6,22.1-3.1,31.7-2.6
				c6,0.4,10.9,3.2,22.5,3.3c14.8,0.2,22.5-6.1,29.6-7.2c14.2-2.1,17.5,1.8,33.6-4.2C367.8,288.2,378.6,281,395.4,271.7z"/>
			<path class="st149" d="M394.4,271.9c16.1-8.1,16.3-26.8,7.1-39.5c-8.8-12.2-18.5-18-27.3-27.9c-8.8-10-10.9-26.4-43-42.8
				c-27.9-14.3-73.8,30.8-97.6,37.9c-27,8.1-42,28.3-66.9,38.3c-13,5.2-78.1,8-73.1,27.4c2.4,9.4,15.4,10.2,25.3,16.1
				c11.1,6.6,23.7,18,33.4,18.6c17.8,1.1,22.9-7.3,36.5-6.6c18.1,0.9,25.9,11.5,42.1,11.9c21.3,0.5,21.8-3.6,31.5-3
				c5.9,0.4,10.6,3.5,22.7,3.7c15.3,0.2,22.9-6.6,30-7.6c13.7-2,17.1,2.1,33.6-4.1C368.5,286.8,377.8,280.3,394.4,271.9z"/>
			<path class="st150" d="M393.5,272c15.4-7.1,15.7-25.6,6.6-37.7c-9-12-19.1-17.4-27.8-27c-8.8-9.7-9.8-26-41.9-43.2
				c-27.9-14.9-72.2,30-96,37.2c-27.1,8.2-41.1,28.5-65.4,38.3c-12.8,5.1-80.6,6.8-75,26.6c2.5,8.9,16,9.2,26,15
				c11.3,6.6,23.6,17.8,33.3,18.2c18.4,0.8,22.1-8.4,36.1-7.8c18,0.8,26,12.4,42.2,12.7c21.4,0.4,21.6-4,31.3-3.3
				c5.7,0.4,10.4,3.9,23,4c15.9,0.2,23.3-7.1,30.3-8c13.3-1.9,16.7,2.4,33.6-4C369.3,285.4,377.1,279.6,393.5,272z"/>
			<path class="st151" d="M392.6,272.1c14.8-6.1,15.2-24.3,6-36c-9.2-11.7-19.7-16.8-28.2-26.1c-8.8-9.5-8.6-25.7-40.8-43.7
				c-27.8-15.5-70.7,29.2-94.4,36.4c-27.2,8.3-40.1,28.7-64,38.3c-12.5,5-83.1,5.5-77,25.9c2.5,8.3,16.7,8.1,26.7,13.8
				c11.5,6.5,23.5,17.5,33.1,17.8c18.9,0.4,21.3-9.6,35.6-9c18,0.8,26,13.4,42.3,13.6c21.5,0.3,21.3-4.5,31.1-3.7
				c5.6,0.4,10.1,4.2,23.2,4.4c16.4,0.3,23.7-7.5,30.7-8.5c12.9-1.7,16.3,2.7,33.5-3.9C370,284,376.4,278.8,392.6,272.1z"/>
			<path class="st152" d="M391.6,272.2c14.1-5.2,14.6-23.1,5.5-34.2c-9.4-11.4-20.3-16.2-28.7-25.2c-8.7-9.3-7.5-25.4-39.8-44.2
				c-27.7-16.1-69.1,28.4-92.9,35.6c-27.2,8.3-39.1,28.9-62.5,38.3c-12.3,4.9-85.7,4.3-78.9,25.1c2.5,7.8,17.3,7.1,27.4,12.7
				c11.6,6.4,23.4,17.6,33,17.3c19.4-0.5,20.6-10.7,35.2-10.2c18,0.7,26,14.3,42.4,14.5c21.6,0.2,21.1-5,30.9-4.1
				c5.5,0.5,9.9,4.5,23.4,4.8c17,0.3,24.1-8,31.1-8.9c12.5-1.6,15.8,3,33.5-3.8C370.8,282.6,375.7,278.1,391.6,272.2z"/>
			<path class="st153" d="M390.7,272.4c13.5-4.2,14.1-21.9,5-32.4c-9.6-11.1-20.8-15.6-29.1-24.3c-8.7-9-6.3-25-38.7-44.6
				c-27.7-16.7-67.5,27.6-91.3,34.9c-27.3,8.4-38.2,29.1-61,38.2c-12,4.8-88.3,3.2-80.8,24.3c2.6,7.2,17.9,6.1,28.2,11.6
				c11.8,6.3,23.2,17.1,32.8,16.9c19.9-0.3,19.8-11.9,34.7-11.3c17.9,0.7,26,15.3,42.5,15.4c21.8,0.1,20.8-5.4,30.7-4.5
				c5.3,0.5,9.6,4.9,23.6,5.1c17.6,0.3,24.5-8.4,31.4-9.3c12-1.5,15.4,3.4,33.4-3.7C371.5,281.2,374.9,277.3,390.7,272.4z"/>
			<path class="st108" d="M389.8,272.5c12.9-3.3,13.6-20.6,4.4-30.7c-9.8-10.8-21.4-15-29.6-23.3c-8.6-8.8-5.1-24.7-37.6-45.1
				c-27.6-17.3-65.9,26.8-89.7,34.1c-27.4,8.5-37.2,29.3-59.5,38.2c-11.8,4.7-91,2-82.7,23.5c2.6,6.7,18.5,5.1,28.9,10.5
				c12,6.3,23.1,16.8,32.7,16.5c20.4-0.7,19.1-13,34.3-12.5c17.9,0.6,26.1,16.2,42.6,16.2c21.9,0,20.6-5.9,30.5-4.9
				c5.2,0.5,9.4,5.2,23.9,5.5c18.1,0.3,25-8.9,31.8-9.7c11.6-1.4,15,3.7,33.4-3.5C372.2,279.8,374.2,276.5,389.8,272.5z"/>
		</g>
		<path class="st109" d="M399.6,235.7c-3.1-10.7-9.5-20.1-18.2-26.7c2.2-5.9,3.5-12.2,3.8-18.8c1.4-33.7-24.7-62.2-58.4-63.7
			c-25.8-1.1-48.5,13.9-58.4,36.1c-1.8-0.2-3.6-0.4-5.4-0.5c-21.3-0.9-40.6,9-52.5,24.9c-3.4-1.3-7-2.2-10.8-2.3
			c-18.3-0.8-33.8,13.4-34.6,31.8c-0.1,3,0.2,5.9,0.8,8.8c-6.7,1.1-12.4,5.1-15.9,10.7c-5.6-7.5-14.3-12.5-24.3-12.9
			c-13.9-0.6-26.1,7.8-31,20c-0.6-0.1-1.2-0.1-1.9-0.2c-12.7-0.5-23.4,9.3-24,22c-0.5,12.7,9.3,23.4,22,24
			c6.5,0.3,12.5-2.2,16.9-6.4c4.4,2.7,9.6,4.3,15.1,4.6c5,11.1,15.9,19,28.8,19.6c13.5,0.6,25.3-6.9,31.1-18.2c3.8,1.7,8,2.8,12.4,3
			c1.4,0.1,2.8,0,4.1-0.1c7.8,10.4,20,17.4,34,18c13.7,0.6,26.1-5,34.8-14.3c5.3,10.2,15.7,17.3,28,17.9
			c13.1,0.5,24.7-6.5,30.5-17.3c6.4,3.3,13.7,5.3,21.4,5.7c16.8,0.7,32.1-6.7,42-18.9c2.3,0.9,4.8,1.4,7.4,1.5
			c13.3,0.6,24.5-9.8,25.1-23.1C423.1,247.5,412.8,236.3,399.6,235.7z"/>
		<path class="st200" d="M400.6,236.6c-3.1-10.7-9.5-20.1-18.2-26.7c2.2-5.9,3.5-12.2,3.8-18.8c1.4-33.7-24.7-62.2-58.4-63.7
			c-25.8-1.1-48.5,13.9-58.4,36.1c-1.8-0.2-3.5-0.4-5.4-0.5c-21.3-0.9-40.6,9-52.5,24.9c-3.4-1.3-7-2.2-10.8-2.3
			c-18.3-0.8-33.8,13.5-34.6,31.8c-0.1,3,0.2,6,0.8,8.8c-6.7,1.1-12.4,5.1-15.9,10.7c-5.6-7.5-14.3-12.5-24.3-12.9
			c-13.9-0.6-26.1,7.8-31,20c-0.6-0.1-1.3-0.2-1.9-0.2c-12.7-0.5-23.4,9.3-24,22c-0.5,12.7,9.3,23.4,22,24
			c6.5,0.3,12.5-2.2,16.9-6.4c4.4,2.7,9.6,4.3,15.1,4.6c5,11.1,15.9,19,28.9,19.6c13.5,0.6,25.3-6.9,31.1-18.2c3.8,1.7,8,2.8,12.4,3
			c1.4,0.1,2.8,0,4.1-0.1c7.8,10.4,20,17.4,34,18c13.7,0.6,26.1-5,34.8-14.3c5.3,10.2,15.7,17.3,28,17.9
			c13.1,0.5,24.7-6.5,30.6-17.3c6.4,3.3,13.7,5.3,21.4,5.7c16.8,0.7,32.1-6.7,42-18.9c2.3,0.9,4.8,1.4,7.4,1.5
			c13.3,0.6,24.5-9.8,25.1-23.1C424,248.5,413.8,237.3,400.6,236.6z"/>
	</g>
	<g>
		<g class="st132">
			<path class="st108" d="M302.4,243.3c15.7-9.4,16.5-20.6,9.9-27.9c-7.1-7.8-8.6-8.4-20.4-13.5c-8.2-3.5,2.6-42.1-20.9-56.9
				c-20-12.5-57.9,26.4-75.1,31.7c-19.8,6.1-51.3,16.1-57,21.4c-6.7,6.2-36.7,27.5-23.3,45.6c6.2,8.3,18.6,3.6,32.3,5.3
				c9.4,1.2,20.5-0.1,28.5,0.1c20.3,0.4,25.4-13.8,30.3-11.6c7,3.1,20.4,12.5,46.2,8.6c20.8-3.1,20.6-9.3,24.2-7.1
				C284.7,243.6,292.4,249.3,302.4,243.3z"/>
		</g>
		<path class="st111" d="M303.2,201.6c1.6-5.6,2.4-11.5,2.4-17.7c0-36.4-29.5-66-66-66c-30.9,0-56.8,21.2-64,49.8
			c-0.7,0-1.3-0.1-2-0.1c-14.4,0-27.1,7.4-34.4,18.7c-3.8-1.6-7.9-2.4-12.2-2.4c-17.7,0-32,14.3-32,32c0,17.7,14.3,32,32,32
			c7.8,0,14.9-2.8,20.4-7.4c7.1,5.9,16.3,9.4,26.2,9.4c11.1,0,21.2-4.4,28.6-11.6c10.6,7.3,23.5,11.6,37.4,11.6
			c12.7,0,24.5-3.6,34.6-9.8c4.6,5.7,11.6,9.4,19.5,9.4c13.8,0,24.9-11.2,24.9-24.9C318.5,214.2,312.2,205.3,303.2,201.6z"/>
		<path class="st202" d="M304.1,202.6c1.6-5.6,2.4-11.5,2.4-17.7c0-36.5-29.6-66-66-66c-30.9,0-56.8,21.2-64,49.8
			c-0.7,0-1.3-0.1-2-0.1c-14.4,0-27.1,7.4-34.4,18.7c-3.8-1.6-7.9-2.4-12.2-2.4c-17.7,0-32,14.3-32,32c0,17.7,14.3,32,32,32
			c7.8,0,14.9-2.8,20.4-7.4c7.1,5.9,16.3,9.4,26.2,9.4c11.1,0,21.2-4.4,28.6-11.6c10.6,7.3,23.5,11.6,37.4,11.6
			c12.7,0,24.5-3.6,34.6-9.8c4.6,5.7,11.6,9.4,19.5,9.4c13.8,0,24.9-11.2,24.9-24.9C319.5,215.2,313.1,206.3,304.1,202.6z"/>
	</g>
	<g>
		<g class="st132">
			<path class="st133" d="M439,261.6c14.9-12.6,12.2-51.5,4.6-61.9c-10-13.7-20.6-22-29.7-26.6c-9.1-4.6-34.8-8.5-46.4-8.5
				c-16.3,0-32.3,3.9-45.5,7.5c-14.2,3.8-42.2,14-55.4,28.6c-15.5,17-1.8,50.8,2.1,55.8c7.4,9.3,16.4,18.5,27.6,23.9
				c10.8,5.2,20.1,4.9,28.2,5.5c6.1,0.4,33.3,3.4,49.2,0.1c11.3-2.3,30.4-5.8,35.8-8.5C414.6,274.9,427.2,271.6,439,261.6z"/>
			<path class="st134" d="M438,261.2c14.8-12.2,12.4-50.1,4.8-60.8c-9.9-13.9-20.5-21.8-29.6-26.3c-9-4.5-33.6-8.5-45.2-8.6
				c-16-0.2-32.2,3.7-45.4,7.2c-14.3,3.9-42.2,14.3-55.1,28.3c-15,16.4-2.3,49.6,2,54.9c7.2,9,15.7,18.3,27.1,23.6
				c10.8,5,20.1,4.5,27.9,5.2c6.1,0.5,32.4,4,48.5,0.7c11.5-2.3,30-6.3,35.3-8.9C413.5,273.9,426.1,271,438,261.2z"/>
			<path class="st135" d="M437,260.8c14.7-11.9,12.5-48.6,5-59.6c-9.8-14.2-20.5-21.5-29.6-26c-8.9-4.4-32.3-8.5-44-8.7
				c-15.7-0.3-32,3.4-45.3,7c-14.4,3.9-42.3,14.5-54.8,28c-14.6,15.9-2.8,48.3,1.9,54.1c7.1,8.8,15,18,26.6,23.3
				c10.8,4.9,20.1,4.1,27.7,4.9c6.1,0.6,31.6,4.6,47.9,1.3c11.8-2.4,29.6-6.7,34.8-9.3C412.5,273,425,270.5,437,260.8z"/>
			<path class="st136" d="M436.1,260.5c14.7-11.6,12.7-47.2,5.2-58.5c-9.7-14.4-20.4-21.3-29.6-25.8c-8.8-4.3-31.1-8.5-42.7-8.9
				c-15.4-0.5-31.9,3.1-45.2,6.7c-14.5,4-42.4,14.7-54.4,27.8c-14.1,15.3-3.2,47,1.8,53.3c6.9,8.5,14.3,17.8,26.1,22.9
				c10.8,4.7,20,3.7,27.4,4.5c6.1,0.7,30.7,5.2,47.3,1.9c12-2.4,29.2-7.2,34.3-9.7C411.5,272.1,424,270,436.1,260.5z"/>
			<path class="st137" d="M435.1,260.1c14.6-11.2,12.9-45.8,5.3-57.4c-9.6-14.7-20.4-21.1-29.6-25.5c-8.6-4.2-29.9-8.5-41.5-9
				c-15.1-0.7-31.7,2.8-45,6.5c-14.6,4-42.5,14.9-54.1,27.5c-13.6,14.7-3.7,45.7,1.7,52.4c6.7,8.3,13.6,17.5,25.6,22.6
				c10.8,4.6,20,3.4,27.2,4.2c6,0.7,29.8,5.8,46.7,2.5c12.3-2.4,28.8-7.6,33.8-10.2C410.4,271.2,423,269.4,435.1,260.1z"/>
			<path class="st138" d="M434.1,259.7c14.6-10.9,13.1-44.3,5.5-56.2c-9.5-14.9-20.4-20.8-29.6-25.3c-8.5-4.1-28.6-8.4-40.3-9.1
				c-14.8-0.8-31.6,2.5-44.9,6.2c-14.6,4.1-42.5,15.1-53.8,27.2c-13.1,14.2-4.1,44.5,1.6,51.6c6.5,8,12.9,17.3,25.1,22.3
				c10.8,4.4,19.9,3,27,3.9c6,0.8,29,6.4,46.1,3.1c12.6-2.4,28.4-8.1,33.3-10.6C409.4,270.2,421.9,268.9,434.1,259.7z"/>
			<path class="st139" d="M433.1,259.4c14.5-10.6,13.3-42.9,5.7-55.1c-9.4-15.2-20.3-20.6-29.5-25c-8.4-4.1-27.4-8.4-39.1-9.2
				c-14.5-1-31.5,2.2-44.8,5.9c-14.7,4.1-42.6,15.3-53.4,26.9c-12.6,13.6-4.6,43.2,1.5,50.7c6.3,7.8,12.2,17.1,24.6,22
				c10.8,4.3,19.9,2.6,26.7,3.6c6,0.9,28.1,6.9,45.4,3.7c12.8-2.4,28-8.5,32.8-11C408.3,269.3,420.9,268.3,433.1,259.4z"/>
			<path class="st140" d="M432.1,259c14.4-10.3,13.5-41.4,5.9-53.9c-9.3-15.4-20.3-20.3-29.5-24.7c-8.3-4-26.2-8.4-37.8-9.3
				c-14.2-1.1-31.3,1.9-44.7,5.7c-14.8,4.2-42.7,15.5-53.1,26.7c-12.1,13-5.1,41.9,1.4,49.9c6.1,7.5,11.5,16.8,24.1,21.6
				c10.8,4.1,19.8,2.2,26.5,3.3c6,1,27.3,7.5,44.8,4.3c13.1-2.4,27.7-9,32.3-11.4C407.3,268.4,419.8,267.8,432.1,259z"/>
			<path class="st141" d="M431.1,258.7c14.4-9.9,13.6-40,6.1-52.8c-9.2-15.7-20.3-20.1-29.5-24.5c-8.2-3.9-24.9-8.4-36.6-9.4
				c-13.9-1.3-31.2,1.6-44.6,5.4c-14.9,4.2-42.8,15.8-52.7,26.4c-11.7,12.4-5.6,40.6,1.3,49c6,7.3,10.8,16.6,23.6,21.3
				c10.8,4,19.8,1.9,26.2,3c6,1.1,26.4,8.1,44.2,4.8c13.3-2.4,27.3-9.5,31.8-11.8C406.3,267.4,418.8,267.2,431.1,258.7z"/>
			<path class="st142" d="M430.2,258.3c14.3-9.6,13.8-38.5,6.3-51.6c-9.1-15.9-20.2-19.8-29.5-24.2c-8-3.8-23.7-8.3-35.4-9.6
				c-13.6-1.4-31,1.3-44.5,5.2c-15,4.3-42.8,16-52.4,26.1c-11.2,11.9-6,39.4,1.2,48.2c5.8,7,10.1,16.4,23.1,21
				c10.8,3.9,19.7,1.5,26,2.7c5.9,1.2,25.6,8.7,43.6,5.4c13.6-2.4,26.9-9.9,31.3-12.2C405.2,266.5,417.7,266.7,430.2,258.3z"/>
			<path class="st143" d="M429.2,257.9c14.2-9.3,14-37.1,6.5-50.5c-9.1-16.2-20.2-19.6-29.4-23.9c-7.9-3.7-22.5-8.3-34.1-9.7
				c-13.3-1.6-30.9,1-44.4,4.9c-15,4.3-42.9,16.2-52.1,25.8c-10.7,11.3-6.5,38.1,1.1,47.3c5.6,6.8,9.4,16.1,22.6,20.7
				c10.8,3.7,19.7,1.1,25.7,2.4c5.9,1.2,24.7,9.3,43,6c13.8-2.4,26.5-10.4,30.8-12.6C404.2,265.6,416.6,266.1,429.2,257.9z"/>
			<path class="st144" d="M428.2,257.6c14.2-9,14.2-35.6,6.6-49.4c-9-16.4-20.1-19.3-29.4-23.7c-7.8-3.6-21.2-8.3-32.9-9.8
				c-13-1.7-30.7,0.8-44.3,4.7c-15.1,4.4-43,16.4-51.7,25.6c-10.2,10.7-7,36.8,1,46.5c5.4,6.5,8.7,15.9,22.1,20.4
				c10.8,3.6,19.6,0.8,25.5,2.1c5.9,1.3,23.9,9.8,42.3,6.6c14.1-2.4,26.1-10.8,30.2-13C403.1,264.6,415.6,265.5,428.2,257.6z"/>
			<path class="st145" d="M427.2,257.2c14.1-8.7,14.3-34.2,6.8-48.2c-8.9-16.6-20.1-19.1-29.4-23.4c-7.7-3.6-20-8.2-31.7-9.9
				c-12.7-1.8-30.6,0.5-44.1,4.4c-15.2,4.4-43.1,16.6-51.4,25.3c-9.7,10.2-7.4,35.6,0.9,45.6c5.2,6.3,8,15.7,21.6,20
				c10.8,3.4,19.6,0.4,25.2,1.8c5.9,1.4,23,10.4,41.7,7.2c14.4-2.4,25.7-11.3,29.7-13.4C402.1,263.7,414.5,265,427.2,257.2z"/>
			<path class="st146" d="M426.2,256.8c14-8.3,14.5-32.7,7-47.1c-8.8-16.9-20.1-18.9-29.4-23.1c-7.6-3.5-18.8-8.2-30.4-10
				c-12.4-2-30.5,0.2-44,4.2c-15.3,4.5-43.1,16.8-51.1,25c-9.3,9.6-7.9,34.3,0.8,44.8c5,6,7.3,15.5,21.1,19.7
				c10.8,3.3,19.5,0,25,1.5c5.9,1.5,22.2,11,41.1,7.8c14.6-2.5,25.3-11.7,29.2-13.8C401.1,262.8,413.5,264.4,426.2,256.8z"/>
			<path class="st147" d="M425.2,256.5c14-8,14.7-31.3,7.2-45.9c-8.7-17.1-20-18.6-29.4-22.9c-7.4-3.4-17.6-8.1-29.2-10.1
				c-12.1-2.1-30.3-0.1-43.9,3.9c-15.4,4.6-43.2,17-50.7,24.7c-8.8,9-8.4,33,0.7,43.9c4.8,5.8,6.6,15.2,20.6,19.4
				c10.8,3.2,19.5-0.3,24.7,1.1c5.9,1.6,21.3,11.6,40.5,8.4c14.9-2.5,24.9-12.2,28.7-14.3C400,261.8,412.4,263.9,425.2,256.5z"/>
			<path class="st148" d="M424.2,256.1c13.9-7.7,14.8-29.8,7.4-44.8c-8.7-17.4-20-18.4-29.3-22.6c-7.3-3.3-16.3-8.1-28-10.3
				c-11.8-2.2-30.2-0.4-43.8,3.6c-15.4,4.6-43.3,17.3-50.4,24.5c-8.3,8.4-8.9,31.8,0.6,43.1c4.6,5.5,5.9,15,20.1,19.1
				c10.8,3.1,19.5-0.7,24.5,0.8c5.8,1.7,20.5,12.2,39.9,9c15.1-2.5,24.5-12.7,28.2-14.7C399,260.9,411.4,263.3,424.2,256.1z"/>
			<path class="st149" d="M423.3,255.8c13.8-7.4,15-28.4,7.6-43.6c-8.6-17.6-19.9-18.1-29.3-22.3c-7.2-3.2-15.1-8-26.8-10.4
				c-11.5-2.3-30-0.7-43.7,3.4c-15.5,4.7-43.4,17.5-50,24.2c-7.8,7.9-9.3,30.5,0.5,42.2c4.4,5.3,5.2,14.8,19.6,18.7
				c10.7,2.9,19.4-1,24.2,0.5c5.8,1.8,19.6,12.7,39.2,9.6c15.4-2.5,24.1-13.1,27.7-15.1C397.9,260,410.3,262.7,423.3,255.8z"/>
			<path class="st150" d="M422.3,255.4c13.7-7.1,15.2-26.9,7.7-42.5c-8.5-17.8-19.9-17.9-29.3-22.1c-7.1-3.1-13.9-8-25.5-10.5
				c-11.2-2.4-29.9-1-43.6,3.1c-15.6,4.7-43.4,17.7-49.7,23.9c-7.3,7.3-9.8,29.3,0.4,41.4c4.2,5,4.5,14.6,19.1,18.4
				c10.7,2.8,19.4-1.4,24,0.2c5.8,2,18.8,13.3,38.6,10.2c15.7-2.5,23.8-13.6,27.2-15.5C396.9,259,409.2,262.1,422.3,255.4z"/>
			<path class="st151" d="M421.3,255c13.7-6.8,15.3-25.4,7.9-41.3c-8.5-18.1-19.9-17.7-29.3-21.8c-6.9-3.1-12.7-7.9-24.3-10.6
				c-10.9-2.5-29.7-1.3-43.5,2.9c-15.7,4.8-43.5,17.9-49.4,23.6c-6.9,6.7-10.3,28,0.3,40.5c4,4.8,3.8,14.4,18.6,18.1
				c10.7,2.7,19.3-1.7,23.7-0.1c5.8,2.1,17.9,13.9,38,10.7c15.9-2.5,23.4-14,26.7-15.9C395.8,258.1,408.2,261.6,421.3,255z"/>
			<path class="st152" d="M420.3,254.7c13.6-6.5,15.5-24,8.1-40.2c-8.4-18.3-19.8-17.4-29.2-21.5c-6.8-3-11.4-7.8-23.1-10.7
				c-10.6-2.7-29.6-1.6-43.4,2.6c-15.8,4.8-43.6,18.1-49,23.4c-6.4,6.2-10.8,26.8,0.2,39.7c3.8,4.5,3.1,14.2,18.1,17.8
				c10.7,2.6,19.2-2,23.5-0.4c5.7,2.2,17.1,14.5,37.4,11.3c16.2-2.5,23-14.5,26.2-16.3C394.8,257.1,407.1,261,420.3,254.7z"/>
			<path class="st153" d="M419.3,254.3c13.5-6.2,15.7-22.5,8.3-39.1c-8.3-18.5-19.8-17.2-29.2-21.3c-6.7-2.9-10.2-7.7-21.8-10.8
				c-10.4-2.8-29.5-1.9-43.2,2.4c-15.8,4.9-43.7,18.3-48.7,23.1c-5.9,5.6-11.3,25.5,0.1,38.8c3.6,4.3,2.4,14,17.6,17.5
				c10.7,2.5,19.2-2.4,23.3-0.7c5.7,2.3,16.2,15.1,36.8,11.9c16.4-2.5,22.6-15,25.7-16.7C393.8,256.2,406,260.4,419.3,254.3z"/>
			<path class="st108" d="M418.3,253.9c13.4-5.9,15.8-21.1,8.5-37.9c-8.2-18.8-19.7-16.9-29.2-21c-6.6-2.8-9-7.6-20.6-10.9
				c-10.1-2.8-29.3-2.2-43.1,2.1c-15.9,4.9-43.7,18.5-48.3,22.8c-5.4,5-11.7,24.2,0,38c3.5,4,1.7,13.8,17.1,17.1
				c10.7,2.3,19.1-2.7,23-1c5.6,2.5,15.4,15.7,36.1,12.5c16.7-2.5,22.2-15.4,25.2-17.1C392.7,255.3,405,259.8,418.3,253.9z"/>
		</g>
		<path class="st111" d="M400.4,190.8c-0.7,0-1.4,0-2.2,0.1c-3.9-11-14.3-18.9-26.7-18.9c-3.7,0-7.2,0.7-10.4,2
			c-3.8-10.5-13.9-18.1-25.8-18.1c-11.5,0-21.4,7.1-25.4,17.2c-1.4-0.2-2.7-0.4-4.2-0.4c-12.5,0-22.7,9.4-24,21.6
			c-1.7-0.4-3.5-0.5-5.4-0.5c-15,0-27.2,12.2-27.2,27.2c0,15,12.2,27.2,27.2,27.2c0.2,0,0.5,0,0.7,0c2.6,11,12.5,19.1,24.3,19.1
			c9.1,0,17.1-4.9,21.5-12.2c6,10.2,17,17.1,29.7,17.1c14,0,26.1-8.4,31.4-20.4c4.8,2.8,10.3,4.3,16.3,4.3c18,0,32.6-14.6,32.6-32.6
			S418.4,190.8,400.4,190.8z"/>
		<path class="st203" d="M401.5,191.9c-0.7,0-1.4,0-2.2,0.1c-3.9-11-14.3-18.9-26.6-18.9c-3.7,0-7.2,0.7-10.4,2
			c-3.8-10.6-13.9-18.1-25.8-18.1c-11.6,0-21.4,7.1-25.5,17.3c-1.4-0.2-2.7-0.4-4.1-0.4c-12.5,0-22.7,9.4-24,21.6
			c-1.7-0.3-3.5-0.5-5.4-0.5c-15,0-27.2,12.2-27.2,27.2c0,15,12.2,27.2,27.2,27.2c0.2,0,0.5,0,0.7,0c2.7,11,12.5,19.2,24.3,19.2
			c9.1,0,17.1-4.9,21.5-12.2c6,10.2,17,17.1,29.7,17.1c14,0,26.1-8.4,31.4-20.4c4.8,2.8,10.3,4.3,16.2,4.3c18,0,32.6-14.6,32.6-32.6
			S419.6,191.9,401.5,191.9z"/>
	</g>
	<g>
		<g class="st132">
			<path class="st133" d="M414.3,204.4c18.8-19.5,17.5-59.4,7.1-73.6c-13.6-18.7-30.2-25.6-42.6-31.8c-12.5-6.2-30.6-12-46.4-14.4
				c-19.5-2.9-41,5.5-59,10.3c-19.5,5.2-79.5,25.5-97.6,45.3c-10,11-12.5,25.3-11,38.4c1.7,14.7,8.2,27.9,11,31.5
				c10.1,12.7,47.1,25.4,62.5,32.8c14.8,7.1,27.5,6.7,38.6,7.5c8.4,0.6,31.7,0,53.4-4.6c15.4-3.2,30.7-15.2,38.2-18.9
				C375.5,223.5,400.1,219.1,414.3,204.4z"/>
			<path class="st134" d="M411.5,202.9c18.5-18.8,17.6-57.6,7.4-71.8c-13.3-18.5-29.5-25-41.8-31.1c-12.2-6.1-29.5-11.8-45.2-14.3
				c-19-3-40,5-57.9,9.9c-19.3,5.2-79.7,25.4-97.3,44.4c-10,10.8-12.5,24.9-10.8,37.9c1.9,14.4,8.9,27,12,30.6
				c10.3,11.8,45.5,24.8,60.9,32c14.6,6.8,27.1,5.7,37.8,6.5c8.2,0.7,30.7,1,52.8-3.6c15.5-3.3,30.1-15.5,37.3-19
				C373.6,221,397.3,217.3,411.5,202.9z"/>
			<path class="st135" d="M408.7,201.5c18.4-18.1,17.6-55.8,7.6-69.9c-13-18.2-28.9-24.4-41.1-30.4c-11.9-5.9-28.3-11.5-44-14.1
				c-18.6-3.1-39,4.6-56.8,9.5c-19.1,5.3-79.9,25.4-97,43.5c-10,10.5-12.5,24.6-10.5,37.3c2.1,14.2,9.6,26.1,12.9,29.7
				c10.4,10.9,43.8,24.2,59.3,31.3c14.4,6.6,26.7,4.6,37,5.5c8.1,0.7,29.7,2.1,52.2-2.7c15.5-3.3,29.5-15.7,36.5-19.2
				C371.7,218.5,394.6,215.5,408.7,201.5z"/>
			<path class="st136" d="M405.9,200.1c18.1-17.5,17.7-54,7.8-68c-12.7-17.9-28.2-23.8-40.3-29.7c-11.7-5.8-27.2-11.3-42.9-14
				c-18.1-3.1-38,4.2-55.7,9.1c-19,5.3-80,25.4-96.7,42.5c-10,10.3-12.5,24.3-10.3,36.8c2.4,13.9,10.2,25.2,13.9,28.8
				c10.4,10.1,42.2,23.6,57.6,30.5c14.2,6.3,26.2,3.6,36.2,4.6c8,0.8,28.8,3.2,51.7-1.8c15.6-3.4,28.9-16,35.7-19.4
				C369.8,216.1,391.8,213.7,405.9,200.1z"/>
			<path class="st137" d="M403.1,198.7c17.9-16.8,17.7-52.2,8-66.1c-12.4-17.7-27.6-23.2-39.5-29c-11.4-5.6-26-11.1-41.7-13.9
				c-17.6-3.2-37,3.7-54.6,8.7c-18.8,5.3-80.2,25.3-96.4,41.6c-10,10-12.4,24-10.1,36.3c2.6,13.6,10.9,24.3,14.8,27.9
				c10.3,9.3,40.5,23,56,29.7c14.1,6.1,25.8,2.5,35.4,3.6c7.9,0.9,27.8,4.3,51.1-0.9c15.7-3.4,28.3-16.3,34.9-19.6
				C367.9,213.6,389.1,211.9,403.1,198.7z"/>
			<path class="st138" d="M400.3,197.2c17.7-16.2,17.8-50.3,8.3-64.2c-12.1-17.4-27-22.6-38.8-28.3C358.7,99.3,345,94,329.3,91
				c-17.2-3.2-36,3.3-53.4,8.3c-18.7,5.4-80.4,25.3-96.1,40.6c-10,9.8-12.4,23.7-9.8,35.7c2.8,13.4,11.5,23.4,15.8,26.9
				c10.2,8.6,38.9,22.4,54.3,29c13.9,5.9,25.4,1.5,34.7,2.6c7.8,0.9,26.8,5.4,50.5,0.1c15.7-3.5,27.7-16.6,34.1-19.8
				C366,211.1,386.3,210,400.3,197.2z"/>
			<path class="st139" d="M397.5,195.8c17.5-15.5,17.8-48.6,8.5-62.3c-11.7-17.2-26.3-21.9-38-27.6c-10.8-5.3-23.7-10.6-39.3-13.6
				c-16.7-3.3-35,2.9-52.3,7.9c-18.5,5.4-80.7,25.2-95.8,39.7c-10,9.6-12.4,23.4-9.6,35.2c3.1,13.1,12.2,22.5,16.8,26
				c10,7.9,37.2,21.9,52.7,28.2c13.7,5.6,24.9,0.5,33.9,1.7c7.6,1,25.8,6.4,49.9,1c15.8-3.5,27.1-16.9,33.3-20
				C364.1,208.6,383.5,208.2,397.5,195.8z"/>
			<path class="st140" d="M394.7,194.4c17.3-14.8,17.9-46.7,8.7-60.4c-11.4-17-25.7-21.3-37.2-26.9c-10.6-5.1-22.5-10.3-38.2-13.5
				c-16.3-3.3-34,2.4-51.2,7.5c-18.3,5.4-80.9,25.1-95.5,38.8c-10,9.3-12.3,23.1-9.3,34.6c3.3,12.9,12.8,21.5,17.7,25.1
				c9.8,7.2,35.5,21.3,51,27.5c13.5,5.4,24.5-0.6,33.1,0.7c7.5,1.1,24.8,7.5,49.3,1.9c15.9-3.6,26.5-17.1,32.4-20.2
				C362.2,206.1,380.7,206.4,394.7,194.4z"/>
			<path class="st141" d="M391.9,193c17-14.2,18-44.9,8.9-58.5c-11.1-16.7-25.1-20.7-36.5-26.2c-10.3-4.9-21.4-10.1-37-13.4
				c-15.8-3.4-33,2-50.1,7.1c-18.2,5.4-81.1,25-95.1,37.8c-10,9.1-12.3,22.7-9.1,34.1c3.5,12.6,13.4,20.6,18.7,24.2
				c9.6,6.6,33.9,20.7,49.4,26.7c13.4,5.2,24-1.6,32.3-0.3c7.4,1.2,23.9,8.6,48.7,2.8c15.9-3.7,25.9-17.4,31.6-20.4
				C360.3,203.7,378,204.6,391.9,193z"/>
			<path class="st142" d="M389.1,191.6c16.8-13.5,18-43.1,9.1-56.6c-10.8-16.4-24.4-20.1-35.7-25.5c-10-4.8-20.2-9.8-35.8-13.3
				c-15.3-3.4-32,1.5-49,6.7c-18,5.5-81.4,25-94.8,36.9c-10,8.8-12.3,22.4-8.8,33.6c3.8,12.3,13.5,20.8,19.6,23.3
				c8.1,7.5,32.2,20.1,47.8,26c13.2,4.9,23.6-2.6,31.6-1.2c7.3,1.3,22.9,9.7,48.1,3.7c16-3.7,25.2-17.7,30.8-20.6
				C358.4,201.2,375.2,202.7,389.1,191.6z"/>
			<path class="st143" d="M386.3,190.1c16.6-12.9,18.1-41.3,9.4-54.7c-10.5-16.2-23.8-19.5-34.9-24.7c-9.8-4.6-19.1-9.6-34.7-13.2
				c-14.9-3.4-31,1.1-47.9,6.3c-17.9,5.5-81.6,24.9-94.5,35.9c-10,8.6-12.3,22.1-8.6,33c4,12.1,14.1,20,20.6,22.4
				c7.9,6.9,30.6,19.5,46.1,25.2c13,4.7,23.2-3.6,30.8-2.2c7.2,1.3,21.9,10.7,47.5,4.7c16.1-3.8,24.6-18,30-20.8
				C356.5,198.7,372.4,200.9,386.3,190.1z"/>
			<path class="st144" d="M383.5,188.7c16.3-12.2,18.1-39.5,9.6-52.8c-10.2-15.9-23.1-18.9-34.1-24c-9.5-4.5-17.9-9.3-33.5-13
				c-14.4-3.5-30,0.7-46.8,5.9c-17.7,5.5-81.9,24.8-94.2,35c-10,8.3-12.2,21.8-8.4,32.5c4.2,11.8,14.6,19.2,21.5,21.5
				c7.7,6.4,28.9,19,44.5,24.4c12.8,4.5,22.7-4.6,30-3.2c7.1,1.4,20.9,11.8,46.9,5.6c16.1-3.8,24-18.3,29.2-21
				C354.6,196.2,369.6,199.1,383.5,188.7z"/>
			<path class="st145" d="M380.7,187.3c16.1-11.6,18.2-37.7,9.8-50.9c-9.9-15.7-22.5-18.2-33.4-23.3c-9.2-4.3-16.8-9-32.3-12.9
				c-14-3.5-29,0.2-45.6,5.5c-17.5,5.6-82.2,24.6-93.9,34c-10,8.1-12.2,21.5-8.1,31.9c4.5,11.5,15.2,18.4,22.5,20.6
				c7.5,5.8,27.2,18.4,42.8,23.7c12.6,4.3,22.3-5.7,29.2-4.1c6.9,1.5,19.9,12.9,46.3,6.5c16.2-3.9,23.4-18.6,28.3-21.2
				C352.7,193.7,366.9,197.3,380.7,187.3z"/>
			<path class="st146" d="M377.9,185.9c15.8-11,18.2-35.9,10-49c-9.6-15.4-21.9-17.6-32.6-22.6c-8.9-4.1-15.6-8.8-31.1-12.8
				c-13.5-3.5-28-0.2-44.5,5.2c-17.4,5.6-82.5,24.5-93.6,33.1c-10.1,7.8-12.2,21.2-7.9,31.4c4.7,11.3,15.8,17.6,23.4,19.6
				c7.2,5.2,25.6,17.8,41.2,22.9c12.5,4.1,21.8-6.7,28.5-5.1c6.8,1.6,19,14,45.7,7.4c16.2-3.9,22.8-18.9,27.5-21.4
				C350.8,191.3,364.1,195.4,377.9,185.9z"/>
			<path class="st147" d="M375.1,184.4c15.6-10.3,18.3-34.1,10.3-47.1c-9.3-15.2-21.2-17-31.8-21.9c-8.7-4-14.5-8.5-30-12.7
				c-13.1-3.5-27-0.6-43.4,4.8c-17.2,5.6-82.8,24.4-93.3,32.2c-10.1,7.5-12.1,20.9-7.6,30.9c4.9,11,16.8,15.4,24.4,18.7
				c7.7,3.4,23.9,17.3,39.6,22.2c12.3,3.8,21.4-7.7,27.7-6.1c6.7,1.7,18,15.1,45.1,8.4c16.3-4,22.2-19.1,26.7-21.6
				C348.9,188.8,361.3,193.6,375.1,184.4z"/>
			<path class="st148" d="M372.3,183c15.3-9.7,18.3-32.3,10.5-45.2c-9-14.9-20.6-16.4-31.1-21.2c-8.4-3.8-13.4-8.2-28.8-12.6
				c-12.6-3.5-26-1.1-42.3,4.4c-17,5.7-83.1,24.2-92.9,31.2c-10.2,7.2-12.1,20.6-7.4,30.3c5.2,10.7,17.4,14.7,25.3,17.8
				c7.3,2.9,22.2,16.7,37.9,21.4c12.1,3.6,21-8.7,26.9-7c6.6,1.8,17,16.1,44.5,9.3c16.4-4,21.6-19.4,25.9-21.7
				C347,186.3,358.5,191.7,372.3,183z"/>
			<path class="st149" d="M369.5,181.6c15.1-9.1,18.4-30.4,10.7-43.3c-8.7-14.6-19.9-15.8-30.3-20.5c-8.1-3.7-12.2-7.9-27.6-12.4
				c-12.2-3.6-25-1.5-41.2,4c-16.9,5.7-83.4,24-92.6,30.3c-10.2,6.9-12.1,20.2-7.1,29.8c5.4,10.5,17.9,13.9,26.3,16.9
				c7,2.5,20.6,16.2,36.3,20.7c11.9,3.4,20.5-9.7,26.1-8c6.5,1.9,16,17.2,43.9,10.2c16.4-4.1,21-19.7,25.1-21.9
				C345.1,183.8,355.7,189.9,369.5,181.6z"/>
			<path class="st150" d="M366.7,180.2c14.8-8.5,18.4-28.6,10.9-41.4c-8.4-14.4-19.3-15.2-29.5-19.8c-7.8-3.5-11.1-7.6-26.5-12.3
				c-11.7-3.6-23.9-2-40.1,3.6c-16.7,5.7-83.8,23.9-92.3,29.3c-10.3,6.6-12,19.9-6.9,29.2c5.6,10.2,18.4,13.2,27.2,16
				c6.6,2.1,18.9,15.6,34.6,19.9c11.7,3.2,20.1-10.7,25.4-9c6.3,2,15,18.3,43.3,11.1c16.5-4.1,20.4-20,24.3-22.1
				C343.2,181.3,352.9,188,366.7,180.2z"/>
			<path class="st151" d="M363.8,178.7c14.6-7.9,18.4-26.8,11.2-39.5c-8.1-14.1-18.7-14.6-28.8-19.1c-7.6-3.4-9.9-7.3-25.3-12.2
				c-11.3-3.6-22.9-2.4-39,3.2c-16.6,5.8-84.1,23.6-92,28.4c-10.4,6.3-12,19.6-6.7,28.7c5.9,10,18.9,12.6,28.2,15.1
				c6.3,1.7,17.2,15,33,19.1c11.5,3,19.6-11.7,24.6-10c6.2,2.1,14.1,19.4,42.8,12.1c16.6-4.2,19.7-20.3,23.4-22.3
				C341.3,178.8,350.1,186.2,363.8,178.7z"/>
			<path class="st152" d="M361,177.3c14.3-7.3,18.5-25,11.4-37.6c-7.8-13.9-18-14-28-18.4c-7.3-3.2-8.8-7-24.1-12.1
				c-10.8-3.6-21.9-2.8-37.9,2.8c-16.4,5.8-84.5,23.4-91.7,27.4c-10.5,5.9-12,19.3-6.4,28.1c6.1,9.7,19.5,12.1,29.1,14.2
				c6,1.3,15.6,14.5,31.3,18.4c11.4,2.8,19.2-12.6,23.8-10.9c6.1,2.3,13.1,20.4,42.2,13c16.6-4.3,19.1-20.6,22.6-22.5
				C339.4,176.4,347.3,184.3,361,177.3z"/>
			<path class="st153" d="M358.2,175.9c14-6.7,18.5-23.2,11.6-35.7c-7.5-13.6-17.4-13.4-27.2-17.6c-7-3-7.7-6.7-22.9-11.9
				c-10.4-3.6-20.9-3.3-36.7,2.4c-16.2,5.8-84.8,23.2-91.4,26.5c-10.7,5.4-12,19-6.2,27.6c6.3,9.4,20,11.6,30.1,13.3
				c5.7,1,13.9,14,29.7,17.6c11.2,2.6,18.7-13.6,23-11.9c5.9,2.4,12.1,21.5,41.6,13.9c16.7-4.3,18.5-20.9,21.8-22.7
				C337.5,173.9,344.5,182.4,358.2,175.9z"/>
			<path class="st108" d="M355.4,174.5c13.8-6.1,18.6-21.4,11.8-33.9c-7.2-13.3-16.7-12.8-26.4-16.9c-6.7-2.9-6.5-6.4-21.8-11.8
				c-10-3.5-19.9-3.7-35.6,2c-16.1,5.8-85.2,22.9-91.1,25.6c-10.8,4.9-11.9,18.7-5.9,27.1c6.6,9.2,20.5,11.2,31,12.3
				c5.4,0.6,12.2,13.4,28.1,16.9c11,2.4,18.3-14.6,22.3-12.9c5.8,2.5,11.1,22.6,41,14.8c16.8-4.4,17.9-21.2,21-22.9
				C335.6,171.4,341.7,180.5,355.4,174.5z"/>
		</g>
		<path class="st111" d="M373.7,124.8c-1.5,0-2.9,0.1-4.4,0.3c-5.5-16.2-20.8-27.8-38.8-27.8c-8.3,0-16.1,2.5-22.5,6.7
			c-4.4-12.1-16.1-20.8-29.7-20.8c-15.4,0-28.3,11-31.1,25.6c-4.4-3.2-9.8-5.2-15.6-5.2c-13.4,0-24.4,10-26,23c-0.1,0-0.1,0-0.2,0
			c-20.8,0-37.7,16.9-37.7,37.7c0,20.8,16.9,37.7,37.7,37.7c6.6,0,12.9-1.7,18.3-4.7c2,13.1,13.2,23.1,26.8,23.1
			c10.8,0,20.1-6.2,24.4-15.3c8.3,12.2,22.3,20.2,38.2,20.2c20.5,0,37.9-13.4,43.9-31.8c5,2.6,10.6,4,16.6,4
			c20.1,0,36.3-16.3,36.3-36.3C410,141.1,393.8,124.8,373.7,124.8z"/>
		<path class="st204" d="M374.8,125.8c-1.5,0-3,0.1-4.4,0.3c-5.5-16.2-20.8-27.8-38.8-27.8c-8.3,0-16.1,2.5-22.5,6.8
			c-4.4-12.1-16.1-20.8-29.7-20.8c-15.4,0-28.2,11-31.1,25.6c-4.4-3.2-9.8-5.2-15.6-5.2c-13.4,0-24.4,10-26,23c-0.1,0-0.1,0-0.2,0
			c-20.8,0-37.7,16.9-37.7,37.7c0,20.8,16.9,37.7,37.7,37.7c6.6,0,12.9-1.7,18.3-4.7c2,13.1,13.2,23.1,26.8,23.1
			c10.8,0,20.1-6.2,24.4-15.3c8.3,12.2,22.3,20.2,38.2,20.2c20.5,0,37.9-13.4,43.9-31.8c5,2.6,10.6,4,16.6,4
			c20.1,0,36.3-16.3,36.3-36.3S394.9,125.8,374.8,125.8z"/>
	</g>
	<g>
		<g class="st132">
			<path class="st133" d="M289.1,265.6c9.8-14.5,5-41.4-1.8-50.8c-9-12.3-20.7-17.8-28.9-21.9c-8.2-4.1-26.1-11.4-36.6-11.4
				c-14.7,0-22.2,5.4-34,8.6c-12.8,3.4-34.6,23.4-46.6,36.5c-14,15.3-10.4,38.4-6.9,42.9c6.7,8.4,14.8,16.7,24.9,21.5
				c9.7,4.7,18.2,4.4,25.4,4.9c5.5,0.4,11.9,3.1,26.2,0.1c10.2-2.1,15-2.9,20.2-4.6C242.2,288.1,277.2,283.2,289.1,265.6z"/>
			<path class="st134" d="M287.1,265c9.8-14,5.6-40-1.1-49.5c-8.8-12.4-20.6-17.5-28.8-21.6c-8-4-25.5-11.5-35.8-11.6
				c-14.3-0.1-22.1,5.1-33.8,8.3c-12.7,3.4-34,23.2-45.6,35.9c-13.5,14.8-10.8,37.3-7,42c6.5,8.1,14.3,16.3,24.5,20.9
				c9.8,4.5,18,3.9,25.1,4.5c5.4,0.4,11.9,3.1,26.2,0.2c10.2-2.1,15.1-3,20.2-4.5C241.6,286.3,275.3,281.9,287.1,265z"/>
			<path class="st135" d="M285,264.3c9.7-13.6,6.2-38.6-0.4-48.2c-8.7-12.4-20.6-17.2-28.6-21.2c-7.9-3.9-24.8-11.6-35.1-11.7
				c-13.9-0.2-22,4.8-33.6,7.9c-12.7,3.4-33.5,23-44.6,35.2c-13,14.2-11.2,36.1-7.2,41.1c6.3,7.8,13.9,15.9,24.1,20.3
				c9.9,4.2,17.9,3.4,24.7,4c5.4,0.5,11.8,3.1,26.1,0.2c10.3-2.1,15.3-3.1,20.2-4.5C241,284.6,273.4,280.6,285,264.3z"/>
			<path class="st136" d="M283,263.7c9.7-13.1,6.8-37.2,0.2-46.9c-8.5-12.4-20.5-16.9-28.5-20.8c-7.7-3.8-24.2-11.7-34.3-11.9
				c-13.6-0.4-21.9,4.4-33.4,7.6c-12.6,3.4-32.9,22.8-43.7,34.5c-12.5,13.6-11.5,35-7.3,40.2c6.1,7.5,13.4,15.5,23.7,19.7
				c9.9,4,17.8,2.9,24.4,3.6c5.3,0.5,11.8,3.1,26.1,0.3c10.3-2.1,15.4-3.2,20.2-4.4C240.5,282.8,271.5,279.3,283,263.7z"/>
			<path class="st137" d="M281,263.1c9.6-12.6,7.4-35.9,0.9-45.6c-8.3-12.5-20.4-16.6-28.3-20.5c-7.5-3.7-23.5-11.7-33.6-12.1
				c-13.2-0.5-21.8,4.1-33.2,7.2c-12.5,3.4-32.4,22.6-42.7,33.8c-12,13.1-11.9,33.9-7.4,39.4c5.9,7.3,13,15.1,23.3,19.1
				c10,3.8,17.6,2.5,24,3.2c5.2,0.6,11.7,3.1,26,0.3c10.4-2,15.6-3.3,20.2-4.4C239.9,281,269.5,278,281,263.1z"/>
			<path class="st138" d="M279,262.4c9.6-12.1,8-34.5,1.6-44.4c-8.1-12.5-20.4-16.4-28.2-20.1c-7.3-3.6-22.9-11.8-32.8-12.3
				c-12.8-0.6-21.7,3.8-33,6.9c-12.4,3.4-31.8,22.4-41.7,33.1c-11.5,12.5-12.2,32.8-7.6,38.5c5.7,7,12.6,14.7,22.9,18.4
				c10.1,3.6,17.5,2,23.6,2.7c5.1,0.6,11.7,3.1,26,0.3c10.5-2,15.7-3.4,20.2-4.3C239.4,279.3,267.6,276.7,279,262.4z"/>
			<path class="st139" d="M276.9,261.8c9.5-11.6,8.6-33.1,2.2-43.1c-8-12.5-20.3-16-28-19.8c-7.2-3.5-22.3-11.9-32-12.4
				c-12.5-0.7-21.6,3.4-32.8,6.6c-12.3,3.4-31.3,22.2-40.8,32.4c-11,11.9-12.6,31.7-7.7,37.6c5.5,6.7,12.1,14.3,22.5,17.8
				c10.1,3.4,17.4,1.5,23.3,2.3c5.1,0.7,11.6,3.2,25.9,0.4c10.5-2,15.9-3.5,20.2-4.3C238.8,277.5,265.7,275.4,276.9,261.8z"/>
			<path class="st140" d="M274.9,261.1c9.5-11.1,9.2-31.7,2.9-41.8c-7.8-12.6-20.2-15.7-27.9-19.4c-7-3.4-21.6-12-31.3-12.6
				c-12.1-0.8-21.5,3.1-32.6,6.2c-12.2,3.4-30.7,22-39.8,31.7c-10.6,11.4-12.9,30.5-7.9,36.7c5.3,6.5,11.7,13.9,22.1,17.2
				c10.2,3.2,17.2,1,22.9,1.8c5,0.7,11.6,3.2,25.9,0.4c10.6-2,16-3.6,20.2-4.2C238.2,275.8,263.8,274.1,274.9,261.1z"/>
			<path class="st141" d="M272.9,260.5c9.5-10.7,9.8-30.3,3.6-40.5c-7.7-12.6-20.2-15.5-27.7-19.1c-6.8-3.3-21-12-30.5-12.8
				c-11.7-0.9-21.4,2.8-32.4,5.9c-12.1,3.4-30.2,21.8-38.8,31c-10.1,10.8-13.3,29.4-8,35.9c5.1,6.2,11.2,13.5,21.7,16.6
				c10.3,3,17.1,0.5,22.6,1.4c4.9,0.8,11.5,3.2,25.8,0.5c10.7-2,16.2-3.7,20.2-4.2C237.7,274,261.9,272.8,272.9,260.5z"/>
			<path class="st142" d="M270.8,259.9c9.5-10.2,10.4-28.9,4.2-39.2c-7.5-12.6-20.1-15.2-27.6-18.7c-6.6-3.2-20.3-12.1-29.8-12.9
				c-11.4-1-21.3,2.5-32.2,5.5c-12,3.4-29.6,21.6-37.9,30.3c-9.6,10.2-13.7,28.3-8.2,35c4.9,5.9,10.8,13.1,21.3,16
				c10.4,2.8,17,0.1,22.2,1c4.8,0.8,11.5,3.2,25.8,0.5c10.7-1.9,16.3-3.7,20.2-4.2C237.1,272.3,260,271.5,270.8,259.9z"/>
			<path class="st143" d="M268.8,259.2c9.4-9.7,11-27.5,4.9-37.9c-7.3-12.7-20-14.9-27.4-18.4c-6.5-3.1-19.7-12.2-29-13.1
				c-11-1.1-21.2,2.1-32,5.2c-12,3.4-29.1,21.4-36.9,29.6c-9.1,9.7-14,27.2-8.3,34.1c4.7,5.7,10.4,12.7,20.9,15.4
				c10.4,2.6,16.8-0.4,21.9,0.5c4.8,0.9,11.4,3.2,25.7,0.6c10.8-1.9,16.4-3.8,20.1-4.1C236.5,270.5,258.1,270.3,268.8,259.2z"/>
			<path class="st144" d="M266.8,258.6c9.4-9.2,11.5-26.1,5.6-36.7c-7.2-12.7-19.9-14.6-27.3-18c-6.3-3-19-12.2-28.2-13.3
				c-10.6-1.2-21.1,1.8-31.8,4.9c-11.9,3.4-28.5,21.2-35.9,28.9c-8.6,9.1-14.4,26.1-8.5,33.2c4.5,5.4,9.9,12.3,20.5,14.7
				c10.5,2.4,16.7-0.9,21.5,0.1c4.7,1,11.3,3.2,25.7,0.6c10.9-1.9,16.6-3.9,20.1-4.1C236,268.7,256.2,269,266.8,258.6z"/>
			<path class="st145" d="M264.8,257.9c9.4-8.7,12.1-24.7,6.3-35.4c-7-12.7-19.9-14.3-27.1-17.7c-6.1-2.9-18.4-12.3-27.5-13.5
				c-10.2-1.3-21.1,1.5-31.6,4.5c-11.8,3.4-28,20.9-35,28.2c-8.1,8.6-14.7,25-8.6,32.4c4.3,5.1,9.5,11.9,20.1,14.1
				c10.6,2.2,16.6-1.4,21.2-0.3c4.6,1,11.3,3.2,25.6,0.7c10.9-1.9,16.7-4,20.1-4C235.4,266.9,254.3,267.7,264.8,257.9z"/>
			<path class="st146" d="M262.7,257.3c9.4-8.2,12.7-23.3,6.9-34.1c-6.9-12.7-19.8-14-27-17.3c-5.9-2.8-17.7-12.4-26.7-13.6
				c-9.9-1.4-21,1.1-31.4,4.2c-11.7,3.4-27.5,20.7-34,27.6c-7.6,8-15.1,23.8-8.8,31.5c4.1,4.9,9,11.6,19.7,13.5
				c10.7,2,16.4-1.8,20.8-0.8c4.5,1.1,11.2,3.2,25.6,0.7c11-1.9,16.9-4.1,20.1-4C234.9,265.2,252.4,266.4,262.7,257.3z"/>
			<path class="st147" d="M260.7,256.7c9.3-7.7,13.3-22,7.6-32.8c-6.7-12.8-19.7-13.7-26.8-17c-5.8-2.7-17.1-12.4-26-13.8
				c-9.5-1.5-20.9,0.8-31.2,3.8c-11.6,3.4-26.9,20.5-33,26.9c-7.1,7.4-15.5,22.7-8.9,30.6c3.8,4.6,8.6,11.2,19.3,12.9
				c10.7,1.7,16.3-2.3,20.5-1.2c4.5,1.1,11.2,3.2,25.5,0.8c11.1-1.9,17-4.2,20.1-3.9C234.3,263.4,250.5,265.1,260.7,256.7z"/>
			<path class="st148" d="M258.7,256c9.3-7.2,13.9-20.6,8.3-31.5c-6.6-12.8-19.6-13.4-26.7-16.6c-5.6-2.6-16.5-12.5-25.2-14
				c-9.1-1.6-20.8,0.5-31,3.5c-11.5,3.4-26.4,20.3-32.1,26.2c-6.7,6.9-15.8,21.6-9.1,29.7c3.6,4.4,8.2,10.8,18.9,12.3
				c10.8,1.5,16.2-2.8,20.1-1.7c4.4,1.2,11.1,3.2,25.5,0.8c11.1-1.8,17.2-4.3,20.1-3.9C233.7,261.7,248.6,263.8,258.7,256z"/>
			<path class="st149" d="M256.7,255.4c9.3-6.7,14.5-19.2,8.9-30.2c-6.4-12.8-19.6-13.1-26.5-16.3c-5.4-2.4-15.8-12.5-24.4-14.1
				c-8.8-1.6-20.7,0.2-30.8,3.2c-11.4,3.4-25.8,20.1-31.1,25.5c-6.2,6.3-16.2,20.5-9.2,28.9c3.4,4.1,7.7,10.4,18.5,11.7
				c10.9,1.3,16-3.2,19.8-2.1c4.3,1.3,11.1,3.2,25.4,0.8c11.2-1.8,17.3-4.4,20.1-3.8C233.2,259.9,246.7,262.6,256.7,255.4z"/>
			<path class="st150" d="M254.6,254.7c9.3-6.2,15-17.8,9.6-28.9c-6.3-12.9-19.5-12.8-26.3-15.9c-5.2-2.3-15.2-12.6-23.7-14.3
				c-8.4-1.7-20.6-0.2-30.6,2.8c-11.3,3.4-25.3,19.9-30.1,24.8c-5.7,5.7-16.6,19.4-9.4,28c3.2,3.8,7.3,10,18.1,11
				c11,1.1,15.9-3.7,19.4-2.5c4.2,1.4,11,3.2,25.4,0.9c11.3-1.8,17.4-4.5,20.1-3.8C232.6,258.2,244.8,261.3,254.6,254.7z"/>
			<path class="st151" d="M252.6,254.1c9.3-5.7,15.6-16.4,10.3-27.7c-6.1-12.9-19.4-12.6-26.2-15.5c-5.1-2.3-14.5-12.6-22.9-14.5
				c-8-1.8-20.5-0.5-30.4,2.5c-11.3,3.4-24.7,19.7-29.1,24.1c-5.2,5.2-16.9,18.3-9.5,27.1c3,3.6,6.9,9.6,17.7,10.4
				c11,0.9,15.8-4.1,19.1-3c4.2,1.4,11,3.2,25.3,0.9c11.3-1.8,17.6-4.6,20.1-3.8C232,256.4,242.9,260,252.6,254.1z"/>
			<path class="st152" d="M250.6,253.5c9.3-5.2,16.2-15,10.9-26.4c-6-12.9-19.4-12.3-26-15.2c-4.9-2.2-13.9-12.7-22.2-14.7
				c-7.7-1.8-20.4-0.8-30.2,2.1c-11.2,3.4-24.2,19.5-28.2,23.4c-4.7,4.6-17.3,17.2-9.7,26.2c2.8,3.3,6.4,9.1,17.3,9.8
				c11.1,0.7,15.6-4.6,18.7-3.4c4.1,1.5,10.9,3.2,25.3,1c11.4-1.8,17.7-4.7,20.1-3.7C231.5,254.6,241.1,258.8,250.6,253.5z"/>
			<path class="st153" d="M248.6,252.8c9.3-4.6,16.8-13.6,11.6-25.1c-5.8-12.9-19.3-12-25.9-14.8c-4.7-2-13.3-12.7-21.4-14.8
				c-7.3-1.9-20.3-1.2-30,1.8c-11.1,3.4-23.6,19.3-27.2,22.7c-4.2,4-17.7,16.1-9.8,25.4c2.6,3.1,6,8.7,16.9,9.2
				c11.2,0.4,15.5-5,18.4-3.9c4,1.6,10.9,3.2,25.2,1c11.5-1.7,17.9-4.8,20.1-3.7C230.9,252.9,239.2,257.5,248.6,252.8z"/>
			<path class="st108" d="M246.5,252.2c9.3-4.1,17.4-12.2,12.3-23.8c-5.7-13-19.2-11.7-25.7-14.5c-4.5-1.9-12.6-12.7-20.6-15
				c-7-2-20.2-1.5-29.8,1.5c-11,3.4-23.1,19.1-26.2,22c-3.7,3.5-18.1,15-10,24.5c2.4,2.8,5.5,8.3,16.5,8.6c11.3,0.2,15.3-5.5,18-4.3
				c3.9,1.7,10.8,3.3,25.2,1.1c11.5-1.7,18-4.9,20.1-3.6C230.4,251.1,237.3,256.3,246.5,252.2z"/>
		</g>
		<path class="st111" d="M256,214.3c-3.1-0.2-6.2,0.3-9,1.2c-3.7-18.7-19.7-33.3-39.7-34.3c-19.3-1-36.3,11-42.5,28.4c0,0,0,0,0,0
			c-16.4-0.9-30.3,11.7-31.2,28.1c-0.8,16.4,11.7,30.3,28.1,31.2c8.4,0.4,16.2-2.7,21.9-8.1c5.7,3.3,12.2,5.3,19.2,5.7
			c12.5,0.7,24.1-4.2,32.3-12.4c4.3,5.5,10.7,9.1,18.2,9.5c13.6,0.7,25.2-9.7,25.9-23.4C280.1,226.6,269.6,215,256,214.3z"/>
		<path class="st205" d="M257.1,215.4c-3.1-0.2-6.2,0.3-9,1.2c-3.7-18.7-19.7-33.3-39.7-34.3c-19.3-1-36.3,11-42.5,28.4h0
			c-16.4-0.8-30.3,11.7-31.2,28.1c-0.8,16.4,11.7,30.3,28.1,31.2c8.4,0.4,16.2-2.7,21.9-8.1c5.7,3.3,12.2,5.4,19.2,5.7
			c12.5,0.7,24.1-4.2,32.3-12.4c4.2,5.5,10.7,9.1,18.2,9.5c13.6,0.7,25.2-9.7,25.9-23.4C281.2,227.7,270.7,216.1,257.1,215.4z"/>
	</g>
	<g>
		<path class="st111" d="M251.3,308.4c0,10-8.1,18.2-18.2,18.2c-10,0-18.2-8.1-18.2-18.2c0-10,8.1-18.2,18.2-18.2
			C243.2,290.2,251.3,298.3,251.3,308.4z"/>
		<path class="st205" d="M252.9,309.1c0,10-8.1,18.2-18.2,18.2c-10,0-18.2-8.1-18.2-18.2c0-10,8.1-18.2,18.2-18.2
			C244.8,291,252.9,299.1,252.9,309.1z"/>
	</g>
	<g>
		<path class="st111" d="M372.9,360.9c0,10-8.1,18.2-18.2,18.2c-10,0-18.2-8.1-18.2-18.2c0-10,8.1-18.2,18.2-18.2
			C364.8,342.7,372.9,350.8,372.9,360.9z"/>
		<path class="st205" d="M374.5,361.7c0,10-8.1,18.2-18.2,18.2c-10,0-18.2-8.1-18.2-18.2s8.1-18.2,18.2-18.2
			C366.4,343.5,374.5,351.6,374.5,361.7z"/>
	</g>
	<g>
		<radialGradient id="SVGID_1_" cx="178.3913" cy="361.9325" r="14.2231" gradientUnits="userSpaceOnUse">
			<stop  offset="0" style="stop-color:#AED5EB"/>
			<stop  offset="9.556542e-02" style="stop-color:#A3C6D9;stop-opacity:0.9095"/>
			<stop  offset="0.5069" style="stop-color:#778790;stop-opacity:0.5198"/>
			<stop  offset="0.8021" style="stop-color:#5C6063;stop-opacity:0.2402"/>
			<stop  offset="0.95" style="stop-color:#515151;stop-opacity:0.1"/>
		</radialGradient>
		<path class="st25" d="M192.6,361.9c0,7.9-6.4,14.2-14.2,14.2c-7.9,0-14.2-6.4-14.2-14.2c0-7.9,6.4-14.2,14.2-14.2
			C186.2,347.7,192.6,354.1,192.6,361.9z"/>
		<path class="st202" d="M193.9,362.6c0,7.9-6.4,14.2-14.2,14.2c-7.8,0-14.2-6.4-14.2-14.2c0-7.9,6.4-14.2,14.2-14.2
			C187.5,348.3,193.9,354.7,193.9,362.6z"/>
	</g>
	<g>
		
			<radialGradient id="SVGID_2_" cx="241.6525" cy="-187.3266" r="22.4431" gradientTransform="matrix(0.9835 0.1812 -0.1812 0.9835 59.4545 412.4071)" gradientUnits="userSpaceOnUse">
			<stop  offset="0" style="stop-color:#AED5EB"/>
			<stop  offset="9.556542e-02" style="stop-color:#A3C6D9;stop-opacity:0.8994"/>
			<stop  offset="0.5069" style="stop-color:#778790;stop-opacity:0.4664"/>
			<stop  offset="0.8021" style="stop-color:#5C6063;stop-opacity:0.1557"/>
			<stop  offset="0.95" style="stop-color:#515151;stop-opacity:0"/>
		</radialGradient>
		<path style="opacity:0.3;fill:url(#SVGID_2_);" d="M353.1,276c-2.2,12.2-13.9,20.2-26.1,18c-12.2-2.2-20.2-13.9-18-26.1
			c2.2-12.2,13.9-20.2,26.1-18C347.3,252.1,355.4,263.8,353.1,276z"/>
		<path class="st111" d="M337.5,263.8c0,7.9-6.4,14.2-14.2,14.2c-7.8,0-14.2-6.4-14.2-14.2c0-7.9,6.4-14.2,14.2-14.2
			C331.1,249.6,337.5,256,337.5,263.8z"/>
		
			<ellipse transform="matrix(1 -1.284943e-03 1.284943e-03 1 -0.3395 0.4172)" class="st205" cx="324.5" cy="264.4" rx="14.2" ry="14.2"/>
	</g>
	<g>
		<path class="st111" d="M413.6,308.2c0,7.9-6.4,14.2-14.2,14.2c-7.9,0-14.2-6.4-14.2-14.2c0-7.9,6.4-14.2,14.2-14.2
			C407.2,294,413.6,300.3,413.6,308.2z"/>
		<path class="st202" d="M414.8,308.8c0,7.9-6.4,14.2-14.2,14.2c-7.9,0-14.2-6.4-14.2-14.2c0-7.9,6.4-14.2,14.2-14.2
			C408.4,294.6,414.8,301,414.8,308.8z"/>
	</g>
	<g>
		<path class="st111" d="M280,369.9c0,5.4-4.3,9.7-9.7,9.7c-5.4,0-9.7-4.3-9.7-9.7s4.3-9.7,9.7-9.7C275.7,360.2,280,364.6,280,369.9
			z"/>
		<path class="st202" d="M280.9,370.3c0,5.4-4.3,9.7-9.7,9.7c-5.4,0-9.7-4.3-9.7-9.7s4.3-9.7,9.7-9.7
			C276.5,360.6,280.9,365,280.9,370.3z"/>
	</g>
	<g>
		<path class="st111" d="M141.1,326.1c0,5.4-4.3,9.7-9.7,9.7c-5.4,0-9.7-4.3-9.7-9.7s4.4-9.7,9.7-9.7
			C136.8,316.4,141.1,320.8,141.1,326.1z"/>
		<path class="st205" d="M142,326.6c0,5.4-4.3,9.7-9.7,9.7c-5.4,0-9.7-4.3-9.7-9.7c0-5.4,4.3-9.7,9.7-9.7
			C137.6,316.8,142,321.2,142,326.6z"/>
	</g>
</g>
</svg>
