<?xml version="1.0" encoding="utf-8"?>
<!-- Generator: Adobe Illustrator 25.0.0, SVG Export Plug-In . SVG Version: 6.00 Build 0)  -->
<svg version="1.1" id="_x3C_Layer_x3E_" xmlns="http://www.w3.org/2000/svg" xmlns:xlink="http://www.w3.org/1999/xlink" x="0px"
	 y="0px" viewBox="0 0 292.9 500" style="enable-background:new 0 0 292.9 500;" xml:space="preserve">
<style type="text/css">
	.st0{opacity:0.1;}
	.st1{opacity:0.5;}
	.st2{opacity:0;fill:#FFFFFF;}
	.st3{opacity:4.761905e-02;fill:#F9FBFB;}
	.st4{opacity:9.523810e-02;fill:#F3F6F7;}
	.st5{opacity:0.1429;fill:#EEF2F4;}
	.st6{opacity:0.1905;fill:#E8EDF0;}
	.st7{opacity:0.2381;fill:#E2E9EC;}
	.st8{opacity:0.2857;fill:#DCE4E8;}
	.st9{opacity:0.3333;fill:#D7E0E5;}
	.st10{opacity:0.381;fill:#D1DCE1;}
	.st11{opacity:0.4286;fill:#CBD7DD;}
	.st12{opacity:0.4762;fill:#C5D3D9;}
	.st13{opacity:0.5238;fill:#C0CED6;}
	.st14{opacity:0.5714;fill:#BACAD2;}
	.st15{opacity:0.619;fill:#B4C5CE;}
	.st16{opacity:0.6667;fill:#AEC1CA;}
	.st17{opacity:0.7143;fill:#A9BDC7;}
	.st18{opacity:0.7619;fill:#A3B8C3;}
	.st19{opacity:0.8095;fill:#9DB4BF;}
	.st20{opacity:0.8571;fill:#97AFBB;}
	.st21{opacity:0.9048;fill:#92ABB8;}
	.st22{opacity:0.9524;fill:#8CA6B4;}
	.st23{fill:#86A2B0;}
	.st24{fill:#FFE3AB;}
	.st25{fill:url(#SVGID_1_);}
	.st26{fill:url(#SVGID_2_);}
	.st27{fill:url(#SVGID_3_);}
	.st28{fill:url(#SVGID_4_);}
	.st29{fill:url(#SVGID_5_);}
	.st30{fill:url(#SVGID_6_);}
	.st31{fill:url(#SVGID_7_);}
	.st32{fill:url(#SVGID_8_);}
	.st33{fill:url(#SVGID_9_);}
	.st34{fill:url(#SVGID_10_);}
	.st35{fill:url(#SVGID_11_);}
	.st36{fill:url(#SVGID_12_);}
	.st37{fill:url(#SVGID_13_);}
	.st38{fill:url(#SVGID_14_);}
	.st39{fill:url(#SVGID_15_);}
	.st40{fill:url(#SVGID_16_);}
	.st41{opacity:2.380952e-02;fill:#F9FBFB;}
	.st42{opacity:4.761905e-02;fill:#F3F6F7;}
	.st43{opacity:7.142857e-02;fill:#EEF2F4;}
	.st44{opacity:9.523810e-02;fill:#E8EDF0;}
	.st45{opacity:0.119;fill:#E2E9EC;}
	.st46{opacity:0.1429;fill:#DCE4E8;}
	.st47{opacity:0.1667;fill:#D7E0E5;}
	.st48{opacity:0.1905;fill:#D1DCE1;}
	.st49{opacity:0.2143;fill:#CBD7DD;}
	.st50{opacity:0.2381;fill:#C5D3D9;}
	.st51{opacity:0.2619;fill:#C0CED6;}
	.st52{opacity:0.2857;fill:#BACAD2;}
	.st53{opacity:0.3095;fill:#B4C5CE;}
	.st54{opacity:0.3333;fill:#AEC1CA;}
	.st55{opacity:0.3571;fill:#A9BDC7;}
	.st56{opacity:0.381;fill:#A3B8C3;}
	.st57{opacity:0.4048;fill:#9DB4BF;}
	.st58{opacity:0.4286;fill:#97AFBB;}
	.st59{opacity:0.4524;fill:#92ABB8;}
	.st60{opacity:0.4762;fill:#8CA6B4;}
	.st61{opacity:0.5;fill:#86A2B0;}
	.st62{fill:url(#SVGID_17_);}
	.st63{opacity:0.15;}
	.st64{fill:url(#SVGID_18_);}
	.st65{opacity:2.857143e-02;fill:#F9FBFB;}
	.st66{opacity:5.714286e-02;fill:#F3F6F7;}
	.st67{opacity:8.571429e-02;fill:#EEF2F4;}
	.st68{opacity:0.1143;fill:#E8EDF0;}
	.st69{opacity:0.1429;fill:#E2E9EC;}
	.st70{opacity:0.1714;fill:#DCE4E8;}
	.st71{opacity:0.2;fill:#D7E0E5;}
	.st72{opacity:0.2286;fill:#D1DCE1;}
	.st73{opacity:0.2571;fill:#CBD7DD;}
	.st74{opacity:0.2857;fill:#C5D3D9;}
	.st75{opacity:0.3143;fill:#C0CED6;}
	.st76{opacity:0.3429;fill:#BACAD2;}
	.st77{opacity:0.3714;fill:#B4C5CE;}
	.st78{opacity:0.4;fill:#AEC1CA;}
	.st79{opacity:0.4286;fill:#A9BDC7;}
	.st80{opacity:0.4571;fill:#A3B8C3;}
	.st81{opacity:0.4857;fill:#9DB4BF;}
	.st82{opacity:0.5143;fill:#97AFBB;}
	.st83{opacity:0.5429;fill:#92ABB8;}
	.st84{opacity:0.5714;fill:#8CA6B4;}
	.st85{opacity:0.6;fill:#86A2B0;}
	.st86{fill:url(#SVGID_19_);}
	.st87{fill:url(#SVGID_20_);}
	.st88{fill:url(#SVGID_21_);}
	.st89{opacity:0.2;}
	.st90{opacity:9.523810e-02;fill:#F4F6F8;}
	.st91{opacity:0.1905;fill:#E9EDF1;}
	.st92{opacity:0.2381;fill:#E3E9ED;}
	.st93{opacity:0.2857;fill:#DEE5EA;}
	.st94{opacity:0.3333;fill:#D8E0E6;}
	.st95{opacity:0.381;fill:#D3DCE3;}
	.st96{opacity:0.4286;fill:#CDD8DF;}
	.st97{opacity:0.4762;fill:#C8D3DC;}
	.st98{opacity:0.5238;fill:#C2CFD8;}
	.st99{opacity:0.5714;fill:#BDCAD5;}
	.st100{opacity:0.619;fill:#B7C6D1;}
	.st101{opacity:0.6667;fill:#B2C2CE;}
	.st102{opacity:0.7143;fill:#ACBDCA;}
	.st103{opacity:0.7619;fill:#A7B9C7;}
	.st104{opacity:0.8095;fill:#A1B5C3;}
	.st105{opacity:0.8571;fill:#9CB0C0;}
	.st106{opacity:0.9048;fill:#96ACBC;}
	.st107{opacity:0.9524;fill:#91A7B9;}
	.st108{fill:#8BA3B5;}
	.st109{fill:#EEF7FA;}
	.st110{fill:#E4F1F5;}
	.st111{fill:#FFFFFF;}
	.st112{fill:#E9F2F5;}
	.st113{opacity:0.3;}
	.st114{fill:url(#SVGID_22_);}
	.st115{fill:url(#SVGID_23_);}
	.st116{fill:url(#SVGID_24_);}
	.st117{fill:url(#SVGID_25_);}
	.st118{fill:url(#SVGID_26_);}
	.st119{fill:url(#SVGID_27_);}
	.st120{fill:url(#SVGID_28_);}
	.st121{fill:url(#SVGID_29_);}
	.st122{fill:url(#SVGID_30_);}
	.st123{fill:url(#SVGID_31_);}
	.st124{fill:url(#SVGID_32_);}
	.st125{fill:url(#SVGID_33_);}
	.st126{fill:url(#SVGID_34_);}
	.st127{fill:url(#SVGID_35_);}
	.st128{fill:url(#SVGID_36_);}
	.st129{fill:url(#SVGID_37_);}
	.st130{fill:url(#SVGID_38_);}
	.st131{fill:url(#SVGID_39_);}
	.st132{opacity:5.000000e-02;}
	.st133{opacity:0;fill:#515151;}
	.st134{opacity:4.761905e-02;fill:#545556;}
	.st135{opacity:9.523810e-02;fill:#57595B;}
	.st136{opacity:0.1429;fill:#595D5F;}
	.st137{opacity:0.1905;fill:#5C6164;}
	.st138{opacity:0.2381;fill:#5F6569;}
	.st139{opacity:0.2857;fill:#62686E;}
	.st140{opacity:0.3333;fill:#646C72;}
	.st141{opacity:0.381;fill:#677077;}
	.st142{opacity:0.4286;fill:#6A747C;}
	.st143{opacity:0.4762;fill:#6D7881;}
	.st144{opacity:0.5238;fill:#6F7C85;}
	.st145{opacity:0.5714;fill:#72808A;}
	.st146{opacity:0.619;fill:#75848F;}
	.st147{opacity:0.6667;fill:#788894;}
	.st148{opacity:0.7143;fill:#7A8C98;}
	.st149{opacity:0.7619;fill:#7D8F9D;}
	.st150{opacity:0.8095;fill:#8093A2;}
	.st151{opacity:0.8571;fill:#8397A7;}
	.st152{opacity:0.9048;fill:#859BAB;}
	.st153{opacity:0.9524;fill:#889FB0;}
	.st154{fill:#008DD4;}
	.st155{fill:url(#SVGID_40_);}
	.st156{fill:#4FC5FF;}
	.st157{fill:url(#SVGID_41_);}
	.st158{fill:url(#SVGID_42_);}
	.st159{fill:#63CCFF;}
	.st160{fill:#007FC9;}
	.st161{fill:#6ED8FF;}
	.st162{fill:#008CDE;}
	.st163{fill:#B3EDFF;}
	.st164{fill:#61D7FF;}
	.st165{fill:url(#SVGID_43_);}
	.st166{fill:url(#SVGID_44_);}
	.st167{opacity:2.580645e-02;fill:#505051;}
	.st168{opacity:5.161290e-02;fill:#4E4F51;}
	.st169{opacity:7.741936e-02;fill:#4D4F50;}
	.st170{opacity:0.1032;fill:#4C4E50;}
	.st171{opacity:0.129;fill:#4B4D50;}
	.st172{opacity:0.1548;fill:#494C50;}
	.st173{opacity:0.1806;fill:#484B4F;}
	.st174{opacity:0.2065;fill:#474B4F;}
	.st175{opacity:0.2323;fill:#464A4F;}
	.st176{opacity:0.2581;fill:#44494F;}
	.st177{opacity:0.2839;fill:#43484F;}
	.st178{opacity:0.3097;fill:#42474E;}
	.st179{opacity:0.3355;fill:#41474E;}
	.st180{opacity:0.3613;fill:#3F464E;}
	.st181{opacity:0.3871;fill:#3E454E;}
	.st182{opacity:0.4129;fill:#3D444D;}
	.st183{opacity:0.4387;fill:#3C434D;}
	.st184{opacity:0.4645;fill:#3A424D;}
	.st185{opacity:0.4903;fill:#39424D;}
	.st186{opacity:0.5161;fill:#38414C;}
	.st187{opacity:0.5419;fill:#37404C;}
	.st188{opacity:0.5677;fill:#353F4C;}
	.st189{opacity:0.5935;fill:#343E4C;}
	.st190{opacity:0.6194;fill:#333E4C;}
	.st191{opacity:0.6452;fill:#323D4B;}
	.st192{opacity:0.671;fill:#303C4B;}
	.st193{opacity:0.6968;fill:#2F3B4B;}
	.st194{opacity:0.7226;fill:#2E3A4B;}
	.st195{opacity:0.7484;fill:#2D3A4A;}
	.st196{opacity:0.7742;fill:#2B394A;}
	.st197{opacity:0.8;fill:#2A384A;}
	.st198{fill:url(#SVGID_45_);}
	.st199{fill:url(#SVGID_46_);}
	.st200{fill:#91D5EB;}
	.st201{fill:#E1F0FA;}
	.st202{fill:#9DDEF2;}
	.st203{fill:#A2DEF2;}
	.st204{fill:#BEE9F7;}
	.st205{fill:#C8EEFA;}
	.st206{fill:url(#SVGID_47_);}
	.st207{opacity:0.3;fill:url(#SVGID_48_);}
	.st208{opacity:2.580645e-02;fill:#FBFCFC;}
	.st209{opacity:5.161290e-02;fill:#F7F9FA;}
	.st210{opacity:7.741936e-02;fill:#F3F6F7;}
	.st211{opacity:0.1032;fill:#EFF3F5;}
	.st212{opacity:0.129;fill:#EBF0F2;}
	.st213{opacity:0.1548;fill:#E8EDF0;}
	.st214{opacity:0.1806;fill:#E4EAED;}
	.st215{opacity:0.2065;fill:#E0E7EB;}
	.st216{opacity:0.2323;fill:#DCE4E8;}
	.st217{opacity:0.2581;fill:#D8E1E6;}
	.st218{opacity:0.2839;fill:#D4DEE3;}
	.st219{opacity:0.3097;fill:#D0DBE0;}
	.st220{opacity:0.3355;fill:#CCD8DE;}
	.st221{opacity:0.3613;fill:#C8D5DB;}
	.st222{opacity:0.3871;fill:#C4D2D9;}
	.st223{opacity:0.4129;fill:#C1CFD6;}
	.st224{opacity:0.4387;fill:#BDCCD4;}
	.st225{opacity:0.4645;fill:#B9C9D1;}
	.st226{opacity:0.4903;fill:#B5C6CF;}
	.st227{opacity:0.5161;fill:#B1C3CC;}
	.st228{opacity:0.5419;fill:#ADC0C9;}
	.st229{opacity:0.5677;fill:#A9BDC7;}
	.st230{opacity:0.5935;fill:#A5BAC4;}
	.st231{opacity:0.6194;fill:#A1B7C2;}
	.st232{opacity:0.6452;fill:#9DB4BF;}
	.st233{opacity:0.671;fill:#9AB1BD;}
	.st234{opacity:0.6968;fill:#96AEBA;}
	.st235{opacity:0.7226;fill:#92ABB8;}
	.st236{opacity:0.7484;fill:#8EA8B5;}
	.st237{opacity:0.7742;fill:#8AA5B3;}
	.st238{opacity:0.8;fill:#86A2B0;}
	.st239{fill:url(#SVGID_49_);}
	.st240{clip-path:url(#SVGID_51_);}
	.st241{fill:#0A4D80;}
	.st242{fill:url(#SVGID_52_);}
	.st243{clip-path:url(#SVGID_54_);}
</style>
<g>
	<g class="st1">
		<path class="st2" d="M37.8,335.2C34.3,295.4,52.4,57,90.6,58.8c46.8,2.1,83.1,119.6,93.7,149.8c14.9,42.3,40.1,47.7,60.4,69.9
			c33.1,36.2,69.4,109.3,33.1,162.2c-33.6,48.9-121.9,58.4-192.6,9.9C21.7,407,39.7,358.4,37.8,335.2z"/>
		<path class="st208" d="M91.5,60.8c45.9,2.1,80.9,119.7,91.8,149.8c15.1,41.7,39.9,47.3,60,69.5c32.6,36,67.9,107.8,32.5,160
			c-32.7,48.1-119.3,58.6-189,11.4c-63-42.5-45.8-91-47.7-113.8C35.6,298.4,54.1,59.1,91.5,60.8z"/>
		<path class="st209" d="M92.4,62.8c45.1,2.1,78.6,119.8,89.8,149.9c15.3,41,39.8,47,59.5,69c32.1,35.7,66.4,106.3,31.9,157.9
			c-31.8,47.2-116.6,58.9-185.4,12.9c-62.5-41.4-46.2-89.8-48-112.3C36.9,301.5,55.8,61.1,92.4,62.8z"/>
		<path class="st210" d="M93.2,64.8c44.2,2,76.3,119.9,87.8,150c15.4,40.3,39.7,46.7,59.1,68.5c31.6,35.5,65,104.8,31.4,155.7
			c-30.9,46.4-113.8,58.9-181.8,14.4c-61.9-40.5-46.5-88.5-48.4-110.7C38.2,304.5,57.5,63.2,93.2,64.8z"/>
		<path class="st211" d="M94.1,66.8c43.3,2,74.1,120,85.8,150c15.6,39.6,39.6,46.4,58.7,68c31.1,35.2,63.6,103.4,30.8,153.5
			c-29.9,45.7-111.2,59-178.2,15.8C29.9,414.7,44.4,367,42.6,345.1C39.4,307.5,59.1,65.2,94.1,66.8z"/>
		<path class="st212" d="M95,68.8c42.4,1.9,71.8,120.1,83.9,150.1c15.7,39,39.5,46.1,58.3,67.6c30.6,35,62.2,101.9,30.3,151.4
			c-29,44.9-108.5,59.2-174.6,17.3c-60.8-38.5-47.3-86.1-49-107.6C40.7,310.6,60.8,67.3,95,68.8z"/>
		<path class="st213" d="M95.9,70.8c41.6,1.9,69.5,120.2,81.9,150.2c15.9,38.3,39.4,45.7,57.9,67.1c30.1,34.7,60.8,100.4,29.7,149.2
			c-28.1,44.1-105.8,59.3-171,18.8C34,418.6,46.7,371.2,45,350C42,313.6,62.5,69.3,95.9,70.8z"/>
		<path class="st214" d="M96.8,72.8c40.7,1.9,67.2,120.3,79.9,150.2c16,37.7,39.3,45.4,57.5,66.6c29.6,34.5,59.3,98.9,29.1,147
			c-27.2,43.3-103.1,59.5-167.4,20.3c-59.8-36.5-48.1-83.6-49.7-104.5C43.3,316.6,64.2,71.4,96.8,72.8z"/>
		<path class="st215" d="M97.6,74.9c39.8,1.8,64.9,120.5,77.9,150.3c16.1,37,39.2,45.1,57.1,66.2c29.1,34.2,57.9,97.4,28.6,144.9
			c-26.3,42.5-100.4,59.6-163.8,21.8C38.1,422.5,49,375.5,47.4,355C44.6,319.7,65.9,73.4,97.6,74.9z"/>
		<path class="st216" d="M98.5,76.9c38.9,1.8,62.7,120.6,75.9,150.3c16.2,36.3,39.1,44.8,56.6,65.7c28.6,34,56.5,95.9,28,142.7
			c-25.4,41.7-97.8,59.8-160.2,23.2c-58.8-34.4-48.8-81.2-50.4-101.4C45.8,322.7,67.5,75.5,98.5,76.9z"/>
		<path class="st217" d="M99.4,78.9c38.1,1.7,60.4,120.7,74,150.4c16.3,35.7,39,44.5,56.2,65.2c28.1,33.7,55,94.4,27.4,140.5
			c-24.5,41-95.1,59.9-156.5,24.7c-58.3-33.4-49.2-79.9-50.7-99.8C47.1,325.7,69.2,77.5,99.4,78.9z"/>
		<path class="st218" d="M100.3,80.9c37.2,1.7,58.1,120.8,72,150.5c16.4,35,38.9,44.1,55.8,64.7c27.6,33.5,53.6,92.9,26.9,138.4
			c-23.6,40.2-92.4,60.1-152.9,26.2C44.3,428.3,52.4,382,51,362.4C48.4,328.8,70.9,79.5,100.3,80.9z"/>
		<path class="st219" d="M101.2,82.9c36.3,1.7,55.8,120.9,70,150.5c16.5,34.4,38.7,43.8,55.4,64.3c27.1,33.2,52.2,91.4,26.3,136.2
			c-22.7,39.4-89.8,60.3-149.3,27.7c-57.3-31.3-50-77.5-51.4-96.7C49.7,331.8,72.6,81.6,101.2,82.9z"/>
		<path class="st220" d="M102,84.9c35.5,1.6,53.4,121,68,150.6c16.6,33.7,38.6,43.5,55,63.8c26.6,33,50.7,89.9,25.8,134
			c-21.8,38.6-87.1,60.5-145.7,29.2c-56.8-30.3-50.4-76.2-51.7-95.2C51,334.8,74.3,83.6,102,84.9z"/>
		<path class="st221" d="M102.9,86.9c34.6,1.6,51.1,121.1,66.1,150.6c16.7,33.1,38.5,43.2,54.6,63.3c26.1,32.7,49.3,88.4,25.2,131.9
			c-20.9,37.8-84.5,60.6-142.1,30.6c-56.3-29.3-50.7-75-52.1-93.6C52.2,337.9,75.9,85.7,102.9,86.9z"/>
		<path class="st222" d="M103.8,88.9c33.7,1.5,48.8,121.2,64.1,150.7c16.8,32.4,38.4,42.9,54.2,62.9c25.6,32.5,47.8,86.9,24.6,129.7
			c-20,37-81.8,60.8-138.5,32.1c-55.8-28.2-51.1-73.8-52.4-92.1C53.5,340.9,77.6,87.7,103.8,88.9z"/>
		<path class="st223" d="M104.7,90.9c32.8,1.5,46.5,121.3,62.1,150.8c16.9,31.8,38.3,42.5,53.8,62.4c25.1,32.2,46.4,85.4,24.1,127.5
			c-19.2,36.1-79.2,61-134.9,33.6C54.4,438,58.2,392.7,57,374.7C54.8,343.9,79.3,89.8,104.7,90.9z"/>
		<path class="st224" d="M105.6,92.9c32,1.5,44.2,121.5,60.1,150.8c16.9,31.2,38.2,42.2,53.3,61.9c24.6,32,45,83.9,23.5,125.4
			c-18.3,35.3-76.5,61.2-131.3,35.1c-54.8-26.1-51.9-71.3-53.1-89C56.1,347,81,91.8,105.6,92.9z"/>
		<path class="st225" d="M106.5,94.9c31.1,1.4,41.8,121.6,58.1,150.9c17,30.5,38.1,41.9,52.9,61.4c24.1,31.7,43.5,82.4,22.9,123.2
			c-17.4,34.5-73.9,61.4-127.7,36.6C58.5,442,60.5,397,59.4,379.6C57.4,350,82.7,93.9,106.5,94.9z"/>
		<path class="st226" d="M107.3,97c30.2,1.4,39.5,121.7,56.2,150.9c17,29.9,38,41.6,52.5,61c23.6,31.5,42,80.9,22.4,121
			c-16.5,33.7-71.2,61.6-124.1,38c-53.8-24-52.7-68.9-53.8-85.8C58.6,353,84.3,95.9,107.3,97z"/>
		<path class="st227" d="M108.2,99c29.3,1.3,37.2,121.8,54.2,151c17.1,29.3,37.9,41.2,52.1,60.5c23.1,31.2,40.6,79.4,21.8,118.9
			c-15.6,32.9-68.6,61.8-120.5,39.5c-53.4-22.9-53-67.6-54.1-84.3C59.9,356.1,86,97.9,108.2,99z"/>
		<path class="st228" d="M109.1,101c28.5,1.3,34.8,122,52.2,151.1c17.1,28.6,37.8,40.9,51.7,60c22.6,31,39.1,77.8,21.3,116.7
			c-14.8,32.1-66,62-116.8,41C64.5,447.9,64,403.4,63,387C61.2,359.1,87.7,100,109.1,101z"/>
		<path class="st229" d="M110,103c27.6,1.3,32.4,122.1,50.2,151.1c17.2,28,37.6,40.6,51.3,59.6c22.1,30.7,37.7,76.3,20.7,114.5
			c-13.9,31.3-63.3,62.3-113.2,42.5c-52.4-20.8-53.8-65.2-54.8-81.2C62.5,362.1,89.4,102,110,103z"/>
		<path class="st230" d="M110.9,105c26.7,1.2,30.1,122.3,48.3,151.2c17.2,27.4,37.5,40.3,50.9,59.1c21.6,30.5,36.2,74.8,20.1,112.4
			c-13,30.5-60.7,62.5-109.6,44c-51.9-19.7-54.2-63.9-55.1-79.6C63.8,365.2,91.1,104.1,110.9,105z"/>
		<path class="st231" d="M111.7,107c25.8,1.2,27.7,122.4,46.3,151.3c17.2,26.8,37.4,40,50.4,58.6c21.1,30.2,34.7,73.3,19.6,110.2
			c-12.2,29.7-58.1,62.7-106,45.5c-51.5-18.6-54.6-62.7-55.5-78.1C65,368.2,92.7,106.1,111.7,107z"/>
		<path class="st232" d="M112.6,109c25,1.1,25.3,122.6,44.3,151.3c17.3,26.2,37.3,39.6,50,58.2c20.6,30,33.2,71.8,19,108
			c-11.3,28.8-55.5,63-102.4,46.9c-51-17.4-54.9-61.5-55.8-76.5C66.3,371.2,94.4,108.2,112.6,109z"/>
		<path class="st233" d="M113.5,111c24.1,1.1,23,122.7,42.3,151.4c17.3,25.6,37.2,39.3,49.6,57.7c20.1,29.7,31.7,70.2,18.5,105.9
			c-10.4,28-52.8,63.3-98.8,48.4c-50.6-16.3-55.3-60.2-56.1-75C67.6,374.3,96.1,110.2,113.5,111z"/>
		<path class="st234" d="M114.4,113c23.2,1.1,20.6,122.9,40.3,151.4c17.3,25,37.1,39,49.2,57.2c19.6,29.5,30.2,68.7,17.9,103.7
			c-9.6,27.2-50.2,63.5-95.2,49.9c-50.1-15.2-55.7-59-56.5-73.4C68.9,377.3,97.8,112.3,114.4,113z"/>
		<path class="st235" d="M115.3,115c22.3,1,18.2,123.1,38.4,151.5c17.3,24.4,37,38.7,48.8,56.7c19.1,29.2,28.7,67.2,17.3,101.5
			c-8.8,26.4-47.6,63.8-91.6,51.4c-49.6-14-56.1-57.8-56.8-71.9C70.2,380.3,99.4,114.3,115.3,115z"/>
		<path class="st236" d="M116.1,117c21.5,1,15.8,123.3,36.4,151.6c17.3,23.8,36.9,38.4,48.4,56.3c18.6,29,27.2,65.6,16.8,99.4
			c-7.9,25.6-45,64.1-88,52.9c-49.2-12.9-56.5-56.6-57.1-70.3C71.4,383.4,101.1,116.4,116.1,117z"/>
		<path class="st237" d="M117,119c20.6,0.9,13.4,123.4,34.4,151.6c17.3,23.2,36.8,38,48,55.8c18.1,28.7,25.7,64.1,16.2,97.2
			c-7.1,24.7-42.4,64.4-84.4,54.3c-48.7-11.7-56.8-55.3-57.5-68.7C72.7,386.4,102.8,118.4,117,119z"/>
		<path class="st238" d="M117.9,121.1c19.7,0.9,10.9,123.6,32.4,151.7c17.4,22.6,36.7,37.7,47.5,55.3c17.6,28.5,24.2,62.6,15.6,95
			c-6.3,23.9-39.7,64.7-80.8,55.8c-48.3-10.5-57.2-54.1-57.8-67.2C74,389.4,104.5,120.4,117.9,121.1z"/>
	</g>
	<path class="st204" d="M118.3,358.6c-12.3,0-22.3-10-22.3-22.3V52.4c0-12.3,10-22.3,22.3-22.3c12.3,0,22.3,10,22.3,22.3v283.9
		C140.7,348.7,130.7,358.6,118.3,358.6z"/>
	<linearGradient id="SVGID_1_" gradientUnits="userSpaceOnUse" x1="67.2934" y1="314.5979" x2="183.6675" y2="430.972">
		<stop  offset="0" style="stop-color:#076BBA"/>
		<stop  offset="1" style="stop-color:#0060AB"/>
	</linearGradient>
	<path class="st25" d="M140.7,293.1v-45.8H96.1v45.8c-38.6,9.9-67.3,45-67.3,86.7c0,49.4,40.2,89.5,89.6,89.5s89.6-40.2,89.6-89.5
		C207.9,338,179.3,303,140.7,293.1z"/>
	<g>
		<defs>
			<path id="SVGID_53_" d="M140.7,293.1V175.9V52.4c0-12.3-10-22.3-22.3-22.3c-12.3,0-22.3,10-22.3,22.3v123.5v117.2
				c-38.6,9.9-67.3,45-67.3,86.7c0,49.4,40.2,89.5,89.6,89.5s89.6-40.2,89.6-89.5C207.9,338,179.3,303,140.7,293.1z"/>
		</defs>
		<clipPath id="SVGID_2_">
			<use xlink:href="#SVGID_53_"  style="overflow:visible;"/>
		</clipPath>
		<g style="clip-path:url(#SVGID_2_);">
			<path class="st2" d="M115.1,379.7c-12.5,28.1-4.4,63.9,0,83.6c9.8,44.6-56,43.6-81.2,29.6c-87.3-48.8-68.9-151.7-51-178.5
				c19.4-29.1,43.3-44.5,64.7-75.1C58,224.5,63.8,143.4,65.8,81.9c0.8-24-7.9-42.2,23.6-78c16-18.1,84.1-8.9,63.2,26.3
				c-18.2,30.6-10.6,55.5-12,83.6c-1.9,41.1,9.3,163.2-2.3,200.1C129,343.5,123.8,359.9,115.1,379.7z"/>
			<path class="st3" d="M111.6,377.9c-12.8,28.2-4.5,64.4,0,83.6c10.1,43.6-53.9,42.1-78.2,28.3C-50,442.3-33,342.9-15.5,316.3
				c19-28.9,43.9-45,64.5-75c10.3-15,15.7-98,17.6-159.2c0.7-23.9-7.3-42.3,23-76.8c16-18.2,81.7-8.9,61.2,25
				c-17.6,29.3-10.8,53.8-12,81.8c-1.8,42,9,165.2-2.3,200.8C127.3,341.7,120.9,357.3,111.6,377.9z"/>
			<path class="st90" d="M108.1,376.1c-13.1,28.3-4.6,64.9-0.1,83.6c10.4,42.6-51.9,40.6-75.3,27c-79.2-46-63.8-142-46.7-168.4
				c18.5-28.6,44.6-45.4,64.2-74.8c10.2-15.2,15.3-100.2,17.1-161c0.7-23.9-6.7-42.5,22.4-75.6c16-18.3,79.3-9,59.2,23.8
				c-17.1,28.1-10.9,52.2-12.1,80c-1.6,42.8,8.8,167.1-2.3,201.5C125.6,340,118,354.7,108.1,376.1z"/>
			<path class="st5" d="M104.6,374.3c-13.4,28.4-4.8,65.4-0.1,83.6c10.7,41.6-49.8,39-72.3,25.7C-43,439-29,346.4-12.4,320.2
				c18-28.3,45.2-45.9,64-74.7c10.1-15.5,14.9-102.4,16.6-162.8C68.9,58.9,62.2,40,90,8.3c16.1-18.4,76.8-9.1,57.2,22.5
				c-16.6,26.8-11.2,50.6-12.2,78.2c-1.6,43.7,8.6,169.1-2.3,202.2C123.9,338.3,115.1,352.1,104.6,374.3z"/>
			<path class="st91" d="M101.2,372.5c-13.6,28.6-4.9,65.9-0.2,83.6c10.9,40.7-47.7,37.5-69.4,24.4C-39.5,437.3-27,348.1-10.8,322.1
				C6.7,294,35,275.7,52.9,247.5C62.9,231.7,67.4,143,69,82.9c0.6-23.7-5.5-42.7,21.2-73.1c16.1-18.5,74.4-9.1,55.2,21.3
				c-16.1,25.5-11.3,48.9-12.3,76.4c-1.5,44.6,8.4,171.1-2.2,202.9C122.2,336.6,112.1,349.5,101.2,372.5z"/>
			<path class="st92" d="M97.7,370.7c-13.9,28.7-5,66.5-0.2,83.6c11.2,39.7-45.6,36-66.5,23.1C-36.1,435.7-25,349.9-9.2,324
				c17-27.8,46.4-46.9,63.4-74.5c9.9-16,14-106.7,15.7-166.4c0.6-23.6-4.8-42.8,20.6-71.9c16.2-18.6,72-9.2,53.2,20.1
				c-15.6,24.3-11.5,47.3-12.3,74.6c-1.4,45.5,8.2,173-2.2,203.6C120.5,334.9,109.2,346.9,97.7,370.7z"/>
			<path class="st93" d="M94.2,368.9c-14.2,28.8-5.2,67-0.3,83.6c11.5,38.7-43.5,34.5-63.5,21.8C-32.6,434.1-23.1,351.6-7.7,326
				c16.6-27.6,47-47.4,63.2-74.4c9.8-16.3,13.6-108.9,15.2-168.3c0.6-23.6-4.2-42.9,20-70.6c16.2-18.6,69.6-9.2,51.2,18.8
				c-15.1,23-11.7,45.7-12.4,72.8c-1.3,46.4,8,175-2.2,204.3C118.8,333.2,106.3,344.3,94.2,368.9z"/>
			<path class="st94" d="M90.8,367.1c-14.4,28.9-5.3,67.5-0.3,83.5c11.8,37.7-41.4,33-60.6,20.5c-59-38.6-50.9-117.7-36-143.2
				c16.1-27.3,47.5-48,62.9-74.2C66.5,237.1,70,142.6,71.5,83.6c0.6-23.5-3.6-43,19.4-69.4c16.3-18.7,67.2-9.3,49.2,17.6
				c-14.6,21.8-11.8,44.1-12.5,71c-1.2,47.3,7.8,177-2.1,205C117.1,331.5,103.4,341.7,90.8,367.1z"/>
			<path class="st95" d="M87.3,365.3c-14.7,29.1-5.4,68-0.3,83.5c12,36.7-39.3,31.5-57.6,19.2c-55-37-48.4-112.9-33.8-138.1
				c15.6-27,48.1-48.5,62.7-74.1c9.6-16.9,12.8-113.3,14.2-171.9c0.5-23.4-3-43.2,18.8-68.2c16.3-18.8,64.8-9.3,47.2,16.3
				c-14,20.5-12,42.4-12.6,69.2c-1,48.1,7.6,179-2.1,205.7C115.4,329.8,100.5,339.1,87.3,365.3z"/>
			<path class="st96" d="M83.8,363.5c-14.9,29.2-5.5,68.6-0.4,83.5c12.3,35.7-37.3,30-54.7,17.9c-51-35.4-45.8-108-31.7-133.1
				c15.1-26.8,48.6-49,62.4-74c9.5-17.2,12.4-115.4,13.7-173.7c0.5-23.3-2.3-43.3,18.2-67c16.4-18.9,62.4-9.4,45.2,15.1
				C123,51.5,124.4,73,123.9,99.6c-0.9,49,7.3,180.9-2.1,206.4C113.7,328.1,97.6,336.5,83.8,363.5z"/>
			<path class="st97" d="M80.4,361.7c-15.2,29.3-5.7,69.1-0.4,83.5c12.6,34.7-35.2,28.5-51.8,16.6c-47-33.8-43.3-103.1-29.6-128
				c14.6-26.5,49.1-49.6,62.2-73.9c9.4-17.5,11.9-117.6,13.2-175.5c0.5-23.3-1.7-43.4,17.6-65.7c16.4-18.9,60-9.4,43.2,13.9
				c-13,18-12.3,39.2-12.7,65.6c-0.8,49.9,7.1,182.9-2,207.1C112,326.4,94.7,333.9,80.4,361.7z"/>
			<path class="st98" d="M76.9,359.9c-15.4,29.5-5.8,69.6-0.5,83.5c12.9,33.8-33.1,27-48.8,15.2c-43.1-32.1-40.7-98.3-27.4-123
				c14.2-26.2,49.6-50.2,61.9-73.7c9.2-17.7,11.5-119.8,12.7-177.3c0.5-23.2-1.1-43.5,17-64.5c16.5-19,57.6-9.5,41.2,12.6
				c-12.4,16.8-12.5,37.5-12.8,63.8c-0.7,50.8,6.9,184.9-2,207.8C110.3,324.7,91.8,331.4,76.9,359.9z"/>
			<path class="st99" d="M73.4,358.1c-15.7,29.6-5.9,70.1-0.5,83.5c13.2,32.8-31,25.5-45.9,13.9c-39.1-30.4-38.1-93.4-25.3-117.9
				c13.7-26,50.1-50.8,61.6-73.6c9.1-18.1,11.1-122,12.2-179.1C76,61.7,75,41.2,92,21.6c16.5-19.1,55.2-9.5,39.2,11.4
				c-11.9,15.5-12.6,35.9-12.9,62c-0.5,51.7,6.7,186.8-2,208.5C108.6,323,88.9,328.8,73.4,358.1z"/>
			<path class="st100" d="M69.9,356.3c-15.9,29.7-6,70.6-0.6,83.5c13.5,31.8-28.9,24.1-43,12.6C-8.8,423.8-9.1,363.8,3.3,339.5
				c13.2-25.7,50.6-51.3,61.4-73.5c8.9-18.4,10.7-124.2,11.7-181c0.4-23.1,0.1-43.8,15.8-62c16.6-19.2,52.8-9.5,37.2,10.1
				c-11.3,14.3-12.8,34.3-12.9,60.2c-0.4,52.5,6.4,188.8-1.9,209.2C106.8,321.3,86,326.2,69.9,356.3z"/>
			<path class="st101" d="M66.5,354.5c-16.2,29.9-6.1,71.2-0.6,83.5c13.8,30.8-26.8,22.6-40,11.3c-31.3-26.8-33-83.7-21-107.8
				C17.6,316,55.9,289.5,66,268.1c8.8-18.7,10.3-126.3,11.2-182.8c0.4-23,0.7-43.9,15.2-60.8c16.6-19.3,50.5-9.6,35.2,8.9
				c-10.8,13-12.9,32.7-13,58.4c-0.2,53.4,6.2,190.8-1.9,209.9C105.1,319.6,83.2,323.6,66.5,354.5z"/>
			<path class="st102" d="M63,352.7c-16.4,30-6.2,71.7-0.6,83.5c14.1,29.8-24.8,21.2-37.1,10C-2.2,421.3-5.2,367.3,6.4,343.4
				c12.2-25.2,51.5-52.5,60.9-73.3c8.6-19,9.8-128.5,10.7-184.6c0.3-22.9,1.3-44.1,14.6-59.6c16.6-19.4,48.1-9.6,33.2,7.7
				c-10.2,11.8-13.1,31-13.1,56.6c-0.1,54.3,6,192.7-1.9,210.6C103.4,317.9,80.3,321,63,352.7z"/>
			<path class="st103" d="M59.5,350.8c-16.6,30.2-6.4,72.2-0.7,83.5c14.4,28.8-22.7,19.8-34.1,8.7C1,420.2-3.2,369.1,8,345.3
				c11.8-24.9,51.9-53.1,60.6-73.1C77,252.9,78,141.5,78.8,85.8c0.3-22.8,1.9-44.2,14-58.4c16.7-19.4,45.8-9.6,31.2,6.4
				c-9.6,10.6-13.2,29.4-13.2,54.8c0.1,55.2,5.7,194.7-1.8,211.3C101.7,316.2,77.4,318.4,59.5,350.8z"/>
			<path class="st104" d="M56.1,349c-16.9,30.3-6.5,72.7-0.7,83.5c14.7,27.8-20.7,18.4-31.2,7.4C4.2,419.1-1.2,370.8,9.5,347.3
				c11.3-24.7,52.3-53.7,60.4-73c8.2-19.7,9-132.9,9.7-188.2c0.3-22.8,2.5-44.3,13.4-57.1c16.7-19.5,43.4-9.6,29.2,5.2
				c-9,9.4-13.3,27.8-13.2,53c0.2,56.1,5.5,196.6-1.8,212C99.9,314.4,74.5,315.9,56.1,349z"/>
			<path class="st105" d="M52.6,347.2c-17.1,30.5-6.6,73.2-0.8,83.5c15.1,26.8-18.7,17.1-28.3,6.1c-16.3-18.7-22.8-64.3-12.5-87.7
				c10.8-24.4,52.7-54.3,60.1-72.9c7.9-20,8.6-135,9.2-190c0.3-22.7,3.1-44.5,12.8-55.9c16.7-19.6,41.1-9.6,27.2,3.9
				c-8.4,8.2-13.5,26.1-13.3,51.2c0.4,56.9,5.2,198.6-1.8,212.7C98.2,312.7,71.6,313.3,52.6,347.2z"/>
			<path class="st106" d="M49.1,345.4c-17.3,30.6-6.7,73.7-0.8,83.5c15.4,25.8-16.8,15.9-25.3,4.8c-12.8-16.5-20.2-59.4-10.3-82.6
				C23,327,65.8,296.2,72.5,278.4c7.7-20.4,8.1-137.2,8.7-191.8c0.2-22.6,3.7-44.6,12.3-54.7c16.8-19.7,38.9-9.5,25.2,2.7
				c-7.8,7-13.6,24.5-13.4,49.4c0.6,57.8,4.9,200.5-1.7,213.4C96.5,311,68.8,310.7,49.1,345.4z"/>
			<path class="st107" d="M45.6,343.6c-17.5,30.8-6.8,74.2-0.9,83.5c15.8,24.7-15.1,14.7-22.4,3.5c-9.4-14.3-17.6-54.6-8.2-77.6
				c9.8-23.9,53.5-55.6,59.6-72.6C81.2,259.7,81.5,141,82,86.8c0.2-22.5,4.3-44.7,11.7-53.4c16.8-19.8,36.6-9.4,23.2,1.5
				c-7.2,5.8-13.8,22.9-13.5,47.6c0.8,58.7,4.7,202.5-1.7,214.1C94.7,309.3,65.9,308.1,45.6,343.6z"/>
			<path class="st108" d="M42.2,341.8c-17.8,30.9-6.8,74.7-0.9,83.5c16.2,23.7-13.6,13.6-19.4,2.2c-6.2-12.1-15.1-49.7-6-72.5
				c9.4-23.6,53.9-56.2,59.3-72.5c7-21.1,7.3-141.6,7.7-195.5c0.2-22.5,4.8-44.9,11.1-52.2c16.8-19.9,34.4-9.3,21.2,0.2
				c-6.6,4.7-13.9,21.2-13.6,45.8c0.9,59.6,4.4,204.4-1.7,214.8C92.9,307.5,63,305.5,42.2,341.8z"/>
		</g>
	</g>
	<path class="st111" d="M164.6,272.1V50c0-26.9-21.8-48.7-48.7-48.7C89.1,1.4,67.3,23.1,67.3,50v222.1C27.5,290.5,0,330.7,0,377.3
		c0,64,51.9,116,116,116c64.1,0,116-51.9,116-116C231.9,330.7,204.4,290.5,164.6,272.1z M116,466.9c-49.4,0-89.6-40.2-89.6-89.6
		c0-41.7,28.7-76.7,67.2-86.7V173.5V50c0-12.3,10-22.3,22.3-22.3c12.3,0,22.3,10,22.3,22.3v123.5v117.1c38.6,9.9,67.3,45,67.3,86.7
		C205.5,426.7,165.4,466.9,116,466.9z"/>
	<path class="st110" d="M167.1,274.5v-222c0-26.9-21.8-48.7-48.7-48.7c-26.8,0-48.7,21.8-48.7,48.7v222C30,292.9,2.4,333,2.4,379.7
		c0,64,52,115.9,116,115.9c64.1,0,116-51.9,116-115.9C234.3,333,206.8,292.9,167.1,274.5z M118.3,469.3c-49.4,0-89.6-40.2-89.6-89.5
		c0-41.7,28.7-76.7,67.3-86.7V175.9V52.4c0-12.3,10-22.3,22.3-22.3c12.3,0,22.3,10,22.3,22.3v123.5v117.2
		c38.6,9.9,67.3,45,67.3,86.7C207.9,429.1,167.7,469.3,118.3,469.3z"/>
	<g>
		<rect x="145.3" y="116.8" class="st241" width="21.8" height="13.3"/>
		<rect x="145.3" y="73" class="st241" width="21.8" height="13.3"/>
		<rect x="145.3" y="160.5" class="st241" width="21.8" height="13.3"/>
		<rect x="145.3" y="204.3" class="st241" width="21.8" height="13.3"/>
		<rect x="145.3" y="248" class="st241" width="21.8" height="13.3"/>
	</g>
</g>
</svg>
