<?xml version="1.0" encoding="utf-8"?>
<!-- Generator: Adobe Illustrator 25.0.0, SVG Export Plug-In . SVG Version: 6.00 Build 0)  -->
<svg version="1.1" id="_x3C_Layer_x3E_" xmlns="http://www.w3.org/2000/svg" xmlns:xlink="http://www.w3.org/1999/xlink" x="0px"
	 y="0px" viewBox="0 0 500 500" style="enable-background:new 0 0 500 500;" xml:space="preserve">
<style type="text/css">
	.st0{opacity:0.1;}
	.st1{opacity:0.5;}
	.st2{opacity:0;fill:#FFFFFF;}
	.st3{opacity:4.761905e-02;fill:#F9FBFB;}
	.st4{opacity:9.523810e-02;fill:#F3F6F7;}
	.st5{opacity:0.1429;fill:#EEF2F4;}
	.st6{opacity:0.1905;fill:#E8EDF0;}
	.st7{opacity:0.2381;fill:#E2E9EC;}
	.st8{opacity:0.2857;fill:#DCE4E8;}
	.st9{opacity:0.3333;fill:#D7E0E5;}
	.st10{opacity:0.381;fill:#D1DCE1;}
	.st11{opacity:0.4286;fill:#CBD7DD;}
	.st12{opacity:0.4762;fill:#C5D3D9;}
	.st13{opacity:0.5238;fill:#C0CED6;}
	.st14{opacity:0.5714;fill:#BACAD2;}
	.st15{opacity:0.619;fill:#B4C5CE;}
	.st16{opacity:0.6667;fill:#AEC1CA;}
	.st17{opacity:0.7143;fill:#A9BDC7;}
	.st18{opacity:0.7619;fill:#A3B8C3;}
	.st19{opacity:0.8095;fill:#9DB4BF;}
	.st20{opacity:0.8571;fill:#97AFBB;}
	.st21{opacity:0.9048;fill:#92ABB8;}
	.st22{opacity:0.9524;fill:#8CA6B4;}
	.st23{fill:#86A2B0;}
	.st24{fill:#FFE3AB;}
	.st25{fill:url(#SVGID_1_);}
	.st26{fill:url(#SVGID_2_);}
	.st27{fill:url(#SVGID_3_);}
	.st28{fill:url(#SVGID_4_);}
	.st29{fill:url(#SVGID_5_);}
	.st30{fill:url(#SVGID_6_);}
	.st31{fill:url(#SVGID_7_);}
	.st32{fill:url(#SVGID_8_);}
	.st33{fill:url(#SVGID_9_);}
	.st34{fill:url(#SVGID_10_);}
	.st35{fill:url(#SVGID_11_);}
	.st36{fill:url(#SVGID_12_);}
	.st37{fill:url(#SVGID_13_);}
	.st38{fill:url(#SVGID_14_);}
	.st39{fill:url(#SVGID_15_);}
	.st40{fill:url(#SVGID_16_);}
	.st41{opacity:2.380952e-02;fill:#F9FBFB;}
	.st42{opacity:4.761905e-02;fill:#F3F6F7;}
	.st43{opacity:7.142857e-02;fill:#EEF2F4;}
	.st44{opacity:9.523810e-02;fill:#E8EDF0;}
	.st45{opacity:0.119;fill:#E2E9EC;}
	.st46{opacity:0.1429;fill:#DCE4E8;}
	.st47{opacity:0.1667;fill:#D7E0E5;}
	.st48{opacity:0.1905;fill:#D1DCE1;}
	.st49{opacity:0.2143;fill:#CBD7DD;}
	.st50{opacity:0.2381;fill:#C5D3D9;}
	.st51{opacity:0.2619;fill:#C0CED6;}
	.st52{opacity:0.2857;fill:#BACAD2;}
	.st53{opacity:0.3095;fill:#B4C5CE;}
	.st54{opacity:0.3333;fill:#AEC1CA;}
	.st55{opacity:0.3571;fill:#A9BDC7;}
	.st56{opacity:0.381;fill:#A3B8C3;}
	.st57{opacity:0.4048;fill:#9DB4BF;}
	.st58{opacity:0.4286;fill:#97AFBB;}
	.st59{opacity:0.4524;fill:#92ABB8;}
	.st60{opacity:0.4762;fill:#8CA6B4;}
	.st61{opacity:0.5;fill:#86A2B0;}
	.st62{fill:url(#SVGID_17_);}
	.st63{opacity:0.15;}
	.st64{fill:url(#SVGID_18_);}
	.st65{opacity:2.857143e-02;fill:#F9FBFB;}
	.st66{opacity:5.714286e-02;fill:#F3F6F7;}
	.st67{opacity:8.571429e-02;fill:#EEF2F4;}
	.st68{opacity:0.1143;fill:#E8EDF0;}
	.st69{opacity:0.1429;fill:#E2E9EC;}
	.st70{opacity:0.1714;fill:#DCE4E8;}
	.st71{opacity:0.2;fill:#D7E0E5;}
	.st72{opacity:0.2286;fill:#D1DCE1;}
	.st73{opacity:0.2571;fill:#CBD7DD;}
	.st74{opacity:0.2857;fill:#C5D3D9;}
	.st75{opacity:0.3143;fill:#C0CED6;}
	.st76{opacity:0.3429;fill:#BACAD2;}
	.st77{opacity:0.3714;fill:#B4C5CE;}
	.st78{opacity:0.4;fill:#AEC1CA;}
	.st79{opacity:0.4286;fill:#A9BDC7;}
	.st80{opacity:0.4571;fill:#A3B8C3;}
	.st81{opacity:0.4857;fill:#9DB4BF;}
	.st82{opacity:0.5143;fill:#97AFBB;}
	.st83{opacity:0.5429;fill:#92ABB8;}
	.st84{opacity:0.5714;fill:#8CA6B4;}
	.st85{opacity:0.6;fill:#86A2B0;}
	.st86{fill:url(#SVGID_19_);}
	.st87{fill:url(#SVGID_20_);}
	.st88{fill:url(#SVGID_21_);}
	.st89{opacity:0.2;}
	.st90{opacity:9.523810e-02;fill:#F4F6F8;}
	.st91{opacity:0.1905;fill:#E9EDF1;}
	.st92{opacity:0.2381;fill:#E3E9ED;}
	.st93{opacity:0.2857;fill:#DEE5EA;}
	.st94{opacity:0.3333;fill:#D8E0E6;}
	.st95{opacity:0.381;fill:#D3DCE3;}
	.st96{opacity:0.4286;fill:#CDD8DF;}
	.st97{opacity:0.4762;fill:#C8D3DC;}
	.st98{opacity:0.5238;fill:#C2CFD8;}
	.st99{opacity:0.5714;fill:#BDCAD5;}
	.st100{opacity:0.619;fill:#B7C6D1;}
	.st101{opacity:0.6667;fill:#B2C2CE;}
	.st102{opacity:0.7143;fill:#ACBDCA;}
	.st103{opacity:0.7619;fill:#A7B9C7;}
	.st104{opacity:0.8095;fill:#A1B5C3;}
	.st105{opacity:0.8571;fill:#9CB0C0;}
	.st106{opacity:0.9048;fill:#96ACBC;}
	.st107{opacity:0.9524;fill:#91A7B9;}
	.st108{fill:#8BA3B5;}
	.st109{fill:#EEF7FA;}
	.st110{fill:#E4F1F5;}
	.st111{fill:#FFFFFF;}
	.st112{fill:#E9F2F5;}
	.st113{opacity:0.3;}
	.st114{fill:url(#SVGID_22_);}
	.st115{fill:url(#SVGID_23_);}
	.st116{fill:url(#SVGID_24_);}
	.st117{fill:url(#SVGID_25_);}
	.st118{fill:url(#SVGID_26_);}
	.st119{fill:url(#SVGID_27_);}
	.st120{fill:url(#SVGID_28_);}
	.st121{fill:url(#SVGID_29_);}
	.st122{fill:url(#SVGID_30_);}
	.st123{fill:url(#SVGID_31_);}
	.st124{fill:url(#SVGID_32_);}
	.st125{fill:url(#SVGID_33_);}
	.st126{fill:url(#SVGID_34_);}
	.st127{fill:url(#SVGID_35_);}
	.st128{fill:url(#SVGID_36_);}
	.st129{fill:url(#SVGID_37_);}
	.st130{fill:url(#SVGID_38_);}
	.st131{fill:url(#SVGID_39_);}
	.st132{opacity:5.000000e-02;}
	.st133{opacity:0;fill:#515151;}
	.st134{opacity:4.761905e-02;fill:#545556;}
	.st135{opacity:9.523810e-02;fill:#57595B;}
	.st136{opacity:0.1429;fill:#595D5F;}
	.st137{opacity:0.1905;fill:#5C6164;}
	.st138{opacity:0.2381;fill:#5F6569;}
	.st139{opacity:0.2857;fill:#62686E;}
	.st140{opacity:0.3333;fill:#646C72;}
	.st141{opacity:0.381;fill:#677077;}
	.st142{opacity:0.4286;fill:#6A747C;}
	.st143{opacity:0.4762;fill:#6D7881;}
	.st144{opacity:0.5238;fill:#6F7C85;}
	.st145{opacity:0.5714;fill:#72808A;}
	.st146{opacity:0.619;fill:#75848F;}
	.st147{opacity:0.6667;fill:#788894;}
	.st148{opacity:0.7143;fill:#7A8C98;}
	.st149{opacity:0.7619;fill:#7D8F9D;}
	.st150{opacity:0.8095;fill:#8093A2;}
	.st151{opacity:0.8571;fill:#8397A7;}
	.st152{opacity:0.9048;fill:#859BAB;}
	.st153{opacity:0.9524;fill:#889FB0;}
	.st154{fill:#008DD4;}
	.st155{fill:url(#SVGID_40_);}
	.st156{fill:#4FC5FF;}
	.st157{fill:url(#SVGID_41_);}
	.st158{fill:url(#SVGID_42_);}
	.st159{fill:#63CCFF;}
	.st160{fill:#007FC9;}
	.st161{fill:#6ED8FF;}
	.st162{fill:#008CDE;}
	.st163{fill:#B3EDFF;}
	.st164{fill:#61D7FF;}
	.st165{fill:url(#SVGID_43_);}
	.st166{fill:url(#SVGID_44_);}
	.st167{opacity:2.580645e-02;fill:#505051;}
	.st168{opacity:5.161290e-02;fill:#4E4F51;}
	.st169{opacity:7.741936e-02;fill:#4D4F50;}
	.st170{opacity:0.1032;fill:#4C4E50;}
	.st171{opacity:0.129;fill:#4B4D50;}
	.st172{opacity:0.1548;fill:#494C50;}
	.st173{opacity:0.1806;fill:#484B4F;}
	.st174{opacity:0.2065;fill:#474B4F;}
	.st175{opacity:0.2323;fill:#464A4F;}
	.st176{opacity:0.2581;fill:#44494F;}
	.st177{opacity:0.2839;fill:#43484F;}
	.st178{opacity:0.3097;fill:#42474E;}
	.st179{opacity:0.3355;fill:#41474E;}
	.st180{opacity:0.3613;fill:#3F464E;}
	.st181{opacity:0.3871;fill:#3E454E;}
	.st182{opacity:0.4129;fill:#3D444D;}
	.st183{opacity:0.4387;fill:#3C434D;}
	.st184{opacity:0.4645;fill:#3A424D;}
	.st185{opacity:0.4903;fill:#39424D;}
	.st186{opacity:0.5161;fill:#38414C;}
	.st187{opacity:0.5419;fill:#37404C;}
	.st188{opacity:0.5677;fill:#353F4C;}
	.st189{opacity:0.5935;fill:#343E4C;}
	.st190{opacity:0.6194;fill:#333E4C;}
	.st191{opacity:0.6452;fill:#323D4B;}
	.st192{opacity:0.671;fill:#303C4B;}
	.st193{opacity:0.6968;fill:#2F3B4B;}
	.st194{opacity:0.7226;fill:#2E3A4B;}
	.st195{opacity:0.7484;fill:#2D3A4A;}
	.st196{opacity:0.7742;fill:#2B394A;}
	.st197{opacity:0.8;fill:#2A384A;}
	.st198{fill:url(#SVGID_45_);}
	.st199{fill:url(#SVGID_46_);}
	.st200{fill:#91D5EB;}
	.st201{fill:#E1F0FA;}
	.st202{fill:#9DDEF2;}
	.st203{fill:#A2DEF2;}
	.st204{fill:#BEE9F7;}
	.st205{fill:#C8EEFA;}
	.st206{fill:url(#SVGID_47_);}
	.st207{opacity:0.3;fill:url(#SVGID_48_);}
	.st208{opacity:2.580645e-02;fill:#FBFCFC;}
	.st209{opacity:5.161290e-02;fill:#F7F9FA;}
	.st210{opacity:7.741936e-02;fill:#F3F6F7;}
	.st211{opacity:0.1032;fill:#EFF3F5;}
	.st212{opacity:0.129;fill:#EBF0F2;}
	.st213{opacity:0.1548;fill:#E8EDF0;}
	.st214{opacity:0.1806;fill:#E4EAED;}
	.st215{opacity:0.2065;fill:#E0E7EB;}
	.st216{opacity:0.2323;fill:#DCE4E8;}
	.st217{opacity:0.2581;fill:#D8E1E6;}
	.st218{opacity:0.2839;fill:#D4DEE3;}
	.st219{opacity:0.3097;fill:#D0DBE0;}
	.st220{opacity:0.3355;fill:#CCD8DE;}
	.st221{opacity:0.3613;fill:#C8D5DB;}
	.st222{opacity:0.3871;fill:#C4D2D9;}
	.st223{opacity:0.4129;fill:#C1CFD6;}
	.st224{opacity:0.4387;fill:#BDCCD4;}
	.st225{opacity:0.4645;fill:#B9C9D1;}
	.st226{opacity:0.4903;fill:#B5C6CF;}
	.st227{opacity:0.5161;fill:#B1C3CC;}
	.st228{opacity:0.5419;fill:#ADC0C9;}
	.st229{opacity:0.5677;fill:#A9BDC7;}
	.st230{opacity:0.5935;fill:#A5BAC4;}
	.st231{opacity:0.6194;fill:#A1B7C2;}
	.st232{opacity:0.6452;fill:#9DB4BF;}
	.st233{opacity:0.671;fill:#9AB1BD;}
	.st234{opacity:0.6968;fill:#96AEBA;}
	.st235{opacity:0.7226;fill:#92ABB8;}
	.st236{opacity:0.7484;fill:#8EA8B5;}
	.st237{opacity:0.7742;fill:#8AA5B3;}
	.st238{opacity:0.8;fill:#86A2B0;}
	.st239{fill:url(#SVGID_49_);}
	.st240{clip-path:url(#SVGID_51_);}
	.st241{fill:#0A4D80;}
	.st242{fill:url(#SVGID_52_);}
	.st243{clip-path:url(#SVGID_54_);}
</style>
<g>
	<g>
		<g class="st113">
			<path class="st2" d="M466.5,359.5c30.2-25.6,24.8-104.9,9.4-126.1c-20.3-27.9-41.8-44.8-60.4-54.1c-18.6-9.3-70.8-17.3-94.5-17.3
				c-33.2,0-65.8,8-92.6,15.2c-29,7.8-85.9,28.6-112.9,58.2c-31.6,34.6-3.7,103.5,4.3,113.6c15.1,18.9,33.3,37.7,56.3,48.7
				c22,10.5,41,10,57.4,11.1c12.4,0.9,67.7,7,100.1,0.3c23-4.8,61.8-11.9,72.9-17.4C416.8,386.6,442.4,379.9,466.5,359.5z"/>
			<path class="st3" d="M461.6,356.9c29.8-24.8,24.8-101.5,9.5-122.9c-19.9-27.9-41.3-44-59.7-53.1c-18.2-9-68.1-17.1-91.6-17.3
				c-32.4-0.2-64.8,7.5-91.4,14.7c-28.8,7.8-85,28.6-111.1,57.1c-30.5,33.4-4.4,100.4,4.1,111c14.6,18.3,31.9,36.9,54.9,47.6
				c21.7,10.2,40.5,9.3,56.4,10.5c12.3,1,65.6,7.9,98,1.2c23.1-4.7,60.5-12.5,71.3-17.8C412.3,382.8,437.6,376.8,461.6,356.9z"/>
			<path class="st90" d="M456.7,354.3c29.4-24,24.8-98,9.7-119.7c-19.6-28-40.8-43.1-59-52.1c-17.8-8.8-65.4-16.9-88.6-17.3
				c-31.5-0.5-63.9,7-90.2,14.1c-28.6,7.8-84.2,28.6-109.3,56.1c-29.4,32.1-5.1,97.2,3.9,108.4c14.2,17.7,30.4,36.1,53.5,46.6
				c21.5,9.8,40,8.5,55.4,9.9c12.1,1.1,63.5,8.7,95.9,2.1c23.2-4.7,59.2-13,69.7-18.2C407.9,379,432.9,373.7,456.7,354.3z"/>
			<path class="st5" d="M451.9,351.7c29-23.2,24.8-94.6,9.9-116.5c-19.2-28.1-40.3-42.2-58.3-51.1c-17.4-8.6-62.7-16.7-85.6-17.3
				c-30.7-0.8-62.9,6.4-89,13.5c-28.4,7.7-83.3,28.7-107.5,55c-28.3,30.8-5.8,94.1,3.7,105.8c13.8,17.1,29,35.3,52.1,45.5
				c21.2,9.5,39.4,7.8,54.3,9.3c11.9,1.2,61.5,9.5,93.8,3c23.4-4.7,57.9-13.6,68.1-18.7C403.5,375.2,428.2,370.6,451.9,351.7z"/>
			<path class="st91" d="M447,349.1c28.6-22.4,24.8-91.2,10.1-113.4c-18.8-28.2-39.7-41.3-57.6-50c-17-8.3-60-16.5-82.7-17.3
				c-29.9-1.1-62,5.9-87.8,13c-28.2,7.7-82.5,28.7-105.7,53.9c-27.2,29.5-6.4,90.9,3.5,103.2c13.3,16.4,27.5,34.5,50.6,44.5
				c21,9.1,38.9,7.1,53.3,8.7c11.8,1.3,59.4,10.3,91.7,3.9c23.5-4.6,56.7-14.2,66.5-19.1C399.1,371.4,423.5,367.4,447,349.1z"/>
			<path class="st92" d="M442.1,346.5c28.1-21.6,24.8-87.8,10.3-110.2c-18.4-28.3-39.2-40.4-56.9-49c-16.6-8.1-57.3-16.3-79.7-17.3
				c-29-1.3-61,5.3-86.6,12.4c-28,7.7-81.7,28.7-104,52.8c-26.1,28.3-7.1,87.8,3.3,100.7c12.9,15.8,26.1,33.7,49.2,43.4
				c20.8,8.8,38.4,6.4,52.3,8.1c11.6,1.4,57.3,11.2,89.7,4.9c23.7-4.6,55.4-14.7,64.9-19.6C394.7,367.6,418.8,364.3,442.1,346.5z"/>
			<path class="st93" d="M437.2,343.9c27.7-20.8,24.8-84.4,10.5-107c-18-28.3-38.7-39.6-56.1-48c-16.2-7.9-54.6-16-76.7-17.3
				c-28.2-1.6-60,4.8-85.4,11.8c-27.8,7.7-80.8,28.7-102.2,51.8c-25,27-7.8,84.7,3.1,98.1c12.4,15.2,24.6,32.9,47.8,42.4
				c20.5,8.4,37.8,5.7,51.3,7.5c11.4,1.5,55.2,12,87.6,5.8c23.8-4.5,54.1-15.3,63.3-20C390.3,363.8,414.1,361.2,437.2,343.9z"/>
			<path class="st94" d="M432.3,341.2c27.3-20,24.8-80.9,10.6-103.8c-17.7-28.4-38.2-38.7-55.4-47c-15.8-7.7-51.9-15.8-73.7-17.2
				c-27.3-1.8-59.1,4.2-84.2,11.3c-27.6,7.7-80,28.7-100.4,50.7c-23.9,25.7-8.5,81.5,2.9,95.5c11.9,14.6,23.2,32.1,46.4,41.4
				c20.3,8.1,37.3,5,50.2,6.9c11.3,1.7,53.1,12.8,85.5,6.7c24-4.5,52.8-15.9,61.7-20.5C385.8,360,409.4,358.1,432.3,341.2z"/>
			<path class="st95" d="M427.4,338.6c26.8-19.2,24.8-77.5,10.8-100.6c-17.3-28.5-37.6-37.8-54.7-46c-15.4-7.4-49.2-15.6-70.8-17.2
				c-26.5-2-58.1,3.7-83,10.7c-27.4,7.7-79.1,28.7-98.6,49.6c-22.8,24.4-9.2,78.4,2.7,92.9c11.5,14,21.7,31.3,45,40.3
				c20,7.7,36.8,4.3,49.2,6.3c11.1,1.8,51,13.7,83.4,7.6c24.1-4.5,51.5-16.5,60.1-20.9C381.4,356.2,404.6,355,427.4,338.6z"/>
			<path class="st96" d="M422.5,336c26.4-18.4,24.8-74.1,11-97.4c-16.9-28.6-37.1-36.9-54-45c-15-7.2-46.5-15.3-67.8-17.2
				c-25.7-2.3-57.2,3.2-81.7,10.1c-27.2,7.7-78.3,28.7-96.8,48.5c-21.7,23.1-9.9,75.3,2.5,90.3c11,13.4,20.2,30.5,43.6,39.3
				c19.8,7.4,36.3,3.6,48.2,5.7c10.9,1.9,49,14.5,81.3,8.5c24.3-4.4,50.2-17.1,58.5-21.4C377,352.5,399.9,351.8,422.5,336z"/>
			<path class="st97" d="M417.7,333.4c25.9-17.6,24.8-70.7,11.2-94.2c-16.6-28.6-36.6-36-53.3-43.9c-14.6-6.9-43.7-15.1-64.8-17.2
				c-24.8-2.5-56.2,2.6-80.5,9.5c-27,7.7-77.5,28.8-95,47.4c-20.6,21.9-10.6,72.1,2.3,87.7c10.6,12.8,18.8,29.8,42.2,38.2
				c19.5,7.1,35.7,2.9,47.2,5.1c10.8,2,46.9,15.3,79.2,9.4c24.4-4.4,48.9-17.6,56.9-21.8C372.6,348.7,395.2,348.7,417.7,333.4z"/>
			<path class="st98" d="M412.8,330.8c25.5-16.8,24.8-67.2,11.4-91c-16.2-28.7-36.1-35.2-52.6-42.9c-14.2-6.7-41-14.8-61.9-17.2
				c-24-2.7-55.3,2.1-79.3,9c-26.8,7.7-76.6,28.8-93.3,46.4c-19.5,20.6-11.3,69,2.1,85.1c10.1,12.2,17.3,29,40.8,37.2
				c19.3,6.7,35.2,2.2,46.1,4.5c10.6,2.2,44.8,16.1,77.2,10.3c24.6-4.3,47.6-18.2,55.3-22.2C368.2,344.9,390.4,345.6,412.8,330.8z"
				/>
			<path class="st99" d="M407.9,328.2c25.1-16.1,24.8-63.8,11.6-87.8c-15.9-28.7-35.5-34.3-51.9-41.9c-13.8-6.5-38.3-14.6-58.9-17.2
				c-23.2-2.9-54.3,1.5-78.1,8.4c-26.6,7.7-75.8,28.8-91.5,45.3c-18.4,19.3-11.9,65.9,1.9,82.6c9.6,11.7,15.9,28.2,39.4,36.1
				c19,6.4,34.7,1.6,45.1,3.9c10.4,2.3,42.7,17,75.1,11.3c24.7-4.3,46.3-18.8,53.7-22.7C363.7,341.1,385.7,342.4,407.9,328.2z"/>
			<path class="st100" d="M403,325.6c24.6-15.3,24.8-60.4,11.7-84.6c-15.5-28.8-35-33.4-51.2-40.9c-13.4-6.2-35.6-14.3-55.9-17.2
				c-22.3-3.1-53.4,1-76.9,7.8c-26.4,7.7-74.9,28.8-89.7,44.2c-17.3,18-12.6,62.7,1.7,80c9.2,11.1,14.4,27.5,38,35.1
				c18.7,6.1,34.2,0.9,44.1,3.3c10.3,2.4,40.6,17.8,73,12.2c24.9-4.3,45-19.4,52.1-23.1C359.3,337.3,381,339.3,403,325.6z"/>
			<path class="st101" d="M398.1,323c24.2-14.5,24.8-56.9,11.9-81.5c-15.2-28.9-34.5-32.5-50.5-39.9c-13-6-32.9-14.1-52.9-17.2
				c-21.5-3.3-52.4,0.4-75.7,7.3c-26.2,7.7-74.1,28.8-87.9,43.1c-16.2,16.8-13.3,59.6,1.4,77.4c8.7,10.5,12.9,26.7,36.6,34.1
				c18.5,5.8,33.6,0.2,43.1,2.7c10.1,2.6,38.5,18.6,70.9,13.1c25-4.2,43.7-19.9,50.5-23.6C354.9,333.5,376.2,336.2,398.1,323z"/>
			<path class="st102" d="M393.2,320.4c23.7-13.7,24.8-53.5,12.1-78.3c-14.8-28.9-34-31.6-49.8-38.9c-12.7-5.8-30.2-13.8-50-17.1
				c-20.6-3.5-51.4-0.1-74.5,6.7c-26,7.7-73.3,28.8-86.1,42c-15.1,15.5-14,56.5,1.2,74.8c8.2,9.9,11.4,25.9,35.1,33
				c18.2,5.4,33.1-0.4,42,2c9.9,2.7,36.4,19.4,68.8,14c25.1-4.2,42.4-20.5,48.9-24C350.5,329.7,371.5,333,393.2,320.4z"/>
			<path class="st103" d="M388.3,317.8c23.2-13,24.8-50.1,12.3-75.1c-14.5-29-33.4-30.8-49.1-37.8c-12.3-5.5-27.5-13.5-47-17.1
				c-19.8-3.7-50.5-0.7-73.3,6.1c-25.8,7.7-72.4,28.8-84.3,41c-14,14.2-14.7,53.3,1,72.2c7.8,9.3,10,25.2,33.7,32
				c18,5.1,32.6-1.1,41,1.4c9.8,2.9,34.4,20.3,66.7,14.9c25.3-4.1,41.1-21.1,47.3-24.5C346.1,325.9,366.8,329.9,388.3,317.8z"/>
			<path class="st104" d="M383.4,315.2c22.8-12.2,24.8-46.6,12.5-71.9c-14.1-29.1-32.9-29.9-48.4-36.8c-11.8-5.3-24.8-13.2-44-17.1
				c-19-3.9-49.5-1.2-72.1,5.6c-25.6,7.7-71.6,28.9-82.6,39.9c-12.9,12.9-15.4,50.2,0.8,69.6c7.3,8.7,8.5,24.4,32.3,30.9
				c17.7,4.8,32-1.7,40,0.8c9.6,3.1,32.3,21.1,64.7,15.8c25.4-4.1,39.8-21.7,45.7-24.9C341.6,322.1,362,326.7,383.4,315.2z"/>
			<path class="st105" d="M378.6,312.6c22.3-11.5,24.7-43.2,12.7-68.7c-13.8-29.1-32.4-29.1-47.6-35.8
				c-11.4-5.1-22.1-12.9-41.1-17.1c-18.2-4-48.6-1.7-70.9,5c-25.4,7.7-70.7,28.9-80.8,38.8c-11.8,11.7-16.1,47.1,0.6,67
				c6.8,8.1,7,23.7,30.9,29.9c17.5,4.5,31.5-2.4,39,0.2c9.4,3.2,30.2,21.9,62.6,16.7c25.6-4.1,38.5-22.3,44.1-25.3
				C337.2,318.3,357.3,323.5,378.6,312.6z"/>
			<path class="st106" d="M373.7,310c21.9-10.7,24.7-39.7,12.8-65.5c-13.5-29.2-31.8-28.2-46.9-34.8c-11.1-4.9-19.4-12.6-38.1-17.1
				c-17.3-4.2-47.6-2.3-69.7,4.4c-25.2,7.7-69.9,28.9-79,37.7c-10.7,10.4-16.9,44,0.4,64.4c6.3,7.5,5.6,23,29.5,28.8
				c17.2,4.2,30.9-3,37.9-0.4c9.2,3.4,28.1,22.7,60.5,17.7c25.7-4,37.2-22.9,42.5-25.8C332.8,314.5,352.5,320.4,373.7,310z"/>
			<path class="st107" d="M368.8,307.4c21.4-10,24.7-36.3,13-62.3c-13.1-29.2-31.3-27.3-46.2-33.8c-10.7-4.6-16.7-12.3-35.1-17.1
				c-16.5-4.3-46.7-2.8-68.4,3.9c-25,7.7-69,28.9-77.2,36.7c-9.5,9.1-17.6,40.9,0.2,61.9c5.9,6.9,4.1,22.3,28.1,27.8
				c16.9,3.9,30.4-3.6,36.9-1c9,3.6,26,23.6,58.4,18.6c25.9-4,35.9-23.4,40.9-26.2C328.4,310.7,347.8,317.2,368.8,307.4z"/>
			<path class="st108" d="M363.9,304.8c20.9-9.2,24.7-32.9,13.2-59.1c-12.8-29.3-30.8-26.4-45.5-32.8c-10.3-4.4-14-11.9-32.2-17.1
				c-15.7-4.5-45.7-3.4-67.2,3.3c-24.8,7.7-68.2,28.9-75.4,35.6c-8.4,7.8-18.3,37.8,0,59.3c5.4,6.3,2.6,21.5,26.7,26.7
				c16.7,3.6,29.8-4.2,35.9-1.6c8.8,3.8,23.9,24.4,56.3,19.5c26-3.9,34.6-24,39.3-26.7C323.9,306.9,343,314,363.9,304.8z"/>
		</g>
		<path class="st111" d="M384.8,221.3c-1.3,0-2.6,0-3.9,0.1c-7.1-20-26.1-34.4-48.6-34.4c-6.7,0-13.1,1.3-19,3.6
			c-7-19.2-25.4-33-47-33c-21.1,0-39.1,13-46.4,31.5c-2.5-0.4-5-0.7-7.6-0.7c-22.7,0-41.4,17.2-43.7,39.3c-3.2-0.6-6.4-1-9.8-1
			c-27.4,0-49.6,22.2-49.6,49.6c0,27.4,22.2,49.6,49.6,49.6c0.4,0,0.9,0,1.3,0c4.8,20,22.9,34.9,44.4,34.9
			c16.7,0,31.2-8.9,39.2-22.2c10.9,18.6,31.1,31.1,54.2,31.1c25.6,0,47.6-15.3,57.3-37.3c8.7,5,18.8,7.9,29.6,7.9
			c32.9,0,59.5-26.6,59.5-59.5C444.3,247.9,417.7,221.3,384.8,221.3z"/>
		<path class="st112" d="M386.8,223.3c-1.3,0-2.6,0-3.9,0.1c-7-20.1-26.2-34.4-48.6-34.4c-6.7,0-13.1,1.3-19,3.6
			c-7-19.2-25.4-33-47-33c-21.1,0-39.1,13-46.4,31.5c-2.5-0.4-5-0.7-7.6-0.7c-22.7,0-41.4,17.2-43.7,39.3c-3.2-0.7-6.4-1-9.8-1
			c-27.4,0-49.6,22.2-49.6,49.6c0,27.4,22.2,49.6,49.6,49.6c0.4,0,0.9,0,1.3,0c4.9,20,22.9,34.9,44.4,34.9
			c16.7,0,31.2-8.9,39.2-22.3c10.9,18.6,31.1,31.1,54.2,31.1c25.6,0,47.6-15.3,57.3-37.3c8.7,5,18.8,7.9,29.6,7.9
			c32.9,0,59.5-26.6,59.5-59.5C446.4,250,419.7,223.3,386.8,223.3z"/>
	</g>
	<g>
		<g class="st1">
			<path class="st2" d="M367.7,310c20-29.7,10.3-84.4-3.6-103.6c-18.3-25.1-47-28.6-63.7-37c-16.8-8.4-48.6-30.9-70-30.9
				c-30,0-45.2,11.1-69.4,17.6c-26.2,7-70.6,47.8-94.9,74.5c-28.5,31.3-21.3,78.3-14,87.4c13.6,17,30.1,34,50.8,43.9
				c19.8,9.5,37,9,51.8,10c11.2,0.8,24.3,6.3,53.5,0.2c20.7-4.3,30.6-6,41.2-9.3C272,355.8,343.6,345.8,367.7,310z"/>
			<path class="st3" d="M363.9,308.9c19.9-28.6,10.8-82.3-2.9-101.2c-18.1-25.1-46.5-28.2-63.1-36.4c-16.4-8.2-47.2-31-68.4-31.2
				c-29.2-0.2-45,10.4-69,16.9c-26,7-69.4,47.4-93,73.1c-27.5,30.1-22,76-14.3,85.6c13.2,16.5,29.2,33.2,50,42.7
				c20,9.1,36.7,8,51.1,9.2c11.1,0.9,24.3,6.8,53.5,0.8c20.8-4.3,30.8-6.3,41.2-9.4C271,352.5,340,343.5,363.9,308.9z"/>
			<path class="st90" d="M360,307.9c19.8-27.7,11.3-80.1-2.1-98.8c-18-25.1-46-27.7-62.4-35.8c-16.1-8-45.9-31.1-66.8-31.5
				c-28.5-0.5-44.8,9.7-68.6,16.2c-25.8,7-68.3,46.9-91,71.7c-26.5,29-22.7,73.7-14.6,83.8c12.8,15.9,28.3,32.4,49.1,41.4
				c20.1,8.6,36.5,7,50.4,8.3c10.9,1,24.3,7.2,53.5,1.3c21-4.2,31.1-6.7,41.1-9.4C269.9,349.1,336.3,341.1,360,307.9z"/>
			<path class="st5" d="M356.1,306.9c19.7-26.7,11.8-77.9-1.4-96.4c-17.8-25.1-45.5-27.2-61.8-35.2c-15.7-7.8-44.6-31.2-65.2-31.7
				c-27.7-0.7-44.6,9.1-68.2,15.5c-25.6,7-67.2,46.5-89,70.3c-25.5,27.8-23.5,71.4-14.9,82c12.4,15.4,27.4,31.6,48.3,40.1
				c20.2,8.3,36.2,6,49.7,7.4c10.8,1.1,24.3,7.6,53.5,1.8c21.1-4.2,31.3-7,41-9.5C268.8,345.8,332.6,338.7,356.1,306.9z"/>
			<path class="st91" d="M352.3,305.8c19.6-25.7,12.3-75.7-0.6-94c-17.6-25.1-45.1-26.8-61.1-34.6c-15.3-7.5-43.2-31.3-63.7-32
				c-26.9-1-44.4,8.4-67.7,14.8c-25.4,7-66.1,46.1-87,68.9c-24.5,26.7-24.2,69.1-15.2,80.3c12,14.8,26.5,30.8,47.5,38.9
				c20.4,7.8,35.9,5,48.9,6.5c10.6,1.2,24.3,8.1,53.5,2.3c21.2-4.2,31.6-7.3,41-9.6C267.7,342.5,329,336.3,352.3,305.8z"/>
			<path class="st92" d="M348.4,304.8c19.6-24.7,12.8-73.5,0.1-91.6c-17.4-25.1-44.6-26.3-60.5-34.1c-15-7.3-41.9-31.3-62.1-32.3
				c-26.2-1.2-44.2,7.7-67.3,14.1c-25.3,7-64.9,45.7-85.1,67.5C50,253.9,48.6,295.3,58,306.9c11.6,14.3,25.6,30,46.7,37.6
				c20.5,7.4,35.7,4,48.2,5.6c10.5,1.3,24.3,8.5,53.5,2.8c21.4-4.1,31.8-7.7,40.9-9.6C266.6,339.2,325.3,334,348.4,304.8z"/>
			<path class="st93" d="M344.5,303.8c19.5-23.7,13.3-71.3,0.9-89.2c-17.3-25-44.1-25.9-59.9-33.5c-14.6-7.1-40.6-31.4-60.5-32.5
				c-25.4-1.4-44.1,7-66.9,13.4c-25.1,7-63.8,45.3-83.1,66.1c-22.5,24.4-25.6,64.6-15.8,76.7c11.2,13.7,24.7,29.2,45.9,36.4
				c20.7,7,35.4,3.1,47.5,4.7c10.3,1.4,24.3,9,53.5,3.3c21.5-4.1,32.1-8,40.8-9.7C265.5,335.9,321.7,331.6,344.5,303.8z"/>
			<path class="st94" d="M340.7,302.7c19.4-22.7,13.8-69.1,1.6-86.9c-17.1-25-43.7-25.4-59.2-32.9c-14.3-6.9-39.2-31.5-59-32.8
				c-24.7-1.6-43.9,6.4-66.5,12.7c-24.9,7-62.7,44.8-81.1,64.7c-21.5,23.2-26.4,62.3-16.1,74.9c10.8,13.2,23.8,28.4,45,35.1
				c20.8,6.6,35.1,2.1,46.8,3.8c10.2,1.5,24.3,9.4,53.5,3.9c21.6-4.1,32.3-8.4,40.8-9.7C264.4,332.5,318,329.2,340.7,302.7z"/>
			<path class="st95" d="M336.8,301.7c19.3-21.7,14.3-66.9,2.4-84.5c-16.9-25-43.2-24.9-58.6-32.3c-13.9-6.7-37.9-31.5-57.4-33
				c-23.9-1.8-43.7,5.7-66.1,12c-24.7,7-61.6,44.4-79.2,63.2c-20.6,22-27.1,60-16.4,73.1c10.4,12.7,22.9,27.6,44.2,33.8
				c21,6.2,34.9,1.1,46.1,2.9c10,1.6,24.3,9.8,53.5,4.4c21.8-4,32.5-8.7,40.7-9.8C263.3,329.2,314.4,326.9,336.8,301.7z"/>
			<path class="st96" d="M332.9,300.7c19.3-20.7,14.8-64.7,3.1-82.1c-16.8-25-42.7-24.4-58-31.7c-13.6-6.5-36.6-31.6-55.8-33.3
				c-23.2-2.1-43.5,5-65.7,11.3c-24.5,7-60.5,44-77.2,61.8c-19.6,20.9-27.8,57.7-16.7,71.3c9.9,12.1,22,26.8,43.4,32.6
				c21.1,5.7,34.6,0.1,45.4,2c9.9,1.7,24.3,10.3,53.5,4.9c21.9-4,32.8-9,40.6-9.9C262.2,325.9,310.8,324.5,332.9,300.7z"/>
			<path class="st97" d="M329.1,299.7c19.2-19.7,15.3-62.5,3.9-79.7c-16.6-25-42.2-24-57.3-31.1c-13.2-6.2-35.2-31.6-54.2-33.6
				c-22.4-2.3-43.3,4.3-65.3,10.6c-24.4,7-59.3,43.6-75.2,60.4c-18.6,19.7-28.6,55.5-17,69.5c9.5,11.6,21.1,26,42.6,31.3
				c21.3,5.3,34.3-0.8,44.6,1.1c9.7,1.8,24.3,10.7,53.5,5.4c22-3.9,33-9.3,40.6-9.9C261.1,322.6,307.2,322.1,329.1,299.7z"/>
			<path class="st98" d="M325.2,298.6c19.2-18.7,15.8-60.4,4.6-77.3c-16.4-25-41.8-23.5-56.7-30.5c-12.9-6-33.9-31.7-52.7-33.8
				c-21.6-2.4-43.1,3.7-64.8,9.9c-24.2,7-58.2,43.1-73.2,59c-17.6,18.6-29.3,53.2-17.3,67.8c9.1,11,20.2,25.2,41.8,30.1
				c21.4,4.9,34.1-1.8,43.9,0.2c9.6,1.9,24.3,11.2,53.5,5.9c22.2-3.9,33.3-9.7,40.5-10C260.1,319.3,303.6,319.8,325.2,298.6z"/>
			<path class="st99" d="M321.3,297.6c19.1-17.7,16.3-58.2,5.4-74.9c-16.2-25-41.3-23.1-56.1-29.9c-12.5-5.8-32.6-31.7-51.1-34.1
				c-20.9-2.6-42.9,3-64.4,9.2c-24,7-57.1,42.7-71.3,57.6c-16.6,17.4-30.1,50.9-17.6,66c8.7,10.5,19.3,24.4,40.9,28.8
				c21.6,4.4,33.8-2.8,43.2-0.7c9.4,2.1,24.3,11.6,53.5,6.4c22.3-3.9,33.5-10,40.4-10C259,315.9,300,317.4,321.3,297.6z"/>
			<path class="st100" d="M317.5,296.6c19.1-16.7,16.8-56,6.1-72.5c-16.1-25-40.8-22.6-55.4-29.4c-12.1-5.6-31.2-31.8-49.5-34.3
				c-20.1-2.8-42.7,2.3-64,8.5c-23.8,6.9-56,42.3-69.3,56.2c-15.6,16.3-30.8,48.6-17.9,64.2c8.3,10,18.4,23.6,40.1,27.5
				c21.7,4,33.5-3.7,42.5-1.6c9.3,2.2,24.3,12,53.5,7c22.4-3.8,33.8-10.4,40.4-10.1C257.9,312.6,296.4,315.1,317.5,296.6z"/>
			<path class="st101" d="M313.6,295.5c19-15.7,17.3-53.8,6.9-70.1c-15.9-24.9-40.4-22.1-54.8-28.8c-11.8-5.4-29.9-31.8-48-34.6
				c-19.4-3-42.6,1.7-63.6,7.8c-23.7,6.9-54.9,41.9-67.3,54.8c-14.6,15.1-31.5,46.4-18.2,62.4c7.8,9.4,17.5,22.7,39.3,26.3
				c21.9,3.6,33.3-4.7,41.8-2.5c9.1,2.3,24.3,12.5,53.5,7.5c22.6-3.8,34-10.7,40.3-10.2C256.8,309.3,292.8,312.7,313.6,295.5z"/>
			<path class="st102" d="M309.7,294.5c19-14.7,17.8-51.6,7.6-67.7c-15.7-24.9-39.9-21.7-54.1-28.2c-11.4-5.2-28.6-31.8-46.4-34.9
				c-18.6-3.2-42.4,1-63.2,7.1c-23.5,6.9-53.7,41.4-65.3,53.4c-13.6,14-32.3,44.1-18.5,60.6c7.4,8.9,16.7,21.9,38.5,25
				c22,3.1,33-5.6,41.1-3.4c9,2.5,24.3,12.9,53.5,8c22.7-3.8,34.2-11,40.3-10.2C255.7,306,289.2,310.4,309.7,294.5z"/>
			<path class="st103" d="M305.9,293.5c19-13.7,18.3-49.4,8.4-65.3c-15.5-24.9-39.4-21.2-53.5-27.6c-11.1-5-27.2-31.8-44.8-35.1
				c-17.9-3.3-42.2,0.3-62.8,6.4c-23.3,6.9-52.6,41-63.4,52c-12.6,12.8-33,41.8-18.8,58.8c7,8.4,15.8,21.1,37.6,23.8
				c22.2,2.7,32.7-6.5,40.3-4.3c8.8,2.6,24.3,13.3,53.5,8.5c22.8-3.7,34.5-11.4,40.2-10.3C254.6,302.7,285.6,308.1,305.9,293.5z"/>
			<path class="st104" d="M302,292.4c19-12.6,18.8-47.3,9.2-62.9c-15.3-24.9-38.9-20.8-52.9-27c-10.7-4.8-25.9-31.9-43.3-35.4
				c-17.1-3.5-42-0.4-62.3,5.7c-23.1,6.9-51.5,40.6-61.4,50.6c-11.6,11.7-33.8,39.6-19.1,57c6.6,7.8,14.9,20.3,36.8,22.5
				c22.3,2.3,32.4-7.5,39.6-5.2c8.6,2.8,24.3,13.8,53.5,9c23-3.7,34.7-11.7,40.1-10.3C253.5,299.4,282,305.8,302,292.4z"/>
			<path class="st105" d="M298.2,291.4c18.9-11.6,19.3-45.1,9.9-60.5c-15.1-24.9-38.4-20.3-52.2-26.4c-10.3-4.6-24.6-31.9-41.7-35.6
				c-16.4-3.6-41.8-1-61.9,5c-22.9,6.9-50.4,40.2-59.4,49.2c-10.6,10.5-34.5,37.3-19.4,55.3c6.1,7.3,14,19.5,36,21.3
				c22.5,1.8,32.2-8.4,38.9-6.1c8.5,2.9,24.3,14.2,53.5,9.6c23.1-3.7,35-12,40.1-10.4C252.4,296,278.4,303.5,298.2,291.4z"/>
			<path class="st106" d="M294.3,290.4c18.9-10.5,19.8-42.9,10.7-58.2c-14.9-24.9-38-19.9-51.6-25.8c-10-4.4-23.3-31.8-40.1-35.9
				c-15.6-3.8-41.6-1.7-61.5,4.3c-22.8,6.9-49.3,39.8-57.5,47.7c-9.6,9.4-35.3,35-19.7,53.5c5.7,6.8,13.1,18.7,35.2,20
				c22.6,1.4,31.9-9.3,38.2-7c8.3,3.1,24.3,14.7,53.5,10.1c23.2-3.6,35.2-12.4,40-10.5C251.3,292.7,274.9,301.2,294.3,290.4z"/>
			<path class="st107" d="M290.4,289.3c18.9-9.4,20.3-40.7,11.4-55.8c-14.7-24.9-37.5-19.4-51-25.2c-9.6-4.2-21.9-31.8-38.5-36.2
				c-14.9-3.9-41.4-2.4-61.1,3.7c-22.6,6.9-48.1,39.3-55.5,46.3c-8.6,8.2-36.1,32.8-20,51.7c5.3,6.2,12.2,17.8,34.4,18.7
				c22.8,0.9,31.6-10.2,37.5-7.9c8.1,3.3,24.3,15.1,53.5,10.6c23.4-3.6,35.5-12.7,39.9-10.5C250.2,289.4,271.3,298.9,290.4,289.3z"
				/>
			<path class="st108" d="M286.6,288.3c18.9-8.3,20.8-38.5,12.2-53.4c-14.6-24.9-37-19-50.3-24.7c-9.3-4-20.6-31.8-37-36.4
				c-14.2-4-41.3-3.1-60.7,3c-22.4,6.9-47,38.9-53.5,44.9c-7.6,7.1-36.8,30.5-20.3,49.9c4.9,5.7,11.3,17,33.5,17.5
				c22.9,0.5,31.3-11.2,36.8-8.8c7.9,3.5,24.3,15.5,53.5,11.1c23.5-3.5,35.7-13.1,39.9-10.6C249.2,286,267.7,296.6,286.6,288.3z"/>
		</g>
		<path class="st111" d="M268.6,202.5c-5.3-0.3-10.3,0.4-15.1,2c-6.2-31.4-33.1-55.9-66.6-57.6c-32.5-1.7-61,18.5-71.3,47.7
			c0,0,0,0,0,0c-27.5-1.4-50.9,19.7-52.3,47.1c-1.4,27.4,19.7,50.9,47.1,52.3c14.2,0.7,27.2-4.5,36.8-13.5c9.5,5.6,20.5,9,32.3,9.6
			c21,1.1,40.4-7,54.3-20.8c7.1,9.2,18,15.3,30.5,15.9c22.8,1.2,42.3-16.4,43.5-39.2C309,223.1,291.4,203.7,268.6,202.5z"/>
	</g>
</g>
</svg>
