<?xml version="1.0" encoding="utf-8"?>
<!-- Generator: Adobe Illustrator 25.0.0, SVG Export Plug-In . SVG Version: 6.00 Build 0)  -->
<svg version="1.1" id="_x3C_Layer_x3E_" xmlns="http://www.w3.org/2000/svg" xmlns:xlink="http://www.w3.org/1999/xlink" x="0px"
	 y="0px" viewBox="0 0 500 500" style="enable-background:new 0 0 500 500;" xml:space="preserve">
<style type="text/css">
	.st0{opacity:0.1;}
	.st1{opacity:0.5;}
	.st2{opacity:0;fill:#FFFFFF;}
	.st3{opacity:4.761905e-02;fill:#F9FBFB;}
	.st4{opacity:9.523810e-02;fill:#F3F6F7;}
	.st5{opacity:0.1429;fill:#EEF2F4;}
	.st6{opacity:0.1905;fill:#E8EDF0;}
	.st7{opacity:0.2381;fill:#E2E9EC;}
	.st8{opacity:0.2857;fill:#DCE4E8;}
	.st9{opacity:0.3333;fill:#D7E0E5;}
	.st10{opacity:0.381;fill:#D1DCE1;}
	.st11{opacity:0.4286;fill:#CBD7DD;}
	.st12{opacity:0.4762;fill:#C5D3D9;}
	.st13{opacity:0.5238;fill:#C0CED6;}
	.st14{opacity:0.5714;fill:#BACAD2;}
	.st15{opacity:0.619;fill:#B4C5CE;}
	.st16{opacity:0.6667;fill:#AEC1CA;}
	.st17{opacity:0.7143;fill:#A9BDC7;}
	.st18{opacity:0.7619;fill:#A3B8C3;}
	.st19{opacity:0.8095;fill:#9DB4BF;}
	.st20{opacity:0.8571;fill:#97AFBB;}
	.st21{opacity:0.9048;fill:#92ABB8;}
	.st22{opacity:0.9524;fill:#8CA6B4;}
	.st23{fill:#86A2B0;}
	.st24{fill:#FFE3AB;}
	.st25{fill:url(#SVGID_1_);}
	.st26{fill:url(#SVGID_2_);}
	.st27{fill:url(#SVGID_3_);}
	.st28{fill:url(#SVGID_4_);}
	.st29{fill:url(#SVGID_5_);}
	.st30{fill:url(#SVGID_6_);}
	.st31{fill:url(#SVGID_7_);}
	.st32{fill:url(#SVGID_8_);}
	.st33{fill:url(#SVGID_9_);}
	.st34{fill:url(#SVGID_10_);}
	.st35{fill:url(#SVGID_11_);}
	.st36{fill:url(#SVGID_12_);}
	.st37{fill:url(#SVGID_13_);}
	.st38{fill:url(#SVGID_14_);}
	.st39{fill:url(#SVGID_15_);}
	.st40{fill:url(#SVGID_16_);}
	.st41{opacity:2.380952e-02;fill:#F9FBFB;}
	.st42{opacity:4.761905e-02;fill:#F3F6F7;}
	.st43{opacity:7.142857e-02;fill:#EEF2F4;}
	.st44{opacity:9.523810e-02;fill:#E8EDF0;}
	.st45{opacity:0.119;fill:#E2E9EC;}
	.st46{opacity:0.1429;fill:#DCE4E8;}
	.st47{opacity:0.1667;fill:#D7E0E5;}
	.st48{opacity:0.1905;fill:#D1DCE1;}
	.st49{opacity:0.2143;fill:#CBD7DD;}
	.st50{opacity:0.2381;fill:#C5D3D9;}
	.st51{opacity:0.2619;fill:#C0CED6;}
	.st52{opacity:0.2857;fill:#BACAD2;}
	.st53{opacity:0.3095;fill:#B4C5CE;}
	.st54{opacity:0.3333;fill:#AEC1CA;}
	.st55{opacity:0.3571;fill:#A9BDC7;}
	.st56{opacity:0.381;fill:#A3B8C3;}
	.st57{opacity:0.4048;fill:#9DB4BF;}
	.st58{opacity:0.4286;fill:#97AFBB;}
	.st59{opacity:0.4524;fill:#92ABB8;}
	.st60{opacity:0.4762;fill:#8CA6B4;}
	.st61{opacity:0.5;fill:#86A2B0;}
	.st62{fill:url(#SVGID_17_);}
	.st63{opacity:0.15;}
	.st64{fill:url(#SVGID_18_);}
	.st65{opacity:2.857143e-02;fill:#F9FBFB;}
	.st66{opacity:5.714286e-02;fill:#F3F6F7;}
	.st67{opacity:8.571429e-02;fill:#EEF2F4;}
	.st68{opacity:0.1143;fill:#E8EDF0;}
	.st69{opacity:0.1429;fill:#E2E9EC;}
	.st70{opacity:0.1714;fill:#DCE4E8;}
	.st71{opacity:0.2;fill:#D7E0E5;}
	.st72{opacity:0.2286;fill:#D1DCE1;}
	.st73{opacity:0.2571;fill:#CBD7DD;}
	.st74{opacity:0.2857;fill:#C5D3D9;}
	.st75{opacity:0.3143;fill:#C0CED6;}
	.st76{opacity:0.3429;fill:#BACAD2;}
	.st77{opacity:0.3714;fill:#B4C5CE;}
	.st78{opacity:0.4;fill:#AEC1CA;}
	.st79{opacity:0.4286;fill:#A9BDC7;}
	.st80{opacity:0.4571;fill:#A3B8C3;}
	.st81{opacity:0.4857;fill:#9DB4BF;}
	.st82{opacity:0.5143;fill:#97AFBB;}
	.st83{opacity:0.5429;fill:#92ABB8;}
	.st84{opacity:0.5714;fill:#8CA6B4;}
	.st85{opacity:0.6;fill:#86A2B0;}
	.st86{fill:url(#SVGID_19_);}
	.st87{fill:url(#SVGID_20_);}
	.st88{fill:url(#SVGID_21_);}
	.st89{opacity:0.2;}
	.st90{opacity:9.523810e-02;fill:#F4F6F8;}
	.st91{opacity:0.1905;fill:#E9EDF1;}
	.st92{opacity:0.2381;fill:#E3E9ED;}
	.st93{opacity:0.2857;fill:#DEE5EA;}
	.st94{opacity:0.3333;fill:#D8E0E6;}
	.st95{opacity:0.381;fill:#D3DCE3;}
	.st96{opacity:0.4286;fill:#CDD8DF;}
	.st97{opacity:0.4762;fill:#C8D3DC;}
	.st98{opacity:0.5238;fill:#C2CFD8;}
	.st99{opacity:0.5714;fill:#BDCAD5;}
	.st100{opacity:0.619;fill:#B7C6D1;}
	.st101{opacity:0.6667;fill:#B2C2CE;}
	.st102{opacity:0.7143;fill:#ACBDCA;}
	.st103{opacity:0.7619;fill:#A7B9C7;}
	.st104{opacity:0.8095;fill:#A1B5C3;}
	.st105{opacity:0.8571;fill:#9CB0C0;}
	.st106{opacity:0.9048;fill:#96ACBC;}
	.st107{opacity:0.9524;fill:#91A7B9;}
	.st108{fill:#8BA3B5;}
	.st109{fill:#EEF7FA;}
	.st110{fill:#E4F1F5;}
	.st111{fill:#FFFFFF;}
	.st112{fill:#E9F2F5;}
	.st113{opacity:0.3;}
	.st114{fill:url(#SVGID_22_);}
	.st115{fill:url(#SVGID_23_);}
	.st116{fill:url(#SVGID_24_);}
	.st117{fill:url(#SVGID_25_);}
	.st118{fill:url(#SVGID_26_);}
	.st119{fill:url(#SVGID_27_);}
	.st120{fill:url(#SVGID_28_);}
	.st121{fill:url(#SVGID_29_);}
	.st122{fill:url(#SVGID_30_);}
	.st123{fill:url(#SVGID_31_);}
	.st124{fill:url(#SVGID_32_);}
	.st125{fill:url(#SVGID_33_);}
	.st126{fill:url(#SVGID_34_);}
	.st127{fill:url(#SVGID_35_);}
	.st128{fill:url(#SVGID_36_);}
	.st129{fill:url(#SVGID_37_);}
	.st130{fill:url(#SVGID_38_);}
	.st131{fill:url(#SVGID_39_);}
	.st132{opacity:5.000000e-02;}
	.st133{opacity:0;fill:#515151;}
	.st134{opacity:4.761905e-02;fill:#545556;}
	.st135{opacity:9.523810e-02;fill:#57595B;}
	.st136{opacity:0.1429;fill:#595D5F;}
	.st137{opacity:0.1905;fill:#5C6164;}
	.st138{opacity:0.2381;fill:#5F6569;}
	.st139{opacity:0.2857;fill:#62686E;}
	.st140{opacity:0.3333;fill:#646C72;}
	.st141{opacity:0.381;fill:#677077;}
	.st142{opacity:0.4286;fill:#6A747C;}
	.st143{opacity:0.4762;fill:#6D7881;}
	.st144{opacity:0.5238;fill:#6F7C85;}
	.st145{opacity:0.5714;fill:#72808A;}
	.st146{opacity:0.619;fill:#75848F;}
	.st147{opacity:0.6667;fill:#788894;}
	.st148{opacity:0.7143;fill:#7A8C98;}
	.st149{opacity:0.7619;fill:#7D8F9D;}
	.st150{opacity:0.8095;fill:#8093A2;}
	.st151{opacity:0.8571;fill:#8397A7;}
	.st152{opacity:0.9048;fill:#859BAB;}
	.st153{opacity:0.9524;fill:#889FB0;}
	.st154{fill:#008DD4;}
	.st155{fill:url(#SVGID_40_);}
	.st156{fill:#4FC5FF;}
	.st157{fill:url(#SVGID_41_);}
	.st158{fill:url(#SVGID_42_);}
	.st159{fill:#63CCFF;}
	.st160{fill:#007FC9;}
	.st161{fill:#6ED8FF;}
	.st162{fill:#008CDE;}
	.st163{fill:#B3EDFF;}
	.st164{fill:#61D7FF;}
	.st165{fill:url(#SVGID_43_);}
	.st166{fill:url(#SVGID_44_);}
	.st167{opacity:2.580645e-02;fill:#505051;}
	.st168{opacity:5.161290e-02;fill:#4E4F51;}
	.st169{opacity:7.741936e-02;fill:#4D4F50;}
	.st170{opacity:0.1032;fill:#4C4E50;}
	.st171{opacity:0.129;fill:#4B4D50;}
	.st172{opacity:0.1548;fill:#494C50;}
	.st173{opacity:0.1806;fill:#484B4F;}
	.st174{opacity:0.2065;fill:#474B4F;}
	.st175{opacity:0.2323;fill:#464A4F;}
	.st176{opacity:0.2581;fill:#44494F;}
	.st177{opacity:0.2839;fill:#43484F;}
	.st178{opacity:0.3097;fill:#42474E;}
	.st179{opacity:0.3355;fill:#41474E;}
	.st180{opacity:0.3613;fill:#3F464E;}
	.st181{opacity:0.3871;fill:#3E454E;}
	.st182{opacity:0.4129;fill:#3D444D;}
	.st183{opacity:0.4387;fill:#3C434D;}
	.st184{opacity:0.4645;fill:#3A424D;}
	.st185{opacity:0.4903;fill:#39424D;}
	.st186{opacity:0.5161;fill:#38414C;}
	.st187{opacity:0.5419;fill:#37404C;}
	.st188{opacity:0.5677;fill:#353F4C;}
	.st189{opacity:0.5935;fill:#343E4C;}
	.st190{opacity:0.6194;fill:#333E4C;}
	.st191{opacity:0.6452;fill:#323D4B;}
	.st192{opacity:0.671;fill:#303C4B;}
	.st193{opacity:0.6968;fill:#2F3B4B;}
	.st194{opacity:0.7226;fill:#2E3A4B;}
	.st195{opacity:0.7484;fill:#2D3A4A;}
	.st196{opacity:0.7742;fill:#2B394A;}
	.st197{opacity:0.8;fill:#2A384A;}
	.st198{fill:url(#SVGID_45_);}
	.st199{fill:url(#SVGID_46_);}
	.st200{fill:#91D5EB;}
	.st201{fill:#E1F0FA;}
	.st202{fill:#9DDEF2;}
	.st203{fill:#A2DEF2;}
	.st204{fill:#BEE9F7;}
	.st205{fill:#C8EEFA;}
	.st206{fill:url(#SVGID_47_);}
	.st207{opacity:0.3;fill:url(#SVGID_48_);}
	.st208{opacity:2.580645e-02;fill:#FBFCFC;}
	.st209{opacity:5.161290e-02;fill:#F7F9FA;}
	.st210{opacity:7.741936e-02;fill:#F3F6F7;}
	.st211{opacity:0.1032;fill:#EFF3F5;}
	.st212{opacity:0.129;fill:#EBF0F2;}
	.st213{opacity:0.1548;fill:#E8EDF0;}
	.st214{opacity:0.1806;fill:#E4EAED;}
	.st215{opacity:0.2065;fill:#E0E7EB;}
	.st216{opacity:0.2323;fill:#DCE4E8;}
	.st217{opacity:0.2581;fill:#D8E1E6;}
	.st218{opacity:0.2839;fill:#D4DEE3;}
	.st219{opacity:0.3097;fill:#D0DBE0;}
	.st220{opacity:0.3355;fill:#CCD8DE;}
	.st221{opacity:0.3613;fill:#C8D5DB;}
	.st222{opacity:0.3871;fill:#C4D2D9;}
	.st223{opacity:0.4129;fill:#C1CFD6;}
	.st224{opacity:0.4387;fill:#BDCCD4;}
	.st225{opacity:0.4645;fill:#B9C9D1;}
	.st226{opacity:0.4903;fill:#B5C6CF;}
	.st227{opacity:0.5161;fill:#B1C3CC;}
	.st228{opacity:0.5419;fill:#ADC0C9;}
	.st229{opacity:0.5677;fill:#A9BDC7;}
	.st230{opacity:0.5935;fill:#A5BAC4;}
	.st231{opacity:0.6194;fill:#A1B7C2;}
	.st232{opacity:0.6452;fill:#9DB4BF;}
	.st233{opacity:0.671;fill:#9AB1BD;}
	.st234{opacity:0.6968;fill:#96AEBA;}
	.st235{opacity:0.7226;fill:#92ABB8;}
	.st236{opacity:0.7484;fill:#8EA8B5;}
	.st237{opacity:0.7742;fill:#8AA5B3;}
	.st238{opacity:0.8;fill:#86A2B0;}
	.st239{fill:url(#SVGID_49_);}
	.st240{clip-path:url(#SVGID_51_);}
	.st241{fill:#0A4D80;}
	.st242{fill:url(#SVGID_52_);}
	.st243{clip-path:url(#SVGID_54_);}
</style>
<g>
	<g>
		<g class="st63">
			<path class="st108" d="M386.8,272.5c12.9-3.3,13.6-20.6,4.4-30.7c-9.8-10.8-21.4-15-29.6-23.3c-8.6-8.8-5.1-24.7-37.6-45.1
				c-27.6-17.3-65.9,26.8-89.7,34.1c-27.4,8.5-37.2,29.3-59.5,38.2c-11.8,4.7-91,2-82.7,23.5c2.6,6.7,18.5,5.1,28.9,10.5
				c12,6.3,23.1,16.8,32.7,16.5c20.4-0.7,19.1-13,34.3-12.5c17.9,0.6,26.1,16.2,42.6,16.2c21.9,0,20.6-5.9,30.5-4.9
				c5.2,0.5,9.4,5.2,23.9,5.5c18.1,0.3,25-8.9,31.8-9.7c11.6-1.4,15,3.7,33.4-3.5C369.2,279.8,371.2,276.5,386.8,272.5z"/>
		</g>
		<path class="st109" d="M396.6,235.7c-3.1-10.7-9.5-20.1-18.2-26.7c2.2-5.9,3.5-12.2,3.8-18.8c1.4-33.7-24.7-62.2-58.4-63.7
			c-25.8-1.1-48.5,13.9-58.4,36.1c-1.8-0.2-3.6-0.4-5.4-0.5c-21.3-0.9-40.6,9-52.5,24.9c-3.4-1.3-7-2.2-10.8-2.3
			c-18.3-0.8-33.8,13.4-34.6,31.8c-0.1,3,0.2,5.9,0.8,8.8c-6.7,1.1-12.4,5.1-15.9,10.7c-5.6-7.5-14.3-12.5-24.3-12.9
			c-13.9-0.6-26.1,7.8-31,20c-0.6-0.1-1.2-0.1-1.9-0.2c-12.7-0.5-23.4,9.3-24,22c-0.5,12.7,9.3,23.4,22,24
			c6.5,0.3,12.5-2.2,16.9-6.4c4.4,2.7,9.6,4.3,15.1,4.6c5,11.1,15.9,19,28.8,19.6c13.5,0.6,25.3-6.9,31.1-18.2c3.8,1.7,8,2.8,12.4,3
			c1.4,0.1,2.8,0,4.1-0.1c7.8,10.4,20,17.4,34,18c13.7,0.6,26.1-5,34.8-14.3c5.3,10.2,15.7,17.3,28,17.9
			c13.1,0.5,24.7-6.5,30.5-17.3c6.4,3.3,13.7,5.3,21.4,5.7c16.8,0.7,32.1-6.7,42-18.9c2.3,0.9,4.8,1.4,7.4,1.5
			c13.3,0.6,24.5-9.8,25.1-23.1C420.1,247.5,409.8,236.3,396.6,235.7z"/>
		<path class="st200" d="M397.6,236.6c-3.1-10.7-9.5-20.1-18.2-26.7c2.2-5.9,3.5-12.2,3.8-18.8c1.4-33.7-24.7-62.2-58.4-63.7
			c-25.8-1.1-48.5,13.9-58.4,36.1c-1.8-0.2-3.5-0.4-5.4-0.5c-21.3-0.9-40.6,9-52.5,24.9c-3.4-1.3-7-2.2-10.8-2.3
			c-18.3-0.8-33.8,13.5-34.6,31.8c-0.1,3,0.2,6,0.8,8.8c-6.7,1.1-12.4,5.1-15.9,10.7c-5.6-7.5-14.3-12.5-24.3-12.9
			c-13.9-0.6-26.1,7.8-31,20c-0.6-0.1-1.3-0.2-1.9-0.2c-12.7-0.5-23.4,9.3-24,22c-0.5,12.7,9.3,23.4,22,24
			c6.5,0.3,12.5-2.2,16.9-6.4c4.4,2.7,9.6,4.3,15.1,4.6c5,11.1,15.9,19,28.9,19.6c13.5,0.6,25.3-6.9,31.1-18.2c3.8,1.7,8,2.8,12.4,3
			c1.4,0.1,2.8,0,4.1-0.1c7.8,10.4,20,17.4,34,18c13.7,0.6,26.1-5,34.8-14.3c5.3,10.2,15.7,17.3,28,17.9
			c13.1,0.5,24.7-6.5,30.6-17.3c6.4,3.3,13.7,5.3,21.4,5.7c16.8,0.7,32.1-6.7,42-18.9c2.3,0.9,4.8,1.4,7.4,1.5
			c13.3,0.6,24.5-9.8,25.1-23.1C421,248.5,410.8,237.3,397.6,236.6z"/>
	</g>
	<g>
		<g>
			<path class="st111" d="M237.6,299.2c-0.1,0.1-0.2,0.1-0.2,0.1L162.5,334c-0.5,0.2-1,0.2-1.5,0.1c-0.5-0.2-0.9-0.5-1.1-1
				c-0.4-0.9-0.1-1.9,0.7-2.4c0.1-0.1,0.1-0.1,0.2-0.1l74.9-34.7c1-0.4,2.1,0,2.5,1C238.7,297.6,238.4,298.7,237.6,299.2z"/>
			<path class="st111" d="M233.3,307.9c-0.1,0.1-0.2,0.1-0.2,0.1c-1,0.4-2.1,0-2.6-0.9l-5.1-11c-0.4-0.9-0.1-1.9,0.7-2.4
				c0.1-0.1,0.2-0.1,0.3-0.1c1-0.5,2.1,0,2.6,0.9l5.1,11C234.4,306.3,234.1,307.3,233.3,307.9z"/>
			<path class="st111" d="M172.1,336.2c-0.1,0.1-0.2,0.1-0.3,0.1c-1,0.4-2.1,0-2.6-0.9l-5.1-11c-0.4-0.8-0.1-1.9,0.7-2.4
				c0.1-0.1,0.2-0.1,0.3-0.1c1-0.4,2.1,0,2.5,1l5.1,11C173.2,334.6,172.9,335.7,172.1,336.2z"/>
			<path class="st111" d="M217.5,354c-0.1,0.1-0.2,0.1-0.3,0.1c-0.5,0.2-1,0.2-1.5,0.1c-0.5-0.2-0.9-0.5-1.1-1L180,278.3
				c-0.4-0.9-0.1-1.9,0.7-2.4c0.1-0.1,0.2-0.1,0.2-0.1c0.5-0.2,1-0.2,1.5-0.1c0.5,0.2,0.9,0.5,1.1,1l34.7,74.9
				C218.6,352.4,218.3,353.5,217.5,354z"/>
			<path class="st111" d="M219.8,344.6c-0.1,0.1-0.2,0.1-0.3,0.1l-11,5.1c-0.5,0.2-1,0.2-1.5,0.1c-0.5-0.2-0.9-0.5-1.1-1
				c-0.4-0.9-0.1-1.9,0.7-2.4c0.1-0.1,0.2-0.1,0.2-0.1l11-5.1c0.5-0.2,1-0.2,1.5-0.1c0.5,0.2,0.9,0.5,1.1,1
				C220.9,343,220.6,344.1,219.8,344.6z"/>
			<path class="st111" d="M191.5,283.4c-0.1,0-0.2,0.1-0.3,0.1l-11,5.1c-0.5,0.2-1,0.2-1.5,0.1s-0.9-0.5-1.1-1
				c-0.4-0.9-0.1-1.9,0.7-2.4c0.1-0.1,0.2-0.1,0.3-0.1l11-5.1c0.5-0.2,1-0.2,1.5-0.1c0.5,0.2,0.9,0.5,1.1,1
				C192.5,281.9,192.2,282.9,191.5,283.4z"/>
			<path class="st111" d="M185.9,355.3c-0.1,0.1-0.2,0.1-0.2,0.1c-0.5,0.2-1,0.2-1.5,0.1c-0.5-0.2-0.9-0.5-1.1-1
				c-0.2-0.5-0.2-1-0.1-1.5l28.4-77.5c0.1-0.4,0.4-0.7,0.7-1c0.5-0.3,1.1-0.4,1.7-0.2c0.5,0.2,0.9,0.5,1.1,1c0.2,0.5,0.2,1,0.1,1.5
				l-28.4,77.5C186.5,354.7,186.3,355.1,185.9,355.3z"/>
			<path class="st111" d="M194.2,350.3c-0.1,0-0.2,0.1-0.2,0.1c-0.5,0.2-1,0.2-1.5,0.1l-11.3-4.2c-0.5-0.2-0.9-0.5-1.1-1
				c-0.2-0.5-0.2-1-0.1-1.5c0.1-0.4,0.4-0.7,0.7-1c0.5-0.3,1.1-0.4,1.7-0.2l11.3,4.2c0.5,0.2,0.9,0.5,1.1,1c0.2,0.5,0.2,1,0.1,1.5
				C194.8,349.7,194.6,350,194.2,350.3z"/>
			<path class="st111" d="M217.4,287c-0.1,0.1-0.2,0.1-0.2,0.1c-0.5,0.2-1,0.2-1.5,0.1l-11.3-4.2c-1-0.4-1.5-1.5-1.1-2.5
				c0.1-0.4,0.4-0.7,0.8-0.9c0.5-0.4,1.1-0.4,1.7-0.2l11.3,4.2c0.5,0.2,0.9,0.5,1.1,1c0.2,0.5,0.2,1,0.1,1.5
				C218,286.4,217.8,286.7,217.4,287z"/>
			<path class="st111" d="M238.9,330.7c-0.1,0.1-0.2,0.1-0.2,0.1c-0.5,0.2-1,0.2-1.5,0.1l-77.5-28.4c-0.5-0.2-0.9-0.5-1.1-1
				c-0.2-0.5-0.2-1-0.1-1.5c0.1-0.4,0.4-0.7,0.7-0.9c0.5-0.4,1.1-0.4,1.7-0.2l77.5,28.4c0.5,0.2,0.9,0.5,1.1,1
				c0.2,0.5,0.2,1,0.1,1.5C239.5,330.2,239.2,330.5,238.9,330.7z"/>
			<path class="st111" d="M166.4,310.6c-0.1,0-0.2,0.1-0.2,0.1c-0.5,0.2-1,0.2-1.5,0.1c-0.5-0.2-0.9-0.5-1.1-1
				c-0.2-0.5-0.2-1-0.1-1.5l4.2-11.3c0.2-0.4,0.4-0.7,0.8-1c0.5-0.3,1.1-0.4,1.7-0.2c0.5,0.2,0.9,0.5,1.1,1c0.2,0.5,0.2,1,0.1,1.5
				l-4.2,11.4C167,310.1,166.8,310.4,166.4,310.6z"/>
			<path class="st111" d="M229.7,333.8c-0.1,0-0.2,0.1-0.2,0.1c-0.5,0.2-1,0.2-1.5,0.1c-0.5-0.2-0.9-0.5-1.1-1
				c-0.2-0.5-0.2-1-0.1-1.5l4.2-11.4c0.1-0.4,0.4-0.7,0.8-1c0.5-0.3,1.1-0.4,1.7-0.2c0.5,0.2,0.9,0.5,1.1,1c0.2,0.5,0.2,1,0.1,1.5
				l-4.2,11.4C230.3,333.3,230.1,333.6,229.7,333.8z"/>
			<path class="st111" d="M209.7,337.2c-0.1,0.1-0.1,0.1-0.2,0.1c-0.5,0.2-1.1,0.2-1.6-0.1l-8.1-4.5l-7.7,5.2
				c-0.5,0.3-1,0.4-1.6,0.2c-0.5-0.2-0.9-0.6-1.1-1.2L187,328l-9.1-1.8c-0.5-0.1-1-0.5-1.2-1c-0.2-0.5-0.2-1.1,0.1-1.6l4.5-8.1
				l-5.2-7.7c-0.3-0.5-0.4-1-0.2-1.5c0.1-0.4,0.4-0.7,0.7-0.9c0.1-0.1,0.3-0.2,0.5-0.2l8.9-2.5l1.8-9.1c0.1-0.5,0.4-0.9,0.7-1.1
				c0.1,0,0.1-0.1,0.2-0.1c0.5-0.2,1.1-0.2,1.6,0.1l8.1,4.5c7.7-5.2,7.7-5.2,7.7-5.2c0.5-0.3,1-0.4,1.6-0.2c0.5,0.2,0.9,0.6,1.1,1.2
				l2.5,8.9l9.1,1.8c0.6,0.1,1,0.5,1.2,1c0.2,0.5,0.2,1.1-0.1,1.6l-4.5,8.1l5.1,7.5c0.1,0.1,0.2,0.3,0.3,0.4
				c0.4,0.8,0.1,1.7-0.6,2.2c-0.1,0.1-0.1,0.1-0.2,0.1l-0.1,0c-0.1,0-0.1,0.1-0.2,0.1l-8.9,2.5l-1.8,9.1
				C210.3,336.6,210.1,337,209.7,337.2z M198.8,329.3c0.1-0.1,0.2-0.1,0.2-0.1c0.5-0.2,1.1-0.2,1.6,0.1l6.9,3.9l1.5-7.8
				c0.1-0.5,0.4-0.9,0.7-1.1c0.2-0.1,0.3-0.2,0.5-0.2l7.6-2.1l-4.4-6.6c-0.4-0.5-0.4-1.2-0.1-1.8l3.9-6.9l-7.8-1.5
				c-0.6-0.1-1.2-0.6-1.3-1.2l-2.1-7.6l-6.6,4.5c-0.6,0.4-1.2,0.4-1.8,0.1l-6.9-3.9l-1.5,7.8c-0.1,0.5-0.4,0.9-0.7,1.1
				c-0.1,0.1-0.3,0.2-0.5,0.2l-7.6,2.1l4.4,6.6c0.4,0.5,0.4,1.2,0.1,1.8l-3.9,6.9l7.8,1.5c0.6,0.1,1.2,0.6,1.3,1.2l2.1,7.6
				L198.8,329.3L198.8,329.3z"/>
			<path class="st111" d="M222.4,337c-0.1,0-0.1,0.1-0.2,0.1c-0.3,0.1-0.6,0.2-0.9,0.2l-12.5-1.5l-7,10.5c-0.1,0.2-0.3,0.4-0.5,0.5
				c-0.3,0.2-0.6,0.3-0.9,0.3c-0.5,0-1.1-0.2-1.4-0.7l-7.8-9.9l-12.4,2.5c-0.5,0.1-1.1-0.1-1.5-0.4c-0.4-0.4-0.6-0.9-0.5-1.5
				l1.5-12.5l-10.5-7c-0.5-0.3-0.7-0.8-0.8-1.4c0-0.5,0.2-1.1,0.7-1.4l9.9-7.8l-2.5-12.3c-0.1-0.5,0.1-1.1,0.4-1.5
				c0.1-0.1,0.2-0.2,0.3-0.3c0.3-0.2,0.7-0.3,1.2-0.3l12.5,1.5l7-10.5c0.1-0.2,0.3-0.4,0.5-0.5c0.3-0.2,0.6-0.3,0.9-0.3
				c0.6,0,1.1,0.2,1.4,0.7l7.8,9.9l12.3-2.5c0.5-0.1,1.1,0.1,1.5,0.4c0.4,0.4,0.6,0.9,0.5,1.5l-1.5,12.5l10.5,6.9
				c0.5,0.3,0.8,0.8,0.8,1.4c0,0.6-0.2,1.1-0.7,1.4l-9.9,7.8l2.5,12.4c0.1,0.5,0,1.1-0.4,1.5C222.6,336.8,222.5,336.9,222.4,337z
				 M206.9,332.5c0.3-0.2,0.7-0.3,1.2-0.3l11.2,1.3l-2.3-11c-0.1-0.7,0.1-1.3,0.6-1.7l8.9-7l-9.4-6.2c-0.5-0.4-0.8-1-0.8-1.7
				l1.3-11.2l-11,2.3c-0.7,0.1-1.3-0.1-1.7-0.6l-7-8.9l-6.2,9.4c-0.1,0.2-0.3,0.4-0.5,0.5c-0.3,0.2-0.7,0.3-1.2,0.3l-11.2-1.3
				l2.3,11c0.1,0.7-0.1,1.3-0.6,1.7l-8.9,7l9.4,6.2c0.6,0.4,0.8,1,0.8,1.7l-1.3,11.2l11-2.3c0.7-0.1,1.3,0.1,1.7,0.6l7,8.9l6.2-9.4
				C206.6,332.7,206.7,332.6,206.9,332.5z"/>
		</g>
		<g>
			<path class="st201" d="M238.6,299.2c-0.1,0.1-0.2,0.1-0.3,0.1L163.4,334c-0.5,0.2-1,0.2-1.5,0.1c-0.5-0.2-0.9-0.5-1.1-1
				c-0.4-0.9-0.1-1.9,0.7-2.4c0.1-0.1,0.2-0.1,0.2-0.1l74.9-34.7c1-0.4,2.1,0,2.6,1C239.6,297.6,239.4,298.7,238.6,299.2z"/>
			<path class="st201" d="M234.2,307.9c-0.1,0.1-0.2,0.1-0.3,0.1c-1,0.4-2.1,0-2.5-0.9l-5.1-11c-0.4-0.9-0.1-1.9,0.7-2.4
				c0.1-0.1,0.2-0.1,0.2-0.1c1-0.5,2.1,0,2.6,0.9l5.1,11C235.3,306.3,235,307.3,234.2,307.9z"/>
			<path class="st201" d="M173.1,336.2c-0.1,0.1-0.2,0.1-0.3,0.1c-1,0.4-2.1,0-2.6-0.9l-5.1-11c-0.4-0.8-0.1-1.9,0.7-2.4
				c0.1-0.1,0.2-0.1,0.3-0.1c1-0.4,2.1,0,2.6,1l5.1,11C174.2,334.6,173.9,335.7,173.1,336.2z"/>
			<path class="st201" d="M218.5,354c-0.1,0.1-0.2,0.1-0.3,0.1c-0.5,0.2-1,0.2-1.5,0.1c-0.5-0.2-0.9-0.5-1.1-1L181,278.3
				c-0.4-0.9-0.1-1.9,0.7-2.4c0.1-0.1,0.2-0.1,0.2-0.1c0.5-0.2,1-0.2,1.5-0.1c0.5,0.2,0.9,0.5,1.1,1l34.7,74.9
				C219.6,352.4,219.3,353.5,218.5,354z"/>
			<path class="st201" d="M220.8,344.6c-0.1,0.1-0.2,0.1-0.2,0.1l-11,5.1c-0.5,0.2-1,0.2-1.5,0.1c-0.5-0.2-0.9-0.5-1.1-1
				c-0.4-0.9-0.1-1.9,0.7-2.4c0.1-0.1,0.2-0.1,0.2-0.1l11-5.1c0.5-0.2,1-0.2,1.5-0.1c0.5,0.2,0.9,0.5,1.1,1
				C221.9,343,221.6,344.1,220.8,344.6z"/>
			<path class="st201" d="M192.4,283.4c-0.1,0-0.2,0.1-0.2,0.1l-11,5.1c-0.5,0.2-1,0.2-1.5,0.1c-0.5-0.2-0.9-0.5-1.1-1
				c-0.4-0.9-0.1-1.9,0.7-2.4c0.1-0.1,0.2-0.1,0.2-0.1l11-5.1c0.5-0.2,1-0.2,1.5-0.1c0.5,0.2,0.9,0.5,1.1,1
				C193.5,281.9,193.2,282.9,192.4,283.4z"/>
			<path class="st201" d="M186.9,355.3c-0.1,0.1-0.2,0.1-0.3,0.1c-0.5,0.2-1,0.2-1.5,0.1c-0.5-0.2-0.9-0.5-1.1-1
				c-0.2-0.5-0.2-1-0.1-1.5l28.4-77.5c0.1-0.4,0.4-0.7,0.8-1c0.5-0.3,1.1-0.4,1.7-0.2c0.5,0.2,0.9,0.5,1.1,1c0.2,0.5,0.2,1,0.1,1.5
				l-28.4,77.5C187.5,354.7,187.3,355.1,186.9,355.3z"/>
			<path class="st201" d="M195.2,350.3c-0.1,0-0.2,0.1-0.2,0.1c-0.5,0.2-1,0.2-1.5,0.1l-11.3-4.2c-0.5-0.2-0.9-0.5-1.1-1
				c-0.2-0.5-0.2-1-0.1-1.5c0.1-0.4,0.4-0.7,0.7-1c0.5-0.3,1.1-0.4,1.7-0.2l11.4,4.2c0.5,0.2,0.9,0.5,1.1,1c0.2,0.5,0.2,1,0.1,1.5
				C195.8,349.7,195.5,350,195.2,350.3z"/>
			<path class="st201" d="M218.4,287c-0.1,0.1-0.2,0.1-0.2,0.1c-0.5,0.2-1,0.2-1.5,0.1l-11.3-4.2c-1-0.4-1.5-1.5-1.1-2.5
				c0.1-0.4,0.4-0.7,0.7-0.9c0.5-0.4,1.1-0.4,1.7-0.2l11.3,4.2c0.5,0.2,0.9,0.5,1.1,1c0.2,0.5,0.2,1,0.1,1.5
				C219,286.4,218.7,286.7,218.4,287z"/>
			<path class="st201" d="M239.9,330.7c-0.1,0.1-0.2,0.1-0.2,0.1c-0.5,0.2-1,0.2-1.5,0.1l-77.5-28.4c-0.5-0.2-0.9-0.5-1.1-1
				c-0.2-0.5-0.2-1-0.1-1.5c0.1-0.4,0.4-0.7,0.7-0.9c0.5-0.4,1.1-0.4,1.7-0.2l77.5,28.4c0.5,0.2,0.9,0.5,1.1,1
				c0.2,0.5,0.2,1,0.1,1.5C240.5,330.2,240.2,330.5,239.9,330.7z"/>
			<path class="st201" d="M167.4,310.6c-0.1,0-0.2,0.1-0.2,0.1c-0.5,0.2-1,0.2-1.5,0.1c-0.5-0.2-0.9-0.5-1.1-1
				c-0.2-0.5-0.2-1-0.1-1.5l4.2-11.3c0.1-0.4,0.4-0.7,0.8-1c0.5-0.3,1.1-0.4,1.7-0.2c0.5,0.2,0.9,0.5,1.1,1c0.2,0.5,0.2,1,0.1,1.5
				l-4.2,11.4C168,310.1,167.7,310.4,167.4,310.6z"/>
			<path class="st201" d="M230.7,333.8c-0.1,0-0.2,0.1-0.2,0.1c-0.5,0.2-1,0.2-1.5,0.1c-0.5-0.2-0.9-0.5-1.1-1
				c-0.2-0.5-0.2-1-0.1-1.5l4.2-11.4c0.1-0.4,0.4-0.7,0.7-1c0.5-0.3,1.1-0.4,1.7-0.2c0.5,0.2,0.9,0.5,1.1,1c0.2,0.5,0.2,1,0.1,1.5
				l-4.2,11.4C231.3,333.3,231,333.6,230.7,333.8z"/>
			<path class="st201" d="M210.7,337.2c-0.1,0.1-0.1,0.1-0.2,0.1c-0.5,0.2-1.1,0.2-1.6-0.1l-8.1-4.5l-7.7,5.2
				c-0.5,0.3-1.1,0.4-1.6,0.2c-0.5-0.2-0.9-0.6-1.1-1.2L188,328l-9.1-1.8c-0.5-0.1-1-0.5-1.2-1c-0.2-0.5-0.2-1.1,0.1-1.6l4.5-8.1
				l-5.2-7.7c-0.3-0.5-0.4-1-0.2-1.5c0.1-0.4,0.4-0.7,0.7-0.9c0.1-0.1,0.3-0.2,0.5-0.2l8.9-2.5l1.8-9.1c0.1-0.5,0.4-0.9,0.8-1.1
				c0.1,0,0.1-0.1,0.2-0.1c0.5-0.2,1.1-0.2,1.6,0.1l8.1,4.5c7.7-5.2,7.7-5.2,7.7-5.2c0.5-0.3,1-0.4,1.6-0.2c0.5,0.2,0.9,0.6,1.1,1.2
				l2.5,8.9l9.1,1.8c0.6,0.1,1,0.5,1.2,1c0.2,0.5,0.2,1.1-0.1,1.6l-4.5,8.1l5.1,7.5c0.1,0.1,0.2,0.3,0.3,0.4
				c0.4,0.8,0.1,1.7-0.6,2.2c-0.1,0.1-0.1,0.1-0.2,0.1l-0.1,0c-0.1,0-0.1,0.1-0.2,0.1l-8.9,2.5l-1.8,9.1
				C211.3,336.6,211.1,337,210.7,337.2z M199.7,329.3c0.1-0.1,0.2-0.1,0.2-0.1c0.5-0.2,1.1-0.2,1.6,0.1l6.9,3.9l1.5-7.8
				c0.1-0.5,0.4-0.9,0.7-1.1c0.1-0.1,0.3-0.2,0.5-0.2l7.6-2.1l-4.4-6.6c-0.4-0.5-0.4-1.2-0.1-1.8l3.9-6.9l-7.8-1.5
				c-0.6-0.1-1.2-0.6-1.3-1.2l-2.1-7.6l-6.6,4.5c-0.6,0.4-1.2,0.4-1.8,0.1l-6.9-3.9l-1.5,7.8c-0.1,0.5-0.4,0.9-0.7,1.1
				c-0.1,0.1-0.3,0.2-0.5,0.2l-7.6,2.1l4.5,6.6c0.4,0.5,0.4,1.2,0.1,1.8l-3.9,6.9l7.8,1.5c0.6,0.1,1.2,0.6,1.3,1.2l2.1,7.6
				L199.7,329.3L199.7,329.3z"/>
			<path class="st201" d="M223.4,337c-0.1,0-0.2,0.1-0.2,0.1c-0.3,0.1-0.6,0.2-0.9,0.2l-12.5-1.5l-6.9,10.5
				c-0.1,0.2-0.3,0.4-0.5,0.5c-0.3,0.2-0.6,0.3-0.9,0.3c-0.6,0-1.1-0.2-1.4-0.7l-7.8-9.9l-12.3,2.5c-0.5,0.1-1.1-0.1-1.5-0.4
				c-0.4-0.4-0.6-0.9-0.5-1.5l1.5-12.5l-10.5-7c-0.5-0.3-0.7-0.8-0.8-1.4c0-0.5,0.2-1.1,0.7-1.4l9.9-7.8l-2.5-12.3
				c-0.1-0.5,0-1.1,0.4-1.5c0.1-0.1,0.2-0.2,0.3-0.3c0.3-0.2,0.7-0.3,1.2-0.3l12.5,1.5l7-10.5c0.1-0.2,0.3-0.4,0.5-0.5
				c0.3-0.2,0.6-0.3,0.9-0.3c0.6,0,1.1,0.2,1.4,0.7l7.8,9.9l12.3-2.5c0.5-0.1,1.1,0.1,1.5,0.4c0.4,0.4,0.6,0.9,0.5,1.5l-1.5,12.5
				l10.5,6.9c0.5,0.3,0.7,0.8,0.8,1.4c0,0.6-0.2,1.1-0.7,1.4l-9.9,7.8l2.5,12.4c0.1,0.5,0,1.1-0.4,1.5
				C223.6,336.8,223.5,336.9,223.4,337z M207.9,332.5c0.3-0.2,0.8-0.3,1.2-0.3l11.2,1.3l-2.3-11c-0.1-0.7,0.1-1.3,0.6-1.7l8.9-7
				l-9.4-6.2c-0.5-0.4-0.8-1-0.8-1.7l1.3-11.2l-11,2.3c-0.7,0.1-1.3-0.1-1.7-0.6l-7-8.9l-6.2,9.4c-0.1,0.2-0.3,0.4-0.5,0.5
				c-0.3,0.2-0.7,0.3-1.2,0.3l-11.2-1.3l2.3,11c0.1,0.7-0.1,1.3-0.6,1.7l-8.9,7l9.4,6.2c0.5,0.4,0.8,1,0.8,1.7l-1.3,11.2l11-2.3
				c0.7-0.1,1.3,0.1,1.7,0.6l7,8.9l6.2-9.4C207.5,332.7,207.7,332.6,207.9,332.5z"/>
		</g>
	</g>
	<g>
		<g>
			<path class="st111" d="M161.4,364.9c-0.1,0-0.1,0.1-0.2,0.1l-47.6,22.1c-0.3,0.1-0.6,0.1-0.9,0c-0.3-0.1-0.6-0.3-0.7-0.6
				c-0.3-0.5-0.1-1.2,0.4-1.5c0,0,0.1-0.1,0.1-0.1l47.6-22.1c0.6-0.3,1.3,0,1.6,0.6C162,363.9,161.9,364.6,161.4,364.9z"/>
			<path class="st111" d="M158.6,370.4c0,0-0.1,0.1-0.1,0.1c-0.6,0.3-1.3,0-1.6-0.6l-3.2-7c-0.3-0.5-0.1-1.2,0.4-1.5
				c0.1,0,0.1-0.1,0.1-0.1c0.6-0.3,1.4,0,1.6,0.6l3.2,7C159.3,369.4,159.1,370.1,158.6,370.4z"/>
			<path class="st111" d="M119.7,388.4c-0.1,0-0.1,0.1-0.2,0.1c-0.6,0.3-1.3,0-1.6-0.6l-3.2-7c-0.3-0.5-0.1-1.2,0.4-1.5
				c0.1,0,0.1-0.1,0.2-0.1c0.6-0.3,1.3,0,1.6,0.6l3.2,7C120.4,387.5,120.2,388.1,119.7,388.4z"/>
			<path class="st111" d="M148.6,399.8c-0.1,0-0.1,0.1-0.2,0.1c-0.3,0.1-0.6,0.2-0.9,0c-0.3-0.1-0.6-0.3-0.7-0.6l-22.1-47.6
				c-0.3-0.5-0.1-1.2,0.4-1.5c0.1,0,0.1-0.1,0.2-0.1c0.3-0.1,0.6-0.2,0.9,0c0.3,0.1,0.6,0.3,0.7,0.6l22.1,47.6
				C149.3,398.8,149.1,399.4,148.6,399.8z"/>
			<path class="st111" d="M150,393.8c-0.1,0-0.1,0.1-0.2,0.1l-7,3.2c-0.3,0.1-0.6,0.1-0.9,0c-0.3-0.1-0.6-0.3-0.7-0.6
				c-0.2-0.5-0.1-1.2,0.4-1.5c0.1,0,0.1-0.1,0.2-0.1l7-3.2c0.3-0.1,0.6-0.1,0.9,0c0.3,0.1,0.6,0.3,0.7,0.6
				C150.7,392.8,150.5,393.5,150,393.8z"/>
			<path class="st111" d="M132,354.9c-0.1,0-0.1,0.1-0.2,0.1l-7,3.2c-0.3,0.1-0.6,0.2-0.9,0.1c-0.3-0.1-0.6-0.3-0.7-0.6
				c-0.3-0.5-0.1-1.2,0.4-1.5c0.1,0,0.1-0.1,0.2-0.1l7-3.2c0.3-0.1,0.6-0.2,0.9,0c0.3,0.1,0.5,0.3,0.7,0.6
				C132.7,353.9,132.5,354.5,132,354.9z"/>
			<path class="st111" d="M128.5,400.6c0,0-0.1,0.1-0.1,0.1c-0.3,0.1-0.6,0.2-0.9,0c-0.3-0.1-0.5-0.3-0.7-0.6
				c-0.1-0.3-0.1-0.6,0-0.9l18.1-49.3c0.1-0.2,0.2-0.5,0.5-0.6c0.3-0.2,0.7-0.3,1.1-0.1c0.3,0.1,0.6,0.3,0.7,0.6
				c0.1,0.3,0.2,0.6,0,0.9L129,400C128.9,400.2,128.7,400.4,128.5,400.6z"/>
			<path class="st111" d="M133.8,397.4c-0.1,0-0.1,0.1-0.2,0.1c-0.3,0.2-0.6,0.2-0.9,0.1l-7.2-2.6c-0.3-0.1-0.5-0.4-0.7-0.6
				c-0.1-0.3-0.2-0.6,0-1c0.1-0.2,0.2-0.5,0.5-0.6c0.3-0.2,0.7-0.3,1.1-0.1l7.2,2.6c0.3,0.1,0.6,0.4,0.7,0.6c0.1,0.3,0.2,0.6,0,1
				C134.1,397,134,397.2,133.8,397.4z"/>
			<path class="st111" d="M148.5,357.1c-0.1,0-0.1,0.1-0.2,0.1c-0.3,0.1-0.6,0.1-0.9,0l-7.2-2.6c-0.6-0.2-1-1-0.7-1.6
				c0.1-0.2,0.2-0.5,0.5-0.6c0.3-0.2,0.7-0.3,1.1-0.1l7.2,2.6c0.3,0.1,0.6,0.3,0.7,0.7c0.1,0.3,0.1,0.6,0,0.9
				C148.9,356.8,148.7,357,148.5,357.1z"/>
			<path class="st111" d="M162.2,385c0,0-0.1,0.1-0.2,0.1c-0.3,0.1-0.6,0.1-0.9,0L111.8,367c-0.3-0.1-0.5-0.4-0.7-0.6
				c-0.1-0.3-0.1-0.6,0-1c0.1-0.2,0.3-0.5,0.5-0.6c0.3-0.2,0.7-0.2,1.1-0.1l49.3,18.1c0.3,0.1,0.6,0.3,0.7,0.6
				c0.1,0.3,0.1,0.6,0,0.9C162.6,384.6,162.4,384.8,162.2,385z"/>
			<path class="st111" d="M116.1,372.2c-0.1,0-0.1,0.1-0.2,0.1c-0.3,0.1-0.6,0.1-0.9,0c-0.3-0.1-0.6-0.4-0.7-0.6
				c-0.1-0.3-0.2-0.6,0-0.9l2.6-7.2c0.1-0.2,0.3-0.5,0.5-0.6c0.3-0.2,0.7-0.3,1.1-0.1c0.3,0.1,0.6,0.3,0.7,0.6
				c0.1,0.3,0.1,0.6,0,0.9l-2.6,7.2C116.5,371.8,116.3,372,116.1,372.2z"/>
			<path class="st111" d="M156.3,386.9c-0.1,0-0.1,0.1-0.2,0.1c-0.3,0.1-0.6,0.2-0.9,0.1c-0.3-0.1-0.6-0.3-0.7-0.6
				c-0.1-0.3-0.2-0.6,0-0.9l2.6-7.2c0.1-0.2,0.3-0.5,0.5-0.6c0.3-0.2,0.7-0.2,1.1-0.1c0.3,0.1,0.6,0.3,0.7,0.6
				c0.1,0.3,0.2,0.6,0,0.9l-2.6,7.2C156.7,386.6,156.6,386.8,156.3,386.9z"/>
			<path class="st111" d="M143.6,389.1c-0.1,0-0.1,0.1-0.1,0.1c-0.3,0.1-0.7,0.1-1,0l-5.1-2.9l-4.9,3.3c-0.3,0.2-0.7,0.2-1,0.1
				c-0.3-0.1-0.6-0.4-0.7-0.7l-1.6-5.7l-5.8-1.1c-0.3-0.1-0.6-0.3-0.8-0.6c-0.1-0.3-0.1-0.7,0-1l2.9-5.2l-3.3-4.9
				c-0.2-0.3-0.2-0.7-0.1-1c0.1-0.2,0.2-0.4,0.4-0.5c0.1-0.1,0.2-0.1,0.3-0.1l5.7-1.6l1.1-5.8c0.1-0.3,0.2-0.5,0.5-0.7
				c0.1,0,0.1-0.1,0.1-0.1c0.3-0.2,0.7-0.1,1,0l5.1,2.9c4.9-3.3,4.9-3.3,4.9-3.3c0.3-0.2,0.7-0.2,1-0.1c0.3,0.1,0.6,0.4,0.7,0.7
				l1.6,5.7l5.8,1.1c0.3,0.1,0.6,0.3,0.8,0.6c0.1,0.3,0.1,0.7,0,1l-2.9,5.1l3.2,4.8c0.1,0.1,0.1,0.2,0.2,0.3
				c0.2,0.5,0.1,1.1-0.4,1.4c0,0-0.1,0.1-0.1,0.1l0,0c0,0-0.1,0-0.1,0.1l-5.7,1.6l-1.1,5.8C144,388.7,143.9,389,143.6,389.1z
				 M136.7,384.1c0.1,0,0.1-0.1,0.1-0.1c0.3-0.2,0.7-0.1,1,0l4.4,2.5l1-4.9c0.1-0.3,0.2-0.5,0.5-0.7c0.1-0.1,0.2-0.1,0.3-0.1
				l4.9-1.4l-2.8-4.2c-0.2-0.3-0.3-0.8-0.1-1.1l2.5-4.4l-5-1c-0.4-0.1-0.7-0.4-0.8-0.8l-1.4-4.9l-4.2,2.8c-0.4,0.2-0.8,0.2-1.2,0.1
				l-4.4-2.5l-1,5c-0.1,0.3-0.2,0.5-0.5,0.7c-0.1,0.1-0.2,0.1-0.3,0.1l-4.9,1.4l2.8,4.2c0.2,0.3,0.3,0.8,0,1.1l-2.5,4.4l5,1
				c0.4,0.1,0.7,0.4,0.9,0.8l1.4,4.9L136.7,384.1L136.7,384.1z"/>
			<path class="st111" d="M151.7,389c-0.1,0-0.1,0.1-0.1,0.1c-0.2,0.1-0.4,0.1-0.6,0.1l-8-1l-4.4,6.7c-0.1,0.1-0.2,0.2-0.3,0.3
				c-0.2,0.1-0.4,0.2-0.6,0.2c-0.4,0-0.7-0.1-0.9-0.4l-5-6.3l-7.8,1.6c-0.4,0.1-0.7,0-1-0.3c-0.3-0.2-0.4-0.6-0.3-0.9l1-8l-6.7-4.4
				c-0.3-0.2-0.5-0.5-0.5-0.9c0-0.4,0.1-0.7,0.4-0.9l6.3-5l-1.6-7.8c-0.1-0.3,0-0.7,0.3-1c0.1-0.1,0.1-0.1,0.2-0.2
				c0.2-0.1,0.5-0.2,0.7-0.2l8,1l4.4-6.7c0.1-0.1,0.2-0.2,0.3-0.3c0.2-0.1,0.4-0.2,0.6-0.2c0.4,0,0.7,0.1,0.9,0.4l5,6.3l7.9-1.6
				c0.3-0.1,0.7,0,1,0.3c0.3,0.2,0.4,0.6,0.4,0.9l-1,8l6.7,4.4c0.3,0.2,0.5,0.5,0.5,0.9c0,0.4-0.1,0.7-0.4,0.9l-6.3,4.9l1.6,7.9
				c0.1,0.3,0,0.7-0.3,1C151.8,388.8,151.8,388.9,151.7,389z M141.8,386.1c0.2-0.1,0.5-0.2,0.7-0.2l7.1,0.9l-1.4-7
				c-0.1-0.4,0.1-0.8,0.4-1.1l5.6-4.4l-6-4c-0.3-0.2-0.5-0.6-0.5-1l0.9-7.1l-7,1.4c-0.4,0.1-0.8-0.1-1.1-0.4l-4.4-5.6l-4,6
				c-0.1,0.1-0.2,0.2-0.3,0.3c-0.2,0.1-0.5,0.2-0.7,0.2l-7.1-0.8l1.4,7c0.1,0.4-0.1,0.8-0.4,1.1l-5.6,4.4l6,3.9
				c0.4,0.2,0.5,0.6,0.5,1.1l-0.9,7.1l7-1.4c0.4-0.1,0.8,0.1,1.1,0.4l4.4,5.6l4-6C141.6,386.3,141.7,386.2,141.8,386.1z"/>
		</g>
		<g>
			<path class="st201" d="M162,364.9c-0.1,0-0.1,0.1-0.2,0.1l-47.6,22.1c-0.3,0.1-0.6,0.1-0.9,0c-0.3-0.1-0.6-0.3-0.7-0.6
				c-0.3-0.5-0.1-1.2,0.4-1.5c0.1,0,0.1-0.1,0.2-0.1l47.6-22.1c0.6-0.3,1.3,0,1.6,0.6C162.7,363.9,162.5,364.6,162,364.9z"/>
			<path class="st201" d="M159.2,370.4c-0.1,0-0.1,0.1-0.2,0.1c-0.6,0.3-1.3,0-1.6-0.6l-3.2-7c-0.3-0.5-0.1-1.2,0.4-1.5
				c0.1,0,0.1-0.1,0.2-0.1c0.6-0.3,1.3,0,1.6,0.6l3.2,7C159.9,369.4,159.7,370.1,159.2,370.4z"/>
			<path class="st201" d="M120.3,388.4c-0.1,0-0.1,0.1-0.2,0.1c-0.6,0.3-1.3,0-1.6-0.6l-3.2-7c-0.3-0.5-0.1-1.2,0.4-1.5
				c0.1,0,0.1-0.1,0.1-0.1c0.6-0.3,1.4,0,1.6,0.6l3.2,7C121,387.5,120.8,388.1,120.3,388.4z"/>
			<path class="st201" d="M149.2,399.8c-0.1,0-0.1,0.1-0.2,0.1c-0.3,0.1-0.6,0.2-0.9,0c-0.3-0.1-0.5-0.3-0.7-0.6l-22.1-47.6
				c-0.3-0.5-0.1-1.2,0.4-1.5c0,0,0.1-0.1,0.2-0.1c0.3-0.1,0.6-0.2,0.9,0c0.3,0.1,0.5,0.3,0.7,0.6l22.1,47.6
				C149.9,398.8,149.7,399.4,149.2,399.8z"/>
			<path class="st201" d="M150.6,393.8c0,0-0.1,0.1-0.2,0.1l-7,3.2c-0.3,0.1-0.6,0.1-0.9,0c-0.3-0.1-0.5-0.3-0.7-0.6
				c-0.3-0.5-0.1-1.2,0.4-1.5c0,0,0.1-0.1,0.1-0.1l7-3.2c0.3-0.1,0.6-0.1,0.9,0c0.3,0.1,0.5,0.3,0.7,0.6
				C151.3,392.8,151.2,393.5,150.6,393.8z"/>
			<path class="st201" d="M132.6,354.9c0,0-0.1,0.1-0.2,0.1l-7,3.2c-0.3,0.1-0.6,0.2-0.9,0.1c-0.3-0.1-0.5-0.3-0.7-0.6
				c-0.3-0.5-0.1-1.2,0.4-1.5c0.1,0,0.1-0.1,0.2-0.1l7-3.2c0.3-0.1,0.6-0.2,0.9,0c0.3,0.1,0.6,0.3,0.7,0.6
				C133.3,353.9,133.1,354.5,132.6,354.9z"/>
			<path class="st201" d="M129.1,400.6c-0.1,0-0.1,0.1-0.2,0.1c-0.3,0.1-0.6,0.2-0.9,0c-0.3-0.1-0.5-0.3-0.7-0.6
				c-0.1-0.3-0.1-0.6,0-0.9l18.1-49.3c0.1-0.2,0.3-0.5,0.5-0.6c0.3-0.2,0.7-0.3,1.1-0.1c0.3,0.1,0.6,0.3,0.7,0.6
				c0.1,0.3,0.1,0.6,0,0.9L129.6,400C129.5,400.2,129.3,400.4,129.1,400.6z"/>
			<path class="st201" d="M134.4,397.4c-0.1,0-0.1,0.1-0.2,0.1c-0.3,0.2-0.6,0.2-0.9,0.1l-7.2-2.6c-0.3-0.1-0.6-0.4-0.7-0.6
				c-0.1-0.3-0.1-0.6,0-1c0.1-0.2,0.2-0.5,0.5-0.6c0.3-0.2,0.7-0.3,1.1-0.1l7.2,2.6c0.3,0.1,0.6,0.4,0.7,0.6c0.1,0.3,0.1,0.6,0,1
				C134.8,397,134.6,397.2,134.4,397.4z"/>
			<path class="st201" d="M149.1,357.1c-0.1,0-0.1,0.1-0.2,0.1c-0.3,0.1-0.6,0.1-0.9,0l-7.2-2.6c-0.6-0.2-1-1-0.7-1.6
				c0.1-0.2,0.3-0.5,0.5-0.6c0.3-0.2,0.7-0.3,1.1-0.1l7.2,2.6c0.3,0.1,0.6,0.3,0.7,0.7c0.1,0.3,0.1,0.6,0,0.9
				C149.5,356.8,149.4,357,149.1,357.1z"/>
			<path class="st201" d="M162.8,385c-0.1,0-0.1,0.1-0.2,0.1c-0.3,0.1-0.6,0.1-0.9,0L112.4,367c-0.3-0.1-0.6-0.4-0.7-0.6
				c-0.1-0.3-0.2-0.6,0-1c0.1-0.2,0.3-0.5,0.5-0.6c0.3-0.2,0.7-0.2,1.1-0.1l49.3,18.1c0.3,0.1,0.6,0.3,0.7,0.6
				c0.1,0.3,0.1,0.6,0,0.9C163.2,384.6,163,384.8,162.8,385z"/>
			<path class="st201" d="M116.7,372.2c0,0-0.1,0.1-0.1,0.1c-0.3,0.1-0.6,0.1-0.9,0c-0.3-0.1-0.6-0.4-0.7-0.6
				c-0.1-0.3-0.1-0.6,0-0.9l2.6-7.2c0.1-0.2,0.3-0.5,0.5-0.6c0.3-0.2,0.7-0.3,1.1-0.1c0.3,0.1,0.6,0.3,0.7,0.6
				c0.1,0.3,0.1,0.6,0,0.9l-2.6,7.2C117.1,371.8,116.9,372,116.7,372.2z"/>
			<path class="st201" d="M157,386.9c0,0-0.1,0.1-0.1,0.1c-0.3,0.1-0.6,0.2-0.9,0.1c-0.3-0.1-0.5-0.3-0.7-0.6
				c-0.1-0.3-0.2-0.6,0-0.9l2.6-7.2c0.1-0.2,0.3-0.5,0.5-0.6c0.3-0.2,0.7-0.2,1.1-0.1c0.3,0.1,0.6,0.3,0.7,0.6
				c0.1,0.3,0.1,0.6,0,0.9l-2.6,7.2C157.3,386.6,157.2,386.8,157,386.9z"/>
			<path class="st201" d="M144.2,389.1c0,0-0.1,0.1-0.1,0.1c-0.3,0.1-0.7,0.1-1,0l-5.1-2.9l-4.9,3.3c-0.3,0.2-0.7,0.2-1,0.1
				c-0.3-0.1-0.6-0.4-0.7-0.7l-1.6-5.7l-5.8-1.1c-0.3-0.1-0.6-0.3-0.8-0.6c-0.1-0.3-0.1-0.7,0-1l2.9-5.2l-3.3-4.9
				c-0.2-0.3-0.3-0.7-0.1-1c0.1-0.2,0.2-0.4,0.4-0.5c0.1-0.1,0.2-0.1,0.3-0.1l5.7-1.6l1.1-5.8c0.1-0.3,0.2-0.5,0.5-0.7
				c0,0,0.1-0.1,0.1-0.1c0.3-0.2,0.7-0.1,1,0l5.1,2.9c4.9-3.3,4.9-3.3,4.9-3.3c0.3-0.2,0.7-0.2,1-0.1c0.3,0.1,0.6,0.4,0.7,0.7
				l1.6,5.7l5.8,1.1c0.4,0.1,0.6,0.3,0.8,0.6c0.1,0.3,0.1,0.7,0,1l-2.9,5.1l3.2,4.8c0.1,0.1,0.1,0.2,0.2,0.3
				c0.2,0.5,0.1,1.1-0.4,1.4c0,0-0.1,0.1-0.1,0.1l0,0c0,0-0.1,0-0.1,0.1l-5.7,1.6l-1.1,5.8C144.6,388.7,144.5,389,144.2,389.1z
				 M137.3,384.1c0,0,0.1-0.1,0.1-0.1c0.3-0.2,0.7-0.1,1,0l4.4,2.5l1-4.9c0.1-0.3,0.2-0.5,0.5-0.7c0.1-0.1,0.2-0.1,0.3-0.1l4.9-1.4
				l-2.8-4.2c-0.2-0.3-0.2-0.8,0-1.1l2.5-4.4l-5-1c-0.4-0.1-0.7-0.4-0.9-0.8l-1.4-4.9l-4.2,2.8c-0.4,0.2-0.8,0.2-1.1,0.1l-4.4-2.5
				l-1,5c-0.1,0.3-0.2,0.5-0.5,0.7c-0.1,0.1-0.2,0.1-0.3,0.1l-4.9,1.4l2.8,4.2c0.2,0.3,0.2,0.8,0.1,1.1l-2.5,4.4l5,1
				c0.4,0.1,0.7,0.4,0.8,0.8l1.4,4.9L137.3,384.1L137.3,384.1z"/>
			<path class="st201" d="M152.3,389c0,0-0.1,0.1-0.1,0.1c-0.2,0.1-0.4,0.1-0.6,0.1l-8-1l-4.4,6.7c-0.1,0.1-0.2,0.2-0.3,0.3
				c-0.2,0.1-0.4,0.2-0.6,0.2c-0.4,0-0.7-0.1-0.9-0.4l-5-6.3l-7.8,1.6c-0.3,0.1-0.7,0-1-0.3c-0.3-0.2-0.4-0.6-0.3-0.9l1-8l-6.7-4.4
				c-0.3-0.2-0.5-0.5-0.5-0.9c0-0.4,0.1-0.7,0.4-0.9l6.3-5l-1.6-7.8c-0.1-0.3,0-0.7,0.3-1c0.1-0.1,0.1-0.1,0.2-0.2
				c0.2-0.1,0.5-0.2,0.7-0.2l8,1l4.4-6.7c0.1-0.1,0.2-0.2,0.3-0.3c0.2-0.1,0.4-0.2,0.6-0.2c0.4,0,0.7,0.1,0.9,0.4l5,6.3l7.8-1.6
				c0.3-0.1,0.7,0,1,0.3c0.3,0.2,0.4,0.6,0.3,0.9l-1,8l6.7,4.4c0.3,0.2,0.5,0.5,0.5,0.9c0,0.4-0.1,0.7-0.4,0.9l-6.3,4.9l1.6,7.9
				c0.1,0.3,0,0.7-0.3,1C152.5,388.8,152.4,388.9,152.3,389z M142.5,386.1c0.2-0.1,0.5-0.2,0.7-0.2l7.1,0.9l-1.4-7
				c-0.1-0.4,0.1-0.8,0.4-1.1l5.6-4.4l-6-4c-0.3-0.2-0.5-0.6-0.5-1l0.9-7.1l-7,1.4c-0.4,0.1-0.8-0.1-1.1-0.4l-4.4-5.6l-4,6
				c-0.1,0.1-0.2,0.2-0.3,0.3c-0.2,0.1-0.5,0.2-0.7,0.2l-7.1-0.8l1.4,7c0.1,0.4-0.1,0.8-0.4,1.1l-5.6,4.4l6,3.9
				c0.4,0.2,0.5,0.6,0.5,1.1l-0.9,7.1l7-1.4c0.4-0.1,0.8,0.1,1.1,0.4l4.4,5.6l4-6C142.2,386.3,142.3,386.2,142.5,386.1z"/>
		</g>
	</g>
	<g>
		<g class="st132">
			<path class="st133" d="M359.1,269.3c15.7-27.5-0.3-64.9-7.9-84.5c-5.7-14.7-24.6-34.8-39.4-42.2c-14.8-7.4-20.4-15.3-40.7-17.3
				c-26.4-2.6-61.4,17.5-82.8,23.2c-23.1,6.2-62.8,25.2-84.4,48.8C78.6,225,78,247,84.8,263.1c7.2,17.2,19.3,26.6,26.8,33.4
				c7.4,6.7,15.7,12.7,24.8,17.1c17.5,8.4,32.8,8,45.8,8.9c9.9,0.7,35.6,2.8,61.4-2.6c18.3-3.8,34.9-6.6,44.3-9.5
				C307.9,304.1,346,292.3,359.1,269.3z"/>
			<path class="st134" d="M356.2,268.1c15.7-26.6,0.5-62.8-7-81.8c-5.8-14.4-23.9-33.6-38.5-40.9c-14.5-7.2-19.3-16.6-39.7-19.2
				c-26.1-3.2-61.2,17.9-82.4,23.6c-23,6.2-62.3,24.7-83.1,47.5C81,224.1,79.1,246,86.2,262.2c7.3,16.7,19.3,25.5,27,32
				c7.6,6.4,15.9,12.1,25,16.3c17.6,8.1,32.4,6.9,45.1,7.9c9.8,0.8,34.8,3.2,60.7-2.1c18.4-3.8,34.2-6.7,43.4-9.4
				C306.7,301.3,343.3,290.2,356.2,268.1z"/>
			<path class="st135" d="M353.4,266.9c15.6-25.8,1.4-60.7-6.2-79.1c-5.8-14.1-23.1-32.3-37.6-39.5c-14.2-7-18.2-18-38.8-21
				c-25.7-3.8-61.1,18.4-82.1,24c-22.8,6.2-61.7,24.3-81.8,46.2c-23.5,25.6-26.7,47.5-19.4,63.8c7.3,16.3,19.3,24.4,27.3,30.7
				c7.7,6.1,16.1,11.5,25.2,15.5c17.8,7.7,32.1,5.8,44.4,6.9c9.7,0.9,34.1,3.7,60-1.6c18.6-3.7,33.5-6.8,42.4-9.3
				C305.4,298.4,340.5,288.1,353.4,266.9z"/>
			<path class="st136" d="M350.5,265.6c15.6-25,2.2-58.6-5.3-76.4c-5.8-13.8-22.3-31.1-36.7-38.1c-13.9-6.8-17.1-19.4-37.9-22.9
				c-25.4-4.4-60.9,18.8-81.7,24.4c-22.7,6.2-61.2,23.9-80.5,44.9c-22.6,24.6-27.2,46.4-19.6,62.9c7.3,15.8,19.3,23.2,27.5,29.4
				c7.8,5.8,16.3,10.9,25.4,14.6c17.9,7.4,31.7,4.8,43.6,6c9.5,1,33.4,4.2,59.2-1c18.7-3.7,32.8-7,41.5-9.2
				C304.2,295.5,337.8,286.1,350.5,265.6z"/>
			<path class="st137" d="M347.7,264.4c15.5-24.1,3-56.5-4.5-73.7c-5.9-13.5-21.6-29.8-35.8-36.8c-13.6-6.7-16-20.7-36.9-24.8
				c-25.1-4.9-60.7,19.2-81.3,24.8c-22.5,6.2-60.6,23.4-79.2,43.6c-21.7,23.6-27.7,45.3-19.8,61.9c7.3,15.4,19.3,22.1,27.8,28
				c7.9,5.5,16.6,10.3,25.5,13.8c18,7,31.4,3.7,42.9,5c9.4,1,32.7,4.6,58.5-0.5c18.8-3.7,32.2-7.1,40.5-9
				C302.9,292.6,335.1,284,347.7,264.4z"/>
			<path class="st138" d="M344.8,263.1c15.5-23.3,3.8-54.4-3.6-71c-5.9-13.1-20.8-28.5-34.9-35.4c-13.3-6.5-14.9-22-36-26.7
				c-24.7-5.5-60.6,19.6-81,25.2c-22.4,6.2-60.1,23-77.9,42.3c-20.8,22.6-28.1,44.2-20,61c7.3,15,19.3,21,28.1,26.7
				c8,5.2,16.8,9.7,25.7,13c18.1,6.7,31,2.6,42.1,4c9.3,1.1,31.9,5.1,57.8,0c18.9-3.7,31.5-7.2,39.5-8.9
				C301.7,289.7,332.3,281.9,344.8,263.1z"/>
			<path class="st139" d="M342,261.9c15.5-22.4,4.7-52.3-2.8-68.3c-6-12.8-20.1-27.3-34-34c-12.9-6.3-13.7-23.4-35-28.6
				c-24.4-6-60.4,20-80.6,25.6c-22.2,6.2-59.5,22.6-76.6,41c-19.9,21.5-28.6,43.2-20.2,60c7.2,14.5,19.2,19.8,28.3,25.4
				c8.1,4.9,17,9.1,25.9,12.2c18.3,6.3,30.7,1.6,41.4,3c9.1,1.2,31.2,5.5,57.1,0.6c19-3.6,30.8-7.4,38.6-8.8
				C300.4,286.8,329.6,279.9,342,261.9z"/>
			<path class="st140" d="M339.2,260.7c15.5-21.6,5.5-50.2-1.9-65.6c-6-12.5-19.3-26-33.1-32.7c-12.6-6.1-12.6-24.7-34.1-30.5
				c-24.1-6.5-60.2,20.5-80.2,26c-22,6.2-59,22.1-75.3,39.7c-19.1,20.5-29.1,42.1-20.4,59c7.2,14.1,19.2,18.7,28.6,24
				c8.2,4.7,17.2,8.5,26.1,11.4c18.4,6,30.3,0.5,40.7,2c9,1.3,30.5,6,56.3,1.1c19.1-3.6,30.1-7.5,37.6-8.7
				C299.2,283.9,326.9,277.8,339.2,260.7z"/>
			<path class="st141" d="M336.3,259.4c15.4-20.8,6.3-48.1-1.1-62.9c-6.1-12.2-18.5-24.8-32.2-31.3c-12.3-5.9-11.5-26-33.2-32.4
				c-23.8-7-60.1,20.9-79.9,26.4c-21.9,6.2-58.4,21.7-74,38.4c-18.2,19.5-29.6,41-20.6,58.1c7.2,13.7,19.2,17.6,28.9,22.7
				c8.3,4.4,17.5,7.9,26.2,10.6c18.5,5.6,30-0.5,39.9,1.1c8.9,1.4,29.8,6.5,55.6,1.6c19.3-3.6,29.4-7.6,36.7-8.6
				C298,281.1,324.2,275.7,336.3,259.4z"/>
			<path class="st142" d="M333.5,258.2c15.4-19.9,7.1-46-0.2-60.2c-6.1-11.8-17.8-23.5-31.3-29.9c-12-5.7-10.4-27.3-32.2-34.2
				c-23.4-7.5-59.9,21.3-79.5,26.8c-21.7,6.2-57.9,21.3-72.7,37.1c-17.3,18.5-30.1,39.9-20.8,57.1c7.1,13.2,19.1,16.5,29.1,21.4
				c8.4,4.1,17.7,7.3,26.4,9.8c18.6,5.3,29.7-1.6,39.2,0.1c8.7,1.5,29,6.9,54.9,2.2c19.4-3.5,28.8-7.7,35.7-8.5
				C296.7,278.2,321.5,273.7,333.5,258.2z"/>
			<path class="st143" d="M330.6,257c15.4-19.1,7.9-43.9,0.6-57.5c-6.2-11.5-17-22.2-30.4-28.5c-11.7-5.5-9.3-28.6-31.3-36.1
				c-23.1-7.9-59.7,21.7-79.1,27.2c-21.6,6.2-57.3,20.8-71.4,35.8c-16.4,17.5-30.6,38.9-21,56.2c7.1,12.8,19.1,15.4,29.4,20
				c8.5,3.8,17.9,6.7,26.6,9c18.8,4.9,29.3-2.6,38.4-0.9c8.6,1.6,28.3,7.4,54.2,2.7c19.5-3.5,28.1-7.9,34.8-8.4
				C295.5,275.3,318.8,271.6,330.6,257z"/>
			<path class="st144" d="M327.8,255.7c15.4-18.2,8.7-41.8,1.5-54.8c-6.3-11.2-16.3-21-29.5-27.2c-11.4-5.3-8.2-29.9-30.3-38
				c-22.8-8.4-59.6,22.1-78.8,27.6c-21.4,6.2-56.8,20.4-70.1,34.4c-15.5,16.4-31.1,37.8-21.2,55.2c7,12.4,19.1,14.3,29.7,18.7
				c8.6,3.6,18.2,6.1,26.8,8.2c18.9,4.5,29-3.6,37.7-1.9c8.5,1.7,27.6,7.9,53.5,3.2c19.6-3.5,27.4-8,33.8-8.3
				C294.2,272.4,316.1,269.6,327.8,255.7z"/>
			<path class="st145" d="M325,254.5c15.4-17.4,9.5-39.7,2.3-52.1c-6.3-10.9-15.5-19.7-28.6-25.8c-11-5.2-7.1-31.1-29.4-39.9
				c-22.5-8.8-59.4,22.6-78.4,28c-21.2,6.2-56.2,20-68.8,33.1c-14.7,15.4-31.6,36.8-21.4,54.3c7,12,19,13.2,29.9,17.4
				c8.6,3.3,18.4,5.5,26.9,7.4c19.1,4.1,28.6-4.7,37-2.8c8.3,1.8,26.9,8.3,52.7,3.8c19.7-3.4,26.7-8.1,32.8-8.1
				C293,269.5,313.4,267.5,325,254.5z"/>
			<path class="st146" d="M322.1,253.2c15.4-16.5,10.3-37.6,3.1-49.4c-6.4-10.5-14.7-18.5-27.6-24.4c-10.7-5-6-32.4-28.4-41.8
				c-22.2-9.3-59.2,23-78,28.5c-21.1,6.2-55.7,19.5-67.5,31.8c-13.8,14.4-32.1,35.7-21.6,53.3c6.9,11.6,19,12.1,30.2,16
				c8.7,3.1,18.6,4.9,27.1,6.6c19.2,3.8,28.3-5.7,36.2-3.8c8.2,1.9,26.2,8.8,52,4.3c19.8-3.4,26-8.3,31.9-8
				C291.7,266.7,310.7,265.4,322.1,253.2z"/>
			<path class="st147" d="M319.3,252c15.4-15.7,11.1-35.5,4-46.7c-6.5-10.2-14-17.2-26.7-23.1c-10.4-4.8-4.9-33.6-27.5-43.7
				c-21.9-9.7-59.1,23.4-77.7,28.9c-20.9,6.1-55.1,19.1-66.2,30.5c-12.9,13.4-32.7,34.7-21.9,52.3c6.8,11.1,18.9,11,30.5,14.7
				c8.8,2.8,18.9,4.3,27.3,5.8c19.3,3.4,27.9-6.7,35.5-4.8c8.1,2.1,25.4,9.3,51.3,4.8c20-3.4,25.3-8.4,30.9-7.9
				C290.5,263.8,308,263.4,319.3,252z"/>
			<path class="st148" d="M316.4,250.8c15.4-14.8,11.9-33.4,4.8-44c-6.5-9.9-13.2-15.9-25.8-21.7c-10.1-4.6-3.8-34.9-26.6-45.5
				c-21.6-10.1-58.9,23.8-77.3,29.3c-20.8,6.1-54.6,18.7-64.9,29.2c-12,12.4-33.2,33.6-22.1,51.4c6.7,10.7,18.9,9.9,30.7,13.4
				c8.9,2.6,19.1,3.7,27.5,5c19.5,3,27.6-7.7,34.7-5.8c7.9,2.2,24.7,9.7,50.6,5.4c20.1-3.3,24.7-8.5,30-7.8
				C289.2,260.9,305.4,261.4,316.4,250.8z"/>
			<path class="st149" d="M313.6,249.5c15.5-13.9,12.7-31.3,5.7-41.3c-6.6-9.5-12.4-14.7-24.9-20.3c-9.8-4.4-2.7-36.1-25.6-47.4
				c-21.3-10.5-58.7,24.2-76.9,29.7c-20.6,6.1-54,18.2-63.6,27.9c-11.1,11.3-33.8,32.6-22.3,50.4c6.7,10.3,18.8,8.9,31,12
				c9,2.3,19.3,3.1,27.6,4.1c19.6,2.6,27.2-8.8,34-6.8c7.8,2.3,24,10.2,49.8,5.9c20.2-3.3,24-8.7,29-7.7
				C288,258,302.7,259.3,313.6,249.5z"/>
			<path class="st150" d="M310.7,248.3c15.5-13,13.5-29.2,6.5-38.7c-6.7-9.2-11.7-13.5-24-19c-9.5-4.3-1.6-37.3-24.7-49.3
				c-21-11-58.6,24.7-76.6,30.1c-20.5,6.1-53.5,17.8-62.2,26.6c-10.3,10.3-34.4,31.5-22.5,49.5c6.6,9.9,18.8,7.8,31.3,10.7
				c9,2.1,19.6,2.4,27.8,3.3c19.8,2.1,26.9-9.8,33.3-7.7c7.6,2.4,23.3,10.6,49.1,6.4c20.3-3.3,23.3-8.8,28.1-7.6
				C286.7,255.1,300,257.3,310.7,248.3z"/>
			<path class="st151" d="M307.9,247c15.6-12.1,14.2-27,7.4-36c-6.8-8.9-10.9-12.2-23.1-17.6c-9.1-4.1-0.6-38.5-23.7-51.2
				c-20.8-11.4-58.4,25.1-76.2,30.5c-20.3,6.1-52.9,17.4-60.9,25.3c-9.4,9.3-34.9,30.5-22.7,48.5c6.5,9.5,18.7,6.7,31.5,9.4
				c9.1,1.9,19.8,1.8,28,2.5c19.9,1.7,26.5-10.8,32.5-8.7c7.5,2.6,22.5,11.1,48.4,7c20.4-3.2,22.6-8.9,27.1-7.5
				C285.5,252.2,297.4,255.3,307.9,247z"/>
			<path class="st152" d="M305.1,245.8c15.6-11.2,15-24.9,8.2-33.3c-6.9-8.5-10.1-11-22.2-16.2c-8.8-3.9,0.5-39.7-22.8-53.1
				c-20.5-11.8-58.2,25.5-75.8,30.9c-20.1,6.1-52.4,16.9-59.6,24c-8.5,8.3-35.5,29.5-22.9,47.5c6.4,9.1,18.7,5.7,31.8,8
				c9.2,1.6,20.1,1.2,28.2,1.7c20,1.3,26.2-11.8,31.8-9.7c7.3,2.7,21.8,11.6,47.7,7.5c20.6-3.2,21.9-9.1,26.2-7.4
				C284.2,249.4,294.7,253.3,305.1,245.8z"/>
			<path class="st153" d="M302.2,244.6c15.7-10.3,15.8-22.8,9.1-30.6c-7-8.1-9.4-9.7-21.3-14.9c-8.5-3.7,1.6-40.9-21.8-55
				c-20.2-12.1-58.1,25.9-75.5,31.3c-20,6.1-51.8,16.5-58.3,22.7c-7.6,7.3-36.1,28.5-23.1,46.6c6.3,8.7,18.6,4.6,32,6.7
				c9.3,1.4,20.3,0.6,28.3,0.9c20.2,0.9,25.8-12.8,31-10.7c7.2,2.9,21.1,12,47,8c20.7-3.2,21.3-9.2,25.2-7.2
				C283,246.5,292.1,251.3,302.2,244.6z"/>
			<path class="st108" d="M299.4,243.3c15.7-9.4,16.5-20.6,9.9-27.9c-7.1-7.8-8.6-8.4-20.4-13.5c-8.2-3.5,2.6-42.1-20.9-56.9
				c-20-12.5-57.9,26.4-75.1,31.7c-19.8,6.1-51.3,16.1-57,21.4c-6.7,6.2-36.7,27.5-23.3,45.6c6.2,8.3,18.6,3.6,32.3,5.3
				c9.4,1.2,20.5-0.1,28.5,0.1c20.3,0.4,25.4-13.8,30.3-11.6c7,3.1,20.4,12.5,46.2,8.6c20.8-3.1,20.6-9.3,24.2-7.1
				C281.7,243.6,289.4,249.3,299.4,243.3z"/>
		</g>
		<path class="st111" d="M300.2,201.6c1.6-5.6,2.4-11.5,2.4-17.7c0-36.4-29.5-66-66-66c-30.9,0-56.8,21.2-64,49.8
			c-0.7,0-1.3-0.1-2-0.1c-14.4,0-27.1,7.4-34.4,18.7c-3.8-1.6-7.9-2.4-12.2-2.4c-17.7,0-32,14.3-32,32c0,17.7,14.3,32,32,32
			c7.8,0,14.9-2.8,20.4-7.4c7.1,5.9,16.3,9.4,26.2,9.4c11.1,0,21.2-4.4,28.6-11.6c10.6,7.3,23.5,11.6,37.4,11.6
			c12.7,0,24.5-3.6,34.6-9.8c4.6,5.7,11.6,9.4,19.5,9.4c13.8,0,24.9-11.2,24.9-24.9C315.5,214.2,309.2,205.3,300.2,201.6z"/>
		<path class="st202" d="M301.1,202.6c1.6-5.6,2.4-11.5,2.4-17.7c0-36.5-29.6-66-66-66c-30.9,0-56.8,21.2-64,49.8
			c-0.7,0-1.3-0.1-2-0.1c-14.4,0-27.1,7.4-34.4,18.7c-3.8-1.6-7.9-2.4-12.2-2.4c-17.7,0-32,14.3-32,32c0,17.7,14.3,32,32,32
			c7.8,0,14.9-2.8,20.4-7.4c7.1,5.9,16.3,9.4,26.2,9.4c11.1,0,21.2-4.4,28.6-11.6c10.6,7.3,23.5,11.6,37.4,11.6
			c12.7,0,24.5-3.6,34.6-9.8c4.6,5.7,11.6,9.4,19.5,9.4c13.8,0,24.9-11.2,24.9-24.9C316.5,215.2,310.1,206.3,301.1,202.6z"/>
	</g>
	<g>
		<g class="st132">
			<path class="st133" d="M434.7,260.8c14.7-12.5,12.1-51.1,4.6-61.4c-9.9-13.6-20.4-21.8-29.4-26.3c-9-4.5-34.5-8.4-46-8.4
				c-16.2,0-32,3.9-45.1,7.4c-14.1,3.8-41.8,13.9-55,28.3c-15.4,16.9-1.8,50.4,2.1,55.3c7.3,9.2,16.2,18.3,27.4,23.7
				c10.7,5.1,20,4.9,27.9,5.4c6.1,0.4,33,3.4,48.7,0.1c11.2-2.3,30.1-5.8,35.5-8.4C410.5,274,423,270.7,434.7,260.8z"/>
			<path class="st134" d="M433.8,260.5c14.7-12.1,12.3-49.6,4.7-60.3c-9.8-13.8-20.3-21.6-29.4-26.1c-8.9-4.4-33.3-8.4-44.8-8.6
				c-15.9-0.2-31.9,3.6-45,7.2c-14.2,3.8-41.9,14.1-54.6,28.1c-14.9,16.3-2.3,49.1,2,54.5c7.2,9,15.5,18.1,26.9,23.4
				c10.7,5,19.9,4.5,27.7,5.1c6,0.5,32.1,4,48.1,0.7c11.4-2.3,29.7-6.2,35-8.9C409.5,273.1,422,270.2,433.8,260.5z"/>
			<path class="st135" d="M432.9,260.1c14.6-11.8,12.4-48.2,4.9-59.2c-9.7-14.1-20.3-21.4-29.4-25.8c-8.8-4.4-32-8.4-43.6-8.7
				c-15.6-0.3-31.8,3.3-44.9,6.9c-14.3,3.9-42,14.4-54.3,27.8c-14.4,15.7-2.7,47.9,1.9,53.7c7,8.7,14.9,17.9,26.4,23.1
				c10.7,4.8,19.9,4.1,27.5,4.8c6,0.6,31.3,4.6,47.5,1.3c11.7-2.3,29.3-6.7,34.5-9.3C408.5,272.2,421,269.7,432.9,260.1z"/>
			<path class="st136" d="M432,259.8c14.6-11.5,12.6-46.8,5.1-58c-9.6-14.3-20.3-21.1-29.4-25.6c-8.7-4.3-30.8-8.4-42.4-8.8
				c-15.3-0.5-31.6,3-44.8,6.7c-14.4,3.9-42.1,14.6-54,27.6c-14,15.2-3.2,46.6,1.8,52.8c6.8,8.4,14.2,17.6,25.9,22.8
				c10.7,4.7,19.9,3.7,27.2,4.5c6,0.6,30.5,5.2,46.9,1.9c12-2.3,29-7.1,34-9.7C407.5,271.3,420,269.2,432,259.8z"/>
			<path class="st137" d="M431,259.5c14.5-11.1,12.8-45.4,5.3-56.9c-9.5-14.6-20.3-20.9-29.4-25.3c-8.6-4.2-29.6-8.4-41.2-8.9
				c-15-0.7-31.5,2.8-44.7,6.4c-14.4,4-42.2,14.8-53.7,27.3c-13.5,14.6-3.7,45.4,1.7,52c6.6,8.2,13.5,17.4,25.4,22.4
				c10.7,4.5,19.8,3.3,27,4.2c6,0.7,29.6,5.7,46.3,2.5c12.2-2.4,28.6-7.6,33.5-10.1C406.6,270.4,419,268.7,431,259.5z"/>
			<path class="st138" d="M430.1,259.2c14.5-10.8,13-44,5.5-55.8c-9.4-14.8-20.2-20.6-29.4-25.1c-8.5-4.1-28.4-8.4-40-9
				c-14.7-0.8-31.4,2.5-44.6,6.2c-14.5,4.1-42.3,15-53.4,27c-13,14-4.1,44.1,1.6,51.2c6.5,7.9,12.8,17.2,25,22.1
				c10.7,4.4,19.8,2.9,26.8,3.9c6,0.8,28.8,6.3,45.7,3.1c12.5-2.4,28.2-8.1,33-10.5C405.6,269.5,418,268.2,430.1,259.2z"/>
			<path class="st139" d="M429.2,258.8c14.4-10.5,13.2-42.5,5.7-54.7c-9.3-15.1-20.2-20.4-29.4-24.8c-8.3-4-27.2-8.4-38.8-9.2
				c-14.4-1-31.3,2.2-44.5,5.9c-14.6,4.1-42.4,15.2-53.1,26.8c-12.5,13.5-4.6,42.9,1.5,50.4c6.3,7.7,12.1,16.9,24.5,21.8
				c10.7,4.2,19.7,2.6,26.5,3.6c6,0.9,27.9,6.9,45.1,3.7c12.7-2.4,27.9-8.5,32.6-10.9C404.6,268.6,417,267.7,429.2,258.8z"/>
			<path class="st140" d="M428.3,258.5c14.4-10.2,13.4-41.1,5.9-53.6c-9.3-15.3-20.2-20.2-29.3-24.6c-8.2-3.9-26-8.3-37.6-9.3
				c-14.1-1.1-31.1,1.9-44.4,5.6c-14.7,4.2-42.4,15.5-52.8,26.5c-12.1,12.9-5.1,41.6,1.4,49.5c6.1,7.4,11.4,16.7,24,21.5
				c10.7,4.1,19.7,2.2,26.3,3.3c5.9,1,27.1,7.5,44.5,4.3c13-2.4,27.5-9,32.1-11.3C403.6,267.8,416,267.2,428.3,258.5z"/>
			<path class="st141" d="M427.3,258.2c14.3-9.9,13.6-39.7,6.1-52.4c-9.2-15.6-20.1-19.9-29.3-24.3c-8.1-3.9-24.8-8.3-36.3-9.4
				c-13.8-1.3-31,1.6-44.3,5.4c-14.8,4.2-42.5,15.7-52.4,26.2c-11.6,12.3-5.5,40.4,1.3,48.7c5.9,7.2,10.7,16.5,23.5,21.2
				c10.7,4,19.7,1.8,26.1,3c5.9,1.1,26.3,8.1,43.9,4.8c13.3-2.4,27.1-9.4,31.6-11.7C402.6,266.9,415,266.7,427.3,258.2z"/>
			<path class="st142" d="M426.4,257.8c14.2-9.5,13.7-38.3,6.2-51.3c-9.1-15.8-20.1-19.7-29.3-24.1c-8-3.8-23.5-8.3-35.1-9.5
				c-13.5-1.4-30.9,1.3-44.3,5.1c-14.9,4.3-42.6,15.9-52.1,26c-11.1,11.8-6,39.1,1.2,47.9c5.7,7,10,16.3,23,20.9
				c10.7,3.8,19.6,1.5,25.8,2.7c5.9,1.1,25.4,8.7,43.3,5.4c13.5-2.4,26.7-9.9,31.1-12.2C401.6,266,414,266.2,426.4,257.8z"/>
			<path class="st143" d="M425.5,257.5c14.2-9.2,13.9-36.8,6.4-50.2c-9-16.1-20.1-19.5-29.3-23.8c-7.9-3.7-22.3-8.3-33.9-9.6
				c-13.2-1.6-30.7,1-44.2,4.9c-15,4.3-42.7,16.1-51.8,25.7c-10.6,11.2-6.5,37.9,1.1,47.1c5.5,6.7,9.3,16,22.5,20.6
				c10.7,3.7,19.6,1.1,25.6,2.4c5.9,1.2,24.6,9.2,42.7,6c13.8-2.4,26.3-10.3,30.6-12.6C400.6,265.1,413,265.6,425.5,257.5z"/>
			<path class="st144" d="M424.6,257.2c14.1-8.9,14.1-35.4,6.6-49.1c-8.9-16.3-20.1-19.2-29.3-23.5c-7.8-3.6-21.1-8.2-32.7-9.8
				c-12.9-1.7-30.6,0.7-44.1,4.6c-15.1,4.4-42.8,16.3-51.5,25.5c-10.2,10.7-7,36.6,1,46.2c5.4,6.5,8.6,15.8,22,20.3
				c10.7,3.6,19.6,0.7,25.4,2c5.9,1.3,23.7,9.8,42.1,6.6c14.1-2.4,26-10.8,30.1-13C399.6,264.2,412,265.1,424.6,257.2z"/>
			<path class="st145" d="M423.7,256.9c14.1-8.6,14.3-34,6.8-48c-8.9-16.6-20-19-29.3-23.3c-7.6-3.5-19.9-8.2-31.5-9.9
				c-12.7-1.8-30.5,0.4-44,4.4c-15.1,4.4-42.9,16.6-51.2,25.2c-9.7,10.1-7.4,35.4,0.9,45.4c5.2,6.2,7.9,15.6,21.5,19.9
				c10.7,3.4,19.5,0.4,25.1,1.7c5.9,1.4,22.9,10.4,41.5,7.2c14.3-2.4,25.6-11.3,29.6-13.4C398.6,263.3,411,264.6,423.7,256.9z"/>
			<path class="st146" d="M422.7,256.5c14-8.3,14.5-32.5,7-46.9c-8.8-16.8-20-18.8-29.3-23c-7.5-3.5-18.7-8.1-30.3-10
				c-12.4-2-30.3,0.2-43.9,4.1c-15.2,4.5-43,16.8-50.9,24.9c-9.2,9.5-7.9,34.1,0.8,44.6c5,6,7.2,15.4,21,19.6
				c10.7,3.3,19.5,0,24.9,1.4c5.9,1.5,22.1,11,40.9,7.8c14.6-2.4,25.2-11.7,29.1-13.8C397.6,262.4,410,264.1,422.7,256.5z"/>
			<path class="st147" d="M421.8,256.2c13.9-8,14.6-31.1,7.2-45.7c-8.7-17.1-20-18.5-29.3-22.8c-7.4-3.4-17.5-8.1-29.1-10.1
				c-12.1-2.1-30.2-0.1-43.8,3.9c-15.3,4.5-43.1,17-50.6,24.7c-8.7,9-8.4,32.9,0.7,43.8c4.8,5.7,6.6,15.2,20.5,19.3
				c10.7,3.2,19.4-0.3,24.7,1.1c5.8,1.6,21.2,11.6,40.3,8.4c14.8-2.5,24.8-12.2,28.6-14.2C396.7,261.5,409,263.6,421.8,256.2z"/>
			<path class="st148" d="M420.9,255.9c13.9-7.7,14.8-29.7,7.4-44.6c-8.6-17.3-19.9-18.3-29.3-22.5c-7.3-3.3-16.2-8-27.9-10.2
				c-11.8-2.2-30.1-0.4-43.7,3.6c-15.4,4.6-43.2,17.2-50.2,24.4c-8.3,8.4-8.9,31.6,0.6,42.9c4.6,5.5,5.9,15,20.1,19
				c10.7,3,19.4-0.7,24.4,0.8c5.8,1.7,20.4,12.2,39.7,9c15.1-2.5,24.5-12.6,28.1-14.6C395.7,260.6,408,263,420.9,255.9z"/>
			<path class="st149" d="M420,255.6c13.8-7.4,15-28.3,7.5-43.5c-8.6-17.6-19.9-18.1-29.3-22.3c-7.2-3.2-15-8-26.7-10.3
				c-11.5-2.3-30-0.7-43.6,3.4c-15.5,4.7-43.3,17.4-49.9,24.1c-7.8,7.8-9.3,30.4,0.5,42.1c4.4,5.3,5.2,14.8,19.6,18.7
				c10.7,2.9,19.4-1,24.2,0.5c5.8,1.8,19.5,12.7,39.1,9.6c15.4-2.5,24.1-13.1,27.6-15.1C394.7,259.7,407,262.5,420,255.6z"/>
			<path class="st150" d="M419,255.2c13.7-7.1,15.1-26.8,7.7-42.4c-8.5-17.8-19.9-17.9-29.2-22c-7.1-3.1-13.8-7.9-25.4-10.5
				c-11.2-2.4-29.8-1-43.5,3.1c-15.6,4.7-43.4,17.7-49.6,23.9c-7.3,7.3-9.8,29.2,0.4,41.3c4.2,5,4.5,14.6,19.1,18.4
				c10.7,2.8,19.3-1.4,23.9,0.2c5.8,2,18.7,13.3,38.5,10.2c15.6-2.5,23.7-13.6,27.2-15.5C393.7,258.8,406,262,419,255.2z"/>
			<path class="st151" d="M418.1,254.9c13.6-6.8,15.3-25.4,7.9-41.3c-8.4-18-19.8-17.6-29.2-21.8c-6.9-3.1-12.6-7.9-24.2-10.6
				c-10.9-2.5-29.7-1.3-43.4,2.9c-15.7,4.8-43.5,17.9-49.3,23.6c-6.8,6.7-10.3,27.9,0.3,40.5c4,4.8,3.8,14.4,18.6,18.1
				c10.7,2.7,19.3-1.7,23.7-0.1c5.7,2.1,17.9,13.9,37.9,10.7c15.9-2.5,23.3-14,26.7-15.9C392.7,257.9,405,261.5,418.1,254.9z"/>
			<path class="st152" d="M417.2,254.6c13.6-6.5,15.5-23.9,8.1-40.2c-8.4-18.3-19.8-17.4-29.2-21.5c-6.8-3-11.4-7.8-23-10.7
				c-10.6-2.7-29.6-1.6-43.3,2.6c-15.7,4.8-43.5,18.1-49,23.3c-6.4,6.1-10.8,26.7,0.2,39.7c3.8,4.5,3.1,14.2,18.1,17.8
				c10.7,2.6,19.2-2,23.5-0.4c5.7,2.2,17,14.5,37.3,11.3C376,274,382.8,262,386,260.2C391.7,257.1,404,260.9,417.2,254.6z"/>
			<path class="st153" d="M416.3,254.3c13.5-6.2,15.6-22.5,8.3-39c-8.3-18.5-19.8-17.2-29.2-21.3c-6.7-2.9-10.2-7.7-21.8-10.8
				c-10.3-2.8-29.4-1.9-43.2,2.4c-15.8,4.9-43.6,18.3-48.7,23.1c-5.9,5.6-11.3,25.5,0.1,38.8c3.6,4.3,2.4,14,17.6,17.5
				c10.7,2.5,19.2-2.4,23.2-0.7c5.7,2.3,16.2,15.1,36.7,11.9c16.4-2.5,22.6-15,25.7-16.7C390.7,256.2,403,260.4,416.3,254.3z"/>
			<path class="st108" d="M415.3,253.9c13.4-5.9,15.8-21.1,8.5-37.9c-8.2-18.8-19.7-16.9-29.2-21c-6.6-2.8-9-7.6-20.6-10.9
				c-10.1-2.8-29.3-2.2-43.1,2.1c-15.9,4.9-43.7,18.5-48.3,22.8c-5.4,5-11.7,24.2,0,38c3.5,4,1.7,13.8,17.1,17.1
				c10.7,2.3,19.1-2.7,23-1c5.6,2.5,15.4,15.7,36.1,12.5c16.7-2.5,22.2-15.4,25.2-17.1C389.7,255.3,402,259.8,415.3,253.9z"/>
		</g>
		<path class="st111" d="M397.4,190.8c-0.7,0-1.4,0-2.2,0.1c-3.9-11-14.3-18.9-26.7-18.9c-3.7,0-7.2,0.7-10.4,2
			c-3.8-10.5-13.9-18.1-25.8-18.1c-11.5,0-21.4,7.1-25.4,17.2c-1.4-0.2-2.7-0.4-4.2-0.4c-12.5,0-22.7,9.4-24,21.6
			c-1.7-0.4-3.5-0.5-5.4-0.5c-15,0-27.2,12.2-27.2,27.2c0,15,12.2,27.2,27.2,27.2c0.2,0,0.5,0,0.7,0c2.6,11,12.5,19.1,24.3,19.1
			c9.1,0,17.1-4.9,21.5-12.2c6,10.2,17,17.1,29.7,17.1c14,0,26.1-8.4,31.4-20.4c4.8,2.8,10.3,4.3,16.3,4.3c18,0,32.6-14.6,32.6-32.6
			S415.4,190.8,397.4,190.8z"/>
		<path class="st203" d="M398.5,191.9c-0.7,0-1.4,0-2.2,0.1c-3.9-11-14.3-18.9-26.6-18.9c-3.7,0-7.2,0.7-10.4,2
			c-3.8-10.6-13.9-18.1-25.8-18.1c-11.6,0-21.4,7.1-25.5,17.3c-1.4-0.2-2.7-0.4-4.1-0.4c-12.5,0-22.7,9.4-24,21.6
			c-1.7-0.3-3.5-0.5-5.4-0.5c-15,0-27.2,12.2-27.2,27.2c0,15,12.2,27.2,27.2,27.2c0.2,0,0.5,0,0.7,0c2.7,11,12.5,19.2,24.3,19.2
			c9.1,0,17.1-4.9,21.5-12.2c6,10.2,17,17.1,29.7,17.1c14,0,26.1-8.4,31.4-20.4c4.8,2.8,10.3,4.3,16.2,4.3c18,0,32.6-14.6,32.6-32.6
			S416.6,191.9,398.5,191.9z"/>
	</g>
	<g>
		<g class="st132">
			<path class="st133" d="M411.3,204.4c18.8-19.5,17.5-59.4,7.1-73.6c-13.6-18.7-30.2-25.6-42.6-31.8c-12.5-6.2-30.6-12-46.4-14.4
				c-19.5-2.9-41,5.5-59,10.3c-19.5,5.2-79.5,25.5-97.6,45.3c-10,11-12.5,25.3-11,38.4c1.7,14.7,8.2,27.9,11,31.5
				c10.1,12.7,47.1,25.4,62.5,32.8c14.8,7.1,27.5,6.7,38.6,7.5c8.4,0.6,31.7,0,53.4-4.6c15.4-3.2,30.7-15.2,38.2-18.9
				C372.5,223.5,397.1,219.1,411.3,204.4z"/>
			<path class="st134" d="M408.5,202.9c18.5-18.8,17.6-57.6,7.4-71.8c-13.3-18.5-29.5-25-41.8-31.1c-12.2-6.1-29.5-11.8-45.2-14.3
				c-19-3-40,5-57.9,9.9c-19.3,5.2-79.7,25.4-97.3,44.4c-10,10.8-12.5,24.9-10.8,37.9c1.9,14.4,8.9,27,12,30.6
				c10.3,11.8,45.5,24.8,60.9,32c14.6,6.8,27.1,5.7,37.8,6.5c8.2,0.7,30.7,1,52.8-3.6c15.5-3.3,30.1-15.5,37.3-19
				C370.6,221,394.3,217.3,408.5,202.9z"/>
			<path class="st135" d="M405.7,201.5c18.4-18.1,17.6-55.8,7.6-69.9c-13-18.2-28.9-24.4-41.1-30.4c-11.9-5.9-28.3-11.5-44-14.1
				c-18.6-3.1-39,4.6-56.8,9.5c-19.1,5.3-79.9,25.4-97,43.5c-10,10.5-12.5,24.6-10.5,37.3c2.1,14.2,9.6,26.1,12.9,29.7
				c10.4,10.9,43.8,24.2,59.3,31.3c14.4,6.6,26.7,4.6,37,5.5c8.1,0.7,29.7,2.1,52.2-2.7c15.5-3.3,29.5-15.7,36.5-19.2
				C368.7,218.5,391.6,215.5,405.7,201.5z"/>
			<path class="st136" d="M402.9,200.1c18.1-17.5,17.7-54,7.8-68c-12.7-17.9-28.2-23.8-40.3-29.7c-11.7-5.8-27.2-11.3-42.9-14
				c-18.1-3.1-38,4.2-55.7,9.1c-19,5.3-80,25.4-96.7,42.5c-10,10.3-12.5,24.3-10.3,36.8c2.4,13.9,10.2,25.2,13.9,28.8
				c10.4,10.1,42.2,23.6,57.6,30.5c14.2,6.3,26.2,3.6,36.2,4.6c8,0.8,28.8,3.2,51.7-1.8c15.6-3.4,28.9-16,35.7-19.4
				C366.8,216.1,388.8,213.7,402.9,200.1z"/>
			<path class="st137" d="M400.1,198.7c17.9-16.8,17.7-52.2,8-66.1c-12.4-17.7-27.6-23.2-39.5-29c-11.4-5.6-26-11.1-41.7-13.9
				c-17.6-3.2-37,3.7-54.6,8.7c-18.8,5.3-80.2,25.3-96.4,41.6c-10,10-12.4,24-10.1,36.3c2.6,13.6,10.9,24.3,14.8,27.9
				c10.3,9.3,40.5,23,56,29.7c14.1,6.1,25.8,2.5,35.4,3.6c7.9,0.9,27.8,4.3,51.1-0.9c15.7-3.4,28.3-16.3,34.9-19.6
				C364.9,213.6,386.1,211.9,400.1,198.7z"/>
			<path class="st138" d="M397.3,197.2c17.7-16.2,17.8-50.3,8.3-64.2c-12.1-17.4-27-22.6-38.8-28.3C355.7,99.3,342,94,326.3,91
				c-17.2-3.2-36,3.3-53.4,8.3c-18.7,5.4-80.4,25.3-96.1,40.6c-10,9.8-12.4,23.7-9.8,35.7c2.8,13.4,11.5,23.4,15.8,26.9
				c10.2,8.6,38.9,22.4,54.3,29c13.9,5.9,25.4,1.5,34.7,2.6c7.8,0.9,26.8,5.4,50.5,0.1c15.7-3.5,27.7-16.6,34.1-19.8
				C363,211.1,383.3,210,397.3,197.2z"/>
			<path class="st139" d="M394.5,195.8c17.5-15.5,17.8-48.6,8.5-62.3c-11.7-17.2-26.3-21.9-38-27.6c-10.8-5.3-23.7-10.6-39.3-13.6
				c-16.7-3.3-35,2.9-52.3,7.9c-18.5,5.4-80.7,25.2-95.8,39.7c-10,9.6-12.4,23.4-9.6,35.2c3.1,13.1,12.2,22.5,16.8,26
				c10,7.9,37.2,21.9,52.7,28.2c13.7,5.6,24.9,0.5,33.9,1.7c7.6,1,25.8,6.4,49.9,1c15.8-3.5,27.1-16.9,33.3-20
				C361.1,208.6,380.5,208.2,394.5,195.8z"/>
			<path class="st140" d="M391.7,194.4c17.3-14.8,17.9-46.7,8.7-60.4c-11.4-17-25.7-21.3-37.2-26.9c-10.6-5.1-22.5-10.3-38.2-13.5
				c-16.3-3.3-34,2.4-51.2,7.5c-18.3,5.4-80.9,25.1-95.5,38.8c-10,9.3-12.3,23.1-9.3,34.6c3.3,12.9,12.8,21.5,17.7,25.1
				c9.8,7.2,35.5,21.3,51,27.5c13.5,5.4,24.5-0.6,33.1,0.7c7.5,1.1,24.8,7.5,49.3,1.9c15.9-3.6,26.5-17.1,32.4-20.2
				C359.2,206.1,377.7,206.4,391.7,194.4z"/>
			<path class="st141" d="M388.9,193c17-14.2,18-44.9,8.9-58.5c-11.1-16.7-25.1-20.7-36.5-26.2c-10.3-4.9-21.4-10.1-37-13.4
				c-15.8-3.4-33,2-50.1,7.1c-18.2,5.4-81.1,25-95.1,37.8c-10,9.1-12.3,22.7-9.1,34.1c3.5,12.6,13.4,20.6,18.7,24.2
				c9.6,6.6,33.9,20.7,49.4,26.7c13.4,5.2,24-1.6,32.3-0.3c7.4,1.2,23.9,8.6,48.7,2.8c15.9-3.7,25.9-17.4,31.6-20.4
				C357.3,203.7,375,204.6,388.9,193z"/>
			<path class="st142" d="M386.1,191.6c16.8-13.5,18-43.1,9.1-56.6c-10.8-16.4-24.4-20.1-35.7-25.5c-10-4.8-20.2-9.8-35.8-13.3
				c-15.3-3.4-32,1.5-49,6.7c-18,5.5-81.4,25-94.8,36.9c-10,8.8-12.3,22.4-8.8,33.6c3.8,12.3,13.5,20.8,19.6,23.3
				c8.1,7.5,32.2,20.1,47.8,26c13.2,4.9,23.6-2.6,31.6-1.2c7.3,1.3,22.9,9.7,48.1,3.7c16-3.7,25.2-17.7,30.8-20.6
				C355.4,201.2,372.2,202.7,386.1,191.6z"/>
			<path class="st143" d="M383.3,190.1c16.6-12.9,18.1-41.3,9.4-54.7c-10.5-16.2-23.8-19.5-34.9-24.7c-9.8-4.6-19.1-9.6-34.7-13.2
				c-14.9-3.4-31,1.1-47.9,6.3c-17.9,5.5-81.6,24.9-94.5,35.9c-10,8.6-12.3,22.1-8.6,33c4,12.1,14.1,20,20.6,22.4
				c7.9,6.9,30.6,19.5,46.1,25.2c13,4.7,23.2-3.6,30.8-2.2c7.2,1.3,21.9,10.7,47.5,4.7c16.1-3.8,24.6-18,30-20.8
				C353.5,198.7,369.4,200.9,383.3,190.1z"/>
			<path class="st144" d="M380.5,188.7c16.3-12.2,18.1-39.5,9.6-52.8c-10.2-15.9-23.1-18.9-34.1-24c-9.5-4.5-17.9-9.3-33.5-13
				c-14.4-3.5-30,0.7-46.8,5.9c-17.7,5.5-81.9,24.8-94.2,35c-10,8.3-12.2,21.8-8.4,32.5c4.2,11.8,14.6,19.2,21.5,21.5
				c7.7,6.4,28.9,19,44.5,24.4c12.8,4.5,22.7-4.6,30-3.2c7.1,1.4,20.9,11.8,46.9,5.6c16.1-3.8,24-18.3,29.2-21
				C351.6,196.2,366.6,199.1,380.5,188.7z"/>
			<path class="st145" d="M377.7,187.3c16.1-11.6,18.2-37.7,9.8-50.9c-9.9-15.7-22.5-18.2-33.4-23.3c-9.2-4.3-16.8-9-32.3-12.9
				c-14-3.5-29,0.2-45.6,5.5c-17.5,5.6-82.2,24.6-93.9,34c-10,8.1-12.2,21.5-8.1,31.9c4.5,11.5,15.2,18.4,22.5,20.6
				c7.5,5.8,27.2,18.4,42.8,23.7c12.6,4.3,22.3-5.7,29.2-4.1c6.9,1.5,19.9,12.9,46.3,6.5c16.2-3.9,23.4-18.6,28.3-21.2
				C349.7,193.7,363.9,197.3,377.7,187.3z"/>
			<path class="st146" d="M374.9,185.9c15.8-11,18.2-35.9,10-49c-9.6-15.4-21.9-17.6-32.6-22.6c-8.9-4.1-15.6-8.8-31.1-12.8
				c-13.5-3.5-28-0.2-44.5,5.2c-17.4,5.6-82.5,24.5-93.6,33.1c-10.1,7.8-12.2,21.2-7.9,31.4c4.7,11.3,15.8,17.6,23.4,19.6
				c7.2,5.2,25.6,17.8,41.2,22.9c12.5,4.1,21.8-6.7,28.5-5.1c6.8,1.6,19,14,45.7,7.4c16.2-3.9,22.8-18.9,27.5-21.4
				C347.8,191.3,361.1,195.4,374.9,185.9z"/>
			<path class="st147" d="M372.1,184.4c15.6-10.3,18.3-34.1,10.3-47.1c-9.3-15.2-21.2-17-31.8-21.9c-8.7-4-14.5-8.5-30-12.7
				c-13.1-3.5-27-0.6-43.4,4.8c-17.2,5.6-82.8,24.4-93.3,32.2c-10.1,7.5-12.1,20.9-7.6,30.9c4.9,11,16.8,15.4,24.4,18.7
				c7.7,3.4,23.9,17.3,39.6,22.2c12.3,3.8,21.4-7.7,27.7-6.1c6.7,1.7,18,15.1,45.1,8.4c16.3-4,22.2-19.1,26.7-21.6
				C345.9,188.8,358.3,193.6,372.1,184.4z"/>
			<path class="st148" d="M369.3,183c15.3-9.7,18.3-32.3,10.5-45.2c-9-14.9-20.6-16.4-31.1-21.2c-8.4-3.8-13.4-8.2-28.8-12.6
				c-12.6-3.5-26-1.1-42.3,4.4c-17,5.7-83.1,24.2-92.9,31.2c-10.2,7.2-12.1,20.6-7.4,30.3c5.2,10.7,17.4,14.7,25.3,17.8
				c7.3,2.9,22.2,16.7,37.9,21.4c12.1,3.6,21-8.7,26.9-7c6.6,1.8,17,16.1,44.5,9.3c16.4-4,21.6-19.4,25.9-21.7
				C344,186.3,355.5,191.7,369.3,183z"/>
			<path class="st149" d="M366.5,181.6c15.1-9.1,18.4-30.4,10.7-43.3c-8.7-14.6-19.9-15.8-30.3-20.5c-8.1-3.7-12.2-7.9-27.6-12.4
				c-12.2-3.6-25-1.5-41.2,4c-16.9,5.7-83.4,24-92.6,30.3c-10.2,6.9-12.1,20.2-7.1,29.8c5.4,10.5,17.9,13.9,26.3,16.9
				c7,2.5,20.6,16.2,36.3,20.7c11.9,3.4,20.5-9.7,26.1-8c6.5,1.9,16,17.2,43.9,10.2c16.4-4.1,21-19.7,25.1-21.9
				C342.1,183.8,352.7,189.9,366.5,181.6z"/>
			<path class="st150" d="M363.7,180.2c14.8-8.5,18.4-28.6,10.9-41.4c-8.4-14.4-19.3-15.2-29.5-19.8c-7.8-3.5-11.1-7.6-26.5-12.3
				c-11.7-3.6-23.9-2-40.1,3.6c-16.7,5.7-83.8,23.9-92.3,29.3c-10.3,6.6-12,19.9-6.9,29.2c5.6,10.2,18.4,13.2,27.2,16
				c6.6,2.1,18.9,15.6,34.6,19.9c11.7,3.2,20.1-10.7,25.4-9c6.3,2,15,18.3,43.3,11.1c16.5-4.1,20.4-20,24.3-22.1
				C340.2,181.3,349.9,188,363.7,180.2z"/>
			<path class="st151" d="M360.8,178.7c14.6-7.9,18.4-26.8,11.2-39.5c-8.1-14.1-18.7-14.6-28.8-19.1c-7.6-3.4-9.9-7.3-25.3-12.2
				c-11.3-3.6-22.9-2.4-39,3.2c-16.6,5.8-84.1,23.6-92,28.4c-10.4,6.3-12,19.6-6.7,28.7c5.9,10,18.9,12.6,28.2,15.1
				c6.3,1.7,17.2,15,33,19.1c11.5,3,19.6-11.7,24.6-10c6.2,2.1,14.1,19.4,42.8,12.1c16.6-4.2,19.7-20.3,23.4-22.3
				C338.3,178.8,347.1,186.2,360.8,178.7z"/>
			<path class="st152" d="M358,177.3c14.3-7.3,18.5-25,11.4-37.6c-7.8-13.9-18-14-28-18.4c-7.3-3.2-8.8-7-24.1-12.1
				c-10.8-3.6-21.9-2.8-37.9,2.8c-16.4,5.8-84.5,23.4-91.7,27.4c-10.5,5.9-12,19.3-6.4,28.1c6.1,9.7,19.5,12.1,29.1,14.2
				c6,1.3,15.6,14.5,31.3,18.4c11.4,2.8,19.2-12.6,23.8-10.9c6.1,2.3,13.1,20.4,42.2,13c16.6-4.3,19.1-20.6,22.6-22.5
				C336.4,176.4,344.3,184.3,358,177.3z"/>
			<path class="st153" d="M355.2,175.9c14-6.7,18.5-23.2,11.6-35.7c-7.5-13.6-17.4-13.4-27.2-17.6c-7-3-7.7-6.7-22.9-11.9
				c-10.4-3.6-20.9-3.3-36.7,2.4c-16.2,5.8-84.8,23.2-91.4,26.5c-10.7,5.4-12,19-6.2,27.6c6.3,9.4,20,11.6,30.1,13.3
				c5.7,1,13.9,14,29.7,17.6c11.2,2.6,18.7-13.6,23-11.9c5.9,2.4,12.1,21.5,41.6,13.9c16.7-4.3,18.5-20.9,21.8-22.7
				C334.5,173.9,341.5,182.4,355.2,175.9z"/>
			<path class="st108" d="M352.4,174.5c13.8-6.1,18.6-21.4,11.8-33.9c-7.2-13.3-16.7-12.8-26.4-16.9c-6.7-2.9-6.5-6.4-21.8-11.8
				c-10-3.5-19.9-3.7-35.6,2c-16.1,5.8-85.2,22.9-91.1,25.6c-10.8,4.9-11.9,18.7-5.9,27.1c6.6,9.2,20.5,11.2,31,12.3
				c5.4,0.6,12.2,13.4,28.1,16.9c11,2.4,18.3-14.6,22.3-12.9c5.8,2.5,11.1,22.6,41,14.8c16.8-4.4,17.9-21.2,21-22.9
				C332.6,171.4,338.7,180.5,352.4,174.5z"/>
		</g>
		<path class="st111" d="M370.7,124.8c-1.5,0-2.9,0.1-4.4,0.3c-5.5-16.2-20.8-27.8-38.8-27.8c-8.3,0-16.1,2.5-22.5,6.7
			c-4.4-12.1-16.1-20.8-29.7-20.8c-15.4,0-28.3,11-31.1,25.6c-4.4-3.2-9.8-5.2-15.6-5.2c-13.4,0-24.4,10-26,23c-0.1,0-0.1,0-0.2,0
			c-20.8,0-37.7,16.9-37.7,37.7c0,20.8,16.9,37.7,37.7,37.7c6.6,0,12.9-1.7,18.3-4.7c2,13.1,13.2,23.1,26.8,23.1
			c10.8,0,20.1-6.2,24.4-15.3c8.3,12.2,22.3,20.2,38.2,20.2c20.5,0,37.9-13.4,43.9-31.8c5,2.6,10.6,4,16.6,4
			c20.1,0,36.3-16.3,36.3-36.3C407,141.1,390.8,124.8,370.7,124.8z"/>
		<path class="st204" d="M371.8,125.8c-1.5,0-3,0.1-4.4,0.3c-5.5-16.2-20.8-27.8-38.8-27.8c-8.3,0-16.1,2.5-22.5,6.8
			c-4.4-12.1-16.1-20.8-29.7-20.8c-15.4,0-28.2,11-31.1,25.6c-4.4-3.2-9.8-5.2-15.6-5.2c-13.4,0-24.4,10-26,23c-0.1,0-0.1,0-0.2,0
			c-20.8,0-37.7,16.9-37.7,37.7c0,20.8,16.9,37.7,37.7,37.7c6.6,0,12.9-1.7,18.3-4.7c2,13.1,13.2,23.1,26.8,23.1
			c10.8,0,20.1-6.2,24.4-15.3c8.3,12.2,22.3,20.2,38.2,20.2c20.5,0,37.9-13.4,43.9-31.8c5,2.6,10.6,4,16.6,4
			c20.1,0,36.3-16.3,36.3-36.3S391.9,125.8,371.8,125.8z"/>
	</g>
	<g>
		<g class="st132">
			<path class="st133" d="M286.1,265.6c9.8-14.5,5-41.4-1.8-50.8c-9-12.3-20.7-17.8-28.9-21.9c-8.2-4.1-26.1-11.4-36.6-11.4
				c-14.7,0-22.2,5.4-34,8.6c-12.8,3.4-34.6,23.4-46.6,36.5c-14,15.3-10.4,38.4-6.9,42.9c6.7,8.4,14.8,16.7,24.9,21.5
				c9.7,4.7,18.2,4.4,25.4,4.9c5.5,0.4,11.9,3.1,26.2,0.1c10.2-2.1,15-2.9,20.2-4.6C239.2,288.1,274.2,283.2,286.1,265.6z"/>
			<path class="st134" d="M284.1,265c9.8-14,5.6-40-1.1-49.5c-8.8-12.4-20.6-17.5-28.8-21.6c-8-4-25.5-11.5-35.8-11.6
				c-14.3-0.1-22.1,5.1-33.8,8.3c-12.7,3.4-34,23.2-45.6,35.9c-13.5,14.8-10.8,37.3-7,42c6.5,8.1,14.3,16.3,24.5,20.9
				c9.8,4.5,18,3.9,25.1,4.5c5.4,0.4,11.9,3.1,26.2,0.2c10.2-2.1,15.1-3,20.2-4.5C238.6,286.3,272.3,281.9,284.1,265z"/>
			<path class="st135" d="M282,264.3c9.7-13.6,6.2-38.6-0.4-48.2c-8.7-12.4-20.6-17.2-28.6-21.2c-7.9-3.9-24.8-11.6-35.1-11.7
				c-13.9-0.2-22,4.8-33.6,7.9c-12.7,3.4-33.5,23-44.6,35.2c-13,14.2-11.2,36.1-7.2,41.1c6.3,7.8,13.9,15.9,24.1,20.3
				c9.9,4.2,17.9,3.4,24.7,4c5.4,0.5,11.8,3.1,26.1,0.2c10.3-2.1,15.3-3.1,20.2-4.5C238,284.6,270.4,280.6,282,264.3z"/>
			<path class="st136" d="M280,263.7c9.7-13.1,6.8-37.2,0.2-46.9c-8.5-12.4-20.5-16.9-28.5-20.8c-7.7-3.8-24.2-11.7-34.3-11.9
				c-13.6-0.4-21.9,4.4-33.4,7.6c-12.6,3.4-32.9,22.8-43.7,34.5c-12.5,13.6-11.5,35-7.3,40.2c6.1,7.5,13.4,15.5,23.7,19.7
				c9.9,4,17.8,2.9,24.4,3.6c5.3,0.5,11.8,3.1,26.1,0.3c10.3-2.1,15.4-3.2,20.2-4.4C237.5,282.8,268.5,279.3,280,263.7z"/>
			<path class="st137" d="M278,263.1c9.6-12.6,7.4-35.9,0.9-45.6c-8.3-12.5-20.4-16.6-28.3-20.5c-7.5-3.7-23.5-11.7-33.6-12.1
				c-13.2-0.5-21.8,4.1-33.2,7.2c-12.5,3.4-32.4,22.6-42.7,33.8c-12,13.1-11.9,33.9-7.4,39.4c5.9,7.3,13,15.1,23.3,19.1
				c10,3.8,17.6,2.5,24,3.2c5.2,0.6,11.7,3.1,26,0.3c10.4-2,15.6-3.3,20.2-4.4C236.9,281,266.5,278,278,263.1z"/>
			<path class="st138" d="M276,262.4c9.6-12.1,8-34.5,1.6-44.4c-8.1-12.5-20.4-16.4-28.2-20.1c-7.3-3.6-22.9-11.8-32.8-12.3
				c-12.8-0.6-21.7,3.8-33,6.9c-12.4,3.4-31.8,22.4-41.7,33.1c-11.5,12.5-12.2,32.8-7.6,38.5c5.7,7,12.6,14.7,22.9,18.4
				c10.1,3.6,17.5,2,23.6,2.7c5.1,0.6,11.7,3.1,26,0.3c10.5-2,15.7-3.4,20.2-4.3C236.4,279.3,264.6,276.7,276,262.4z"/>
			<path class="st139" d="M273.9,261.8c9.5-11.6,8.6-33.1,2.2-43.1c-8-12.5-20.3-16-28-19.8c-7.2-3.5-22.3-11.9-32-12.4
				c-12.5-0.7-21.6,3.4-32.8,6.6c-12.3,3.4-31.3,22.2-40.8,32.4c-11,11.9-12.6,31.7-7.7,37.6c5.5,6.7,12.1,14.3,22.5,17.8
				c10.1,3.4,17.4,1.5,23.3,2.3c5.1,0.7,11.6,3.2,25.9,0.4c10.5-2,15.9-3.5,20.2-4.3C235.8,277.5,262.7,275.4,273.9,261.8z"/>
			<path class="st140" d="M271.9,261.1c9.5-11.1,9.2-31.7,2.9-41.8c-7.8-12.6-20.2-15.7-27.9-19.4c-7-3.4-21.6-12-31.3-12.6
				c-12.1-0.8-21.5,3.1-32.6,6.2c-12.2,3.4-30.7,22-39.8,31.7c-10.6,11.4-12.9,30.5-7.9,36.7c5.3,6.5,11.7,13.9,22.1,17.2
				c10.2,3.2,17.2,1,22.9,1.8c5,0.7,11.6,3.2,25.9,0.4c10.6-2,16-3.6,20.2-4.2C235.2,275.8,260.8,274.1,271.9,261.1z"/>
			<path class="st141" d="M269.9,260.5c9.5-10.7,9.8-30.3,3.6-40.5c-7.7-12.6-20.2-15.5-27.7-19.1c-6.8-3.3-21-12-30.5-12.8
				c-11.7-0.9-21.4,2.8-32.4,5.9c-12.1,3.4-30.2,21.8-38.8,31c-10.1,10.8-13.3,29.4-8,35.9c5.1,6.2,11.2,13.5,21.7,16.6
				c10.3,3,17.1,0.5,22.6,1.4c4.9,0.8,11.5,3.2,25.8,0.5c10.7-2,16.2-3.7,20.2-4.2C234.7,274,258.9,272.8,269.9,260.5z"/>
			<path class="st142" d="M267.8,259.9c9.5-10.2,10.4-28.9,4.2-39.2c-7.5-12.6-20.1-15.2-27.6-18.7c-6.6-3.2-20.3-12.1-29.8-12.9
				c-11.4-1-21.3,2.5-32.2,5.5c-12,3.4-29.6,21.6-37.9,30.3c-9.6,10.2-13.7,28.3-8.2,35c4.9,5.9,10.8,13.1,21.3,16
				c10.4,2.8,17,0.1,22.2,1c4.8,0.8,11.5,3.2,25.8,0.5c10.7-1.9,16.3-3.7,20.2-4.2C234.1,272.3,257,271.5,267.8,259.9z"/>
			<path class="st143" d="M265.8,259.2c9.4-9.7,11-27.5,4.9-37.9c-7.3-12.7-20-14.9-27.4-18.4c-6.5-3.1-19.7-12.2-29-13.1
				c-11-1.1-21.2,2.1-32,5.2c-12,3.4-29.1,21.4-36.9,29.6c-9.1,9.7-14,27.2-8.3,34.1c4.7,5.7,10.4,12.7,20.9,15.4
				c10.4,2.6,16.8-0.4,21.9,0.5c4.8,0.9,11.4,3.2,25.7,0.6c10.8-1.9,16.4-3.8,20.1-4.1C233.5,270.5,255.1,270.3,265.8,259.2z"/>
			<path class="st144" d="M263.8,258.6c9.4-9.2,11.5-26.1,5.6-36.7c-7.2-12.7-19.9-14.6-27.3-18c-6.3-3-19-12.2-28.2-13.3
				c-10.6-1.2-21.1,1.8-31.8,4.9c-11.9,3.4-28.5,21.2-35.9,28.9c-8.6,9.1-14.4,26.1-8.5,33.2c4.5,5.4,9.9,12.3,20.5,14.7
				c10.5,2.4,16.7-0.9,21.5,0.1c4.7,1,11.3,3.2,25.7,0.6c10.9-1.9,16.6-3.9,20.1-4.1C233,268.7,253.2,269,263.8,258.6z"/>
			<path class="st145" d="M261.8,257.9c9.4-8.7,12.1-24.7,6.3-35.4c-7-12.7-19.9-14.3-27.1-17.7c-6.1-2.9-18.4-12.3-27.5-13.5
				c-10.2-1.3-21.1,1.5-31.6,4.5c-11.8,3.4-28,20.9-35,28.2c-8.1,8.6-14.7,25-8.6,32.4c4.3,5.1,9.5,11.9,20.1,14.1
				c10.6,2.2,16.6-1.4,21.2-0.3c4.6,1,11.3,3.2,25.6,0.7c10.9-1.9,16.7-4,20.1-4C232.4,266.9,251.3,267.7,261.8,257.9z"/>
			<path class="st146" d="M259.7,257.3c9.4-8.2,12.7-23.3,6.9-34.1c-6.9-12.7-19.8-14-27-17.3c-5.9-2.8-17.7-12.4-26.7-13.6
				c-9.9-1.4-21,1.1-31.4,4.2c-11.7,3.4-27.5,20.7-34,27.6c-7.6,8-15.1,23.8-8.8,31.5c4.1,4.9,9,11.6,19.7,13.5
				c10.7,2,16.4-1.8,20.8-0.8c4.5,1.1,11.2,3.2,25.6,0.7c11-1.9,16.9-4.1,20.1-4C231.9,265.2,249.4,266.4,259.7,257.3z"/>
			<path class="st147" d="M257.7,256.7c9.3-7.7,13.3-22,7.6-32.8c-6.7-12.8-19.7-13.7-26.8-17c-5.8-2.7-17.1-12.4-26-13.8
				c-9.5-1.5-20.9,0.8-31.2,3.8c-11.6,3.4-26.9,20.5-33,26.9c-7.1,7.4-15.5,22.7-8.9,30.6c3.8,4.6,8.6,11.2,19.3,12.9
				c10.7,1.7,16.3-2.3,20.5-1.2c4.5,1.1,11.2,3.2,25.5,0.8c11.1-1.9,17-4.2,20.1-3.9C231.3,263.4,247.5,265.1,257.7,256.7z"/>
			<path class="st148" d="M255.7,256c9.3-7.2,13.9-20.6,8.3-31.5c-6.6-12.8-19.6-13.4-26.7-16.6c-5.6-2.6-16.5-12.5-25.2-14
				c-9.1-1.6-20.8,0.5-31,3.5c-11.5,3.4-26.4,20.3-32.1,26.2c-6.7,6.9-15.8,21.6-9.1,29.7c3.6,4.4,8.2,10.8,18.9,12.3
				c10.8,1.5,16.2-2.8,20.1-1.7c4.4,1.2,11.1,3.2,25.5,0.8c11.1-1.8,17.2-4.3,20.1-3.9C230.7,261.7,245.6,263.8,255.7,256z"/>
			<path class="st149" d="M253.7,255.4c9.3-6.7,14.5-19.2,8.9-30.2c-6.4-12.8-19.6-13.1-26.5-16.3c-5.4-2.4-15.8-12.5-24.4-14.1
				c-8.8-1.6-20.7,0.2-30.8,3.2c-11.4,3.4-25.8,20.1-31.1,25.5c-6.2,6.3-16.2,20.5-9.2,28.9c3.4,4.1,7.7,10.4,18.5,11.7
				c10.9,1.3,16-3.2,19.8-2.1c4.3,1.3,11.1,3.2,25.4,0.8c11.2-1.8,17.3-4.4,20.1-3.8C230.2,259.9,243.7,262.6,253.7,255.4z"/>
			<path class="st150" d="M251.6,254.7c9.3-6.2,15-17.8,9.6-28.9c-6.3-12.9-19.5-12.8-26.3-15.9c-5.2-2.3-15.2-12.6-23.7-14.3
				c-8.4-1.7-20.6-0.2-30.6,2.8c-11.3,3.4-25.3,19.9-30.1,24.8c-5.7,5.7-16.6,19.4-9.4,28c3.2,3.8,7.3,10,18.1,11
				c11,1.1,15.9-3.7,19.4-2.5c4.2,1.4,11,3.2,25.4,0.9c11.3-1.8,17.4-4.5,20.1-3.8C229.6,258.2,241.8,261.3,251.6,254.7z"/>
			<path class="st151" d="M249.6,254.1c9.3-5.7,15.6-16.4,10.3-27.7c-6.1-12.9-19.4-12.6-26.2-15.5c-5.1-2.3-14.5-12.6-22.9-14.5
				c-8-1.8-20.5-0.5-30.4,2.5c-11.3,3.4-24.7,19.7-29.1,24.1c-5.2,5.2-16.9,18.3-9.5,27.1c3,3.6,6.9,9.6,17.7,10.4
				c11,0.9,15.8-4.1,19.1-3c4.2,1.4,11,3.2,25.3,0.9c11.3-1.8,17.6-4.6,20.1-3.8C229,256.4,239.9,260,249.6,254.1z"/>
			<path class="st152" d="M247.6,253.5c9.3-5.2,16.2-15,10.9-26.4c-6-12.9-19.4-12.3-26-15.2c-4.9-2.2-13.9-12.7-22.2-14.7
				c-7.7-1.8-20.4-0.8-30.2,2.1c-11.2,3.4-24.2,19.5-28.2,23.4c-4.7,4.6-17.3,17.2-9.7,26.2c2.8,3.3,6.4,9.1,17.3,9.8
				c11.1,0.7,15.6-4.6,18.7-3.4c4.1,1.5,10.9,3.2,25.3,1c11.4-1.8,17.7-4.7,20.1-3.7C228.5,254.6,238.1,258.8,247.6,253.5z"/>
			<path class="st153" d="M245.6,252.8c9.3-4.6,16.8-13.6,11.6-25.1c-5.8-12.9-19.3-12-25.9-14.8c-4.7-2-13.3-12.7-21.4-14.8
				c-7.3-1.9-20.3-1.2-30,1.8c-11.1,3.4-23.6,19.3-27.2,22.7c-4.2,4-17.7,16.1-9.8,25.4c2.6,3.1,6,8.7,16.9,9.2
				c11.2,0.4,15.5-5,18.4-3.9c4,1.6,10.9,3.2,25.2,1c11.5-1.7,17.9-4.8,20.1-3.7C227.9,252.9,236.2,257.5,245.6,252.8z"/>
			<path class="st108" d="M243.5,252.2c9.3-4.1,17.4-12.2,12.3-23.8c-5.7-13-19.2-11.7-25.7-14.5c-4.5-1.9-12.6-12.7-20.6-15
				c-7-2-20.2-1.5-29.8,1.5c-11,3.4-23.1,19.1-26.2,22c-3.7,3.5-18.1,15-10,24.5c2.4,2.8,5.5,8.3,16.5,8.6c11.3,0.2,15.3-5.5,18-4.3
				c3.9,1.7,10.8,3.3,25.2,1.1c11.5-1.7,18-4.9,20.1-3.6C227.4,251.1,234.3,256.3,243.5,252.2z"/>
		</g>
		<path class="st111" d="M253,214.3c-3.1-0.2-6.2,0.3-9,1.2c-3.7-18.7-19.7-33.3-39.7-34.3c-19.3-1-36.3,11-42.5,28.4c0,0,0,0,0,0
			c-16.4-0.9-30.3,11.7-31.2,28.1c-0.8,16.4,11.7,30.3,28.1,31.2c8.4,0.4,16.2-2.7,21.9-8.1c5.7,3.3,12.2,5.3,19.2,5.7
			c12.5,0.7,24.1-4.2,32.3-12.4c4.3,5.5,10.7,9.1,18.2,9.5c13.6,0.7,25.2-9.7,25.9-23.4C277.1,226.6,266.6,215,253,214.3z"/>
		<path class="st205" d="M254.1,215.4c-3.1-0.2-6.2,0.3-9,1.2c-3.7-18.7-19.7-33.3-39.7-34.3c-19.3-1-36.3,11-42.5,28.4h0
			c-16.4-0.8-30.3,11.7-31.2,28.1c-0.8,16.4,11.7,30.3,28.1,31.2c8.4,0.4,16.2-2.7,21.9-8.1c5.7,3.3,12.2,5.4,19.2,5.7
			c12.5,0.7,24.1-4.2,32.3-12.4c4.2,5.5,10.7,9.1,18.2,9.5c13.6,0.7,25.2-9.7,25.9-23.4C278.2,227.7,267.7,216.1,254.1,215.4z"/>
	</g>
	<g>
		<g>
			<g class="st1">
				<path class="st23" d="M369.6,355.4c2.3,0,8.4,10.7,7.9,17.1c-0.4,4.5-3.3,8.1-7.9,8.1c-6.4,0-7.6-5.7-7.6-8.1
					C362,368.6,367.2,355.4,369.6,355.4z"/>
			</g>
			<path class="st163" d="M377.6,369.7c0,7.1-5.8,12.9-12.9,12.9c-7.1,0-13.4-5.8-13.4-12.9c0-12.1,13.5-28.2,13.5-28.2l1-0.5
				c0,0,0,0.6,0.2,0.9C368.6,345.7,377.6,360.5,377.6,369.7z"/>
			<path class="st164" d="M378.7,370.1c0,7.1-5.8,12.9-12.9,12.9s-12.9-5.8-12.9-12.9c0-10.7,12.9-29.1,12.9-29.1
				S378.7,359.4,378.7,370.1z"/>
		</g>
		<g>
			<g class="st1">
				<path class="st23" d="M414.5,312.8c1.7,0,6.3,8,5.9,12.8c-0.3,3.3-2.5,6.1-5.9,6.1c-4.8,0-5.7-4.3-5.7-6
					C408.8,322.7,412.7,312.8,414.5,312.8z"/>
			</g>
			<path class="st163" d="M420.5,323.5c0,5.3-4.3,9.6-9.6,9.6c-5.3,0-10-4.3-10-9.6c0-9,10.1-21.1,10.1-21.1l0.7-0.4
				c0,0,0,0.4,0.2,0.7C413.7,305.6,420.5,316.6,420.5,323.5z"/>
			<path class="st164" d="M421.3,323.7c0,5.3-4.3,9.6-9.6,9.6c-5.3,0-9.6-4.3-9.6-9.6c0-8,9.6-21.7,9.6-21.7
				S421.3,315.8,421.3,323.7z"/>
		</g>
		<g>
			<g class="st1">
				<path class="st23" d="M319.3,334.1c1.7,0,6.3,8,5.9,12.8c-0.3,3.4-2.5,6.1-5.9,6.1c-4.8,0-5.7-4.3-5.7-6
					C313.7,344,317.5,334.1,319.3,334.1z"/>
			</g>
			<path class="st163" d="M325.3,344.8c0,5.3-4.3,9.6-9.6,9.6c-5.3,0-10-4.3-10-9.6c0-9,10.1-21.1,10.1-21.1l0.7-0.4
				c0,0,0,0.4,0.2,0.7C318.6,326.9,325.3,337.9,325.3,344.8z"/>
			<path class="st164" d="M326.2,345.1c0,5.3-4.3,9.6-9.6,9.6c-5.3,0-9.6-4.3-9.6-9.6c0-8,9.6-21.7,9.6-21.7
				S326.2,337.1,326.2,345.1z"/>
		</g>
		<g>
			<g class="st1">
				<path class="st23" d="M273.8,361.6c2.8,0,10.1,12.8,9.5,20.5c-0.4,5.4-4,9.8-9.4,9.8c-7.6,0-9.1-6.9-9.1-9.6
					C264.8,377.4,271,361.6,273.8,361.6z"/>
			</g>
			<path class="st163" d="M283.5,378.7c0,8.5-6.9,15.4-15.4,15.4c-8.5,0-16-6.9-16-15.4c0-14.4,16.1-33.7,16.1-33.7l1.2-0.6
				c0,0,0,0.7,0.3,1.1C272.6,350,283.5,367.7,283.5,378.7z"/>
			<path class="st164" d="M284.8,379.1c0,8.5-6.9,15.4-15.4,15.4c-8.5,0-15.4-6.9-15.4-15.4c0-12.7,15.4-34.8,15.4-34.8
				S284.8,366.4,284.8,379.1z"/>
		</g>
	</g>
</g>
</svg>
