<?xml version="1.0" encoding="utf-8"?>
<!-- Generator: Adobe Illustrator 25.0.0, SVG Export Plug-In . SVG Version: 6.00 Build 0)  -->
<svg version="1.1" id="_x3C_Layer_x3E_" xmlns="http://www.w3.org/2000/svg" xmlns:xlink="http://www.w3.org/1999/xlink" x="0px"
	 y="0px" viewBox="0 0 500 500" style="enable-background:new 0 0 500 500;" xml:space="preserve">
<style type="text/css">
	.st0{opacity:0.1;}
	.st1{opacity:0.5;}
	.st2{opacity:0;fill:#FFFFFF;}
	.st3{opacity:4.761905e-02;fill:#F9FBFB;}
	.st4{opacity:9.523810e-02;fill:#F3F6F7;}
	.st5{opacity:0.1429;fill:#EEF2F4;}
	.st6{opacity:0.1905;fill:#E8EDF0;}
	.st7{opacity:0.2381;fill:#E2E9EC;}
	.st8{opacity:0.2857;fill:#DCE4E8;}
	.st9{opacity:0.3333;fill:#D7E0E5;}
	.st10{opacity:0.381;fill:#D1DCE1;}
	.st11{opacity:0.4286;fill:#CBD7DD;}
	.st12{opacity:0.4762;fill:#C5D3D9;}
	.st13{opacity:0.5238;fill:#C0CED6;}
	.st14{opacity:0.5714;fill:#BACAD2;}
	.st15{opacity:0.619;fill:#B4C5CE;}
	.st16{opacity:0.6667;fill:#AEC1CA;}
	.st17{opacity:0.7143;fill:#A9BDC7;}
	.st18{opacity:0.7619;fill:#A3B8C3;}
	.st19{opacity:0.8095;fill:#9DB4BF;}
	.st20{opacity:0.8571;fill:#97AFBB;}
	.st21{opacity:0.9048;fill:#92ABB8;}
	.st22{opacity:0.9524;fill:#8CA6B4;}
	.st23{fill:#86A2B0;}
	.st24{fill:#FFE3AB;}
	.st25{fill:url(#SVGID_1_);}
	.st26{fill:url(#SVGID_2_);}
	.st27{fill:url(#SVGID_3_);}
	.st28{fill:url(#SVGID_4_);}
	.st29{fill:url(#SVGID_5_);}
	.st30{fill:url(#SVGID_6_);}
	.st31{fill:url(#SVGID_7_);}
	.st32{fill:url(#SVGID_8_);}
	.st33{fill:url(#SVGID_9_);}
	.st34{fill:url(#SVGID_10_);}
	.st35{fill:url(#SVGID_11_);}
	.st36{fill:url(#SVGID_12_);}
	.st37{fill:url(#SVGID_13_);}
	.st38{fill:url(#SVGID_14_);}
	.st39{fill:url(#SVGID_15_);}
	.st40{fill:url(#SVGID_16_);}
	.st41{opacity:2.380952e-02;fill:#F9FBFB;}
	.st42{opacity:4.761905e-02;fill:#F3F6F7;}
	.st43{opacity:7.142857e-02;fill:#EEF2F4;}
	.st44{opacity:9.523810e-02;fill:#E8EDF0;}
	.st45{opacity:0.119;fill:#E2E9EC;}
	.st46{opacity:0.1429;fill:#DCE4E8;}
	.st47{opacity:0.1667;fill:#D7E0E5;}
	.st48{opacity:0.1905;fill:#D1DCE1;}
	.st49{opacity:0.2143;fill:#CBD7DD;}
	.st50{opacity:0.2381;fill:#C5D3D9;}
	.st51{opacity:0.2619;fill:#C0CED6;}
	.st52{opacity:0.2857;fill:#BACAD2;}
	.st53{opacity:0.3095;fill:#B4C5CE;}
	.st54{opacity:0.3333;fill:#AEC1CA;}
	.st55{opacity:0.3571;fill:#A9BDC7;}
	.st56{opacity:0.381;fill:#A3B8C3;}
	.st57{opacity:0.4048;fill:#9DB4BF;}
	.st58{opacity:0.4286;fill:#97AFBB;}
	.st59{opacity:0.4524;fill:#92ABB8;}
	.st60{opacity:0.4762;fill:#8CA6B4;}
	.st61{opacity:0.5;fill:#86A2B0;}
	.st62{fill:url(#SVGID_17_);}
	.st63{opacity:0.15;}
	.st64{fill:url(#SVGID_18_);}
	.st65{opacity:2.857143e-02;fill:#F9FBFB;}
	.st66{opacity:5.714286e-02;fill:#F3F6F7;}
	.st67{opacity:8.571429e-02;fill:#EEF2F4;}
	.st68{opacity:0.1143;fill:#E8EDF0;}
	.st69{opacity:0.1429;fill:#E2E9EC;}
	.st70{opacity:0.1714;fill:#DCE4E8;}
	.st71{opacity:0.2;fill:#D7E0E5;}
	.st72{opacity:0.2286;fill:#D1DCE1;}
	.st73{opacity:0.2571;fill:#CBD7DD;}
	.st74{opacity:0.2857;fill:#C5D3D9;}
	.st75{opacity:0.3143;fill:#C0CED6;}
	.st76{opacity:0.3429;fill:#BACAD2;}
	.st77{opacity:0.3714;fill:#B4C5CE;}
	.st78{opacity:0.4;fill:#AEC1CA;}
	.st79{opacity:0.4286;fill:#A9BDC7;}
	.st80{opacity:0.4571;fill:#A3B8C3;}
	.st81{opacity:0.4857;fill:#9DB4BF;}
	.st82{opacity:0.5143;fill:#97AFBB;}
	.st83{opacity:0.5429;fill:#92ABB8;}
	.st84{opacity:0.5714;fill:#8CA6B4;}
	.st85{opacity:0.6;fill:#86A2B0;}
	.st86{fill:url(#SVGID_19_);}
	.st87{fill:url(#SVGID_20_);}
	.st88{fill:url(#SVGID_21_);}
	.st89{opacity:0.2;}
	.st90{opacity:9.523810e-02;fill:#F4F6F8;}
	.st91{opacity:0.1905;fill:#E9EDF1;}
	.st92{opacity:0.2381;fill:#E3E9ED;}
	.st93{opacity:0.2857;fill:#DEE5EA;}
	.st94{opacity:0.3333;fill:#D8E0E6;}
	.st95{opacity:0.381;fill:#D3DCE3;}
	.st96{opacity:0.4286;fill:#CDD8DF;}
	.st97{opacity:0.4762;fill:#C8D3DC;}
	.st98{opacity:0.5238;fill:#C2CFD8;}
	.st99{opacity:0.5714;fill:#BDCAD5;}
	.st100{opacity:0.619;fill:#B7C6D1;}
	.st101{opacity:0.6667;fill:#B2C2CE;}
	.st102{opacity:0.7143;fill:#ACBDCA;}
	.st103{opacity:0.7619;fill:#A7B9C7;}
	.st104{opacity:0.8095;fill:#A1B5C3;}
	.st105{opacity:0.8571;fill:#9CB0C0;}
	.st106{opacity:0.9048;fill:#96ACBC;}
	.st107{opacity:0.9524;fill:#91A7B9;}
	.st108{fill:#8BA3B5;}
	.st109{fill:#EEF7FA;}
	.st110{fill:#E4F1F5;}
	.st111{fill:#FFFFFF;}
	.st112{fill:#E9F2F5;}
	.st113{opacity:0.3;}
	.st114{fill:url(#SVGID_22_);}
	.st115{fill:url(#SVGID_23_);}
	.st116{fill:url(#SVGID_24_);}
	.st117{fill:url(#SVGID_25_);}
	.st118{fill:url(#SVGID_26_);}
	.st119{fill:url(#SVGID_27_);}
	.st120{fill:url(#SVGID_28_);}
	.st121{fill:url(#SVGID_29_);}
	.st122{fill:url(#SVGID_30_);}
	.st123{fill:url(#SVGID_31_);}
	.st124{fill:url(#SVGID_32_);}
	.st125{fill:url(#SVGID_33_);}
	.st126{fill:url(#SVGID_34_);}
	.st127{fill:url(#SVGID_35_);}
	.st128{fill:url(#SVGID_36_);}
	.st129{fill:url(#SVGID_37_);}
	.st130{fill:url(#SVGID_38_);}
	.st131{fill:url(#SVGID_39_);}
	.st132{opacity:5.000000e-02;}
	.st133{opacity:0;fill:#515151;}
	.st134{opacity:4.761905e-02;fill:#545556;}
	.st135{opacity:9.523810e-02;fill:#57595B;}
	.st136{opacity:0.1429;fill:#595D5F;}
	.st137{opacity:0.1905;fill:#5C6164;}
	.st138{opacity:0.2381;fill:#5F6569;}
	.st139{opacity:0.2857;fill:#62686E;}
	.st140{opacity:0.3333;fill:#646C72;}
	.st141{opacity:0.381;fill:#677077;}
	.st142{opacity:0.4286;fill:#6A747C;}
	.st143{opacity:0.4762;fill:#6D7881;}
	.st144{opacity:0.5238;fill:#6F7C85;}
	.st145{opacity:0.5714;fill:#72808A;}
	.st146{opacity:0.619;fill:#75848F;}
	.st147{opacity:0.6667;fill:#788894;}
	.st148{opacity:0.7143;fill:#7A8C98;}
	.st149{opacity:0.7619;fill:#7D8F9D;}
	.st150{opacity:0.8095;fill:#8093A2;}
	.st151{opacity:0.8571;fill:#8397A7;}
	.st152{opacity:0.9048;fill:#859BAB;}
	.st153{opacity:0.9524;fill:#889FB0;}
	.st154{fill:#008DD4;}
	.st155{fill:url(#SVGID_40_);}
	.st156{fill:#4FC5FF;}
	.st157{fill:url(#SVGID_41_);}
	.st158{fill:url(#SVGID_42_);}
	.st159{fill:#63CCFF;}
	.st160{fill:#007FC9;}
	.st161{fill:#6ED8FF;}
	.st162{fill:#008CDE;}
	.st163{fill:#B3EDFF;}
	.st164{fill:#61D7FF;}
	.st165{fill:url(#SVGID_43_);}
	.st166{fill:url(#SVGID_44_);}
	.st167{opacity:2.580645e-02;fill:#505051;}
	.st168{opacity:5.161290e-02;fill:#4E4F51;}
	.st169{opacity:7.741936e-02;fill:#4D4F50;}
	.st170{opacity:0.1032;fill:#4C4E50;}
	.st171{opacity:0.129;fill:#4B4D50;}
	.st172{opacity:0.1548;fill:#494C50;}
	.st173{opacity:0.1806;fill:#484B4F;}
	.st174{opacity:0.2065;fill:#474B4F;}
	.st175{opacity:0.2323;fill:#464A4F;}
	.st176{opacity:0.2581;fill:#44494F;}
	.st177{opacity:0.2839;fill:#43484F;}
	.st178{opacity:0.3097;fill:#42474E;}
	.st179{opacity:0.3355;fill:#41474E;}
	.st180{opacity:0.3613;fill:#3F464E;}
	.st181{opacity:0.3871;fill:#3E454E;}
	.st182{opacity:0.4129;fill:#3D444D;}
	.st183{opacity:0.4387;fill:#3C434D;}
	.st184{opacity:0.4645;fill:#3A424D;}
	.st185{opacity:0.4903;fill:#39424D;}
	.st186{opacity:0.5161;fill:#38414C;}
	.st187{opacity:0.5419;fill:#37404C;}
	.st188{opacity:0.5677;fill:#353F4C;}
	.st189{opacity:0.5935;fill:#343E4C;}
	.st190{opacity:0.6194;fill:#333E4C;}
	.st191{opacity:0.6452;fill:#323D4B;}
	.st192{opacity:0.671;fill:#303C4B;}
	.st193{opacity:0.6968;fill:#2F3B4B;}
	.st194{opacity:0.7226;fill:#2E3A4B;}
	.st195{opacity:0.7484;fill:#2D3A4A;}
	.st196{opacity:0.7742;fill:#2B394A;}
	.st197{opacity:0.8;fill:#2A384A;}
	.st198{fill:url(#SVGID_45_);}
	.st199{fill:url(#SVGID_46_);}
	.st200{fill:#91D5EB;}
	.st201{fill:#E1F0FA;}
	.st202{fill:#9DDEF2;}
	.st203{fill:#A2DEF2;}
	.st204{fill:#BEE9F7;}
	.st205{fill:#C8EEFA;}
	.st206{fill:url(#SVGID_47_);}
	.st207{opacity:0.3;fill:url(#SVGID_48_);}
	.st208{opacity:2.580645e-02;fill:#FBFCFC;}
	.st209{opacity:5.161290e-02;fill:#F7F9FA;}
	.st210{opacity:7.741936e-02;fill:#F3F6F7;}
	.st211{opacity:0.1032;fill:#EFF3F5;}
	.st212{opacity:0.129;fill:#EBF0F2;}
	.st213{opacity:0.1548;fill:#E8EDF0;}
	.st214{opacity:0.1806;fill:#E4EAED;}
	.st215{opacity:0.2065;fill:#E0E7EB;}
	.st216{opacity:0.2323;fill:#DCE4E8;}
	.st217{opacity:0.2581;fill:#D8E1E6;}
	.st218{opacity:0.2839;fill:#D4DEE3;}
	.st219{opacity:0.3097;fill:#D0DBE0;}
	.st220{opacity:0.3355;fill:#CCD8DE;}
	.st221{opacity:0.3613;fill:#C8D5DB;}
	.st222{opacity:0.3871;fill:#C4D2D9;}
	.st223{opacity:0.4129;fill:#C1CFD6;}
	.st224{opacity:0.4387;fill:#BDCCD4;}
	.st225{opacity:0.4645;fill:#B9C9D1;}
	.st226{opacity:0.4903;fill:#B5C6CF;}
	.st227{opacity:0.5161;fill:#B1C3CC;}
	.st228{opacity:0.5419;fill:#ADC0C9;}
	.st229{opacity:0.5677;fill:#A9BDC7;}
	.st230{opacity:0.5935;fill:#A5BAC4;}
	.st231{opacity:0.6194;fill:#A1B7C2;}
	.st232{opacity:0.6452;fill:#9DB4BF;}
	.st233{opacity:0.671;fill:#9AB1BD;}
	.st234{opacity:0.6968;fill:#96AEBA;}
	.st235{opacity:0.7226;fill:#92ABB8;}
	.st236{opacity:0.7484;fill:#8EA8B5;}
	.st237{opacity:0.7742;fill:#8AA5B3;}
	.st238{opacity:0.8;fill:#86A2B0;}
	.st239{fill:url(#SVGID_49_);}
	.st240{clip-path:url(#SVGID_51_);}
	.st241{fill:#0A4D80;}
	.st242{fill:url(#SVGID_52_);}
	.st243{clip-path:url(#SVGID_54_);}
</style>
<g>
	<g>
		<g class="st89">
			<path class="st2" d="M397.9,371.9c22.6-19.2,18.6-78.5,7-94.4c-15.2-20.9-31.3-33.6-45.2-40.5c-13.9-6.9-53-13-70.8-13
				c-24.9,0-49.3,6-69.4,11.4c-21.7,5.8-64.3,21.4-84.5,43.6c-23.7,25.9-2.8,77.5,3.2,85.1c11.3,14.1,25,28.2,42.1,36.4
				c16.4,7.9,30.7,7.5,43,8.4c9.3,0.6,50.7,5.3,74.9,0.2c17.2-3.6,46.3-8.9,54.6-13C360.6,392.2,379.8,387.2,397.9,371.9z"/>
			<path class="st3" d="M396.2,371.2c22.5-18.7,18.8-76.3,7.3-92.6c-15.1-21.2-31.2-33.2-45.1-40.1c-13.7-6.8-51.1-13-68.9-13.1
				c-24.4-0.3-49,5.6-69.1,11c-21.8,5.9-64.4,21.7-84,43.1c-22.9,25.1-3.5,75.5,3.1,83.7c11,13.8,23.9,27.8,41.4,35.9
				c16.4,7.6,30.6,6.9,42.6,7.9c9.3,0.8,49.4,6.1,73.9,1.1c17.5-3.6,45.7-9.6,53.8-13.6C358.9,390.6,378,386.2,396.2,371.2z"/>
			<path class="st90" d="M394.5,370.6c22.4-18.1,19.1-74.1,7.5-90.8c-14.9-21.6-31.2-32.8-45.1-39.7c-13.5-6.7-49.3-12.9-67-13.3
				c-23.9-0.5-48.7,5.1-68.9,10.6c-21.9,6-64.4,22-83.4,42.7c-22.2,24.2-4.2,73.6,2.9,82.4c10.7,13.3,22.9,27.4,40.6,35.4
				c16.4,7.4,30.5,6.3,42.2,7.4c9.2,0.9,48.1,7,72.9,2c17.9-3.6,45-10.2,53-14.2C357.2,389.1,376.3,385.3,394.5,370.6z"/>
			<path class="st5" d="M392.9,369.9c22.3-17.6,19.3-71.9,7.8-89c-14.7-21.9-31.1-32.4-45-39.2c-13.3-6.6-47.4-12.9-65.1-13.5
				c-23.5-0.8-48.5,4.7-68.7,10.2c-22,6-64.5,22.3-82.8,42.2c-21.4,23.3-4.9,71.6,2.8,81c10.5,12.9,21.8,27,39.8,34.9
				c16.4,7.2,30.4,5.7,41.8,6.9c9.2,1,46.7,7.9,72,2.8c18.3-3.6,44.4-10.9,52.2-14.8C355.5,387.6,374.5,384.3,392.9,369.9z"/>
			<path class="st91" d="M391.2,369.2c22.2-17.1,19.6-69.6,8.1-87.2c-14.6-22.3-31-32-44.9-38.8c-13.1-6.4-45.5-12.9-63.2-13.6
				c-23-1-48.2,4.3-68.4,9.8c-22.1,6.1-64.5,22.6-82.2,41.8c-20.7,22.4-5.6,69.6,2.6,79.7c10.2,12.6,20.7,26.6,39,34.4
				c16.4,6.9,30.3,5.1,41.4,6.5c9.2,1.1,45.4,8.7,71,3.7c18.7-3.6,43.8-11.6,51.4-15.4C353.7,386.1,372.8,383.4,391.2,369.2z"/>
			<path class="st92" d="M389.5,368.6c22.1-16.6,19.8-67.4,8.4-85.5c-14.4-22.7-30.9-31.6-44.9-38.4c-13-6.3-43.6-12.8-61.3-13.8
				c-22.5-1.3-48,3.8-68.2,9.4c-22.2,6.2-64.6,22.9-81.6,41.4c-20,21.5-6.3,67.6,2.5,78.4c9.9,12.2,19.7,26.3,38.2,33.9
				c16.4,6.7,30.2,4.6,41,6c9.1,1.2,44.1,9.6,70,4.6c19-3.6,43.2-12.2,50.6-16C352,384.5,371.1,382.4,389.5,368.6z"/>
			<path class="st93" d="M387.9,367.9c22-16.1,20.1-65.2,8.6-83.7c-14.3-23-30.8-31.2-44.8-37.9c-12.8-6.2-41.7-12.8-59.4-14
				c-22.1-1.5-47.7,3.4-68,9c-22.3,6.3-64.6,23.2-81.1,40.9c-19.2,20.7-6.9,65.7,2.3,77c9.6,11.8,18.6,25.9,37.4,33.3
				c16.4,6.5,30.1,4,40.6,5.5c9.1,1.3,42.8,10.5,69,5.5c19.4-3.6,42.6-12.9,49.8-16.6C350.3,383,369.3,381.5,387.9,367.9z"/>
			<path class="st94" d="M386.2,367.3c21.9-15.6,20.3-62.9,8.9-81.9c-14.1-23.4-30.7-30.8-44.7-37.5c-12.6-6-39.8-12.7-57.5-14.1
				c-21.6-1.7-47.5,2.9-67.8,8.7c-22.4,6.3-64.7,23.5-80.5,40.5c-18.5,19.8-7.6,63.7,2.2,75.7c9.3,11.4,17.5,25.5,36.6,32.8
				c16.4,6.3,30.1,3.4,40.1,5.1c9.1,1.5,41.5,11.3,68,6.4c19.8-3.6,42-13.6,49-17.2C348.6,381.5,367.6,380.5,386.2,367.3z"/>
			<path class="st95" d="M384.5,366.6c21.8-15.1,20.6-60.7,9.2-80.1c-14-23.7-30.6-30.5-44.6-37.1c-12.4-5.9-37.9-12.7-55.6-14.3
				c-21.1-1.9-47.2,2.5-67.5,8.3c-22.5,6.4-64.7,23.8-79.9,40c-17.7,18.9-8.3,61.7,2,74.3c9,11,16.5,25.1,35.9,32.3
				c16.3,6.1,30,2.9,39.7,4.6c9,1.6,40.1,12.2,67,7.3c20.2-3.6,41.3-14.3,48.2-17.8C346.9,380,365.8,379.6,384.5,366.6z"/>
			<path class="st96" d="M382.9,365.9c21.7-14.6,20.8-58.5,9.4-78.3c-13.8-24-30.6-30-44.6-36.6c-12.2-5.8-36-12.6-53.7-14.4
				c-20.6-2.1-47,2.1-67.3,7.9c-22.6,6.5-64.8,24.1-79.3,39.6c-17,18-9,59.8,1.9,73c8.7,10.6,15.4,24.8,35.1,31.8
				c16.3,5.8,29.9,2.3,39.3,4.1c9,1.7,38.8,13.1,66,8.1c20.5-3.7,40.7-14.9,47.4-18.4C345.2,378.4,364.1,378.6,382.9,365.9z"/>
			<path class="st97" d="M381.2,365.3c21.5-14.1,21.1-56.2,9.7-76.5c-13.7-24.4-30.5-29.6-44.5-36.2c-12-5.6-34.2-12.5-51.8-14.6
				c-20.2-2.4-46.7,1.6-67.1,7.5c-22.7,6.6-64.9,24.4-78.8,39.1c-16.3,17.2-9.7,57.8,1.7,71.7c8.5,10.2,14.3,24.4,34.3,31.3
				c16.3,5.6,29.8,1.7,38.9,3.6c8.9,1.9,37.5,13.9,65,9c20.9-3.7,40.1-15.6,46.5-19C343.5,376.9,362.3,377.7,381.2,365.3z"/>
			<path class="st98" d="M379.6,364.6c21.4-13.6,21.3-54,10-74.7c-13.6-24.7-30.4-29.2-44.4-35.8c-11.8-5.5-32.3-12.5-49.9-14.8
				c-19.7-2.6-46.4,1.2-66.8,7.1c-22.8,6.6-64.9,24.7-78.2,38.7c-15.5,16.3-10.4,55.8,1.5,70.3c8.2,9.9,13.3,24,33.5,30.8
				c16.3,5.4,29.7,1.2,38.5,3.2c8.9,2,36.2,14.8,64,9.9c21.3-3.7,39.5-16.3,45.7-19.6C341.7,375.4,360.5,376.7,379.6,364.6z"/>
			<path class="st99" d="M377.9,364c21.3-13.1,21.6-51.8,10.2-72.9c-13.4-25.1-30.3-28.9-44.4-35.3c-11.6-5.4-30.4-12.4-48-14.9
				c-19.2-2.8-46.2,0.7-66.6,6.7c-22.9,6.7-65,25-77.6,38.2c-14.8,15.4-11.1,53.9,1.4,69c7.9,9.5,12.2,23.7,32.7,30.3
				c16.3,5.2,29.6,0.6,38.1,2.7c8.9,2.1,34.9,15.7,63,10.8c21.6-3.7,38.8-17,44.9-20.2C340,373.8,358.8,375.7,377.9,364z"/>
			<path class="st100" d="M376.2,363.3c21.2-12.6,21.8-49.5,10.5-71.1c-13.3-25.4-30.2-28.5-44.3-34.9C331,252,314,245,296.4,242.2
				c-18.8-2.9-45.9,0.3-66.4,6.3c-23,6.8-65,25.3-77,37.8c-14,14.5-11.9,51.9,1.2,67.6c7.6,9.1,11.1,23.3,31.9,29.8
				c16.2,5,29.5,0.1,37.7,2.2c8.8,2.3,33.5,16.5,62,11.7c22-3.7,38.2-17.6,44.1-20.8C338.3,372.3,357,374.8,376.2,363.3z"/>
			<path class="st101" d="M374.6,362.6c21-12.1,22.1-47.3,10.8-69.3c-13.2-25.8-30.2-28.1-44.2-34.5c-11.2-5.1-26.6-12.2-44.2-15.2
				c-18.3-3.1-45.7-0.2-66.2,5.9c-23.1,6.8-65.1,25.6-76.4,37.3c-13.3,13.6-12.6,50,1.1,66.3c7.3,8.7,10,23,31.1,29.3
				c16.2,4.8,29.4-0.4,37.3,1.8c8.8,2.4,32.2,17.4,61,12.5c22.4-3.7,37.6-18.3,43.3-21.4C336.6,370.8,355.3,373.8,374.6,362.6z"/>
			<path class="st102" d="M372.9,362c20.9-11.7,22.3-45,11.1-67.5c-13-26.1-30.1-27.7-44.1-34c-11-5-24.7-12.2-42.3-15.4
				c-17.8-3.3-45.4-0.6-65.9,5.5c-23.2,6.9-65.1,26-75.9,36.9c-12.6,12.8-13.3,48,0.9,65c7,8.3,9,22.6,30.4,28.7
				c16.2,4.6,29.3-1,36.9,1.3c8.8,2.6,30.9,18.3,60,13.4c22.8-3.7,37-19,42.5-22C334.9,369.3,353.5,372.8,372.9,362z"/>
			<path class="st103" d="M371.2,361.3c20.8-11.2,22.5-42.8,11.3-65.7c-12.9-26.4-30-27.3-44.1-33.6c-10.8-4.9-22.8-12.1-40.4-15.6
				c-17.4-3.5-45.2-1-65.7,5.1c-23.3,7-65.2,26.3-75.3,36.4c-11.8,11.9-14,46,0.8,63.6c6.7,8,7.9,22.3,29.6,28.2
				c16.2,4.4,29.2-1.5,36.5,0.8c8.7,2.8,29.6,19.1,59.1,14.3c23.1-3.7,36.4-19.7,41.7-22.6C333.1,367.7,351.7,371.8,371.2,361.3z"/>
			<path class="st104" d="M369.6,360.7c20.6-10.7,22.8-40.5,11.6-63.9c-12.8-26.8-29.9-26.9-44-33.2c-10.6-4.7-21-12-38.5-15.7
				c-16.9-3.6-44.9-1.5-65.5,4.7c-23.4,7.1-65.3,26.6-74.7,36c-11.1,11-14.7,44.1,0.6,62.3c6.4,7.6,6.8,22,28.8,27.7
				c16.1,4.2,29.1-2,36.1,0.4c8.7,2.9,28.3,20,58.1,15.2c23.5-3.7,35.7-20.3,40.9-23.2C331.4,366.2,350,370.9,369.6,360.7z"/>
			<path class="st105" d="M367.9,360c20.5-10.3,22.9-38.3,11.9-62.2c-12.7-27.1-29.8-26.5-43.9-32.8c-10.4-4.6-19.1-11.8-36.6-15.9
				c-16.4-3.8-44.6-1.9-65.3,4.3c-23.5,7.1-65.3,26.9-74.1,35.5c-10.3,10.1-15.4,42.1,0.5,60.9c6.1,7.2,5.7,21.6,28,27.2
				c16.1,4,29-2.5,35.7-0.1c8.6,3.1,26.9,20.8,57.1,16.1c23.9-3.7,35.1-21,40.1-23.8C329.7,364.6,348.2,369.9,367.9,360z"/>
			<path class="st106" d="M366.2,359.3c20.4-9.8,23.2-36,12.1-60.4c-12.5-27.4-29.7-26.2-43.9-32.3c-10.2-4.5-17.2-11.7-34.7-16.1
				c-16-4-44.4-2.4-65,3.9c-23.6,7.2-65.4,27.2-73.6,35.1c-9.6,9.3-16.2,40.2,0.3,59.6c5.8,6.8,4.7,21.3,27.2,26.7
				c16.1,3.9,28.9-3.1,35.3-0.6c8.6,3.3,25.6,21.7,56.1,17c24.2-3.7,34.5-21.7,39.3-24.4C328,363.1,346.4,368.9,366.2,359.3z"/>
			<path class="st107" d="M364.6,358.7c20.2-9.4,23.4-33.8,12.4-58.6c-12.4-27.8-29.6-25.8-43.8-31.9c-10.1-4.4-15.3-11.6-32.8-16.2
				c-15.5-4.1-44.1-2.8-64.8,3.5c-23.7,7.3-65.4,27.5-73,34.6c-8.9,8.4-16.9,38.3,0.2,58.3c5.5,6.4,3.6,21,26.4,26.2
				c16,3.7,28.8-3.6,34.9-1.1c8.5,3.5,24.3,22.6,55.1,17.8c24.6-3.8,33.9-22.4,38.5-25C326.3,361.6,344.6,367.8,364.6,358.7z"/>
			<path class="st108" d="M362.9,358c20.1-8.9,23.7-31.6,12.7-56.8c-12.3-28.1-29.5-25.4-43.7-31.5c-9.9-4.2-13.5-11.5-30.9-16.4
				c-15.1-4.3-43.9-3.2-64.6,3.2c-23.8,7.4-65.5,27.8-72.4,34.2c-8.1,7.5-17.6,36.3,0,56.9c5.2,6.1,2.5,20.6,25.6,25.7
				c16,3.5,28.6-4.1,34.5-1.5c8.4,3.7,23,23.4,54.1,18.7c25-3.8,33.2-23.1,37.7-25.6C324.5,360,342.9,366.9,362.9,358z"/>
		</g>
		<path class="st111" d="M336,263.4c-1.1,0-2.2,0-3.2,0.1c-5.8-16.5-21.5-28.3-39.9-28.3c-5.5,0-10.8,1.1-15.6,3
			c-5.7-15.8-20.8-27.1-38.6-27.1c-17.3,0-32.1,10.7-38.1,25.8c-2-0.3-4.1-0.5-6.2-0.5c-18.6,0-34,14.1-35.9,32.3
			c-2.6-0.5-5.3-0.8-8.1-0.8c-22.5,0-40.7,18.2-40.7,40.7c0,22.5,18.2,40.7,40.7,40.7c0.4,0,0.7,0,1.1,0c4,16.4,18.8,28.7,36.5,28.7
			c13.7,0,25.6-7.3,32.2-18.2c8.9,15.3,25.5,25.5,44.5,25.5c21,0,39.1-12.6,47.1-30.6c7.2,4.1,15.5,6.5,24.3,6.5
			c27,0,48.9-21.9,48.9-48.9C384.9,285.3,363,263.4,336,263.4z"/>
		<path class="st112" d="M337.7,265.1c-1.1,0-2.1,0-3.2,0.1c-5.8-16.5-21.5-28.2-39.9-28.2c-5.5,0-10.8,1.1-15.6,3
			c-5.7-15.8-20.8-27.1-38.6-27.1c-17.3,0-32.1,10.7-38.1,25.8c-2-0.4-4.1-0.6-6.2-0.6c-18.6,0-34,14.1-35.9,32.3
			c-2.6-0.5-5.3-0.8-8.1-0.8c-22.5,0-40.7,18.2-40.7,40.7c0,22.5,18.2,40.7,40.7,40.7c0.3,0,0.7,0,1.1,0c4,16.4,18.8,28.7,36.4,28.7
			c13.7,0,25.6-7.3,32.2-18.3c8.9,15.3,25.5,25.5,44.5,25.5c21,0,39.1-12.6,47.1-30.6c7.2,4.1,15.5,6.5,24.3,6.5
			c27,0,48.9-21.9,48.9-48.9C386.6,287,364.7,265.1,337.7,265.1z"/>
	</g>
	<g>
		<g>
			<g class="st63">
				<path class="st2" d="M343.5,368c-46.8,3.6-118.1-22.7-134.3-57.4c-15.5-33.3-3.2-58.4,22-66.8c15.6-5.2,55,24.1,90.4,23
					c48-1.6,56.9-17.1,72.6-40c12.8-18.5,75.1-5.1,69.3,42.8C455.8,332.2,402.4,363.4,343.5,368z"/>
				<path class="st3" d="M343.6,365.4c-45.5,3.8-114.4-21.8-130.9-55c-16.1-32.5-4.9-56.6,19.4-64.8c15.1-5.1,54.1,24.1,90.2,22.6
					c47.1-2,57.1-17.9,72.4-40.2c12.4-18.1,71.5-4.2,65.3,42.2C452,330.2,400.9,360.6,343.6,365.4z"/>
				<path class="st4" d="M343.8,362.9c-44.3,4.1-110.7-20.8-127.6-52.6c-16.8-31.6-6.7-54.8,16.7-62.8c14.6-5.1,53.2,24.1,89.9,22.2
					c46.3-2.4,57.3-18.7,72.3-40.5c12.1-17.6,67.9-3.3,61.4,41.5C448.3,328.2,399.4,357.9,343.8,362.9z"/>
				<path class="st5" d="M344,360.4c-43.1,4.3-107.1-19.9-124.2-50.2c-17.4-30.8-8.4-53,14.1-60.9c14.1-5,52.3,24.1,89.7,21.8
					c45.4-2.8,57.5-19.5,72.1-40.8c11.8-17.1,64.2-2.4,57.5,40.8C444.5,326.3,397.8,355.2,344,360.4z"/>
				<path class="st6" d="M344.1,357.9c-41.8,4.5-103.5-18.9-120.9-47.8c-18.1-29.9-10.1-51.1,11.4-58.9
					c13.6-4.9,51.4,24.2,89.4,21.5c44.6-3.2,57.7-20.4,71.9-41c11.5-16.7,60.6-1.6,53.6,40.1C440.7,324.3,396.3,352.4,344.1,357.9z"
					/>
				<path class="st7" d="M344.3,355.4c-40.6,4.7-99.9-17.9-117.6-45.4c-18.7-29.1-11.8-49.3,8.7-56.9c13.1-4.8,50.5,24.2,89.2,21.1
					c43.7-3.5,57.9-21.2,71.7-41.3c11.2-16.2,57-0.7,49.7,39.4C437,322.3,394.8,349.7,344.3,355.4z"/>
				<path class="st8" d="M344.5,352.9c-39.3,4.9-96.3-17-114.2-43c-19.5-28.3-13.5-47.5,6.1-54.9c12.6-4.7,49.6,24.2,88.9,20.7
					c42.8-3.8,58.1-22,71.6-41.6c10.9-15.8,53.4,0.1,45.8,38.7C433.2,320.4,393.2,346.9,344.5,352.9z"/>
				<path class="st9" d="M344.6,350.4c-38.1,5.1-92.8-16-110.9-40.6c-20.2-27.4-15.2-45.7,3.4-53c12-4.7,48.7,24.3,88.7,20.3
					c42-4.2,58.3-22.8,71.4-41.8c10.5-15.3,49.8,1,41.8,38C429.5,318.4,391.7,344.1,344.6,350.4z"/>
				<path class="st10" d="M344.8,347.9c-36.9,5.3-89.3-15-107.5-38.2c-21-26.6-16.9-43.9,0.8-51c11.5-4.6,47.7,24.4,88.4,20
					c41.1-4.5,58.5-23.6,71.2-42.1c10.2-14.8,46.2,1.8,37.9,37.3C425.7,316.4,390.1,341.3,344.8,347.9z"/>
				<path class="st11" d="M344.9,345.4c-35.6,5.5-85.8-14-104.2-35.8c-21.7-25.7-18.7-42.1-1.9-49c11-4.5,46.8,24.4,88.2,19.6
					c40.3-4.7,58.7-24.4,71-42.3c9.9-14.4,42.6,2.7,34,36.6C422,314.4,388.6,338.6,344.9,345.4z"/>
				<path class="st12" d="M345.1,342.9c-34.4,5.7-82.4-13-100.9-33.3c-22.6-24.9-20.4-40.3-4.5-47c10.5-4.4,45.9,24.5,87.9,19.2
					c39.4-5,58.9-25.3,70.9-42.6c9.6-13.9,39,3.5,30.1,36C418.3,312.4,387.1,335.9,345.1,342.9z"/>
				<path class="st13" d="M345.3,340.4c-33.1,6-79-11.9-97.5-30.9c-23.4-24-22.1-38.5-7.2-45.1c10-4.4,45,24.7,87.7,18.8
					c38.6-5.3,59.1-26.1,70.7-42.9c9.3-13.4,35.4,4.4,26.2,35.3C414.7,310.5,385.5,333.1,345.3,340.4z"/>
				<path class="st14" d="M345.4,337.8c-31.9,6.2-75.6-10.9-94.2-28.5c-24.3-23.1-23.8-36.7-9.9-43.1c9.5-4.3,44.1,24.8,87.4,18.4
					c37.7-5.5,59.3-26.9,70.5-43.1c9-13,31.9,5.2,22.3,34.6C411,308.5,384,330.4,345.4,337.8z"/>
				<path class="st15" d="M345.6,335.3c-30.7,6.4-72.2-9.8-90.8-26.1c-25.2-22.2-25.5-35-12.5-41.1c8.9-4.2,43.2,24.9,87.2,18.1
					c36.8-5.7,59.5-27.7,70.3-43.4c8.7-12.5,28.3,6,18.4,33.9C407.4,306.5,382.4,327.6,345.6,335.3z"/>
				<path class="st16" d="M345.8,332.8c-29.4,6.6-68.9-8.7-87.5-23.7c-26.2-21.2-27.3-33.2-15.2-39.1c8.4-4.2,42.3,25.1,86.9,17.7
					c36-6,59.7-28.5,70.2-43.7c8.3-12,24.8,6.9,14.4,33.2C403.8,304.5,380.9,324.9,345.8,332.8z"/>
				<path class="st17" d="M345.9,330.3c-28.2,6.9-65.6-7.5-84.1-21.3c-27.2-20.2-29-31.4-17.8-37.2c7.9-4.1,41.4,25.2,86.7,17.3
					c35.2-6.2,59.9-29.3,70-43.9c8-11.6,21.4,7.7,10.5,32.5C400.3,302.6,379.4,322.2,345.9,330.3z"/>
				<path class="st18" d="M346.1,327.8c-26.9,7.1-62.3-6.4-80.8-18.9c-28.2-19.1-30.7-29.6-20.5-35.2c7.4-4,40.5,25.4,86.4,16.9
					c34.3-6.4,60.1-30.1,69.8-44.2c7.7-11.1,17.9,8.6,6.6,31.8C396.8,300.6,377.8,319.4,346.1,327.8z"/>
				<path class="st19" d="M346.2,325.3c-25.7,7.3-59-5.1-77.5-16.5c-29.2-17.9-32.4-27.8-23.1-33.2c6.9-4,39.7,25.6,86.2,16.6
					c33.5-6.5,60.3-31,69.7-44.4c7.4-10.6,14.5,9.5,2.7,31.1C393.3,298.7,376.3,316.7,346.2,325.3z"/>
				<path class="st20" d="M346.4,322.8c-24.4,7.6-55.7-3.9-74.1-14.1c-30.3-16.7-34.2-26.1-25.8-31.2c6.3-3.9,38.8,25.9,85.9,16.2
					c32.6-6.7,60.5-31.8,69.5-44.7c7.1-10.2,11.2,10.4-1.2,30.5C389.9,296.8,374.8,314,346.4,322.8z"/>
				<path class="st21" d="M346.6,320.3c-23.2,7.8-52.4-2.6-70.8-11.7c-31.3-15.4-35.9-24.3-28.5-29.3c5.8-3.9,37.9,26.1,85.7,15.8
					c31.8-6.9,60.7-32.6,69.3-45c6.8-9.7,7.9,11.4-5.1,29.8C386.5,294.9,373.2,311.3,346.6,320.3z"/>
				<path class="st22" d="M346.7,317.8c-21.9,8.1-49.1-1.3-67.4-9.3c-32.4-14-37.6-22.5-31.1-27.3c5.3-3.8,37.1,26.4,85.4,15.4
					c31-7,60.9-33.4,69.1-45.2c6.5-9.3,4.7,12.4-9,29.1C383.2,293.2,371.7,308.6,346.7,317.8z"/>
				<path class="st23" d="M346.9,315.3c-20.7,8.3-45.8,0.1-64.1-6.9c-33.4-12.6-39.4-20.8-33.8-25.3c4.7-3.8,36.2,26.7,85.2,15.1
					c30.2-7.2,61.1-34.2,69-45.5c6.1-8.8,1.6,13.7-13,28.4C379.9,291.5,370.2,305.9,346.9,315.3z"/>
			</g>
			<g class="st63">
				<path class="st2" d="M199.4,167.8c18.6-44.9,69.2-60.6,94.3-60.4c15.5,0.2,29.3,16.6,6.6,54.4c-25.4,42.4-12.2,77.8,7.2,96.6
					c23.1,22.4,55.8,21.7,48.9,41c-12,33.8-71,40.7-116.8,13.8C193.4,286.1,178,219.6,199.4,167.8z"/>
				<path class="st3" d="M200.1,169.3c18.2-45.1,68.4-61.7,92.2-61.2c14.8,0.3,27.2,16.1,5,53.4c-25.2,42.4-12,77.6,7.3,96.8
					c22.6,22.3,55.7,22.6,49.1,41c-11.6,32.3-69.7,38.8-114.4,12.5C194.4,285.3,179.7,220.2,200.1,169.3z"/>
				<path class="st4" d="M200.8,170.7c17.7-45.4,67.6-62.8,90.2-62c14,0.5,25.1,15.7,3.3,52.5c-25,42.5-11.8,77.5,7.4,96.9
					c22.1,22.3,55.7,23.5,49.3,41c-11.2,30.8-68.4,37-112,11.2C195.4,284.5,181.4,220.7,200.8,170.7z"/>
				<path class="st5" d="M201.5,172.2c17.1-45.6,66.7-63.8,88.2-62.8c13.3,0.6,23,15.3,1.7,51.5c-24.8,42.6-11.7,77.4,7.6,97.1
					c21.6,22.2,55.6,24.4,49.5,41c-10.8,29.3-67.1,35.2-109.6,9.9C196.4,283.7,183,221.3,201.5,172.2z"/>
				<path class="st6" d="M202.2,173.6c16.6-45.9,65.9-64.9,86.1-63.6c12.5,0.8,20.8,14.8,0.1,50.6c-24.7,42.7-11.5,77.2,7.7,97.3
					c21.1,22,55.6,25.3,49.7,41.1c-10.3,27.7-65.8,33.3-107.1,8.6C197.4,282.9,184.7,221.8,202.2,173.6z"/>
				<path class="st7" d="M202.8,175.1c16.1-46.1,65.1-66,84.1-64.4c11.8,0.9,18.7,14.4-1.5,49.7c-24.5,42.8-11.3,77.1,7.8,97.4
					c20.6,21.9,55.5,26.1,49.9,41.1c-9.9,26.2-64.5,31.5-104.7,7.3C198.4,282.1,186.3,222.4,202.8,175.1z"/>
				<path class="st8" d="M203.5,176.5c15.6-46.4,64.3-67,82-65.2c11,1.1,16.6,13.9-3.1,48.7c-24.3,42.8-11.1,76.9,7.9,97.6
					c20.1,21.8,55.5,27.1,50.1,41.1c-9.4,24.7-63.2,29.7-102.3,6C199.4,281.3,188,222.9,203.5,176.5z"/>
				<path class="st9" d="M204.2,178c15-46.7,63.4-68.1,80-66.1c10.3,1.3,14.5,13.5-4.7,47.8c-24.1,42.9-10.9,76.8,8,97.7
					c19.6,21.7,55.4,27.9,50.3,41.1c-9,23.2-61.8,27.8-99.9,4.7C200.4,280.5,189.6,223.5,204.2,178z"/>
				<path class="st10" d="M204.9,179.4c14.5-46.9,62.6-69.1,77.9-66.9c9.5,1.4,12.4,13.1-6.4,46.8c-23.9,43-10.7,76.6,8.2,97.9
					c19.1,21.6,55.4,28.8,50.5,41.1c-8.6,21.7-60.5,26-97.4,3.4C201.4,279.7,191.2,224,204.9,179.4z"/>
				<path class="st11" d="M205.6,180.9c13.9-47.2,61.8-70.2,75.9-67.7c8.8,1.6,10.3,12.7-8,45.9c-23.7,43.1-10.5,76.5,8.3,98.1
					c18.6,21.4,55.3,29.7,50.7,41.2c-8.1,20.2-59.2,24.2-95,2.1C202.4,278.9,192.7,224.5,205.6,180.9z"/>
				<path class="st12" d="M206.2,182.3c13.3-47.5,61-71.3,73.9-68.5c8,1.7,8.2,12.2-9.6,44.9c-23.5,43.2-10.3,76.3,8.4,98.2
					c18.1,21.3,55.3,30.6,50.9,41.2c-7.7,18.7-57.9,22.3-92.6,0.8C203.4,278.1,194.3,225,206.2,182.3z"/>
				<path class="st13" d="M206.9,183.8c12.7-47.8,60.2-72.3,71.8-69.3c7.3,1.9,6.1,11.8-11.2,44c-23.3,43.3-10.1,76.1,8.5,98.4
					c17.7,21.2,55.2,31.5,51.1,41.2c-7.3,17.2-56.6,20.5-90.2-0.5C204.4,277.3,195.8,225.5,206.9,183.8z"/>
				<path class="st14" d="M207.6,185.3c12.1-48.1,59.4-73.4,69.8-70.1c6.5,2,4,11.4-12.8,43c-23.1,43.4-9.9,75.9,8.6,98.6
					c17.2,21,55.2,32.4,51.3,41.2c-6.8,15.7-55.3,18.7-87.7-1.8C205.4,276.5,197.4,226,207.6,185.3z"/>
				<path class="st15" d="M208.3,186.7c11.4-48.4,58.6-74.4,67.7-70.9c5.8,2.2,1.9,11-14.5,42.1c-22.8,43.5-9.7,75.8,8.7,98.7
					c16.7,20.9,55.1,33.3,51.5,41.2c-6.4,14.2-54,16.8-85.3-3.1C206.4,275.7,198.9,226.5,208.3,186.7z"/>
				<path class="st16" d="M208.9,188.2c10.8-48.7,57.8-75.4,65.7-71.7c5.1,2.4-0.2,10.6-16.1,41.2c-22.6,43.6-9.4,75.6,8.9,98.9
					c16.3,20.7,55.1,34.2,51.7,41.3c-6,12.7-52.7,15-82.9-4.4C207.4,274.9,200.4,227,208.9,188.2z"/>
				<path class="st17" d="M209.6,189.6c10.1-49,57-76.4,63.6-72.5c4.4,2.6-2.3,10.1-17.7,40.2c-22.4,43.7-9.2,75.4,9,99
					c15.8,20.6,55,35.1,52,41.3c-5.5,11.2-51.4,13.2-80.4-5.7C208.4,274.1,201.8,227.5,209.6,189.6z"/>
				<path class="st18" d="M210.3,191.1c9.4-49.3,56.2-77.4,61.6-73.4c3.7,2.8-4.4,9.7-19.3,39.3c-22.2,43.8-9,75.2,9.1,99.2
					c15.4,20.4,55,36,52.2,41.3c-5.1,9.7-50,11.3-78-7C209.4,273.3,203.3,228,210.3,191.1z"/>
				<path class="st19" d="M211,192.5c8.6-49.6,55.4-78.4,59.6-74.2c2.9,3-6.5,9.3-20.9,38.3c-21.9,43.9-8.7,75,9.2,99.4
					c14.9,20.2,54.9,36.9,52.4,41.3c-4.7,8.1-48.7,9.5-75.6-8.3C210.4,272.5,204.8,228.4,211,192.5z"/>
				<path class="st20" d="M211.7,194c7.8-50,54.6-79.3,57.5-75c2.2,3.2-8.5,8.9-22.6,37.4c-21.7,44-8.5,74.8,9.3,99.5
					c14.5,20.1,54.8,37.8,52.6,41.4c-4.3,6.6-47.4,7.7-73.2-9.6C211.4,271.7,206.2,228.9,211.7,194z"/>
				<path class="st21" d="M212.3,195.4c7-50.3,53.7-80.2,55.5-75.8c1.4,3.5-10.6,8.5-24.2,36.4c-21.3,44.1-8.2,74.6,9.5,99.7
					c14,19.9,54.8,38.7,52.8,41.4c-3.9,5.1-46.1,5.8-70.7-10.9C212.4,270.9,207.6,229.4,212.3,195.4z"/>
				<path class="st22" d="M213,196.9c6.2-50.6,52.8-81.1,53.4-76.6c0.5,3.8-12.7,8.1-25.8,35.5c-21.1,44.2-7.9,74.4,9.6,99.9
					c13.6,19.8,54.7,39.6,53,41.4c-3.5,3.6-44.8,4-68.3-12.2C213.4,270.1,209,229.9,213,196.9z"/>
				<path class="st23" d="M213.7,198.3c5.3-50.9,51.8-82.1,51.4-77.4c-0.3,4-14.7,7.7-27.4,34.5c-20.9,44.3-7.7,74.2,9.7,100
					c13.2,19.6,54.6,40.4,53.2,41.4c-3.1,2-43.5,2.2-65.9-13.5C214.4,269.3,210.3,230.4,213.7,198.3z"/>
			</g>
		</g>
		<path class="st24" d="M385.1,260.7c-35.8,35.8-94,35.8-129.8,0c-35.9-35.9-35.9-94,0-129.8c14.1-14,33.2-20.9,51.4-23.9
			c-28.8-1.3-59.3,8.4-81.1,30.3c-42.7,42.7-42.7,111.9,0,154.6c42.7,42.7,111.9,42.7,154.6,0c24.1-24,36.2-54.8,33.2-86.2
			C410.6,226.3,401,244.8,385.1,260.7z"/>
		<g>
			
				<linearGradient id="SVGID_1_" gradientUnits="userSpaceOnUse" x1="1079.877" y1="309.6895" x2="1234.4229" y2="464.2354" gradientTransform="matrix(0.7071 -0.7071 0.7071 0.7071 -787.2815 760.794)">
				<stop  offset="0" style="stop-color:#FFD45C"/>
				<stop  offset="1" style="stop-color:#FF9D00"/>
			</linearGradient>
			<path class="st25" d="M386.8,262.4c-35.8,35.8-93.9,35.8-129.8,0c-35.8-35.9-35.8-94,0-129.8c14.1-14,31.5-22.6,49.7-25.6
				c-28.7-0.6-57.6,10.1-79.4,32c-42.7,42.7-42.7,111.9,0,154.6c42.7,42.7,111.9,42.7,154.6,0c24.1-24,34.5-56.5,31.5-87.9
				C411.5,226.3,402.7,246.5,386.8,262.4z"/>
		</g>
	</g>
	<g>
		<g class="st89">
			<path class="st2" d="M280.9,337.5c13.2-19.6,6.8-55.8-2.4-68.5c-12.1-16.6-31-18.9-42.1-24.5c-11.1-5.5-32.1-20.5-46.2-20.5
				c-19.8,0-29.9,7.3-45.9,11.6c-17.3,4.6-46.6,31.6-62.8,49.3c-18.8,20.7-14,51.7-9.2,57.8c9,11.3,19.9,22.5,33.6,29
				c13.1,6.3,24.5,6,34.2,6.6c7.4,0.5,16.1,4.2,35.4,0.2c13.7-2.8,20.2-4,27.3-6.2C217.6,367.8,264.9,361.2,280.9,337.5z"/>
			<path class="st3" d="M279.7,337.7c13.3-19,7.3-54.7-1.8-67.3c-12.1-16.8-31-18.8-42.1-24.2c-10.9-5.4-31.4-20.8-45.5-20.9
				c-19.4-0.2-30.1,6.9-46.1,11.2C126.9,241,98,268,82.3,285c-18.2,20-14.8,50.5-9.6,57c8.8,10.9,19.4,22,33.3,28.3
				c13.4,6,24.5,5.2,34.1,6c7.4,0.6,16.3,4.6,35.8,0.6c14-2.9,20.7-4.3,27.5-6.3C218,366.4,263.7,360.6,279.7,337.7z"/>
			<path class="st90" d="M278.4,337.8c13.4-18.4,7.8-53.5-1.2-66.1c-12.1-17-31-18.6-42-24c-10.7-5.3-30.7-21.1-44.7-21.4
				c-19-0.4-30.2,6.4-46.2,10.7c-17.4,4.7-45.9,31.6-61,48.1c-17.6,19.3-15.6,49.2-9.9,56.2c8.5,10.6,18.9,21.6,33,27.6
				c13.6,5.7,24.6,4.5,33.9,5.3c7.3,0.7,16.4,5,36.2,1c14.2-2.9,21.1-4.6,27.8-6.4C218.3,365,262.4,359.9,278.4,337.8z"/>
			<path class="st5" d="M277.2,338c13.5-17.8,8.3-52.4-0.6-65c-12.1-17.2-30.9-18.4-42-23.8c-10.6-5.2-29.9-21.4-44-21.8
				c-18.6-0.6-30.4,5.9-46.4,10.3c-17.4,4.8-45.5,31.6-60.1,47.5c-17,18.5-16.3,47.9-10.3,55.4c8.3,10.3,18.4,21.3,32.7,26.9
				c13.9,5.5,24.6,3.7,33.7,4.7c7.3,0.8,16.6,5.4,36.6,1.4c14.5-2.9,21.5-4.9,28-6.5C218.6,363.7,261.2,359.2,277.2,338z"/>
			<path class="st91" d="M276,338.1c13.5-17.3,8.7-51.2-0.1-63.8c-12.1-17.3-30.9-18.3-42-23.6c-10.4-5.1-29.2-21.7-43.2-22.3
				c-18.2-0.8-30.6,5.5-46.6,9.9c-17.5,4.8-45.1,31.7-59.2,46.9c-16.4,17.8-17.1,46.6-10.7,54.6c8.1,10,17.9,20.9,32.4,26.2
				c14.2,5.2,24.7,3,33.5,4c7.3,0.9,16.8,5.8,37,1.9c14.8-2.9,22-5.3,28.3-6.6C219,362.3,260,358.5,276,338.1z"/>
			<path class="st92" d="M274.8,338.3c13.6-16.7,9.2-50,0.5-62.6c-12.1-17.5-30.9-18.1-41.9-23.4c-10.3-5-28.5-21.9-42.5-22.7
				c-17.8-1-30.8,5-46.8,9.4c-17.6,4.9-44.7,31.7-58.3,46.3C70,302.4,68,330.6,74.9,339c7.9,9.7,17.3,20.5,32.1,25.5
				c14.4,4.9,24.8,2.2,33.3,3.3c7.2,1,17,6.2,37.4,2.3c15-2.9,22.4-5.6,28.6-6.8C219.3,360.9,258.8,357.8,274.8,338.3z"/>
			<path class="st93" d="M273.6,338.4c13.7-16.1,9.7-48.9,1.1-61.4c-12.1-17.7-30.8-17.9-41.9-23.2c-10.1-4.9-27.7-22.2-41.7-23.2
				c-17.5-1.1-31,4.5-47,9c-17.6,4.9-44.3,31.7-57.4,45.7c-15.2,16.4-18.6,44.1-11.4,53c7.6,9.3,16.8,20.1,31.9,24.8
				c14.7,4.7,24.8,1.5,33.1,2.7c7.2,1,17.2,6.6,37.8,2.7c15.3-2.9,22.8-5.9,28.8-6.9C219.6,359.5,257.6,357.2,273.6,338.4z"/>
			<path class="st94" d="M272.4,338.6c13.8-15.5,10.2-47.7,1.7-60.3c-12.1-17.9-30.8-17.8-41.8-23c-9.9-4.8-27-22.5-40.9-23.6
				c-17.1-1.3-31.2,4-47.2,8.5c-17.7,5-44,31.7-56.5,45.1C73,301,68.3,328.1,75.9,337.5c7.4,9,16.3,19.7,31.6,24.1
				c15,4.4,24.9,0.8,32.9,2c7.2,1.1,17.4,7,38.2,3.1c15.6-2.9,23.3-6.2,29.1-7C220,358.1,256.4,356.5,272.4,338.6z"/>
			<path class="st95" d="M271.2,338.7c13.9-14.9,10.7-46.6,2.3-59.1c-12.1-18-30.8-17.6-41.8-22.8c-9.8-4.6-26.3-22.8-40.2-24.1
				c-16.7-1.5-31.4,3.6-47.4,8.1c-17.7,5-43.6,31.7-55.6,44.5c-14,15-20.1,41.5-12.1,51.4c7.1,8.7,15.8,19.3,31.3,23.4
				c15.3,4.1,25,0,32.7,1.4c7.1,1.2,17.6,7.5,38.6,3.6c15.8-2.9,23.7-6.5,29.3-7.1C220.3,356.8,255.2,355.8,271.2,338.7z"/>
			<path class="st96" d="M269.9,338.9c14-14.3,11.2-45.4,2.9-57.9c-12.1-18.2-30.8-17.4-41.8-22.6c-9.6-4.5-25.6-23.1-39.4-24.5
				c-16.3-1.7-31.6,3.1-47.6,7.7c-17.8,5.1-43.2,31.7-54.7,44C75.9,299.7,68.5,325.7,77,336c6.9,8.4,15.3,18.9,31,22.7
				c15.5,3.8,25-0.7,32.5,0.7c7.1,1.3,17.7,7.9,39.1,4c16.1-2.9,24.1-6.8,29.6-7.2C220.7,355.4,254,355.1,269.9,338.9z"/>
			<path class="st97" d="M268.7,339c14.1-13.7,11.7-44.3,3.5-56.7c-12.1-18.4-30.7-17.3-41.7-22.4c-9.4-4.4-24.8-23.4-38.7-25
				c-15.9-1.8-31.8,2.6-47.8,7.2c-17.8,5.1-42.8,31.8-53.8,43.4c-12.8,13.6-21.7,39-12.8,49.8c6.7,8.1,14.8,18.5,30.7,22
				c15.8,3.5,25.1-1.4,32.3,0.1c7,1.4,17.9,8.3,39.5,4.4c16.4-2.9,24.6-7.2,29.9-7.4C221,354,252.8,354.5,268.7,339z"/>
			<path class="st98" d="M267.5,339.2c14.2-13.1,12.2-43.1,4.1-55.6c-12.1-18.6-30.7-17.1-41.7-22.2c-9.3-4.3-24.1-23.6-37.9-25.4
				c-15.5-2-32,2.2-47.9,6.8c-17.9,5.2-42.4,31.8-52.9,42.8c-12.2,12.9-22.5,37.7-13.1,49c6.4,7.8,14.3,18.1,30.4,21.3
				c16.1,3.3,25.2-2.1,32.1-0.6c7,1.6,18.1,8.7,39.9,4.8c16.6-2.9,25-7.5,30.1-7.5C221.3,352.6,251.6,353.8,267.5,339.2z"/>
			<path class="st99" d="M266.3,339.3c14.4-12.5,12.7-42,4.7-54.4c-12.1-18.8-30.7-17-41.7-22c-9.1-4.2-23.4-23.9-37.2-25.9
				c-15.1-2.1-32.2,1.7-48.1,6.4c-17.9,5.2-42,31.8-52,42.2c-11.6,12.2-23.2,36.4-13.5,48.2c6.2,7.5,13.8,17.7,30.1,20.6
				c16.4,3,25.2-2.9,31.9-1.3c7,1.7,18.3,9.1,40.3,5.3c16.9-2.9,25.4-7.8,30.4-7.6C221.7,351.2,250.4,353.1,266.3,339.3z"/>
			<path class="st100" d="M265.1,339.5c14.5-11.9,13.2-40.8,5.3-53.2c-12.1-18.9-30.6-16.8-41.6-21.8c-8.9-4.1-22.7-24.2-36.4-26.3
				c-14.7-2.3-32.3,1.2-48.3,5.9c-18,5.3-41.7,31.8-51.1,41.6c-11.1,11.5-24,35.2-13.8,47.4c5.9,7.2,13.3,17.3,29.8,19.9
				c16.6,2.7,25.3-3.6,31.7-1.9c6.9,1.8,18.5,9.5,40.7,5.7c17.2-2.9,25.9-8.1,30.6-7.7C222,349.9,249.3,352.5,265.1,339.5z"/>
			<path class="st101" d="M263.9,339.6c14.6-11.3,13.6-39.7,5.9-52c-12.1-19.1-30.6-16.6-41.6-21.6c-8.8-4-21.9-24.4-35.6-26.7
				c-14.3-2.4-32.5,0.8-48.5,5.5c-18,5.3-41.3,31.8-50.2,41c-10.5,10.8-24.8,33.9-14.2,46.6c5.7,6.8,12.8,16.9,29.6,19.2
				c16.9,2.4,25.3-4.3,31.5-2.6c6.9,1.9,18.7,9.9,41.1,6.1c17.4-2.9,26.3-8.5,30.9-7.8C222.3,348.5,248.1,351.8,263.9,339.6z"/>
			<path class="st102" d="M262.7,339.8c14.7-10.7,14.1-38.5,6.4-50.9c-12-19.3-30.6-16.5-41.5-21.4c-8.6-3.9-21.2-24.7-34.9-27.2
				c-13.9-2.6-32.7,0.3-48.7,5.1c-18.1,5.4-40.9,31.8-49.3,40.4c-9.9,10.1-25.5,32.6-14.5,45.8c5.5,6.5,12.3,16.4,29.3,18.5
				c17.2,2.1,25.4-5,31.3-3.2c6.8,2,18.9,10.3,41.5,6.6c17.7-2.9,26.7-8.8,31.2-8C222.7,347.1,246.9,351.2,262.7,339.8z"/>
			<path class="st103" d="M261.5,339.9c14.8-10.1,14.6-37.4,7-49.7c-12-19.5-30.5-16.3-41.5-21.2c-8.4-3.8-20.5-24.9-34.1-27.6
				c-13.6-2.7-32.9-0.2-48.9,4.6c-18.1,5.4-40.5,31.9-48.4,39.8c-9.3,9.3-26.3,31.4-14.9,45c5.2,6.2,11.8,16,29,17.8
				c17.5,1.8,25.4-5.7,31.1-3.9c6.8,2.1,19,10.7,41.9,7c18-2.9,27.2-9.1,31.4-8.1C223,345.7,245.8,350.6,261.5,339.9z"/>
			<path class="st104" d="M260.2,340c15-9.4,15.1-36.2,7.6-48.5c-12-19.7-30.5-16.2-41.5-21c-8.3-3.7-19.8-25.2-33.4-28.1
				c-13.2-2.8-33.1-0.6-49.1,4.2c-18.2,5.5-40.1,31.9-47.5,39.2c-8.7,8.6-27.1,30.1-15.3,44.2c5,5.9,11.3,15.6,28.7,17.1
				c17.7,1.6,25.5-6.4,30.9-4.6c6.7,2.3,19.2,11.1,42.3,7.4c18.2-2.9,27.6-9.4,31.7-8.2C223.3,344.3,244.6,349.9,260.2,340z"/>
			<path class="st105" d="M259,340.2c15.1-8.8,15.6-35.1,8.2-47.3c-12-19.9-30.5-16-41.4-20.8c-8.1-3.6-19.1-25.4-32.6-28.5
				c-12.8-2.9-33.3-1.1-49.3,3.7c-18.2,5.5-39.7,31.9-46.6,38.6c-8.1,7.9-27.9,28.8-15.6,43.4c4.7,5.6,10.8,15.2,28.4,16.4
				c18,1.3,25.6-7.1,30.8-5.2c6.7,2.4,19.4,11.5,42.7,7.8c18.5-2.9,28-9.8,31.9-8.3C223.7,342.9,243.4,349.3,259,340.2z"/>
			<path class="st106" d="M257.8,340.3c15.2-8.2,16.1-33.9,8.8-46.2c-12-20.1-30.4-15.9-41.4-20.6c-7.9-3.5-18.3-25.7-31.8-29
				c-12.4-3.1-33.5-1.6-49.4,3.3c-18.3,5.6-39.4,31.9-45.7,38.1c-7.5,7.2-28.7,27.6-16,42.6c4.5,5.3,10.3,14.8,28.1,15.7
				c18.3,0.9,25.6-7.8,30.6-5.9c6.6,2.6,19.6,11.9,43.1,8.3c18.8-2.9,28.5-10.1,32.2-8.4C224,341.6,242.3,348.7,257.8,340.3z"/>
			<path class="st107" d="M256.6,340.5c15.4-7.5,16.6-32.8,9.4-45c-11.9-20.3-30.4-15.7-41.4-20.4c-7.8-3.4-17.6-25.9-31.1-29.4
				c-12-3.2-33.7-2-49.6,2.9c-18.3,5.6-39,31.9-44.8,37.5c-6.9,6.5-29.5,26.3-16.3,41.8c4.2,5,9.8,14.4,27.8,15
				c18.6,0.7,25.7-8.5,30.4-6.5c6.6,2.7,19.8,12.3,43.5,8.7c19-2.9,28.9-10.4,32.5-8.6C224.4,340.2,241.1,348.1,256.6,340.5z"/>
			<path class="st108" d="M255.4,340.6c15.5-6.8,17.1-31.6,10-43.8c-11.9-20.4-30.4-15.6-41.3-20.2c-7.6-3.3-16.9-26.1-30.3-29.9
				c-11.6-3.3-33.9-2.5-49.8,2.4c-18.4,5.7-38.6,31.9-43.9,36.9c-6.3,5.8-30.2,25.1-16.7,41c4,4.7,9.3,14,27.5,14.3
				c18.8,0.4,25.7-9.2,30.2-7.2c6.5,2.8,20,12.8,44,9.1c19.3-2.9,29.3-10.7,32.7-8.7C224.7,338.8,240,347.5,255.4,340.6z"/>
		</g>
		<path class="st111" d="M240.6,270.2c-4.3-0.2-8.5,0.4-12.4,1.6c-5.1-25.8-27.2-45.9-54.7-47.3c-26.7-1.4-50.1,15.2-58.5,39.1h0
			c-22.5-1.2-41.7,16.1-42.9,38.7c-1.2,22.5,16.2,41.7,38.7,42.9c11.6,0.6,22.3-3.7,30.2-11.1c7.8,4.6,16.8,7.4,26.5,7.9
			c17.3,0.9,33.2-5.8,44.5-17.1c5.8,7.5,14.8,12.5,25.1,13.1c18.7,1,34.7-13.4,35.7-32.2C273.8,287.1,259.4,271.1,240.6,270.2z"/>
	</g>
</g>
</svg>
