<?xml version="1.0" encoding="utf-8"?>
<!-- Generator: Adobe Illustrator 25.0.0, SVG Export Plug-In . SVG Version: 6.00 Build 0)  -->
<svg version="1.1" id="_x3C_Layer_x3E_" xmlns="http://www.w3.org/2000/svg" xmlns:xlink="http://www.w3.org/1999/xlink" x="0px"
	 y="0px" viewBox="0 0 500 500" style="enable-background:new 0 0 500 500;" xml:space="preserve">
<style type="text/css">
	.st0{opacity:0.1;}
	.st1{opacity:0.5;}
	.st2{opacity:0;fill:#FFFFFF;}
	.st3{opacity:4.761905e-02;fill:#F9FBFB;}
	.st4{opacity:9.523810e-02;fill:#F3F6F7;}
	.st5{opacity:0.1429;fill:#EEF2F4;}
	.st6{opacity:0.1905;fill:#E8EDF0;}
	.st7{opacity:0.2381;fill:#E2E9EC;}
	.st8{opacity:0.2857;fill:#DCE4E8;}
	.st9{opacity:0.3333;fill:#D7E0E5;}
	.st10{opacity:0.381;fill:#D1DCE1;}
	.st11{opacity:0.4286;fill:#CBD7DD;}
	.st12{opacity:0.4762;fill:#C5D3D9;}
	.st13{opacity:0.5238;fill:#C0CED6;}
	.st14{opacity:0.5714;fill:#BACAD2;}
	.st15{opacity:0.619;fill:#B4C5CE;}
	.st16{opacity:0.6667;fill:#AEC1CA;}
	.st17{opacity:0.7143;fill:#A9BDC7;}
	.st18{opacity:0.7619;fill:#A3B8C3;}
	.st19{opacity:0.8095;fill:#9DB4BF;}
	.st20{opacity:0.8571;fill:#97AFBB;}
	.st21{opacity:0.9048;fill:#92ABB8;}
	.st22{opacity:0.9524;fill:#8CA6B4;}
	.st23{fill:#86A2B0;}
	.st24{fill:#FFE3AB;}
	.st25{fill:url(#SVGID_1_);}
	.st26{fill:url(#SVGID_2_);}
	.st27{fill:url(#SVGID_3_);}
	.st28{fill:url(#SVGID_4_);}
	.st29{fill:url(#SVGID_5_);}
	.st30{fill:url(#SVGID_6_);}
	.st31{fill:url(#SVGID_7_);}
	.st32{fill:url(#SVGID_8_);}
	.st33{fill:url(#SVGID_9_);}
	.st34{fill:url(#SVGID_10_);}
	.st35{fill:url(#SVGID_11_);}
	.st36{fill:url(#SVGID_12_);}
	.st37{fill:url(#SVGID_13_);}
	.st38{fill:url(#SVGID_14_);}
	.st39{fill:url(#SVGID_15_);}
	.st40{fill:url(#SVGID_16_);}
	.st41{opacity:2.380952e-02;fill:#F9FBFB;}
	.st42{opacity:4.761905e-02;fill:#F3F6F7;}
	.st43{opacity:7.142857e-02;fill:#EEF2F4;}
	.st44{opacity:9.523810e-02;fill:#E8EDF0;}
	.st45{opacity:0.119;fill:#E2E9EC;}
	.st46{opacity:0.1429;fill:#DCE4E8;}
	.st47{opacity:0.1667;fill:#D7E0E5;}
	.st48{opacity:0.1905;fill:#D1DCE1;}
	.st49{opacity:0.2143;fill:#CBD7DD;}
	.st50{opacity:0.2381;fill:#C5D3D9;}
	.st51{opacity:0.2619;fill:#C0CED6;}
	.st52{opacity:0.2857;fill:#BACAD2;}
	.st53{opacity:0.3095;fill:#B4C5CE;}
	.st54{opacity:0.3333;fill:#AEC1CA;}
	.st55{opacity:0.3571;fill:#A9BDC7;}
	.st56{opacity:0.381;fill:#A3B8C3;}
	.st57{opacity:0.4048;fill:#9DB4BF;}
	.st58{opacity:0.4286;fill:#97AFBB;}
	.st59{opacity:0.4524;fill:#92ABB8;}
	.st60{opacity:0.4762;fill:#8CA6B4;}
	.st61{opacity:0.5;fill:#86A2B0;}
	.st62{fill:url(#SVGID_17_);}
	.st63{opacity:0.15;}
	.st64{fill:url(#SVGID_18_);}
	.st65{opacity:2.857143e-02;fill:#F9FBFB;}
	.st66{opacity:5.714286e-02;fill:#F3F6F7;}
	.st67{opacity:8.571429e-02;fill:#EEF2F4;}
	.st68{opacity:0.1143;fill:#E8EDF0;}
	.st69{opacity:0.1429;fill:#E2E9EC;}
	.st70{opacity:0.1714;fill:#DCE4E8;}
	.st71{opacity:0.2;fill:#D7E0E5;}
	.st72{opacity:0.2286;fill:#D1DCE1;}
	.st73{opacity:0.2571;fill:#CBD7DD;}
	.st74{opacity:0.2857;fill:#C5D3D9;}
	.st75{opacity:0.3143;fill:#C0CED6;}
	.st76{opacity:0.3429;fill:#BACAD2;}
	.st77{opacity:0.3714;fill:#B4C5CE;}
	.st78{opacity:0.4;fill:#AEC1CA;}
	.st79{opacity:0.4286;fill:#A9BDC7;}
	.st80{opacity:0.4571;fill:#A3B8C3;}
	.st81{opacity:0.4857;fill:#9DB4BF;}
	.st82{opacity:0.5143;fill:#97AFBB;}
	.st83{opacity:0.5429;fill:#92ABB8;}
	.st84{opacity:0.5714;fill:#8CA6B4;}
	.st85{opacity:0.6;fill:#86A2B0;}
	.st86{fill:url(#SVGID_19_);}
	.st87{fill:url(#SVGID_20_);}
	.st88{fill:url(#SVGID_21_);}
	.st89{opacity:0.2;}
	.st90{opacity:9.523810e-02;fill:#F4F6F8;}
	.st91{opacity:0.1905;fill:#E9EDF1;}
	.st92{opacity:0.2381;fill:#E3E9ED;}
	.st93{opacity:0.2857;fill:#DEE5EA;}
	.st94{opacity:0.3333;fill:#D8E0E6;}
	.st95{opacity:0.381;fill:#D3DCE3;}
	.st96{opacity:0.4286;fill:#CDD8DF;}
	.st97{opacity:0.4762;fill:#C8D3DC;}
	.st98{opacity:0.5238;fill:#C2CFD8;}
	.st99{opacity:0.5714;fill:#BDCAD5;}
	.st100{opacity:0.619;fill:#B7C6D1;}
	.st101{opacity:0.6667;fill:#B2C2CE;}
	.st102{opacity:0.7143;fill:#ACBDCA;}
	.st103{opacity:0.7619;fill:#A7B9C7;}
	.st104{opacity:0.8095;fill:#A1B5C3;}
	.st105{opacity:0.8571;fill:#9CB0C0;}
	.st106{opacity:0.9048;fill:#96ACBC;}
	.st107{opacity:0.9524;fill:#91A7B9;}
	.st108{fill:#8BA3B5;}
	.st109{fill:#EEF7FA;}
	.st110{fill:#E4F1F5;}
	.st111{fill:#FFFFFF;}
	.st112{fill:#E9F2F5;}
	.st113{opacity:0.3;}
	.st114{fill:url(#SVGID_22_);}
	.st115{fill:url(#SVGID_23_);}
	.st116{fill:url(#SVGID_24_);}
	.st117{fill:url(#SVGID_25_);}
	.st118{fill:url(#SVGID_26_);}
	.st119{fill:url(#SVGID_27_);}
	.st120{fill:url(#SVGID_28_);}
	.st121{fill:url(#SVGID_29_);}
	.st122{fill:url(#SVGID_30_);}
	.st123{fill:url(#SVGID_31_);}
	.st124{fill:url(#SVGID_32_);}
	.st125{fill:url(#SVGID_33_);}
	.st126{fill:url(#SVGID_34_);}
	.st127{fill:url(#SVGID_35_);}
	.st128{fill:url(#SVGID_36_);}
	.st129{fill:url(#SVGID_37_);}
	.st130{fill:url(#SVGID_38_);}
	.st131{fill:url(#SVGID_39_);}
	.st132{opacity:5.000000e-02;}
	.st133{opacity:0;fill:#515151;}
	.st134{opacity:4.761905e-02;fill:#545556;}
	.st135{opacity:9.523810e-02;fill:#57595B;}
	.st136{opacity:0.1429;fill:#595D5F;}
	.st137{opacity:0.1905;fill:#5C6164;}
	.st138{opacity:0.2381;fill:#5F6569;}
	.st139{opacity:0.2857;fill:#62686E;}
	.st140{opacity:0.3333;fill:#646C72;}
	.st141{opacity:0.381;fill:#677077;}
	.st142{opacity:0.4286;fill:#6A747C;}
	.st143{opacity:0.4762;fill:#6D7881;}
	.st144{opacity:0.5238;fill:#6F7C85;}
	.st145{opacity:0.5714;fill:#72808A;}
	.st146{opacity:0.619;fill:#75848F;}
	.st147{opacity:0.6667;fill:#788894;}
	.st148{opacity:0.7143;fill:#7A8C98;}
	.st149{opacity:0.7619;fill:#7D8F9D;}
	.st150{opacity:0.8095;fill:#8093A2;}
	.st151{opacity:0.8571;fill:#8397A7;}
	.st152{opacity:0.9048;fill:#859BAB;}
	.st153{opacity:0.9524;fill:#889FB0;}
	.st154{fill:#008DD4;}
	.st155{fill:url(#SVGID_40_);}
	.st156{fill:#4FC5FF;}
	.st157{fill:url(#SVGID_41_);}
	.st158{fill:url(#SVGID_42_);}
	.st159{fill:#63CCFF;}
	.st160{fill:#007FC9;}
	.st161{fill:#6ED8FF;}
	.st162{fill:#008CDE;}
	.st163{fill:#B3EDFF;}
	.st164{fill:#61D7FF;}
	.st165{fill:url(#SVGID_43_);}
	.st166{fill:url(#SVGID_44_);}
	.st167{opacity:2.580645e-02;fill:#505051;}
	.st168{opacity:5.161290e-02;fill:#4E4F51;}
	.st169{opacity:7.741936e-02;fill:#4D4F50;}
	.st170{opacity:0.1032;fill:#4C4E50;}
	.st171{opacity:0.129;fill:#4B4D50;}
	.st172{opacity:0.1548;fill:#494C50;}
	.st173{opacity:0.1806;fill:#484B4F;}
	.st174{opacity:0.2065;fill:#474B4F;}
	.st175{opacity:0.2323;fill:#464A4F;}
	.st176{opacity:0.2581;fill:#44494F;}
	.st177{opacity:0.2839;fill:#43484F;}
	.st178{opacity:0.3097;fill:#42474E;}
	.st179{opacity:0.3355;fill:#41474E;}
	.st180{opacity:0.3613;fill:#3F464E;}
	.st181{opacity:0.3871;fill:#3E454E;}
	.st182{opacity:0.4129;fill:#3D444D;}
	.st183{opacity:0.4387;fill:#3C434D;}
	.st184{opacity:0.4645;fill:#3A424D;}
	.st185{opacity:0.4903;fill:#39424D;}
	.st186{opacity:0.5161;fill:#38414C;}
	.st187{opacity:0.5419;fill:#37404C;}
	.st188{opacity:0.5677;fill:#353F4C;}
	.st189{opacity:0.5935;fill:#343E4C;}
	.st190{opacity:0.6194;fill:#333E4C;}
	.st191{opacity:0.6452;fill:#323D4B;}
	.st192{opacity:0.671;fill:#303C4B;}
	.st193{opacity:0.6968;fill:#2F3B4B;}
	.st194{opacity:0.7226;fill:#2E3A4B;}
	.st195{opacity:0.7484;fill:#2D3A4A;}
	.st196{opacity:0.7742;fill:#2B394A;}
	.st197{opacity:0.8;fill:#2A384A;}
	.st198{fill:url(#SVGID_45_);}
	.st199{fill:url(#SVGID_46_);}
	.st200{fill:#91D5EB;}
	.st201{fill:#E1F0FA;}
	.st202{fill:#9DDEF2;}
	.st203{fill:#A2DEF2;}
	.st204{fill:#BEE9F7;}
	.st205{fill:#C8EEFA;}
	.st206{fill:url(#SVGID_47_);}
	.st207{opacity:0.3;fill:url(#SVGID_48_);}
	.st208{opacity:2.580645e-02;fill:#FBFCFC;}
	.st209{opacity:5.161290e-02;fill:#F7F9FA;}
	.st210{opacity:7.741936e-02;fill:#F3F6F7;}
	.st211{opacity:0.1032;fill:#EFF3F5;}
	.st212{opacity:0.129;fill:#EBF0F2;}
	.st213{opacity:0.1548;fill:#E8EDF0;}
	.st214{opacity:0.1806;fill:#E4EAED;}
	.st215{opacity:0.2065;fill:#E0E7EB;}
	.st216{opacity:0.2323;fill:#DCE4E8;}
	.st217{opacity:0.2581;fill:#D8E1E6;}
	.st218{opacity:0.2839;fill:#D4DEE3;}
	.st219{opacity:0.3097;fill:#D0DBE0;}
	.st220{opacity:0.3355;fill:#CCD8DE;}
	.st221{opacity:0.3613;fill:#C8D5DB;}
	.st222{opacity:0.3871;fill:#C4D2D9;}
	.st223{opacity:0.4129;fill:#C1CFD6;}
	.st224{opacity:0.4387;fill:#BDCCD4;}
	.st225{opacity:0.4645;fill:#B9C9D1;}
	.st226{opacity:0.4903;fill:#B5C6CF;}
	.st227{opacity:0.5161;fill:#B1C3CC;}
	.st228{opacity:0.5419;fill:#ADC0C9;}
	.st229{opacity:0.5677;fill:#A9BDC7;}
	.st230{opacity:0.5935;fill:#A5BAC4;}
	.st231{opacity:0.6194;fill:#A1B7C2;}
	.st232{opacity:0.6452;fill:#9DB4BF;}
	.st233{opacity:0.671;fill:#9AB1BD;}
	.st234{opacity:0.6968;fill:#96AEBA;}
	.st235{opacity:0.7226;fill:#92ABB8;}
	.st236{opacity:0.7484;fill:#8EA8B5;}
	.st237{opacity:0.7742;fill:#8AA5B3;}
	.st238{opacity:0.8;fill:#86A2B0;}
	.st239{fill:url(#SVGID_49_);}
	.st240{clip-path:url(#SVGID_51_);}
	.st241{fill:#0A4D80;}
	.st242{fill:url(#SVGID_52_);}
	.st243{clip-path:url(#SVGID_54_);}
</style>
<g>
	<g>
		<g class="st0">
			<g class="st1">
				<path class="st2" d="M331.3,222.4c-19-7.2-20.3-26.8-3-42.9c9.1-8.5,23.7-13.5,41-10.8c18.8,2.9,26.7,17.9,14.4,33.9
					C371.6,218.3,349.1,229.2,331.3,222.4z"/>
				<path class="st3" d="M332,221.6c-18.7-6.8-19.9-26-3-41.7c9.1-8.4,23.4-13.2,40.1-10.6c18.2,2.8,25.9,17.3,13.7,33
					C371.1,217.5,349.4,227.9,332,221.6z"/>
				<path class="st4" d="M332.7,220.7c-18.4-6.4-19.6-25.3-3-40.4c9-8.2,23.2-12.8,39.3-10.3c17.6,2.7,25.1,16.7,13.1,32.1
					C370.5,216.7,349.7,226.7,332.7,220.7z"/>
				<path class="st5" d="M333.3,219.8c-18-6.1-19.2-24.6-3-39.1c9-8.1,22.9-12.4,38.4-10.1c17,2.5,24.3,16.1,12.4,31.1
					C370,215.9,350,225.4,333.3,219.8z"/>
				<path class="st6" d="M334,218.9c-17.7-5.7-18.8-23.8-3-37.8c9-7.9,22.7-12.1,37.6-9.9c16.4,2.4,23.5,15.5,11.7,30.2
					C369.4,215.1,350.3,224.1,334,218.9z"/>
				<path class="st7" d="M334.7,218c-17.4-5.3-18.5-23.1-3-36.5c9-7.8,22.5-11.7,36.7-9.6c15.8,2.3,22.7,14.9,11.1,29.3
					C368.9,214.3,350.5,222.9,334.7,218z"/>
				<path class="st8" d="M335.3,217.2c-17.1-4.9-18.1-22.3-3-35.2c9-7.7,22.2-11.4,35.9-9.4c15.3,2.1,21.9,14.3,10.4,28.3
					C368.4,213.4,350.8,221.6,335.3,217.2z"/>
				<path class="st9" d="M336,216.3c-16.7-4.6-17.7-21.6-3-33.9c9-7.5,22-11,35-9.1c14.6,2.1,21.1,13.8,9.8,27.4
					C367.9,212.6,351.1,220.4,336,216.3z"/>
				<path class="st10" d="M336.7,215.4c-16.4-4.2-17.3-20.8-3-32.6c8.9-7.4,21.7-10.6,34.2-8.9c14.1,1.9,20.3,13.2,9.1,26.5
					C367.3,211.8,351.4,219.1,336.7,215.4z"/>
				<path class="st11" d="M337.3,214.5c-16.1-3.8-16.9-20-3-31.3c8.9-7.2,21.5-10.2,33.3-8.6c13.5,1.8,19.4,12.6,8.5,25.5
					C366.8,211,351.6,217.9,337.3,214.5z"/>
				<path class="st12" d="M338,213.6c-15.8-3.4-16.5-19.3-3-30c8.9-7.1,21.3-9.9,32.5-8.4c12.9,1.7,18.6,12,7.8,24.6
					C366.3,210.2,351.9,216.6,338,213.6z"/>
				<path class="st13" d="M338.7,212.8c-15.4-3-16.1-18.5-3-28.7c8.9-6.9,21-9.5,31.6-8.2c12.3,1.5,17.8,11.5,7.1,23.7
					C365.8,209.4,352.2,215.4,338.7,212.8z"/>
				<path class="st14" d="M339.3,211.9c-15.1-2.6-15.7-17.7-3-27.4c8.9-6.8,20.8-9.1,30.8-7.9c11.7,1.4,17,10.9,6.5,22.7
					C365.2,208.6,352.5,214.2,339.3,211.9z"/>
				<path class="st15" d="M340,211c-14.8-2.2-15.3-17-3-26.1c8.9-6.6,20.5-8.8,29.9-7.7c11.1,1.3,16.3,10.3,5.8,21.8
					C364.7,207.8,352.7,212.9,340,211z"/>
				<path class="st16" d="M340.7,210.1c-14.5-1.8-14.9-16.2-3-24.8c8.9-6.5,20.3-8.4,29.1-7.4c10.5,1.2,15.5,9.7,5.2,20.9
					C364.2,207,353,211.7,340.7,210.1z"/>
				<path class="st17" d="M341.3,209.2c-14.1-1.4-14.5-15.4-3-23.5c8.9-6.3,20.1-8,28.2-7.2c9.9,1,14.7,9.2,4.5,20
					C363.7,206.2,353.3,210.4,341.3,209.2z"/>
				<path class="st18" d="M342,208.3c-13.8-1-14.1-14.6-3-22.2c8.9-6.2,19.8-7.7,27.4-7c9.3,0.9,13.9,8.6,3.8,19
					C363.2,205.4,353.6,209.2,342,208.3z"/>
				<path class="st19" d="M342.6,207.5c-13.5-0.6-13.7-13.8-3-20.9c8.9-6,19.6-7.3,26.5-6.7c8.7,0.8,13.1,8,3.2,18.1
					C362.7,204.6,353.8,208,342.6,207.5z"/>
				<path class="st20" d="M343.3,206.6c-13.2-0.2-13.3-13-3-19.7c8.9-5.8,19.3-7,25.7-6.5c8.1,0.6,12.3,7.5,2.5,17.2
					C362.2,203.8,354.1,206.8,343.3,206.6z"/>
				<path class="st21" d="M344,205.7c-12.8,0.2-12.8-12.2-3-18.4c9-5.6,19.1-6.6,24.8-6.2c7.5,0.5,11.6,6.9,1.9,16.2
					C361.7,203,354.4,205.5,344,205.7z"/>
				<path class="st22" d="M344.6,204.8c-12.5,0.6-12.4-11.4-3-17.1c9-5.4,18.9-6.3,24-6c6.9,0.4,10.8,6.4,1.2,15.3
					C361.2,202.3,354.7,204.3,344.6,204.8z"/>
				<path class="st23" d="M345.3,203.9c-12.2,1.1-12-10.6-3-15.8c9-5.2,18.6-5.9,23.1-5.7c6.3,0.2,10,5.9,0.6,14.4
					C360.7,201.5,354.9,203.1,345.3,203.9z"/>
			</g>
			<g class="st1">
				<path class="st2" d="M308.8,172.2c-18.5,8.4-37.3-7.1-36.6-30.7c0.4-12.4,7.1-26.3,21.3-36.7c15.3-11.3,36.2,1.3,38.9,21.4
					C334.9,145.9,326.1,164.4,308.8,172.2z"/>
				<path class="st3" d="M308.4,171c-18,8.4-36.3-6.7-35.5-29.7c0.5-12.3,7.2-25.9,20.8-35.9c14.8-11,35,1.1,37.5,20.8
					C333.7,145.3,325.2,163.2,308.4,171z"/>
				<path class="st4" d="M308.1,169.8c-17.5,8.5-35.4-6.3-34.4-28.7c0.5-12.2,7.3-25.4,20.4-35.1c14.3-10.6,33.8,0.9,36.2,20.3
					C332.5,144.7,324.4,162,308.1,169.8z"/>
				<path class="st5" d="M307.7,168.6c-17,8.5-34.4-5.9-33.3-27.6c0.6-12.1,7.4-25,20-34.4c13.8-10.3,32.6,0.7,34.8,19.7
					C331.4,144.2,323.5,160.7,307.7,168.6z"/>
				<path class="st6" d="M307.4,167.4c-16.5,8.5-33.4-5.6-32.2-26.6c0.7-12,7.5-24.6,19.5-33.6c13.3-10,31.3,0.5,33.5,19.2
					C330.2,143.6,322.6,159.5,307.4,167.4z"/>
				<path class="st7" d="M307,166.2c-16,8.6-32.4-5.2-31.1-25.6c0.8-11.9,7.5-24.2,19.1-32.8c12.8-9.6,30.1,0.3,32.1,18.6
					C329,143.1,321.7,158.3,307,166.2z"/>
				<path class="st8" d="M306.7,164.9c-15.5,8.6-31.4-4.8-29.9-24.5c0.9-11.8,7.6-23.7,18.7-32c12.3-9.3,28.9,0.1,30.8,18.1
					C327.8,142.5,320.8,157.1,306.7,164.9z"/>
				<path class="st9" d="M306.3,163.7c-15,8.6-30.4-4.4-28.8-23.5c1-11.7,7.7-23.3,18.2-31.3c11.8-9,27.7-0.1,29.4,17.5
					C326.7,141.9,319.9,155.9,306.3,163.7z"/>
				<path class="st10" d="M306,162.5c-14.5,8.7-29.4-4-27.7-22.5c1.1-11.5,7.8-22.9,17.8-30.5c11.3-8.6,26.5-0.3,28.1,16.9
					C325.5,141.4,319,154.7,306,162.5z"/>
				<path class="st11" d="M305.7,161.3c-14,8.7-28.4-3.6-26.6-21.4c1.2-11.4,7.9-22.4,17.4-29.7c10.8-8.3,25.3-0.5,26.7,16.4
					C324.3,140.8,318.1,153.5,305.7,161.3z"/>
				<path class="st12" d="M305.3,160.1c-13.5,8.8-27.4-3.2-25.5-20.4c1.3-11.3,8-22,16.9-28.9c10.3-7.9,24.1-0.7,25.4,15.8
					C323.2,140.3,317.3,152.3,305.3,160.1z"/>
				<path class="st13" d="M305,158.8c-13,8.8-26.4-2.9-24.4-19.3c1.4-11.2,8.1-21.6,16.5-28.2c9.7-7.6,22.9-0.9,24,15.3
					C322,139.7,316.4,151.1,305,158.8z"/>
				<path class="st14" d="M304.6,157.6c-12.5,8.8-25.4-2.5-23.3-18.3c1.5-11.1,8.2-21.2,16.1-27.4c9.2-7.3,21.7-1.1,22.7,14.7
					C320.8,139.1,315.5,149.9,304.6,157.6z"/>
				<path class="st15" d="M304.3,156.4c-12,8.9-24.4-2.1-22.2-17.3c1.6-11,8.3-20.7,15.7-26.6c8.7-6.9,20.6-1.3,21.3,14.2
					C319.7,138.6,314.6,148.7,304.3,156.4z"/>
				<path class="st16" d="M303.9,155.2c-11.5,8.9-23.3-1.7-21.1-16.2c1.7-10.9,8.4-20.3,15.2-25.8c8.2-6.6,19.4-1.5,20,13.6
					C318.5,138,313.7,147.5,303.9,155.2z"/>
				<path class="st17" d="M303.6,154c-11,9-22.3-1.3-19.9-15.2c1.8-10.8,8.4-19.9,14.8-25.1c7.7-6.3,18.2-1.8,18.7,13.1
					C317.4,137.4,312.9,146.4,303.6,154z"/>
				<path class="st18" d="M303.2,152.8c-10.5,9.1-21.2-0.9-18.8-14.2c1.9-10.7,8.5-19.5,14.4-24.3c7.2-6,17-2,17.3,12.5
					C316.2,136.9,312,145.2,303.2,152.8z"/>
				<path class="st19" d="M302.9,151.5c-10,9.1-20.2-0.5-17.7-13.1c2.1-10.6,8.6-19,13.9-23.5c6.7-5.6,15.9-2.2,16,12
					C315.1,136.3,311.1,144,302.9,151.5z"/>
				<path class="st20" d="M302.5,150.3c-9.4,9.2-19.1-0.1-16.6-12.1c2.2-10.4,8.7-18.6,13.5-22.7c6.2-5.3,14.7-2.4,14.6,11.4
					C314,135.8,310.2,142.8,302.5,150.3z"/>
				<path class="st21" d="M302.2,149.1c-8.9,9.2-18.1,0.3-15.5-11.1c2.3-10.3,8.8-18.2,13.1-22c5.6-5,13.5-2.6,13.3,10.8
					C312.8,135.2,309.4,141.6,302.2,149.1z"/>
				<path class="st22" d="M301.8,147.9c-8.4,9.3-17,0.7-14.4-10c2.5-10.2,8.9-17.8,12.6-21.2c5.1-4.7,12.4-2.8,11.9,10.3
					C311.7,134.6,308.5,140.5,301.8,147.9z"/>
				<path class="st23" d="M301.5,146.7c-7.8,9.4-15.9,1.1-13.3-9c2.6-10.1,9-17.4,12.2-20.4c4.6-4.3,11.3-3,10.6,9.7
					C310.6,134.1,307.7,139.3,301.5,146.7z"/>
			</g>
			<g class="st1">
				<path class="st2" d="M250.1,150.4c-5.9,19.5-25.3,22.1-42.6,6c-9.1-8.5-15.1-22.7-13.6-40.2c1.6-19,23.6-21.8,40.5-10.6
					C250.8,116.6,255.6,132.1,250.1,150.4z"/>
				<path class="st3" d="M249.2,149.8c-5.5,19.1-24.6,21.6-41.3,5.9c-9-8.5-14.8-22.4-13.3-39.3c1.5-18.4,22.7-21.2,39.3-10.1
					C249.7,116.9,254.3,131.9,249.2,149.8z"/>
				<path class="st4" d="M248.2,149.2c-5.2,18.8-23.9,21.2-40,5.8c-8.8-8.5-14.4-22.2-13-38.5c1.4-17.8,21.8-20.7,38-9.7
					C248.6,117.2,253,131.7,248.2,149.2z"/>
				<path class="st5" d="M247.3,148.6c-4.8,18.4-23.2,20.8-38.8,5.7c-8.7-8.4-14-22-12.7-37.7c1.3-17.2,20.9-20.1,36.8-9.3
					C247.4,117.5,251.7,131.6,247.3,148.6z"/>
				<path class="st6" d="M246.4,147.9c-4.4,18.1-22.5,20.4-37.5,5.6c-8.6-8.4-13.6-21.8-12.4-36.8c1.3-16.6,20-19.6,35.5-8.9
					C246.3,117.8,250.5,131.4,246.4,147.9z"/>
				<path class="st7" d="M245.5,147.3c-4.1,17.7-21.7,20-36.2,5.5c-8.4-8.4-13.2-21.6-12.1-36c1.2-16,19.2-19,34.3-8.4
					C245.2,118.1,249.2,131.2,245.5,147.3z"/>
				<path class="st8" d="M244.5,146.7c-3.7,17.4-21,19.5-34.9,5.4c-8.3-8.4-12.9-21.4-11.8-35.2c1.1-15.4,18.3-18.4,33-8
					C244,118.4,247.9,131,244.5,146.7z"/>
				<path class="st9" d="M243.6,146.1c-3.4,17-20.3,19.1-33.6,5.3c-8.1-8.4-12.4-21.2-11.5-34.3c1-14.8,17.4-17.9,31.8-7.6
					C242.9,118.7,246.7,130.8,243.6,146.1z"/>
				<path class="st10" d="M242.7,145.5c-3,16.6-19.6,18.7-32.3,5.3c-8-8.4-12.1-20.9-11.2-33.5c0.9-14.2,16.5-17.3,30.5-7.1
					C241.7,119,245.4,130.6,242.7,145.5z"/>
				<path class="st11" d="M241.8,144.9c-2.7,16.3-18.8,18.2-31,5.2c-7.8-8.4-11.7-20.7-10.9-32.6c0.9-13.6,15.6-16.8,29.3-6.7
					C240.6,119.3,244.1,130.4,241.8,144.9z"/>
				<path class="st12" d="M240.8,144.3c-2.3,15.9-18.1,17.8-29.7,5.1c-7.7-8.4-11.3-20.5-10.6-31.8c0.8-12.9,14.7-16.2,28-6.3
					C239.5,119.5,242.9,130.2,240.8,144.3z"/>
				<path class="st13" d="M239.9,143.7c-1.9,15.6-17.3,17.3-28.4,5c-7.6-8.4-10.9-20.3-10.3-31c0.7-12.3,13.8-15.7,26.8-5.8
					C238.3,119.8,241.6,130,239.9,143.7z"/>
				<path class="st14" d="M239,143.1c-1.6,15.2-16.6,16.9-27.1,4.9c-7.4-8.4-10.5-20.1-10-30.1c0.6-11.7,13-15.1,25.5-5.4
					C237.2,120.1,240.3,129.8,239,143.1z"/>
				<path class="st15" d="M238.1,142.5c-1.2,14.9-15.9,16.4-25.8,4.8c-7.2-8.4-10.2-19.9-9.7-29.3c0.5-11.1,12.1-14.6,24.3-5
					C236.1,120.4,239.1,129.7,238.1,142.5z"/>
				<path class="st16" d="M237.1,141.9c-0.8,14.5-15.1,16-24.6,4.7c-7.1-8.4-9.8-19.7-9.4-28.5c0.4-10.5,11.2-14.1,23-4.5
					C235,120.7,237.8,129.5,237.1,141.9z"/>
				<path class="st17" d="M236.2,141.3c-0.5,14.2-14.3,15.5-23.3,4.6c-6.9-8.5-9.4-19.4-9.1-27.6c0.3-9.9,10.3-13.5,21.8-4.1
					C233.8,120.9,236.6,129.3,236.2,141.3z"/>
				<path class="st18" d="M235.3,140.7c-0.1,13.8-13.6,15-22,4.5c-6.8-8.5-9-19.2-8.8-26.8c0.2-9.3,9.4-13,20.5-3.7
					C232.7,121.2,235.3,129.1,235.3,140.7z"/>
				<path class="st19" d="M234.4,140.1c0.3,13.5-12.8,14.6-20.7,4.4c-6.6-8.5-8.7-19-8.5-26c0.2-8.7,8.6-12.5,19.3-3.3
					C231.6,121.5,234.1,128.9,234.4,140.1z"/>
				<path class="st20" d="M233.4,139.5c0.7,13.1-12,14.1-19.4,4.3c-6.4-8.5-8.3-18.8-8.2-25.1c0.1-8.1,7.7-11.9,18-2.8
					C230.5,121.7,232.8,128.7,233.4,139.5z"/>
				<path class="st21" d="M232.5,138.9c1.1,12.8-11.3,13.6-18.1,4.3c-6.2-8.5-7.9-18.6-7.9-24.3c0-7.5,6.9-11.4,16.8-2.4
					C229.4,122,231.6,128.5,232.5,138.9z"/>
				<path class="st22" d="M231.6,138.3c1.5,12.4-10.5,13.1-16.8,4.2c-6-8.6-7.5-18.4-7.6-23.5c-0.1-6.9,6-10.9,15.5-2
					C228.2,122.3,230.4,128.3,231.6,138.3z"/>
				<path class="st23" d="M230.6,137.7c1.9,12.1-9.7,12.7-15.5,4.1c-5.9-8.6-7.2-18.2-7.3-22.6c-0.2-6.3,5.2-10.4,14.3-1.5
					C227.1,122.5,229.2,128.1,230.6,137.7z"/>
			</g>
			<g class="st1">
				<path class="st2" d="M316.6,279.7c-9.5-18,2.6-33.5,26.2-34.1c12.4-0.3,26.7,5.6,37.9,19.1c12.2,14.7,8.2,31.1-11.8,34.9
					C349.4,303.4,325.4,296.6,316.6,279.7z"/>
				<path class="st3" d="M317.6,279.5c-9.5-17.5,2.4-32.7,25.4-33.2c12.3-0.3,26.2,5.7,37.1,18.7c11.8,14.2,7.9,30.2-11.6,33.8
					C349.6,302.4,326.5,295.8,317.6,279.5z"/>
				<path class="st4" d="M318.7,279.3c-9.5-17,2.2-31.9,24.5-32.2c12.2-0.2,25.8,5.8,36.3,18.3c11.4,13.7,7.7,29.2-11.5,32.7
					C349.7,301.4,327.5,295.1,318.7,279.3z"/>
				<path class="st5" d="M319.8,279.1c-9.5-16.5,1.9-31.4,23.7-31.2c12.1,0.1,25.4,5.9,35.5,17.9c11.1,13.2,7.5,28.2-11.4,31.5
					C349.8,300.5,328.6,294.3,319.8,279.1z"/>
				<path class="st6" d="M320.9,278.9c-9.5-16,1.7-30.6,22.8-30.3c12,0.2,25,6,34.7,17.6c10.7,12.7,7.3,27.2-11.3,30.4
					C350,299.5,329.6,293.6,320.9,278.9z"/>
				<path class="st7" d="M322,278.6c-9.5-15.5,1.5-29.9,21.9-29.3c11.9,0.4,24.6,6.2,33.9,17.2c10.3,12.2,7,26.2-11.1,29.3
					C350.1,298.5,330.6,292.8,322,278.6z"/>
				<path class="st8" d="M323.1,278.4c-9.5-15,1.3-28.7,21.1-28.3c11.8,0.2,24.1,6.3,33.1,16.8c10,11.7,6.8,25.3-11,28.1
					C350.3,297.6,331.7,292.1,323.1,278.4z"/>
				<path class="st9" d="M324.2,278.2c-9.5-14.5,1.1-27.9,20.2-27.4c11.7,0.3,23.7,6.4,32.3,16.4c9.6,11.2,6.6,24.3-10.9,27
					C350.4,296.6,332.7,291.3,324.2,278.2z"/>
				<path class="st10" d="M325.2,278c-9.5-14,0.9-27,19.4-26.4c11.6,0.4,23.3,6.5,31.5,16c9.3,10.7,6.4,23.3-10.8,25.9
					C350.6,295.7,333.8,290.5,325.2,278z"/>
				<path class="st11" d="M326.3,277.8c-9.5-13.5,0.7-26.2,18.5-25.4c11.5,0.5,22.9,6.6,30.7,15.6c8.9,10.3,6.2,22.4-10.6,24.7
					C350.7,294.7,334.8,289.8,326.3,277.8z"/>
				<path class="st12" d="M327.4,277.5c-9.5-13,0.4-25.4,17.6-24.5c11.4,0.6,22.5,6.7,29.9,15.3c8.5,9.8,6,21.4-10.5,23.6
					C350.8,293.8,335.8,289,327.4,277.5z"/>
				<path class="st13" d="M328.5,277.3c-9.5-12.5,0.2-24.5,16.8-23.5c11.3,0.7,22,6.8,29.1,14.9c8.2,9.3,5.7,20.4-10.4,22.5
					C351,292.8,336.9,288.3,328.5,277.3z"/>
				<path class="st14" d="M329.6,277.1c-9.6-12,0-23.7,15.9-22.5c11.2,0.8,21.6,7,28.3,14.5c7.8,8.8,5.5,19.5-10.3,21.3
					C351.1,291.9,337.9,287.5,329.6,277.1z"/>
				<path class="st15" d="M330.7,276.9c-9.6-11.5-0.2-22.8,15.1-21.5c11.1,0.9,21.2,7.1,27.5,14.1c7.4,8.3,5.3,18.5-10.1,20.2
					C351.3,290.9,338.9,286.8,330.7,276.9z"/>
				<path class="st16" d="M331.7,276.7c-9.6-11-0.4-22,14.2-20.6c11,1.1,20.8,7.2,26.7,13.7c7.1,7.8,5.1,17.6-10,19.1
					C351.4,290,340,286.1,331.7,276.7z"/>
				<path class="st17" d="M332.8,276.5c-9.6-10.4-0.6-21.1,13.4-19.6c10.9,1.2,20.4,7.3,25.9,13.3c6.7,7.3,4.9,16.6-9.9,17.9
					C351.6,289.1,341,285.3,332.8,276.5z"/>
				<path class="st18" d="M333.9,276.2c-9.6-9.9-0.8-20.3,12.5-18.6c10.8,1.3,19.9,7.4,25.1,12.9c6.4,6.8,4.7,15.7-9.8,16.8
					C351.7,288.1,342,284.6,333.9,276.2z"/>
				<path class="st19" d="M335,276c-9.7-9.4-1.1-19.4,11.6-17.7c10.7,1.4,19.5,7.5,24.3,12.6c6,6.3,4.5,14.7-9.6,15.7
					C351.9,287.2,343,283.8,335,276z"/>
				<path class="st20" d="M336.1,275.8c-9.7-8.9-1.3-18.5,10.8-16.7c10.6,1.6,19.1,7.6,23.5,12.2c5.6,5.8,4.2,13.8-9.5,14.5
					C352,286.3,344,283.1,336.1,275.8z"/>
				<path class="st21" d="M337.2,275.6c-9.7-8.4-1.5-17.6,9.9-15.7c10.4,1.7,18.7,7.7,22.7,11.8c5.3,5.3,4,12.9-9.4,13.4
					C352.2,285.3,345.1,282.4,337.2,275.6z"/>
				<path class="st22" d="M338.2,275.4c-9.8-7.8-1.7-16.7,9.1-14.8c10.3,1.9,18.3,7.8,21.9,11.4c4.9,4.8,3.8,12-9.3,12.3
					C352.3,284.4,346.1,281.6,338.2,275.4z"/>
				<path class="st23" d="M339.3,275.2c-9.8-7.3-2-15.8,8.2-13.8c10.2,2.1,17.9,8,21.1,11c4.6,4.3,3.6,11.1-9.1,11.1
					C352.4,283.5,347.1,280.9,339.3,275.2z"/>
			</g>
			<g class="st1">
				<path class="st2" d="M270.1,308.7c6.2-19.4,25.7-21.6,42.7-5.2c8.9,8.6,14.7,22.9,12.9,40.4c-2,19-16.5,27.6-33.2,16.1
					C276.2,348.7,264.3,326.8,270.1,308.7z"/>
				<path class="st3" d="M270.8,309.1c5.9-19,25.1-21.2,41.5-5.1c8.8,8.6,14.3,22.6,12.5,39.4c-1.9,18.4-16,26.9-32.3,15.5
					C276.8,347.9,265.3,326.8,270.8,309.1z"/>
				<path class="st4" d="M271.6,309.5c5.5-18.7,24.5-20.7,40.3-5c8.7,8.6,13.9,22.2,12.2,38.4c-1.8,17.8-15.6,26.2-31.5,14.9
					C277.4,347.1,266.4,326.8,271.6,309.5z"/>
				<path class="st5" d="M272.3,309.9c5.2-18.3,23.9-20.3,39.2-4.9c8.5,8.6,13.4,21.8,11.9,37.4c-1.7,17.1-15,25.4-30.7,14.3
					C278,346.3,267.5,326.8,272.3,309.9z"/>
				<path class="st6" d="M273,310.2c4.8-18,23.2-19.8,38-4.7c8.4,8.6,13,21.5,11.5,36.4c-1.6,16.5-14.6,24.7-29.8,13.7
					C278.6,345.5,268.6,326.7,273,310.2z"/>
				<path class="st7" d="M273.8,310.6c4.4-17.6,22.6-19.4,36.8-4.6c8.2,8.6,12.6,21.1,11.2,35.5c-1.5,15.9-14.1,24-29,13.1
					C279.2,344.6,269.7,326.7,273.8,310.6z"/>
				<path class="st8" d="M274.5,311c4.1-17.3,22-18.9,35.6-4.5c8.1,8.6,12.2,20.7,10.9,34.5c-1.4,15.3-13.6,23.2-28.1,12.5
					C279.8,343.8,270.8,326.7,274.5,311z"/>
				<path class="st9" d="M275.2,311.4c3.7-16.9,21.3-18.5,34.4-4.4c8,8.6,11.7,20.3,10.6,33.5c-1.3,14.7-13.1,22.5-27.3,11.9
					C280.4,343,271.9,326.7,275.2,311.4z"/>
				<path class="st10" d="M276,311.8c3.3-16.6,20.7-18,33.2-4.3c7.8,8.6,11.3,20,10.2,32.5c-1.2,14.1-12.6,21.8-26.4,11.3
					C281,342.2,273,326.7,276,311.8z"/>
				<path class="st11" d="M276.7,312.2c3-16.2,20.1-17.5,32-4.2c7.7,8.6,10.9,19.6,9.9,31.5c-1.1,13.5-12.1,21.1-25.6,10.7
					C281.6,341.4,274,326.6,276.7,312.2z"/>
				<path class="st12" d="M277.4,312.5c2.6-15.9,19.4-17.1,30.8-4.1c7.5,8.6,10.5,19.2,9.6,30.5c-1,12.9-11.7,20.4-24.8,10.1
					C282.3,340.6,275.1,326.6,277.4,312.5z"/>
				<path class="st13" d="M278.2,312.9c2.2-15.6,18.8-16.6,29.6-4c7.4,8.6,10.1,18.9,9.3,29.5c-0.9,12.3-11.2,19.6-23.9,9.5
					C282.9,339.8,276.2,326.6,278.2,312.9z"/>
				<path class="st14" d="M278.9,313.3c1.9-15.2,18.1-16.1,28.4-3.9c7.2,8.6,9.7,18.5,8.9,28.5c-0.8,11.7-10.7,18.9-23.1,9
					C283.4,339,277.3,326.6,278.9,313.3z"/>
				<path class="st15" d="M279.6,313.7c1.5-14.9,17.4-15.6,27.2-3.8c7.1,8.6,9.2,18.1,8.6,27.5c-0.7,11.1-10.2,18.2-22.2,8.4
					C284,338.2,278.4,326.5,279.6,313.7z"/>
				<path class="st16" d="M280.4,314.1c1.1-14.5,16.8-15.2,26-3.7c6.9,8.6,8.8,17.7,8.3,26.5c-0.6,10.5-9.7,17.5-21.4,7.8
					C284.6,337.5,279.4,326.5,280.4,314.1z"/>
				<path class="st17" d="M281.1,314.5c0.7-14.2,16.1-14.7,24.8-3.6c6.8,8.6,8.4,17.4,8,25.6c-0.5,9.9-9.3,16.8-20.6,7.2
					C285.2,336.7,280.5,326.5,281.1,314.5z"/>
				<path class="st18" d="M281.8,314.9c0.3-13.8,15.4-14.2,23.6-3.5c6.6,8.6,8,17,7.6,24.6c-0.4,9.3-8.8,16.1-19.7,6.6
					C285.8,335.9,281.6,326.5,281.8,314.9z"/>
				<path class="st19" d="M282.6,315.2c0-13.5,14.8-13.7,22.4-3.4c6.4,8.6,7.6,16.6,7.3,23.6c-0.3,8.7-8.3,15.4-18.9,6
					C286.4,335.1,282.6,326.4,282.6,315.2z"/>
				<path class="st20" d="M283.3,315.6c-0.4-13.2,14.1-13.2,21.2-3.3c6.3,8.6,7.2,16.3,7,22.6c-0.2,8.1-7.9,14.7-18,5.4
					C287,334.3,283.7,326.4,283.3,315.6z"/>
				<path class="st21" d="M284.1,316c-0.8-12.8,13.4-12.7,20-3.2c6.1,8.7,6.8,15.9,6.7,21.6c-0.1,7.5-7.4,14-17.2,4.8
					C287.6,333.5,284.7,326.4,284.1,316z"/>
				<path class="st22" d="M284.8,316.4c-1.3-12.5,12.7-12.2,18.9-3.1c5.9,8.7,6.3,15.5,6.3,20.6c0,6.9-7,13.4-16.3,4.2
					C288.2,332.8,285.8,326.4,284.8,316.4z"/>
				<path class="st23" d="M285.5,316.8c-1.7-12.1,12-11.7,17.7-3c5.7,8.7,5.9,15.1,6,19.6c0.1,6.3-6.6,12.7-15.5,3.6
					C288.7,332,286.8,326.3,285.5,316.8z"/>
			</g>
			<g class="st1">
				<path class="st2" d="M212.8,299.8c17.6-10.2,33.6,1.2,35.2,24.8c0.9,12.4-4.5,26.9-17.5,38.6c-14.2,12.8-30.7,9.5-35.4-10.3
					C190.5,333.6,196.3,309.4,212.8,299.8z"/>
				<path class="st3" d="M212.9,300.5c17-10,32.6,0.9,34.2,23.9c0.8,12.3-4.5,26.4-17.1,37.8c-13.7,12.4-29.8,9.3-34.3-10.1
					C191.4,333.3,197,309.9,212.9,300.5z"/>
				<path class="st4" d="M213.1,301.3c16.4-9.8,31.6,0.6,33.1,22.9c0.8,12.1-4.6,26-16.7,36.9c-13.2,12-28.8,9.1-33.2-10
					C192.3,333,197.8,310.4,213.1,301.3z"/>
				<path class="st5" d="M213.2,302c15.8-9.5,30.7,0.3,32.1,22c0.8,12-4.7,25.6-16.3,36.1c-12.7,11.6-27.9,8.9-32-9.8
					C193.1,332.8,198.5,310.9,213.2,302z"/>
				<path class="st6" d="M213.4,302.7c15.2-9.3,29.8,0,31.1,21.1c0.7,11.9-4.7,25.2-15.8,35.3c-12.2,11.2-26.9,8.7-30.9-9.6
					C194,332.5,199.2,311.4,213.4,302.7z"/>
				<path class="st7" d="M213.6,303.5c14.6-9.1,28.8-0.3,30,20.2c0.7,11.8-4.8,24.7-15.4,34.5c-11.8,10.9-26,8.6-29.8-9.5
					C194.9,332.2,200,311.9,213.6,303.5z"/>
				<path class="st8" d="M213.7,304.2c14-8.9,27.9-0.6,29,19.3c0.7,11.6-4.9,24.3-15,33.6c-11.3,10.5-25.1,8.4-28.7-9.3
					C195.7,331.9,200.7,312.4,213.7,304.2z"/>
				<path class="st9" d="M213.9,304.9c13.4-8.6,26.9-0.9,27.9,18.3c0.6,11.5-5,23.8-14.6,32.8c-10.8,10.1-24.1,8.2-27.6-9.2
					C196.6,331.6,201.4,312.9,213.9,304.9z"/>
				<path class="st10" d="M214,305.7c12.8-8.4,25.9-1.2,26.9,17.4c0.6,11.4-5,23.4-14.2,32c-10.4,9.7-23.2,8-26.4-9
					C197.4,331.4,202.1,313.4,214,305.7z"/>
				<path class="st11" d="M214.2,306.4c12.2-8.2,25-1.5,25.8,16.5c0.5,11.3-5.1,23-13.8,31.1c-9.9,9.3-22.2,7.8-25.3-8.9
					C198.3,331.1,202.9,314,214.2,306.4z"/>
				<path class="st12" d="M214.3,307.1c11.6-7.9,24-1.8,24.8,15.6c0.5,11.1-5.2,22.5-13.4,30.3c-9.4,8.9-21.3,7.7-24.2-8.7
					C199.1,330.8,203.6,314.5,214.3,307.1z"/>
				<path class="st13" d="M214.5,307.9c11-7.7,23-2,23.7,14.6c0.5,11-5.2,22.1-13,29.5c-8.9,8.5-20.4,7.5-23.1-8.5
					C200,330.5,204.3,315,214.5,307.9z"/>
				<path class="st14" d="M214.7,308.6c10.4-7.5,22.1-2.3,22.7,13.7c0.4,10.9-5.3,21.7-12.6,28.6c-8.5,8.2-19.4,7.3-22-8.4
					C200.8,330.2,205.1,315.5,214.7,308.6z"/>
				<path class="st15" d="M214.8,309.3c9.8-7.3,21.1-2.6,21.7,12.8c0.4,10.8-5.4,21.2-12.1,27.8c-8,7.8-18.5,7.1-20.9-8.2
					C201.7,330,205.8,316,214.8,309.3z"/>
				<path class="st16" d="M215,310.1c9.2-7,20.1-2.9,20.6,11.9c0.3,10.7-5.5,20.8-11.7,27c-7.5,7.4-17.6,7-19.7-8.1
					C202.5,329.7,206.5,316.5,215,310.1z"/>
				<path class="st17" d="M215.1,310.8c8.6-6.8,19.2-3.2,19.6,10.9c0.3,10.5-5.5,20.4-11.3,26.2c-7,7-16.7,6.8-18.6-7.9
					C203.4,329.4,207.2,317,215.1,310.8z"/>
				<path class="st18" d="M215.3,311.5c8-6.6,18.2-3.5,18.5,10c0.3,10.4-5.6,20-10.9,25.3c-6.6,6.6-15.8,6.6-17.5-7.7
					C204.2,329.1,208,317.5,215.3,311.5z"/>
				<path class="st19" d="M215.5,312.3c7.4-6.4,17.2-3.8,17.5,9.1c0.2,10.3-5.7,19.5-10.5,24.5c-6.1,6.3-14.9,6.4-16.4-7.6
					C205,328.9,208.7,318,215.5,312.3z"/>
				<path class="st20" d="M215.6,313c6.8-6.1,16.3-4.1,16.4,8.2c0.2,10.2-5.7,19.1-10.1,23.7c-5.6,5.9-14,6.3-15.3-7.4
					C205.9,328.6,209.4,318.5,215.6,313z"/>
				<path class="st21" d="M215.8,313.7c6.2-5.9,15.3-4.4,15.4,7.2c0.1,10-5.8,18.7-9.7,22.8c-5.1,5.5-13.1,6.1-14.2-7.3
					C206.7,328.3,210.1,319.1,215.8,313.7z"/>
				<path class="st22" d="M215.9,314.5c5.6-5.7,14.3-4.7,14.4,6.3c0,9.9-5.8,18.2-9.3,22c-4.6,5.1-12.2,5.9-13-7.1
					C207.5,328,210.9,319.6,215.9,314.5z"/>
				<path class="st23" d="M216.1,315.2c5-5.4,13.3-5,13.3,5.4c0,9.8-5.9,17.8-8.8,21.2c-4.2,4.8-11.3,5.7-11.9-7
					C208.3,327.8,211.6,320.1,216.1,315.2z"/>
			</g>
			<g class="st1">
				<path class="st2" d="M178.4,249.7c20.1,3.2,25.4,19.6,11.8,39c-7.1,10.2-23.1,15.3-40.6,16.2c-19,1-29.8-12-21-30.3
					C137.3,256.7,159.6,246.7,178.4,249.7z"/>
				<path class="st3" d="M178,250.2c19.5,3,24.8,18.8,11.6,37.6c-7.1,10-22.7,15.1-39.6,16c-18.4,1-28.9-11.6-20.2-29.4
					C138.2,257.1,159.8,247.5,178,250.2z"/>
				<path class="st4" d="M177.5,250.8c18.9,2.8,24.3,17.9,11.3,36.2c-7,9.9-22.4,14.8-38.7,15.7c-17.8,1-28.1-11.1-19.4-28.6
					C139,257.4,159.9,248.2,177.5,250.8z"/>
				<path class="st5" d="M177.1,251.3c18.3,2.6,23.7,17.1,11.1,34.8c-7,9.8-22,14.6-37.7,15.5c-17.2,1-27.3-10.7-18.7-27.8
					C139.9,257.7,160,248.9,177.1,251.3z"/>
				<path class="st6" d="M176.6,251.9c17.7,2.4,23.1,16.3,10.8,33.5c-6.9,9.7-21.7,14.3-36.7,15.2c-16.6,1-26.4-10.2-17.9-27
					C140.7,258,160.2,249.6,176.6,251.9z"/>
				<path class="st7" d="M176.2,252.4c17.1,2.2,22.6,15.5,10.6,32.1c-6.9,9.6-21.3,14.1-35.7,15c-16,1-25.6-9.7-17.1-26.1
					C141.6,258.4,160.3,250.4,176.2,252.4z"/>
				<path class="st8" d="M175.7,252.9c16.5,2,22,14.6,10.3,30.7c-6.8,9.5-21,13.8-34.8,14.7c-15.4,1-24.7-9.3-16.4-25.3
					C142.4,258.7,160.5,251.1,175.7,252.9z"/>
				<path class="st9" d="M175.3,253.5c15.8,1.8,21.4,13.8,10.1,29.3c-6.8,9.3-20.7,13.6-33.8,14.4c-14.8,1-23.9-8.8-15.6-24.5
					C143.2,259,160.6,251.8,175.3,253.5z"/>
				<path class="st10" d="M174.8,254c15.2,1.6,20.8,13,9.9,28c-6.7,9.2-20.3,13.3-32.8,14.2c-14.2,1-23-8.4-14.8-23.7
					C144.1,259.3,160.7,252.5,174.8,254z"/>
				<path class="st11" d="M174.4,254.6c14.6,1.4,20.2,12.1,9.6,26.6c-6.7,9.1-20,13.1-31.9,13.9c-13.5,1-22.2-7.9-14.1-22.8
					C144.9,259.7,160.9,253.3,174.4,254.6z"/>
				<path class="st12" d="M174,255.1c14,1.2,19.7,11.3,9.4,25.2c-6.6,9-19.6,12.8-30.9,13.7c-12.9,1-21.4-7.5-13.3-22
					C145.8,260,161,254,174,255.1z"/>
				<path class="st13" d="M173.5,255.6c13.4,1,19.1,10.5,9.1,23.8c-6.6,8.9-19.3,12.6-29.9,13.4c-12.3,1-20.5-7-12.5-21.2
					C146.6,260.3,161.1,254.7,173.5,255.6z"/>
				<path class="st14" d="M173.1,256.2c12.8,0.8,18.5,9.6,8.9,22.5c-6.6,8.7-18.9,12.3-29,13.2c-11.7,1-19.7-6.6-11.8-20.4
					C147.4,260.6,161.3,255.4,173.1,256.2z"/>
				<path class="st15" d="M172.6,256.7c12.2,0.6,17.9,8.8,8.6,21.1c-6.5,8.6-18.6,12.1-28,12.9c-11.1,1-18.9-6.1-11-19.5
					C148.3,261,161.4,256.2,172.6,256.7z"/>
				<path class="st16" d="M172.2,257.3c11.6,0.4,17.3,7.9,8.4,19.7c-6.5,8.5-18.2,11.8-27,12.7c-10.5,1-18-5.7-10.2-18.7
					C149.1,261.3,161.5,256.9,172.2,257.3z"/>
				<path class="st17" d="M171.7,257.8c11,0.2,16.8,7.1,8.1,18.3c-6.4,8.4-17.9,11.6-26,12.4c-9.9,1-17.2-5.2-9.5-17.9
					C149.9,261.6,161.7,257.6,171.7,257.8z"/>
				<path class="st18" d="M171.3,258.3c10.4,0,16.2,6.3,7.9,17c-6.4,8.3-17.6,11.3-25.1,12.2c-9.3,1-16.4-4.8-8.7-17.1
					C150.7,261.9,161.8,258.4,171.3,258.3z"/>
				<path class="st19" d="M170.8,258.9c9.8-0.2,15.6,5.4,7.6,15.6c-6.3,8.1-17.2,11.1-24.1,11.9c-8.7,1-15.6-4.4-7.9-16.2
					C151.5,262.2,161.9,259.1,170.8,258.9z"/>
				<path class="st20" d="M170.4,259.4c9.2-0.4,15,4.6,7.4,14.2c-6.3,8-16.9,10.8-23.1,11.6c-8.1,1-14.8-3.9-7.2-15.4
					C152.4,262.5,162.1,259.8,170.4,259.4z"/>
				<path class="st21" d="M169.9,260c8.6-0.6,14.4,3.7,7.1,12.8c-6.3,7.9-16.5,10.6-22.2,11.4c-7.5,1-14-3.5-6.4-14.6
					C153.2,262.8,162.2,260.5,169.9,260z"/>
				<path class="st22" d="M169.5,260.5c8-0.8,13.8,2.9,6.9,11.5c-6.2,7.7-16.2,10.4-21.2,11.1c-6.8,1.1-13.2-3.1-5.6-13.7
					C154,263.1,162.3,261.3,169.5,260.5z"/>
				<path class="st23" d="M169,261.1c7.4-1.1,13.2,2,6.7,10.1c-6.2,7.6-15.8,10.1-20.2,10.9c-6.2,1.1-12.4-2.7-4.9-12.9
					C154.8,263.4,162.5,262,169,261.1z"/>
			</g>
			<g class="st1">
				<path class="st2" d="M324.5,256.6c-17.3-15.8-10.3-37.4,15.1-47.3c13.3-5.2,31.1-4.4,48.6,5.9c18.9,11.2,21,30.6,0.9,42.5
					C369.4,269.4,340.7,271.4,324.5,256.6z"/>
				<path class="st3" d="M325.6,255.9c-17.1-15.3-10.2-36.4,14.6-45.9c13.3-5.1,30.7-4.1,47.6,5.8c18.3,10.8,20.4,29.6,0.6,41.2
					C369.2,268.3,341.5,270.2,325.6,255.9z"/>
				<path class="st4" d="M326.6,255.2c-17-14.7-10.1-35.5,14-44.6c13.2-4.9,30.3-3.8,46.5,5.7c17.8,10.4,19.8,28.6,0.3,40
					C368.9,267.2,342.3,269,326.6,255.2z"/>
				<path class="st5" d="M327.7,254.6c-16.7-14.2-10.1-34.5,13.5-43.2c13.1-4.8,29.9-3.5,45.5,5.6c17.2,10,19.2,27.7,0,38.7
					C368.7,266.1,343.2,267.7,327.7,254.6z"/>
				<path class="st6" d="M328.8,253.9c-16.5-13.7-10-33.6,12.9-41.8c13-4.7,29.5-3.2,44.5,5.5c16.6,9.6,18.5,26.7-0.3,37.4
					C368.5,265,344,266.5,328.8,253.9z"/>
				<path class="st7" d="M329.9,253.2c-16.4-13.1-9.9-32.6,12.4-40.4c13-4.5,29.1-2.9,43.5,5.4c16,9.2,17.9,25.7-0.6,36.1
					C368.3,263.9,344.9,265.2,329.9,253.2z"/>
				<path class="st8" d="M331,252.6c-16.2-12.6-9.8-31.7,11.8-39c12.9-4.4,28.7-2.7,42.5,5.3c15.4,8.8,17.3,24.7-0.9,34.8
					C368,262.8,345.7,264,331,252.6z"/>
				<path class="st9" d="M332.1,251.9c-16-12-9.7-30.7,11.3-37.6c12.8-4.2,28.2-2.4,41.4,5.2c14.8,8.4,16.7,23.8-1.2,33.6
					C367.8,261.7,346.5,262.8,332.1,251.9z"/>
				<path class="st10" d="M333.2,251.3c-15.8-11.5-9.6-29.7,10.7-36.2c12.7-4.1,27.8-2.1,40.4,5.1c14.2,8.1,16.1,22.8-1.6,32.3
					C367.6,260.6,347.4,261.6,333.2,251.3z"/>
				<path class="st11" d="M334.3,250.6c-15.6-10.9-9.5-28.7,10.2-34.8c12.7-3.9,27.4-1.8,39.4,5c13.7,7.7,15.5,21.8-1.9,31
					C367.4,259.5,348.2,260.3,334.3,250.6z"/>
				<path class="st12" d="M335.4,249.9c-15.4-10.4-9.4-27.7,9.6-33.5c12.6-3.8,27-1.5,38.4,4.9c13.1,7.3,14.8,20.9-2.2,29.7
					C367.2,258.4,349,259.1,335.4,249.9z"/>
				<path class="st13" d="M336.5,249.3c-15.2-9.8-9.4-26.7,9.1-32.1c12.5-3.6,26.6-1.2,37.4,4.8c12.5,6.9,14.2,19.9-2.5,28.4
					C367,257.3,349.9,257.9,336.5,249.3z"/>
				<path class="st14" d="M337.6,248.6c-15.1-9.3-9.3-25.7,8.5-30.7c12.5-3.5,26.2-0.9,36.4,4.7c11.9,6.5,13.6,19-2.8,27.2
					C366.7,256.2,350.7,256.7,337.6,248.6z"/>
				<path class="st15" d="M338.7,248c-14.9-8.7-9.2-24.7,7.9-29.3c12.4-3.3,25.8-0.6,35.3,4.6c11.3,6.1,13,18-3.1,25.9
					C366.5,255.1,351.5,255.5,338.7,248z"/>
				<path class="st16" d="M339.7,247.3c-14.7-8.1-9.1-23.7,7.4-27.9c12.3-3.1,25.3-0.3,34.3,4.5c10.7,5.7,12.4,17-3.4,24.6
					C366.3,254.1,352.3,254.3,339.7,247.3z"/>
				<path class="st17" d="M340.8,246.6c-14.5-7.6-9-22.7,6.8-26.5c12.3-3,24.9,0,33.3,4.4c10.2,5.3,11.8,16.1-3.7,23.3
					C366.1,253,353.2,253.1,340.8,246.6z"/>
				<path class="st18" d="M341.9,246c-14.4-7-8.9-21.7,6.3-25.1c12.2-2.8,24.5,0.2,32.3,4.2c9.6,4.9,11.2,15.2-4,22
					C365.9,251.9,354,251.9,341.9,246z"/>
				<path class="st19" d="M343,245.3c-14.2-6.4-8.7-20.7,5.7-23.7c12.1-2.6,24.1,0.5,31.3,4.1c9,4.5,10.6,14.2-4.3,20.8
					C365.7,250.8,354.8,250.7,343,245.3z"/>
				<path class="st20" d="M344.1,244.7c-14-5.9-8.6-19.6,5.2-22.4c12.1-2.4,23.7,0.8,30.3,4c8.4,4.1,10,13.3-4.6,19.5
					C365.5,249.8,355.6,249.5,344.1,244.7z"/>
				<path class="st21" d="M345.2,244c-13.9-5.3-8.5-18.6,4.6-21c12-2.2,23.3,1.1,29.2,3.9c7.8,3.7,9.4,12.4-4.9,18.2
					C365.3,248.7,356.4,248.3,345.2,244z"/>
				<path class="st22" d="M346.3,243.3c-13.7-4.7-8.4-17.5,4.1-19.6c11.9-2,22.9,1.4,28.2,3.8c7.2,3.3,8.8,11.5-5.2,16.9
					C365.1,247.7,357.2,247.1,346.3,243.3z"/>
				<path class="st23" d="M347.4,242.7c-13.5-4.1-8.3-16.4,3.5-18.2c11.9-1.7,22.5,1.6,27.2,3.7c6.7,2.9,8.3,10.6-5.6,15.6
					C364.9,246.6,358.1,245.9,347.4,242.7z"/>
			</g>
			<g class="st1">
				<path class="st2" d="M322,200.7c-23.5,0.1-32.8-20.6-20.9-45.1c6.3-12.9,20-24.3,39.8-28.5c21.5-4.6,37,13.9,30.2,36.3
					C364.5,185.4,343.9,200.6,322,200.7z"/>
				<path class="st3" d="M322.3,199.4c-23,0.3-32.2-20-20.3-43.7c6.3-12.7,19.9-23.8,39-27.9c20.8-4.5,35.8,13.4,29.1,35.3
					C363.6,184.4,343.7,199.2,322.3,199.4z"/>
				<path class="st4" d="M322.7,198.2c-22.5,0.6-31.5-19.3-19.8-42.3c6.4-12.6,19.8-23.3,38.2-27.3c20.1-4.3,34.6,12.8,28,34.3
					C362.6,183.5,343.5,197.7,322.7,198.2z"/>
				<path class="st5" d="M323,197c-21.9,0.9-30.8-18.7-19.3-40.9c6.4-12.4,19.7-22.8,37.3-26.6c19.4-4.2,33.5,12.2,26.8,33.3
					C361.7,182.6,343.3,196.2,323,197z"/>
				<path class="st6" d="M323.4,195.8c-21.4,1.1-30.1-18-18.7-39.5c6.5-12.3,19.6-22.3,36.5-26c18.7-4.1,32.3,11.7,25.7,32.3
					C360.7,181.6,343.1,194.7,323.4,195.8z"/>
				<path class="st7" d="M323.8,194.5c-20.9,1.4-29.3-17.3-18.2-38.1c6.5-12.1,19.4-21.8,35.7-25.4c18-4,31.2,11.1,24.6,31.3
					C359.8,180.7,342.9,193.3,323.8,194.5z"/>
				<path class="st8" d="M324.1,193.3c-20.4,1.7-28.6-16.7-17.7-36.7c6.5-11.9,19.3-21.3,34.9-24.8c17.3-3.9,30,10.5,23.4,30.3
					C358.8,179.8,342.7,191.8,324.1,193.3z"/>
				<path class="st9" d="M324.5,192.1c-19.9,1.9-27.9-16-17.1-35.3c6.6-11.8,19.2-20.8,34.1-24.2c16.6-3.8,28.9,10,22.3,29.3
					C357.9,178.9,342.5,190.3,324.5,192.1z"/>
				<path class="st10" d="M324.8,190.9c-19.4,2.2-27.2-15.4-16.6-33.9c6.6-11.6,19.1-20.4,33.2-23.6c15.9-3.7,27.8,9.4,21.2,28.3
					C357,177.9,342.2,188.9,324.8,190.9z"/>
				<path class="st11" d="M325.2,189.6c-18.9,2.5-26.5-14.7-16.1-32.5c6.7-11.5,19-19.8,32.4-23c15.2-3.6,26.6,8.9,20,27.3
					C356,177,342,187.4,325.2,189.6z"/>
				<path class="st12" d="M325.6,188.4c-18.4,2.8-25.7-14-15.6-31.1c6.7-11.3,18.9-19.3,31.6-22.4c14.6-3.5,25.5,8.3,18.9,26.3
					C355.1,176.1,341.8,186,325.6,188.4z"/>
				<path class="st13" d="M325.9,187.2c-17.9,3.1-25-13.4-15-29.7c6.8-11.1,18.8-18.9,30.8-21.8c13.9-3.4,24.3,7.7,17.8,25.3
					C354.2,175.2,341.6,184.5,325.9,187.2z"/>
				<path class="st14" d="M326.3,186c-17.4,3.4-24.2-12.7-14.5-28.3c6.8-11,18.7-18.4,30-21.2c13.2-3.3,23.2,7.2,16.7,24.3
					C353.2,174.2,341.4,183,326.3,186z"/>
				<path class="st15" d="M326.6,184.8c-16.8,3.7-23.5-12-14-26.9c6.9-10.8,18.6-17.9,29.1-20.5c12.5-3.2,22.1,6.6,15.5,23.3
					C352.3,173.3,341.2,181.6,326.6,184.8z"/>
				<path class="st16" d="M327,183.5c-16.3,3.9-22.7-11.4-13.4-25.6c7-10.6,18.5-17.4,28.3-19.9c11.8-3,20.9,6.1,14.4,22.3
					C351.4,172.4,341,180.1,327,183.5z"/>
				<path class="st17" d="M327.3,182.3c-15.8,4.2-22-10.7-12.9-24.2c7-10.5,18.4-16.9,27.5-19.3c11.1-2.9,19.8,5.5,13.3,21.3
					C350.5,171.5,340.8,178.7,327.3,182.3z"/>
				<path class="st18" d="M327.7,181.1c-15.3,4.6-21.2-10-12.4-22.8c7.1-10.3,18.2-16.4,26.7-18.7c10.4-2.8,18.7,4.9,12.1,20.3
					C349.6,170.6,340.5,177.3,327.7,181.1z"/>
				<path class="st19" d="M328.1,179.9c-14.8,4.9-20.4-9.3-11.8-21.4c7.2-10.1,18.1-15.9,25.9-18.1c9.7-2.7,17.6,4.4,11,19.3
					C348.7,169.7,340.3,175.8,328.1,179.9z"/>
				<path class="st20" d="M328.4,178.6c-14.3,5.2-19.6-8.6-11.3-20c7.3-9.9,18-15.4,25-17.5c9-2.6,16.5,3.8,9.9,18.3
					C347.8,168.7,340.1,174.4,328.4,178.6z"/>
				<path class="st21" d="M328.8,177.4c-13.8,5.5-18.9-7.9-10.8-18.6c7.4-9.7,17.9-15,24.2-16.9c8.3-2.5,15.4,3.3,8.7,17.3
					C346.9,167.8,339.9,173,328.8,177.4z"/>
				<path class="st22" d="M329.1,176.2c-13.2,5.8-18.1-7.2-10.2-17.2c7.5-9.5,17.8-14.5,23.4-16.3c7.6-2.5,14.3,2.8,7.6,16.3
					C346,166.9,339.7,171.5,329.1,176.2z"/>
				<path class="st23" d="M329.5,175c-12.7,6.1-17.3-6.5-9.7-15.8c7.6-9.3,17.7-14,22.6-15.7c6.9-2.3,13.2,2.2,6.5,15.3
					C345.1,166,339.5,170.1,329.5,175z"/>
			</g>
			<g class="st1">
				<path class="st2" d="M287.7,159.8c-16.1,17.1-41.8,11.1-51.4-14.4c-5.1-13.4-4-31.2,6.5-48.5c11.4-18.8,39.8-18.2,51.5,2
					C305.7,118.7,302.7,143.7,287.7,159.8z"/>
				<path class="st3" d="M286.8,158.7c-15.5,17-40.6,11-49.8-13.9c-4.9-13.3-3.7-30.8,6.4-47.5c11-18.2,38.4-17.8,49.8,2.2
					C304.2,118.8,301.3,142.9,286.8,158.7z"/>
				<path class="st4" d="M286,157.7c-14.9,16.8-39.5,10.9-48.3-13.4c-4.8-13.3-3.4-30.4,6.3-46.5c10.6-17.6,37-17.3,48.1,2.4
					C302.7,118.9,299.9,142.2,286,157.7z"/>
				<path class="st5" d="M285.1,156.6c-14.4,16.6-38.3,10.8-46.7-12.9c-4.7-13.2-3.2-29.9,6.1-45.5c10.2-17.1,35.6-16.8,46.4,2.5
					C301.1,119,298.4,141.4,285.1,156.6z"/>
				<path class="st6" d="M284.3,155.6c-13.9,16.4-37.2,10.6-45.1-12.4c-4.5-13.1-2.9-29.5,6-44.4c9.8-16.5,34.2-16.3,44.7,2.7
					C299.6,119.1,297,140.6,284.3,155.6z"/>
				<path class="st7" d="M283.4,154.6c-13.3,16.2-36,10.5-43.5-11.8c-4.4-13-2.6-29.1,5.9-43.4c9.4-15.9,32.8-15.8,43,2.9
					C298.1,119.2,295.6,139.8,283.4,154.6z"/>
				<path class="st8" d="M282.6,153.5c-12.8,16-34.8,10.4-41.9-11.3c-4.2-12.9-2.3-28.7,5.8-42.4c9-15.3,31.4-15.3,41.2,3.1
					C296.5,119.3,294.2,139,282.6,153.5z"/>
				<path class="st9" d="M281.7,152.5c-12.2,15.8-33.6,10.2-40.3-10.8c-4.1-12.9-2-28.3,5.7-41.4c8.6-14.7,30-14.8,39.5,3.2
					C295,119.4,292.8,138.2,281.7,152.5z"/>
				<path class="st10" d="M280.9,151.5c-11.7,15.7-32.5,10.1-38.7-10.3c-3.9-12.8-1.8-27.9,5.6-40.4c8.2-14.2,28.6-14.3,37.8,3.4
					C293.5,119.5,291.3,137.4,280.9,151.5z"/>
				<path class="st11" d="M280,150.4c-11.1,15.5-31.3,9.9-37.2-9.8c-3.8-12.7-1.5-27.4,5.4-39.4c7.8-13.6,27.2-13.8,36.1,3.6
					C292,119.6,289.9,136.6,280,150.4z"/>
				<path class="st12" d="M279.2,149.4c-10.6,15.3-30.1,9.8-35.6-9.3c-3.6-12.6-1.2-27,5.3-38.3c7.4-13,25.8-13.3,34.4,3.8
					C290.4,119.7,288.5,135.9,279.2,149.4z"/>
				<path class="st13" d="M278.3,148.4c-10,15.1-28.9,9.7-34-8.8c-3.5-12.6-0.9-26.6,5.2-37.3c7-12.4,24.4-12.9,32.7,4
					C288.9,119.7,287.1,135.1,278.3,148.4z"/>
				<path class="st14" d="M277.5,147.3c-9.4,15-27.7,9.5-32.4-8.3c-3.3-12.5-0.6-26.2,5.1-36.3c6.6-11.8,23-12.4,31,4.1
					C287.4,119.8,285.7,134.3,277.5,147.3z"/>
				<path class="st15" d="M276.6,146.3c-8.9,14.8-26.5,9.4-30.8-7.8c-3.2-12.4-0.3-25.8,5-35.3c6.2-11.2,21.6-11.9,29.3,4.3
					C285.9,119.9,284.3,133.5,276.6,146.3z"/>
				<path class="st16" d="M275.8,145.2c-8.3,14.6-25.2,9.2-29.2-7.3c-3-12.4,0-25.4,4.8-34.3c5.8-10.7,20.2-11.4,27.6,4.5
					C284.4,120,282.9,132.7,275.8,145.2z"/>
				<path class="st17" d="M274.9,144.2c-7.7,14.4-24,9.1-27.6-6.8c-2.8-12.3,0.2-24.9,4.7-33.3c5.4-10.1,18.8-10.9,25.8,4.7
					C282.9,120.1,281.5,132,274.9,144.2z"/>
				<path class="st18" d="M274.1,143.2c-7.2,14.3-22.8,8.9-26.1-6.3c-2.6-12.2,0.5-24.5,4.6-32.2c5-9.5,17.4-10.5,24.1,4.8
					C281.4,120.1,280.1,131.2,274.1,143.2z"/>
				<path class="st19" d="M273.2,142.1c-6.6,14.1-21.6,8.7-24.5-5.8c-2.5-12.2,0.8-24.1,4.5-31.2c4.6-8.9,16.1-10,22.4,5
					C279.9,120.2,278.7,130.4,273.2,142.1z"/>
				<path class="st20" d="M272.4,141.1c-6,13.9-20.3,8.6-22.9-5.3c-2.3-12.1,1.1-23.7,4.4-30.2c4.2-8.4,14.7-9.5,20.7,5.2
					C278.4,120.3,277.3,129.7,272.4,141.1z"/>
				<path class="st21" d="M271.5,140.1c-5.4,13.8-19.1,8.4-21.3-4.8c-2.1-12,1.3-23.3,4.3-29.2c3.8-7.8,13.4-9.1,19,5.4
					C276.9,120.4,275.9,128.9,271.5,140.1z"/>
				<path class="st22" d="M270.7,139c-4.8,13.6-17.8,8.3-19.7-4.2c-1.8-12,1.6-22.9,4.1-28.2c3.4-7.2,12-8.6,17.3,5.5
					C275.4,120.4,274.5,128.1,270.7,139z"/>
				<path class="st23" d="M269.8,138c-4.2,13.5-16.5,8.1-18.1-3.7c-1.6-11.9,1.9-22.5,4-27.2c3-6.6,10.7-8.2,15.6,5.7
					C274,120.5,273.2,127.3,269.8,138z"/>
			</g>
			<g class="st1">
				<path class="st2" d="M233.3,188.2c-5.6,22.8-27.9,27-48.8,9.5c-11-9.2-18.8-25.2-18.1-45.4c0.7-22,16.7-33.1,36.9-21.2
					C223,142.7,238.5,166.9,233.3,188.2z"/>
				<path class="st3" d="M232.2,187.6c-5.2,22.4-27,26.4-47.3,9.3c-10.8-9.2-18.3-25-17.7-44.5c0.6-21.3,16.2-32.1,35.9-20.3
					C222.1,143.4,237.1,166.8,232.2,187.6z"/>
				<path class="st4" d="M231.1,187c-4.8,21.9-26.3,25.9-45.8,9.1c-10.7-9.2-17.9-24.8-17.3-43.6c0.6-20.6,15.6-31.1,34.9-19.4
					C221.3,144.2,235.6,166.6,231.1,187z"/>
				<path class="st5" d="M230,186.3c-4.4,21.5-25.5,25.4-44.3,8.9c-10.5-9.2-17.4-24.5-16.9-42.6c0.5-19.9,15.1-30.1,33.9-18.5
					C220.4,144.9,234.1,166.5,230,186.3z"/>
				<path class="st6" d="M228.9,185.7c-4.1,21.1-24.7,24.9-42.8,8.7c-10.4-9.2-17-24.3-16.5-41.7c0.5-19.2,14.5-29.1,33-17.7
					C219.5,145.6,232.6,166.3,228.9,185.7z"/>
				<path class="st7" d="M227.8,185c-3.7,20.7-23.9,24.3-41.4,8.5c-10.2-9.2-16.5-24.1-16.1-40.7c0.4-18.5,13.9-28.1,32-16.8
					C218.7,146.3,231.1,166.2,227.8,185z"/>
				<path class="st8" d="M226.7,184.4c-3.3,20.2-23.1,23.8-39.9,8.4c-10-9.2-16.1-23.9-15.7-39.8c0.3-17.8,13.4-27.1,31-15.9
					C217.8,147.1,229.7,166,226.7,184.4z"/>
				<path class="st9" d="M225.6,183.8c-2.9,19.8-22.2,23.3-38.4,8.2c-9.9-9.2-15.6-23.6-15.3-38.8c0.3-17.1,12.8-26,30-15
					C217,147.8,228.2,165.9,225.6,183.8z"/>
				<path class="st10" d="M224.5,183.1c-2.5,19.4-21.4,22.7-36.9,8c-9.7-9.2-15.2-23.4-15-37.9c0.2-16.4,12.3-25,29.1-14.1
					C216.1,148.5,226.7,165.8,224.5,183.1z"/>
				<path class="st11" d="M223.4,182.5c-2.1,18.9-20.6,22.2-35.4,7.8c-9.5-9.2-14.7-23.2-14.6-37c0.2-15.7,11.7-24,28.1-13.2
					C215.3,149.2,225.2,165.6,223.4,182.5z"/>
				<path class="st12" d="M222.3,181.8c-1.7,18.5-19.8,21.6-33.9,7.6c-9.4-9.2-14.3-23-14.2-36c0.1-15,11.2-23,27.1-12.4
					C214.4,149.9,223.8,165.5,222.3,181.8z"/>
				<path class="st13" d="M221.2,181.2c-1.3,18.1-19,21-32.5,7.5c-9.2-9.2-13.8-22.8-13.8-35.1c0.1-14.3,10.6-22,26.1-11.5
					C213.6,150.6,222.3,165.3,221.2,181.2z"/>
				<path class="st14" d="M220.1,180.6c-0.9,17.7-18.1,20.5-31,7.3c-9-9.3-13.4-22.5-13.4-34.1c0-13.6,10.1-21,25.2-10.6
					C212.7,151.3,220.8,165.2,220.1,180.6z"/>
				<path class="st15" d="M219,179.9c-0.5,17.2-17.3,19.9-29.5,7.1c-8.8-9.3-12.9-22.3-13-33.2c-0.1-12.9,9.5-20.1,24.2-9.7
					C211.9,152,219.4,165,219,179.9z"/>
				<path class="st16" d="M217.9,179.3c-0.1,16.8-16.5,19.3-28,6.9c-8.7-9.3-12.5-22.1-12.6-32.2c-0.1-12.2,9-19.1,23.2-8.8
					C211,152.7,217.9,164.9,217.9,179.3z"/>
				<path class="st17" d="M216.7,178.6c0.3,16.4-15.6,18.8-26.5,6.7c-8.5-9.3-12-21.9-12.2-31.3c-0.2-11.5,8.5-18.1,22.2-7.9
					C210.2,153.4,216.5,164.8,216.7,178.6z"/>
				<path class="st18" d="M215.6,178c0.7,16-14.8,18.2-25.1,6.5c-8.3-9.4-11.6-21.6-11.8-30.4c-0.3-10.8,7.9-17.1,21.3-7.1
					C209.3,154.1,215,164.6,215.6,178z"/>
				<path class="st19" d="M214.5,177.4c1.2,15.5-13.9,17.6-23.6,6.4c-8.1-9.4-11.1-21.4-11.4-29.4c-0.3-10.1,7.4-16.1,20.3-6.2
					C208.5,154.8,213.6,164.5,214.5,177.4z"/>
				<path class="st20" d="M213.4,176.7c1.6,15.1-13,17-22.1,6.2c-7.9-9.4-10.7-21.2-11-28.5c-0.4-9.4,6.9-15.2,19.3-5.3
					C207.7,155.5,212.1,164.3,213.4,176.7z"/>
				<path class="st21" d="M212.3,176.1c2,14.7-12.2,16.4-20.6,6c-7.7-9.5-10.2-21-10.6-27.5c-0.5-8.7,6.3-14.2,18.3-4.4
					C206.8,156.2,210.7,164.2,212.3,176.1z"/>
				<path class="st22" d="M211.2,175.4c2.5,14.3-11.3,15.8-19.1,5.8c-7.5-9.5-9.8-20.7-10.2-26.6c-0.6-8,5.8-13.3,17.4-3.5
					C206,156.9,209.3,164.1,211.2,175.4z"/>
				<path class="st23" d="M210.1,174.8c2.9,13.8-10.4,15.2-17.6,5.6c-7.2-9.6-9.3-20.5-9.8-25.6c-0.6-7.3,5.3-12.3,16.4-2.6
					C205.2,157.5,207.8,163.9,210.1,174.8z"/>
			</g>
			<g class="st1">
				<path class="st2" d="M176.5,347.6c-23.4,1.3-33.9-18.9-23.2-43.9c5.6-13.2,18.7-25.3,38.3-30.5c21.3-5.7,39.5,7.9,33.9,30.6
					C220.1,326,198.5,346.4,176.5,347.6z"/>
				<path class="st3" d="M176.8,346.3c-22.9,1.5-33.1-18.2-22.6-42.6c5.7-13,18.6-24.8,37.5-29.8c20.6-5.5,38.3,7.6,32.7,29.9
					C219.1,325.3,198.2,344.9,176.8,346.3z"/>
				<path class="st4" d="M177.1,345.1c-22.4,1.7-32.4-17.6-22-41.2c5.7-12.9,18.5-24.3,36.7-29.2c19.9-5.4,37,7.3,31.4,29.1
					C218,324.6,197.9,343.5,177.1,345.1z"/>
				<path class="st5" d="M177.4,343.8c-21.9,2-31.7-17-21.3-39.8c5.8-12.7,18.4-23.8,35.9-28.5c19.2-5.3,35.7,7,30.1,28.4
					C216.9,323.9,197.6,342,177.4,343.8z"/>
				<path class="st6" d="M177.7,342.6c-21.3,2.2-30.9-16.4-20.7-38.5c5.8-12.6,18.4-23.3,35.1-27.9c18.5-5.1,34.4,6.7,28.9,27.6
					C215.8,323.3,197.3,340.5,177.7,342.6z"/>
				<path class="st7" d="M178,341.4c-20.8,2.5-30.2-15.8-20.1-37.1c5.9-12.4,18.3-22.8,34.3-27.2c17.8-5,33.2,6.4,27.6,26.9
					C214.7,322.6,197,339.1,178,341.4z"/>
				<path class="st8" d="M178.3,340.1c-20.3,2.7-29.4-15.2-19.5-35.7c5.9-12.3,18.2-22.3,33.5-26.6c17.1-4.8,31.9,6,26.3,26.1
					C213.6,321.9,196.7,337.6,178.3,340.1z"/>
				<path class="st9" d="M178.6,338.9c-19.8,3-28.7-14.6-18.9-34.4c6-12.1,18.1-21.8,32.8-25.9c16.4-4.7,30.6,5.7,25,25.4
					C212.5,321.2,196.5,336.2,178.6,338.9z"/>
				<path class="st10" d="M178.9,337.6c-19.2,3.2-27.9-13.9-18.3-33c6-12,18-21.3,32-25.3c15.7-4.5,29.4,5.4,23.8,24.6
					C211.5,320.5,196.2,334.7,178.9,337.6z"/>
				<path class="st11" d="M179.2,336.4c-18.7,3.5-27.2-13.3-17.7-31.6c6.1-11.8,17.9-20.8,31.2-24.6c15.1-4.4,28.1,5.1,22.5,23.9
					C210.4,319.9,195.9,333.3,179.2,336.4z"/>
				<path class="st12" d="M179.5,335.1c-18.2,3.7-26.4-12.7-17.1-30.3c6.1-11.6,17.9-20.3,30.4-24c14.4-4.2,26.9,4.8,21.2,23.1
					C209.3,319.2,195.6,331.8,179.5,335.1z"/>
				<path class="st13" d="M179.8,333.9c-17.7,4-25.6-12.1-16.5-28.9c6.2-11.5,17.8-19.8,29.6-23.3c13.7-4.1,25.6,4.5,20,22.4
					C208.3,318.5,195.3,330.4,179.8,333.9z"/>
				<path class="st14" d="M180.1,332.7c-17.2,4.2-24.8-11.4-15.9-27.6c6.3-11.3,17.7-19.3,28.8-22.7c13-3.9,24.3,4.2,18.7,21.6
					C207.2,317.8,195,329,180.1,332.7z"/>
				<path class="st15" d="M180.4,331.4c-16.6,4.5-24.1-10.8-15.3-26.2c6.3-11.2,17.6-18.8,28-22c12.3-3.8,23.1,3.9,17.4,20.9
					C206.1,317.1,194.7,327.5,180.4,331.4z"/>
				<path class="st16" d="M180.6,330.2c-16.1,4.8-23.3-10.2-14.7-24.8c6.4-11,17.5-18.3,27.2-21.4c11.6-3.7,21.9,3.6,16.2,20.1
					C205.1,316.5,194.4,326.1,180.6,330.2z"/>
				<path class="st17" d="M180.9,328.9c-15.6,5.1-22.5-9.5-14.1-23.5c6.5-10.8,17.4-17.8,26.4-20.7c10.9-3.5,20.6,3.3,14.9,19.4
					C204,315.8,194.1,324.7,180.9,328.9z"/>
				<path class="st18" d="M181.2,327.7c-15.1,5.3-21.7-8.9-13.5-22.1c6.6-10.7,17.4-17.3,25.7-20.1c10.2-3.4,19.4,3,13.6,18.7
					C203,315.1,193.9,323.2,181.2,327.7z"/>
				<path class="st19" d="M181.5,326.5c-14.5,5.6-20.9-8.2-12.9-20.7c6.7-10.5,17.3-16.8,24.9-19.4c9.5-3.2,18.2,2.7,12.3,17.9
					C201.9,314.4,193.6,321.8,181.5,326.5z"/>
				<path class="st20" d="M181.8,325.2c-14,5.9-20-7.6-12.3-19.4c6.8-10.3,17.2-16.3,24.1-18.8c8.8-3.1,16.9,2.4,11.1,17.2
					C200.9,313.8,193.3,320.4,181.8,325.2z"/>
				<path class="st21" d="M182.1,324c-13.5,6.2-19.2-6.9-11.7-18c6.9-10.1,17.1-15.9,23.3-18.1c8.2-3,15.7,2.1,9.8,16.4
					C199.9,313.1,193,319,182.1,324z"/>
				<path class="st22" d="M182.4,322.7c-12.9,6.5-18.4-6.2-11.1-16.6c7-9.9,17-15.4,22.5-17.5c7.5-2.8,14.5,1.8,8.5,15.7
					C198.8,312.4,192.7,317.6,182.4,322.7z"/>
				<path class="st23" d="M182.7,321.5c-12.4,6.8-17.6-5.6-10.5-15.3c7.1-9.7,16.9-14.9,21.7-16.8c6.8-2.7,13.3,1.5,7.3,14.9
					C197.8,311.8,192.5,316.2,182.7,321.5z"/>
			</g>
			<g class="st1">
				<path class="st2" d="M125.7,263.5c-20.5-11.4-18.7-33.9,3.6-49.6c11.7-8.2,29.2-11.6,48.6-5.6c21,6.4,27.6,24.8,10.8,41.1
					C172.3,265.4,144.9,274.1,125.7,263.5z"/>
				<path class="st3" d="M126.6,262.6c-20.2-10.9-18.4-33,3.4-48.1c11.7-8.1,28.9-11.2,47.6-5.5c20.4,6.2,26.8,24,10.2,39.9
					C171.9,264.4,145.4,272.7,126.6,262.6z"/>
				<path class="st4" d="M127.5,261.7c-19.9-10.4-18.1-32.1,3.2-46.6c11.7-7.9,28.6-10.8,46.6-5.3c19.7,6,25.9,23.2,9.6,38.8
					C171.4,263.4,146,271.3,127.5,261.7z"/>
				<path class="st5" d="M128.4,260.8c-19.6-9.9-17.8-31.2,3-45.1c11.6-7.7,28.2-10.4,45.6-5.2c19.1,5.7,25.1,22.4,9,37.6
					C170.9,262.3,146.5,269.9,128.4,260.8z"/>
				<path class="st6" d="M129.3,259.9c-19.3-9.4-17.5-30.3,2.8-43.6c11.6-7.6,27.9-10,44.5-5.1c18.4,5.5,24.3,21.6,8.4,36.4
					C170.4,261.3,147,268.5,129.3,259.9z"/>
				<path class="st7" d="M130.2,259c-19-8.9-17.2-29.4,2.6-42.2c11.5-7.4,27.6-9.7,43.5-4.9c17.7,5.2,23.4,20.8,7.8,35.3
					C170,260.3,147.5,267.1,130.2,259z"/>
				<path class="st8" d="M131.1,258.1c-18.7-8.4-16.9-28.5,2.3-40.7c11.5-7.3,27.2-9.3,42.5-4.8c17.1,5,22.6,20,7.2,34.1
					C169.5,259.3,148.1,265.7,131.1,258.1z"/>
				<path class="st9" d="M132,257.2c-18.3-8-16.6-27.6,2.1-39.2c11.5-7.1,26.9-8.9,41.5-4.7c16.4,4.8,21.8,19.2,6.6,32.9
					C169,258.3,148.6,264.4,132,257.2z"/>
				<path class="st10" d="M132.9,256.3c-18-7.5-16.3-26.6,1.9-37.7c11.4-7,26.6-8.5,40.5-4.5c15.7,4.5,21,18.4,6,31.7
					C168.6,257.3,149.1,263,132.9,256.3z"/>
				<path class="st11" d="M133.8,255.4c-17.7-7-16-25.7,1.7-36.2c11.4-6.8,26.2-8.1,39.5-4.4c15.1,4.3,20.1,17.6,5.4,30.6
					C168.1,256.2,149.6,261.6,133.8,255.4z"/>
				<path class="st12" d="M134.8,254.5c-17.4-6.5-15.7-24.8,1.5-34.8c11.4-6.6,25.9-7.8,38.5-4.3c14.4,4,19.3,16.8,4.8,29.4
					C167.6,255.2,150.2,260.2,134.8,254.5z"/>
				<path class="st13" d="M135.7,253.6c-17.1-6-15.4-23.8,1.3-33.3c11.3-6.5,25.6-7.4,37.5-4.1c13.8,3.8,18.5,16,4.2,28.2
					C167.2,254.2,150.7,258.8,135.7,253.6z"/>
				<path class="st14" d="M136.6,252.7c-16.8-5.5-15-22.9,1.1-31.8c11.3-6.3,25.2-7,36.4-4c13.1,3.5,17.7,15.2,3.6,27
					C166.7,253.2,151.2,257.5,136.6,252.7z"/>
				<path class="st15" d="M137.5,251.8c-16.5-5-14.7-21.9,0.9-30.3c11.3-6.1,24.9-6.6,35.4-3.8c12.4,3.3,16.9,14.4,3,25.9
					C166.2,252.2,151.7,256.1,137.5,251.8z"/>
				<path class="st16" d="M138.4,250.9c-16.2-4.5-14.4-20.9,0.6-28.9c11.2-5.9,24.6-6.3,34.4-3.7c11.8,3,16.1,13.7,2.5,24.7
					C165.8,251.2,152.2,254.7,138.4,250.9z"/>
				<path class="st17" d="M139.3,250c-15.9-4-14-20,0.4-27.4c11.2-5.7,24.2-5.9,33.4-3.6c11.1,2.8,15.2,12.9,1.9,23.5
					C165.3,250.2,152.7,253.4,139.3,250z"/>
				<path class="st18" d="M140.2,249.1c-15.6-3.5-13.7-19,0.2-25.9c11.2-5.6,23.9-5.5,32.4-3.4c10.5,2.6,14.4,12.1,1.3,22.4
					C164.9,249.2,153.3,252,140.2,249.1z"/>
				<path class="st19" d="M141.1,248.2c-15.3-2.9-13.3-18,0-24.4c11.2-5.4,23.6-5.1,31.4-3.3c9.8,2.3,13.6,11.3,0.7,21.2
					C164.4,248.3,153.8,250.6,141.1,248.2z"/>
				<path class="st20" d="M142,247.3c-15-2.4-13-17-0.2-22.9c11.2-5.2,23.2-4.8,30.4-3.2c9.1,2.1,12.9,10.6,0.1,20
					C164,247.3,154.3,249.3,142,247.3z"/>
				<path class="st21" d="M142.9,246.4c-14.7-1.9-12.7-16.1-0.4-21.5c11.2-4.9,22.9-4.4,29.4-3c8.5,1.8,12.1,9.8-0.5,18.8
					C163.6,246.3,154.8,247.9,142.9,246.4z"/>
				<path class="st22" d="M143.8,245.5c-14.4-1.4-12.3-15.1-0.6-20c11.2-4.7,22.6-4,28.4-2.9c7.8,1.5,11.3,9.1-1.1,17.7
					C163.1,245.3,155.3,246.6,143.8,245.5z"/>
				<path class="st23" d="M144.7,244.6c-14.1-0.8-12-14-0.9-18.5c11.2-4.5,22.2-3.7,27.3-2.8c7.2,1.3,10.5,8.4-1.7,16.5
					C162.7,244.3,155.8,245.2,144.7,244.6z"/>
			</g>
			<g class="st1">
				<path class="st2" d="M294.8,308c-3.6-23.2,15.3-35.6,41.3-27.5c13.7,4.3,27.1,16,34.2,34.9c7.8,20.6-2.6,37-25.8,33.8
					C321.9,346,298.2,329.7,294.8,308z"/>
				<path class="st3" d="M295.9,308c-3.9-22.6,14.8-35,40.1-27c13.5,4.3,26.5,15.9,33.4,34.2c7.5,19.9-2.4,35.8-25.1,32.6
					C322.3,344.9,299.4,329.2,295.9,308z"/>
				<path class="st4" d="M296.9,308.1c-4.1-22.1,14.3-34.4,38.9-26.4c13.4,4.4,26,15.7,32.6,33.5c7.2,19.3-2.1,34.6-24.4,31.5
					C322.8,343.7,300.6,328.6,296.9,308.1z"/>
				<path class="st5" d="M298,308.1c-4.2-21.6,13.9-33.8,37.6-25.8c13.2,4.4,25.4,15.6,31.8,32.9c6.9,18.6-1.8,33.4-23.7,30.3
					C323.2,342.6,301.9,328,298,308.1z"/>
				<path class="st6" d="M299,308.2c-4.4-21,13.4-33.1,36.4-25.2c13.1,4.5,24.9,15.5,31,32.2c6.6,18-1.5,32.1-23.1,29.1
					C323.6,341.4,303.1,327.5,299,308.2z"/>
				<path class="st7" d="M300.1,308.2c-4.6-20.5,12.9-32.5,35.2-24.7c12.9,4.5,24.4,15.3,30.2,31.5c6.3,17.4-1.2,30.9-22.4,28
					C324.1,340.3,304.3,326.9,300.1,308.2z"/>
				<path class="st8" d="M301.1,308.2c-4.8-19.9,12.4-31.8,33.9-24.1c12.8,4.6,23.8,15.2,29.4,30.8c6,16.7-1,29.7-21.7,26.8
					C324.5,339.2,305.5,326.3,301.1,308.2z"/>
				<path class="st9" d="M302.2,308.3c-5-19.4,12-31.2,32.7-23.5c12.6,4.7,23.3,15.1,28.6,30.1c5.7,16.1-0.7,28.5-21,25.6
					C324.9,338,306.7,325.8,302.2,308.3z"/>
				<path class="st10" d="M303.2,308.3c-5.2-18.8,11.5-30.5,31.4-22.9c12.5,4.8,22.8,14.9,27.8,29.4c5.4,15.5-0.4,27.3-20.3,24.5
					C325.3,336.9,307.9,325.2,303.2,308.3z"/>
				<path class="st11" d="M304.3,308.3c-5.4-18.3,11-29.9,30.2-22.4c12.3,4.8,22.2,14.8,26.9,28.7c5.1,14.8-0.1,26.1-19.6,23.3
					C325.8,335.7,309.1,324.6,304.3,308.3z"/>
				<path class="st12" d="M305.3,308.4c-5.6-17.7,10.5-29.2,29-21.8c12.2,4.9,21.6,14.7,26.1,28.1c4.7,14.2,0.2,24.9-18.9,22.1
					C326.2,334.6,310.3,324.1,305.3,308.4z"/>
				<path class="st13" d="M306.4,308.4c-5.8-17.2,10-28.5,27.7-21.2c12,5,21.1,14.5,25.3,27.4c4.4,13.5,0.5,23.6-18.2,21
					C326.6,333.4,311.5,323.5,306.4,308.4z"/>
				<path class="st14" d="M307.5,308.4c-6-16.6,9.5-27.9,26.5-20.6c11.9,5.1,20.6,14.4,24.5,26.7c4.1,12.9,0.7,22.4-17.5,19.8
					C327,332.3,312.7,322.9,307.5,308.4z"/>
				<path class="st15" d="M308.5,308.5c-6.2-16.1,9-27.2,25.3-20.1c11.7,5.1,20,14.2,23.7,26c3.8,12.3,1,21.2-16.8,18.6
					C327.5,331.1,313.9,322.4,308.5,308.5z"/>
				<path class="st16" d="M309.6,308.5c-6.4-15.5,8.6-26.5,24-19.5c11.6,5.2,19.5,14.1,22.9,25.3c3.5,11.6,1.3,20-16.1,17.4
					C327.9,330,315,321.8,309.6,308.5z"/>
				<path class="st17" d="M310.6,308.6c-6.6-15,8.1-25.8,22.8-18.9c11.4,5.3,19,14,22.1,24.6c3.2,11,1.6,18.8-15.4,16.3
					C328.3,328.8,316.2,321.3,310.6,308.6z"/>
				<path class="st18" d="M311.7,308.6c-6.9-14.4,7.6-25.1,21.5-18.4c11.3,5.4,18.4,13.8,21.3,23.9c2.9,10.4,1.9,17.6-14.7,15.1
					C328.7,327.7,317.4,320.7,311.7,308.6z"/>
				<path class="st19" d="M312.7,308.6c-7.1-13.9,7.1-24.4,20.3-17.8c11.1,5.5,17.9,13.7,20.5,23.3c2.6,9.7,2.1,16.4-14.1,13.9
					C329.2,326.5,318.6,320.1,312.7,308.6z"/>
				<path class="st20" d="M313.8,308.7c-7.3-13.3,6.5-23.7,19.1-17.2c10.9,5.6,17.4,13.6,19.6,22.6c2.3,9.1,2.4,15.1-13.4,12.8
					C329.6,325.4,319.7,319.6,313.8,308.7z"/>
				<path class="st21" d="M314.8,308.7c-7.5-12.8,6-23,17.8-16.6c10.7,5.8,16.8,13.4,18.8,21.9c2,8.4,2.7,13.9-12.7,11.6
					C330,324.2,320.9,319,314.8,308.7z"/>
				<path class="st22" d="M315.9,308.7c-7.8-12.2,5.5-22.2,16.6-16.1c10.6,5.9,16.3,13.3,18,21.2c1.7,7.8,3,12.7-12,10.4
					C330.4,323.1,322.1,318.5,315.9,308.7z"/>
				<path class="st23" d="M316.9,308.8c-8-11.6,5-21.5,15.4-15.5c10.4,6,15.8,13.2,17.2,20.5c1.4,7.2,3.3,11.5-11.3,9.3
					C330.9,321.9,323.2,317.9,316.9,308.8z"/>
			</g>
			<g class="st1">
				<path class="st2" d="M282.2,303.7c-16.7-16.5-37.9-8.4-46.5,17.5c-4.6,13.6-2.8,31.3,8.3,48.2c12.1,18.4,31.6,19.5,42.5-1.2
					C297.2,347.9,297.8,319.1,282.2,303.7z"/>
				<path class="st3" d="M281.6,304.5c-16.1-16.4-37-8.4-45.3,16.8c-4.4,13.5-2.6,30.8,8.3,47.2c11.8,17.7,30.4,19,41.2-1.3
					C296,347.5,296.7,319.8,281.6,304.5z"/>
				<path class="st4" d="M281,305.4c-15.6-16.2-36.3-8.4-44.1,16.1c-4.3,13.4-2.4,30.3,8.2,46.1c11.4,17.1,29.3,18.5,39.8-1.5
					C294.9,347.2,295.5,320.4,281,305.4z"/>
				<path class="st5" d="M280.4,306.3c-15-16-35.5-8.5-42.9,15.5c-4.1,13.3-2.2,29.8,8.1,45c11.1,16.5,28.1,18,38.4-1.6
					C293.7,346.9,294.3,321.1,280.4,306.3z"/>
				<path class="st6" d="M279.8,307.2c-14.5-15.8-34.7-8.5-41.8,14.8c-4,13.3-2,29.2,8,44c10.7,15.9,27,17.5,37.1-1.7
					C292.5,346.6,293.1,321.7,279.8,307.2z"/>
				<path class="st7" d="M279.3,308c-13.9-15.7-33.9-8.5-40.6,14.1c-3.9,13.2-1.8,28.7,7.9,42.9c10.4,15.2,25.8,17,35.7-1.8
					C291.3,346.2,292,322.4,279.3,308z"/>
				<path class="st8" d="M278.7,308.9c-13.4-15.5-33.1-8.5-39.4,13.5c-3.7,13.1-1.6,28.2,7.8,41.9c10.1,14.6,24.7,16.6,34.4-2
					C290.1,345.9,290.8,323,278.7,308.9z"/>
				<path class="st9" d="M278.1,309.8c-12.8-15.4-32.3-8.5-38.2,12.8c-3.6,13-1.4,27.7,7.8,40.8c9.7,14,23.5,16.1,33-2.1
					C289,345.6,289.7,323.7,278.1,309.8z"/>
				<path class="st10" d="M277.5,310.7c-12.3-15.2-31.5-8.5-37,12.1c-3.4,12.9-1.2,27.2,7.7,39.7c9.4,13.4,22.4,15.6,31.7-2.2
					C287.8,345.3,288.5,324.3,277.5,310.7z"/>
				<path class="st11" d="M276.9,311.5c-11.7-15-30.7-8.5-35.8,11.4c-3.3,12.8-1,26.7,7.6,38.7c9.1,12.8,21.2,15.1,30.3-2.3
					C286.6,344.9,287.3,324.9,276.9,311.5z"/>
				<path class="st12" d="M276.3,312.4c-11.1-14.9-29.9-8.5-34.6,10.8c-3.1,12.8-0.8,26.2,7.5,37.6c8.7,12.1,20.1,14.6,29-2.4
					C285.4,344.6,286.2,325.6,276.3,312.4z"/>
				<path class="st13" d="M275.7,313.3c-10.6-14.7-29-8.5-33.4,10.1c-3,12.7-0.6,25.6,7.4,36.6c8.4,11.5,18.9,14.2,27.6-2.6
					C284.2,344.3,285,326.2,275.7,313.3z"/>
				<path class="st14" d="M275.2,314.2c-10-14.6-28.2-8.5-32.2,9.4c-2.8,12.6-0.4,25.1,7.3,35.5c8,10.9,17.8,13.7,26.3-2.7
					C283,344,283.9,326.9,275.2,314.2z"/>
				<path class="st15" d="M274.6,315c-9.4-14.4-27.4-8.5-31.1,8.8c-2.7,12.5-0.2,24.6,7.3,34.4c7.7,10.3,16.6,13.2,24.9-2.8
					C281.9,343.6,282.7,327.5,274.6,315z"/>
				<path class="st16" d="M274,315.9c-8.9-14.3-26.5-8.5-29.9,8.1c-2.5,12.5,0,24.1,7.2,33.4c7.4,9.7,15.5,12.7,23.6-2.9
					C280.7,343.3,281.6,328.1,274,315.9z"/>
				<path class="st17" d="M273.4,316.8c-8.3-14.1-25.7-8.5-28.7,7.4c-2.3,12.4,0.2,23.6,7.1,32.3c7,9,14.3,12.2,22.2-3
					C279.5,343,280.4,328.8,273.4,316.8z"/>
				<path class="st18" d="M272.8,317.6c-7.7-14-24.8-8.5-27.5,6.8c-2.2,12.3,0.5,23.1,7,31.3c6.7,8.4,13.2,11.8,20.9-3.2
					C278.3,342.7,279.3,329.4,272.8,317.6z"/>
				<path class="st19" d="M272.2,318.5c-7.1-13.8-23.9-8.5-26.3,6.1c-2,12.2,0.7,22.5,6.9,30.2c6.3,7.8,12.1,11.3,19.5-3.3
					C277.1,342.3,278.2,330,272.2,318.5z"/>
				<path class="st20" d="M271.6,319.4c-6.5-13.7-23.1-8.5-25.1,5.4c-1.8,12.2,0.9,22,6.8,29.1c6,7.2,10.9,10.8,18.2-3.4
					C276,342,277,330.6,271.6,319.4z"/>
				<path class="st21" d="M271.1,320.3c-5.9-13.6-22.2-8.5-23.9,4.8c-1.6,12.1,1.1,21.5,6.8,28.1c5.7,6.5,9.8,10.3,16.8-3.5
					C274.8,341.7,275.9,331.3,271.1,320.3z"/>
				<path class="st22" d="M270.5,321.1c-5.3-13.4-21.3-8.5-22.7,4.1c-1.4,12,1.3,21,6.7,27c5.3,5.9,8.6,9.8,15.5-3.6
					C273.6,341.4,274.8,331.9,270.5,321.1z"/>
				<path class="st23" d="M269.9,322c-4.8-13.3-20.4-8.5-21.6,3.4c-1.2,12,1.5,20.5,6.6,26c5,5.3,7.5,9.3,14.1-3.8
					C272.4,341,273.6,332.5,269.9,322z"/>
			</g>
		</g>
		<g>
			<path class="st24" d="M270.8,121.2c0,16.8-15.5,30.4-15.5,30.4s-15.5-13.6-15.5-30.4c0-16.8,15.5-30.4,15.5-30.4
				S270.8,104.4,270.8,121.2z"/>
			<path class="st24" d="M270.8,333.4c0,16.8-15.5,30.4-15.5,30.4s-15.5-13.6-15.5-30.4c0-16.8,15.5-30.4,15.5-30.4
				S270.8,316.6,270.8,333.4z"/>
			<path class="st24" d="M149.2,211.8c16.8,0,30.4,15.5,30.4,15.5s-13.6,15.5-30.4,15.5c-16.8,0-30.4-15.5-30.4-15.5
				S132.4,211.8,149.2,211.8z"/>
			<path class="st24" d="M361.4,211.8c16.8,0,30.4,15.5,30.4,15.5s-13.6,15.5-30.4,15.5c-16.8,0-30.4-15.5-30.4-15.5
				S344.6,211.8,361.4,211.8z"/>
			<path class="st24" d="M169.3,291.3c11.9-11.9,32.5-10.5,32.5-10.5s1.4,20.6-10.5,32.5c-11.9,11.9-32.5,10.5-32.5,10.5
				S157.4,303.2,169.3,291.3z"/>
			<path class="st24" d="M319.3,141.3c11.9-11.9,32.5-10.5,32.5-10.5s1.4,20.6-10.5,32.4c-11.9,11.9-32.5,10.5-32.5,10.5
				S307.5,153.1,319.3,141.3z"/>
			<path class="st24" d="M319.3,313.3c-11.9-11.9-10.5-32.5-10.5-32.5s20.6-1.4,32.5,10.5c11.9,11.9,10.5,32.5,10.5,32.5
				S331.2,325.2,319.3,313.3z"/>
			<path class="st24" d="M169.3,163.2c-11.9-11.9-10.5-32.4-10.5-32.4s20.6-1.4,32.5,10.5c11.9,11.9,10.5,32.5,10.5,32.5
				S181.1,175.1,169.3,163.2z"/>
		</g>
		<g>
			<path class="st24" d="M348.6,279.4c-12.4-5.1-17.7-20.8-17.7-20.8s14.8-7.3,27.2-2.2c12.4,5.1,17.7,20.8,17.7,20.8
				S361,284.5,348.6,279.4z"/>
			<path class="st24" d="M152.5,198.2c-12.4-5.1-17.7-20.8-17.7-20.8s14.8-7.3,27.2-2.2c12.4,5.1,17.7,20.8,17.7,20.8
				S164.9,203.3,152.5,198.2z"/>
			<path class="st24" d="M226.1,124.5c5.1,12.4-2.2,27.2-2.2,27.2s-15.6-5.3-20.8-17.7c-5.1-12.4,2.2-27.2,2.2-27.2
				S221,112.1,226.1,124.5z"/>
			<path class="st24" d="M307.4,320.6c5.1,12.4-2.2,27.2-2.2,27.2s-15.6-5.3-20.8-17.7c-5.1-12.4,2.2-27.2,2.2-27.2
				S302.2,308.2,307.4,320.6z"/>
			<path class="st24" d="M152.5,256.4c12.4-5.1,27.2,2.2,27.2,2.2s-5.3,15.6-17.7,20.8c-12.4,5.1-27.2-2.2-27.2-2.2
				S140.1,261.6,152.5,256.4z"/>
			<path class="st24" d="M348.6,175.2c12.4-5.1,27.2,2.2,27.2,2.2s-5.3,15.6-17.7,20.8c-12.4,5.1-27.2-2.2-27.2-2.2
				S336.2,180.4,348.6,175.2z"/>
			<path class="st24" d="M203.2,320.6c5.1-12.4,20.8-17.7,20.8-17.7s7.3,14.8,2.2,27.2c-5.1,12.4-20.8,17.7-20.8,17.7
				S198.1,333,203.2,320.6z"/>
			<path class="st24" d="M284.4,124.5c5.1-12.4,20.8-17.7,20.8-17.7s7.3,14.8,2.2,27.2c-5.1,12.4-20.8,17.7-20.8,17.7
				S279.3,136.9,284.4,124.5z"/>
		</g>
		<g>
			<linearGradient id="SVGID_1_" gradientUnits="userSpaceOnUse" x1="241.4634" y1="107.3701" x2="271.9138" y2="137.8205">
				<stop  offset="0" style="stop-color:#FFD45C"/>
				<stop  offset="1" style="stop-color:#FF9D00"/>
			</linearGradient>
			<path class="st25" d="M272.2,122.6c0,16.8-15.5,30.4-15.5,30.4s-15.5-13.6-15.5-30.4s15.5-30.4,15.5-30.4
				S272.2,105.8,272.2,122.6z"/>
			<linearGradient id="SVGID_2_" gradientUnits="userSpaceOnUse" x1="241.4638" y1="319.6046" x2="271.9135" y2="350.0543">
				<stop  offset="0" style="stop-color:#FFD45C"/>
				<stop  offset="1" style="stop-color:#FF9D00"/>
			</linearGradient>
			<path class="st26" d="M272.2,334.8c0,16.8-15.5,30.4-15.5,30.4s-15.5-13.6-15.5-30.4c0-16.8,15.5-30.4,15.5-30.4
				S272.2,318,272.2,334.8z"/>
			
				<linearGradient id="SVGID_3_" gradientUnits="userSpaceOnUse" x1="3832.6814" y1="29.5294" x2="3802.231" y2="59.9799" gradientTransform="matrix(0 -1 1 0 105.8335 4046.168)">
				<stop  offset="0" style="stop-color:#FFD45C"/>
				<stop  offset="1" style="stop-color:#FF9D00"/>
			</linearGradient>
			<path class="st27" d="M150.6,213.2c16.8,0,30.4,15.5,30.4,15.5s-13.6,15.5-30.4,15.5c-16.8,0-30.4-15.5-30.4-15.5
				S133.8,213.2,150.6,213.2z"/>
			
				<linearGradient id="SVGID_4_" gradientUnits="userSpaceOnUse" x1="3832.6809" y1="241.7476" x2="3802.2312" y2="272.1972" gradientTransform="matrix(0 -1 1 0 105.8335 4046.168)">
				<stop  offset="0" style="stop-color:#FFD45C"/>
				<stop  offset="1" style="stop-color:#FF9D00"/>
			</linearGradient>
			<path class="st28" d="M362.8,213.2c16.8,0,30.4,15.5,30.4,15.5s-13.6,15.5-30.4,15.5c-16.8,0-30.4-15.5-30.4-15.5
				S346,213.2,362.8,213.2z"/>
			
				<linearGradient id="SVGID_5_" gradientUnits="userSpaceOnUse" x1="4609.4854" y1="1809.1033" x2="4578.4233" y2="1809.1033" gradientTransform="matrix(-0.7071 -0.7071 0.7071 -0.7071 2150.8333 4831.3374)">
				<stop  offset="0" style="stop-color:#FFD45C"/>
				<stop  offset="1" style="stop-color:#FF9D00"/>
			</linearGradient>
			<path class="st29" d="M170.7,292.8c11.9-11.9,32.5-10.5,32.5-10.5s1.4,20.6-10.5,32.5c-11.9,11.9-32.5,10.5-32.5,10.5
				S158.8,304.6,170.7,292.8z"/>
			
				<linearGradient id="SVGID_6_" gradientUnits="userSpaceOnUse" x1="4609.4854" y1="2021.3264" x2="4578.4233" y2="2021.3264" gradientTransform="matrix(-0.7071 -0.7071 0.7071 -0.7071 2150.8333 4831.3374)">
				<stop  offset="0" style="stop-color:#FFD45C"/>
				<stop  offset="1" style="stop-color:#FF9D00"/>
			</linearGradient>
			<path class="st30" d="M320.7,142.7c11.9-11.9,32.5-10.5,32.5-10.5s1.4,20.6-10.5,32.5c-11.9,11.9-32.5,10.5-32.5,10.5
				S308.9,154.6,320.7,142.7z"/>
			
				<linearGradient id="SVGID_7_" gradientUnits="userSpaceOnUse" x1="2131.1318" y1="4412.3931" x2="2131.1318" y2="4351.6284" gradientTransform="matrix(-0.7071 0.7071 -0.7071 -0.7071 4937.1714 1895.3317)">
				<stop  offset="0" style="stop-color:#FFD45C"/>
				<stop  offset="1" style="stop-color:#FF9D00"/>
			</linearGradient>
			<path class="st31" d="M320.7,314.7c-11.9-11.9-10.5-32.5-10.5-32.5s20.6-1.4,32.5,10.5c11.9,11.9,10.5,32.5,10.5,32.5
				S332.6,326.6,320.7,314.7z"/>
			
				<linearGradient id="SVGID_8_" gradientUnits="userSpaceOnUse" x1="2131.1318" y1="4624.6162" x2="2131.1318" y2="4563.8516" gradientTransform="matrix(-0.7071 0.7071 -0.7071 -0.7071 4937.1714 1895.3317)">
				<stop  offset="0" style="stop-color:#FFD45C"/>
				<stop  offset="1" style="stop-color:#FF9D00"/>
			</linearGradient>
			<path class="st32" d="M170.7,164.7c-11.9-11.9-10.5-32.5-10.5-32.5s20.6-1.4,32.5,10.5c11.9,11.9,10.5,32.5,10.5,32.5
				S182.5,176.5,170.7,164.7z"/>
		</g>
		<g>
			<linearGradient id="SVGID_9_" gradientUnits="userSpaceOnUse" x1="338.8585" y1="253.4426" x2="370.6118" y2="285.1959">
				<stop  offset="0" style="stop-color:#FFBB31"/>
				<stop  offset="1" style="stop-color:#FF9D00"/>
			</linearGradient>
			<path class="st33" d="M350,280.8c-12.4-5.1-17.7-20.8-17.7-20.8s14.8-7.3,27.2-2.2c12.4,5.1,17.7,20.8,17.7,20.8
				S362.4,285.9,350,280.8z"/>
			<linearGradient id="SVGID_10_" gradientUnits="userSpaceOnUse" x1="142.7851" y1="172.226" x2="174.5385" y2="203.9793">
				<stop  offset="0" style="stop-color:#FFBB31"/>
				<stop  offset="1" style="stop-color:#FF9D00"/>
			</linearGradient>
			<path class="st34" d="M153.9,199.6c-12.4-5.1-17.7-20.8-17.7-20.8s14.8-7.3,27.2-2.2c12.4,5.1,17.7,20.8,17.7,20.8
				S166.3,204.7,153.9,199.6z"/>
			<linearGradient id="SVGID_11_" gradientUnits="userSpaceOnUse" x1="200.2073" y1="114.7859" x2="231.9696" y2="146.5482">
				<stop  offset="0" style="stop-color:#FFBB31"/>
				<stop  offset="1" style="stop-color:#FF9D00"/>
			</linearGradient>
			<path class="st35" d="M227.6,125.9c5.1,12.4-2.2,27.2-2.2,27.2s-15.6-5.3-20.8-17.7c-5.1-12.4,2.2-27.2,2.2-27.2
				S222.4,113.5,227.6,125.9z"/>
			<linearGradient id="SVGID_12_" gradientUnits="userSpaceOnUse" x1="281.4292" y1="310.8719" x2="313.1736" y2="342.6163">
				<stop  offset="0" style="stop-color:#FFBB31"/>
				<stop  offset="1" style="stop-color:#FF9D00"/>
			</linearGradient>
			<path class="st36" d="M308.8,322c5.2,12.4-2.2,27.2-2.2,27.2s-15.6-5.3-20.8-17.7c-5.1-12.4,2.2-27.2,2.2-27.2
				S303.6,309.6,308.8,322z"/>
			<linearGradient id="SVGID_13_" gradientUnits="userSpaceOnUse" x1="149.2471" y1="259.9082" x2="168.0653" y2="278.7264">
				<stop  offset="0" style="stop-color:#FFBB31"/>
				<stop  offset="1" style="stop-color:#FF9D00"/>
			</linearGradient>
			<path class="st37" d="M153.9,257.8c12.4-5.1,27.2,2.2,27.2,2.2s-5.3,15.6-17.7,20.8c-12.4,5.1-27.2-2.2-27.2-2.2
				S141.5,263,153.9,257.8z"/>
			<linearGradient id="SVGID_14_" gradientUnits="userSpaceOnUse" x1="345.3168" y1="178.6879" x2="364.1386" y2="197.5097">
				<stop  offset="0" style="stop-color:#FFBB31"/>
				<stop  offset="1" style="stop-color:#FF9D00"/>
			</linearGradient>
			<path class="st38" d="M350,176.6c12.4-5.1,27.2,2.2,27.2,2.2s-5.3,15.6-17.7,20.8c-12.4,5.1-27.2-2.2-27.2-2.2
				S337.6,181.8,350,176.6z"/>
			<linearGradient id="SVGID_15_" gradientUnits="userSpaceOnUse" x1="206.6837" y1="317.3359" x2="225.5004" y2="336.1526">
				<stop  offset="0" style="stop-color:#FFBB31"/>
				<stop  offset="1" style="stop-color:#FF9D00"/>
			</linearGradient>
			<path class="st39" d="M204.6,322c5.1-12.4,20.8-17.7,20.8-17.7s7.3,14.8,2.2,27.2c-5.1,12.4-20.8,17.7-20.8,17.7
				S199.5,334.4,204.6,322z"/>
			<linearGradient id="SVGID_16_" gradientUnits="userSpaceOnUse" x1="287.8988" y1="121.261" x2="306.7112" y2="140.0733">
				<stop  offset="0" style="stop-color:#FFBB31"/>
				<stop  offset="1" style="stop-color:#FF9D00"/>
			</linearGradient>
			<path class="st40" d="M285.8,125.9c5.1-12.4,20.8-17.7,20.8-17.7s7.3,14.8,2.2,27.2c-5.1,12.4-20.8,17.7-20.8,17.7
				S280.7,138.3,285.8,125.9z"/>
		</g>
		<g class="st63">
			<path class="st2" d="M353.2,337.7c-43.9,36.4-104,44.2-157.2,11c-70.9-44.2-54.6-104-22.1-105.4c32-1.4,59,9.3,79.6-12.3
				c24-25.1,24.1-52.8,30.5-81.7c7-32.2,47.9-42.5,91.9,4.4C423.9,204.7,408.6,291.8,353.2,337.7z"/>
			<path class="st3" d="M351.9,335c-42.7,35.7-100.9,43.6-152.8,12c-69.5-42-54.9-100.2-23.3-101.8c30.8-1.5,58.6,10.1,80-12.7
				c23.9-25.3,23.8-52.5,29.7-81c6.6-31.4,46.2-41.4,88.8,4.5C420.2,205.4,405.8,289.8,351.9,335z"/>
			<path class="st4" d="M350.6,332.2c-41.4,34.9-97.7,42.9-148.4,13.1c-68-40-55.1-96.4-24.6-98.1c29.6-1.6,58.1,10.9,80.4-13.2
				c23.8-25.6,23.4-52.4,28.9-80.4c6-30.6,44.5-40.1,85.6,4.7C416.3,206.3,403.1,287.9,350.6,332.2z"/>
			<path class="st5" d="M349.3,329.5c-40.2,34.2-94.6,42.3-144,14.1c-66.5-37.9-55.4-92.6-25.9-94.5c28.4-1.8,57.6,11.7,80.8-13.6
				c23.7-25.9,23.1-52.2,28.1-79.7c5.4-29.9,42.8-38.9,82.4,4.9C412.5,207.1,400.4,286,349.3,329.5z"/>
			<path class="st6" d="M348,326.8c-39,33.4-91.5,41.7-139.7,15.1c-65.1-35.8-55.7-88.8-27.2-90.9c27.3-1.9,57.2,12.4,81.2-14
				c23.7-26.1,22.8-52,27.4-79.1c4.9-29.1,41.1-37.7,79.2,5.1C408.7,207.8,397.7,284,348,326.8z"/>
			<path class="st7" d="M346.6,324.1c-37.8,32.7-88.3,41-135.3,16.2c-63.6-33.7-55.9-85-28.4-87.2c26.1-2.1,56.8,13.2,81.6-14.5
				c23.6-26.4,22.4-51.8,26.6-78.5c4.4-28.3,39.4-36.4,76,5.3C404.9,208.6,394.9,282.1,346.6,324.1z"/>
			<path class="st8" d="M345.3,321.4c-36.5,31.9-85.2,40.4-130.9,17.2c-62.2-31.6-56.2-81.2-29.7-83.6c24.9-2.2,56.4,14,82-14.9
				c23.5-26.6,22.1-51.5,25.8-77.8c3.9-27.5,37.7-35.2,72.8,5.5C401.2,209.4,392.2,280.2,345.3,321.4z"/>
			<path class="st9" d="M344,318.6c-35.3,31.2-82.1,39.8-126.5,18.2c-60.7-29.5-56.4-77.4-31-80c23.7-2.3,55.9,14.9,82.4-15.4
				c23.5-26.8,21.8-51.3,25-77.2c3.4-26.7,36-34,69.6,5.7C397.4,210.2,389.5,278.2,344,318.6z"/>
			<path class="st10" d="M342.7,315.9c-34.1,30.4-79,39.1-122.1,19.3c-59.3-27.4-56.7-73.6-32.3-76.3c22.5-2.5,55.5,15.7,82.8-15.8
				c23.4-27,21.5-51.1,24.3-76.5c2.8-25.9,34.4-32.8,66.4,5.8C393.6,210.9,386.8,276.3,342.7,315.9z"/>
			<path class="st11" d="M341.3,313.2c-32.9,29.7-75.9,38.5-117.8,20.3c-57.9-25.2-57-69.8-33.6-72.7c21.4-2.6,55.1,16.5,83.2-16.3
				c23.4-27.2,21.2-50.9,23.5-75.9c2.3-25,32.7-31.7,63.2,6C389.9,211.7,384,274.4,341.3,313.2z"/>
			<path class="st12" d="M340,310.5c-31.6,29-72.8,37.9-113.4,21.3c-56.5-23.1-57.2-66-34.8-69c20.2-2.7,54.7,17.3,83.6-16.7
				c23.4-27.5,20.8-50.7,22.7-75.2c1.8-24.2,31-30.5,60,6.2C386.1,212.4,381.4,272.5,340,310.5z"/>
			<path class="st13" d="M338.7,307.8c-30.4,28.2-69.7,37.3-109,22.3c-55-21-57.5-62.2-36.1-65.4c19-2.8,54.3,18.1,84-17.1
				c23.3-27.7,20.5-50.5,21.9-74.6c1.4-23.4,29.3-29.3,56.8,6.4C382.3,213.2,378.7,270.6,338.7,307.8z"/>
			<path class="st14" d="M337.4,305c-29.1,27.5-66.6,36.7-104.6,23.4c-53.6-18.8-57.7-58.4-37.4-61.8c17.8-3,53.9,19,84.5-17.6
				c23.3-27.9,20.2-50.3,21.2-73.9c0.9-22.6,27.7-28.1,53.6,6.6C378.6,213.9,376,268.7,337.4,305z"/>
			<path class="st15" d="M336,302.3c-27.9,26.7-63.6,36.1-100.2,24.4c-52.2-16.7-58-54.6-38.7-58.1c16.6-3.1,53.5,19.8,84.9-18
				c23.3-28.1,20-50.1,20.4-73.3c0.4-21.8,26-27,50.4,6.8C374.9,214.6,373.2,266.7,336,302.3z"/>
			<path class="st16" d="M334.7,299.6c-26.7,26-60.5,35.5-95.9,25.4c-50.8-14.5-58.3-50.7-39.9-54.5c15.4-3.2,53.1,20.6,85.3-18.5
				c23.3-28.3,19.7-49.8,19.6-72.6c-0.1-21,24.4-25.8,47.2,7C371.2,215.3,370.5,264.8,334.7,299.6z"/>
			<path class="st17" d="M333.4,296.9c-25.5,25.2-57.4,34.9-91.5,26.5c-49.4-12.3-58.5-46.9-41.2-50.9c14.3-3.3,52.7,21.5,85.7-18.9
				c23.2-28.5,19.4-49.6,18.8-72c-0.5-20.2,22.8-24.7,44,7.1C367.5,216,367.8,262.8,333.4,296.9z"/>
			<path class="st18" d="M332.1,294.2c-24.3,24.5-54.3,34.4-87.1,27.5c-48-10.1-58.8-43-42.5-47.2c13.1-3.4,52.4,22.3,86.1-19.4
				c23.2-28.7,19.2-49.4,18.1-71.4c-1-19.4,21.2-23.6,40.8,7.3C363.8,216.7,365,260.9,332.1,294.2z"/>
			<path class="st19" d="M330.8,291.5c-23,23.7-51.2,33.8-82.7,28.5c-46.6-7.9-59-39.2-43.8-43.6c11.9-3.4,52,23.2,86.5-19.8
				c23.2-28.9,18.9-49.2,17.3-70.7c-1.4-18.6,19.6-22.4,37.6,7.5C360.1,217.4,362.3,259,330.8,291.5z"/>
			<path class="st20" d="M329.4,288.7c-21.8,23-48.2,33.3-78.3,29.6c-45.2-5.6-59.3-35.3-45-40c10.7-3.5,51.6,24,86.9-20.2
				c23.2-29.1,18.7-49,16.5-70.1c-1.8-17.8,18.1-21.4,34.4,7.7C356.5,218.1,359.6,257,329.4,288.7z"/>
			<path class="st21" d="M328.1,286c-20.7,22.2-45.1,32.8-74,30.6c-43.8-3.4-59.5-31.4-46.3-36.3c9.6-3.6,51.3,24.9,87.3-20.7
				c23.2-29.2,18.5-48.8,15.7-69.4c-2.2-17,16.6-20.3,31.2,7.9C352.9,218.7,356.8,255,328.1,286z"/>
			<path class="st22" d="M326.8,283.3c-19.4,21.4-42,32.3-69.6,31.6c-42.4-1-59.8-27.5-47.6-32.7c8.4-3.6,50.9,25.8,87.7-21.1
				c23.2-29.4,18.3-48.6,15-68.8c-2.6-16.2,15.1-19.2,28,8.1C349.3,219.4,354.1,253.1,326.8,283.3z"/>
			<path class="st23" d="M325.5,280.6c-18.2,20.7-38.9,31.8-65.2,32.6c-41,1.3-60-23.5-48.9-29c7.3-3.6,50.5,26.6,88.1-21.6
				c23.2-29.7,18.1-48.4,14.2-68.1c-3-15.4,13.8-18.2,24.8,8.3C345.8,220,351.3,251.2,325.5,280.6z"/>
		</g>
		<circle class="st24" cx="255.3" cy="227.3" r="86.5"/>
		<linearGradient id="SVGID_17_" gradientUnits="userSpaceOnUse" x1="195.5194" y1="167.54" x2="317.8561" y2="289.8766">
			<stop  offset="0" style="stop-color:#FFD45C"/>
			<stop  offset="1" style="stop-color:#FF9D00"/>
		</linearGradient>
		<path class="st62" d="M343.2,228.7c0,47.8-38.7,86.5-86.5,86.5c-47.8,0-86.5-38.7-86.5-86.5s38.7-86.5,86.5-86.5
			C304.5,142.2,343.2,180.9,343.2,228.7z"/>
	</g>
	<g>
		<g class="st113">
			<path class="st2" d="M392.8,380.7c20.4-17.3,16.8-70.8,6.3-85.2c-13.7-18.8-28.3-30.3-40.8-36.5c-12.5-6.3-47.8-11.7-63.8-11.7
				c-22.4,0-44.4,5.4-62.5,10.3c-19.6,5.2-58,19.3-76.2,39.3c-21.3,23.4-2.5,69.9,2.9,76.7c10.2,12.7,22.5,25.4,38,32.9
				c14.8,7.1,27.7,6.7,38.8,7.5c8.4,0.6,45.7,4.7,67.6,0.2c15.5-3.2,41.7-8,49.2-11.7C359.2,399,376.5,394.6,392.8,380.7z"/>
			<path class="st3" d="M391.3,380.2c20.3-16.8,17-68.8,6.6-83.5c-13.6-19.1-28.2-29.9-40.7-36.2c-12.4-6.1-46.1-11.7-62.1-11.9
				c-22-0.2-44.2,5-62.3,9.9c-19.7,5.3-58,19.6-75.7,38.9c-20.7,22.6-3.1,68.1,2.8,75.5c9.9,12.4,21.5,25.1,37.3,32.4
				c14.8,6.9,27.6,6.2,38.4,7.1c8.4,0.7,44.5,5.5,66.7,1c15.8-3.2,41.2-8.6,48.5-12.3C357.7,397.7,374.9,393.7,391.3,380.2z"/>
			<path class="st90" d="M389.8,379.6c20.2-16.4,17.2-66.8,6.8-81.9c-13.5-19.5-28.1-29.6-40.7-35.8c-12.2-6-44.4-11.7-60.4-12
				c-21.6-0.5-44,4.6-62.1,9.6c-19.8,5.4-58.1,19.8-75.2,38.5c-20,21.8-3.8,66.3,2.7,74.3c9.7,12,20.6,24.7,36.6,31.9
				c14.8,6.7,27.5,5.7,38,6.7c8.3,0.8,43.3,6.3,65.8,1.8c16.2-3.3,40.6-9.2,47.8-12.8C356.1,396.3,373.4,392.8,389.8,379.6z"/>
			<path class="st5" d="M388.3,379c20.1-15.9,17.5-64.8,7.1-80.3c-13.3-19.8-28-29.2-40.6-35.4c-12-5.9-42.7-11.6-58.7-12.1
				c-21.1-0.7-43.7,4.2-61.9,9.2c-19.9,5.4-58.1,20.1-74.7,38.1c-19.3,21-4.4,64.6,2.5,73.1c9.4,11.7,19.7,24.4,35.9,31.5
				c14.8,6.5,27.4,5.1,37.7,6.2c8.3,0.9,42.1,7.1,64.9,2.6c16.5-3.3,40.1-9.8,47.1-13.3C354.6,394.9,371.8,392,388.3,379z"/>
			<path class="st91" d="M386.8,378.4c20.1-15.4,17.7-62.8,7.3-78.7c-13.1-20.1-28-28.9-40.5-35c-11.8-5.8-41-11.6-57-12.3
				c-20.7-0.9-43.5,3.8-61.7,8.9c-19.9,5.5-58.2,20.4-74.1,37.7c-18.7,20.2-5,62.8,2.4,71.9c9.2,11.3,18.7,24,35.2,31
				c14.8,6.3,27.4,4.6,37.3,5.8c8.3,1,41,7.9,64,3.4c16.8-3.3,39.5-10.4,46.3-13.9C353,393.5,370.2,391.1,386.8,378.4z"/>
			<path class="st92" d="M385.3,377.8c20-15,17.9-60.8,7.5-77.1c-13-20.4-27.9-28.5-40.5-34.6c-11.7-5.7-39.3-11.5-55.3-12.4
				c-20.3-1.1-43.3,3.4-61.5,8.5c-20,5.6-58.2,20.7-73.6,37.3c-18,19.4-5.6,61,2.2,70.7c8.9,11,17.7,23.7,34.5,30.5
				c14.8,6.1,27.3,4.1,36.9,5.4c8.2,1.1,39.8,8.6,63.1,4.2c17.2-3.3,38.9-11,45.6-14.4C351.5,392.1,368.6,390.3,385.3,377.8z"/>
			<path class="st93" d="M383.8,377.2c19.9-14.5,18.1-58.8,7.8-75.4c-12.9-20.7-27.8-28.2-40.4-34.2c-11.5-5.6-37.6-11.5-53.5-12.6
				c-19.9-1.3-43,3-61.3,8.2c-20.1,5.6-58.3,20.9-73.1,36.9c-17.3,18.7-6.3,59.2,2.1,69.5c8.7,10.6,16.8,23.3,33.7,30.1
				c14.8,5.9,27.2,3.6,36.6,5c8.2,1.2,38.6,9.4,62.2,5c17.5-3.3,38.4-11.6,44.9-15C349.9,390.8,367,389.4,383.8,377.2z"/>
			<path class="st94" d="M382.3,376.6c19.8-14.1,18.4-56.8,8-73.8c-12.7-21.1-27.7-27.8-40.3-33.8c-11.3-5.4-35.9-11.5-51.8-12.7
				c-19.5-1.5-42.8,2.6-61.1,7.8c-20.2,5.7-58.3,21.2-72.6,36.5c-16.7,17.9-6.9,57.5,2,68.2c8.4,10.3,15.8,23,33,29.6
				c14.7,5.7,27.1,3.1,36.2,4.6c8.2,1.3,37.4,10.2,61.3,5.8c17.8-3.3,37.8-12.3,44.2-15.5C348.4,389.4,365.5,388.5,382.3,376.6z"/>
			<path class="st95" d="M380.8,376c19.6-13.6,18.6-54.7,8.3-72.2c-12.6-21.4-27.7-27.5-40.3-33.4c-11.1-5.3-34.2-11.4-50.1-12.9
				c-19-1.7-42.6,2.2-60.9,7.5c-20.3,5.8-58.4,21.5-72.1,36.1c-16,17.1-7.5,55.7,1.8,67c8.1,9.9,14.9,22.7,32.3,29.2
				c14.7,5.5,27,2.6,35.8,4.1c8.1,1.4,36.2,11,60.4,6.5c18.2-3.3,37.3-12.9,43.4-16.1C346.8,388,363.9,387.7,380.8,376z"/>
			<path class="st96" d="M379.3,375.4c19.5-13.2,18.8-52.7,8.5-70.6c-12.5-21.7-27.6-27.1-40.2-33c-11-5.2-32.5-11.4-48.4-13
				c-18.6-1.9-42.3,1.9-60.7,7.1c-20.4,5.8-58.4,21.8-71.5,35.7c-15.3,16.3-8.1,53.9,1.7,65.8c7.9,9.6,13.9,22.3,31.6,28.7
				c14.7,5.3,26.9,2.1,35.5,3.7c8.1,1.6,35,11.8,59.5,7.3c18.5-3.3,36.7-13.5,42.7-16.6C345.3,386.6,362.3,386.8,379.3,375.4z"/>
			<path class="st97" d="M377.8,374.8c19.4-12.7,19-50.7,8.8-69c-12.4-22-27.5-26.7-40.1-32.6c-10.8-5.1-30.8-11.3-46.7-13.2
				c-18.2-2.1-42.1,1.5-60.5,6.7c-20.5,5.9-58.5,22-71,35.2c-14.7,15.5-8.8,52.1,1.5,64.6c7.6,9.2,12.9,22,30.9,28.2
				c14.7,5.1,26.8,1.6,35.1,3.3c8.1,1.7,33.8,12.5,58.6,8.1c18.8-3.3,36.1-14.1,42-17.1C343.7,385.2,360.7,385.9,377.8,374.8z"/>
			<path class="st98" d="M376.3,374.2c19.3-12.3,19.2-48.7,9-67.4c-12.2-22.3-27.4-26.4-40.1-32.3c-10.6-5-29.1-11.2-45-13.3
				c-17.8-2.3-41.9,1.1-60.3,6.4c-20.6,6-58.5,22.3-70.5,34.8c-14,14.7-9.4,50.3,1.4,63.4c7.4,8.9,12,21.7,30.2,27.8
				c14.7,4.9,26.8,1.1,34.7,2.9c8,1.8,32.6,13.3,57.7,8.9c19.2-3.3,35.6-14.7,41.2-17.7C342.2,383.9,359.1,385.1,376.3,374.2z"/>
			<path class="st99" d="M374.8,373.6c19.2-11.8,19.5-46.7,9.3-65.7c-12.1-22.6-27.4-26-40-31.9c-10.5-4.8-27.4-11.2-43.3-13.5
				c-17.3-2.5-41.6,0.7-60.1,6c-20.7,6-58.6,22.6-70,34.4c-13.3,13.9-10,48.6,1.3,62.2c7.1,8.5,11,21.4,29.5,27.3
				c14.7,4.7,26.7,0.6,34.4,2.4c8,1.9,31.4,14.1,56.8,9.7c19.5-3.3,35-15.3,40.5-18.2C340.6,382.5,357.5,384.2,374.8,373.6z"/>
			<path class="st100" d="M373.2,373c19.1-11.4,19.7-44.6,9.5-64.1c-12-22.9-27.3-25.7-39.9-31.5c-10.3-4.7-25.7-11.1-41.5-13.6
				c-16.9-2.7-41.4,0.3-59.9,5.7c-20.8,6.1-58.6,22.8-69.4,34c-12.7,13.1-10.7,46.8,1.1,61c6.8,8.2,10,21,28.8,26.8
				c14.6,4.5,26.6,0.1,34,2c8,2.1,30.2,14.9,55.9,10.5c19.8-3.3,34.5-15.9,39.8-18.8C339.1,381.1,355.9,383.3,373.2,373z"/>
			<path class="st101" d="M371.7,372.4c19-11,19.9-42.6,9.7-62.5c-11.9-23.2-27.2-25.3-39.9-31.1c-10.1-4.6-24-11-39.8-13.8
				c-16.5-2.8-41.2-0.1-59.7,5.3c-20.8,6.2-58.7,23.1-68.9,33.6c-12,12.3-11.3,45,1,59.8c6.6,7.9,9.1,20.7,28.1,26.4
				c14.6,4.3,26.5-0.4,33.6,1.6c7.9,2.2,29.1,15.7,55,11.3c20.2-3.4,33.9-16.5,39.1-19.3C337.5,379.7,354.3,382.4,371.7,372.4z"/>
			<path class="st102" d="M370.2,371.8c18.9-10.5,20.1-40.6,10-60.9c-11.7-23.5-27.1-25-39.8-30.7c-9.9-4.5-22.3-11-38.1-13.9
				c-16.1-3-40.9-0.5-59.4,5c-20.9,6.2-58.7,23.4-68.4,33.2c-11.3,11.5-11.9,43.3,0.8,58.6c6.3,7.5,8.1,20.4,27.4,25.9
				c14.6,4.2,26.4-0.9,33.3,1.2c7.9,2.3,27.9,16.4,54.1,12.1c20.5-3.4,33.3-17.1,38.3-19.9C336,378.3,352.7,381.5,370.2,371.8z"/>
			<path class="st103" d="M368.7,371.2c18.7-10.1,20.3-38.6,10.2-59.3c-11.6-23.8-27-24.6-39.7-30.3c-9.8-4.4-20.6-10.9-36.4-14
				c-15.7-3.1-40.7-0.9-59.2,4.6c-21,6.3-58.8,23.7-67.9,32.8c-10.7,10.7-12.6,41.5,0.7,57.4c6,7.2,7.1,20.1,26.7,25.5
				c14.6,4,26.3-1.3,32.9,0.8c7.9,2.5,26.7,17.2,53.2,12.9c20.8-3.4,32.8-17.7,37.6-20.4C334.4,376.9,351.2,380.7,368.7,371.2z"/>
			<path class="st104" d="M367.2,370.6c18.6-9.7,20.5-36.6,10.5-57.6c-11.5-24.1-27-24.3-39.7-29.9c-9.6-4.3-18.9-10.8-34.7-14.2
				c-15.2-3.3-40.5-1.3-59,4.3c-21.1,6.4-58.8,23.9-67.4,32.4c-10,9.9-13.2,39.7,0.6,56.1c5.7,6.8,6.1,19.8,25.9,25
				c14.5,3.8,26.2-1.8,32.5,0.3c7.8,2.6,25.5,18,52.4,13.7c21.2-3.4,32.2-18.4,36.9-20.9C332.8,375.6,349.6,379.8,367.2,370.6z"/>
			<path class="st105" d="M365.7,370c18.5-9.2,20.7-34.5,10.7-56c-11.4-24.4-26.9-23.9-39.6-29.5c-9.4-4.2-17.2-10.7-33-14.3
				c-14.8-3.4-40.2-1.7-58.8,3.9c-21.2,6.4-58.9,24.2-66.8,32c-9.3,9.2-13.9,38,0.4,54.9c5.5,6.5,5.2,19.5,25.2,24.5
				c14.5,3.6,26.1-2.3,32.2-0.1c7.8,2.8,24.3,18.8,51.5,14.5c21.5-3.4,31.6-19,36.2-21.5C331.3,374.2,348,378.9,365.7,370z"/>
			<path class="st106" d="M364.2,369.4c18.4-8.8,20.9-32.5,11-54.4c-11.3-24.7-26.8-23.6-39.5-29.1c-9.2-4-15.5-10.6-31.3-14.5
				c-14.4-3.6-40-2.1-58.6,3.6c-21.3,6.5-58.9,24.5-66.3,31.6c-8.7,8.4-14.5,36.2,0.3,53.7c5.2,6.2,4.2,19.2,24.5,24.1
				c14.5,3.5,26-2.7,31.8-0.5c7.7,3,23.1,19.6,50.6,15.3c21.8-3.4,31.1-19.6,35.4-22C329.7,372.8,346.4,378,364.2,369.4z"/>
			<path class="st107" d="M362.7,368.8c18.2-8.4,21.1-30.5,11.2-52.8c-11.2-25.1-26.7-23.2-39.5-28.7c-9.1-3.9-13.8-10.5-29.5-14.6
				c-14-3.7-39.8-2.5-58.4,3.2c-21.4,6.6-59,24.8-65.8,31.2c-8,7.6-15.2,34.5,0.1,52.5c4.9,5.8,3.2,18.9,23.8,23.6
				c14.5,3.3,25.9-3.2,31.4-0.9c7.7,3.2,21.9,20.3,49.7,16.1c22.2-3.4,30.5-20.2,34.7-22.6C328.2,371.4,344.7,377.1,362.7,368.8z"/>
			<path class="st108" d="M361.2,368.2c18.1-8,21.4-28.5,11.4-51.2c-11.1-25.4-26.6-22.9-39.4-28.4c-8.9-3.8-12.2-10.3-27.8-14.8
				c-13.6-3.8-39.5-2.9-58.2,2.8c-21.5,6.6-59,25-65.3,30.8c-7.3,6.8-15.9,32.7,0,51.3c4.7,5.5,2.3,18.6,23.1,23.1
				c14.4,3.2,25.8-3.6,31.1-1.4c7.6,3.3,20.7,21.1,48.8,16.9c22.5-3.4,30-20.8,34-23.1C326.6,370,343.2,376.2,361.2,368.2z"/>
		</g>
		<path class="st111" d="M337,282.9c-1,0-1.9,0.1-2.9,0.1c-5.2-14.8-19.3-25.5-36-25.5c-5,0-9.7,1-14,2.7
			c-5.1-14.2-18.8-24.4-34.8-24.4c-15.6,0-28.9,9.6-34.4,23.3c-1.8-0.3-3.7-0.5-5.6-0.5c-16.8,0-30.6,12.7-32.4,29.1
			c-2.3-0.5-4.8-0.7-7.3-0.7c-20.3,0-36.7,16.4-36.7,36.7c0,20.3,16.4,36.7,36.7,36.7c0.3,0,0.6,0,1,0c3.6,14.8,16.9,25.8,32.9,25.8
			c12.3,0,23.1-6.6,29-16.5c8.1,13.8,23,23,40.1,23c18.9,0,35.2-11.3,42.4-27.6c6.4,3.7,13.9,5.9,21.9,5.9
			c24.3,0,44.1-19.7,44.1-44.1C381,302.6,361.3,282.9,337,282.9z"/>
		<path class="st112" d="M338.5,284.4c-1,0-1.9,0-2.9,0.1c-5.2-14.8-19.4-25.5-36-25.5c-5,0-9.7,1-14,2.7
			c-5.2-14.2-18.8-24.4-34.8-24.4c-15.6,0-28.9,9.6-34.4,23.3c-1.8-0.3-3.7-0.5-5.6-0.5c-16.8,0-30.6,12.7-32.3,29.1
			c-2.3-0.5-4.8-0.7-7.3-0.7c-20.3,0-36.7,16.4-36.7,36.7c0,20.3,16.4,36.7,36.7,36.7c0.3,0,0.6,0,0.9,0
			c3.6,14.8,16.9,25.8,32.9,25.8c12.3,0,23.1-6.6,29-16.5c8,13.8,23,23,40.1,23c18.9,0,35.2-11.3,42.4-27.6
			c6.5,3.7,13.9,5.8,21.9,5.8c24.3,0,44.1-19.7,44.1-44.1C382.6,304.2,362.8,284.4,338.5,284.4z"/>
	</g>
	<g>
		<g class="st1">
			<path class="st2" d="M273.5,336.8c12.6-18.8,6.5-53.4-2.3-65.6c-11.6-15.9-29.7-18.1-40.3-23.4c-10.6-5.3-30.7-19.6-44.3-19.6
				c-19,0-28.6,7-43.9,11.1c-16.6,4.4-44.7,30.3-60.1,47.2c-18.1,19.8-13.5,49.6-8.9,55.3c8.6,10.8,19.1,21.5,32.2,27.8
				c12.6,6,23.4,5.7,32.8,6.4c7.1,0.5,15.4,4,33.9,0.2c13.1-2.7,19.4-3.8,26.1-5.9C213,365.8,258.2,359.5,273.5,336.8z"/>
			<path class="st3" d="M271.1,336.1c12.6-18.1,6.8-52.1-1.8-64.1c-11.5-15.9-29.4-17.8-39.9-23c-10.4-5.2-29.9-19.6-43.3-19.8
				c-18.5-0.1-28.5,6.6-43.7,10.7c-16.5,4.4-44,30-58.9,46.3c-17.4,19.1-13.9,48.1-9.1,54.2c8.4,10.5,18.5,21,31.6,27
				c12.6,5.7,23.3,5.1,32.3,5.8c7,0.6,15.4,4.3,33.9,0.5c13.2-2.7,19.5-4,26.1-5.9C212.3,363.7,256,358,271.1,336.1z"/>
			<path class="st90" d="M268.6,335.5c12.5-17.5,7.2-50.7-1.3-62.5c-11.4-15.9-29.1-17.5-39.5-22.7c-10.2-5-29.1-19.7-42.3-19.9
				c-18-0.3-28.4,6.2-43.4,10.2c-16.3,4.4-43.2,29.7-57.6,45.4c-16.8,18.3-14.4,46.7-9.2,53.1c8.1,10.1,17.9,20.5,31.1,26.2
				c12.7,5.5,23.1,4.4,31.9,5.2c6.9,0.6,15.4,4.6,33.9,0.8c13.3-2.7,19.7-4.2,26-6C211.6,361.6,253.6,356.5,268.6,335.5z"/>
			<path class="st5" d="M266.2,334.8c12.5-16.9,7.5-49.3-0.9-61c-11.3-15.9-28.8-17.2-39.1-22.3c-9.9-4.9-28.2-19.7-41.3-20.1
				c-17.5-0.5-28.2,5.7-43.1,9.8c-16.2,4.4-42.5,29.5-56.4,44.5c-16.2,17.6-14.8,45.2-9.4,51.9c7.9,9.7,17.4,20,30.6,25.4
				c12.8,5.2,22.9,3.8,31.4,4.7c6.8,0.7,15.4,4.9,33.9,1.1c13.4-2.7,19.8-4.4,26-6C210.9,359.5,251.3,355,266.2,334.8z"/>
			<path class="st91" d="M263.7,334.2c12.4-16.3,7.8-47.9-0.4-59.5c-11.1-15.9-28.5-17-38.7-21.9c-9.7-4.8-27.4-19.8-40.3-20.3
				c-17.1-0.6-28.1,5.3-42.9,9.3c-16.1,4.4-41.8,29.2-55.1,43.6c-15.5,16.9-15.3,43.8-9.6,50.8c7.6,9.4,16.8,19.5,30.1,24.6
				c12.9,5,22.8,3.2,31,4.1c6.7,0.7,15.4,5.1,33.9,1.5c13.4-2.6,20-4.6,25.9-6C210.2,357.4,249,353.5,263.7,334.2z"/>
			<path class="st92" d="M261.3,333.5c12.4-15.6,8.1-46.5,0.1-58c-11-15.9-28.2-16.7-38.3-21.6c-9.5-4.6-26.5-19.8-39.3-20.4
				c-16.6-0.8-28,4.9-42.6,8.9c-16,4.4-41.1,28.9-53.9,42.7c-14.9,16.1-15.8,42.3-9.8,49.7c7.3,9.1,16.2,19,29.6,23.8
				c13,4.7,22.6,2.6,30.5,3.5c6.6,0.8,15.4,5.4,33.9,1.8c13.5-2.6,20.1-4.9,25.9-6.1C209.5,355.3,246.7,352,261.3,333.5z"/>
			<path class="st93" d="M258.9,332.9c12.3-15,8.4-45.1,0.6-56.5c-11-15.9-27.9-16.4-37.9-21.2c-9.3-4.5-25.7-19.9-38.3-20.6
				c-16.1-0.9-27.9,4.4-42.4,8.5c-15.9,4.4-40.4,28.7-52.6,41.8c-14.3,15.4-16.2,40.9-10,48.5c7.1,8.7,15.6,18.5,29,23
				c13.1,4.4,22.4,1.9,30.1,3c6.5,0.9,15.4,5.7,33.9,2.1c13.6-2.6,20.3-5.1,25.9-6.1C208.8,353.2,244.4,350.5,258.9,332.9z"/>
			<path class="st94" d="M256.4,332.2c12.3-14.4,8.7-43.7,1-55c-10.8-15.8-27.6-16.1-37.5-20.8c-9-4.4-24.8-19.9-37.3-20.7
				c-15.6-1-27.8,4-42.1,8c-15.8,4.4-39.7,28.4-51.4,40.9c-13.6,14.7-16.7,39.4-10.2,47.4c6.8,8.4,15.1,18,28.5,22.2
				c13.2,4.2,22.3,1.3,29.6,2.4c6.4,0.9,15.4,6,33.9,2.5c13.7-2.6,20.4-5.3,25.8-6.2C208.1,351.1,242.1,349,256.4,332.2z"/>
			<path class="st95" d="M254,331.6c12.2-13.8,9-42.4,1.5-53.5c-10.7-15.8-27.3-15.8-37.1-20.4c-8.8-4.2-24-20-36.3-20.9
				c-15.1-1.2-27.7,3.6-41.8,7.6c-15.7,4.4-39,28.1-50.1,40c-13,14-17.2,38-10.4,46.3c6.6,8,14.5,17.5,28,21.4
				c13.3,3.9,22.1,0.7,29.2,1.8c6.3,1,15.4,6.2,33.9,2.8c13.8-2.5,20.6-5.5,25.8-6.2C207.4,349,239.8,347.5,254,331.6z"/>
			<path class="st96" d="M251.5,330.9c12.2-13.1,9.4-41,2-51.9c-10.6-15.8-27-15.5-36.7-20.1c-8.6-4.1-23.1-20-35.3-21.1
				c-14.7-1.3-27.5,3.2-41.6,7.1c-15.6,4.4-38.3,27.9-48.9,39.2c-12.4,13.2-17.6,36.5-10.6,45.1c6.3,7.7,13.9,17,27.5,20.6
				c13.4,3.6,21.9,0.1,28.7,1.3c6.3,1.1,15.4,6.5,33.9,3.1c13.9-2.5,20.8-5.7,25.7-6.2C206.8,346.9,237.5,346,251.5,330.9z"/>
			<path class="st97" d="M249.1,330.3c12.2-12.5,9.7-39.6,2.5-50.4c-10.5-15.8-26.7-15.2-36.3-19.7c-8.4-4-22.3-20-34.3-21.2
				c-14.2-1.4-27.4,2.7-41.3,6.7C124.1,250,102,273.2,92,283.9c-11.7,12.5-18.1,35.1-10.8,44c6,7.3,13.4,16.5,27,19.8
				c13.5,3.3,21.7-0.5,28.3,0.7c6.2,1.2,15.4,6.8,33.9,3.4c13.9-2.5,20.9-5.9,25.7-6.3C206.1,344.8,235.2,344.5,249.1,330.3z"/>
			<path class="st98" d="M246.6,329.6c12.1-11.9,10-38.2,2.9-48.9c-10.4-15.8-26.4-14.9-35.9-19.3c-8.1-3.8-21.5-20.1-33.4-21.4
				c-13.7-1.5-27.3,2.3-41,6.3c-15.3,4.4-36.9,27.3-46.4,37.4c-11.1,11.8-18.6,33.7-11,42.9c5.8,7,12.8,15.9,26.4,19
				c13.6,3.1,21.6-1.1,27.8,0.1c6.1,1.2,15.4,7.1,33.9,3.8c14-2.5,21.1-6.1,25.6-6.3C205.4,342.7,232.9,343,246.6,329.6z"/>
			<path class="st99" d="M244.2,329c12.1-11.2,10.3-36.8,3.4-47.4c-10.3-15.8-26.1-14.6-35.5-19c-7.9-3.7-20.6-20.1-32.4-21.6
				c-13.2-1.7-27.2,1.9-40.8,5.8c-15.2,4.4-36.2,27-45.1,36.5c-10.5,11-19,32.2-11.1,41.8c5.5,6.7,12.3,15.4,25.9,18.2
				c13.7,2.8,21.4-1.7,27.4-0.4c6,1.3,15.4,7.4,33.9,4.1c14.1-2.5,21.2-6.3,25.6-6.4C204.7,340.6,230.6,341.5,244.2,329z"/>
			<path class="st100" d="M241.7,328.3c12.1-10.6,10.6-35.4,3.9-45.9c-10.2-15.8-25.8-14.3-35.1-18.6c-7.7-3.6-19.8-20.1-31.4-21.7
				c-12.8-1.8-27.1,1.5-40.5,5.4c-15.1,4.4-35.4,26.8-43.9,35.6c-9.9,10.3-19.5,30.8-11.3,40.6c5.2,6.3,11.7,14.9,25.4,17.4
				c13.8,2.5,21.2-2.4,26.9-1c5.9,1.4,15.4,7.6,33.9,4.4c14.2-2.4,21.4-6.6,25.6-6.4C204,338.5,228.4,340,241.7,328.3z"/>
			<path class="st101" d="M239.3,327.7c12-10,10.9-34.1,4.4-44.4c-10.1-15.8-25.5-14-34.7-18.2c-7.5-3.4-18.9-20.1-30.4-21.9
				c-12.3-1.9-26.9,1-40.3,4.9c-15,4.4-34.7,26.5-42.6,34.7c-9.2,9.6-20,29.3-11.5,39.5c5,6,11.1,14.4,24.9,16.6
				c13.9,2.3,21.1-3,26.4-1.6c5.8,1.5,15.4,7.9,33.9,4.7c14.3-2.4,21.5-6.8,25.5-6.4C203.3,336.4,226.1,338.6,239.3,327.7z"/>
			<path class="st102" d="M236.8,327c12-9.3,11.3-32.7,4.8-42.9c-9.9-15.8-25.2-13.7-34.3-17.8c-7.2-3.3-18.1-20.2-29.4-22.1
				c-11.8-2-26.8,0.6-40,4.5c-14.9,4.4-34,26.2-41.4,33.8c-8.6,8.8-20.4,27.9-11.7,38.4c4.7,5.6,10.6,13.9,24.4,15.8
				c13.9,2,20.9-3.5,26-2.1c5.7,1.6,15.4,8.2,33.9,5.1c14.4-2.4,21.7-7,25.5-6.5C202.6,334.3,223.8,337.1,236.8,327z"/>
			<path class="st103" d="M234.4,326.4c12-8.7,11.6-31.3,5.3-41.4c-9.8-15.8-24.9-13.4-33.9-17.5c-7-3.2-17.2-20.2-28.4-22.2
				c-11.3-2.1-26.7,0.2-39.7,4.1c-14.8,4.4-33.3,26-40.1,32.9c-8,8.1-20.9,26.5-11.9,37.2c4.4,5.3,10,13.4,23.8,15.1
				c14,1.7,20.7-4.1,25.5-2.7c5.6,1.7,15.4,8.5,33.9,5.4c14.5-2.4,21.8-7.2,25.4-6.5C201.9,332.2,221.5,335.6,234.4,326.4z"/>
			<path class="st104" d="M231.9,325.7c12-8,11.9-29.9,5.8-39.8c-9.7-15.8-24.6-13.1-33.5-17.1c-6.8-3-16.4-20.2-27.4-22.4
				c-10.8-2.2-26.6-0.2-39.5,3.6c-14.6,4.4-32.6,25.7-38.9,32c-7.3,7.4-21.4,25-12.1,36.1c4.2,5,9.4,12.9,23.3,14.3
				c14.1,1.4,20.5-4.7,25.1-3.3c5.5,1.8,15.4,8.7,33.9,5.7c14.5-2.3,22-7.4,25.4-6.5C201.2,330.1,219.3,334.1,231.9,325.7z"/>
			<path class="st105" d="M229.5,325.1c12-7.3,12.2-28.5,6.3-38.3c-9.6-15.8-24.3-12.9-33.1-16.7c-6.6-2.9-15.6-20.2-26.4-22.6
				c-10.4-2.3-26.5-0.7-39.2,3.2c-14.5,4.4-31.9,25.4-37.6,31.1c-6.7,6.7-21.9,23.6-12.3,35c3.9,4.6,8.9,12.3,22.8,13.5
				c14.2,1.1,20.4-5.3,24.6-3.8c5.4,1.9,15.4,9,33.9,6.1c14.6-2.3,22.1-7.6,25.4-6.6C200.5,328,217,332.7,229.5,325.1z"/>
			<path class="st106" d="M227,324.4c12-6.7,12.6-27.2,6.7-36.8c-9.4-15.8-24-12.6-32.7-16.4c-6.3-2.8-14.7-20.2-25.4-22.7
				c-9.9-2.4-26.4-1.1-38.9,2.8c-14.4,4.4-31.2,25.2-36.4,30.2c-6.1,5.9-22.3,22.2-12.5,33.8c3.6,4.3,8.3,11.8,22.3,12.7
				c14.3,0.9,20.2-5.9,24.2-4.4c5.3,2,15.4,9.3,33.9,6.4c14.7-2.3,22.3-7.8,25.3-6.6C199.9,325.9,214.8,331.2,227,324.4z"/>
			<path class="st107" d="M224.6,323.8c12-6,12.9-25.8,7.2-35.3c-9.3-15.8-23.7-12.3-32.3-16c-6.1-2.7-13.9-20.1-24.4-22.9
				c-9.4-2.5-26.2-1.5-38.7,2.3c-14.3,4.4-30.5,24.9-35.1,29.3c-5.4,5.2-22.9,20.8-12.7,32.7c3.4,4,7.7,11.3,21.8,11.9
				c14.4,0.6,20-6.5,23.7-5c5.2,2.1,15.4,9.6,33.9,6.7c14.8-2.3,22.4-8.1,25.3-6.7C199.2,323.8,212.5,329.8,224.6,323.8z"/>
			<path class="st108" d="M222.1,323.1c12-5.3,13.2-24.4,7.7-33.8c-9.2-15.8-23.4-12-31.9-15.6c-5.9-2.5-13.1-20.1-23.4-23.1
				c-9-2.6-26.1-1.9-38.4,1.9c-14.2,4.4-29.8,24.6-33.9,28.4c-4.8,4.5-23.3,19.3-12.9,31.6c3.1,3.6,7.2,10.8,21.3,11.1
				c14.5,0.3,19.8-7.1,23.3-5.5c5,2.2,15.4,9.9,33.9,7c14.9-2.3,22.6-8.3,25.2-6.7C198.5,321.7,210.2,328.4,222.1,323.1z"/>
		</g>
		<path class="st111" d="M244.1,273.6c-4.4-0.2-8.7,0.4-12.7,1.7c-5.2-26.5-27.9-47.1-56.1-48.6c-27.4-1.4-51.4,15.6-60.1,40.2
			c0,0,0,0,0,0c-23.1-1.2-42.9,16.6-44.1,39.7c-1.2,23.2,16.6,42.9,39.7,44.1c11.9,0.6,22.9-3.8,31-11.4c8,4.7,17.3,7.6,27.2,8.1
			c17.7,0.9,34.1-5.9,45.7-17.5c6,7.7,15.2,12.9,25.7,13.4c19.3,1,35.7-13.8,36.7-33.1C278.1,291,263.3,274.6,244.1,273.6z"/>
	</g>
</g>
</svg>
