<?xml version="1.0" encoding="utf-8"?>
<!-- Generator: Adobe Illustrator 25.0.0, SVG Export Plug-In . SVG Version: 6.00 Build 0)  -->
<svg version="1.1" id="_x3C_Layer_x3E_" xmlns="http://www.w3.org/2000/svg" xmlns:xlink="http://www.w3.org/1999/xlink" x="0px"
	 y="0px" viewBox="0 0 500 500" style="enable-background:new 0 0 500 500;" xml:space="preserve">
<style type="text/css">
	.st0{opacity:0.1;}
	.st1{opacity:0.5;}
	.st2{opacity:0;fill:#FFFFFF;}
	.st3{opacity:4.761905e-02;fill:#F9FBFB;}
	.st4{opacity:9.523810e-02;fill:#F3F6F7;}
	.st5{opacity:0.1429;fill:#EEF2F4;}
	.st6{opacity:0.1905;fill:#E8EDF0;}
	.st7{opacity:0.2381;fill:#E2E9EC;}
	.st8{opacity:0.2857;fill:#DCE4E8;}
	.st9{opacity:0.3333;fill:#D7E0E5;}
	.st10{opacity:0.381;fill:#D1DCE1;}
	.st11{opacity:0.4286;fill:#CBD7DD;}
	.st12{opacity:0.4762;fill:#C5D3D9;}
	.st13{opacity:0.5238;fill:#C0CED6;}
	.st14{opacity:0.5714;fill:#BACAD2;}
	.st15{opacity:0.619;fill:#B4C5CE;}
	.st16{opacity:0.6667;fill:#AEC1CA;}
	.st17{opacity:0.7143;fill:#A9BDC7;}
	.st18{opacity:0.7619;fill:#A3B8C3;}
	.st19{opacity:0.8095;fill:#9DB4BF;}
	.st20{opacity:0.8571;fill:#97AFBB;}
	.st21{opacity:0.9048;fill:#92ABB8;}
	.st22{opacity:0.9524;fill:#8CA6B4;}
	.st23{fill:#86A2B0;}
	.st24{fill:#FFE3AB;}
	.st25{fill:url(#SVGID_1_);}
	.st26{fill:url(#SVGID_2_);}
	.st27{fill:url(#SVGID_3_);}
	.st28{fill:url(#SVGID_4_);}
	.st29{fill:url(#SVGID_5_);}
	.st30{fill:url(#SVGID_6_);}
	.st31{fill:url(#SVGID_7_);}
	.st32{fill:url(#SVGID_8_);}
	.st33{fill:url(#SVGID_9_);}
	.st34{fill:url(#SVGID_10_);}
	.st35{fill:url(#SVGID_11_);}
	.st36{fill:url(#SVGID_12_);}
	.st37{fill:url(#SVGID_13_);}
	.st38{fill:url(#SVGID_14_);}
	.st39{fill:url(#SVGID_15_);}
	.st40{fill:url(#SVGID_16_);}
	.st41{opacity:2.380952e-02;fill:#F9FBFB;}
	.st42{opacity:4.761905e-02;fill:#F3F6F7;}
	.st43{opacity:7.142857e-02;fill:#EEF2F4;}
	.st44{opacity:9.523810e-02;fill:#E8EDF0;}
	.st45{opacity:0.119;fill:#E2E9EC;}
	.st46{opacity:0.1429;fill:#DCE4E8;}
	.st47{opacity:0.1667;fill:#D7E0E5;}
	.st48{opacity:0.1905;fill:#D1DCE1;}
	.st49{opacity:0.2143;fill:#CBD7DD;}
	.st50{opacity:0.2381;fill:#C5D3D9;}
	.st51{opacity:0.2619;fill:#C0CED6;}
	.st52{opacity:0.2857;fill:#BACAD2;}
	.st53{opacity:0.3095;fill:#B4C5CE;}
	.st54{opacity:0.3333;fill:#AEC1CA;}
	.st55{opacity:0.3571;fill:#A9BDC7;}
	.st56{opacity:0.381;fill:#A3B8C3;}
	.st57{opacity:0.4048;fill:#9DB4BF;}
	.st58{opacity:0.4286;fill:#97AFBB;}
	.st59{opacity:0.4524;fill:#92ABB8;}
	.st60{opacity:0.4762;fill:#8CA6B4;}
	.st61{opacity:0.5;fill:#86A2B0;}
	.st62{fill:url(#SVGID_17_);}
	.st63{opacity:0.15;}
	.st64{fill:url(#SVGID_18_);}
	.st65{opacity:2.857143e-02;fill:#F9FBFB;}
	.st66{opacity:5.714286e-02;fill:#F3F6F7;}
	.st67{opacity:8.571429e-02;fill:#EEF2F4;}
	.st68{opacity:0.1143;fill:#E8EDF0;}
	.st69{opacity:0.1429;fill:#E2E9EC;}
	.st70{opacity:0.1714;fill:#DCE4E8;}
	.st71{opacity:0.2;fill:#D7E0E5;}
	.st72{opacity:0.2286;fill:#D1DCE1;}
	.st73{opacity:0.2571;fill:#CBD7DD;}
	.st74{opacity:0.2857;fill:#C5D3D9;}
	.st75{opacity:0.3143;fill:#C0CED6;}
	.st76{opacity:0.3429;fill:#BACAD2;}
	.st77{opacity:0.3714;fill:#B4C5CE;}
	.st78{opacity:0.4;fill:#AEC1CA;}
	.st79{opacity:0.4286;fill:#A9BDC7;}
	.st80{opacity:0.4571;fill:#A3B8C3;}
	.st81{opacity:0.4857;fill:#9DB4BF;}
	.st82{opacity:0.5143;fill:#97AFBB;}
	.st83{opacity:0.5429;fill:#92ABB8;}
	.st84{opacity:0.5714;fill:#8CA6B4;}
	.st85{opacity:0.6;fill:#86A2B0;}
	.st86{fill:url(#SVGID_19_);}
	.st87{fill:url(#SVGID_20_);}
	.st88{fill:url(#SVGID_21_);}
	.st89{opacity:0.2;}
	.st90{opacity:9.523810e-02;fill:#F4F6F8;}
	.st91{opacity:0.1905;fill:#E9EDF1;}
	.st92{opacity:0.2381;fill:#E3E9ED;}
	.st93{opacity:0.2857;fill:#DEE5EA;}
	.st94{opacity:0.3333;fill:#D8E0E6;}
	.st95{opacity:0.381;fill:#D3DCE3;}
	.st96{opacity:0.4286;fill:#CDD8DF;}
	.st97{opacity:0.4762;fill:#C8D3DC;}
	.st98{opacity:0.5238;fill:#C2CFD8;}
	.st99{opacity:0.5714;fill:#BDCAD5;}
	.st100{opacity:0.619;fill:#B7C6D1;}
	.st101{opacity:0.6667;fill:#B2C2CE;}
	.st102{opacity:0.7143;fill:#ACBDCA;}
	.st103{opacity:0.7619;fill:#A7B9C7;}
	.st104{opacity:0.8095;fill:#A1B5C3;}
	.st105{opacity:0.8571;fill:#9CB0C0;}
	.st106{opacity:0.9048;fill:#96ACBC;}
	.st107{opacity:0.9524;fill:#91A7B9;}
	.st108{fill:#8BA3B5;}
	.st109{fill:#EEF7FA;}
	.st110{fill:#E4F1F5;}
	.st111{fill:#FFFFFF;}
	.st112{fill:#E9F2F5;}
	.st113{opacity:0.3;}
	.st114{fill:url(#SVGID_22_);}
	.st115{fill:url(#SVGID_23_);}
	.st116{fill:url(#SVGID_24_);}
	.st117{fill:url(#SVGID_25_);}
	.st118{fill:url(#SVGID_26_);}
	.st119{fill:url(#SVGID_27_);}
	.st120{fill:url(#SVGID_28_);}
	.st121{fill:url(#SVGID_29_);}
	.st122{fill:url(#SVGID_30_);}
	.st123{fill:url(#SVGID_31_);}
	.st124{fill:url(#SVGID_32_);}
	.st125{fill:url(#SVGID_33_);}
	.st126{fill:url(#SVGID_34_);}
	.st127{fill:url(#SVGID_35_);}
	.st128{fill:url(#SVGID_36_);}
	.st129{fill:url(#SVGID_37_);}
	.st130{fill:url(#SVGID_38_);}
	.st131{fill:url(#SVGID_39_);}
	.st132{opacity:5.000000e-02;}
	.st133{opacity:0;fill:#515151;}
	.st134{opacity:4.761905e-02;fill:#545556;}
	.st135{opacity:9.523810e-02;fill:#57595B;}
	.st136{opacity:0.1429;fill:#595D5F;}
	.st137{opacity:0.1905;fill:#5C6164;}
	.st138{opacity:0.2381;fill:#5F6569;}
	.st139{opacity:0.2857;fill:#62686E;}
	.st140{opacity:0.3333;fill:#646C72;}
	.st141{opacity:0.381;fill:#677077;}
	.st142{opacity:0.4286;fill:#6A747C;}
	.st143{opacity:0.4762;fill:#6D7881;}
	.st144{opacity:0.5238;fill:#6F7C85;}
	.st145{opacity:0.5714;fill:#72808A;}
	.st146{opacity:0.619;fill:#75848F;}
	.st147{opacity:0.6667;fill:#788894;}
	.st148{opacity:0.7143;fill:#7A8C98;}
	.st149{opacity:0.7619;fill:#7D8F9D;}
	.st150{opacity:0.8095;fill:#8093A2;}
	.st151{opacity:0.8571;fill:#8397A7;}
	.st152{opacity:0.9048;fill:#859BAB;}
	.st153{opacity:0.9524;fill:#889FB0;}
	.st154{fill:#008DD4;}
	.st155{fill:url(#SVGID_40_);}
	.st156{fill:#4FC5FF;}
	.st157{fill:url(#SVGID_41_);}
	.st158{fill:url(#SVGID_42_);}
	.st159{fill:#63CCFF;}
	.st160{fill:#007FC9;}
	.st161{fill:#6ED8FF;}
	.st162{fill:#008CDE;}
	.st163{fill:#B3EDFF;}
	.st164{fill:#61D7FF;}
	.st165{fill:url(#SVGID_43_);}
	.st166{fill:url(#SVGID_44_);}
	.st167{opacity:2.580645e-02;fill:#505051;}
	.st168{opacity:5.161290e-02;fill:#4E4F51;}
	.st169{opacity:7.741936e-02;fill:#4D4F50;}
	.st170{opacity:0.1032;fill:#4C4E50;}
	.st171{opacity:0.129;fill:#4B4D50;}
	.st172{opacity:0.1548;fill:#494C50;}
	.st173{opacity:0.1806;fill:#484B4F;}
	.st174{opacity:0.2065;fill:#474B4F;}
	.st175{opacity:0.2323;fill:#464A4F;}
	.st176{opacity:0.2581;fill:#44494F;}
	.st177{opacity:0.2839;fill:#43484F;}
	.st178{opacity:0.3097;fill:#42474E;}
	.st179{opacity:0.3355;fill:#41474E;}
	.st180{opacity:0.3613;fill:#3F464E;}
	.st181{opacity:0.3871;fill:#3E454E;}
	.st182{opacity:0.4129;fill:#3D444D;}
	.st183{opacity:0.4387;fill:#3C434D;}
	.st184{opacity:0.4645;fill:#3A424D;}
	.st185{opacity:0.4903;fill:#39424D;}
	.st186{opacity:0.5161;fill:#38414C;}
	.st187{opacity:0.5419;fill:#37404C;}
	.st188{opacity:0.5677;fill:#353F4C;}
	.st189{opacity:0.5935;fill:#343E4C;}
	.st190{opacity:0.6194;fill:#333E4C;}
	.st191{opacity:0.6452;fill:#323D4B;}
	.st192{opacity:0.671;fill:#303C4B;}
	.st193{opacity:0.6968;fill:#2F3B4B;}
	.st194{opacity:0.7226;fill:#2E3A4B;}
	.st195{opacity:0.7484;fill:#2D3A4A;}
	.st196{opacity:0.7742;fill:#2B394A;}
	.st197{opacity:0.8;fill:#2A384A;}
	.st198{fill:url(#SVGID_45_);}
	.st199{fill:url(#SVGID_46_);}
	.st200{fill:#91D5EB;}
	.st201{fill:#E1F0FA;}
	.st202{fill:#9DDEF2;}
	.st203{fill:#A2DEF2;}
	.st204{fill:#BEE9F7;}
	.st205{fill:#C8EEFA;}
	.st206{fill:url(#SVGID_47_);}
	.st207{opacity:0.3;fill:url(#SVGID_48_);}
	.st208{opacity:2.580645e-02;fill:#FBFCFC;}
	.st209{opacity:5.161290e-02;fill:#F7F9FA;}
	.st210{opacity:7.741936e-02;fill:#F3F6F7;}
	.st211{opacity:0.1032;fill:#EFF3F5;}
	.st212{opacity:0.129;fill:#EBF0F2;}
	.st213{opacity:0.1548;fill:#E8EDF0;}
	.st214{opacity:0.1806;fill:#E4EAED;}
	.st215{opacity:0.2065;fill:#E0E7EB;}
	.st216{opacity:0.2323;fill:#DCE4E8;}
	.st217{opacity:0.2581;fill:#D8E1E6;}
	.st218{opacity:0.2839;fill:#D4DEE3;}
	.st219{opacity:0.3097;fill:#D0DBE0;}
	.st220{opacity:0.3355;fill:#CCD8DE;}
	.st221{opacity:0.3613;fill:#C8D5DB;}
	.st222{opacity:0.3871;fill:#C4D2D9;}
	.st223{opacity:0.4129;fill:#C1CFD6;}
	.st224{opacity:0.4387;fill:#BDCCD4;}
	.st225{opacity:0.4645;fill:#B9C9D1;}
	.st226{opacity:0.4903;fill:#B5C6CF;}
	.st227{opacity:0.5161;fill:#B1C3CC;}
	.st228{opacity:0.5419;fill:#ADC0C9;}
	.st229{opacity:0.5677;fill:#A9BDC7;}
	.st230{opacity:0.5935;fill:#A5BAC4;}
	.st231{opacity:0.6194;fill:#A1B7C2;}
	.st232{opacity:0.6452;fill:#9DB4BF;}
	.st233{opacity:0.671;fill:#9AB1BD;}
	.st234{opacity:0.6968;fill:#96AEBA;}
	.st235{opacity:0.7226;fill:#92ABB8;}
	.st236{opacity:0.7484;fill:#8EA8B5;}
	.st237{opacity:0.7742;fill:#8AA5B3;}
	.st238{opacity:0.8;fill:#86A2B0;}
	.st239{fill:url(#SVGID_49_);}
	.st240{clip-path:url(#SVGID_51_);}
	.st241{fill:#0A4D80;}
	.st242{fill:url(#SVGID_52_);}
	.st243{clip-path:url(#SVGID_54_);}
</style>
<g>
	<g>
		<g class="st63">
			<path class="st2" d="M375.6,318.5c40.8-10.3,51.9-67.4,3.5-73c-79.5-9.2-256.9-0.4-313.3-0.4c-64,0-45.7,53.6-3.4,63.3
				C121.4,321.8,321.5,332.2,375.6,318.5z"/>
			<path class="st3" d="M374.4,316.4c39.5-9.7,49.9-64.9,3.1-70.2c-76.6-8.8-256-0.3-311.7-0.3c-61.6,0-44.3,51.4-3.4,60.7
				C119.9,319.4,320.7,329.6,374.4,316.4z"/>
			<path class="st90" d="M373.2,314.3c38.2-9.1,48-62.3,2.6-67.4c-73.8-8.4-255.2-0.2-310-0.2c-59.2,0-42.9,49.4-3.5,58.1
				C118.5,317.1,319.9,327,373.2,314.3z"/>
			<path class="st5" d="M372,312.2c36.9-8.5,46-59.8,2.2-64.6c-70.9-8-254.3-0.1-308.3-0.1c-56.8,0-41.5,47.3-3.6,55.5
				C117,314.7,319.1,324.4,372,312.2z"/>
			<path class="st91" d="M370.9,310.1c35.7-8,44-57.2,1.8-61.8c-68-7.5-253.5,0-306.7,0c-54.4,0-40.1,45.2-3.6,52.9
				C115.6,312.3,318.2,321.9,370.9,310.1z"/>
			<path class="st92" d="M369.7,308c34.4-7.4,42-54.7,1.3-59c-65.2-7.1-252.6,0.1-305,0.1c-52,0-38.7,43.1-3.7,50.2
				C114.1,309.9,317.4,319.3,369.7,308z"/>
			<path class="st93" d="M368.5,305.9c33.1-6.9,40.1-52.1,0.9-56.2c-62.3-6.7-251.8,0.2-303.4,0.2c-49.6,0-37.3,41-3.8,47.6
				C112.7,307.6,316.6,316.6,368.5,305.9z"/>
			<path class="st94" d="M367.3,303.8c31.8-6.3,38.1-49.6,0.4-53.4c-59.4-6.3-250.9,0.3-301.7,0.4c-47.2,0-35.9,38.9-3.8,45
				C111.3,305.2,315.8,314,367.3,303.8z"/>
			<path class="st95" d="M366.1,301.7c30.5-5.8,36.1-47,0-50.6c-56.6-5.9-250.1,0.5-300.1,0.5c-44.8,0-34.5,36.8-3.9,42.4
				C109.8,302.8,314.9,311.4,366.1,301.7z"/>
			<path class="st96" d="M365,299.6c29.2-5.3,34.1-44.4-0.5-47.8c-53.7-5.3-249.2,0.6-298.4,0.6c-42.4,0-33.1,34.6-4,39.8
				C108.4,300.4,314.1,308.8,365,299.6z"/>
			<path class="st97" d="M363.8,297.5c27.8-4.8,32.2-41.8-0.9-45c-50.9-4.9-248.4,0.7-296.7,0.7c-40.1,0-31.6,32.5-4.1,37.2
				C107,298,313.3,306.1,363.8,297.5z"/>
			<path class="st98" d="M362.6,295.4c26.5-4.3,30.2-39.3-1.3-42.2c-48-4.5-247.5,0.8-295.1,0.8c-37.7,0-30.2,30.4-4.1,34.6
				C105.5,295.6,312.4,303.4,362.6,295.4z"/>
			<path class="st99" d="M361.4,293.3c25.2-3.8,28.2-36.7-1.8-39.4c-45.1-4.1-246.7,0.9-293.4,0.9c-35.3,0-28.8,28.2-4.2,32
				C104.1,293.2,311.6,300.7,361.4,293.3z"/>
			<path class="st100" d="M360.2,291.2c23.9-3.3,26.3-34.2-2.2-36.6c-42.3-3.7-245.8,1-291.8,1c-32.9,0-27.4,26.1-4.3,29.4
				C102.7,290.7,310.7,298,360.2,291.2z"/>
			<path class="st101" d="M359,289c22.6-2.9,24.3-31.6-2.7-33.8c-39.4-3.2-245,1.1-290.1,1.1c-30.5,0-26,23.9-4.3,26.8
				C101.2,288.3,309.9,295.3,359,289z"/>
			<path class="st102" d="M357.9,286.9c21.3-2.4,22.3-29.1-3.1-31c-36.5-2.8-244.1,1.2-288.4,1.2c-28.1,0-24.6,21.8-4.4,24.2
				C99.8,285.8,309,292.5,357.9,286.9z"/>
			<path class="st103" d="M356.7,284.8c19.9-2,20.3-26.5-3.5-28.2c-33.7-2.4-243.2,1.3-286.8,1.3c-25.7,0-23.1,19.6-4.5,21.6
				C98.4,283.4,308.2,289.7,356.7,284.8z"/>
			<path class="st104" d="M355.5,282.7c18.6-1.6,18.4-24-4-25.4c-30.8-2-242.4,1.4-285.1,1.5c-23.3,0-21.7,17.4-4.5,19
				C97,280.9,307.3,286.9,355.5,282.7z"/>
			<path class="st105" d="M354.3,280.6c17.3-1.2,16.4-21.4-4.4-22.6c-28-1.6-241.5,1.5-283.5,1.6c-20.9,0-20.3,15.2-4.6,16.3
				C95.6,278.4,306.4,284,354.3,280.6z"/>
			<path class="st106" d="M353.1,278.5c16-0.8,14.4-18.9-4.9-19.8c-25.1-1.2-240.7,1.6-281.8,1.7c-18.5,0-18.9,13-4.7,13.7
				C94.2,275.8,305.6,281,353.1,278.5z"/>
			<path class="st107" d="M352,276.4c14.6-0.5,12.5-16.4-5.3-17c-22.2-0.9-239.8,1.8-280.1,1.8c-16.2,0-17.5,10.8-4.7,11.1
				C92.7,273.2,304.7,277.9,352,276.4z"/>
			<path class="st108" d="M350.8,274.3c13.3-0.1,10.5-13.8-5.7-14.2c-19.4-0.4-239,1.9-278.5,1.9c-13.8,0-16.1,8.5-4.8,8.5
				C91.3,270.5,303.8,274.8,350.8,274.3z"/>
		</g>
		<path class="st111" d="M374.9,249.9c0,10.9-8.8,19.7-19.7,19.7H51c-10.9,0-19.7-8.8-19.7-19.7l0,0c0-10.9,8.8-19.7,19.7-19.7
			h304.2C366.1,230.2,374.9,239,374.9,249.9L374.9,249.9z"/>
		<path class="st110" d="M377.2,252.2c0,10.9-8.8,19.7-19.7,19.7H53.3c-10.9,0-19.7-8.8-19.7-19.7l0,0c0-10.9,8.8-19.7,19.7-19.7
			h304.2C368.4,232.5,377.2,241.3,377.2,252.2L377.2,252.2z"/>
	</g>
	<g>
		<g class="st63">
			<path class="st2" d="M463.5,297.4c40.8-10.3,47-74.4-1.4-80.1c-79.5-9.2-256.9-0.4-313.3-0.4c-63.9,0-48.1,64.4-4.8,67
				C195.7,287.1,409.3,311.1,463.5,297.4z"/>
			<path class="st3" d="M462.1,295c39.5-9.7,45.2-71.5-1.7-76.9c-76.6-8.8-256-0.3-311.7-0.3c-61.5,0-46.5,61.7-4.8,64.2
				C194.7,285,408.3,308.2,462.1,295z"/>
			<path class="st90" d="M460.6,292.5c38.2-9.1,43.5-68.7-1.9-73.8c-73.8-8.4-255.2-0.2-310-0.2c-59.2,0-45,59.1-4.8,61.5
				C193.7,282.8,407.3,305.3,460.6,292.5z"/>
			<path class="st5" d="M459.2,290.1c36.9-8.5,41.7-65.8-2.1-70.7c-70.9-8-254.3-0.1-308.3-0.1c-56.8,0-43.5,56.4-4.8,58.7
				C192.7,280.7,406.2,302.4,459.2,290.1z"/>
			<path class="st91" d="M457.8,287.7c35.6-8,40-62.9-2.3-67.5c-68-7.5-253.5,0-306.7,0c-54.4,0-42,53.8-4.8,55.9
				C191.6,278.6,405.2,299.4,457.8,287.7z"/>
			<path class="st92" d="M456.4,285.2c34.3-7.4,38.3-60-2.5-64.4c-65.2-7.1-252.6,0.1-305,0.1c-52,0-40.5,51.2-4.8,53.1
				C190.6,276.6,404.1,296.5,456.4,285.2z"/>
			<path class="st93" d="M455,282.8c33.1-6.9,36.5-57.1-2.7-61.3c-62.3-6.7-251.7,0.2-303.4,0.2c-49.6,0-38.9,48.5-4.8,50.3
				C189.6,274.5,403.1,293.6,455,282.8z"/>
			<path class="st94" d="M453.5,280.4c31.8-6.3,34.8-54.2-2.9-58.1c-59.4-6.3-250.9,0.3-301.7,0.4c-47.2,0-37.4,45.9-4.8,47.5
				C188.6,272.3,402,290.6,453.5,280.4z"/>
			<path class="st95" d="M452.1,277.9c30.4-5.8,33.1-51.4-3.1-55c-56.6-5.9-250,0.5-300.1,0.5c-44.8,0-35.9,43.2-4.8,44.7
				C187.5,270.2,400.9,287.6,452.1,277.9z"/>
			<path class="st96" d="M450.7,275.5c29.1-5.3,31.3-48.4-3.3-51.8c-53.7-5.3-249.2,0.6-298.4,0.6c-42.4,0-34.4,40.6-4.8,41.9
				C186.5,268.1,399.9,284.7,450.7,275.5z"/>
			<path class="st97" d="M449.3,273c27.8-4.8,29.6-45.5-3.5-48.7c-50.9-4.9-248.3,0.7-296.7,0.7c-40,0-32.8,37.9-4.8,39.2
				C185.5,266,398.8,281.7,449.3,273z"/>
			<path class="st98" d="M447.9,270.6c26.5-4.3,27.8-42.6-3.7-45.6c-48-4.5-247.5,0.8-295.1,0.8c-37.6,0-31.3,35.3-4.8,36.4
				C184.5,263.9,397.7,278.7,447.9,270.6z"/>
			<path class="st99" d="M446.5,268.2c25.2-3.8,26.1-39.7-3.9-42.4c-45.1-4.1-246.6,0.9-293.4,0.9c-35.3,0-29.8,32.6-4.8,33.6
				C183.4,261.8,396.6,275.7,446.5,268.2z"/>
			<path class="st100" d="M445,265.7c23.9-3.3,24.4-36.8-4.1-39.3c-42.3-3.7-245.8,1-291.8,1c-32.9,0-28.3,29.9-4.8,30.8
				C182.4,259.6,395.5,272.6,445,265.7z"/>
			<path class="st101" d="M443.6,263.3c22.6-2.9,22.6-34-4.3-36.2c-39.4-3.2-244.9,1.1-290.1,1.1c-30.5,0-26.7,27.3-4.8,28
				C181.4,257.5,394.4,269.6,443.6,263.3z"/>
			<path class="st102" d="M442.2,260.9c21.2-2.4,20.9-31.1-4.5-33c-36.6-2.8-244.1,1.2-288.4,1.2c-28.1,0-25.2,24.6-4.8,25.2
				C180.4,255.4,393.3,266.5,442.2,260.9z"/>
			<path class="st103" d="M440.8,258.4c19.9-2,19.2-28.2-4.7-29.9c-33.7-2.4-243.2,1.3-286.8,1.3c-25.7,0-23.7,21.9-4.8,22.4
				C179.3,253.2,392.2,263.3,440.8,258.4z"/>
			<path class="st104" d="M439.4,256c18.6-1.6,17.4-25.3-4.9-26.8c-30.8-2-242.4,1.4-285.1,1.5c-23.3,0-22.2,19.3-4.8,19.6
				C178.3,251.1,391.1,260.1,439.4,256z"/>
			<path class="st105" d="M438,253.5c17.3-1.2,15.7-22.4-5.1-23.6c-28-1.6-241.5,1.5-283.5,1.6c-20.9,0-20.6,16.6-4.8,16.9
				C177.3,248.9,390,256.9,438,253.5z"/>
			<path class="st106" d="M436.5,251.1c16-0.8,14-19.6-5.4-20.5c-25.1-1.2-240.7,1.6-281.8,1.7c-18.5,0-19.1,13.9-4.8,14.1
				C176.3,246.8,388.9,253.6,436.5,251.1z"/>
			<path class="st107" d="M435.1,248.7c14.6-0.5,12.2-16.7-5.6-17.4c-22.2-0.8-239.8,1.8-280.1,1.8c-16.1,0-17.6,11.2-4.8,11.3
				C175.2,244.6,387.8,250.2,435.1,248.7z"/>
			<path class="st108" d="M433.7,246.2c13.3-0.1,10.5-13.9-5.8-14.2c-19.4-0.5-239,1.9-278.5,1.9c-13.7,0-16.1,8.5-4.8,8.5
				C174.2,242.4,386.8,246.6,433.7,246.2z"/>
		</g>
		<path class="st111" d="M457.8,221.8c0,10.9-8.8,19.7-19.7,19.7H133.9c-10.9,0-19.7-8.8-19.7-19.7l0,0c0-10.9,8.8-19.7,19.7-19.7
			h304.2C449,202.1,457.8,210.9,457.8,221.8L457.8,221.8z"/>
		<path class="st109" d="M460.1,224.1c0,10.9-8.8,19.7-19.7,19.7H136.2c-10.9,0-19.7-8.8-19.7-19.7l0,0c0-10.9,8.8-19.7,19.7-19.7
			h304.2C451.3,204.4,460.1,213.2,460.1,224.1L460.1,224.1z"/>
	</g>
	<g>
		<g class="st63">
			<path class="st2" d="M318.6,227c31.3-10.3,34.3-63.7-2.9-69.3c-61-9.2-128.2-0.4-171.5-0.4c-49.1,0-33.5,57.2-0.3,59.8
				C183.7,220.2,277,240.7,318.6,227z"/>
			<path class="st3" d="M317.4,225c30.4-9.7,33.1-61.3-2.9-66.7c-58.8-8.8-127.5-0.3-170.3-0.3c-47.3,0-32.5,54.9-0.4,57.4
				C182.8,218.4,276.2,238.2,317.4,225z"/>
			<path class="st90" d="M316.3,223.1c29.4-9.1,31.8-58.9-3-64c-56.6-8.4-126.8-0.2-169-0.2c-45.4,0-31.5,52.6-0.6,54.9
				C181.9,216.6,275.3,235.8,316.3,223.1z"/>
			<path class="st5" d="M315.1,221.2c28.4-8.5,30.6-56.6-3.1-61.4c-54.4-8-126.2-0.1-167.7-0.1c-43.6,0-30.5,50.3-0.8,52.5
				C180.9,214.9,274.4,233.4,315.1,221.2z"/>
			<path class="st91" d="M313.9,219.3c27.4-8,29.3-54.2-3.2-58.8c-52.2-7.6-125.5,0-166.4,0c-41.8,0-29.5,48-0.9,50.1
				C179.9,213.1,273.6,231,313.9,219.3z"/>
			<path class="st92" d="M312.8,217.3c26.4-7.4,28.1-51.8-3.2-56.2c-50.1-7.1-124.9,0.1-165.2,0.1c-39.9,0-28.5,45.7-1.1,47.6
				C179,211.4,272.7,228.6,312.8,217.3z"/>
			<path class="st93" d="M311.6,215.4c25.5-6.9,26.8-49.4-3.3-53.5c-47.9-6.7-124.2,0.2-163.9,0.2c-38.1,0-27.5,43.4-1.2,45.2
				C178.1,209.6,271.8,226.1,311.6,215.4z"/>
			<path class="st94" d="M310.4,213.5c24.5-6.3,25.5-47-3.4-50.9c-45.7-6.2-123.6,0.3-162.6,0.3c-36.3,0-26.5,41.1-1.4,42.7
				C177.1,207.8,270.9,223.7,310.4,213.5z"/>
			<path class="st95" d="M309.2,211.6c23.5-5.8,24.3-44.6-3.5-48.3c-43.5-5.8-122.9,0.4-161.3,0.5c-34.4,0-25.5,38.8-1.6,40.3
				C176.2,206.1,270,221.3,309.2,211.6z"/>
			<path class="st96" d="M308.1,209.6c22.5-5.3,23-42.2-3.5-45.7c-41.3-5.3-122.3,0.5-160.1,0.6c-32.6,0-24.5,36.5-1.7,37.8
				C175.2,204.3,269.1,218.8,308.1,209.6z"/>
			<path class="st97" d="M306.9,207.7c21.5-4.8,21.8-39.9-3.6-43.1c-39.1-4.9-121.6,0.7-158.8,0.7c-30.7,0-23.4,34.1-1.9,35.4
				C174.3,202.5,268.2,216.3,306.9,207.7z"/>
			<path class="st98" d="M305.7,205.8c20.4-4.3,20.5-37.5-3.7-40.4c-36.9-4.5-121,0.8-157.5,0.8c-28.9,0-22.4,31.8-2.1,32.9
				C173.3,200.8,267.3,213.8,305.7,205.8z"/>
			<path class="st99" d="M304.5,203.9c19.4-3.8,19.3-35.1-3.8-37.8c-34.7-4.1-120.3,0.9-156.2,0.9c-27.1,0-21.4,29.5-2.2,30.5
				C172.4,199,266.4,211.3,304.5,203.9z"/>
			<path class="st100" d="M303.4,201.9c18.4-3.3,18-32.7-3.8-35.2c-32.5-3.7-119.7,1-155,1c-25.2,0-20.4,27.2-2.4,28.1
				C171.4,197.2,265.4,208.8,303.4,201.9z"/>
			<path class="st101" d="M302.2,200c17.4-2.9,16.8-30.4-3.9-32.6c-30.3-3.2-119,1.1-153.7,1.1c-23.4,0-19.4,24.9-2.5,25.6
				C170.5,195.4,264.5,206.3,302.2,200z"/>
			<path class="st102" d="M301,198.1c16.4-2.4,15.6-28-4-30c-28.1-2.8-118.3,1.2-152.4,1.2c-21.6,0-18.4,22.5-2.7,23.2
				C169.5,193.6,263.6,203.7,301,198.1z"/>
			<path class="st103" d="M299.9,196.2c15.3-2,14.3-25.6-4-27.3c-25.9-2.4-117.7,1.3-151.1,1.3c-19.7,0-17.4,20.2-2.9,20.7
				C168.6,191.8,262.6,201.1,299.9,196.2z"/>
			<path class="st104" d="M298.7,194.2c14.3-1.6,13.1-23.3-4.1-24.7c-23.7-2-117,1.4-149.9,1.5c-17.9,0-16.4,17.9-3,18.3
				C167.6,190,261.7,198.4,298.7,194.2z"/>
			<path class="st105" d="M297.5,192.3c13.3-1.2,11.8-20.9-4.2-22.1c-21.5-1.6-116.4,1.5-148.6,1.6c-16.1,0-15.4,15.5-3.2,15.8
				C166.7,188.2,260.7,195.7,297.5,192.3z"/>
			<path class="st106" d="M296.3,190.4c12.3-0.8,10.6-18.5-4.3-19.5c-19.3-1.2-115.7,1.6-147.3,1.7c-14.2,0-14.3,13.2-3.4,13.4
				C165.7,186.4,259.8,192.9,296.3,190.4z"/>
			<path class="st107" d="M295.2,188.5c11.3-0.5,9.3-16.2-4.3-16.8c-17.1-0.8-115.1,1.8-146,1.8c-12.4,0-13.3,10.9-3.5,10.9
				C164.8,184.6,258.9,190,295.2,188.5z"/>
			<path class="st108" d="M294,186.5c10.3-0.1,8.1-13.9-4.4-14.2c-14.9-0.5-114.4,1.9-144.8,1.9c-10.6,0-12.3,8.5-3.7,8.5
				C163.8,182.7,257.9,187,294,186.5z"/>
		</g>
		<path class="st111" d="M306.1,162.3c0,10.9-8.8,19.7-19.7,19.7h-159c-10.9,0-19.7-8.8-19.7-19.7l0,0c0-10.9,8.8-19.7,19.7-19.7
			h159C297.3,142.5,306.1,151.4,306.1,162.3L306.1,162.3z"/>
		<path class="st110" d="M308.4,164.6c0,10.9-8.8,19.7-19.7,19.7h-159c-10.9,0-19.7-8.8-19.7-19.7l0,0c0-10.9,8.8-19.7,19.7-19.7
			h159C299.6,144.8,308.4,153.7,308.4,164.6L308.4,164.6z"/>
	</g>
	<g>
		<g class="st63">
			<path class="st2" d="M381.9,257.4c31.3-10.3,38.2-65.5,1-71.1c-61.1-9.2-128.2-0.4-171.6-0.4c-49.1,0-37.2,53.7-4.5,60.4
				C247.3,254.5,340.4,271.1,381.9,257.4z"/>
			<path class="st3" d="M381,255.4c30.4-9.7,36.7-63,0.7-68.4c-58.9-8.8-127.5-0.3-170.3-0.3c-47.3,0-36,51.6-4.5,57.9
				C246.5,252.4,339.7,268.6,381,255.4z"/>
			<path class="st90" d="M380,253.4c29.4-9.1,35.3-60.6,0.5-65.7c-56.7-8.4-126.9-0.2-169-0.2c-45.4,0-34.9,49.5-4.4,55.5
				C245.7,250.5,339,266.1,380,253.4z"/>
			<path class="st5" d="M379,251.4c28.4-8.6,33.9-58.1,0.2-63c-54.5-8-126.2-0.1-167.7-0.1c-43.6,0-33.7,47.4-4.4,53
				C244.9,248.5,338.3,263.6,379,251.4z"/>
			<path class="st91" d="M378,249.3c27.4-8,32.4-55.7,0-60.3c-52.3-7.5-125.6,0-166.5,0c-41.8,0-32.5,45.3-4.4,50.5
				C244.1,246.5,337.6,261.1,378,249.3z"/>
			<path class="st92" d="M377,247.3c26.4-7.4,31-53.2-0.3-57.6c-50.1-7.1-124.9,0.1-165.2,0.1c-39.9,0-31.3,43.2-4.3,48
				C243.4,244.5,336.9,258.6,377,247.3z"/>
			<path class="st93" d="M376,245.3c25.4-6.9,29.6-50.7-0.5-54.9c-47.9-6.7-124.2,0.2-163.9,0.2c-38.1,0-30.1,41-4.3,45.6
				C242.6,242.5,336.2,256.1,376,245.3z"/>
			<path class="st94" d="M375,243.3c24.5-6.3,28.1-48.2-0.8-52.1c-45.7-6.2-123.6,0.3-162.6,0.3c-36.3,0-29,38.9-4.2,43.1
				C241.8,240.4,335.5,253.5,375,243.3z"/>
			<path class="st95" d="M374,241.3c23.5-5.8,26.7-45.8-1.1-49.4c-43.5-5.8-122.9,0.4-161.4,0.5c-34.4,0-27.8,36.8-4.2,40.6
				C241,238.4,334.8,251,374,241.3z"/>
			<path class="st96" d="M373.1,239.3c22.4-5.3,25.3-43.3-1.3-46.7c-41.3-5.3-122.3,0.5-160.1,0.6c-32.6,0-26.6,34.6-4.2,38.2
				C240.2,236.4,334.1,248.5,373.1,239.3z"/>
			<path class="st97" d="M372.1,237.3c21.4-4.8,23.8-40.8-1.6-44c-39.1-4.9-121.6,0.7-158.8,0.7c-30.8,0-25.4,32.5-4.1,35.7
				C239.5,234.4,333.4,245.9,372.1,237.3z"/>
			<path class="st98" d="M371.1,235.3c20.4-4.3,22.4-38.4-1.8-41.3c-36.9-4.5-121,0.8-157.5,0.8c-28.9,0-24.2,30.4-4.1,33.2
				C238.7,232.4,332.6,243.3,371.1,235.3z"/>
			<path class="st99" d="M370.1,233.2c19.4-3.8,21-35.9-2.1-38.6c-34.7-4.1-120.3,0.9-156.3,0.9c-27.1,0-23,28.2-4,30.7
				C237.9,230.3,331.9,240.7,370.1,233.2z"/>
			<path class="st100" d="M369.1,231.2c18.4-3.3,19.5-33.4-2.4-35.9c-32.5-3.7-119.7,1-155,1c-25.3,0-21.8,26.1-4,28.3
				C237.1,228.3,331.2,238.1,369.1,231.2z"/>
			<path class="st101" d="M368.1,229.2c17.4-2.9,18.1-31-2.6-33.2c-30.3-3.2-119,1.1-153.7,1.1c-23.4,0-20.7,23.9-4,25.8
				C236.4,226.2,330.4,235.5,368.1,229.2z"/>
			<path class="st102" d="M367.1,227.2c16.4-2.4,16.7-28.5-2.9-30.5c-28.1-2.8-118.4,1.2-152.4,1.2c-21.6,0-19.5,21.7-3.9,23.3
				C235.6,224.2,329.7,232.8,367.1,227.2z"/>
			<path class="st103" d="M366.1,225.2c15.3-2,15.2-26.1-3.1-27.8c-25.9-2.4-117.7,1.3-151.2,1.3c-19.8,0-18.3,19.5-3.9,20.9
				C234.8,222.1,328.9,230.1,366.1,225.2z"/>
			<path class="st104" d="M365.1,223.2c14.3-1.6,13.8-23.6-3.4-25.1c-23.7-2-117,1.4-149.9,1.5c-17.9,0-17.1,17.4-3.8,18.4
				C234.1,220,328.1,227.3,365.1,223.2z"/>
			<path class="st105" d="M364.2,221.2c13.3-1.2,12.4-21.2-3.7-22.4c-21.5-1.6-116.4,1.5-148.6,1.6c-16.1,0-15.9,15.2-3.8,15.9
				C233.3,217.9,327.4,224.5,364.2,221.2z"/>
			<path class="st106" d="M363.2,219.2c12.3-0.8,10.9-18.7-3.9-19.6c-19.3-1.2-115.7,1.6-147.3,1.7c-14.2,0-14.7,13-3.8,13.4
				C232.5,215.7,326.6,221.6,363.2,219.2z"/>
			<path class="st107" d="M362.2,217.1c11.2-0.5,9.5-16.3-4.2-16.9c-17.1-0.8-115.1,1.8-146.1,1.8c-12.4,0-13.5,10.7-3.7,11
				C231.8,213.5,325.9,218.6,362.2,217.1z"/>
			<path class="st108" d="M361.2,215.1c10.2-0.1,8.1-13.8-4.4-14.2c-14.9-0.4-114.4,1.9-144.8,1.9c-10.6,0-12.3,8.5-3.7,8.5
				C231,211.3,325.1,215.6,361.2,215.1z"/>
		</g>
		<path class="st111" d="M375.6,193.2c0,10.9-8.8,19.7-19.7,19.7h-159c-10.9,0-19.7-8.8-19.7-19.7l0,0c0-10.9,8.8-19.7,19.7-19.7
			h159C366.7,173.5,375.6,182.3,375.6,193.2L375.6,193.2z"/>
	</g>
	<g>
		<g class="st63">
			<path class="st2" d="M425.5,375.7c40.8-10.3,50.3-66.2,1.9-71.8c-79.5-9.2-166.9-0.4-223.3-0.4c-64,0-44.3,59.4-1,62
				C254.9,368.6,371.4,389.4,425.5,375.7z"/>
			<path class="st3" d="M424.3,373.6c39.5-9.7,48.4-63.7,1.5-69c-76.6-8.8-166-0.3-221.7-0.3c-61.6,0-43,57-1.2,59.5
				C253.7,366.7,370.5,386.8,424.3,373.6z"/>
			<path class="st90" d="M423,371.6c38.2-9.1,46.5-61.2,1.2-66.3c-73.8-8.4-165.2-0.2-220-0.2c-59.2,0-41.6,54.6-1.4,56.9
				C252.5,364.8,369.6,384.3,423,371.6z"/>
			<path class="st5" d="M421.8,369.5c36.9-8.5,44.6-58.7,0.8-63.5c-70.9-8-164.3-0.1-218.3-0.1c-56.8,0-40.3,52.1-1.5,54.4
				C251.3,362.9,368.8,381.8,421.8,369.5z"/>
			<path class="st91" d="M420.5,367.5c35.7-8,42.7-56.2,0.4-60.8c-68-7.5-163.4,0-216.7,0c-54.4,0-38.9,49.7-1.7,51.8
				C250.1,361.1,367.9,379.3,420.5,367.5z"/>
			<path class="st92" d="M419.2,365.5c34.4-7.4,40.8-53.7,0.1-58.1c-65.2-7.1-162.6,0.1-215,0.1c-52,0-37.6,47.4-1.9,49.3
				C248.9,359.3,367,376.7,419.2,365.5z"/>
			<path class="st93" d="M418,363.4c33.1-6.9,38.9-51.2-0.3-55.3c-62.3-6.7-161.7,0.2-213.4,0.2c-49.6,0-36.2,45-2.1,46.7
				C247.7,357.4,366.1,374.2,418,363.4z"/>
			<path class="st94" d="M416.7,361.4c31.8-6.3,37-48.7-0.7-52.6c-59.4-6.3-160.9,0.3-211.7,0.3c-47.2,0-34.9,42.5-2.3,44.2
				C246.5,355.5,365.2,371.6,416.7,361.4z"/>
			<path class="st95" d="M415.5,359.3c30.5-5.8,35.1-46.2-1-49.8c-56.6-5.9-160,0.4-210.1,0.5c-44.8,0-33.6,40.1-2.4,41.6
				C245.3,353.7,364.3,369,415.5,359.3z"/>
			<path class="st96" d="M414.2,357.3c29.2-5.3,33.2-43.7-1.4-47.1c-53.7-5.3-159.2,0.5-208.4,0.6c-42.4,0-32.2,37.7-2.6,39.1
				C244.1,351.8,363.4,366.5,414.2,357.3z"/>
			<path class="st97" d="M412.9,355.2c27.8-4.8,31.3-41.2-1.8-44.4c-50.9-4.9-158.3,0.7-206.7,0.7c-40,0-30.9,35.3-2.8,36.5
				C242.9,349.9,362.4,363.9,412.9,355.2z"/>
			<path class="st98" d="M411.7,353.2c26.5-4.3,29.4-38.7-2.1-41.6c-48-4.5-157.5,0.8-205.1,0.8c-37.6,0-29.5,32.9-3,34
				C241.7,348,361.5,361.3,411.7,353.2z"/>
			<path class="st99" d="M410.4,351.2c25.2-3.8,27.6-36.2-2.5-38.9c-45.1-4.1-156.6,0.9-203.4,0.9c-35.3,0-28.2,30.5-3.2,31.4
				C240.4,346.1,360.6,358.6,410.4,351.2z"/>
			<path class="st100" d="M409.2,349.1c23.9-3.3,25.7-33.7-2.8-36.1c-42.3-3.7-155.8,1-201.8,1c-32.9,0-26.8,28-3.3,28.9
				C239.2,344.3,359.7,356,409.2,349.1z"/>
			<path class="st101" d="M407.9,347.1c22.6-2.9,23.8-31.2-3.2-33.4c-39.4-3.2-154.9,1.1-200.1,1.1c-30.5,0-25.5,25.6-3.5,26.4
				C238,342.4,358.7,353.3,407.9,347.1z"/>
			<path class="st102" d="M406.6,345c21.3-2.4,21.9-28.7-3.6-30.7c-36.5-2.8-154.1,1.2-198.4,1.2c-28.1,0-24.1,23.2-3.7,23.8
				C236.8,340.5,357.8,350.6,406.6,345z"/>
			<path class="st103" d="M405.4,343c19.9-2,20-26.2-3.9-27.9c-33.7-2.4-153.2,1.3-196.8,1.3c-25.7,0-22.8,20.8-3.9,21.3
				C235.6,338.6,356.8,347.9,405.4,343z"/>
			<path class="st104" d="M404.1,340.9c18.6-1.6,18.1-23.7-4.3-25.2c-30.8-2-152.4,1.4-195.1,1.5c-23.3,0-21.4,18.3-4.1,18.7
				C234.4,336.7,355.9,345.1,404.1,340.9z"/>
			<path class="st105" d="M402.9,338.9c17.3-1.2,16.2-21.3-4.7-22.4c-28-1.6-151.5,1.5-193.5,1.6c-20.9,0-20.1,15.9-4.2,16.2
				C233.2,334.8,355,342.2,402.9,338.9z"/>
			<path class="st106" d="M401.6,336.8c16-0.8,14.3-18.8-5-19.7c-25.1-1.2-150.7,1.6-191.8,1.7c-18.5,0-18.7,13.4-4.4,13.6
				C232,332.8,354,339.3,401.6,336.8z"/>
			<path class="st107" d="M400.4,334.8c14.6-0.5,12.4-16.3-5.4-17c-22.2-0.9-149.8,1.8-190.2,1.8c-16.1,0-17.4,11-4.6,11.1
				C230.8,330.9,353.1,336.3,400.4,334.8z"/>
			<path class="st108" d="M399.1,332.8c13.3-0.1,10.5-13.8-5.8-14.2c-19.4-0.4-149,1.9-188.5,1.9c-13.7,0-16,8.5-4.8,8.5
				C229.6,328.9,352.1,333.2,399.1,332.8z"/>
		</g>
		<path class="st111" d="M423.2,308.3c0,10.9-8.8,19.7-19.7,19.7H189.3c-10.9,0-19.7-8.8-19.7-19.7l0,0c0-10.9,8.8-19.7,19.7-19.7
			h214.2C414.4,288.6,423.2,297.4,423.2,308.3L423.2,308.3z"/>
		<path class="st110" d="M425.5,310.6c0,10.9-8.8,19.7-19.7,19.7H191.6c-10.9,0-19.7-8.8-19.7-19.7l0,0c0-10.9,8.8-19.7,19.7-19.7
			h214.2C416.7,290.9,425.5,299.7,425.5,310.6L425.5,310.6z"/>
	</g>
</g>
</svg>
