<?xml version="1.0" encoding="utf-8"?>
<!-- Generator: Adobe Illustrator 25.0.0, SVG Export Plug-In . SVG Version: 6.00 Build 0)  -->
<svg version="1.1" id="_x3C_Layer_x3E_" xmlns="http://www.w3.org/2000/svg" xmlns:xlink="http://www.w3.org/1999/xlink" x="0px"
	 y="0px" viewBox="0 0 500 500" style="enable-background:new 0 0 500 500;" xml:space="preserve">
<style type="text/css">
	.st0{opacity:0.1;}
	.st1{opacity:0.5;}
	.st2{opacity:0;fill:#FFFFFF;}
	.st3{opacity:4.761905e-02;fill:#F9FBFB;}
	.st4{opacity:9.523810e-02;fill:#F3F6F7;}
	.st5{opacity:0.1429;fill:#EEF2F4;}
	.st6{opacity:0.1905;fill:#E8EDF0;}
	.st7{opacity:0.2381;fill:#E2E9EC;}
	.st8{opacity:0.2857;fill:#DCE4E8;}
	.st9{opacity:0.3333;fill:#D7E0E5;}
	.st10{opacity:0.381;fill:#D1DCE1;}
	.st11{opacity:0.4286;fill:#CBD7DD;}
	.st12{opacity:0.4762;fill:#C5D3D9;}
	.st13{opacity:0.5238;fill:#C0CED6;}
	.st14{opacity:0.5714;fill:#BACAD2;}
	.st15{opacity:0.619;fill:#B4C5CE;}
	.st16{opacity:0.6667;fill:#AEC1CA;}
	.st17{opacity:0.7143;fill:#A9BDC7;}
	.st18{opacity:0.7619;fill:#A3B8C3;}
	.st19{opacity:0.8095;fill:#9DB4BF;}
	.st20{opacity:0.8571;fill:#97AFBB;}
	.st21{opacity:0.9048;fill:#92ABB8;}
	.st22{opacity:0.9524;fill:#8CA6B4;}
	.st23{fill:#86A2B0;}
	.st24{fill:#FFE3AB;}
	.st25{fill:url(#SVGID_1_);}
	.st26{fill:url(#SVGID_2_);}
	.st27{fill:url(#SVGID_3_);}
	.st28{fill:url(#SVGID_4_);}
	.st29{fill:url(#SVGID_5_);}
	.st30{fill:url(#SVGID_6_);}
	.st31{fill:url(#SVGID_7_);}
	.st32{fill:url(#SVGID_8_);}
	.st33{fill:url(#SVGID_9_);}
	.st34{fill:url(#SVGID_10_);}
	.st35{fill:url(#SVGID_11_);}
	.st36{fill:url(#SVGID_12_);}
	.st37{fill:url(#SVGID_13_);}
	.st38{fill:url(#SVGID_14_);}
	.st39{fill:url(#SVGID_15_);}
	.st40{fill:url(#SVGID_16_);}
	.st41{opacity:2.380952e-02;fill:#F9FBFB;}
	.st42{opacity:4.761905e-02;fill:#F3F6F7;}
	.st43{opacity:7.142857e-02;fill:#EEF2F4;}
	.st44{opacity:9.523810e-02;fill:#E8EDF0;}
	.st45{opacity:0.119;fill:#E2E9EC;}
	.st46{opacity:0.1429;fill:#DCE4E8;}
	.st47{opacity:0.1667;fill:#D7E0E5;}
	.st48{opacity:0.1905;fill:#D1DCE1;}
	.st49{opacity:0.2143;fill:#CBD7DD;}
	.st50{opacity:0.2381;fill:#C5D3D9;}
	.st51{opacity:0.2619;fill:#C0CED6;}
	.st52{opacity:0.2857;fill:#BACAD2;}
	.st53{opacity:0.3095;fill:#B4C5CE;}
	.st54{opacity:0.3333;fill:#AEC1CA;}
	.st55{opacity:0.3571;fill:#A9BDC7;}
	.st56{opacity:0.381;fill:#A3B8C3;}
	.st57{opacity:0.4048;fill:#9DB4BF;}
	.st58{opacity:0.4286;fill:#97AFBB;}
	.st59{opacity:0.4524;fill:#92ABB8;}
	.st60{opacity:0.4762;fill:#8CA6B4;}
	.st61{opacity:0.5;fill:#86A2B0;}
	.st62{fill:url(#SVGID_17_);}
	.st63{opacity:0.15;}
	.st64{fill:url(#SVGID_18_);}
	.st65{opacity:2.857143e-02;fill:#F9FBFB;}
	.st66{opacity:5.714286e-02;fill:#F3F6F7;}
	.st67{opacity:8.571429e-02;fill:#EEF2F4;}
	.st68{opacity:0.1143;fill:#E8EDF0;}
	.st69{opacity:0.1429;fill:#E2E9EC;}
	.st70{opacity:0.1714;fill:#DCE4E8;}
	.st71{opacity:0.2;fill:#D7E0E5;}
	.st72{opacity:0.2286;fill:#D1DCE1;}
	.st73{opacity:0.2571;fill:#CBD7DD;}
	.st74{opacity:0.2857;fill:#C5D3D9;}
	.st75{opacity:0.3143;fill:#C0CED6;}
	.st76{opacity:0.3429;fill:#BACAD2;}
	.st77{opacity:0.3714;fill:#B4C5CE;}
	.st78{opacity:0.4;fill:#AEC1CA;}
	.st79{opacity:0.4286;fill:#A9BDC7;}
	.st80{opacity:0.4571;fill:#A3B8C3;}
	.st81{opacity:0.4857;fill:#9DB4BF;}
	.st82{opacity:0.5143;fill:#97AFBB;}
	.st83{opacity:0.5429;fill:#92ABB8;}
	.st84{opacity:0.5714;fill:#8CA6B4;}
	.st85{opacity:0.6;fill:#86A2B0;}
	.st86{fill:url(#SVGID_19_);}
	.st87{fill:url(#SVGID_20_);}
	.st88{fill:url(#SVGID_21_);}
	.st89{opacity:0.2;}
	.st90{opacity:9.523810e-02;fill:#F4F6F8;}
	.st91{opacity:0.1905;fill:#E9EDF1;}
	.st92{opacity:0.2381;fill:#E3E9ED;}
	.st93{opacity:0.2857;fill:#DEE5EA;}
	.st94{opacity:0.3333;fill:#D8E0E6;}
	.st95{opacity:0.381;fill:#D3DCE3;}
	.st96{opacity:0.4286;fill:#CDD8DF;}
	.st97{opacity:0.4762;fill:#C8D3DC;}
	.st98{opacity:0.5238;fill:#C2CFD8;}
	.st99{opacity:0.5714;fill:#BDCAD5;}
	.st100{opacity:0.619;fill:#B7C6D1;}
	.st101{opacity:0.6667;fill:#B2C2CE;}
	.st102{opacity:0.7143;fill:#ACBDCA;}
	.st103{opacity:0.7619;fill:#A7B9C7;}
	.st104{opacity:0.8095;fill:#A1B5C3;}
	.st105{opacity:0.8571;fill:#9CB0C0;}
	.st106{opacity:0.9048;fill:#96ACBC;}
	.st107{opacity:0.9524;fill:#91A7B9;}
	.st108{fill:#8BA3B5;}
	.st109{fill:#EEF7FA;}
	.st110{fill:#E4F1F5;}
	.st111{fill:#FFFFFF;}
	.st112{fill:#E9F2F5;}
	.st113{opacity:0.3;}
	.st114{fill:url(#SVGID_22_);}
	.st115{fill:url(#SVGID_23_);}
	.st116{fill:url(#SVGID_24_);}
	.st117{fill:url(#SVGID_25_);}
	.st118{fill:url(#SVGID_26_);}
	.st119{fill:url(#SVGID_27_);}
	.st120{fill:url(#SVGID_28_);}
	.st121{fill:url(#SVGID_29_);}
	.st122{fill:url(#SVGID_30_);}
	.st123{fill:url(#SVGID_31_);}
	.st124{fill:url(#SVGID_32_);}
	.st125{fill:url(#SVGID_33_);}
	.st126{fill:url(#SVGID_34_);}
	.st127{fill:url(#SVGID_35_);}
	.st128{fill:url(#SVGID_36_);}
	.st129{fill:url(#SVGID_37_);}
	.st130{fill:url(#SVGID_38_);}
	.st131{fill:url(#SVGID_39_);}
	.st132{opacity:5.000000e-02;}
	.st133{opacity:0;fill:#515151;}
	.st134{opacity:4.761905e-02;fill:#545556;}
	.st135{opacity:9.523810e-02;fill:#57595B;}
	.st136{opacity:0.1429;fill:#595D5F;}
	.st137{opacity:0.1905;fill:#5C6164;}
	.st138{opacity:0.2381;fill:#5F6569;}
	.st139{opacity:0.2857;fill:#62686E;}
	.st140{opacity:0.3333;fill:#646C72;}
	.st141{opacity:0.381;fill:#677077;}
	.st142{opacity:0.4286;fill:#6A747C;}
	.st143{opacity:0.4762;fill:#6D7881;}
	.st144{opacity:0.5238;fill:#6F7C85;}
	.st145{opacity:0.5714;fill:#72808A;}
	.st146{opacity:0.619;fill:#75848F;}
	.st147{opacity:0.6667;fill:#788894;}
	.st148{opacity:0.7143;fill:#7A8C98;}
	.st149{opacity:0.7619;fill:#7D8F9D;}
	.st150{opacity:0.8095;fill:#8093A2;}
	.st151{opacity:0.8571;fill:#8397A7;}
	.st152{opacity:0.9048;fill:#859BAB;}
	.st153{opacity:0.9524;fill:#889FB0;}
	.st154{fill:#008DD4;}
	.st155{fill:url(#SVGID_40_);}
	.st156{fill:#4FC5FF;}
	.st157{fill:url(#SVGID_41_);}
	.st158{fill:url(#SVGID_42_);}
	.st159{fill:#63CCFF;}
	.st160{fill:#007FC9;}
	.st161{fill:#6ED8FF;}
	.st162{fill:#008CDE;}
	.st163{fill:#B3EDFF;}
	.st164{fill:#61D7FF;}
	.st165{fill:url(#SVGID_43_);}
	.st166{fill:url(#SVGID_44_);}
	.st167{opacity:2.580645e-02;fill:#505051;}
	.st168{opacity:5.161290e-02;fill:#4E4F51;}
	.st169{opacity:7.741936e-02;fill:#4D4F50;}
	.st170{opacity:0.1032;fill:#4C4E50;}
	.st171{opacity:0.129;fill:#4B4D50;}
	.st172{opacity:0.1548;fill:#494C50;}
	.st173{opacity:0.1806;fill:#484B4F;}
	.st174{opacity:0.2065;fill:#474B4F;}
	.st175{opacity:0.2323;fill:#464A4F;}
	.st176{opacity:0.2581;fill:#44494F;}
	.st177{opacity:0.2839;fill:#43484F;}
	.st178{opacity:0.3097;fill:#42474E;}
	.st179{opacity:0.3355;fill:#41474E;}
	.st180{opacity:0.3613;fill:#3F464E;}
	.st181{opacity:0.3871;fill:#3E454E;}
	.st182{opacity:0.4129;fill:#3D444D;}
	.st183{opacity:0.4387;fill:#3C434D;}
	.st184{opacity:0.4645;fill:#3A424D;}
	.st185{opacity:0.4903;fill:#39424D;}
	.st186{opacity:0.5161;fill:#38414C;}
	.st187{opacity:0.5419;fill:#37404C;}
	.st188{opacity:0.5677;fill:#353F4C;}
	.st189{opacity:0.5935;fill:#343E4C;}
	.st190{opacity:0.6194;fill:#333E4C;}
	.st191{opacity:0.6452;fill:#323D4B;}
	.st192{opacity:0.671;fill:#303C4B;}
	.st193{opacity:0.6968;fill:#2F3B4B;}
	.st194{opacity:0.7226;fill:#2E3A4B;}
	.st195{opacity:0.7484;fill:#2D3A4A;}
	.st196{opacity:0.7742;fill:#2B394A;}
	.st197{opacity:0.8;fill:#2A384A;}
	.st198{fill:url(#SVGID_45_);}
	.st199{fill:url(#SVGID_46_);}
	.st200{fill:#91D5EB;}
	.st201{fill:#E1F0FA;}
	.st202{fill:#9DDEF2;}
	.st203{fill:#A2DEF2;}
	.st204{fill:#BEE9F7;}
	.st205{fill:#C8EEFA;}
	.st206{fill:url(#SVGID_47_);}
	.st207{opacity:0.3;fill:url(#SVGID_48_);}
	.st208{opacity:2.580645e-02;fill:#FBFCFC;}
	.st209{opacity:5.161290e-02;fill:#F7F9FA;}
	.st210{opacity:7.741936e-02;fill:#F3F6F7;}
	.st211{opacity:0.1032;fill:#EFF3F5;}
	.st212{opacity:0.129;fill:#EBF0F2;}
	.st213{opacity:0.1548;fill:#E8EDF0;}
	.st214{opacity:0.1806;fill:#E4EAED;}
	.st215{opacity:0.2065;fill:#E0E7EB;}
	.st216{opacity:0.2323;fill:#DCE4E8;}
	.st217{opacity:0.2581;fill:#D8E1E6;}
	.st218{opacity:0.2839;fill:#D4DEE3;}
	.st219{opacity:0.3097;fill:#D0DBE0;}
	.st220{opacity:0.3355;fill:#CCD8DE;}
	.st221{opacity:0.3613;fill:#C8D5DB;}
	.st222{opacity:0.3871;fill:#C4D2D9;}
	.st223{opacity:0.4129;fill:#C1CFD6;}
	.st224{opacity:0.4387;fill:#BDCCD4;}
	.st225{opacity:0.4645;fill:#B9C9D1;}
	.st226{opacity:0.4903;fill:#B5C6CF;}
	.st227{opacity:0.5161;fill:#B1C3CC;}
	.st228{opacity:0.5419;fill:#ADC0C9;}
	.st229{opacity:0.5677;fill:#A9BDC7;}
	.st230{opacity:0.5935;fill:#A5BAC4;}
	.st231{opacity:0.6194;fill:#A1B7C2;}
	.st232{opacity:0.6452;fill:#9DB4BF;}
	.st233{opacity:0.671;fill:#9AB1BD;}
	.st234{opacity:0.6968;fill:#96AEBA;}
	.st235{opacity:0.7226;fill:#92ABB8;}
	.st236{opacity:0.7484;fill:#8EA8B5;}
	.st237{opacity:0.7742;fill:#8AA5B3;}
	.st238{opacity:0.8;fill:#86A2B0;}
	.st239{fill:url(#SVGID_49_);}
	.st240{clip-path:url(#SVGID_51_);}
	.st241{fill:#0A4D80;}
	.st242{fill:url(#SVGID_52_);}
	.st243{clip-path:url(#SVGID_54_);}
</style>
<g>
	<g>
		<g class="st63">
			<path class="st133" d="M393,265.3c23.8-23.9,22.6-43,14.7-63.6c-6-15.5-8.8-25.7-18.7-39.9c-9-12.8-28-29.2-56.4-33.2
				c-27.5-3.9-92.8,41-115.3,47c-24.3,6.5-53.9,23.6-85.1,36.2c-15.9,6.4-39.5,26.8-39.9,37.6c-0.7,17.6,5.2,24.8,13,31.8
				c7.8,7.1,24,19.3,33.6,23.9c9.1,4.4,32.9,10.8,40.9,11.6c17.5,1.9,23.9-3.5,37.9-2c18.2,2,24.3,3.2,32.6,3
				c7.6-0.2,13.8-1.8,17.9-2c6-0.3,22.7,4,30.1,2.5c19.2-4,14.8-6,24.6-9.1C343.7,302.7,373.4,284.9,393,265.3z"/>
			<path class="st134" d="M392.6,265.7c23.3-22.9,22.2-42,14.2-62c-6.1-15.2-9.4-25.2-19.2-39.1c-9-12.6-26.9-28.9-55.5-33.7
				c-27.5-4.5-91.5,40.3-114,46.3c-24.4,6.6-53.1,23.9-83.8,36.3c-15.7,6.4-41.7,25.6-41.9,36.9c-0.3,17.1,5.8,23.8,13.7,30.8
				c8,7,23.8,19.3,33.5,23.6c9.6,4.3,32.2,9.6,40.5,10.5c17.5,1.8,24-2.6,38.1-1.1c18.4,1.9,24.1,2.8,32.4,2.6
				c7.5-0.2,13.6-1.5,18.2-1.6c6.6-0.2,22.8,3.4,30.1,1.9c18.9-3.9,14.8-5.6,25-8.8C344.8,301.6,373.3,284.6,392.6,265.7z"/>
			<path class="st135" d="M392.2,266.1c22.9-21.8,21.8-40.9,13.7-60.4c-6.3-15-9.9-24.7-19.7-38.3c-8.9-12.4-25.8-28.8-54.6-34.3
				c-27.5-5.2-90.2,39.6-112.8,45.7c-24.5,6.7-52.3,24.1-82.6,36.4c-15.5,6.3-43.9,24.4-43.8,36.2c0.1,16.5,6.4,22.9,14.4,29.8
				c8.2,7,23.8,19.3,33.4,23.2c10.1,4.1,31.5,8.5,40.2,9.3c17.5,1.7,24.1-1.6,38.3-0.3c18.5,1.8,23.9,2.4,32.3,2.3
				c7.4-0.1,13.4-1.2,18.5-1.3c7.2-0.2,22.8,2.8,30.2,1.3c18.5-3.8,14.8-5.1,25.4-8.6C346,300.5,373.1,284.3,392.2,266.1z"/>
			<path class="st136" d="M391.8,266.5c22.4-20.8,21.4-39.9,13.2-58.8c-6.4-14.8-10.5-24.2-20.2-37.5c-8.9-12.2-24.7-28.6-53.6-34.8
				c-27.5-5.9-88.8,38.9-111.5,45.1c-24.7,6.8-51.5,24.4-81.3,36.4c-15.3,6.2-46.2,23.3-45.8,35.6c0.4,16,7,22,15.2,28.8
				c8.4,7,23.7,19.2,33.4,22.8c10.6,4,30.9,7.4,39.9,8.2c17.6,1.6,24.2-0.7,38.5,0.6c18.7,1.7,23.7,2,32.2,1.9
				c7.3-0.1,13.2-0.8,18.7-0.9c7.7-0.2,22.9,2.2,30.3,0.7c18.1-3.6,14.7-4.7,25.8-8.3C347.1,299.5,373,284,391.8,266.5z"/>
			<path class="st137" d="M391.4,266.9c21.9-19.8,21-38.8,12.7-57.2c-6.6-14.6-11.1-23.6-20.7-36.7c-8.9-12-23.6-28.4-52.7-35.3
				c-27.4-6.6-87.5,38.2-110.2,44.4c-24.8,6.8-50.6,24.6-80,36.5c-15.1,6.1-48.4,22-47.8,34.9c0.7,15.5,7.6,21,15.9,27.7
				c8.5,6.9,23.6,19.1,33.3,22.5c11.1,3.8,30.2,6.2,39.5,7.1c17.6,1.6,24.3,0.2,38.7,1.4c18.8,1.6,23.5,1.6,32.1,1.5
				c7.1,0,12.9-0.5,19-0.6c8.3-0.1,23,1.6,30.3,0.2c17.7-3.5,14.7-4.2,26.2-8C348.2,298.4,372.8,283.7,391.4,266.9z"/>
			<path class="st138" d="M391,267.3c21.4-18.7,20.6-37.7,12.2-55.6c-6.7-14.4-11.7-23.1-21.2-35.9c-8.9-11.8-22.5-28.2-51.8-35.9
				c-27.4-7.2-86.2,37.5-108.9,43.8c-24.9,6.9-49.8,24.9-78.8,36.6c-14.9,6-50.7,20.8-49.8,34.2c1,14.9,8.2,20.1,16.6,26.7
				c8.7,6.9,23.5,19.1,33.2,22.1c11.6,3.7,29.5,5.1,39.2,5.9c17.6,1.5,24.3,1.2,38.9,2.3c19,1.5,23.3,1.3,32,1.1
				c7-0.1,12.7-0.2,19.3-0.2c8.9-0.1,23.1,1,30.4-0.4c17.4-3.3,14.7-3.8,26.6-7.8C349.4,297.4,372.7,283.4,391,267.3z"/>
			<path class="st139" d="M390.7,267.7c20.9-17.7,20.2-36.7,11.8-54c-6.9-14.2-12.3-22.6-21.7-35.1c-8.8-11.6-21.4-28-50.9-36.4
				c-27.4-7.8-84.9,36.8-107.6,43.2c-25.1,7-49,25.1-77.5,36.6c-14.7,5.9-52.9,19.6-51.8,33.5c1.2,14.4,8.9,19.2,17.4,25.7
				c8.9,6.8,23.5,19,33.2,21.7c12.1,3.5,28.9,4,38.8,4.8c17.6,1.4,24.4,2.1,39.1,3.1c19.2,1.4,23.1,0.8,31.8,0.8
				c6.9-0.1,12.5,0.2,19.5,0.1c9.4-0.1,23.2,0.4,30.4-1c17-3.2,14.7-3.3,27-7.5C350.5,296.3,372.5,283.1,390.7,267.7z"/>
			<path class="st140" d="M390.3,268.1c20.4-16.7,19.8-35.6,11.3-52.4c-7-13.9-12.9-22.1-22.2-34.3c-8.8-11.4-20.3-27.7-50-36.9
				c-27.4-8.5-83.5,36.1-106.3,42.5c-25.2,7.1-48.2,25.4-76.3,36.7c-14.5,5.8-55.2,18.4-53.7,32.8c1.4,13.9,9.5,18.2,18.1,24.7
				c9.1,6.8,23.4,18.8,33.1,21.4c12.7,3.3,28.2,2.8,38.5,3.6c17.6,1.3,24.5,3,39.2,4c19.3,1.3,22.9,0.3,31.7,0.4
				c6.8,0.1,12.3,0.5,19.8,0.5c10-0.1,23.3-0.2,30.5-1.5c16.6-3.1,14.7-2.9,27.4-7.2C351.6,295.3,372.4,282.7,390.3,268.1z"/>
			<path class="st141" d="M389.9,268.5c19.9-15.7,19.3-34.5,10.8-50.9c-7.2-13.7-13.4-21.6-22.7-33.5c-8.8-11.3-19.2-27.5-49-37.5
				c-27.3-9.1-82.2,35.4-105.1,41.9c-25.3,7.2-47.3,25.6-75,36.8c-14.3,5.8-57.5,17.2-55.7,32.1c1.6,13.3,10.1,17.3,18.9,23.6
				c9.3,6.8,23.4,18.7,33,21c13.2,3.1,27.5,1.7,38.2,2.5c17.6,1.3,24.6,3.9,39.4,4.9c19.5,1.2,22.7-0.1,31.6,0
				c6.7,0.1,12.1,0.8,20.1,0.8c10.5,0,23.4-0.8,30.6-2.1c16.3-2.9,14.7-2.4,27.8-7C352.8,294.2,372.2,282.4,389.9,268.5z"/>
			<path class="st142" d="M389.5,268.9c19.3-14.7,18.9-33.4,10.3-49.3c-7.3-13.5-14-21.1-23.2-32.7c-8.7-11.1-18.1-27.3-48.1-38
				c-27.3-9.7-80.9,34.7-103.8,41.3c-25.4,7.3-46.5,25.9-73.7,36.8c-14.1,5.7-59.8,16-57.7,31.4c1.7,12.8,10.7,16.3,19.6,22.6
				c9.5,6.7,23.3,18.6,33,20.6c13.7,2.9,26.8,0.6,37.8,1.4c17.6,1.2,24.7,4.9,39.6,5.7c19.6,1.1,22.5-0.6,31.5-0.3
				c6.5,0.2,11.8,1.2,20.3,1.2c11.1,0,23.5-1.4,30.6-2.7c15.9-2.8,14.7-2,28.2-6.7C353.9,293.2,372,282.1,389.5,268.9z"/>
			<path class="st143" d="M389.1,269.3c18.8-13.6,18.5-32.4,9.8-47.7c-7.5-13.3-14.6-20.6-23.7-31.9c-8.7-10.9-17-27.1-47.2-38.5
				c-27.3-10.4-79.6,34-102.5,40.6c-25.6,7.4-45.7,26.1-72.5,36.9c-13.9,5.6-62.1,14.8-59.7,30.7c1.9,12.3,11.4,15.4,20.3,21.6
				c9.7,6.7,23.3,18.5,32.9,20.3c14.2,2.7,26.2-0.5,37.5,0.2c17.6,1.2,24.8,5.8,39.8,6.6c19.8,1,22.4-1,31.4-0.7
				c6.4,0.2,11.6,1.5,20.6,1.5c11.7,0,23.6-2,30.7-3.3c15.5-2.7,14.7-1.5,28.6-6.4C355,292.1,371.8,281.8,389.1,269.3z"/>
			<path class="st144" d="M388.7,269.7c18.3-12.6,18-31.3,9.3-46.1c-7.7-13-15.2-20-24.2-31.1c-8.7-10.7-15.9-26.8-46.3-39.1
				c-27.3-11-78.2,33.3-101.2,40c-25.7,7.5-44.9,26.4-71.2,37c-13.7,5.5-64.5,13.6-61.7,30c2,11.7,12,14.5,21.1,20.6
				c9.9,6.7,23.3,18.3,32.8,19.9c14.8,2.4,25.5-1.7,37.2-0.9c17.6,1.1,24.8,6.7,40,7.4c20,0.9,22.2-1.4,31.2-1.1
				c6.3,0.2,11.4,1.8,20.9,1.9c12.2,0.1,23.7-2.6,30.7-3.8c15.2-2.5,14.8-1.1,29-6.2C356.2,291.1,371.7,281.5,388.7,269.7z"/>
			<path class="st145" d="M388.3,270.1c17.7-11.6,17.6-30.2,8.8-44.5c-7.9-12.8-15.8-19.5-24.7-30.3c-8.7-10.5-14.8-26.6-45.4-39.6
				c-27.3-11.6-76.9,32.6-99.9,39.3c-25.8,7.6-44.1,26.6-70,37c-13.5,5.4-66.8,12.3-63.7,29.3c2.1,11.2,12.6,13.5,21.8,19.6
				c10.1,6.6,23.2,18.2,32.8,19.5c15.3,2.2,24.8-2.8,36.8-2.1c17.6,1.1,24.9,7.7,40.2,8.3c20.1,0.8,22-1.8,31.1-1.5
				c6.2,0.3,11.2,2.2,21.1,2.2c12.8,0.1,23.8-3.3,30.8-4.4c14.8-2.4,14.8-0.6,29.4-5.9C357.3,290.1,371.5,281.1,388.3,270.1z"/>
			<path class="st146" d="M388,270.5c17.2-10.7,17.1-29.1,8.3-42.9c-8-12.6-16.4-19-25.2-29.5c-8.7-10.3-13.7-26.4-44.4-40.1
				c-27.2-12.2-75.6,31.9-98.6,38.7c-26,7.6-43.2,26.9-68.7,37.1c-13.3,5.3-69.2,11.1-65.6,28.7c2.2,10.7,13.2,12.6,22.5,18.5
				c10.3,6.6,23.2,18,32.7,19.2c15.9,1.9,24.2-3.9,36.5-3.2c17.6,1,25,8.6,40.4,9.1c20.3,0.7,21.8-2.3,31-1.8
				c6.1,0.3,11,2.5,21.4,2.6c13.4,0.1,23.9-3.9,30.8-5c14.4-2.3,14.8-0.1,29.8-5.6C358.5,289,371.3,280.8,388,270.5z"/>
			<path class="st147" d="M387.6,270.8c16.6-9.7,16.7-28,7.8-41.3c-8.2-12.4-17-18.5-25.7-28.6c-8.6-10.1-12.6-26.1-43.5-40.7
				c-27.2-12.8-74.3,31.2-97.4,38.1c-26.1,7.7-42.4,27.1-67.4,37.2c-13.1,5.2-71.6,9.9-67.6,28c2.2,10.1,13.9,11.6,23.3,17.5
				c10.5,6.5,23.1,17.8,32.6,18.8c16.4,1.6,23.5-5,36.1-4.4c17.6,0.9,25.1,9.5,40.6,10c20.4,0.7,21.6-2.7,30.9-2.2
				c5.9,0.3,10.8,2.8,21.7,2.9c13.9,0.1,24-4.5,30.9-5.5c14.1-2.2,14.8,0.3,30.2-5.4C359.6,288,371.1,280.4,387.6,270.8z"/>
			<path class="st148" d="M387.2,271.2c16.1-8.7,16.2-27,7.3-39.7c-8.4-12.1-17.6-18-26.2-27.8c-8.6-9.9-11.5-25.9-42.6-41.2
				c-27.2-13.4-72.9,30.6-96.1,37.4c-26.2,7.8-41.6,27.4-66.2,37.2c-12.9,5.2-74.1,8.8-69.6,27.3c2.3,9.6,14.5,10.7,24,16.5
				c10.7,6.5,23.1,17.7,32.6,18.4c16.9,1.4,22.8-6.2,35.8-5.5c17.6,0.9,25.2,10.4,40.8,10.9c20.6,0.6,21.4-3.1,30.7-2.6
				c5.8,0.4,10.5,3.2,21.9,3.3c14.5,0.2,24.1-5.1,31-6.1c13.7-2,14.8,0.8,30.5-5.1C360.7,287,370.9,280.1,387.2,271.2z"/>
			<path class="st149" d="M386.8,271.6c15.5-7.7,15.7-25.9,6.8-38.2c-8.6-11.9-18.1-17.4-26.7-27c-8.6-9.7-10.5-25.6-41.7-41.7
				c-27.2-14-71.6,29.9-94.8,36.8c-26.3,7.9-40.8,27.6-64.9,37.3c-12.7,5.1-76.5,7.6-71.6,26.6c2.4,9.1,15.1,9.7,24.8,15.5
				c10.8,6.4,23,17.5,32.5,18.1c17.5,1,22.1-7.3,35.5-6.6c17.6,0.8,25.3,11.4,41,11.7c20.8,0.5,21.2-3.6,30.6-2.9
				c5.7,0.4,10.3,3.5,22.2,3.6c15.1,0.2,24.1-5.7,31-6.7c13.3-1.9,14.8,1.3,30.9-4.8C361.9,285.9,370.7,279.7,386.8,271.6z"/>
			<path class="st150" d="M386.4,272c14.9-6.8,15.3-24.8,6.3-36.6c-8.8-11.6-18.7-16.9-27.2-26.2c-8.6-9.5-9.4-25.4-40.8-42.3
				c-27.2-14.7-70.3,29.2-93.5,36.2c-26.5,8-39.9,27.9-63.7,37.4c-12.4,5-79.1,6.4-73.6,25.9c2.4,8.6,15.7,8.8,25.5,14.4
				c11,6.4,23,17.3,32.4,17.7c18,0.7,21.5-8.4,35.1-7.8c17.6,0.8,25.3,12.3,41.2,12.6c20.9,0.4,21-4,30.5-3.3
				c5.6,0.4,10.1,3.8,22.5,4c15.6,0.2,24.2-6.3,31.1-7.3c12.9-1.8,14.8,1.7,31.3-4.6C363,284.9,370.5,279.3,386.4,272z"/>
			<path class="st151" d="M386,272.4c14.4-5.9,14.8-23.7,5.8-35c-9-11.4-19.3-16.4-27.7-25.4c-8.6-9.3-8.3-25.1-39.8-42.8
				c-27.2-15.3-68.9,28.5-92.2,35.5c-26.6,8.1-39.1,28.1-62.4,37.5c-12.2,4.9-81.6,5.3-75.5,25.2c2.5,8.1,16.4,7.8,26.2,13.4
				c11.2,6.3,22.9,17.1,32.4,17.3c18.5,0.4,20.8-9.5,34.8-8.9c17.6,0.8,25.4,13.2,41.4,13.4c21.1,0.3,20.8-4.5,30.4-3.7
				c5.5,0.4,9.9,4.1,22.7,4.4c16.2,0.3,24.3-6.9,31.1-7.8c12.6-1.7,14.8,2.2,31.7-4.3C364.2,283.9,370.2,278.9,386,272.4z"/>
			<path class="st152" d="M385.7,272.8c13.8-5,14.3-22.6,5.4-33.4c-9.2-11.1-19.9-15.9-28.2-24.6c-8.6-9.1-7.2-24.8-38.9-43.3
				c-27.2-15.9-67.6,27.8-90.9,34.9c-26.7,8.2-38.3,28.4-61.1,37.5c-12,4.8-84.2,4.2-77.5,24.5c2.5,7.6,17,6.9,27,12.4
				c11.4,6.3,22.9,17.2,32.3,17c19-0.5,20.1-10.6,34.5-10.1c17.6,0.7,25.5,14.2,41.6,14.3c21.2,0.2,20.6-4.9,30.3-4.1
				c5.4,0.5,9.7,4.5,23,4.7c16.7,0.3,24.4-7.5,31.2-8.4c12.2-1.6,14.8,2.7,32.1-4C365.3,282.9,370,278.5,385.7,272.8z"/>
			<path class="st153" d="M385.3,273.2c13.2-4.1,13.8-21.4,4.9-31.8c-9.4-10.9-20.5-15.3-28.7-23.8c-8.5-8.9-6.2-24.6-38-43.9
				c-27.2-16.4-66.3,27.1-89.7,34.3c-26.9,8.3-37.5,28.6-59.9,37.6c-11.8,4.7-86.9,3.1-79.5,23.8c2.5,7.1,17.6,5.9,27.7,11.4
				c11.6,6.2,22.8,16.8,32.2,16.6c19.6-0.3,19.5-11.7,34.1-11.2c17.6,0.7,25.6,15.1,41.8,15.2c21.4,0.1,20.4-5.3,30.1-4.4
				c5.2,0.5,9.4,4.8,23.3,5.1c17.3,0.3,24.5-8.1,31.3-9c11.8-1.5,14.8,3.2,32.5-3.8C366.5,281.8,369.8,278,385.3,273.2z"/>
			<path class="st108" d="M384.9,273.6c12.7-3.2,13.4-20.3,4.4-30.2c-9.6-10.6-21.1-14.8-29.1-23c-8.5-8.7-5.1-24.3-37.1-44.4
				c-27.2-17.1-65,26.4-88.4,33.6c-27,8.4-36.6,28.9-58.6,37.7c-11.6,4.6-89.7,2-81.5,23.1c2.6,6.6,18.2,5,28.5,10.3
				c11.8,6.2,22.8,16.6,32.2,16.2c20.1-0.7,18.8-12.9,33.8-12.3c17.6,0.6,25.7,16,42,16c21.6,0,20.3-5.8,30-4.8
				c5.1,0.5,9.2,5.1,23.5,5.4c17.9,0.3,24.6-8.8,31.3-9.5c11.5-1.3,14.8,3.6,32.9-3.5C367.6,280.8,369.6,277.5,384.9,273.6z"/>
		</g>
		<path class="st154" d="M392.2,236.4c-3-10.5-9.3-19.6-17.8-26c2.1-5.7,3.4-11.9,3.7-18.4c1.4-32.9-24.1-60.6-57-62.1
			c-25.1-1.1-47.3,13.6-56.9,35.2c-1.7-0.2-3.5-0.4-5.2-0.5c-20.8-0.9-39.5,8.8-51.1,24.2c-3.3-1.3-6.8-2.1-10.5-2.2
			c-17.9-0.8-33,13.1-33.7,31c-0.1,2.9,0.2,5.8,0.8,8.6c-6.5,1.1-12.1,5-15.5,10.4c-5.4-7.3-13.9-12.2-23.7-12.6
			c-13.5-0.6-25.4,7.6-30.2,19.5c-0.6-0.1-1.2-0.1-1.8-0.2c-12.4-0.5-22.8,9.1-23.3,21.4c-0.5,12.4,9.1,22.8,21.4,23.3
			c6.4,0.3,12.2-2.2,16.5-6.2c4.3,2.6,9.3,4.2,14.7,4.5c4.9,10.8,15.5,18.5,28.1,19.1c13.1,0.6,24.7-6.8,30.3-17.8
			c3.7,1.7,7.8,2.7,12.1,2.9c1.4,0.1,2.7,0,4-0.1c7.6,10.2,19.5,16.9,33.1,17.5c13.3,0.6,25.5-4.9,33.9-13.9
			c5.2,9.9,15.3,16.9,27.3,17.4c12.7,0.6,24-6.4,29.8-16.8c6.3,3.3,13.3,5.2,20.9,5.5c16.4,0.7,31.3-6.6,41-18.4
			c2.3,0.8,4.7,1.4,7.2,1.5c13,0.6,23.9-9.5,24.5-22.5C415.1,248,405.1,237.1,392.2,236.4z"/>
		<linearGradient id="SVGID_1_" gradientUnits="userSpaceOnUse" x1="166.084" y1="162.0848" x2="345.0048" y2="341.0056">
			<stop  offset="0" style="stop-color:#1062A1"/>
			<stop  offset="1" style="stop-color:#0A4D80"/>
		</linearGradient>
		<path class="st25" d="M393.1,237.4c-3-10.5-9.3-19.6-17.8-26c2.2-5.7,3.5-11.9,3.7-18.4c1.4-32.9-24.1-60.6-57-62.1
			c-25.1-1.1-47.3,13.6-56.9,35.2c-1.7-0.2-3.5-0.4-5.2-0.5c-20.8-0.9-39.5,8.8-51.1,24.2c-3.3-1.3-6.8-2.1-10.5-2.3
			c-17.9-0.8-33,13.1-33.8,31c-0.1,3,0.2,5.8,0.8,8.6c-6.5,1.1-12.1,5-15.5,10.4c-5.4-7.3-13.9-12.2-23.7-12.6
			c-13.5-0.6-25.4,7.6-30.2,19.5c-0.6-0.1-1.2-0.1-1.8-0.2c-12.4-0.5-22.8,9.1-23.3,21.4c-0.5,12.4,9.1,22.8,21.4,23.3
			c6.4,0.3,12.2-2.2,16.5-6.2c4.3,2.6,9.3,4.2,14.7,4.5c4.9,10.8,15.5,18.5,28.1,19.1c13.1,0.6,24.7-6.8,30.3-17.8
			c3.7,1.7,7.8,2.7,12.1,2.9c1.4,0.1,2.7,0,4-0.1c7.6,10.2,19.5,16.9,33.1,17.5c13.3,0.6,25.5-4.9,33.9-13.9
			c5.2,9.9,15.3,16.9,27.3,17.4c12.7,0.6,24-6.4,29.8-16.8c6.3,3.3,13.3,5.2,20.9,5.5c16.4,0.7,31.3-6.6,41-18.4
			c2.3,0.8,4.7,1.4,7.2,1.5c13,0.6,23.9-9.5,24.5-22.5C416,248.9,406,238,393.1,237.4z"/>
	</g>
	<g>
		<g class="st132">
			<path class="st108" d="M297.4,243.9c15.3-9.1,16.1-20.1,9.7-27.2c-6.9-7.6-8.4-8.2-19.9-13.1c-8-3.4,2.5-41-20.4-55.4
				c-19.5-12.2-56.4,25.7-73.2,30.9c-19.3,6-50,15.7-55.6,20.9c-6.6,6.1-35.8,26.8-22.7,44.5c6.1,8.2,18.1,3.5,31.5,5.2
				c9.1,1.2,20-0.1,27.8,0.1c19.8,0.4,24.8-13.4,29.5-11.3c6.8,3,19.9,12.2,45.1,8.3c20.3-3.1,20.1-9.1,23.6-7
				C280.2,244.1,287.7,249.7,297.4,243.9z"/>
		</g>
		<path class="st156" d="M298.1,203.2c1.5-5.5,2.3-11.3,2.3-17.2c0-35.5-28.8-64.3-64.3-64.3c-30.1,0-55.3,20.7-62.4,48.6
			c-0.7,0-1.3-0.1-2-0.1c-14.1,0-26.4,7.2-33.6,18.2c-3.7-1.5-7.7-2.4-11.9-2.4c-17.2,0-31.2,14-31.2,31.2c0,17.2,14,31.2,31.2,31.2
			c7.6,0,14.5-2.7,19.9-7.2c6.9,5.7,15.8,9.2,25.6,9.2c10.8,0,20.7-4.3,27.9-11.3c10.4,7.1,22.9,11.3,36.4,11.3
			c12.4,0,23.9-3.5,33.7-9.5c4.5,5.6,11.3,9.2,19,9.2c13.4,0,24.3-10.9,24.3-24.3C313.1,215.5,306.9,206.9,298.1,203.2z"/>
		<linearGradient id="SVGID_2_" gradientUnits="userSpaceOnUse" x1="96.101" y1="186.9175" x2="314.0539" y2="186.9175">
			<stop  offset="0" style="stop-color:#076BBA"/>
			<stop  offset="1" style="stop-color:#0060AB"/>
		</linearGradient>
		<path class="st26" d="M299.1,204.1c1.5-5.5,2.4-11.3,2.4-17.2c0-35.5-28.8-64.3-64.3-64.3c-30.1,0-55.3,20.7-62.4,48.6
			c-0.6,0-1.3-0.1-2-0.1c-14.1,0-26.4,7.2-33.6,18.2c-3.7-1.5-7.7-2.4-11.9-2.4c-17.2,0-31.2,14-31.2,31.2
			c0,17.2,13.9,31.2,31.2,31.2c7.6,0,14.5-2.7,19.9-7.2c6.9,5.7,15.8,9.2,25.6,9.2c10.8,0,20.7-4.3,27.9-11.3
			c10.4,7.1,22.9,11.3,36.4,11.3c12.4,0,23.9-3.5,33.7-9.5c4.5,5.6,11.3,9.2,19,9.2c13.4,0,24.3-10.9,24.3-24.3
			C314.1,216.5,307.9,207.8,299.1,204.1z"/>
	</g>
	<g>
		<g class="st132">
			<path class="st133" d="M359.6,380.2c-4.3-6.7-10.4-14.8-19.2-16.9c-11.2-2.7-28.4-43.5-31.9-54.5c-11.7-36.5-15.8-48.4-17.7-58.3
				c-4.1-21.3,55.4-35.3,66.8-12.4c7.8,15.5,9.3,25.3,12,29.8c3.6,5.9,9.2,9.5,26.6,23.4c23,18.3,5.9,99.8-14,102.8
				C368.7,396.1,367.2,392,359.6,380.2z"/>
			<path class="st167" d="M359.9,378.8c-4.2-6.5-10.5-14.1-19.3-16.1c-11-2.5-27.8-42.1-31.3-53.2c-11.5-35.9-15.7-48.5-17.4-58.2
				c-3.8-20.8,54.1-34.5,65.2-11.9c7.6,15.5,9.1,26,12,30.5c3.8,5.9,9.8,8.8,26.7,22.3c22.3,17.8,5.8,98.1-13.5,100.9
				C368.9,395.1,367.3,390.3,359.9,378.8z"/>
			<path class="st168" d="M360.1,377.5c-4.2-6.4-10.5-13.5-19.4-15.3c-10.9-2.2-27.1-40.7-30.8-51.9c-11.4-35.4-15.6-48.5-17.2-58.1
				c-3.5-20.3,52.8-33.6,63.5-11.4c7.5,15.5,9,26.7,11.9,31.1c3.9,5.8,10.5,8.1,26.9,21.2c21.7,17.4,5.7,96.4-13.1,99.1
				C369,394.1,367.4,388.6,360.1,377.5z"/>
			<path class="st169" d="M360.3,376.1c-4.1-6.2-10.5-12.9-19.5-14.5c-10.8-2-26.5-39.2-30.2-50.6c-11.3-34.8-15.5-48.6-17-58
				c-3.2-19.8,51.6-32.8,61.9-10.9c7.4,15.5,8.8,27.5,11.8,31.8c4,5.8,11.1,7.3,27,20.1c21,16.9,5.6,94.6-12.6,97.3
				C369.2,393.1,367.5,386.9,360.3,376.1z"/>
			<path class="st170" d="M360.6,374.8c-4.1-6.1-10.5-12.2-19.6-13.7c-10.6-1.8-25.8-37.8-29.6-49.4c-11.2-34.3-15.4-48.7-16.8-57.9
				c-2.9-19.3,50.3-31.9,60.3-10.4c7.2,15.5,8.7,28.2,11.7,32.4c4.1,5.8,11.7,6.6,27.2,19c20.4,16.5,5.5,92.9-12.2,95.4
				C369.3,392.1,367.6,385.2,360.6,374.8z"/>
			<path class="st171" d="M360.8,373.4c-4-5.9-10.6-11.6-19.7-12.9c-10.5-1.5-25.2-36.4-29.1-48.1c-11.1-33.7-15.3-48.8-16.5-57.7
				c-2.6-18.7,49-31.1,58.7-9.9c7.1,15.5,8.5,28.9,11.6,33.1c4.3,5.7,12.4,5.8,27.3,17.9c19.7,16,5.4,91.1-11.7,93.6
				C369.5,391.1,367.7,383.5,360.8,373.4z"/>
			<path class="st172" d="M361,372.1c-4-5.7-10.6-10.9-19.8-12.1c-10.3-1.3-24.6-34.9-28.5-46.8c-10.9-33.2-15.2-48.9-16.3-57.6
				c-2.3-18.2,47.7-30.2,57.1-9.3c7,15.6,8.4,29.7,11.5,33.7c4.4,5.7,13,5.1,27.5,16.8c19.1,15.6,5.3,89.4-11.3,91.8
				C369.6,390.1,367.8,381.8,361,372.1z"/>
			<path class="st173" d="M361.3,370.7c-3.9-5.6-10.6-10.3-19.9-11.3c-10.2-1.1-23.9-33.5-27.9-45.6c-10.8-32.6-15.1-48.9-16.1-57.5
				c-2-17.7,46.4-29.3,55.4-8.8c6.8,15.6,8.2,30.4,11.4,34.4c4.5,5.6,13.7,4.3,27.6,15.7c18.4,15.1,5.2,87.7-10.8,89.9
				C369.8,389.1,367.9,380.1,361.3,370.7z"/>
			<path class="st174" d="M361.5,369.4c-3.9-5.4-10.6-9.7-20-10.5c-10-0.9-23.3-32.1-27.4-44.3c-10.7-32.1-15-49-15.8-57.4
				c-1.8-17.2,45.1-28.5,53.8-8.3c6.7,15.6,8.1,31.1,11.4,35.1c4.6,5.6,14.3,3.6,27.8,14.6c17.7,14.7,5.1,85.9-10.4,88.1
				C369.9,388.1,367.9,378.4,361.5,369.4z"/>
			<path class="st175" d="M361.7,368.1c-3.8-5.3-10.6-9.1-20.1-9.7c-9.9-0.7-22.6-30.6-26.8-43c-10.6-31.5-14.9-49.1-15.6-57.3
				c-1.5-16.6,43.9-27.6,52.2-7.8c6.5,15.6,7.9,31.8,11.3,35.7c4.8,5.6,15,2.9,27.9,13.5c17.1,14.2,5,84.2-10,86.2
				C370.1,387.1,368,376.7,361.7,368.1z"/>
			<path class="st176" d="M362,366.7c-3.8-5.1-10.6-8.4-20.2-8.9c-9.7-0.5-22-29.2-26.2-41.8c-10.4-30.9-14.8-49.2-15.4-57.2
				c-1.2-16.1,42.6-26.8,50.6-7.3c6.4,15.6,7.8,32.6,11.2,36.4c4.9,5.5,15.6,2.1,28,12.4c16.4,13.8,4.9,82.5-9.5,84.4
				C370.2,386.1,368.1,375,362,366.7z"/>
			<path class="st177" d="M362.2,365.4c-3.7-5-10.6-7.8-20.3-8.1c-9.6-0.3-21.3-27.8-25.7-40.5c-10.3-30.4-14.7-49.2-15.2-57.1
				c-0.9-15.6,41.3-25.9,49-6.8c6.3,15.6,7.7,33.3,11.1,37c5,5.5,16.3,1.4,28.2,11.4c15.8,13.3,4.8,80.7-9.1,82.6
				C370.4,385.1,368.2,373.3,362.2,365.4z"/>
			<path class="st178" d="M362.5,364c-3.7-4.8-10.6-7.2-20.4-7.3c-9.4-0.1-20.7-26.3-25.1-39.2c-10.1-29.9-14.6-49.3-14.9-57
				c-0.6-15,40-25,47.3-6.2c6.1,15.6,7.5,34,11,37.7c5.2,5.4,16.9,0.6,28.3,10.3c15.1,12.9,4.7,79-8.6,80.7
				C370.5,384.1,368.3,371.6,362.5,364z"/>
			<path class="st179" d="M362.7,362.7c-3.6-4.6-10.7-6.6-20.5-6.5c-9.3,0.1-20.1-24.9-24.5-37.9c-10-29.3-14.5-49.4-14.7-56.9
				c-0.4-14.5,38.7-24.2,45.7-5.7c6,15.6,7.4,34.8,10.9,38.4c5.3,5.4,17.6-0.1,28.5,9.2c14.5,12.4,4.6,77.3-8.2,78.9
				C370.7,383.2,368.4,369.9,362.7,362.7z"/>
			<path class="st180" d="M362.9,361.3c-3.6-4.5-10.7-6-20.6-5.7c-9.1,0.3-19.4-23.4-23.9-36.7c-9.9-28.8-14.4-49.5-14.5-56.8
				c-0.1-14,37.4-23.3,44.1-5.2c5.8,15.6,7.2,35.5,10.8,39c5.5,5.4,18.2-0.9,28.6,8.1c13.8,11.9,4.5,75.5-7.7,77
				C370.8,382.2,368.5,368.2,362.9,361.3z"/>
			<path class="st181" d="M363.2,360c-3.6-4.3-10.7-5.4-20.7-4.9c-8.9,0.5-18.8-22-23.4-35.4c-9.7-28.2-14.3-49.5-14.3-56.7
				c0.2-13.4,36-22.4,42.5-4.7c5.7,15.6,7.1,36.2,10.8,39.7c5.6,5.3,18.9-1.6,28.8,7c13.2,11.5,4.4,73.8-7.3,75.2
				C371,381.2,368.5,366.5,363.2,360z"/>
			<path class="st182" d="M363.4,358.6c-3.5-4.2-10.7-4.8-20.8-4.1c-8.8,0.6-18.1-20.6-22.8-34.1c-9.6-27.7-14.3-49.6-14-56.6
				c0.4-12.9,34.7-21.6,40.8-4.2c5.5,15.6,7,36.9,10.7,40.3c5.7,5.3,19.6-2.4,28.9,5.9c12.5,11,4.3,72-6.8,73.4
				C371.1,380.2,368.6,364.8,363.4,358.6z"/>
			<path class="st183" d="M363.6,357.3c-3.5-4-10.7-4.2-20.9-3.3c-8.6,0.8-17.5-19.2-22.2-32.9c-9.4-27.1-14.2-49.7-13.8-56.5
				c0.7-12.4,33.4-20.7,39.2-3.7c5.3,15.7,6.8,37.7,10.6,41c5.9,5.2,20.2-3.1,29.1,4.8c11.9,10.6,4.2,70.3-6.4,71.5
				C371.3,379.2,368.7,363.1,363.6,357.3z"/>
			<path class="st184" d="M363.9,356c-3.4-3.8-10.7-3.6-21-2.5c-8.5,0.9-16.8-17.7-21.7-31.6c-9.3-26.6-14.1-49.7-13.6-56.4
				c0.9-11.8,32.1-19.8,37.6-3.1c5.2,15.7,6.7,38.4,10.5,41.7c6,5.2,20.9-3.9,29.2,3.7c11.2,10.1,4.1,68.6-5.9,69.7
				C371.4,378.2,368.8,361.5,363.9,356z"/>
			<path class="st185" d="M364.1,354.6c-3.4-3.7-10.7-3.1-21.1-1.7c-8.3,1.1-16.2-16.3-21.1-30.3c-9.1-26-14-49.8-13.3-56.3
				c1.2-11.3,30.8-19,36-2.6c5,15.7,6.6,39.1,10.4,42.3c6.2,5.1,21.5-4.6,29.4,2.6c10.6,9.7,4,66.8-5.5,67.8
				C371.6,377.2,368.8,359.8,364.1,354.6z"/>
			<path class="st186" d="M364.3,353.3c-3.3-3.5-10.7-2.5-21.2-0.9c-8.2,1.2-15.5-14.9-20.5-29c-9-25.5-13.9-49.9-13.1-56.2
				c1.4-10.7,29.4-18.1,34.4-2.1c4.8,15.7,6.4,39.8,10.3,43c6.3,5.1,22.2-5.3,29.5,1.5c9.9,9.2,3.9,65.1-5,66
				C371.7,376.2,368.9,358.1,364.3,353.3z"/>
			<path class="st187" d="M364.6,351.9c-3.3-3.4-10.7-1.9-21.3-0.1c-8,1.4-14.9-13.4-20-27.8c-8.8-24.9-13.9-49.9-12.9-56.1
				c1.6-10.2,28.1-17.2,32.7-1.6c4.7,15.7,6.3,40.6,10.2,43.6c6.5,5,22.8-6.1,29.7,0.4c9.3,8.8,3.8,63.3-4.6,64.2
				C371.9,375.2,369,356.4,364.6,351.9z"/>
			<path class="st188" d="M364.8,350.6c-3.3-3.2-10.7-1.4-21.4,0.7c-7.9,1.5-14.2-12-19.4-26.5c-8.7-24.4-13.8-50-12.7-56
				c1.8-9.7,26.8-16.3,31.1-1.1c4.5,15.8,6.2,41.3,10.2,44.3c6.6,5,23.5-6.8,29.8-0.7c8.6,8.3,3.7,61.6-4.1,62.3
				C372,374.2,369,354.7,364.8,350.6z"/>
			<path class="st189" d="M365.1,349.2c-3.2-3-10.7-0.8-21.5,1.5c-7.7,1.7-13.6-10.6-18.8-25.2c-8.5-23.8-13.7-50.1-12.4-55.9
				c2.1-9.1,25.4-15.4,29.5-0.6c4.3,15.8,6,42,10.1,44.9c6.8,4.9,24.1-7.6,30-1.8c8,7.9,3.6,59.8-3.7,60.5
				C372.2,373.2,369.1,353,365.1,349.2z"/>
			<path class="st190" d="M365.3,347.9c-3.2-2.9-10.8-0.3-21.6,2.3c-7.6,1.8-12.9-9.1-18.3-24c-8.4-23.3-13.7-50.1-12.2-55.8
				c2.3-8.6,24.1-14.6,27.9-0.1c4.1,15.8,5.9,42.7,10,45.6c6.9,4.9,24.8-8.3,30.1-2.9c7.3,7.4,3.5,58.1-3.2,58.6
				C372.3,372.2,369.2,351.3,365.3,347.9z"/>
			<path class="st191" d="M365.5,346.5c-3.2-2.7-10.8,0.3-21.7,3.1c-7.4,1.9-12.3-7.7-17.7-22.7c-8.2-22.7-13.6-50.2-12-55.7
				c2.4-8,22.7-13.7,26.3,0.5c3.9,15.8,5.8,43.5,9.9,46.3c7,4.8,25.4-9.1,30.3-4c6.7,7,3.4,56.4-2.8,56.8
				C372.5,371.2,369.2,349.7,365.5,346.5z"/>
			<path class="st192" d="M365.8,345.2c-3.2-2.5-10.8,0.8-21.8,3.9c-7.3,2.1-11.6-6.3-17.1-21.4c-8.1-22.2-13.6-50.3-11.7-55.6
				c2.6-7.5,21.4-12.8,24.6,1c3.7,15.9,5.6,44.2,9.8,46.9c7.2,4.7,26.1-9.8,30.4-5.1c6,6.5,3.3,54.6-2.3,55
				C372.6,370.2,369.3,348,365.8,345.2z"/>
			<path class="st193" d="M366,343.8c-3.1-2.3-10.8,1.3-21.9,4.7c-7.1,2.2-11-4.8-16.6-20.2c-7.9-21.7-13.6-50.4-11.5-55.5
				c2.8-7,20-11.9,23,1.5c3.5,15.9,5.5,44.9,9.7,47.6c7.3,4.7,26.7-10.5,30.5-6.2c5.3,6.1,3.2,52.9-1.9,53.1
				C372.8,369.2,369.3,346.3,366,343.8z"/>
			<path class="st194" d="M366.2,342.5c-3.1-2.2-10.9,1.8-22,5.5c-7,2.3-10.3-3.4-16-18.9c-7.8-21.1-13.5-50.5-11.3-55.4
				c3-6.5,18.7-11,21.4,2c3.3,15.9,5.4,45.6,9.6,48.2c7.5,4.6,27.3-11.3,30.7-7.3c4.7,5.6,3.1,51.1-1.4,51.3
				C372.9,368.2,369.4,344.7,366.2,342.5z"/>
			<path class="st195" d="M366.5,341.2c-3.1-2-10.9,2.3-22.1,6.3c-6.9,2.5-9.6-2-15.4-17.6c-7.6-20.6-13.5-50.6-11.1-55.3
				c3.1-6,17.3-10.2,19.8,2.5c3.1,15.9,5.2,46.3,9.5,48.9c7.6,4.6,28-12,30.8-8.4c4,5.2,3,49.3-1,49.4
				C373.1,367.2,369.4,343,366.5,341.2z"/>
			<path class="st196" d="M366.7,339.8c-3.1-1.8-11,2.8-22.2,7.1c-6.7,2.6-9-0.6-14.9-16.3c-7.4-20-13.5-50.7-10.8-55.2
				c3.3-5.5,15.9-9.3,18.1,3c2.9,16,5.1,47,9.5,49.6c7.8,4.5,28.6-12.8,31-9.5c3.4,4.7,2.9,47.6-0.5,47.6
				C373.2,366.2,369.4,341.4,366.7,339.8z"/>
			<path class="st197" d="M366.9,338.5c-3.1-1.5-11,3.3-22.3,7.9c-6.6,2.7-8.3,0.9-14.3-15.1c-7.3-19.5-13.5-50.8-10.6-55.1
				c3.4-5,14.6-8.4,16.5,3.6c2.6,16,5,47.8,9.4,50.2c7.9,4.4,29.3-13.5,31.1-10.6c2.7,4.3,2.8,45.8-0.1,45.8
				C373.4,365.2,369.5,339.7,366.9,338.5z"/>
		</g>
		<polygon class="st24" points="334,247.6 343.8,326.3 382.6,304.4 380.4,398.5 359.1,340 326.9,364.7 288.1,247.6 		"/>
		
			<linearGradient id="SVGID_3_" gradientUnits="userSpaceOnUse" x1="56.1701" y1="-166.1782" x2="-6.8875" y2="-261.2992" gradientTransform="matrix(0.9742 0.2259 -0.2259 0.9742 275.6644 515.718)">
			<stop  offset="0" style="stop-color:#FFD45C"/>
			<stop  offset="1" style="stop-color:#FF9D00"/>
		</linearGradient>
		<polygon class="st27" points="334,247.6 346.8,328.2 382.6,304.4 380.4,398.5 363.1,340.2 328.8,363.2 290.2,247.6 		"/>
	</g>
	<g>
		<g class="st132">
			<path class="st133" d="M436.3,265.1c15.1-12.7,12.4-52.2,4.7-62.8c-10.1-13.9-20.8-22.3-30.1-26.9c-9.2-4.6-35.2-8.6-47-8.6
				c-16.5,0-32.7,4-46.1,7.6c-14.4,3.9-42.7,14.2-56.2,29c-15.7,17.2-1.8,51.5,2.2,56.5c7.5,9.4,16.6,18.7,28,24.2
				c10.9,5.2,20.4,5,28.6,5.5c6.2,0.4,33.7,3.5,49.8,0.1c11.4-2.4,30.8-5.9,36.3-8.6C411.5,278.6,424.3,275.3,436.3,265.1z"/>
			<path class="st134" d="M434.6,264.3c14.9-12.4,12.4-50.6,4.8-61.4c-10-14-20.7-22-29.9-26.6c-9.1-4.5-33.9-8.6-45.7-8.7
				c-16.2-0.2-32.4,3.7-45.8,7.3c-14.4,3.9-42.6,14.4-55.6,28.6c-15.2,16.6-2.3,50.1,2.1,55.5c7.3,9.1,15.9,18.4,27.4,23.8
				c10.9,5.1,20.3,4.6,28.2,5.2c6.1,0.5,32.8,4,49,0.7c11.6-2.4,30.3-6.3,35.6-9C409.9,277.2,422.6,274.3,434.6,264.3z"/>
			<path class="st135" d="M433,263.5c14.8-12,12.5-49.1,5-60c-9.8-14.2-20.6-21.7-29.7-26.2c-8.9-4.4-32.7-8.5-44.3-8.8
				c-15.8-0.3-32.1,3.4-45.4,7c-14.4,3.9-42.4,14.5-55,28.2c-14.7,16-2.7,48.7,2,54.4c7.1,8.8,15.2,18.1,26.8,23.4
				c10.8,4.9,20.1,4.2,27.8,4.9c6.1,0.6,31.8,4.5,48.2,1.2c11.8-2.4,29.8-6.7,35-9.3C408.4,275.9,420.9,273.3,433,263.5z"/>
			<path class="st136" d="M431.3,262.8c14.7-11.6,12.7-47.5,5.1-58.7c-9.7-14.3-20.4-21.3-29.5-25.8c-8.8-4.3-31.4-8.5-43-8.8
				c-15.5-0.5-31.9,3.2-45.1,6.8c-14.4,3.9-42.3,14.6-54.4,27.8c-14.2,15.4-3.1,47.3,1.8,53.4c6.9,8.6,14.5,17.8,26.2,23
				c10.8,4.7,20,3.8,27.5,4.6c6,0.6,30.9,5,47.4,1.7c11.9-2.4,29.3-7,34.4-9.6C406.8,274.5,419.3,272.3,431.3,262.8z"/>
			<path class="st137" d="M429.6,262c14.5-11.3,12.8-45.9,5.2-57.3c-9.5-14.5-20.3-21-29.4-25.4c-8.6-4.2-30.1-8.4-41.6-8.9
				c-15.1-0.6-31.6,2.9-44.7,6.5c-14.4,4-42.1,14.7-53.8,27.4c-13.7,14.8-3.5,45.9,1.7,52.3c6.7,8.3,13.7,17.5,25.6,22.6
				c10.7,4.6,19.8,3.5,27.1,4.3c6,0.7,29.9,5.5,46.5,2.3c12.1-2.4,28.7-7.4,33.7-9.9C405.2,273.1,417.6,271.3,429.6,262z"/>
			<path class="st138" d="M428,261.2c14.4-10.9,12.9-44.3,5.4-56c-9.4-14.6-20.1-20.6-29.2-25c-8.5-4.1-28.8-8.3-40.3-8.9
				c-14.7-0.8-31.3,2.6-44.4,6.2c-14.4,4-42,14.8-53.2,27c-13.1,14.2-3.9,44.4,1.6,51.3c6.5,8,13,17.2,25,22.1
				c10.7,4.4,19.7,3.1,26.7,4c5.9,0.8,29,6,45.7,2.8c12.3-2.3,28.2-7.8,33.1-10.3C403.6,271.7,416,270.2,428,261.2z"/>
			<path class="st139" d="M426.3,260.4c14.3-10.5,13-42.8,5.5-54.6c-9.3-14.8-20-20.3-29-24.7c-8.3-4-27.5-8.3-38.9-9
				c-14.4-0.9-31,2.3-44.1,6c-14.4,4-41.8,15-52.6,26.6c-12.6,13.6-4.3,43,1.5,50.2c6.3,7.7,12.3,16.9,24.4,21.7
				c10.6,4.3,19.5,2.7,26.4,3.7c5.9,0.8,28,6.5,44.9,3.3c12.5-2.3,27.7-8.2,32.4-10.6C402,270.4,414.3,269.2,426.3,260.4z"/>
			<path class="st140" d="M424.7,259.6c14.1-10.2,13.1-41.2,5.7-53.3c-9.1-15-19.9-20-28.8-24.3c-8.1-3.9-26.2-8.2-37.6-9.1
				c-14-1-30.7,2-43.7,5.7c-14.4,4.1-41.7,15.1-52,26.2c-12.1,13-4.7,41.6,1.4,49.2c6.1,7.5,11.6,16.6,23.8,21.3
				c10.5,4.1,19.4,2.4,26,3.4c5.9,0.9,27.1,7,44.1,3.9c12.6-2.3,27.2-8.6,31.8-10.9C400.5,269,412.7,268.2,424.7,259.6z"/>
			<path class="st141" d="M423,258.8c14-9.8,13.1-39.6,5.8-51.9c-9-15.1-19.7-19.6-28.7-23.9c-8-3.8-24.9-8.1-36.2-9.1
				c-13.7-1.2-30.4,1.7-43.4,5.4c-14.4,4.1-41.5,15.2-51.4,25.8c-11.6,12.4-5.1,40.2,1.3,48.1c5.9,7.2,10.9,16.2,23.2,20.9
				c10.5,4,19.3,2,25.6,3.1c5.8,1,26.1,7.6,43.3,4.4c12.8-2.3,26.7-8.9,31.1-11.2C398.9,267.6,411,267.2,423,258.8z"/>
			<path class="st142" d="M421.4,258c13.9-9.5,13.2-38,6-50.6c-8.9-15.2-19.6-19.3-28.5-23.5c-7.8-3.7-23.6-8.1-34.9-9.2
				c-13.3-1.3-30.1,1.5-43.1,5.2c-14.4,4.1-41.4,15.3-50.8,25.4c-11.1,11.8-5.6,38.8,1.2,47c5.7,6.9,10.2,15.9,22.6,20.5
				c10.4,3.8,19.1,1.6,25.3,2.8c5.8,1.1,25.2,8.1,42.5,4.9c13-2.3,26.2-9.3,30.5-11.6C397.3,266.2,409.4,266.2,421.4,258z"/>
			<path class="st143" d="M419.7,257.2c13.7-9.1,13.3-36.5,6.1-49.2c-8.7-15.4-19.4-19-28.3-23.2c-7.7-3.6-22.3-8-33.5-9.2
				c-13-1.4-29.8,1.2-42.7,4.9c-14.4,4.1-41.2,15.4-50.3,25c-10.6,11.2-6,37.4,1.1,46c5.5,6.6,9.5,15.6,22,20.1
				c10.4,3.6,19,1.3,24.9,2.5c5.7,1.1,24.3,8.6,41.6,5.5c13.2-2.3,25.7-9.7,29.9-11.9C395.7,264.9,407.7,265.2,419.7,257.2z"/>
			<path class="st144" d="M418.1,256.4c13.6-8.8,13.4-34.9,6.2-47.8c-8.6-15.5-19.3-18.6-28.1-22.8c-7.5-3.5-21-7.9-32.2-9.3
				c-12.6-1.6-29.5,0.9-42.4,4.6c-14.4,4.2-41.1,15.6-49.7,24.6c-10.1,10.6-6.4,36,1,44.9c5.3,6.4,8.7,15.3,21.4,19.7
				c10.3,3.5,18.8,0.9,24.5,2.2c5.7,1.2,23.3,9.1,40.8,6c13.3-2.3,25.2-10.1,29.2-12.2C394.1,263.5,406.1,264.1,418.1,256.4z"/>
			<path class="st145" d="M416.4,255.6c13.5-8.4,13.5-33.3,6.4-46.5c-8.5-15.7-19.1-18.3-28-22.4c-7.4-3.4-19.7-7.8-30.8-9.4
				c-12.3-1.7-29.2,0.6-42,4.3c-14.4,4.2-40.9,15.7-49.1,24.2c-9.5,10-6.8,34.5,0.9,43.9c5,6.1,8,15,20.8,19.2
				c10.2,3.4,18.7,0.6,24.1,1.8c5.6,1.3,22.4,9.6,40,6.5c13.5-2.3,24.7-10.5,28.6-12.5C392.6,262.1,404.4,263.1,416.4,255.6z"/>
			<path class="st146" d="M414.8,254.8c13.3-8.1,13.6-31.7,6.5-45.1c-8.4-15.8-19-18-27.8-22c-7.2-3.3-18.4-7.8-29.5-9.4
				c-11.9-1.8-28.9,0.3-41.7,4.1c-14.4,4.2-40.8,15.8-48.5,23.8c-9,9.4-7.2,33.1,0.8,42.8c4.8,5.8,7.3,14.7,20.3,18.8
				c10.2,3.2,18.5,0.2,23.8,1.5c5.6,1.4,21.4,10.1,39.2,7.1c13.7-2.3,24.2-10.9,27.9-12.9C391,260.7,402.7,262.1,414.8,254.8z"/>
			<path class="st147" d="M413.1,254c13.2-7.7,13.7-30.1,6.7-43.8c-8.2-16-18.9-17.6-27.6-21.6c-7.1-3.2-17.1-7.7-28.1-9.5
				c-11.5-1.9-28.6,0-41.4,3.8c-14.4,4.3-40.6,15.9-47.9,23.4c-8.5,8.8-7.6,31.7,0.7,41.8c4.6,5.6,6.6,14.4,19.7,18.4
				c10.1,3.1,18.4-0.1,23.4,1.2c5.5,1.5,20.5,10.6,38.4,7.6c13.9-2.3,23.7-11.2,27.3-13.2C389.4,259.3,401.1,261.1,413.1,254z"/>
			<path class="st148" d="M411.4,253.2c13-7.4,13.8-28.6,6.8-42.4c-8.1-16.1-18.7-17.3-27.4-21.3c-6.9-3.1-15.9-7.6-26.8-9.5
				c-11.2-2-28.3-0.2-41,3.5c-14.4,4.3-40.5,16-47.3,23c-8,8.2-8.1,30.3,0.6,40.7c4.4,5.3,5.8,14.2,19.1,18
				c10.1,2.9,18.2-0.5,23,0.9c5.5,1.6,19.5,11.1,37.6,8.1c14-2.3,23.1-11.6,26.6-13.5C387.8,258,399.4,260,411.4,253.2z"/>
			<path class="st149" d="M409.8,252.4c12.9-7,13.9-27,6.9-41.1c-8-16.3-18.6-17-27.3-20.9c-6.7-3-14.6-7.5-25.4-9.6
				c-10.8-2.1-28-0.5-40.7,3.3c-14.4,4.3-40.3,16.2-46.7,22.6c-7.5,7.6-8.5,28.9,0.5,39.7c4.2,5,5.1,13.9,18.5,17.6
				c10,2.8,18.1-0.8,22.7,0.6c5.4,1.7,18.6,11.6,36.8,8.7c14.2-2.3,22.6-12,26-13.9C386.2,256.6,397.7,259,409.8,252.4z"/>
			<path class="st150" d="M408.1,251.6c12.7-6.7,14-25.4,7.1-39.7c-7.9-16.4-18.4-16.6-27.1-20.5c-6.6-2.9-13.3-7.4-24.1-9.7
				c-10.5-2.2-27.7-0.8-40.4,3c-14.4,4.3-40.2,16.3-46.1,22.2c-7,7-8.9,27.5,0.4,38.6c4,4.7,4.4,13.6,17.9,17.2
				c9.9,2.6,17.9-1.1,22.3,0.3c5.4,1.8,17.7,12.1,35.9,9.2c14.4-2.3,22.1-12.4,25.4-14.2C384.7,255.2,396.1,258,408.1,251.6z"/>
			<path class="st151" d="M406.5,250.8c12.6-6.4,14-23.8,7.2-38.4c-7.8-16.5-18.3-16.3-26.9-20.1c-6.4-2.9-12-7.3-22.7-9.7
				c-10.1-2.3-27.4-1.1-40,2.7c-14.4,4.4-40,16.4-45.5,21.8c-6.4,6.3-9.3,26.1,0.3,37.5c3.8,4.5,3.7,13.3,17.3,16.7
				c9.9,2.5,17.8-1.5,21.9,0c5.3,1.9,16.7,12.6,35.1,9.7c14.6-2.3,21.6-12.8,24.7-14.5C383.1,253.8,394.4,256.9,406.5,250.8z"/>
			<path class="st152" d="M404.8,250.1c12.4-6,14.1-22.2,7.4-37c-7.7-16.7-18.1-16-26.7-19.8c-6.3-2.8-10.7-7.2-21.3-9.8
				c-9.8-2.4-27.1-1.4-39.7,2.5c-14.4,4.4-39.9,16.5-44.9,21.4c-5.9,5.7-9.8,24.7,0.2,36.5c3.6,4.2,3,13,16.7,16.3
				c9.8,2.4,17.6-1.8,21.6-0.3c5.2,2,15.8,13.1,34.3,10.3c14.7-2.3,21.1-13.2,24.1-14.8C381.5,252.4,392.8,255.9,404.8,250.1z"/>
			<path class="st153" d="M403.2,249.3c12.3-5.7,14.2-20.6,7.5-35.7c-7.5-16.8-18-15.7-26.6-19.4c-6.1-2.7-9.4-7-20-9.8
				c-9.4-2.5-26.8-1.7-39.3,2.2c-14.4,4.4-39.7,16.6-44.3,21c-5.4,5.1-10.2,23.3,0.1,35.4c3.3,3.9,2.2,12.8,16.1,15.9
				c9.7,2.3,17.5-2.1,21.2-0.6c5.2,2.1,14.8,13.7,33.5,10.8c14.9-2.3,20.6-13.6,23.4-15.2C379.9,251.1,391.1,254.8,403.2,249.3z"/>
			<path class="st108" d="M401.5,248.5c12.2-5.3,14.3-19.1,7.7-34.3c-7.4-17-17.8-15.3-26.4-19c-5.9-2.6-8.1-6.9-18.6-9.9
				c-9.1-2.6-26.5-1.9-39,1.9c-14.4,4.5-39.6,16.8-43.7,20.6c-4.9,4.5-10.6,21.9,0,34.4c3.1,3.7,1.5,12.5,15.5,15.5
				c9.7,2.1,17.3-2.5,20.8-0.9c5.1,2.2,13.9,14.2,32.7,11.3c15.1-2.3,20.1-13.9,22.8-15.5C378.3,249.7,389.4,253.8,401.5,248.5z"/>
		</g>
		<path class="st156" d="M392.9,192.7c-0.7,0-1.4,0-2.1,0.1c-3.8-10.7-14-18.4-26-18.4c-3.6,0-7,0.7-10.1,1.9
			c-3.7-10.3-13.6-17.6-25.1-17.6c-11.3,0-20.9,7-24.8,16.8c-1.3-0.2-2.7-0.3-4.1-0.3c-12.1,0-22.1,9.2-23.4,21
			c-1.7-0.3-3.4-0.5-5.2-0.5c-14.6,0-26.5,11.9-26.5,26.5c0,14.6,11.9,26.5,26.5,26.5c0.2,0,0.5,0,0.7,0
			c2.6,10.7,12.2,18.7,23.7,18.7c8.9,0,16.7-4.8,21-11.9c5.8,9.9,16.6,16.6,28.9,16.6c13.7,0,25.4-8.2,30.6-19.9
			c4.7,2.7,10.1,4.2,15.8,4.2c17.6,0,31.8-14.2,31.8-31.8S410.5,192.7,392.9,192.7z"/>
		<linearGradient id="SVGID_4_" gradientUnits="userSpaceOnUse" x1="246.7394" y1="216.3982" x2="425.8348" y2="216.3982">
			<stop  offset="0" style="stop-color:#076BBA"/>
			<stop  offset="1" style="stop-color:#0060AB"/>
		</linearGradient>
		<path class="st28" d="M394,193.7c-0.7,0-1.4,0-2.1,0.1c-3.8-10.7-14-18.4-26-18.4c-3.6,0-7,0.7-10.1,1.9
			c-3.7-10.3-13.6-17.6-25.1-17.6c-11.3,0-20.9,7-24.8,16.8c-1.3-0.2-2.7-0.4-4.1-0.4c-12.1,0-22.1,9.2-23.4,21
			c-1.7-0.3-3.4-0.5-5.2-0.5c-14.6,0-26.5,11.9-26.5,26.5c0,14.6,11.9,26.5,26.5,26.5c0.2,0,0.5,0,0.7,0
			c2.6,10.7,12.2,18.7,23.7,18.7c8.9,0,16.7-4.8,21-11.9c5.8,9.9,16.6,16.6,28.9,16.6c13.7,0,25.4-8.2,30.6-19.9
			c4.7,2.7,10.1,4.2,15.8,4.2c17.6,0,31.8-14.2,31.8-31.8C425.8,208,411.6,193.7,394,193.7z"/>
	</g>
	<g>
		<g class="st132">
			<path class="st133" d="M411.1,208.4c18.7-19.4,17.5-59.3,7.1-73.5c-13.6-18.7-30.1-25.6-42.5-31.8c-12.4-6.2-30.5-12-46.3-14.3
				c-19.4-2.9-40.9,5.5-58.9,10.3c-19.4,5.2-79.3,25.4-97.4,45.2c-10,11-12.5,25.2-11,38.3c1.7,14.7,8.2,27.9,11,31.4
				c10.1,12.7,47,25.3,62.4,32.7c14.7,7.1,27.5,6.7,38.5,7.5c8.3,0.6,31.6,0,53.3-4.6c15.4-3.2,30.6-15.1,38.1-18.8
				C372.3,227.5,396.9,223.1,411.1,208.4z"/>
			<path class="st134" d="M409.7,208c18.6-18.8,17.7-58,7.5-72.2c-13.4-18.5-29.6-25.1-42-31.2c-12.2-6.1-29.4-11.8-45.3-14.3
				c-19.1-3-40.1,5-58.1,9.9c-19.4,5.3-80.3,25.6-98,44.6c-10.1,10.8-12.6,25-10.8,38c2,14.5,9.1,27.1,12.3,30.6
				c10.4,11.7,45.5,24.9,61,32.1c14.6,6.9,27.2,6.1,37.9,7c8.3,0.7,30.8,0.9,53.1-3.8c15.6-3.3,30.4-15.5,37.6-19.1
				C371.8,226.2,395.3,222.4,409.7,208z"/>
			<path class="st135" d="M408.2,207.7c18.6-18.2,17.9-56.7,7.8-71c-13.1-18.4-29.1-24.6-41.5-30.7c-12-6-28.4-11.7-44.3-14.3
				c-18.7-3.1-39.3,4.5-57.3,9.5c-19.4,5.4-81.2,25.8-98.5,43.9c-10.2,10.6-12.7,24.9-10.6,37.8c2.3,14.3,10,26.2,13.5,29.9
				c10.6,10.8,44,24.4,59.7,31.5c14.6,6.6,27,5.6,37.3,6.5c8.2,0.8,29.9,1.9,52.9-3.1c15.8-3.4,30.1-15.8,37.2-19.3
				C371.2,224.9,393.9,221.7,408.2,207.7z"/>
			<path class="st136" d="M406.8,207.3c18.5-17.6,18.2-55.4,8.1-69.7c-12.9-18.3-28.7-24.1-41-30.1c-11.8-5.8-27.3-11.5-43.4-14.3
				c-18.3-3.2-38.5,4.1-56.6,9.1c-19.4,5.5-82.2,26-99.1,43.2c-10.2,10.4-12.8,24.8-10.5,37.5c2.6,14.1,10.9,25.4,14.8,29.1
				c10.6,10,42.4,23.9,58.3,30.9c14.5,6.4,26.7,5,36.8,6.1c8.1,0.9,29,2.9,52.7-2.3c16-3.5,29.8-16.1,36.7-19.6
				C370.7,223.6,392.3,221.1,406.8,207.3z"/>
			<path class="st137" d="M405.3,207c18.4-17,18.4-54.1,8.5-68.5c-12.6-18.2-28.2-23.6-40.5-29.6c-11.6-5.7-26.2-11.3-42.4-14.3
				c-18-3.3-37.6,3.6-55.8,8.8c-19.4,5.5-83.2,26.2-99.6,42.5c-10.3,10.2-12.9,24.6-10.3,37.2c2.9,14,11.7,24.6,16,28.3
				c10.6,9.2,40.9,23.5,56.9,30.3c14.5,6.2,26.4,4.5,36.2,5.6c8.1,0.9,28.1,3.9,52.5-1.6c16.3-3.6,29.6-16.5,36.3-19.9
				C370.1,222.3,390.8,220.4,405.3,207z"/>
			<path class="st138" d="M403.9,206.6c18.3-16.4,18.7-52.8,8.8-67.2c-12.4-18.1-27.7-23.1-39.9-29c-11.4-5.6-25.1-11.1-41.5-14.3
				c-17.6-3.4-36.8,3.1-55,8.4c-19.4,5.6-84.3,26.4-100.2,41.8c-10.4,10.1-12.9,24.5-10.1,36.9c3.2,13.8,12.6,23.7,17.2,27.5
				c10.5,8.4,39.4,23,55.5,29.7c14.4,6,26.2,3.9,35.7,5.2c8,1,27.3,4.9,52.3-0.8c16.5-3.7,29.3-16.8,35.8-20.1
				C369.6,221,389.3,219.7,403.9,206.6z"/>
			<path class="st139" d="M402.5,206.3c18.3-15.8,18.9-51.6,9.1-66c-12.1-17.9-27.2-22.6-39.4-28.5c-11.2-5.4-24-10.9-40.5-14.3
				c-17.2-3.5-36,2.6-54.3,8c-19.4,5.7-85.3,26.5-100.8,41.1c-10.5,9.9-13,24.4-9.9,36.6c3.4,13.6,13.4,22.9,18.5,26.7
				c10.4,7.7,37.8,22.6,54.2,29.1c14.3,5.8,25.9,3.4,35.1,4.7c8,1.1,26.4,5.8,52.1-0.1c16.7-3.8,29.1-17.1,35.4-20.4
				C369,219.7,387.7,219,402.5,206.3z"/>
			<path class="st140" d="M401,205.9c18.2-15.2,19.1-50.3,9.5-64.7c-11.9-17.8-26.8-22.1-38.9-27.9c-11-5.3-22.9-10.8-39.5-14.3
				c-16.9-3.6-35.2,2.2-53.5,7.6c-19.4,5.8-86.3,26.7-101.3,40.4c-10.6,9.7-13.1,24.2-9.7,36.4c3.7,13.4,14.2,22.1,19.7,25.9
				c10.2,7.1,36.3,22.1,52.8,28.5c14.2,5.5,25.6,2.8,34.5,4.2c7.9,1.2,25.5,6.8,51.9,0.7c16.9-3.9,28.8-17.5,35-20.7
				C368.5,218.5,386.2,218.3,401,205.9z"/>
			<path class="st141" d="M399.6,205.5c18.1-14.6,19.4-49,9.8-63.5c-11.7-17.7-26.3-21.6-38.4-27.4c-10.8-5.2-21.8-10.6-38.6-14.3
				c-16.5-3.7-34.4,1.7-52.7,7.3c-19.4,5.9-87.4,26.8-101.9,39.7c-10.7,9.5-13.2,24.1-9.5,36.1c4,13.3,14.4,22.4,21,25.1
				c8.7,8.1,34.7,21.7,51.4,27.9c14.2,5.3,25.4,2.3,34,3.8c7.8,1.3,24.7,7.8,51.7,1.4c17.2-4,28.5-17.8,34.5-20.9
				C367.9,217.2,384.7,217.6,399.6,205.5z"/>
			<path class="st142" d="M398.1,205.2c18-14,19.6-47.7,10.2-62.2c-11.4-17.6-25.8-21.1-37.9-26.8c-10.6-5-20.8-10.4-37.6-14.3
				c-16.2-3.7-33.6,1.2-51.9,6.9c-19.4,6-88.5,27-102.4,39c-10.8,9.3-13.3,24-9.3,35.8c4.3,13.1,15.2,21.7,22.2,24.3
				c8.6,7.5,33.2,21.2,50.1,27.4c14.1,5.1,25.1,1.8,33.4,3.3c7.8,1.4,23.8,8.8,51.5,2.2c17.4-4.1,28.3-18.2,34.1-21.2
				C367.4,215.9,383.1,216.9,398.1,205.2z"/>
			<path class="st143" d="M396.7,204.8c17.9-13.4,19.8-46.4,10.5-61c-11.2-17.4-25.3-20.6-37.4-26.3c-10.4-4.9-19.7-10.2-36.7-14.3
				c-15.8-3.8-32.8,0.7-51.2,6.5c-19.3,6-89.5,27.1-103,38.3c-10.9,9.1-13.4,23.8-9.1,35.5c4.6,12.9,16,21,23.5,23.5
				c8.4,7,31.7,20.8,48.7,26.8c14,4.9,24.9,1.2,32.9,2.9c7.7,1.6,22.9,9.7,51.3,2.9c17.6-4.2,28-18.5,33.6-21.4
				C366.8,214.6,381.6,216.2,396.7,204.8z"/>
			<path class="st144" d="M395.3,204.5c17.7-12.8,20.1-45.1,10.8-59.7c-10.9-17.3-24.9-20.1-36.9-25.8c-10.2-4.8-18.6-10-35.7-14.3
				c-15.4-3.9-32,0.3-50.4,6.1c-19.3,6.1-90.6,27.2-103.6,37.6c-11.1,8.9-13.5,23.7-9,35.2c4.9,12.7,16.8,20.3,24.7,22.7
				c8.2,6.4,30.1,20.3,47.3,26.2c14,4.7,24.6,0.7,32.3,2.4c7.7,1.7,22,10.7,51.1,3.7c17.8-4.3,27.7-18.8,33.2-21.7
				C366.3,213.3,380,215.5,395.3,204.5z"/>
			<path class="st145" d="M393.8,204.1c17.6-12.3,20.3-43.8,11.2-58.5c-10.7-17.2-24.4-19.7-36.3-25.2c-10-4.6-17.5-9.8-34.7-14.2
				c-15.1-3.9-31.2-0.2-49.6,5.8c-19.3,6.2-91.7,27.3-104.1,36.9c-11.2,8.7-13.5,23.6-8.8,35c5.2,12.6,17.5,19.6,26,21.9
				c8.1,5.8,28.6,19.9,46,25.6c13.9,4.5,24.3,0.2,31.7,1.9c7.6,1.8,21.2,11.7,50.9,4.4c18.1-4.4,27.5-19.2,32.7-22
				C365.7,212,378.5,214.8,393.8,204.1z"/>
			<path class="st146" d="M392.4,203.8c17.5-11.7,20.5-42.5,11.5-57.2c-10.5-17.1-23.9-19.2-35.8-24.7c-9.8-4.5-16.4-9.6-33.8-14.2
				c-14.7-4-30.4-0.7-48.9,5.4c-19.3,6.3-92.9,27.4-104.7,36.2c-11.4,8.5-13.6,23.4-8.6,34.7c5.5,12.4,18.8,17.4,27.2,21.1
				c8.7,3.8,27,19.5,44.6,25c13.8,4.3,24.1-0.3,31.2,1.5c7.5,1.9,20.3,12.7,50.7,5.2c18.3-4.5,27.2-19.5,32.3-22.2
				C365.2,210.7,376.9,214.1,392.4,203.8z"/>
			<path class="st147" d="M391,203.4c17.4-11.1,20.7-41.3,11.8-56c-10.2-16.9-23.4-18.7-35.3-24.1c-9.6-4.4-15.3-9.4-32.8-14.2
				c-14.4-4-29.6-1.1-48.1,5c-19.3,6.4-94,27.4-105.2,35.5c-11.5,8.3-13.7,23.3-8.4,34.4c5.8,12.2,19.6,16.7,28.5,20.3
				c8.4,3.4,25.5,19,43.2,24.4c13.7,4.1,23.8-0.8,30.6,1c7.5,2,19.4,13.7,50.5,5.9c18.5-4.6,26.9-19.9,31.9-22.5
				C364.6,209.4,375.4,213.4,391,203.4z"/>
			<path class="st148" d="M389.5,203.1c17.3-10.6,21-40,12.2-54.7c-10-16.8-22.9-18.2-34.8-23.6c-9.3-4.2-14.3-9.1-31.9-14.2
				c-14-4.1-28.8-1.6-47.3,4.6c-19.3,6.5-95.1,27.5-105.8,34.8c-11.7,8-13.8,23.2-8.2,34.1c6.1,12,20.3,16.1,29.7,19.6
				c8.1,3,23.9,18.6,41.9,23.8c13.6,4,23.5-1.3,30,0.6c7.4,2.1,18.6,14.6,50.3,6.7c18.7-4.7,26.7-20.2,31.4-22.8
				C364.1,208.1,373.8,212.6,389.5,203.1z"/>
			<path class="st149" d="M388.1,202.7c17.2-10,21.2-38.7,12.5-53.4c-9.8-16.7-22.5-17.7-34.3-23c-9.1-4.1-13.2-8.9-30.9-14.2
				c-13.7-4.1-27.9-2.1-46.6,4.3c-19.3,6.6-96.3,27.5-106.4,34.1c-11.8,7.7-13.9,23-8,33.8c6.4,11.9,21,15.5,31,18.8
				c7.8,2.5,22.4,18.2,40.5,23.2c13.6,3.8,23.3-1.8,29.5,0.1c7.3,2.3,17.7,15.6,50.1,7.4c19-4.7,26.4-20.5,31-23
				C363.5,206.8,372.3,211.9,388.1,202.7z"/>
			<path class="st150" d="M386.6,202.4c17-9.4,21.4-37.4,12.9-52.2c-9.5-16.5-22-17.2-33.8-22.5c-8.9-4-12.1-8.7-29.9-14.2
				c-13.3-4.1-27.1-2.6-45.8,3.9c-19.3,6.6-97.4,27.5-106.9,33.4c-12,7.5-14,22.9-7.8,33.6c6.7,11.7,21.7,15,32.2,18
				c7.5,2.2,20.8,17.8,39.1,22.6c13.5,3.6,23-2.3,28.9-0.4c7.3,2.4,16.8,16.6,49.9,8.2c19.2-4.8,26.1-20.9,30.5-23.3
				C363,205.5,370.7,211.2,386.6,202.4z"/>
			<path class="st151" d="M385.2,202c16.9-8.9,21.6-36.1,13.2-50.9c-9.4-16.4-21.5-16.8-33.3-21.9c-8.7-3.9-11-8.4-29-14.2
				c-13-4.2-26.3-3-45,3.5c-19.3,6.7-98.6,27.5-107.5,32.7c-12.2,7.1-14.1,22.8-7.7,33.3c7,11.5,22.4,14.5,33.5,17.2
				c7.2,1.8,19.3,17.3,37.7,22c13.4,3.4,22.7-2.8,28.4-0.8c7.2,2.6,15.9,17.6,49.7,8.9c19.4-4.9,25.9-21.2,30.1-23.6
				C362.4,204.2,369.1,210.5,385.2,202z"/>
			<path class="st152" d="M383.8,201.6c16.8-8.4,21.8-34.8,13.5-49.7c-9.1-16.3-21-16.3-32.7-21.4c-8.5-3.7-10-8.2-28-14.2
				c-12.6-4.2-25.5-3.5-44.3,3.1c-19.3,6.8-99.8,27.5-108,32c-12.5,6.8-14.1,22.6-7.5,33c7.3,11.3,23.1,14,34.7,16.4
				c7,1.4,17.7,16.9,36.4,21.4c13.3,3.2,22.5-3.3,27.8-1.3c7.1,2.7,15.1,18.5,49.5,9.7c19.6-5,25.6-21.6,29.6-23.8
				C361.9,202.9,367.6,209.7,383.8,201.6z"/>
			<path class="st153" d="M382.3,201.3c16.6-7.8,22.1-33.5,13.9-48.4c-8.9-16.1-20.5-15.8-32.2-20.8c-8.3-3.6-8.9-7.9-27.1-14.2
				c-12.3-4.2-24.7-4-43.5,2.8c-19.3,6.9-100.9,27.5-108.6,31.3c-12.7,6.3-14.2,22.5-7.3,32.7c7.6,11.2,23.9,13.7,36,15.6
				c6.7,1.1,16.2,16.5,35,20.8c13.2,3.1,22.2-3.8,27.2-1.7c7,2.9,14.2,19.5,49.3,10.4c19.9-5.1,25.3-21.9,29.2-24.1
				C361.3,201.6,366,209,382.3,201.3z"/>
			<path class="st108" d="M380.9,200.9c16.5-7.3,22.3-32.2,14.2-47.2c-8.6-16-20.1-15.3-31.7-20.3c-8.1-3.5-7.9-7.7-26.1-14.2
				c-11.9-4.3-23.9-4.5-42.7,2.4c-19.3,7-102.1,27.4-109.2,30.6c-13,5.8-14.3,22.4-7.1,32.4c7.9,11,24.6,13.4,37.2,14.8
				c6.5,0.7,14.6,16.1,33.6,20.2c13.2,2.9,21.9-4.3,26.7-2.2c6.9,3,13.3,20.5,49.1,11.1c20.1-5.2,25.1-22.3,28.8-24.3
				C360.8,200.3,364.4,208.2,380.9,200.9z"/>
		</g>
		<path class="st159" d="M366.9,128.4c-1.5,0-2.9,0.1-4.3,0.3c-5.3-15.8-20.2-27.1-37.8-27.1c-8.1,0-15.6,2.4-22,6.6
			c-4.3-11.8-15.7-20.3-29-20.3c-15,0-27.5,10.8-30.3,25c-4.2-3.1-9.5-5-15.2-5c-13.1,0-23.8,9.8-25.3,22.4c-0.1,0-0.1,0-0.2,0
			c-20.3,0-36.7,16.4-36.7,36.7c0,20.3,16.4,36.7,36.7,36.7c6.5,0,12.5-1.7,17.8-4.6c1.9,12.7,12.9,22.5,26.2,22.5
			c10.5,0,19.5-6.1,23.8-15c8.1,11.9,21.7,19.7,37.2,19.7c20,0,36.9-13,42.8-31c4.9,2.5,10.4,3.9,16.2,3.9
			c19.6,0,35.4-15.8,35.4-35.4C402.3,144.2,386.5,128.4,366.9,128.4z"/>
		<path class="st160" d="M368,129.4c-1.5,0-2.9,0.1-4.3,0.3c-5.3-15.8-20.2-27.1-37.8-27.1c-8.1,0-15.7,2.4-22,6.6
			c-4.3-11.8-15.7-20.3-29-20.3c-15,0-27.5,10.7-30.3,25c-4.2-3.1-9.5-5-15.2-5c-13,0-23.8,9.8-25.3,22.4c-0.1,0-0.1,0-0.2,0
			c-20.3,0-36.7,16.4-36.7,36.7c0,20.3,16.4,36.7,36.7,36.7c6.5,0,12.6-1.7,17.8-4.6c1.9,12.7,12.9,22.5,26.2,22.5
			c10.5,0,19.6-6.1,23.8-15c8.1,11.9,21.7,19.7,37.2,19.7c20,0,36.9-13,42.8-31c4.9,2.5,10.4,3.9,16.2,3.9
			c19.6,0,35.4-15.8,35.4-35.4C403.4,145.2,387.5,129.4,368,129.4z"/>
	</g>
	<g>
		<g class="st132">
			<path class="st133" d="M273.8,260.2c8.7-13,4.5-36.9-1.6-45.2c-8-11-18.5-15.8-25.8-19.5c-7.3-3.7-23.3-10.2-32.6-10.2
				c-13.1,0-19.7,4.8-30.3,7.7c-11.4,3.1-30.8,20.9-41.5,32.6c-12.4,13.7-9.3,34.2-6.1,38.2c5.9,7.4,13.1,14.8,22.2,19.2
				c8.7,4.2,16.2,3.9,22.6,4.4c4.9,0.3,10.6,2.8,23.4,0.1c9-1.9,13.4-2.6,18-4.1C232,280.2,263.3,275.9,273.8,260.2z"/>
			<path class="st134" d="M273.2,260.4c8.8-12.6,5.3-35.8-0.8-44.4c-7.9-11.2-18.7-15.8-26-19.4c-7.2-3.6-22.9-10.4-32.2-10.5
				c-12.8-0.1-19.9,4.5-30.5,7.4c-11.5,3.1-30.6,21-41,32.2c-12.1,13.2-9.9,33.4-6.4,37.7c5.8,7.2,12.8,14.6,22.1,18.7
				c8.9,4,16.3,3.4,22.6,3.9c4.9,0.4,10.7,2.8,23.7,0.2c9.3-1.9,13.7-2.8,18.3-4.1C232.5,279.4,262.6,275.5,273.2,260.4z"/>
			<path class="st135" d="M272.6,260.5c8.9-12.2,6-34.7-0.1-43.6c-7.9-11.4-18.9-15.7-26.2-19.3c-7.1-3.5-22.5-10.7-31.8-10.9
				c-12.6-0.3-20.1,4.2-30.8,7.1c-11.6,3.2-30.5,21-40.5,31.9c-11.7,12.7-10.4,32.6-6.6,37.3c5.7,7,12.5,14.4,21.9,18.3
				c9.1,3.8,16.4,2.9,22.5,3.5c4.9,0.5,10.8,2.9,24,0.2c9.5-1.9,14.1-2.9,18.6-4.1C232.9,278.5,261.9,275.1,272.6,260.5z"/>
			<path class="st136" d="M271.9,260.6c9-11.8,6.8-33.7,0.7-42.8c-7.8-11.6-19.1-15.6-26.4-19.2c-7-3.5-22.1-10.9-31.4-11.2
				c-12.4-0.4-20.3,3.9-31,6.8c-11.7,3.2-30.3,21.1-40,31.6c-11.3,12.3-11,31.8-6.9,36.9c5.5,6.8,12.2,14.2,21.8,17.9
				c9.3,3.6,16.5,2.4,22.4,3c4.9,0.5,10.9,2.9,24.3,0.3c9.7-1.9,14.5-3.1,18.8-4.1C233.4,277.6,261.2,274.7,271.9,260.6z"/>
			<path class="st137" d="M271.3,260.8c9.1-11.5,7.6-32.6,1.5-42c-7.7-11.8-19.3-15.5-26.7-19.1c-7-3.4-21.7-11.2-31.1-11.6
				c-12.2-0.6-20.5,3.6-31.2,6.5c-11.7,3.2-30.1,21.2-39.5,31.3c-10.9,11.8-11.6,31-7.2,36.4c5.4,6.6,11.9,13.9,21.7,17.5
				c9.5,3.4,16.6,1.9,22.4,2.6c4.9,0.6,11,3,24.6,0.3c9.9-1.9,14.9-3.2,19.1-4.1C233.8,276.7,260.6,274.3,271.3,260.8z"/>
			<path class="st138" d="M270.7,260.9c9.2-11.1,8.4-31.6,2.3-41.2c-7.6-12-19.5-15.4-26.9-19c-6.9-3.3-21.3-11.4-30.7-12
				c-11.9-0.7-20.7,3.3-31.5,6.2c-11.8,3.3-30,21.3-39,31c-10.5,11.4-12.1,30.2-7.5,36c5.2,6.4,11.6,13.7,21.5,17
				c9.8,3.3,16.7,1.4,22.3,2.1c4.8,0.7,11.1,3,24.9,0.4c10.1-1.9,15.3-3.4,19.4-4.1C234.3,275.9,259.9,273.9,270.7,260.9z"/>
			<path class="st139" d="M270,261.1c9.3-10.7,9.1-30.5,3-40.4c-7.6-12.3-19.7-15.3-27.1-18.8c-6.8-3.3-20.9-11.7-30.3-12.3
				c-11.7-0.8-20.9,2.9-31.7,6c-11.9,3.3-29.8,21.4-38.5,30.7c-10.2,10.9-12.7,29.5-7.7,35.5c5.1,6.2,11.2,13.5,21.4,16.6
				c10,3.1,16.8,0.8,22.3,1.7c4.8,0.7,11.3,3.1,25.2,0.4c10.4-1.9,15.6-3.5,19.7-4.1C234.7,275,259.2,273.5,270,261.1z"/>
			<path class="st140" d="M269.4,261.2c9.4-10.3,9.9-29.4,3.8-39.6c-7.5-12.5-19.9-15.2-27.3-18.7c-6.7-3.2-20.5-11.9-29.9-12.7
				c-11.5-0.9-21.1,2.6-32,5.7c-12,3.4-29.6,21.5-38,30.4c-9.8,10.5-13.3,28.7-8,35.1c4.9,6,10.9,13.2,21.3,16.2
				c10.2,2.9,16.9,0.3,22.2,1.2c4.8,0.8,11.4,3.1,25.5,0.5c10.6-1.9,16-3.7,19.9-4.1C235.1,274.1,258.6,273.2,269.4,261.2z"/>
			<path class="st141" d="M268.7,261.3c9.5-10,10.7-28.4,4.6-38.7c-7.4-12.7-20.1-15.1-27.6-18.6c-6.6-3.1-20.1-12.2-29.5-13.1
				c-11.2-1.1-21.3,2.3-32.2,5.4c-12,3.4-29.5,21.5-37.5,30.1c-9.4,10-13.8,27.9-8.3,34.7c4.8,5.8,10.6,13,21.2,15.7
				c10.4,2.7,17-0.2,22.1,0.8c4.8,0.9,11.5,3.2,25.8,0.6c10.8-1.9,16.4-3.8,20.2-4.2C235.6,273.3,257.9,272.8,268.7,261.3z"/>
			<path class="st142" d="M268.1,261.5c9.6-9.6,11.4-27.3,5.3-37.9c-7.4-12.9-20.3-15-27.8-18.5c-6.5-3.1-19.7-12.4-29.1-13.4
				c-11-1.2-21.5,2-32.4,5.1c-12.1,3.5-29.3,21.6-37,29.8c-9,9.6-14.4,27.1-8.5,34.2c4.6,5.6,10.3,12.8,21,15.3
				c10.7,2.5,17.1-0.7,22.1,0.3c4.8,0.9,11.6,3.2,26.1,0.6c11-2,16.8-4,20.5-4.2C236,272.4,257.3,272.4,268.1,261.5z"/>
			<path class="st143" d="M267.5,261.6c9.7-9.2,12.2-26.2,6.1-37.1c-7.3-13.1-20.5-14.9-28-18.4c-6.4-3-19.3-12.7-28.7-13.8
				c-10.7-1.3-21.7,1.7-32.7,4.8c-12.2,3.5-29.1,21.7-36.5,29.5c-8.6,9.1-15,26.3-8.8,33.8c4.5,5.4,10,12.5,20.9,14.9
				c10.9,2.4,17.1-1.2,22-0.1c4.8,1,11.7,3.3,26.4,0.7c11.2-2,17.2-4.1,20.7-4.2C236.5,271.5,256.6,272,267.5,261.6z"/>
			<path class="st144" d="M266.8,261.8c9.8-8.8,13-25.1,6.9-36.3c-7.3-13.3-20.7-14.8-28.2-18.3c-6.3-2.9-18.9-12.9-28.3-14.1
				c-10.5-1.4-21.9,1.4-32.9,4.5c-12.3,3.6-29,21.8-36,29.2c-8.2,8.7-15.6,25.5-9.1,33.4c4.3,5.3,9.7,12.3,20.8,14.4
				c11.1,2.2,17.2-1.7,22-0.6c4.8,1.1,11.8,3.3,26.7,0.7c11.5-2,17.5-4.2,21-4.2C236.9,270.7,255.9,271.6,266.8,261.8z"/>
			<path class="st145" d="M266.2,261.9c9.9-8.5,13.7-24.1,7.6-35.5c-7.2-13.5-20.9-14.7-28.5-18.2c-6.2-2.9-18.5-13.1-27.9-14.5
				c-10.3-1.5-22.1,1.1-33.1,4.3c-12.3,3.6-28.8,21.9-35.5,28.9c-7.9,8.2-16.1,24.7-9.4,32.9c4.2,5.1,9.4,12,20.6,14
				c11.3,2,17.3-2.1,21.9-1c4.8,1.2,11.9,3.4,27,0.8c11.7-2,17.9-4.4,21.3-4.2C237.3,269.8,255.3,271.2,266.2,261.9z"/>
			<path class="st146" d="M265.6,262.1c10-8.1,14.5-23,8.4-34.7c-7.1-13.7-21.1-14.6-28.7-18.1c-6.1-2.8-18.1-13.4-27.6-14.9
				c-10.1-1.6-22.3,0.7-33.4,4c-12.4,3.6-28.6,21.9-35,28.5c-7.5,7.7-16.7,23.9-9.6,32.5c4,4.9,9.1,11.8,20.5,13.6
				c11.5,1.8,17.4-2.6,21.8-1.5c4.8,1.3,12,3.4,27.4,0.8c11.9-2,18.3-4.5,21.6-4.2C237.8,268.9,254.6,270.9,265.6,262.1z"/>
			<path class="st147" d="M264.9,262.2c10.1-7.7,15.2-21.9,9.2-33.9c-7.1-13.9-21.3-14.5-28.9-17.9c-6-2.7-17.7-13.6-27.2-15.2
				c-9.8-1.7-22.5,0.4-33.6,3.7c-12.5,3.7-28.5,22-34.5,28.2c-7.1,7.3-17.3,23.2-9.9,32.1c3.9,4.7,8.8,11.6,20.4,13.2
				c11.8,1.6,17.5-3.1,21.8-1.9c4.7,1.3,12.1,3.5,27.7,0.9c12.1-2,18.7-4.7,21.8-4.2C238.2,268,254,270.5,264.9,262.2z"/>
			<path class="st148" d="M264.3,262.3c10.2-7.3,16-20.9,9.9-33.1c-7-14.1-21.5-14.4-29.1-17.8c-5.9-2.7-17.3-13.8-26.8-15.6
				c-9.6-1.8-22.7,0.1-33.8,3.4c-12.6,3.7-28.3,22.1-34.1,27.9c-6.7,6.8-17.9,22.4-10.2,31.6c3.7,4.5,8.4,11.3,20.2,12.7
				c12,1.4,17.6-3.6,21.7-2.4c4.7,1.4,12.2,3.5,28,0.9c12.3-2,19.1-4.8,22.1-4.2C238.7,267.2,253.4,270.1,264.3,262.3z"/>
			<path class="st149" d="M263.7,262.5c10.4-6.9,16.8-19.8,10.7-32.3c-7-14.3-21.7-14.3-29.4-17.7c-5.8-2.6-16.9-14-26.4-16
				c-9.4-1.9-22.9-0.2-34.1,3.1c-12.6,3.8-28.1,22.2-33.6,27.6c-6.3,6.4-18.5,21.6-10.4,31.2c3.6,4.3,8.1,11.1,20.1,12.3
				c12.2,1.2,17.7-4.1,21.7-2.8c4.7,1.5,12.3,3.6,28.3,1c12.5-2,19.4-5,22.4-4.2C239.1,266.3,252.7,269.8,263.7,262.5z"/>
			<path class="st150" d="M263,262.6c10.5-6.5,17.5-18.7,11.5-31.4c-6.9-14.5-21.9-14.2-29.6-17.6c-5.7-2.6-16.5-14.3-26-16.3
				c-9.1-2-23.1-0.5-34.3,2.9c-12.7,3.8-28,22.3-33.1,27.3c-6,5.9-19,20.8-10.7,30.7c3.4,4.1,7.8,10.8,20,11.9
				c12.4,1,17.8-4.6,21.6-3.3c4.7,1.6,12.4,3.6,28.6,1.1c12.8-2,19.8-5.1,22.7-4.2C239.6,265.4,252.1,269.4,263,262.6z"/>
			<path class="st151" d="M262.4,262.8c10.6-6.1,18.3-17.6,12.2-30.6c-6.9-14.7-22.1-14.1-29.8-17.5c-5.7-2.5-16.1-14.5-25.6-16.7
				c-8.9-2.1-23.3-0.8-34.5,2.6c-12.8,3.9-27.8,22.3-32.6,27c-5.6,5.5-19.6,20-11,30.3c3.3,3.9,7.5,10.6,19.9,11.4
				c12.7,0.8,17.9-5.1,21.5-3.7c4.7,1.7,12.5,3.7,28.9,1.1c13-2,20.2-5.3,22.9-4.3C240,264.5,251.4,269.1,262.4,262.8z"/>
			<path class="st152" d="M261.7,262.9c10.7-5.7,19-16.6,13-29.8c-6.8-14.9-22.3-14-30-17.4c-5.6-2.4-15.7-14.7-25.2-17
				c-8.7-2.2-23.5-1.1-34.8,2.3c-12.9,3.9-27.6,22.4-32.1,26.7c-5.2,5-20.2,19.3-11.2,29.9c3.1,3.7,7.2,10.3,19.7,11
				c12.9,0.6,18-5.5,21.5-4.2c4.7,1.8,12.6,3.8,29.2,1.2c13.2-2,20.6-5.4,23.2-4.3C240.4,263.7,250.8,268.7,261.7,262.9z"/>
			<path class="st153" d="M261.1,263.1c10.8-5.3,19.8-15.5,13.8-29c-6.8-15.1-22.5-13.9-30.3-17.3c-5.5-2.4-15.3-14.9-24.8-17.4
				c-8.4-2.3-23.7-1.5-35,2c-12.9,4-27.5,22.5-31.6,26.4c-4.8,4.6-20.8,18.5-11.5,29.4c3,3.5,6.9,10.1,19.6,10.6
				c13.1,0.5,18.1-6,21.4-4.6c4.6,1.9,12.7,3.8,29.5,1.2c13.4-2,21-5.6,23.5-4.3C240.9,262.8,250.2,268.4,261.1,263.1z"/>
			<path class="st108" d="M260.5,263.2c11-4.8,20.6-14.4,14.5-28.2c-6.7-15.3-22.8-13.8-30.5-17.2c-5.4-2.3-15-15.1-24.4-17.8
				c-8.2-2.3-23.9-1.8-35.2,1.7c-13,4-27.3,22.6-31.1,26.1c-4.4,4.1-21.4,17.7-11.8,29c2.8,3.3,6.6,9.9,19.5,10.2
				c13.3,0.3,18.2-6.5,21.4-5.1c4.6,2,12.8,3.9,29.8,1.3c13.6-2,21.4-5.7,23.8-4.3C241.3,261.9,249.5,268,260.5,263.2z"/>
		</g>
		<path class="st161" d="M251.8,216.5c-3.1-0.2-6,0.3-8.8,1.2c-3.6-18.3-19.2-32.4-38.7-33.5c-18.8-1-35.4,10.7-41.4,27.7h0
			c-15.9-0.8-29.5,11.4-30.4,27.4c-0.8,15.9,11.4,29.5,27.4,30.4c8.2,0.4,15.8-2.6,21.3-7.9c5.5,3.2,11.9,5.2,18.8,5.6
			c12.2,0.6,23.5-4.1,31.5-12.1c4.1,5.3,10.5,8.9,17.7,9.3c13.3,0.7,24.6-9.5,25.3-22.8C275.3,228.5,265.1,217.2,251.8,216.5z"/>
		<path class="st162" d="M253.3,216.7c-3-0.2-6,0.3-8.7,1.2c-3.6-18.3-19.2-32.4-38.7-33.5c-18.9-1-35.4,10.8-41.4,27.7c0,0,0,0,0,0
			c-15.9-0.8-29.5,11.4-30.4,27.4c-0.8,15.9,11.4,29.5,27.4,30.4c8.2,0.4,15.8-2.6,21.4-7.9c5.5,3.2,11.9,5.2,18.7,5.6
			c12.2,0.6,23.5-4.1,31.5-12.1c4.1,5.3,10.5,8.9,17.7,9.3c13.3,0.7,24.6-9.5,25.2-22.8C276.7,228.7,266.6,217.4,253.3,216.7z"/>
	</g>
	<g>
		<g>
			<g class="st63">
				<path class="st23" d="M167.2,340.7c2.3,0,8.2,10.5,7.7,16.7c-0.4,4.4-3.2,7.9-7.7,7.9c-6.2,0-7.4-5.6-7.4-7.9
					C159.8,353.6,164.8,340.7,167.2,340.7z"/>
			</g>
			<path class="st163" d="M175,354.7c0,6.9-5.6,12.6-12.6,12.6c-7,0-13-5.6-13-12.6c0-11.8,13.2-27.6,13.2-27.6l0.9-0.5
				c0,0,0,0.6,0.2,0.9C166.2,331.2,175,345.6,175,354.7z"/>
			<path class="st164" d="M176.1,355c0,7-5.6,12.6-12.6,12.6c-6.9,0-12.6-5.6-12.6-12.6c0-10.4,12.6-28.4,12.6-28.4
				S176.1,344.6,176.1,355z"/>
		</g>
		<g>
			<g class="st63">
				<path class="st23" d="M127.1,290.8c1.8,0,6.6,8.4,6.2,13.3c-0.3,3.5-2.6,6.3-6.1,6.3c-5,0-5.9-4.5-5.9-6.3
					C121.2,301.1,125.2,290.8,127.1,290.8z"/>
			</g>
			<path class="st163" d="M133.4,301.9c0,5.5-4.5,10-10,10c-5.5,0-10.4-4.5-10.4-10c0-9.4,10.5-22,10.5-22l0.8-0.4
				c0,0,0,0.4,0.2,0.7C126.3,283.2,133.4,294.7,133.4,301.9z"/>
			<path class="st164" d="M134.2,302.2c0,5.5-4.5,10-10,10c-5.5,0-10-4.5-10-10c0-8.3,10-22.7,10-22.7S134.2,293.9,134.2,302.2z"/>
		</g>
		<g>
			<g class="st63">
				<path class="st23" d="M400.5,252.6c1.7,0,6.2,7.8,5.8,12.5c-0.3,3.3-2.4,6-5.8,6c-4.6,0-5.6-4.2-5.6-5.9
					C394.9,262.2,398.7,252.6,400.5,252.6z"/>
			</g>
			<path class="st163" d="M406.4,263c0,5.2-4.2,9.4-9.4,9.4c-5.2,0-9.8-4.2-9.8-9.4c0-8.8,9.8-20.6,9.8-20.6l0.7-0.4
				c0,0,0,0.4,0.2,0.7C399.7,245.5,406.4,256.3,406.4,263z"/>
			<path class="st164" d="M407.2,263.3c0,5.2-4.2,9.4-9.4,9.4c-5.2,0-9.4-4.2-9.4-9.4c0-7.8,9.4-21.2,9.4-21.2
				S407.2,255.5,407.2,263.3z"/>
		</g>
		<g>
			<g class="st63">
				<path class="st23" d="M276.4,377.1c1.7,0,6.2,7.8,5.8,12.5c-0.3,3.3-2.4,6-5.8,6c-4.6,0-5.6-4.2-5.6-5.9
					C270.9,386.8,274.7,377.1,276.4,377.1z"/>
			</g>
			<path class="st163" d="M282.3,387.6c0,5.2-4.2,9.4-9.4,9.4c-5.2,0-9.8-4.2-9.8-9.4c0-8.8,9.8-20.6,9.8-20.6l0.7-0.4
				c0,0,0,0.4,0.2,0.7C275.7,370.1,282.3,380.8,282.3,387.6z"/>
			<path class="st164" d="M283.1,387.8c0,5.2-4.2,9.4-9.4,9.4c-5.2,0-9.4-4.2-9.4-9.4c0-7.8,9.4-21.2,9.4-21.2
				S283.1,380,283.1,387.8z"/>
		</g>
		<g>
			<g class="st63">
				<path class="st23" d="M240.8,318.9c2.7,0,9.8,12.5,9.3,20c-0.4,5.2-3.9,9.5-9.2,9.5c-7.4,0-8.9-6.7-8.9-9.4
					C231.9,334.4,238,318.9,240.8,318.9z"/>
			</g>
			<path class="st163" d="M250.2,335.6c0,8.3-6.7,15.1-15,15.1c-8.3,0-15.6-6.7-15.6-15.1c0-14.1,15.8-33,15.8-33l1.1-0.6
				c0,0,0,0.7,0.3,1.1C239.6,307.6,250.2,324.8,250.2,335.6z"/>
			<path class="st164" d="M251.5,336c0,8.3-6.7,15.1-15.1,15.1c-8.3,0-15-6.7-15-15.1c0-12.5,15-34,15-34S251.5,323.6,251.5,336z"/>
		</g>
	</g>
</g>
</svg>
