<?xml version="1.0" encoding="utf-8"?>
<!-- Generator: Adobe Illustrator 25.0.0, SVG Export Plug-In . SVG Version: 6.00 Build 0)  -->
<svg version="1.1" id="_x3C_Layer_x3E_" xmlns="http://www.w3.org/2000/svg" xmlns:xlink="http://www.w3.org/1999/xlink" x="0px"
	 y="0px" viewBox="0 0 500 500" style="enable-background:new 0 0 500 500;" xml:space="preserve">
<style type="text/css">
	.st0{opacity:0.1;}
	.st1{opacity:0.5;}
	.st2{opacity:0;fill:#FFFFFF;}
	.st3{opacity:4.761905e-02;fill:#F9FBFB;}
	.st4{opacity:9.523810e-02;fill:#F3F6F7;}
	.st5{opacity:0.1429;fill:#EEF2F4;}
	.st6{opacity:0.1905;fill:#E8EDF0;}
	.st7{opacity:0.2381;fill:#E2E9EC;}
	.st8{opacity:0.2857;fill:#DCE4E8;}
	.st9{opacity:0.3333;fill:#D7E0E5;}
	.st10{opacity:0.381;fill:#D1DCE1;}
	.st11{opacity:0.4286;fill:#CBD7DD;}
	.st12{opacity:0.4762;fill:#C5D3D9;}
	.st13{opacity:0.5238;fill:#C0CED6;}
	.st14{opacity:0.5714;fill:#BACAD2;}
	.st15{opacity:0.619;fill:#B4C5CE;}
	.st16{opacity:0.6667;fill:#AEC1CA;}
	.st17{opacity:0.7143;fill:#A9BDC7;}
	.st18{opacity:0.7619;fill:#A3B8C3;}
	.st19{opacity:0.8095;fill:#9DB4BF;}
	.st20{opacity:0.8571;fill:#97AFBB;}
	.st21{opacity:0.9048;fill:#92ABB8;}
	.st22{opacity:0.9524;fill:#8CA6B4;}
	.st23{fill:#86A2B0;}
	.st24{fill:#FFE3AB;}
	.st25{fill:url(#SVGID_1_);}
	.st26{fill:url(#SVGID_2_);}
	.st27{fill:url(#SVGID_3_);}
	.st28{fill:url(#SVGID_4_);}
	.st29{fill:url(#SVGID_5_);}
	.st30{fill:url(#SVGID_6_);}
	.st31{fill:url(#SVGID_7_);}
	.st32{fill:url(#SVGID_8_);}
	.st33{fill:url(#SVGID_9_);}
	.st34{fill:url(#SVGID_10_);}
	.st35{fill:url(#SVGID_11_);}
	.st36{fill:url(#SVGID_12_);}
	.st37{fill:url(#SVGID_13_);}
	.st38{fill:url(#SVGID_14_);}
	.st39{fill:url(#SVGID_15_);}
	.st40{fill:url(#SVGID_16_);}
	.st41{opacity:2.380952e-02;fill:#F9FBFB;}
	.st42{opacity:4.761905e-02;fill:#F3F6F7;}
	.st43{opacity:7.142857e-02;fill:#EEF2F4;}
	.st44{opacity:9.523810e-02;fill:#E8EDF0;}
	.st45{opacity:0.119;fill:#E2E9EC;}
	.st46{opacity:0.1429;fill:#DCE4E8;}
	.st47{opacity:0.1667;fill:#D7E0E5;}
	.st48{opacity:0.1905;fill:#D1DCE1;}
	.st49{opacity:0.2143;fill:#CBD7DD;}
	.st50{opacity:0.2381;fill:#C5D3D9;}
	.st51{opacity:0.2619;fill:#C0CED6;}
	.st52{opacity:0.2857;fill:#BACAD2;}
	.st53{opacity:0.3095;fill:#B4C5CE;}
	.st54{opacity:0.3333;fill:#AEC1CA;}
	.st55{opacity:0.3571;fill:#A9BDC7;}
	.st56{opacity:0.381;fill:#A3B8C3;}
	.st57{opacity:0.4048;fill:#9DB4BF;}
	.st58{opacity:0.4286;fill:#97AFBB;}
	.st59{opacity:0.4524;fill:#92ABB8;}
	.st60{opacity:0.4762;fill:#8CA6B4;}
	.st61{opacity:0.5;fill:#86A2B0;}
	.st62{fill:url(#SVGID_17_);}
	.st63{opacity:0.15;}
	.st64{fill:url(#SVGID_18_);}
	.st65{opacity:2.857143e-02;fill:#F9FBFB;}
	.st66{opacity:5.714286e-02;fill:#F3F6F7;}
	.st67{opacity:8.571429e-02;fill:#EEF2F4;}
	.st68{opacity:0.1143;fill:#E8EDF0;}
	.st69{opacity:0.1429;fill:#E2E9EC;}
	.st70{opacity:0.1714;fill:#DCE4E8;}
	.st71{opacity:0.2;fill:#D7E0E5;}
	.st72{opacity:0.2286;fill:#D1DCE1;}
	.st73{opacity:0.2571;fill:#CBD7DD;}
	.st74{opacity:0.2857;fill:#C5D3D9;}
	.st75{opacity:0.3143;fill:#C0CED6;}
	.st76{opacity:0.3429;fill:#BACAD2;}
	.st77{opacity:0.3714;fill:#B4C5CE;}
	.st78{opacity:0.4;fill:#AEC1CA;}
	.st79{opacity:0.4286;fill:#A9BDC7;}
	.st80{opacity:0.4571;fill:#A3B8C3;}
	.st81{opacity:0.4857;fill:#9DB4BF;}
	.st82{opacity:0.5143;fill:#97AFBB;}
	.st83{opacity:0.5429;fill:#92ABB8;}
	.st84{opacity:0.5714;fill:#8CA6B4;}
	.st85{opacity:0.6;fill:#86A2B0;}
	.st86{fill:url(#SVGID_19_);}
	.st87{fill:url(#SVGID_20_);}
	.st88{fill:url(#SVGID_21_);}
	.st89{opacity:0.2;}
	.st90{opacity:9.523810e-02;fill:#F4F6F8;}
	.st91{opacity:0.1905;fill:#E9EDF1;}
	.st92{opacity:0.2381;fill:#E3E9ED;}
	.st93{opacity:0.2857;fill:#DEE5EA;}
	.st94{opacity:0.3333;fill:#D8E0E6;}
	.st95{opacity:0.381;fill:#D3DCE3;}
	.st96{opacity:0.4286;fill:#CDD8DF;}
	.st97{opacity:0.4762;fill:#C8D3DC;}
	.st98{opacity:0.5238;fill:#C2CFD8;}
	.st99{opacity:0.5714;fill:#BDCAD5;}
	.st100{opacity:0.619;fill:#B7C6D1;}
	.st101{opacity:0.6667;fill:#B2C2CE;}
	.st102{opacity:0.7143;fill:#ACBDCA;}
	.st103{opacity:0.7619;fill:#A7B9C7;}
	.st104{opacity:0.8095;fill:#A1B5C3;}
	.st105{opacity:0.8571;fill:#9CB0C0;}
	.st106{opacity:0.9048;fill:#96ACBC;}
	.st107{opacity:0.9524;fill:#91A7B9;}
	.st108{fill:#8BA3B5;}
	.st109{fill:#EEF7FA;}
	.st110{fill:#E4F1F5;}
	.st111{fill:#FFFFFF;}
	.st112{fill:#E9F2F5;}
	.st113{opacity:0.3;}
	.st114{fill:url(#SVGID_22_);}
	.st115{fill:url(#SVGID_23_);}
	.st116{fill:url(#SVGID_24_);}
	.st117{fill:url(#SVGID_25_);}
	.st118{fill:url(#SVGID_26_);}
	.st119{fill:url(#SVGID_27_);}
	.st120{fill:url(#SVGID_28_);}
	.st121{fill:url(#SVGID_29_);}
	.st122{fill:url(#SVGID_30_);}
	.st123{fill:url(#SVGID_31_);}
	.st124{fill:url(#SVGID_32_);}
	.st125{fill:url(#SVGID_33_);}
	.st126{fill:url(#SVGID_34_);}
	.st127{fill:url(#SVGID_35_);}
	.st128{fill:url(#SVGID_36_);}
	.st129{fill:url(#SVGID_37_);}
	.st130{fill:url(#SVGID_38_);}
	.st131{fill:url(#SVGID_39_);}
	.st132{opacity:5.000000e-02;}
	.st133{opacity:0;fill:#515151;}
	.st134{opacity:4.761905e-02;fill:#545556;}
	.st135{opacity:9.523810e-02;fill:#57595B;}
	.st136{opacity:0.1429;fill:#595D5F;}
	.st137{opacity:0.1905;fill:#5C6164;}
	.st138{opacity:0.2381;fill:#5F6569;}
	.st139{opacity:0.2857;fill:#62686E;}
	.st140{opacity:0.3333;fill:#646C72;}
	.st141{opacity:0.381;fill:#677077;}
	.st142{opacity:0.4286;fill:#6A747C;}
	.st143{opacity:0.4762;fill:#6D7881;}
	.st144{opacity:0.5238;fill:#6F7C85;}
	.st145{opacity:0.5714;fill:#72808A;}
	.st146{opacity:0.619;fill:#75848F;}
	.st147{opacity:0.6667;fill:#788894;}
	.st148{opacity:0.7143;fill:#7A8C98;}
	.st149{opacity:0.7619;fill:#7D8F9D;}
	.st150{opacity:0.8095;fill:#8093A2;}
	.st151{opacity:0.8571;fill:#8397A7;}
	.st152{opacity:0.9048;fill:#859BAB;}
	.st153{opacity:0.9524;fill:#889FB0;}
	.st154{fill:#008DD4;}
	.st155{fill:url(#SVGID_40_);}
	.st156{fill:#4FC5FF;}
	.st157{fill:url(#SVGID_41_);}
	.st158{fill:url(#SVGID_42_);}
	.st159{fill:#63CCFF;}
	.st160{fill:#007FC9;}
	.st161{fill:#6ED8FF;}
	.st162{fill:#008CDE;}
	.st163{fill:#B3EDFF;}
	.st164{fill:#61D7FF;}
	.st165{fill:url(#SVGID_43_);}
	.st166{fill:url(#SVGID_44_);}
	.st167{opacity:2.580645e-02;fill:#505051;}
	.st168{opacity:5.161290e-02;fill:#4E4F51;}
	.st169{opacity:7.741936e-02;fill:#4D4F50;}
	.st170{opacity:0.1032;fill:#4C4E50;}
	.st171{opacity:0.129;fill:#4B4D50;}
	.st172{opacity:0.1548;fill:#494C50;}
	.st173{opacity:0.1806;fill:#484B4F;}
	.st174{opacity:0.2065;fill:#474B4F;}
	.st175{opacity:0.2323;fill:#464A4F;}
	.st176{opacity:0.2581;fill:#44494F;}
	.st177{opacity:0.2839;fill:#43484F;}
	.st178{opacity:0.3097;fill:#42474E;}
	.st179{opacity:0.3355;fill:#41474E;}
	.st180{opacity:0.3613;fill:#3F464E;}
	.st181{opacity:0.3871;fill:#3E454E;}
	.st182{opacity:0.4129;fill:#3D444D;}
	.st183{opacity:0.4387;fill:#3C434D;}
	.st184{opacity:0.4645;fill:#3A424D;}
	.st185{opacity:0.4903;fill:#39424D;}
	.st186{opacity:0.5161;fill:#38414C;}
	.st187{opacity:0.5419;fill:#37404C;}
	.st188{opacity:0.5677;fill:#353F4C;}
	.st189{opacity:0.5935;fill:#343E4C;}
	.st190{opacity:0.6194;fill:#333E4C;}
	.st191{opacity:0.6452;fill:#323D4B;}
	.st192{opacity:0.671;fill:#303C4B;}
	.st193{opacity:0.6968;fill:#2F3B4B;}
	.st194{opacity:0.7226;fill:#2E3A4B;}
	.st195{opacity:0.7484;fill:#2D3A4A;}
	.st196{opacity:0.7742;fill:#2B394A;}
	.st197{opacity:0.8;fill:#2A384A;}
	.st198{fill:url(#SVGID_45_);}
	.st199{fill:url(#SVGID_46_);}
	.st200{fill:#91D5EB;}
	.st201{fill:#E1F0FA;}
	.st202{fill:#9DDEF2;}
	.st203{fill:#A2DEF2;}
	.st204{fill:#BEE9F7;}
	.st205{fill:#C8EEFA;}
	.st206{fill:url(#SVGID_47_);}
	.st207{opacity:0.3;fill:url(#SVGID_48_);}
	.st208{opacity:2.580645e-02;fill:#FBFCFC;}
	.st209{opacity:5.161290e-02;fill:#F7F9FA;}
	.st210{opacity:7.741936e-02;fill:#F3F6F7;}
	.st211{opacity:0.1032;fill:#EFF3F5;}
	.st212{opacity:0.129;fill:#EBF0F2;}
	.st213{opacity:0.1548;fill:#E8EDF0;}
	.st214{opacity:0.1806;fill:#E4EAED;}
	.st215{opacity:0.2065;fill:#E0E7EB;}
	.st216{opacity:0.2323;fill:#DCE4E8;}
	.st217{opacity:0.2581;fill:#D8E1E6;}
	.st218{opacity:0.2839;fill:#D4DEE3;}
	.st219{opacity:0.3097;fill:#D0DBE0;}
	.st220{opacity:0.3355;fill:#CCD8DE;}
	.st221{opacity:0.3613;fill:#C8D5DB;}
	.st222{opacity:0.3871;fill:#C4D2D9;}
	.st223{opacity:0.4129;fill:#C1CFD6;}
	.st224{opacity:0.4387;fill:#BDCCD4;}
	.st225{opacity:0.4645;fill:#B9C9D1;}
	.st226{opacity:0.4903;fill:#B5C6CF;}
	.st227{opacity:0.5161;fill:#B1C3CC;}
	.st228{opacity:0.5419;fill:#ADC0C9;}
	.st229{opacity:0.5677;fill:#A9BDC7;}
	.st230{opacity:0.5935;fill:#A5BAC4;}
	.st231{opacity:0.6194;fill:#A1B7C2;}
	.st232{opacity:0.6452;fill:#9DB4BF;}
	.st233{opacity:0.671;fill:#9AB1BD;}
	.st234{opacity:0.6968;fill:#96AEBA;}
	.st235{opacity:0.7226;fill:#92ABB8;}
	.st236{opacity:0.7484;fill:#8EA8B5;}
	.st237{opacity:0.7742;fill:#8AA5B3;}
	.st238{opacity:0.8;fill:#86A2B0;}
	.st239{fill:url(#SVGID_49_);}
	.st240{clip-path:url(#SVGID_51_);}
	.st241{fill:#0A4D80;}
	.st242{fill:url(#SVGID_52_);}
	.st243{clip-path:url(#SVGID_54_);}
</style>
<g>
	<g>
		<g class="st89">
			<path class="st2" d="M410.2,337.9c24.7-24.8,23.5-44.7,15.2-65.9c-6.2-16-9.1-26.7-19.4-41.4c-9.3-13.3-29-30.3-58.5-34.5
				c-28.6-4.1-96.3,42.5-119.6,48.7c-25.2,6.7-55.9,24.5-88.2,37.6c-16.5,6.7-40.9,27.8-41.4,39c-0.7,18.2,5.4,25.7,13.4,33
				c8.1,7.3,24.9,20,34.8,24.8c9.5,4.5,34.1,11.2,42.4,12.1c18.2,1.9,24.8-3.6,39.3-2.1c18.9,2,25.2,3.4,33.8,3.1
				c7.9-0.2,14.3-1.9,18.6-2.1c6.3-0.3,15.7,0.6,23.5-1c19.9-4.1,23.1-2.7,33.3-5.9C359.1,376.7,389.9,358.3,410.2,337.9z"/>
			<path class="st3" d="M408.7,337.7c24.1-23.7,23-43.4,14.7-64.1c-6.3-15.8-9.6-26.1-19.8-40.5c-9.2-13-27.9-29.9-57.4-34.8
				c-28.4-4.6-94.6,41.6-117.8,47.9c-25.2,6.8-54.9,24.6-86.6,37.5c-16.2,6.6-42.8,26.6-43,38.2c-0.3,17.7,5.9,24.7,14.1,31.9
				c8.2,7.3,24.6,19.9,34.6,24.4c9.9,4.4,33.3,10.1,41.9,10.9c18.1,1.9,24.8-2.7,39.3-1.3c18.9,1.9,24.9,3,33.5,2.8
				c7.7-0.2,14.1-1.6,18.8-1.7c6.8-0.2,16.1,0.2,23.7-1.4c19.5-4,22.6-2.4,33.2-5.7C359.2,374.9,388.7,357.3,408.7,337.7z"/>
			<path class="st90" d="M407.1,337.5c23.6-22.6,22.5-42.2,14.2-62.3c-6.4-15.5-10.1-25.4-20.2-39.5c-9.2-12.8-26.7-29.6-56.2-35.1
				c-28.2-5.3-92.9,40.8-116,47.1c-25.2,6.8-53.9,24.7-85,37.3c-16,6.5-44.7,25.3-44.6,37.4c0,17.1,6.5,23.7,14.7,30.8
				c8.4,7.2,24.4,19.8,34.3,23.9c10.3,4.3,32.5,9,41.3,9.8c18,1.8,24.7-1.9,39.3-0.5c19,1.8,24.6,2.6,33.2,2.4
				c7.6-0.1,13.8-1.2,18.9-1.4c7.2-0.2,16.4-0.3,24-1.8c19.1-3.9,22.2-2.1,33-5.6C359.4,373.1,387.5,356.3,407.1,337.5z"/>
			<path class="st5" d="M405.6,337.2c23-21.5,22-41,13.6-60.5c-6.5-15.2-10.6-24.8-20.5-38.5c-9.1-12.5-25.5-29.3-55.1-35.4
				c-28.1-5.8-91.1,39.9-114.2,46.2c-25.2,6.9-52.8,24.8-83.4,37.2c-15.7,6.3-46.5,24.1-46.3,36.5c0.4,16.5,7,22.7,15.3,29.7
				c8.5,7.1,24.2,19.6,34.1,23.4c10.7,4.1,31.7,7.8,40.8,8.7c17.9,1.7,24.7-1,39.2,0.3c19,1.7,24.3,2.2,32.9,2
				c7.4-0.1,13.5-0.9,19.1-1.1c7.7-0.2,16.8-0.7,24.3-2.2c18.6-3.7,21.7-1.8,32.9-5.5C359.5,371.4,386.3,355.3,405.6,337.2z"/>
			<path class="st91" d="M404.1,337c22.4-20.5,21.5-39.8,13.1-58.7c-6.6-14.9-11.1-24.2-20.9-37.6c-9-12.3-24.4-28.9-53.9-35.7
				c-27.9-6.4-89.4,39.1-112.4,45.4c-25.2,6.9-51.8,24.9-81.8,37.1c-15.4,6.2-48.4,22.8-47.9,35.7c0.6,15.9,7.5,21.7,15.9,28.6
				c8.6,7.1,24,19.5,33.9,23c11.1,3.9,30.9,6.7,40.3,7.6c17.8,1.6,24.6-0.1,39.2,1.1c19.1,1.6,24,1.7,32.6,1.7
				c7.3-0.1,13.2-0.6,19.2-0.7c8.2-0.2,17.1-1.1,24.5-2.5c18.2-3.6,21.3-1.6,32.8-5.4C359.6,369.6,385.1,354.4,404.1,337z"/>
			<path class="st92" d="M402.6,336.8c21.8-19.4,21-38.6,12.6-56.9c-6.7-14.6-11.6-23.6-21.3-36.6c-9-12-23.2-28.6-52.8-36.1
				c-27.7-7-87.7,38.2-110.7,44.6c-25.1,7-50.7,25.1-80.2,36.9c-15.2,6.1-50.3,21.6-49.5,34.8c0.9,15.3,8.1,20.7,16.5,27.4
				c8.8,7,23.8,19.3,33.6,22.5c11.5,3.8,30.1,5.6,39.8,6.5c17.8,1.5,24.6,0.8,39.2,2c19.1,1.6,23.6,1.4,32.4,1.3
				c7.1-0.1,13-0.3,19.4-0.4c8.7-0.1,17.4-1.5,24.8-2.9c17.7-3.4,20.8-1.3,32.6-5.2C359.8,367.8,383.9,353.4,402.6,336.8z"/>
			<path class="st93" d="M401,336.6c21.2-18.3,20.5-37.4,12-55.1c-6.8-14.3-12.1-23-21.6-35.7c-8.9-11.8-22-28.2-51.6-36.4
				c-27.6-7.6-86,37.3-108.9,43.7c-25.1,7-49.7,25.2-78.6,36.8c-14.9,6-52.1,20.3-51.1,34c1.1,14.7,8.6,19.7,17.1,26.3
				c8.9,6.9,23.6,19.1,33.4,22c12,3.6,29.3,4.5,39.2,5.3c17.7,1.5,24.5,1.7,39.2,2.8c19.2,1.5,23.3,1,32.1,1c7-0.1,12.7,0,19.5,0
				c9.2-0.1,17.8-1.9,25-3.3c17.3-3.3,20.4-1,32.5-5.1C359.9,366.1,382.7,352.4,401,336.6z"/>
			<path class="st94" d="M399.5,336.4c20.6-17.2,20-36.2,11.5-53.3c-6.9-14.1-12.6-22.4-22-34.7c-8.8-11.6-20.9-27.9-50.5-36.7
				c-27.4-8.2-84.3,36.5-107.1,42.9c-25.1,7.1-48.6,25.3-76.9,36.7c-14.6,5.9-54,19-52.8,33.2c1.3,14.2,9.2,18.7,17.8,25.2
				c9,6.8,23.5,18.9,33.2,21.6c12.4,3.4,28.5,3.4,38.7,4.2c17.6,1.4,24.5,2.5,39.2,3.6c19.2,1.4,23,0.5,31.8,0.6
				c6.8,0.1,12.4,0.3,19.7,0.3c9.7-0.1,18.1-2.3,25.3-3.6c16.9-3.1,19.9-0.7,32.4-5C360,364.3,381.5,351.4,399.5,336.4z"/>
			<path class="st95" d="M398,336.1c20-16.1,19.5-34.9,11-51.5c-7.1-13.8-13.1-21.8-22.3-33.8c-8.7-11.3-19.7-27.5-49.3-37
				c-27.2-8.7-82.5,35.6-105.3,42.1c-25.1,7.1-47.6,25.4-75.3,36.6c-14.3,5.8-56,17.8-54.4,32.3c1.5,13.6,9.7,17.7,18.4,24.1
				c9.2,6.8,23.3,18.7,32.9,21.1c12.8,3.2,27.7,2.3,38.2,3.1c17.5,1.3,24.4,3.4,39.2,4.4c19.3,1.3,22.7,0.1,31.5,0.2
				c6.7,0.1,12.1,0.6,19.8,0.6c10.2,0,18.4-2.7,25.6-4c16.4-3,19.5-0.5,32.2-4.9C360.2,362.6,380.2,350.4,398,336.1z"/>
			<path class="st96" d="M396.4,335.9c19.4-15.1,19-33.7,10.4-49.7c-7.2-13.5-13.6-21.2-22.7-32.8c-8.7-11.1-18.5-27.2-48.2-37.3
				c-27-9.3-80.8,34.8-103.5,41.2c-25.1,7.2-46.5,25.5-73.7,36.4c-14.1,5.7-57.9,16.5-56,31.5c1.6,13,10.3,16.7,19,23
				c9.3,6.7,23.1,18.5,32.7,20.6c13.3,3,27,1.2,37.6,2c17.4,1.2,24.4,4.3,39.1,5.2c19.3,1.2,22.4-0.3,31.2-0.1c6.5,0.1,11.8,1,20,1
				c10.7,0,18.8-3.1,25.8-4.4c16-2.8,19-0.2,32.1-4.7C360.3,360.8,379,349.4,396.4,335.9z"/>
			<path class="st97" d="M394.9,335.7c18.8-14,18.4-32.5,9.9-47.9c-7.3-13.2-14.1-20.5-23.1-31.8c-8.6-10.8-17.4-26.8-47-37.6
				c-26.9-9.8-79.1,33.9-101.7,40.4c-25.1,7.2-45.5,25.6-72.1,36.3c-13.8,5.5-59.8,15.2-57.6,30.7c1.8,12.4,10.8,15.7,19.6,21.9
				c9.4,6.6,23,18.3,32.4,20.2c13.7,2.8,26.2,0.1,37.1,0.9c17.3,1.2,24.3,5.2,39.1,6c19.4,1.1,22.1-0.7,30.9-0.5
				c6.4,0.2,11.6,1.3,20.1,1.3c11.2,0,19.1-3.5,26.1-4.7c15.5-2.7,18.6,0.1,32-4.6C360.5,359.1,377.8,348.5,394.9,335.7z"/>
			<path class="st98" d="M393.4,335.5c18.2-13,17.9-31.3,9.4-46.1c-7.4-12.9-14.5-19.9-23.4-30.9c-8.5-10.6-16.2-26.4-45.9-38
				c-26.7-10.4-77.4,33-99.9,39.5c-25.1,7.3-44.4,25.7-70.5,36.2c-13.5,5.4-61.8,14-59.3,29.8c1.9,11.8,11.4,14.7,20.2,20.7
				c9.6,6.5,22.8,18,32.2,19.7c14.2,2.5,25.4-1,36.6-0.2c17.2,1.1,24.3,6,39.1,6.8c19.4,1,21.8-1.1,30.6-0.9
				c6.2,0.2,11.3,1.6,20.3,1.6c11.6,0,19.4-3.9,26.4-5.1c15.1-2.6,18.1,0.4,31.8-4.5C360.6,357.3,376.5,347.5,393.4,335.5z"/>
			<path class="st99" d="M391.8,335.3c17.6-11.9,17.4-30,8.9-44.3c-7.6-12.6-15-19.3-23.8-29.9c-8.5-10.3-15-26.1-44.7-38.3
				c-26.6-11-75.7,32.2-98.1,38.7c-25.1,7.3-43.4,25.8-68.9,36c-13.2,5.3-63.7,12.7-60.9,29c2,11.2,11.9,13.7,20.8,19.6
				c9.7,6.5,22.6,17.8,32,19.2c14.6,2.3,24.6-2.1,36.1-1.4c17.1,1.1,24.2,6.9,39.1,7.6c19.5,0.9,21.5-1.5,30.4-1.2
				c6.1,0.2,11,1.9,20.4,2c12.1,0.1,19.8-4.4,26.6-5.5c14.6-2.4,17.7,0.7,31.7-4.4C360.7,355.6,375.3,346.5,391.8,335.3z"/>
			<path class="st100" d="M390.3,335.1c17-10.9,16.8-28.8,8.3-42.5c-7.7-12.3-15.5-18.7-24.1-29c-8.4-10.1-13.9-25.7-43.6-38.6
				c-26.4-11.5-74,31.3-96.3,37.9c-25.1,7.4-42.3,25.9-67.3,35.9c-13,5.2-65.7,11.4-62.5,28.1c2.1,10.6,12.5,12.7,21.4,18.5
				c9.8,6.4,22.5,17.5,31.7,18.8c15.1,2,23.8-3.2,35.5-2.5c17,1,24.2,7.8,39.1,8.4c19.6,0.8,21.2-2,30.1-1.6
				c5.9,0.3,10.7,2.2,20.6,2.3c12.6,0.1,20.1-4.8,26.9-5.9c14.2-2.3,17.2,1,31.6-4.2C360.9,353.8,374,345.5,390.3,335.1z"/>
			<path class="st101" d="M388.8,334.8c16.3-9.8,16.3-27.6,7.8-40.6c-7.8-12-16-18.1-24.5-28c-8.3-9.8-12.7-25.3-42.4-38.9
				c-26.2-12-72.2,30.5-94.5,37c-25.1,7.4-41.3,26-65.6,35.8c-12.7,5.1-67.8,10.2-64.1,27.3c2.1,10,13,11.7,22.1,17.4
				c10,6.3,22.3,17.3,31.5,18.3c15.5,1.7,23-4.3,35-3.6c17,0.9,24.1,8.7,39,9.2c19.6,0.7,20.9-2.4,29.8-1.9
				c5.8,0.3,10.5,2.5,20.7,2.7c13.1,0.1,20.4-5.2,27.2-6.2c13.7-2.1,16.8,1.3,31.4-4.1C361,352.1,372.8,344.5,388.8,334.8z"/>
			<path class="st102" d="M387.2,334.6c15.7-8.8,15.7-26.4,7.3-38.8c-8-11.7-16.5-17.5-24.9-27.1c-8.3-9.6-11.6-24.9-41.3-39.2
				c-26.1-12.6-70.5,29.6-92.7,36.2c-25.1,7.4-40.2,26.1-64,35.7c-12.4,5-69.8,8.9-65.8,26.5c2.2,9.5,13.6,10.7,22.7,16.3
				c10.1,6.2,22.1,17,31.3,17.8c16,1.4,22.2-5.4,34.5-4.7c16.9,0.9,24.1,9.6,39,10c19.7,0.6,20.6-2.8,29.5-2.3
				c5.6,0.3,10.2,2.9,20.9,3c13.6,0.1,20.8-5.6,27.4-6.6c13.3-2,16.4,1.6,31.3-4C361.2,350.3,371.5,343.4,387.2,334.6z"/>
			<path class="st103" d="M385.7,334.4c15-7.8,15.2-25.1,6.7-37c-8.1-11.4-17-16.8-25.2-26.1c-8.2-9.3-10.4-24.5-40.1-39.6
				c-25.9-13.1-68.8,28.7-90.9,35.4c-25.1,7.5-39.2,26.2-62.4,35.5c-12.1,4.9-71.9,7.7-67.4,25.6c2.2,8.9,14.1,9.7,23.3,15.2
				c10.3,6.2,22,16.8,31,17.4c16.4,1.1,21.4-6.5,34-5.8c16.8,0.8,24,10.4,39,10.8c19.7,0.5,20.3-3.2,29.2-2.7
				c5.5,0.4,9.9,3.2,21.1,3.3c14.1,0.2,21.1-6,27.7-7c12.9-1.9,15.9,1.9,31.2-3.9C361.3,348.6,370.3,342.4,385.7,334.4z"/>
			<path class="st104" d="M384.2,334.2c14.4-6.8,14.6-23.9,6.2-35.2c-8.3-11.1-17.6-16.2-25.6-25.2c-8.2-9-9.3-24.1-39-39.9
				c-25.8-13.7-67.1,27.9-89.1,34.5c-25,7.5-38.1,26.3-60.8,35.4c-11.9,4.7-74,6.5-69,24.8c2.3,8.3,14.7,8.6,23.9,14
				c10.4,6.1,21.8,16.5,30.8,16.9c16.9,0.8,20.6-7.6,33.4-7c16.7,0.8,24,11.3,39,11.6c19.8,0.4,20-3.6,28.9-3
				c5.3,0.4,9.6,3.5,21.2,3.7c14.6,0.2,21.5-6.4,28-7.3c12.4-1.7,15.5,2.2,31-3.7C361.5,346.9,369,341.3,384.2,334.2z"/>
			<path class="st105" d="M382.7,334c13.7-5.8,14.1-22.6,5.7-33.4c-8.4-10.8-18.1-15.6-25.9-24.2c-8.1-8.8-8.1-23.7-37.8-40.2
				c-25.6-14.2-65.4,27-87.3,33.7c-25,7.6-37.1,26.4-59.2,35.3c-11.6,4.6-76.2,5.3-70.6,23.9c2.3,7.8,15.3,7.6,24.5,12.9
				c10.5,6,21.6,16.2,30.5,16.4c17.3,0.5,19.8-8.6,32.9-8.1c16.6,0.7,23.9,12.2,39,12.4c19.8,0.3,19.7-4.1,28.7-3.4
				c5.2,0.4,9.4,3.8,21.4,4c15.1,0.2,21.8-6.8,28.2-7.7c12-1.6,15,2.4,30.9-3.6C361.6,345.1,367.7,340.3,382.7,334z"/>
			<path class="st106" d="M381.1,333.7c13.1-4.8,13.5-21.4,5.1-31.6c-8.6-10.5-18.6-15-26.3-23.2c-8-8.5-7-23.3-36.7-40.5
				c-25.5-14.7-63.7,26.2-85.5,32.8c-25,7.6-36.1,26.6-57.6,35.2c-11.3,4.5-78.4,4.1-72.3,23.1c2.3,7.2,15.8,6.6,25.1,11.8
				c10.7,5.9,21.5,16.2,30.3,16c17.7-0.4,19-9.7,32.4-9.2c16.5,0.7,23.9,13.1,38.9,13.2c19.9,0.2,19.4-4.5,28.4-3.7
				c5,0.4,9.1,4.1,21.5,4.3c15.6,0.3,22.1-7.3,28.5-8.1c11.5-1.5,14.6,2.8,30.8-3.5C361.8,343.4,366.4,339.2,381.1,333.7z"/>
			<path class="st107" d="M379.6,333.5c12.4-3.9,12.9-20.1,4.6-29.8c-8.8-10.2-19.1-14.4-26.7-22.3c-7.9-8.3-5.9-22.9-35.5-40.8
				c-25.3-15.2-61.9,25.3-83.7,32c-25,7.7-35,26.7-56,35c-11,4.4-80.7,3-73.9,22.3c2.4,6.7,16.4,5.6,25.8,10.7
				c10.8,5.8,21.3,15.6,30.1,15.5c18.2-0.3,18.2-10.8,31.8-10.3c16.4,0.6,23.8,14,38.9,14c19.9,0.1,19.1-4.9,28.1-4.1
				c4.9,0.5,8.8,4.4,21.7,4.7c16.1,0.3,22.5-7.7,28.8-8.5c11.1-1.4,14.2,3.1,30.6-3.4C361.9,341.7,365.2,338.1,379.6,333.5z"/>
			<path class="st108" d="M378.1,333.3c11.7-3,12.4-18.8,4.1-28c-8.9-9.8-19.6-13.7-27-21.3c-7.9-8-4.7-22.5-34.4-41.2
				c-25.2-15.8-60.2,24.5-81.9,31.2c-25,7.7-34,26.8-54.3,34.9c-10.8,4.3-83.1,1.9-75.5,21.4c2.4,6.1,16.9,4.6,26.4,9.6
				c11,5.8,21.1,15.3,29.8,15c18.6-0.6,17.4-11.9,31.3-11.4c16.3,0.5,23.8,14.8,38.9,14.8c20,0,18.8-5.4,27.8-4.5
				c4.7,0.5,8.5,4.8,21.8,5c16.5,0.3,22.8-8.1,29-8.8c10.6-1.2,13.7,3.4,30.5-3.2C362.1,339.9,363.9,336.9,378.1,333.3z"/>
		</g>
		<path class="st109" d="M370.5,293.5c-2.6-9-8-16.9-15.3-22.5c1.9-5,3-10.3,3.2-15.8c1.2-28.4-20.8-52.3-49.1-53.5
			c-21.7-0.9-40.8,11.7-49.1,30.4c-1.5-0.2-3-0.3-4.5-0.4c-17.9-0.8-34.1,7.6-44.1,20.9c-2.8-1.1-5.9-1.8-9.1-1.9
			c-15.4-0.7-28.4,11.3-29.1,26.7c-0.1,2.5,0.2,5,0.7,7.4c-5.6,0.9-10.5,4.3-13.3,9c-4.7-6.3-12-10.5-20.5-10.9
			c-11.7-0.5-21.9,6.5-26.1,16.8c-0.5-0.1-1-0.1-1.6-0.1c-10.7-0.4-19.7,7.8-20.1,18.5c-0.5,10.7,7.8,19.7,18.5,20.1
			c5.5,0.2,10.5-1.9,14.2-5.4c3.7,2.3,8,3.7,12.7,3.9c4.2,9.3,13.3,16,24.2,16.4c11.3,0.5,21.3-5.8,26.1-15.3
			c3.2,1.5,6.7,2.4,10.4,2.5c1.2,0,2.3,0,3.5-0.1c6.5,8.7,16.8,14.6,28.6,15.1c11.5,0.5,22-4.2,29.2-12c4.5,8.6,13.2,14.6,23.6,15
			c11,0.5,20.7-5.5,25.7-14.5c5.4,2.8,11.5,4.5,18,4.8c14.2,0.6,27-5.7,35.3-15.8c2,0.7,4,1.2,6.2,1.3c11.2,0.5,20.6-8.2,21.1-19.4
			C390.3,303.5,381.6,294.1,370.5,293.5z"/>
		<path class="st110" d="M371.3,294.3c-2.6-9-8-16.9-15.3-22.5c1.9-5,3-10.3,3.2-15.8c1.2-28.4-20.8-52.3-49.1-53.5
			c-21.7-0.9-40.8,11.7-49.1,30.4c-1.5-0.2-3-0.3-4.5-0.4c-17.9-0.8-34.1,7.6-44.1,20.9c-2.8-1.1-5.9-1.8-9.1-1.9
			c-15.4-0.7-28.4,11.3-29.1,26.7c-0.1,2.6,0.2,5,0.7,7.4c-5.6,0.9-10.4,4.3-13.3,9c-4.7-6.3-12-10.5-20.5-10.9
			c-11.7-0.5-21.9,6.5-26.1,16.8c-0.5-0.1-1-0.1-1.6-0.1c-10.7-0.5-19.7,7.8-20.1,18.5c-0.5,10.7,7.8,19.7,18.5,20.1
			c5.5,0.2,10.5-1.9,14.2-5.4c3.7,2.3,8,3.7,12.7,3.9c4.2,9.3,13.4,16,24.3,16.4c11.3,0.5,21.3-5.8,26.1-15.3
			c3.2,1.5,6.7,2.4,10.4,2.5c1.2,0.1,2.3,0,3.5-0.1c6.5,8.8,16.8,14.6,28.6,15.1c11.5,0.5,22-4.2,29.2-12c4.5,8.5,13.2,14.6,23.5,15
			c11,0.5,20.7-5.5,25.7-14.5c5.4,2.8,11.5,4.5,18,4.8c14.1,0.6,27-5.7,35.3-15.8c2,0.7,4,1.2,6.2,1.3c11.2,0.5,20.6-8.2,21.1-19.4
			C391.1,304.3,382.4,294.9,371.3,294.3z"/>
	</g>
	<g>
		<g class="st1">
			<path class="st2" d="M362.8,328.2c18.4-32.1-0.4-76-9.2-98.9c-6.7-17.2-28.8-40.8-46.2-49.4c-17.4-8.7-23.9-17.9-47.6-20.2
				c-30.9-3.1-71.8,20.5-96.9,27.2c-27.1,7.2-73.5,29.4-98.8,57.1c-29.5,32.4-30.2,58.1-22.3,76.9c8.5,20.1,22.6,31.2,31.3,39
				c8.7,7.9,18.3,14.8,29.1,20c20.5,9.9,38.3,9.4,53.6,10.4c11.6,0.8,41.6,3.2,71.8-3.1c21.4-4.5,40.8-7.7,51.9-11.1
				C303,368.9,347.5,355,362.8,328.2z"/>
			<path class="st3" d="M359.5,326.8c18.4-31.1,0.6-73.5-8.2-95.7c-6.7-16.9-27.9-39.3-45.1-47.8c-17-8.5-22.6-19.5-46.5-22.4
				c-30.5-3.8-71.6,21-96.5,27.7c-26.9,7.2-72.9,28.9-97.2,55.6c-28.5,31.2-30.7,56.8-22.5,75.8c8.5,19.6,22.6,29.8,31.6,37.5
				c8.9,7.5,18.6,14.1,29.3,19c20.7,9.5,37.9,8.1,52.8,9.3c11.5,0.9,40.8,3.8,71-2.4c21.6-4.4,40-7.9,50.7-11
				C301.5,365.5,344.3,352.6,359.5,326.8z"/>
			<path class="st90" d="M356.2,325.3c18.3-30.2,1.6-71.1-7.2-92.5c-6.8-16.5-27-37.8-44-46.2c-16.6-8.2-21.3-21.1-45.4-24.6
				c-30.1-4.5-71.4,21.5-96,28.1c-26.7,7.2-72.2,28.4-95.7,54c-27.5,30-31.3,55.6-22.7,74.7c8.5,19.1,22.6,28.5,31.9,35.9
				c9,7.2,18.8,13.5,29.5,18.1c20.8,9.1,37.5,6.8,51.9,8.1c11.3,1,39.9,4.3,70.2-1.8c21.7-4.4,39.2-8,49.6-10.9
				C300.1,362.2,341.1,350.2,356.2,325.3z"/>
			<path class="st5" d="M352.8,323.9c18.2-29.2,2.6-68.6-6.2-89.4c-6.8-16.1-26.2-36.3-43-44.6c-16.2-8-20-22.7-44.3-26.9
				c-29.7-5.1-71.2,22-95.6,28.6c-26.5,7.2-71.6,27.9-94.2,52.5c-26.4,28.8-31.8,54.3-23,73.6c8.5,18.5,22.6,27.2,32.2,34.4
				c9.1,6.8,19.1,12.8,29.7,17.1c20.9,8.7,37.1,5.6,51,7c11.2,1.1,39.1,4.9,69.3-1.2c21.8-4.4,38.4-8.2,48.5-10.7
				C298.6,358.8,337.9,347.8,352.8,323.9z"/>
			<path class="st91" d="M349.5,322.4c18.2-28.2,3.5-66.2-5.2-86.2c-6.9-15.7-25.3-34.9-41.9-43c-15.9-7.8-18.7-24.2-43.2-29.1
				c-29.3-5.8-71,22.5-95.2,29.1c-26.3,7.2-70.9,27.4-92.7,51c-25.4,27.6-32.4,53-23.2,72.5c8.5,18,22.6,25.8,32.5,32.8
				c9.3,6.5,19.4,12.1,29.9,16.2c21.1,8.3,36.7,4.4,50.2,5.8c11,1.2,38.2,5.4,68.5-0.6c22-4.3,37.6-8.3,47.4-10.6
				C297.1,355.4,334.7,345.4,349.5,322.4z"/>
			<path class="st92" d="M346.2,321c18.1-27.2,4.5-63.7-4.3-83.1c-6.9-15.4-24.4-33.4-40.9-41.4c-15.5-7.6-17.4-25.8-42.1-31.3
				c-29-6.4-70.9,23-94.8,29.5c-26.2,7.2-70.3,26.9-91.1,49.5c-24.4,26.4-32.9,51.8-23.4,71.3c8.5,17.5,22.6,24.5,32.9,31.2
				c9.4,6.1,19.6,11.4,30.1,15.2c21.2,7.8,36.3,3.1,49.3,4.7c10.8,1.3,37.4,5.9,67.6,0.1c22.1-4.3,36.8-8.5,46.3-10.5
				C295.7,352.1,331.5,342.9,346.2,321z"/>
			<path class="st93" d="M342.9,319.5c18.1-26.3,5.4-61.2-3.3-79.9c-7-15-23.5-31.9-39.8-39.8c-15.1-7.3-16.1-27.4-41-33.5
				c-28.6-7-70.7,23.4-94.3,30c-26,7.2-69.7,26.4-89.6,47.9c-23.3,25.2-33.5,50.5-23.7,70.2c8.5,17,22.5,23.2,33.2,29.7
				c9.5,5.8,19.9,10.7,30.3,14.3c21.4,7.4,35.9,1.9,48.4,3.5c10.7,1.4,36.5,6.5,66.8,0.7c22.3-4.3,36-8.6,45.1-10.3
				C294.2,348.7,328.4,340.5,342.9,319.5z"/>
			<path class="st94" d="M339.5,318.1c18.1-25.3,6.4-58.8-2.3-76.8c-7-14.6-22.6-30.4-38.7-38.2c-14.8-7.1-14.8-28.9-39.9-35.7
				c-28.2-7.6-70.5,23.9-93.9,30.5c-25.8,7.2-69,25.9-88.1,46.4c-22.3,24-34.1,49.3-23.9,69.1c8.4,16.5,22.5,21.9,33.5,28.1
				c9.6,5.5,20.2,10,30.5,13.3c21.5,7,35.5,0.6,47.6,2.4c10.5,1.5,35.7,7,65.9,1.3c22.4-4.2,35.2-8.8,44-10.2
				C292.8,345.3,325.2,338.1,339.5,318.1z"/>
			<path class="st95" d="M336.2,316.6c18.1-24.3,7.4-56.3-1.3-73.6c-7.1-14.2-21.7-28.9-37.7-36.6c-14.4-6.9-13.5-30.4-38.8-37.9
				c-27.8-8.2-70.3,24.4-93.5,31c-25.6,7.2-68.4,25.4-86.6,44.9c-21.3,22.8-34.6,48-24.2,68c8.4,16,22.5,20.6,33.8,26.6
				c9.7,5.1,20.4,9.3,30.7,12.4c21.7,6.6,35.1-0.6,46.7,1.3c10.4,1.6,34.8,7.6,65.1,1.9c22.5-4.2,34.4-8.9,42.9-10.1
				C291.3,341.9,322,335.7,336.2,316.6z"/>
			<path class="st96" d="M332.9,315.2c18-23.3,8.3-53.9-0.3-70.5c-7.2-13.9-20.8-27.5-36.6-35c-14-6.7-12.2-32-37.7-40.1
				c-27.4-8.7-70.1,24.9-93,31.4c-25.4,7.2-67.7,24.9-85,43.4C60,266,45,291.1,55.9,311.2c8.3,15.5,22.4,19.3,34.1,25
				c9.8,4.8,20.7,8.6,30.9,11.5c21.8,6.2,34.7-1.8,45.8,0.1c10.2,1.8,34,8.1,64.2,2.5c22.7-4.1,33.6-9.1,41.8-9.9
				C289.9,338.6,318.9,333.3,332.9,315.2z"/>
			<path class="st97" d="M329.6,313.7c18-22.3,9.2-51.4,0.7-67.3c-7.2-13.5-19.9-26-35.5-33.4c-13.7-6.5-10.9-33.5-36.6-42.3
				c-27.1-9.3-69.9,25.4-92.6,31.9c-25.2,7.2-67.1,24.4-83.5,41.8c-19.2,20.4-35.8,45.5-24.6,65.7c8.3,15,22.4,18,34.4,23.4
				c9.9,4.5,21,7.9,31.1,10.5c22,5.7,34.3-3,45-1c10.1,1.9,33.1,8.7,63.4,3.2c22.8-4.1,32.8-9.2,40.7-9.8
				C288.4,335.2,315.7,330.9,329.6,313.7z"/>
			<path class="st98" d="M326.2,312.3c18-21.3,10.2-48.9,1.7-64.2c-7.3-13.1-19-24.5-34.5-31.8c-13.3-6.2-9.6-35-35.5-44.5
				c-26.7-9.8-69.7,25.9-92.2,32.4c-25,7.2-66.4,23.9-82,40.3c-18.2,19.2-36.4,44.3-24.9,64.6c8.2,14.5,22.3,16.7,34.7,21.9
				c10,4.2,21.3,7.2,31.3,9.6c22.1,5.3,33.9-4.2,44.1-2.2c9.9,2,32.3,9.2,62.6,3.8c22.9-4.1,32-9.4,39.6-9.7
				C286.9,331.8,312.6,328.5,326.2,312.3z"/>
			<path class="st99" d="M322.9,310.8c18-20.3,11.1-46.5,2.7-61c-7.4-12.7-18.1-23.1-33.4-30.2c-12.9-6-8.3-36.4-34.4-46.7
				c-26.3-10.3-69.5,26.4-91.7,32.8c-24.9,7.2-65.8,23.3-80.5,38.8c-17.2,18-37,43-25.1,63.5c8.1,14,22.3,15.4,35,20.3
				c10.1,3.9,21.5,6.4,31.5,8.6c22.3,4.8,33.5-5.5,43.2-3.3c9.7,2.1,31.5,9.7,61.7,4.4c23.1-4,31.3-9.5,38.4-9.5
				C285.5,328.4,309.4,326.1,322.9,310.8z"/>
			<path class="st100" d="M319.6,309.4c18-19.3,12.1-44,3.7-57.8c-7.5-12.3-17.2-21.6-32.4-28.6c-12.5-5.8-7-37.9-33.3-48.9
				c-26-10.9-69.3,26.9-91.3,33.3c-24.7,7.2-65.2,22.8-78.9,37.2c-16.1,16.9-37.6,41.8-25.3,62.4c8.1,13.5,22.2,14.1,35.3,18.8
				c10.2,3.6,21.8,5.7,31.7,7.7c22.5,4.4,33.1-6.7,42.4-4.5c9.6,2.3,30.6,10.3,60.9,5c23.2-4,30.5-9.7,37.3-9.4
				C284,325.1,306.3,323.6,319.6,309.4z"/>
			<path class="st101" d="M316.3,307.9c18.1-18.3,13-41.5,4.7-54.7c-7.5-11.9-16.3-20.1-31.3-27c-12.2-5.6-5.7-39.4-32.2-51.1
				c-25.6-11.4-69.1,27.4-90.9,33.8c-24.5,7.2-64.5,22.3-77.4,35.7c-15.1,15.7-38.2,40.5-25.6,61.2c8,13,22.2,12.9,35.6,17.2
				c10.3,3.3,22.1,5,31.9,6.7c22.6,3.9,32.7-7.9,41.5-5.6c9.4,2.4,29.8,10.8,60,5.6c23.4-3.9,29.7-9.8,36.2-9.3
				C282.6,321.7,303.1,321.3,316.3,307.9z"/>
			<path class="st102" d="M312.9,306.5c18.1-17.3,13.9-39.1,5.7-51.5c-7.6-11.6-15.4-18.7-30.2-25.4c-11.8-5.4-4.4-40.8-31.1-53.3
				c-25.3-11.9-68.9,27.9-90.5,34.2c-24.3,7.2-63.9,21.8-75.9,34.2c-14.1,14.5-38.9,39.3-25.8,60.1c7.9,12.6,22.1,11.6,36,15.6
				c10.4,3,22.4,4.3,32.1,5.8c22.8,3.5,32.3-9,40.6-6.7c9.3,2.5,28.9,11.4,59.2,6.3c23.5-3.9,28.9-10,35.1-9.1
				C281.1,318.4,300,318.9,312.9,306.5z"/>
			<path class="st103" d="M309.6,305c18.1-16.3,14.8-36.6,6.7-48.4c-7.7-11.2-14.5-17.2-29.2-23.8c-11.4-5.2-3.2-42.2-30-55.5
				c-24.9-12.3-68.7,28.4-90,34.7c-24.1,7.2-63.2,21.3-74.4,32.7c-13,13.3-39.5,38.1-26,59c7.8,12.1,22,10.4,36.3,14.1
				c10.5,2.7,22.6,3.6,32.3,4.8c23,3,31.9-10.2,39.8-7.9c9.1,2.7,28.1,11.9,58.3,6.9c23.6-3.9,28.1-10.1,34-9
				C279.6,315,296.9,316.5,309.6,305z"/>
			<path class="st104" d="M306.3,303.6c18.2-15.3,15.7-34.1,7.6-45.2c-7.8-10.8-13.7-15.7-28.1-22.2c-11.1-5-1.9-43.7-28.9-57.7
				c-24.6-12.8-68.5,28.9-89.6,35.2c-23.9,7.2-62.6,20.8-72.8,31.1c-12,12.1-40.2,36.9-26.3,57.9c7.7,11.6,22,9.1,36.6,12.5
				c10.6,2.5,22.9,2.8,32.5,3.9c23.1,2.5,31.5-11.4,38.9-9c8.9,2.9,27.2,12.4,57.5,7.5c23.8-3.8,27.3-10.3,32.8-8.9
				C278.2,311.6,293.7,314.1,306.3,303.6z"/>
			<path class="st105" d="M303,302.1c18.2-14.2,16.6-31.6,8.6-42.1c-7.9-10.4-12.8-14.3-27-20.6c-10.7-4.7-0.6-45.1-27.8-59.9
				c-24.3-13.3-68.3,29.4-89.2,35.6c-23.8,7.2-61.9,20.3-71.3,29.6c-11,10.9-40.9,35.7-26.5,56.8c7.6,11.2,21.9,7.9,36.9,11
				c10.7,2.2,23.2,2.1,32.8,2.9c23.3,2,31-12.6,38-10.2c8.8,3,26.4,13,56.6,8.1c23.9-3.8,26.5-10.5,31.7-8.7
				C276.7,308.2,290.6,311.7,303,302.1z"/>
			<path class="st106" d="M299.6,300.7c18.3-13.1,17.5-29.1,9.6-38.9c-8-10-11.8-12.8-26-19c-10.3-4.5,0.6-46.5-26.7-62.1
				c-24-13.8-68.2,29.9-88.7,36.1c-23.6,7.2-61.3,19.8-69.8,28.1c-9.9,9.7-41.6,34.5-26.8,55.6c7.5,10.7,21.9,6.7,37.2,9.4
				c10.8,1.9,23.5,1.4,33,2c23.4,1.5,30.6-13.8,37.2-11.3c8.6,3.2,25.5,13.5,55.8,8.8c24-3.8,25.7-10.6,30.6-8.6
				C275.3,304.8,287.5,309.4,299.6,300.7z"/>
			<path class="st107" d="M296.3,299.2c18.3-12,18.4-26.6,10.6-35.8c-8.1-9.5-11-11.3-24.9-17.4c-9.9-4.3,1.8-47.9-25.6-64.3
				c-23.7-14.2-68,30.3-88.3,36.6c-23.4,7.2-60.7,19.3-68.3,26.6c-8.9,8.5-42.3,33.4-27,54.5c7.4,10.2,21.8,5.5,37.5,7.8
				c10.9,1.7,23.7,0.6,33.2,1c23.6,1,30.2-14.9,36.3-12.5c8.4,3.4,24.7,14.1,55,9.4c24.2-3.7,24.9-10.8,29.5-8.5
				C273.8,301.4,284.4,307,296.3,299.2z"/>
			<path class="st108" d="M293,297.8c18.4-10.9,19.3-24.1,11.6-32.6c-8.3-9.1-10.1-9.9-23.9-15.8c-9.6-4.1,3-49.3-24.5-66.5
				c-23.4-14.7-67.8,30.8-87.9,37.1c-23.2,7.2-60,18.8-66.7,25c-7.9,7.3-43,32.2-27.2,53.4c7.3,9.8,21.8,4.2,37.8,6.3
				c11,1.4,24-0.1,33.4,0.1c23.8,0.5,29.8-16.1,35.4-13.6c8.2,3.6,23.8,14.6,54.1,10c24.3-3.7,24.1-10.9,28.4-8.3
				C272.3,298.1,281.3,304.7,293,297.8z"/>
		</g>
		<path class="st111" d="M293.9,248.9c1.8-6.6,2.8-13.5,2.8-20.7c0-42.7-34.6-77.2-77.2-77.2c-36.1,0-66.4,24.8-74.9,58.3
			c-0.8,0-1.6-0.1-2.3-0.1c-16.9,0-31.7,8.7-40.3,21.9c-4.4-1.8-9.2-2.8-14.3-2.8c-20.7,0-37.4,16.8-37.4,37.4
			c0,20.7,16.8,37.4,37.4,37.4c9.1,0,17.4-3.3,23.9-8.7c8.3,6.9,19,11.1,30.7,11.1c13,0,24.8-5.2,33.5-13.6
			c12.5,8.6,27.5,13.6,43.7,13.6c14.8,0,28.7-4.2,40.5-11.5c5.3,6.7,13.5,11,22.8,11c16.1,0,29.2-13.1,29.2-29.2
			C311.9,263.7,304.4,253.3,293.9,248.9z"/>
		<path class="st110" d="M295,250.1c1.8-6.6,2.8-13.5,2.8-20.7c0-42.7-34.6-77.2-77.2-77.2c-36.1,0-66.4,24.8-74.9,58.3
			c-0.8,0-1.6-0.1-2.4-0.1c-16.9,0-31.7,8.7-40.3,21.9c-4.4-1.8-9.2-2.8-14.3-2.8c-20.7,0-37.4,16.8-37.4,37.4
			c0,20.7,16.8,37.4,37.4,37.4c9.1,0,17.4-3.3,23.9-8.7c8.3,6.9,19,11.1,30.7,11.1c13,0,24.8-5.2,33.5-13.6
			c12.4,8.6,27.5,13.6,43.7,13.6c14.8,0,28.7-4.2,40.5-11.4c5.3,6.7,13.5,11,22.8,11c16.1,0,29.2-13.1,29.2-29.2
			C313,264.8,305.6,254.4,295,250.1z"/>
	</g>
	<g>
		<g class="st1">
			<path class="st2" d="M461.9,324.6c18.3-15.5,15-63.4,5.7-76.2c-12.3-16.9-25.3-27.1-36.5-32.7c-11.2-5.6-42.8-10.5-57.2-10.5
				c-20.1,0-39.8,4.9-56,9.2c-17.5,4.7-51.9,17.3-68.2,35.2c-19.1,20.9-2.3,62.6,2.6,68.7c9.1,11.4,20.2,22.8,34,29.4
				c13.3,6.4,24.8,6,34.7,6.7c7.5,0.5,40.9,4.2,60.5,0.2c13.9-2.9,37.4-7.2,44.1-10.5C431.8,341,447.3,336.9,461.9,324.6z"/>
			<path class="st3" d="M458.9,323c18-15,15-61.4,5.8-74.3c-12.1-16.9-25-26.6-36.1-32.1c-11-5.5-41.2-10.3-55.4-10.5
				c-19.6-0.1-39.2,4.5-55.3,8.9c-17.4,4.7-51.4,17.3-67.2,34.5c-18.4,20.2-2.7,60.7,2.5,67.1c8.9,11.1,19.3,22.3,33.2,28.8
				c13.1,6.2,24.5,5.6,34.1,6.4c7.4,0.6,39.7,4.7,59.2,0.7c14-2.9,36.6-7.5,43.1-10.8C429.1,338.7,444.4,335,458.9,323z"/>
			<path class="st90" d="M456,321.4c17.8-14.5,15-59.3,5.9-72.4c-11.8-16.9-24.7-26.1-35.7-31.5c-10.8-5.3-39.5-10.2-53.6-10.5
				c-19.1-0.3-38.6,4.2-54.6,8.5c-17.3,4.7-50.9,17.3-66.1,33.9c-17.8,19.4-3.1,58.8,2.4,65.6c8.6,10.7,18.4,21.8,32.3,28.2
				c13,5.9,24.2,5.2,33.5,6c7.3,0.7,38.4,5.2,58,1.3c14-2.8,35.8-7.9,42.2-11C426.4,336.4,441.5,333.1,456,321.4z"/>
			<path class="st5" d="M453,319.9c17.5-14,15-57.2,6-70.5c-11.6-17-24.3-25.5-35.2-30.9c-10.5-5.2-37.9-10.1-51.8-10.5
				c-18.6-0.5-38,3.9-53.8,8.2c-17.2,4.7-50.4,17.3-65,33.2c-17.1,18.6-3.5,56.9,2.2,64c8.3,10.3,17.5,21.3,31.5,27.5
				c12.8,5.7,23.8,4.7,32.9,5.6c7.2,0.7,37.1,5.7,56.7,1.8c14.1-2.8,35-8.2,41.2-11.3C423.8,334.1,438.7,331.3,453,319.9z"/>
			<path class="st91" d="M450,318.3c17.3-13.5,15-55.2,6.1-68.5c-11.4-17-24-25-34.8-30.3c-10.3-5.1-36.3-10-50-10.5
				c-18.1-0.6-37.5,3.5-53.1,7.8c-17,4.7-49.9,17.3-63.9,32.6c-16.4,17.8-3.9,55,2.1,62.4c8.1,9.9,16.6,20.8,30.6,26.9
				c12.7,5.5,23.5,4.3,32.2,5.3c7.1,0.8,35.9,6.2,55.5,2.4c14.2-2.8,34.3-8.6,40.2-11.6C421.1,331.8,435.9,329.4,450,318.3z"/>
			<path class="st92" d="M447.1,316.7c17-13,15-53.1,6.2-66.6c-11.1-17.1-23.7-24.5-34.4-29.6c-10-4.9-34.6-9.8-48.2-10.4
				c-17.6-0.8-36.9,3.2-52.4,7.5c-16.9,4.7-49.4,17.3-62.8,31.9c-15.8,17.1-4.3,53.1,2,60.9c7.8,9.6,15.8,20.4,29.8,26.3
				c12.6,5.3,23.2,3.9,31.6,4.9c7,0.9,34.6,6.7,54.2,2.9c14.3-2.8,33.5-8.9,39.2-11.8C418.4,329.5,433,327.5,447.1,316.7z"/>
			<path class="st93" d="M444.1,315.1c16.7-12.6,15-51,6.3-64.7c-10.9-17.1-23.4-23.9-33.9-29c-9.8-4.8-33-9.7-46.4-10.4
				c-17.1-0.9-36.3,2.9-51.6,7.1c-16.8,4.7-48.9,17.3-61.8,31.3c-15.1,16.3-4.7,51.2,1.9,59.3c7.5,9.2,14.9,19.9,28.9,25.6
				c12.4,5.1,22.9,3.5,31,4.5c6.9,0.9,33.4,7.2,52.9,3.5c14.4-2.7,32.7-9.3,38.3-12.1C415.8,327.2,430.1,325.6,444.1,315.1z"/>
			<path class="st94" d="M441.2,313.6c16.5-12.1,15-48.9,6.4-62.8c-10.7-17.2-23.1-23.4-33.5-28.4c-9.6-4.6-31.4-9.5-44.6-10.4
				c-16.5-1.1-35.7,2.6-50.9,6.8c-16.7,4.7-48.4,17.4-60.7,30.6c-14.4,15.5-5.1,49.3,1.7,57.7c7.2,8.9,14,19.4,28.1,25
				c12.3,4.9,22.6,3,30.4,4.2c6.8,1,32.1,7.8,51.7,4c14.5-2.7,31.9-9.6,37.3-12.4C413.1,324.9,427.3,323.7,441.2,313.6z"/>
			<path class="st95" d="M438.2,312c16.2-11.6,15-46.9,6.5-60.8c-10.5-17.2-22.8-22.8-33.1-27.8c-9.3-4.5-29.7-9.4-42.8-10.4
				c-16-1.2-35.1,2.2-50.2,6.5c-16.6,4.7-47.8,17.4-59.6,30c-13.8,14.8-5.6,47.4,1.6,56.2c6.9,8.5,13.1,18.9,27.2,24.4
				c12.1,4.7,22.2,2.6,29.8,3.8c6.7,1.1,30.8,8.3,50.4,4.6c14.6-2.7,31.1-10,36.3-12.7C410.4,322.6,424.4,321.8,438.2,312z"/>
			<path class="st96" d="M435.3,310.4c16-11.1,15-44.8,6.7-58.9c-10.3-17.3-22.4-22.3-32.7-27.2c-9.1-4.3-28.1-9.3-41-10.4
				c-15.5-1.4-34.6,1.9-49.4,6.1c-16.4,4.7-47.3,17.4-58.5,29.3c-13.1,14-6,45.5,1.5,54.6c6.7,8.1,12.2,18.5,26.4,23.7
				c12,4.5,21.9,2.2,29.1,3.4c6.6,1.1,29.6,8.8,49.2,5.2c14.7-2.7,30.3-10.3,35.4-12.9C407.7,320.3,421.6,320,435.3,310.4z"/>
			<path class="st97" d="M432.3,308.8c15.7-10.6,15-42.7,6.8-57c-10-17.3-22.1-21.8-32.2-26.6c-8.8-4.2-26.4-9.1-39.2-10.4
				c-15-1.5-34,1.6-48.7,5.8c-16.3,4.7-46.8,17.4-57.5,28.7c-12.4,13.2-6.4,43.6,1.4,53c6.4,7.8,11.3,18,25.5,23.1
				c11.8,4.3,21.6,1.8,28.5,3.1c6.5,1.2,28.3,9.3,47.9,5.7c14.8-2.7,29.6-10.7,34.4-13.2C405.1,318,418.7,318.1,432.3,308.8z"/>
			<path class="st98" d="M429.4,307.3c15.4-10.2,15-40.7,6.9-55c-9.8-17.3-21.8-21.3-31.8-26c-8.6-4-24.8-9-37.4-10.4
				c-14.5-1.6-33.4,1.2-48,5.4c-16.2,4.7-46.3,17.4-56.4,28c-11.8,12.4-6.8,41.7,1.2,51.5c6.1,7.4,10.5,17.5,24.7,22.5
				c11.6,4.1,21.3,1.4,27.9,2.7c6.4,1.3,27.1,9.8,46.6,6.3c14.8-2.6,28.8-11,33.4-13.5C402.4,315.7,415.9,316.2,429.4,307.3z"/>
			<path class="st99" d="M426.4,305.7c15.2-9.7,15-38.6,7-53.1c-9.6-17.4-21.5-20.7-31.4-25.3c-8.4-3.9-23.2-8.8-35.6-10.4
				c-14-1.8-32.8,0.9-47.2,5.1c-16.1,4.7-45.8,17.4-55.3,27.4c-11.1,11.7-7.2,39.8,1.1,49.9c5.8,7,9.6,17.1,23.8,21.8
				c11.5,3.9,21,1,27.3,2.3c6.3,1.4,25.8,10.3,45.4,6.8c14.9-2.6,28-11.4,32.5-13.7C399.7,313.5,413,314.3,426.4,305.7z"/>
			<path class="st100" d="M423.5,304.1c14.9-9.2,15-36.5,7.1-51.2c-9.4-17.4-21.2-20.2-31-24.7c-8.1-3.8-21.5-8.7-33.8-10.4
				c-13.5-1.9-32.3,0.6-46.5,4.7c-16,4.7-45.3,17.4-54.2,26.7c-10.4,10.9-7.6,37.9,1,48.3c5.5,6.7,8.7,16.6,23,21.2
				c11.3,3.7,20.6,0.5,26.7,2c6.2,1.5,24.5,10.8,44.1,7.4c15-2.6,27.2-11.7,31.5-14C397,311.2,410.1,312.4,423.5,304.1z"/>
			<path class="st101" d="M420.5,302.5c14.6-8.8,15-34.4,7.2-49.3c-9.2-17.5-20.9-19.7-30.5-24.1c-7.9-3.6-19.9-8.5-32-10.4
				c-13-2-31.7,0.3-45.8,4.4c-15.8,4.7-44.8,17.4-53.1,26.1c-9.8,10.1-8.1,36,0.9,46.8c5.3,6.3,7.8,16.1,22.1,20.6
				c11.2,3.5,20.3,0.1,26,1.6c6.1,1.6,23.3,11.3,42.9,7.9c15.1-2.6,26.4-12.1,30.5-14.3C394.4,308.9,407.3,310.5,420.5,302.5z"/>
			<path class="st102" d="M417.5,301c14.3-8.3,15-32.4,7.3-47.3c-9-17.5-20.5-19.1-30.1-23.5c-7.6-3.5-18.3-8.3-30.2-10.4
				c-12.5-2.1-31.1-0.1-45,4c-15.7,4.7-44.3,17.4-52.1,25.4c-9.1,9.4-8.5,34.1,0.7,45.2c5,6,6.9,15.7,21.3,20
				c11,3.3,20-0.3,25.4,1.2c6,1.6,22,11.8,41.6,8.5c15.2-2.5,25.6-12.4,29.6-14.5C391.7,306.6,404.4,308.6,417.5,301z"/>
			<path class="st103" d="M414.6,299.4c14.1-7.8,15-30.3,7.4-45.4c-8.8-17.5-20.2-18.6-29.7-22.9c-7.4-3.3-16.6-8.2-28.4-10.3
				c-12-2.2-30.5-0.4-44.3,3.7c-15.6,4.7-43.8,17.4-51,24.8c-8.4,8.6-8.9,32.2,0.6,43.7c4.7,5.6,6,15.2,20.4,19.3
				c10.9,3.1,19.7-0.6,24.8,0.9c5.9,1.7,20.8,12.3,40.3,9c15.3-2.5,24.9-12.8,28.6-14.8C389,304.3,401.6,306.7,414.6,299.4z"/>
			<path class="st104" d="M411.6,297.8c13.8-7.4,15-28.2,7.5-43.5c-8.5-17.6-19.9-18.1-29.2-22.3c-7.2-3.2-15-8-26.6-10.3
				c-11.5-2.3-29.9-0.7-43.6,3.4c-15.5,4.7-43.3,17.5-49.9,24.1c-7.8,7.8-9.3,30.4,0.5,42.1c4.4,5.3,5.1,14.8,19.6,18.7
				c10.7,2.9,19.4-1,24.2,0.5c5.8,1.8,19.5,12.8,39.1,9.6c15.4-2.5,24.1-13.1,27.6-15.1C386.4,302,398.7,304.8,411.6,297.8z"/>
			<path class="st105" d="M408.7,296.3c13.5-6.9,15-26.1,7.7-41.5c-8.3-17.6-19.6-17.5-28.8-21.7c-6.9-3.1-13.4-7.8-24.8-10.3
				c-11-2.4-29.4-1.1-42.8,3c-15.4,4.7-42.8,17.5-48.8,23.5c-7.1,7-9.8,28.5,0.4,40.5c4.1,4.9,4.2,14.3,18.7,18.1
				c10.6,2.7,19-1.4,23.6,0.1c5.7,2,18.2,13.3,37.8,10.1c15.5-2.5,23.3-13.5,26.7-15.3C383.7,299.7,395.8,302.9,408.7,296.3z"/>
			<path class="st106" d="M405.7,294.7c13.2-6.5,14.9-24,7.8-39.6c-8.2-17.6-19.2-17-28.4-21c-6.7-2.9-11.7-7.6-23-10.3
				c-10.5-2.5-28.8-1.4-42.1,2.7c-15.3,4.6-42.3,17.5-47.8,22.8c-6.4,6.3-10.2,26.6,0.2,39c3.8,4.5,3.3,13.9,17.8,17.4
				c10.4,2.6,18.7-1.8,22.9-0.2c5.6,2.1,17,13.8,36.6,10.7c15.6-2.4,22.5-13.8,25.7-15.6C381,297.4,392.9,300.9,405.7,294.7z"/>
			<path class="st107" d="M402.8,293.1c12.9-6,14.9-22,7.9-37.7c-7.9-17.7-18.9-16.5-28-20.4c-6.4-2.8-10.1-7.4-21.2-10.3
				c-10-2.6-28.2-1.7-41.4,2.3c-15.1,4.6-41.8,17.5-46.7,22.2c-5.8,5.5-10.7,24.7,0.1,37.4c3.5,4.2,2.5,13.4,17,16.8
				c10.2,2.4,18.4-2.2,22.3-0.6c5.4,2.2,15.7,14.3,35.3,11.2c15.7-2.4,21.7-14.2,24.7-15.9C378.3,295.1,390.1,299,402.8,293.1z"/>
			<path class="st108" d="M399.8,291.5c12.7-5.6,14.9-19.9,8-35.8c-7.7-17.7-18.6-16-27.5-19.8c-6.2-2.7-8.5-7.2-19.4-10.3
				c-9.5-2.7-27.6-2-40.6,2c-15,4.6-41.2,17.5-45.6,21.5c-5.1,4.7-11.1,22.8,0,35.8c3.3,3.8,1.6,13,16.1,16.2
				c10.1,2.2,18-2.6,21.7-1c5.3,2.3,14.5,14.8,34.1,11.8c15.7-2.4,20.9-14.5,23.8-16.1C375.7,292.8,387.2,297.1,399.8,291.5z"/>
		</g>
		<path class="st111" d="M407.7,236.3c-0.9,0-1.7,0-2.5,0.1c-4.5-12.9-16.8-22.1-31.2-22.1c-4.3,0-8.4,0.8-12.2,2.3
			c-4.5-12.3-16.3-21.2-30.2-21.2c-13.5,0-25.1,8.4-29.8,20.2c-1.6-0.3-3.2-0.4-4.9-0.4c-14.6,0-26.5,11-28,25.2
			c-2-0.4-4.2-0.6-6.3-0.6c-17.6,0-31.8,14.2-31.8,31.8c0,17.6,14.3,31.8,31.8,31.8c0.3,0,0.6,0,0.8,0c3.1,12.8,14.7,22.4,28.5,22.4
			c10.7,0,20-5.7,25.2-14.3c7,11.9,19.9,20,34.7,20c16.4,0,30.5-9.8,36.8-23.9c5.6,3.2,12.1,5.1,19,5.1c21.1,0,38.2-17.1,38.2-38.2
			S428.8,236.3,407.7,236.3z"/>
		<path class="st112" d="M409,237.6c-0.8,0-1.7,0-2.5,0.1c-4.5-12.9-16.8-22.1-31.2-22.1c-4.3,0-8.4,0.8-12.2,2.3
			c-4.5-12.4-16.3-21.2-30.2-21.2c-13.5,0-25.1,8.3-29.8,20.2c-1.6-0.3-3.2-0.4-4.9-0.4c-14.6,0-26.5,11.1-28,25.2
			c-2-0.4-4.2-0.6-6.3-0.6c-17.6,0-31.8,14.3-31.8,31.8c0,17.6,14.3,31.8,31.8,31.8c0.3,0,0.5,0,0.8,0c3.1,12.9,14.7,22.4,28.5,22.4
			c10.7,0,20-5.7,25.2-14.3c7,11.9,19.9,20,34.7,20c16.4,0,30.5-9.8,36.8-23.9c5.6,3.2,12.1,5.1,19,5.1c21.1,0,38.2-17.1,38.2-38.2
			C447.2,254.7,430.1,237.6,409,237.6z"/>
	</g>
	<g>
		<g class="st1">
			<path class="st2" d="M432.9,279.8c23.7-24.6,22.1-75.1,9-93.1c-17.2-23.7-38.1-32.4-53.9-40.3c-15.8-7.9-38.7-15.2-58.6-18.2
				c-24.6-3.7-51.8,6.9-74.6,13c-24.6,6.6-100.5,32.2-123.5,57.4c-12.7,13.9-15.9,31.9-14,48.6c2.1,18.6,10.4,35.3,14,39.9
				c12.8,16,59.6,32.1,79.1,41.4c18.7,8.9,34.8,8.5,48.8,9.5c10.6,0.7,40.1,0,67.6-5.8c19.5-4.1,38.8-19.2,48.2-23.8
				C383.7,304,414.8,298.5,432.9,279.8z"/>
			<path class="st3" d="M429.3,278c23.4-23.8,22.2-72.8,9.3-90.7c-16.8-23.4-37.3-31.6-52.9-39.4c-15.4-7.7-37.3-14.8-57.1-18
				c-24.1-3.7-50.6,6.4-73.2,12.5c-24.4,6.6-100.7,32.2-123.1,56.2c-12.7,13.6-15.8,31.5-13.6,47.9c2.4,18.2,11.2,34.2,15.2,38.7
				c13,14.9,57.5,31.4,77,40.5c18.4,8.7,34.3,7.2,47.8,8.2c10.4,0.8,38.8,1.3,66.8-4.6c19.6-4.1,38.1-19.5,47.2-24.1
				C381.3,300.9,411.3,296.1,429.3,278z"/>
			<path class="st90" d="M425.8,276.2c23.2-22.9,22.3-70.5,9.6-88.3c-16.4-23-36.5-30.9-51.9-38.5c-15.1-7.5-35.8-14.6-55.7-17.9
				c-23.5-3.9-49.3,5.8-71.8,12c-24.2,6.7-101,32.1-122.7,55c-12.6,13.3-15.8,31.1-13.3,47.2c2.7,17.9,12.1,33.1,16.4,37.6
				c13.1,13.8,55.4,30.6,74.9,39.5c18.2,8.3,33.7,5.8,46.8,7c10.3,0.9,37.6,2.7,66.1-3.4c19.6-4.2,37.3-19.9,46.2-24.3
				C378.9,297.7,407.9,293.9,425.8,276.2z"/>
			<path class="st5" d="M422.2,274.4c22.9-22.1,22.3-68.2,9.9-85.9c-16.1-22.7-35.7-30.1-51-37.6c-14.7-7.3-34.3-14.3-54.2-17.7
				c-22.9-3.9-48,5.3-70.4,11.5c-24,6.7-101.2,32.1-122.3,53.8c-12.6,13-15.8,30.7-13,46.5c3,17.6,12.9,31.9,17.6,36.4
				c13.1,12.8,53.3,29.9,72.9,38.6c18,8,33.2,4.5,45.8,5.8c10.1,1,36.4,4.1,65.3-2.3c19.7-4.3,36.5-20.2,45.1-24.6
				C376.5,294.6,404.4,291.6,422.2,274.4z"/>
			<path class="st91" d="M418.7,272.6c22.7-21.3,22.4-65.9,10.2-83.5c-15.7-22.4-34.9-29.3-50-36.7c-14.4-7.1-32.9-14-52.7-17.6
				c-22.3-4-46.8,4.7-69,11c-23.8,6.8-101.5,32-121.9,52.6c-12.6,12.7-15.7,30.3-12.7,45.8c3.3,17.3,13.8,30.7,18.8,35.2
				c13,11.8,51.2,29.1,70.8,37.6c17.8,7.7,32.6,3.2,44.8,4.6c10,1.1,35.1,5.4,64.6-1.1c19.8-4.3,35.8-20.6,44.1-24.8
				C374.1,291.5,400.9,289.3,418.7,272.6z"/>
			<path class="st92" d="M415.1,270.8c22.4-20.4,22.5-63.6,10.4-81.1c-15.3-22.1-34.1-28.5-49-35.8c-14-6.9-31.4-13.7-51.2-17.4
				c-21.7-4.1-45.5,4.1-67.6,10.5c-23.6,6.8-101.7,31.9-121.5,51.4c-12.6,12.4-15.7,29.9-12.4,45.2c3.6,16.9,14.6,29.6,20,34.1
				c12.9,10.8,49.2,28.4,68.7,36.6c17.6,7.4,32,1.9,43.8,3.3c9.8,1.2,33.9,6.8,63.8,0.1c19.9-4.4,35-21,43.1-25
				C371.7,288.3,397.4,287,415.1,270.8z"/>
			<path class="st93" d="M411.6,269c22.1-19.6,22.6-61.4,10.7-78.7c-14.9-21.8-33.3-27.8-48-34.9c-13.7-6.7-30-13.4-49.7-17.2
				c-21.1-4.1-44.2,3.6-66.2,10c-23.4,6.8-102,31.9-121.1,50.2c-12.6,12.1-15.6,29.5-12.1,44.5c3.9,16.6,15.4,28.4,21.2,32.9
				c12.7,9.9,47.1,27.6,66.6,35.7c17.3,7.1,31.5,0.6,42.9,2.1c9.7,1.3,32.7,8.1,63.1,1.2c20-4.5,34.2-21.3,42-25.3
				C369.3,285.2,393.9,284.7,411.6,269z"/>
			<path class="st94" d="M408,267.2c21.8-18.8,22.6-59.1,11-76.3c-14.5-21.4-32.5-27-47.1-34c-13.4-6.5-28.5-13.1-48.3-17.1
				c-20.6-4.2-43,3-64.8,9.5c-23.2,6.9-102.3,31.8-120.7,49c-12.6,11.8-15.6,29.1-11.8,43.8c4.2,16.3,16.2,27.2,22.4,31.8
				c12.4,9.1,45,26.9,64.6,34.7c17.1,6.8,30.9-0.7,41.9,0.9c9.5,1.4,31.4,9.5,62.3,2.4c20-4.5,33.5-21.7,41-25.5
				C366.9,282.1,390.4,282.4,408,267.2z"/>
			<path class="st95" d="M404.5,265.4c21.5-17.9,22.7-56.8,11.3-73.9c-14.1-21.1-31.7-26.2-46.1-33.1c-13-6.2-27.1-12.7-46.8-16.9
				c-20-4.3-41.7,2.5-63.4,9c-23,6.9-102.6,31.7-120.3,47.8c-12.6,11.5-15.6,28.8-11.5,43.1c4.5,15.9,17,26.1,23.6,30.6
				c12.1,8.3,42.9,26.2,62.5,33.8c16.9,6.5,30.4-2,40.9-0.3c9.4,1.5,30.2,10.9,61.6,3.6c20.1-4.6,32.7-22,40-25.8
				C364.5,278.9,386.9,280.1,404.5,265.4z"/>
			<path class="st96" d="M400.9,263.6c21.2-17.1,22.8-54.5,11.6-71.5c-13.7-20.8-30.9-25.4-45.1-32.2c-12.7-6-25.6-12.4-45.3-16.8
				c-19.4-4.3-40.4,1.9-61.9,8.5c-22.8,6.9-102.9,31.6-119.9,46.6c-12.6,11.2-15.5,28.4-11.2,42.4c4.8,15.6,17,26.3,24.8,29.5
				c10.3,9.5,40.8,25.4,60.4,32.8c16.7,6.3,29.8-3.3,39.9-1.6c9.2,1.6,28.9,12.2,60.8,4.7c20.2-4.7,31.9-22.4,38.9-26
				C362.1,275.8,383.4,277.8,400.9,263.6z"/>
			<path class="st97" d="M397.4,261.8c20.9-16.3,22.8-52.2,11.9-69.2c-13.3-20.5-30.1-24.6-44.1-31.3c-12.3-5.8-24.1-12.1-43.8-16.6
				c-18.8-4.3-39.2,1.4-60.5,8c-22.6,7-103.2,31.4-119.5,45.4c-12.6,10.9-15.5,28-10.9,41.7c5.1,15.3,17.8,25.3,26,28.3
				c10,8.8,38.7,24.7,58.3,31.9c16.4,6,29.3-4.6,38.9-2.8c9.1,1.7,27.7,13.6,60.1,5.9c20.3-4.8,31.1-22.7,37.9-26.3
				C359.7,272.6,379.8,275.4,397.4,261.8z"/>
			<path class="st98" d="M393.8,260c20.6-15.5,22.9-49.9,12.1-66.8c-12.9-20.1-29.3-23.8-43.2-30.4c-12-5.6-22.7-11.8-42.3-16.5
				c-18.3-4.4-37.9,0.8-59.1,7.5c-22.4,7-103.6,31.3-119.1,44.2c-12.7,10.5-15.5,27.6-10.6,41.1c5.4,14.9,18.5,24.2,27.2,27.2
				c9.7,8,36.6,24,56.3,30.9c16.2,5.7,28.7-5.9,37.9-4c8.9,1.8,26.5,15,59.3,7.1c20.4-4.8,30.4-23.1,36.9-26.5
				C357.3,269.5,376.3,273.1,393.8,260z"/>
			<path class="st99" d="M390.3,258.2c20.3-14.7,23-47.6,12.4-64.4c-12.5-19.8-28.4-23.1-42.2-29.5c-11.6-5.4-21.2-11.4-40.9-16.3
				c-17.7-4.4-36.6,0.3-57.7,7c-22.2,7-103.9,31.2-118.7,43c-12.7,10.2-15.4,27.2-10.3,40.4c5.6,14.6,19.2,23.2,28.4,26
				c9.4,7.3,34.4,23.3,54.2,29.9c16,5.4,28.2-7.2,37-5.2c8.8,1.9,25.2,16.3,58.6,8.2c20.4-4.9,29.6-23.5,35.8-26.8
				C354.9,266.4,372.8,270.8,390.3,258.2z"/>
			<path class="st100" d="M386.7,256.4c20-13.9,23-45.4,12.7-62c-12.1-19.5-27.6-22.3-41.2-28.6c-11.3-5.2-19.8-11.1-39.4-16.2
				c-17.1-4.4-35.4-0.3-56.3,6.5c-21.9,7.1-104.3,31-118.3,41.8c-12.7,9.9-15.4,26.8-9.9,39.7c5.9,14.3,20,22.2,29.6,24.8
				c9.2,6.6,32.3,22.6,52.1,29c15.7,5.1,27.6-8.4,36-6.5c8.6,2,24,17.7,57.8,9.4c20.5-5,28.8-23.8,34.8-27
				C352.5,263.2,369.3,268.5,386.7,256.4z"/>
			<path class="st101" d="M383.2,254.6c19.7-13.1,23.1-43.1,13-59.6c-11.8-19.2-26.8-21.5-40.3-27.7c-11-5-18.3-10.7-37.9-16
				c-16.5-4.5-34.1-0.8-54.9,6c-21.7,7.1-104.7,30.8-117.9,40.7c-12.8,9.5-15.3,26.4-9.6,39c6.2,13.9,21.3,19.5,30.8,23.7
				c9.7,4.3,30.2,21.8,50,28c15.5,4.9,27-9.7,35-7.7c8.5,2.1,22.7,19.1,57.1,10.6c20.6-5,28.1-24.2,33.8-27.2
				C350.1,260.1,365.8,266.2,383.2,254.6z"/>
			<path class="st102" d="M379.6,252.8c19.4-12.3,23.2-40.8,13.3-57.2c-11.4-18.8-26-20.7-39.3-26.8c-10.6-4.8-16.9-10.4-36.4-15.9
				c-16-4.5-32.8-1.4-53.5,5.5c-21.5,7.1-105.1,30.6-117.5,39.5c-12.9,9.2-15.3,26-9.3,38.3c6.5,13.6,22,18.6,32,22.5
				c9.3,3.7,28.1,21.1,47.9,27.1c15.3,4.6,26.5-11,34-8.9c8.3,2.3,21.5,20.4,56.3,11.7c20.7-5.1,27.3-24.6,32.7-27.5
				C347.7,257,362.2,263.8,379.6,252.8z"/>
			<path class="st103" d="M376.1,251c19.1-11.5,23.2-38.5,13.6-54.8c-11-18.5-25.2-20-38.3-25.9c-10.3-4.6-15.4-10-34.9-15.7
				c-15.4-4.5-31.6-1.9-52.1,5c-21.3,7.2-105.5,30.4-117.1,38.3c-12.9,8.8-15.3,25.6-9,37.6c6.8,13.3,22.6,17.6,33.2,21.4
				c8.9,3.1,26,20.4,45.9,26.1c15,4.3,25.9-12.2,33-10.2c8.2,2.4,20.3,21.8,55.6,12.9c20.8-5.2,26.5-24.9,31.7-27.7
				C345.4,253.8,358.7,261.5,376.1,251z"/>
			<path class="st104" d="M372.6,249.2c18.7-10.7,23.3-36.2,13.8-52.4c-10.6-18.2-24.4-19.2-37.3-25c-9.9-4.4-14-9.7-33.5-15.6
				c-14.8-4.5-30.3-2.5-50.7,4.5c-21.1,7.2-105.9,30.1-116.7,37.1c-13,8.4-15.2,25.2-8.7,37c7.1,12.9,23.3,16.8,34.4,20.2
				c8.4,2.6,23.9,19.7,43.8,25.2c14.8,4,25.4-13.5,32.1-11.4c8,2.5,19,23.1,54.8,14.1c20.9-5.2,25.7-25.3,30.7-28
				C343,250.7,355.2,259.1,372.6,249.2z"/>
			<path class="st105" d="M369,247.4c18.4-9.9,23.3-33.9,14.1-50c-10.3-17.8-23.6-18.4-36.4-24.1c-9.6-4.2-12.6-9.3-32-15.4
				c-14.3-4.5-29-3-49.3,4c-20.9,7.3-106.4,29.9-116.3,35.9c-13.2,7.9-15.2,24.8-8.4,36.3c7.4,12.6,24,16,35.6,19.1
				c8,2.1,21.8,19,41.7,24.2c14.6,3.8,24.8-14.8,31.1-12.6c7.9,2.7,17.8,24.5,54.1,15.2c20.9-5.3,25-25.7,29.6-28.2
				C340.5,247.5,351.6,256.8,369,247.4z"/>
			<path class="st106" d="M365.5,245.6c18.1-9.2,23.4-31.6,14.4-47.6c-9.9-17.5-22.8-17.7-35.4-23.2c-9.2-4.1-11.1-8.9-30.5-15.3
				c-13.7-4.5-27.8-3.6-47.9,3.5c-20.7,7.3-106.8,29.6-115.9,34.7c-13.3,7.4-15.2,24.4-8.1,35.6c7.7,12.3,24.6,15.3,36.8,17.9
				c7.6,1.7,19.7,18.3,39.6,23.3c14.3,3.5,24.2-16,30.1-13.8c7.7,2.9,16.6,25.9,53.3,16.4c21-5.4,24.2-26,28.6-28.5
				C338.1,244.4,348.1,254.4,365.5,245.6z"/>
			<path class="st107" d="M361.9,243.8c17.8-8.4,23.5-29.3,14.7-45.2c-9.5-17.2-22-16.9-34.4-22.3c-8.9-3.9-9.7-8.5-29-15.1
				c-13.1-4.5-26.5-4.1-46.5,3c-20.5,7.3-107.2,29.3-115.5,33.5c-13.5,6.8-15.1,24-7.8,34.9c8,11.9,25.3,14.6,38,16.8
				c7.2,1.2,17.6,17.7,37.6,22.3c14.1,3.3,23.7-17.2,29.1-15.1c7.5,3,15.3,27.2,52.6,17.6c21.1-5.4,23.4-26.4,27.6-28.7
				C335.7,241.2,344.5,252,361.9,243.8z"/>
			<path class="st108" d="M358.4,242c17.4-7.7,23.5-27,15-42.8c-9.1-16.9-21.2-16.1-33.4-21.4c-8.5-3.7-8.3-8.1-27.5-15
				c-12.6-4.5-25.2-4.7-45.1,2.5c-20.3,7.4-107.7,28.9-115.1,32.3c-13.7,6.2-15.1,23.6-7.5,34.2c8.3,11.6,25.9,14.2,39.2,15.6
				c6.9,0.8,15.5,17,35.5,21.3c13.9,3,23.1-18.5,28.1-16.3c7.3,3.2,14.1,28.6,51.8,18.7c21.2-5.5,22.6-26.7,26.5-29
				C333.3,238.1,341,249.6,358.4,242z"/>
		</g>
		<path class="st111" d="M379.1,161.8c-1.7,0-3.4,0.1-5.1,0.3c-6.4-18.9-24.3-32.5-45.4-32.5c-9.7,0-18.8,2.9-26.3,7.9
			c-5.2-14.2-18.8-24.3-34.8-24.3c-18,0-33,12.9-36.3,30c-5.1-3.8-11.4-6-18.3-6c-15.7,0-28.6,11.7-30.4,26.9c-0.1,0-0.1,0-0.2,0
			c-24.4,0-44.1,19.7-44.1,44.1c0,24.4,19.7,44.1,44.1,44.1c7.8,0,15.1-2,21.4-5.6c2.3,15.3,15.5,27,31.4,27
			c12.6,0,23.5-7.3,28.6-18c9.7,14.3,26.1,23.6,44.7,23.6c24,0,44.3-15.6,51.3-37.3c5.8,3,12.4,4.7,19.5,4.7
			c23.5,0,42.5-19,42.5-42.5C421.6,180.8,402.6,161.8,379.1,161.8z"/>
		<path class="st109" d="M380.4,163c-1.8,0-3.4,0.1-5.1,0.3c-6.4-18.9-24.3-32.5-45.4-32.5c-9.7,0-18.8,2.9-26.3,7.9
			c-5.2-14.2-18.8-24.3-34.8-24.3c-18,0-33,12.9-36.3,30c-5.1-3.8-11.4-6-18.3-6c-15.7,0-28.6,11.8-30.4,26.9c-0.1,0-0.2,0-0.2,0
			c-24.4,0-44.1,19.7-44.1,44.1c0,24.4,19.7,44.1,44.1,44.1c7.7,0,15.1-2,21.4-5.6c2.3,15.3,15.5,27,31.4,27
			c12.6,0,23.5-7.3,28.6-18c9.7,14.3,26.1,23.6,44.7,23.6c24,0,44.3-15.6,51.4-37.3c5.8,3,12.4,4.7,19.5,4.7
			c23.5,0,42.5-19,42.5-42.5C422.9,182,403.9,163,380.4,163z"/>
	</g>
	<g>
		<g class="st1">
			<path class="st2" d="M309.2,340c13.9-20.7,7.2-58.9-2.6-72.2c-12.8-17.5-29.5-25.3-41.1-31.1c-11.7-5.8-37.1-16.2-52-16.2
				c-20.9,0-31.5,7.7-48.4,12.2c-18.2,4.9-49.2,33.3-66.2,52c-19.9,21.8-14.8,54.6-9.7,60.9c9.5,11.9,21,23.7,35.4,30.6
				c13.8,6.6,25.8,6.3,36.1,7c7.8,0.6,16.9,4.4,37.3,0.2c14.4-3,21.3-4.2,28.8-6.5C242.5,372,292.3,365.1,309.2,340z"/>
			<path class="st3" d="M306.3,339.1c13.9-20,8-56.9-1.6-70.4c-12.5-17.6-29.4-24.9-40.9-30.6c-11.4-5.7-36.2-16.3-51-16.5
				c-20.4-0.1-31.4,7.2-48.1,11.7c-18.1,4.9-48.4,33-64.8,51c-19.2,21-15.3,53-10,59.7c9.2,11.5,20.4,23.1,34.8,29.7
				c13.9,6.3,25.6,5.6,35.6,6.4c7.7,0.6,16.9,4.4,37.2,0.2c14.5-3,21.5-4.3,28.7-6.4C241.7,369.5,289.6,363.2,306.3,339.1z"/>
			<path class="st90" d="M303.4,338.2c13.8-19.3,8.8-54.9-0.7-68.6c-12.3-17.6-29.2-24.5-40.7-30.1c-11.2-5.6-35.3-16.5-49.9-16.7
				c-19.9-0.3-31.3,6.8-47.8,11.3c-18,4.9-47.6,32.7-63.4,50c-18.5,20.2-15.9,51.4-10.2,58.4c8.9,11.1,19.7,22.6,34.3,28.9
				c14,6,25.4,4.9,35.1,5.8c7.6,0.7,16.8,4.4,37.2,0.3c14.6-3,21.7-4.5,28.7-6.4C240.9,367,286.9,361.4,303.4,338.2z"/>
			<path class="st5" d="M300.5,337.3c13.7-18.6,9.7-52.9,0.3-66.7c-12.1-17.7-29.1-24.1-40.5-29.6c-10.9-5.4-34.4-16.6-48.8-16.9
				c-19.3-0.5-31.1,6.3-47.5,10.8c-17.9,4.9-46.8,32.4-62.1,49c-17.8,19.4-16.3,49.8-10.4,57.2c8.7,10.7,19.1,22,33.7,28
				c14.1,5.7,25.2,4.2,34.6,5.1c7.5,0.7,16.7,4.4,37.1,0.4c14.7-2.9,22-4.6,28.7-6.3C240.1,364.5,284.1,359.5,300.5,337.3z"/>
			<path class="st91" d="M297.6,336.4c13.7-17.9,10.5-51,1.3-64.9c-11.8-17.7-29-23.6-40.2-29.1c-10.7-5.3-33.5-16.7-47.7-17.2
				c-18.8-0.7-31,5.8-47.2,10.3c-17.7,4.9-46.1,32.2-60.7,48c-17.1,18.6-16.9,48.2-10.6,56c8.4,10.3,18.5,21.5,33.1,27.1
				c14.2,5.5,25.1,3.5,34.1,4.5c7.4,0.8,16.7,4.5,37,0.4c14.8-2.9,22.2-4.7,28.7-6.2C239.3,362,281.4,357.7,297.6,336.4z"/>
			<path class="st92" d="M294.8,335.5c13.6-17.2,11.4-49,2.2-63.1c-11.6-17.8-28.9-23.2-40-28.6c-10.4-5.1-32.6-16.8-46.6-17.4
				c-18.3-0.8-30.9,5.4-46.9,9.8c-17.6,4.9-45.3,31.9-59.3,47c-16.4,17.8-17.4,46.6-10.8,54.7c8.1,10,17.8,20.9,32.6,26.2
				c14.3,5.2,24.9,2.8,33.6,3.9c7.3,0.9,16.6,4.5,36.9,0.5c14.9-2.9,22.4-4.8,28.7-6.2C238.5,359.5,278.7,355.8,294.8,335.5z"/>
			<path class="st93" d="M291.9,334.6c13.6-16.5,12.2-47,3.2-61.3c-11.4-17.8-28.8-22.8-39.8-28.1c-10.2-5-31.6-16.9-45.6-17.7
				c-17.7-1-30.7,4.9-46.7,9.3c-17.5,4.9-44.5,31.6-57.9,46.1c-15.7,17-17.9,45-11,53.5c7.8,9.6,17.2,20.4,32,25.3
				c14.4,4.9,24.7,2.1,33.1,3.3c7.2,1,16.5,4.5,36.9,0.6c15-2.9,22.6-5,28.7-6.1C237.7,357,275.9,354,291.9,334.6z"/>
			<path class="st94" d="M289,333.7c13.5-15.8,13.1-45.1,4.1-59.4c-11.1-17.9-28.7-22.4-39.6-27.6c-9.9-4.8-30.7-17-44.5-17.9
				c-17.2-1.1-30.6,4.4-46.4,8.8c-17.4,4.9-43.7,31.3-56.6,45.1c-15,16.2-18.4,43.4-11.2,52.2c7.5,9.2,16.6,19.8,31.4,24.5
				c14.5,4.6,24.5,1.4,32.6,2.6c7.1,1,16.4,4.5,36.8,0.6c15.1-2.8,22.8-5.1,28.7-6.1C236.9,354.5,273.2,352.1,289,333.7z"/>
			<path class="st95" d="M286.1,332.8c13.5-15.1,13.9-43.1,5.1-57.6c-10.9-17.9-28.6-22-39.4-27.1c-9.7-4.7-29.8-17.1-43.4-18.2
				c-16.7-1.3-30.5,4-46.1,8.4c-17.2,4.9-42.9,31-55.2,44.1c-14.3,15.4-18.9,41.8-11.4,51c7.2,8.8,16,19.2,30.8,23.6
				c14.6,4.3,24.3,0.8,32.1,2c7,1.1,16.4,4.5,36.7,0.7c15.2-2.8,23-5.2,28.7-6C236.1,351.9,270.5,350.3,286.1,332.8z"/>
			<path class="st96" d="M283.2,331.8c13.4-14.5,14.7-41.1,6-55.8c-10.7-18-28.5-21.6-39.2-26.6c-9.4-4.5-28.9-17.2-42.3-18.4
				c-16.2-1.4-30.3,3.5-45.8,7.9c-17.1,4.9-42.2,30.7-53.8,43.1c-13.6,14.6-19.4,40.3-11.6,49.7c6.9,8.4,15.4,18.7,30.3,22.7
				c14.7,4,24.1,0.1,31.6,1.4c6.9,1.2,16.3,4.5,36.6,0.8c15.3-2.8,23.2-5.3,28.7-5.9C235.3,349.5,267.8,348.5,283.2,331.8z"/>
			<path class="st97" d="M280.4,330.9c13.4-13.8,15.6-39.1,7-53.9c-10.4-18-28.4-21.1-39-26.1c-9.2-4.4-28-17.3-41.2-18.7
				c-15.6-1.6-30.2,3-45.5,7.4c-17,4.9-41.4,30.4-52.4,42.1c-12.9,13.8-19.9,38.7-11.8,48.5c6.6,8.1,14.7,18.1,29.7,21.8
				c14.8,3.7,23.9-0.6,31.1,0.8c6.8,1.3,16.2,4.5,36.6,0.8c15.4-2.8,23.4-5.5,28.7-5.9C234.5,347,265.1,346.6,280.4,330.9z"/>
			<path class="st98" d="M277.5,330c13.4-13.1,16.4-37.1,7.9-52.1c-10.2-18-28.3-20.7-38.7-25.6c-9-4.2-27.1-17.4-40.1-18.9
				c-15.1-1.7-30.1,2.6-45.2,6.9c-16.9,4.9-40.6,30.1-51.1,41.1c-12.2,13-20.4,37.1-12.1,47.2c6.3,7.7,14.1,17.6,29.1,21
				c14.9,3.4,23.8-1.3,30.6,0.1c6.7,1.4,16.1,4.5,36.5,0.9c15.5-2.7,23.6-5.6,28.6-5.8C233.7,344.5,262.4,344.8,277.5,330z"/>
			<path class="st99" d="M274.6,329.1c13.3-12.4,17.2-35.2,8.9-50.3c-10-18.1-28.2-20.3-38.5-25.1c-8.7-4.1-26.1-17.5-39.1-19.1
				c-14.6-1.8-29.9,2.1-44.9,6.4c-16.7,4.8-39.8,29.8-49.7,40.2c-11.5,12.2-21,35.5-12.3,46c6.1,7.3,13.5,17,28.5,20.1
				c15.1,3.1,23.6-1.9,30.1-0.5c6.6,1.4,16.1,4.5,36.4,1c15.5-2.7,23.8-5.7,28.6-5.7C232.9,341.9,259.7,343,274.6,329.1z"/>
			<path class="st100" d="M271.7,328.2c13.3-11.7,18.1-33.2,9.8-48.5c-9.8-18.1-28.1-19.9-38.3-24.6c-8.5-3.9-25.2-17.6-38-19.4
				c-14.1-2-29.8,1.6-44.6,5.9c-16.6,4.8-39,29.5-48.3,39.2c-10.9,11.4-21.5,33.9-12.5,44.8c5.8,7,12.9,16.4,28,19.2
				c15.2,2.8,23.4-2.6,29.6-1.1c6.5,1.5,16,4.5,36.4,1c15.6-2.7,24-5.8,28.6-5.7C232.1,339.5,257,341.1,271.7,328.2z"/>
			<path class="st101" d="M268.8,327.3c13.3-11,18.9-31.2,10.8-46.6c-9.5-18.2-28-19.5-38.1-24.1c-8.2-3.8-24.3-17.7-36.9-19.6
				c-13.5-2.1-29.7,1.1-44.3,5.5c-16.5,4.8-38.2,29.2-46.9,38.2c-10.2,10.6-22,32.3-12.7,43.5c5.5,6.6,12.2,15.9,27.4,18.3
				c15.3,2.5,23.2-3.3,29.1-1.7c6.3,1.6,15.9,4.6,36.3,1.1c15.7-2.6,24.2-6,28.6-5.6C231.3,337,254.3,339.3,268.8,327.3z"/>
			<path class="st102" d="M265.9,326.4c13.2-10.2,19.7-29.2,11.7-44.8c-9.3-18.2-27.9-19.1-37.9-23.6c-8-3.6-23.4-17.8-35.8-19.9
				c-13-2.2-29.6,0.7-44.1,5c-16.4,4.8-37.5,28.9-45.6,37.2c-9.5,9.8-22.5,30.7-12.9,42.3c5.2,6.2,11.6,15.3,26.8,17.5
				c15.4,2.2,23-3.9,28.6-2.4c6.2,1.7,15.8,4.6,36.2,1.1c15.8-2.6,24.4-6.1,28.6-5.5C230.5,334.4,251.6,337.5,265.9,326.4z"/>
			<path class="st103" d="M263.1,325.5c13.2-9.5,20.6-27.2,12.7-43c-9.1-18.2-27.8-18.7-37.7-23.1c-7.7-3.5-22.5-17.8-34.7-20.1
				c-12.5-2.3-29.4,0.2-43.8,4.5c-16.2,4.8-36.7,28.6-44.2,36.2c-8.8,8.9-23,29.2-13.1,41c4.9,5.8,11,14.7,26.3,16.6
				c15.5,1.9,22.8-4.6,28.1-3c6.1,1.8,15.8,4.6,36.1,1.2c15.9-2.6,24.6-6.2,28.6-5.5C229.7,331.9,248.9,335.7,263.1,325.5z"/>
			<path class="st104" d="M260.2,324.6c13.2-8.8,21.4-25.3,13.7-41.2c-8.9-18.3-27.7-18.2-37.5-22.6c-7.5-3.3-21.6-17.9-33.7-20.4
				c-12-2.4-29.3-0.3-43.5,4c-16.1,4.8-35.9,28.3-42.8,35.2c-8.1,8.1-23.5,27.6-13.3,39.8c4.6,5.5,10.4,14.2,25.7,15.7
				c15.6,1.6,22.6-5.2,27.6-3.6c6,1.9,15.7,4.6,36.1,1.3c16-2.6,24.8-6.4,28.6-5.4C228.9,329.4,246.2,333.9,260.2,324.6z"/>
			<path class="st105" d="M257.3,323.7c13.2-8.1,22.2-23.3,14.6-39.3c-8.7-18.3-27.6-17.8-37.2-22.1c-7.2-3.2-20.7-18-32.6-20.6
				c-11.4-2.5-29.2-0.7-43.2,3.5c-16,4.8-35.1,28-41.4,34.3c-7.4,7.3-24.1,26-13.5,38.5c4.3,5.1,9.8,13.6,25.1,14.8
				c15.7,1.3,22.4-5.9,27.1-4.2c5.9,2,15.6,4.6,36,1.3c16.1-2.5,25-6.5,28.6-5.3C228.1,326.9,243.6,332.1,257.3,323.7z"/>
			<path class="st106" d="M254.4,322.8c13.2-7.3,23-21.3,15.6-37.5c-8.5-18.3-27.5-17.4-37-21.6c-6.9-3.1-19.8-18-31.5-20.8
				c-10.9-2.6-29-1.2-42.9,3c-15.9,4.8-34.3,27.7-40.1,33.3c-6.7,6.5-24.6,24.4-13.7,37.3c4,4.7,9.1,13,24.5,13.9
				c15.8,0.9,22.2-6.5,26.6-4.9c5.8,2.2,15.5,4.6,35.9,1.4c16.2-2.5,25.2-6.6,28.6-5.3C227.3,324.4,240.9,330.3,254.4,322.8z"/>
			<path class="st107" d="M251.5,321.8c13.2-6.6,23.8-19.3,16.5-35.7c-8.3-18.4-27.4-17-36.8-21.1c-6.7-2.9-18.9-18.1-30.4-21.1
				c-10.4-2.7-28.9-1.7-42.6,2.5c-15.7,4.8-33.6,27.4-38.7,32.3c-6,5.7-25.1,22.9-13.9,36c3.7,4.4,8.5,12.4,24,13.1
				c15.9,0.6,22-7.1,26.1-5.5c5.7,2.3,15.5,4.6,35.8,1.5c16.3-2.5,25.4-6.8,28.6-5.2C226.5,321.9,238.2,328.5,251.5,321.8z"/>
			<path class="st108" d="M248.7,320.9c13.2-5.8,24.7-17.3,17.5-33.9c-8-18.4-27.3-16.6-36.6-20.6c-6.4-2.8-17.9-18.1-29.3-21.3
				c-9.9-2.8-28.8-2.1-42.3,2.1c-15.6,4.8-32.8,27.1-37.3,31.3c-5.3,4.9-25.7,21.3-14.2,34.8c3.4,4,7.9,11.9,23.4,12.2
				c16,0.3,21.8-7.8,25.6-6.1c5.5,2.4,15.4,4.6,35.8,1.5c16.4-2.5,25.7-6.9,28.5-5.1C225.7,319.4,235.5,326.7,248.7,320.9z"/>
		</g>
		<path class="st111" d="M240,265.1c-3.7-0.2-7.2,0.3-10.5,1.4c-4.3-21.9-23.1-39-46.4-40.2c-22.6-1.2-42.5,12.9-49.7,33.2h0
			c-19.1-1-35.5,13.7-36.5,32.8c-1,19.1,13.7,35.5,32.9,36.5c9.9,0.5,19-3.2,25.6-9.4c6.7,3.9,14.3,6.3,22.5,6.7
			c14.7,0.8,28.2-4.9,37.8-14.5c5,6.4,12.6,10.7,21.3,11.1c15.9,0.8,29.5-11.4,30.3-27.3C268.2,279.5,256,265.9,240,265.1z"/>
	</g>
</g>
</svg>
