<?xml version="1.0" encoding="utf-8"?>
<!-- Generator: Adobe Illustrator 25.0.0, SVG Export Plug-In . SVG Version: 6.00 Build 0)  -->
<svg version="1.1" id="_x3C_Layer_x3E_" xmlns="http://www.w3.org/2000/svg" xmlns:xlink="http://www.w3.org/1999/xlink" x="0px"
	 y="0px" viewBox="0 0 500 500" style="enable-background:new 0 0 500 500;" xml:space="preserve">
<style type="text/css">
	.st0{opacity:0.1;}
	.st1{opacity:0.5;}
	.st2{opacity:0;fill:#FFFFFF;}
	.st3{opacity:4.761905e-02;fill:#F9FBFB;}
	.st4{opacity:9.523810e-02;fill:#F3F6F7;}
	.st5{opacity:0.1429;fill:#EEF2F4;}
	.st6{opacity:0.1905;fill:#E8EDF0;}
	.st7{opacity:0.2381;fill:#E2E9EC;}
	.st8{opacity:0.2857;fill:#DCE4E8;}
	.st9{opacity:0.3333;fill:#D7E0E5;}
	.st10{opacity:0.381;fill:#D1DCE1;}
	.st11{opacity:0.4286;fill:#CBD7DD;}
	.st12{opacity:0.4762;fill:#C5D3D9;}
	.st13{opacity:0.5238;fill:#C0CED6;}
	.st14{opacity:0.5714;fill:#BACAD2;}
	.st15{opacity:0.619;fill:#B4C5CE;}
	.st16{opacity:0.6667;fill:#AEC1CA;}
	.st17{opacity:0.7143;fill:#A9BDC7;}
	.st18{opacity:0.7619;fill:#A3B8C3;}
	.st19{opacity:0.8095;fill:#9DB4BF;}
	.st20{opacity:0.8571;fill:#97AFBB;}
	.st21{opacity:0.9048;fill:#92ABB8;}
	.st22{opacity:0.9524;fill:#8CA6B4;}
	.st23{fill:#86A2B0;}
	.st24{fill:#FFE3AB;}
	.st25{fill:url(#SVGID_1_);}
	.st26{fill:url(#SVGID_2_);}
	.st27{fill:url(#SVGID_3_);}
	.st28{fill:url(#SVGID_4_);}
	.st29{fill:url(#SVGID_5_);}
	.st30{fill:url(#SVGID_6_);}
	.st31{fill:url(#SVGID_7_);}
	.st32{fill:url(#SVGID_8_);}
	.st33{fill:url(#SVGID_9_);}
	.st34{fill:url(#SVGID_10_);}
	.st35{fill:url(#SVGID_11_);}
	.st36{fill:url(#SVGID_12_);}
	.st37{fill:url(#SVGID_13_);}
	.st38{fill:url(#SVGID_14_);}
	.st39{fill:url(#SVGID_15_);}
	.st40{fill:url(#SVGID_16_);}
	.st41{opacity:2.380952e-02;fill:#F9FBFB;}
	.st42{opacity:4.761905e-02;fill:#F3F6F7;}
	.st43{opacity:7.142857e-02;fill:#EEF2F4;}
	.st44{opacity:9.523810e-02;fill:#E8EDF0;}
	.st45{opacity:0.119;fill:#E2E9EC;}
	.st46{opacity:0.1429;fill:#DCE4E8;}
	.st47{opacity:0.1667;fill:#D7E0E5;}
	.st48{opacity:0.1905;fill:#D1DCE1;}
	.st49{opacity:0.2143;fill:#CBD7DD;}
	.st50{opacity:0.2381;fill:#C5D3D9;}
	.st51{opacity:0.2619;fill:#C0CED6;}
	.st52{opacity:0.2857;fill:#BACAD2;}
	.st53{opacity:0.3095;fill:#B4C5CE;}
	.st54{opacity:0.3333;fill:#AEC1CA;}
	.st55{opacity:0.3571;fill:#A9BDC7;}
	.st56{opacity:0.381;fill:#A3B8C3;}
	.st57{opacity:0.4048;fill:#9DB4BF;}
	.st58{opacity:0.4286;fill:#97AFBB;}
	.st59{opacity:0.4524;fill:#92ABB8;}
	.st60{opacity:0.4762;fill:#8CA6B4;}
	.st61{opacity:0.5;fill:#86A2B0;}
	.st62{fill:url(#SVGID_17_);}
	.st63{opacity:0.15;}
	.st64{fill:url(#SVGID_18_);}
	.st65{opacity:2.857143e-02;fill:#F9FBFB;}
	.st66{opacity:5.714286e-02;fill:#F3F6F7;}
	.st67{opacity:8.571429e-02;fill:#EEF2F4;}
	.st68{opacity:0.1143;fill:#E8EDF0;}
	.st69{opacity:0.1429;fill:#E2E9EC;}
	.st70{opacity:0.1714;fill:#DCE4E8;}
	.st71{opacity:0.2;fill:#D7E0E5;}
	.st72{opacity:0.2286;fill:#D1DCE1;}
	.st73{opacity:0.2571;fill:#CBD7DD;}
	.st74{opacity:0.2857;fill:#C5D3D9;}
	.st75{opacity:0.3143;fill:#C0CED6;}
	.st76{opacity:0.3429;fill:#BACAD2;}
	.st77{opacity:0.3714;fill:#B4C5CE;}
	.st78{opacity:0.4;fill:#AEC1CA;}
	.st79{opacity:0.4286;fill:#A9BDC7;}
	.st80{opacity:0.4571;fill:#A3B8C3;}
	.st81{opacity:0.4857;fill:#9DB4BF;}
	.st82{opacity:0.5143;fill:#97AFBB;}
	.st83{opacity:0.5429;fill:#92ABB8;}
	.st84{opacity:0.5714;fill:#8CA6B4;}
	.st85{opacity:0.6;fill:#86A2B0;}
	.st86{fill:url(#SVGID_19_);}
	.st87{fill:url(#SVGID_20_);}
	.st88{fill:url(#SVGID_21_);}
	.st89{opacity:0.2;}
	.st90{opacity:9.523810e-02;fill:#F4F6F8;}
	.st91{opacity:0.1905;fill:#E9EDF1;}
	.st92{opacity:0.2381;fill:#E3E9ED;}
	.st93{opacity:0.2857;fill:#DEE5EA;}
	.st94{opacity:0.3333;fill:#D8E0E6;}
	.st95{opacity:0.381;fill:#D3DCE3;}
	.st96{opacity:0.4286;fill:#CDD8DF;}
	.st97{opacity:0.4762;fill:#C8D3DC;}
	.st98{opacity:0.5238;fill:#C2CFD8;}
	.st99{opacity:0.5714;fill:#BDCAD5;}
	.st100{opacity:0.619;fill:#B7C6D1;}
	.st101{opacity:0.6667;fill:#B2C2CE;}
	.st102{opacity:0.7143;fill:#ACBDCA;}
	.st103{opacity:0.7619;fill:#A7B9C7;}
	.st104{opacity:0.8095;fill:#A1B5C3;}
	.st105{opacity:0.8571;fill:#9CB0C0;}
	.st106{opacity:0.9048;fill:#96ACBC;}
	.st107{opacity:0.9524;fill:#91A7B9;}
	.st108{fill:#8BA3B5;}
	.st109{fill:#EEF7FA;}
	.st110{fill:#E4F1F5;}
	.st111{fill:#FFFFFF;}
	.st112{fill:#E9F2F5;}
	.st113{opacity:0.3;}
	.st114{fill:url(#SVGID_22_);}
	.st115{fill:url(#SVGID_23_);}
	.st116{fill:url(#SVGID_24_);}
	.st117{fill:url(#SVGID_25_);}
	.st118{fill:url(#SVGID_26_);}
	.st119{fill:url(#SVGID_27_);}
	.st120{fill:url(#SVGID_28_);}
	.st121{fill:url(#SVGID_29_);}
	.st122{fill:url(#SVGID_30_);}
	.st123{fill:url(#SVGID_31_);}
	.st124{fill:url(#SVGID_32_);}
	.st125{fill:url(#SVGID_33_);}
	.st126{fill:url(#SVGID_34_);}
	.st127{fill:url(#SVGID_35_);}
	.st128{fill:url(#SVGID_36_);}
	.st129{fill:url(#SVGID_37_);}
	.st130{fill:url(#SVGID_38_);}
	.st131{fill:url(#SVGID_39_);}
	.st132{opacity:5.000000e-02;}
	.st133{opacity:0;fill:#515151;}
	.st134{opacity:4.761905e-02;fill:#545556;}
	.st135{opacity:9.523810e-02;fill:#57595B;}
	.st136{opacity:0.1429;fill:#595D5F;}
	.st137{opacity:0.1905;fill:#5C6164;}
	.st138{opacity:0.2381;fill:#5F6569;}
	.st139{opacity:0.2857;fill:#62686E;}
	.st140{opacity:0.3333;fill:#646C72;}
	.st141{opacity:0.381;fill:#677077;}
	.st142{opacity:0.4286;fill:#6A747C;}
	.st143{opacity:0.4762;fill:#6D7881;}
	.st144{opacity:0.5238;fill:#6F7C85;}
	.st145{opacity:0.5714;fill:#72808A;}
	.st146{opacity:0.619;fill:#75848F;}
	.st147{opacity:0.6667;fill:#788894;}
	.st148{opacity:0.7143;fill:#7A8C98;}
	.st149{opacity:0.7619;fill:#7D8F9D;}
	.st150{opacity:0.8095;fill:#8093A2;}
	.st151{opacity:0.8571;fill:#8397A7;}
	.st152{opacity:0.9048;fill:#859BAB;}
	.st153{opacity:0.9524;fill:#889FB0;}
	.st154{fill:#008DD4;}
	.st155{fill:url(#SVGID_40_);}
	.st156{fill:#4FC5FF;}
	.st157{fill:url(#SVGID_41_);}
	.st158{fill:url(#SVGID_42_);}
	.st159{fill:#63CCFF;}
	.st160{fill:#007FC9;}
	.st161{fill:#6ED8FF;}
	.st162{fill:#008CDE;}
	.st163{fill:#B3EDFF;}
	.st164{fill:#61D7FF;}
	.st165{fill:url(#SVGID_43_);}
	.st166{fill:url(#SVGID_44_);}
	.st167{opacity:2.580645e-02;fill:#505051;}
	.st168{opacity:5.161290e-02;fill:#4E4F51;}
	.st169{opacity:7.741936e-02;fill:#4D4F50;}
	.st170{opacity:0.1032;fill:#4C4E50;}
	.st171{opacity:0.129;fill:#4B4D50;}
	.st172{opacity:0.1548;fill:#494C50;}
	.st173{opacity:0.1806;fill:#484B4F;}
	.st174{opacity:0.2065;fill:#474B4F;}
	.st175{opacity:0.2323;fill:#464A4F;}
	.st176{opacity:0.2581;fill:#44494F;}
	.st177{opacity:0.2839;fill:#43484F;}
	.st178{opacity:0.3097;fill:#42474E;}
	.st179{opacity:0.3355;fill:#41474E;}
	.st180{opacity:0.3613;fill:#3F464E;}
	.st181{opacity:0.3871;fill:#3E454E;}
	.st182{opacity:0.4129;fill:#3D444D;}
	.st183{opacity:0.4387;fill:#3C434D;}
	.st184{opacity:0.4645;fill:#3A424D;}
	.st185{opacity:0.4903;fill:#39424D;}
	.st186{opacity:0.5161;fill:#38414C;}
	.st187{opacity:0.5419;fill:#37404C;}
	.st188{opacity:0.5677;fill:#353F4C;}
	.st189{opacity:0.5935;fill:#343E4C;}
	.st190{opacity:0.6194;fill:#333E4C;}
	.st191{opacity:0.6452;fill:#323D4B;}
	.st192{opacity:0.671;fill:#303C4B;}
	.st193{opacity:0.6968;fill:#2F3B4B;}
	.st194{opacity:0.7226;fill:#2E3A4B;}
	.st195{opacity:0.7484;fill:#2D3A4A;}
	.st196{opacity:0.7742;fill:#2B394A;}
	.st197{opacity:0.8;fill:#2A384A;}
	.st198{fill:url(#SVGID_45_);}
	.st199{fill:url(#SVGID_46_);}
	.st200{fill:#91D5EB;}
	.st201{fill:#E1F0FA;}
	.st202{fill:#9DDEF2;}
	.st203{fill:#A2DEF2;}
	.st204{fill:#BEE9F7;}
	.st205{fill:#C8EEFA;}
	.st206{fill:url(#SVGID_47_);}
	.st207{opacity:0.3;fill:url(#SVGID_48_);}
	.st208{opacity:2.580645e-02;fill:#FBFCFC;}
	.st209{opacity:5.161290e-02;fill:#F7F9FA;}
	.st210{opacity:7.741936e-02;fill:#F3F6F7;}
	.st211{opacity:0.1032;fill:#EFF3F5;}
	.st212{opacity:0.129;fill:#EBF0F2;}
	.st213{opacity:0.1548;fill:#E8EDF0;}
	.st214{opacity:0.1806;fill:#E4EAED;}
	.st215{opacity:0.2065;fill:#E0E7EB;}
	.st216{opacity:0.2323;fill:#DCE4E8;}
	.st217{opacity:0.2581;fill:#D8E1E6;}
	.st218{opacity:0.2839;fill:#D4DEE3;}
	.st219{opacity:0.3097;fill:#D0DBE0;}
	.st220{opacity:0.3355;fill:#CCD8DE;}
	.st221{opacity:0.3613;fill:#C8D5DB;}
	.st222{opacity:0.3871;fill:#C4D2D9;}
	.st223{opacity:0.4129;fill:#C1CFD6;}
	.st224{opacity:0.4387;fill:#BDCCD4;}
	.st225{opacity:0.4645;fill:#B9C9D1;}
	.st226{opacity:0.4903;fill:#B5C6CF;}
	.st227{opacity:0.5161;fill:#B1C3CC;}
	.st228{opacity:0.5419;fill:#ADC0C9;}
	.st229{opacity:0.5677;fill:#A9BDC7;}
	.st230{opacity:0.5935;fill:#A5BAC4;}
	.st231{opacity:0.6194;fill:#A1B7C2;}
	.st232{opacity:0.6452;fill:#9DB4BF;}
	.st233{opacity:0.671;fill:#9AB1BD;}
	.st234{opacity:0.6968;fill:#96AEBA;}
	.st235{opacity:0.7226;fill:#92ABB8;}
	.st236{opacity:0.7484;fill:#8EA8B5;}
	.st237{opacity:0.7742;fill:#8AA5B3;}
	.st238{opacity:0.8;fill:#86A2B0;}
	.st239{fill:url(#SVGID_49_);}
	.st240{clip-path:url(#SVGID_51_);}
	.st241{fill:#0A4D80;}
	.st242{fill:url(#SVGID_52_);}
	.st243{clip-path:url(#SVGID_54_);}
</style>
<g>
	<g class="st0">
		<g class="st1">
			<path class="st2" d="M327.5,238.5c-20.1-7.6-21.4-28.3-3.2-45.4c9.6-9,25-14.3,43.3-11.5c19.9,3.1,28.3,18.9,15.2,35.9
				C370.1,234.2,346.3,245.6,327.5,238.5z"/>
			<path class="st3" d="M328.2,237.6c-19.8-7.2-21.1-27.5-3.2-44c9.6-8.8,24.7-13.9,42.4-11.2c19.3,2.9,27.4,18.3,14.5,34.9
				C369.5,233.3,346.6,244.3,328.2,237.6z"/>
			<path class="st4" d="M328.9,236.7c-19.4-6.8-20.7-26.8-3.2-42.7c9.5-8.7,24.5-13.5,41.5-10.9c18.6,2.8,26.6,17.7,13.8,33.9
				C369,232.5,346.9,243,328.9,236.7z"/>
			<path class="st5" d="M329.6,235.7c-19.1-6.4-20.3-26-3.2-41.3c9.5-8.5,24.2-13.1,40.6-10.7c18,2.7,25.7,17,13.1,32.9
				C368.4,231.6,347.2,241.7,329.6,235.7z"/>
			<path class="st6" d="M330.3,234.8c-18.7-6-19.9-25.2-3.2-39.9c9.5-8.4,24-12.8,39.7-10.4c17.4,2.5,24.8,16.4,12.4,31.9
				C367.8,230.8,347.5,240.3,330.3,234.8z"/>
			<path class="st7" d="M331,233.9c-18.4-5.6-19.5-24.4-3.2-38.5c9.5-8.2,23.7-12.4,38.8-10.2c16.8,2.4,24,15.8,11.7,30.9
				C367.2,229.9,347.8,239,331,233.9z"/>
			<path class="st8" d="M331.7,232.9c-18-5.2-19.1-23.6-3.2-37.2c9.5-8.1,23.5-12,37.9-9.9c16.1,2.3,23.1,15.2,11,30
				C366.7,229,348.1,237.7,331.7,232.9z"/>
			<path class="st9" d="M332.4,232c-17.7-4.8-18.7-22.8-3.2-35.8c9.5-8,23.2-11.6,37-9.7c15.5,2.1,22.3,14.6,10.3,29
				C366.1,228.2,348.4,236.4,332.4,232z"/>
			<path class="st10" d="M333.1,231.1c-17.3-4.4-18.3-22-3.2-34.4c9.4-7.8,23-11.2,36.1-9.4c14.9,2,21.4,13.9,9.6,28
				C365.6,227.3,348.7,235,333.1,231.1z"/>
			<path class="st11" d="M333.9,230.1c-17-4-17.9-21.2-3.2-33.1c9.4-7.6,22.7-10.8,35.2-9.1c14.2,1.9,20.6,13.3,8.9,27
				C365,226.5,349,233.7,333.9,230.1z"/>
			<path class="st12" d="M334.6,229.2c-16.6-3.6-17.5-20.4-3.2-31.7c9.4-7.5,22.5-10.4,34.3-8.9c13.6,1.8,19.7,12.7,8.2,26
				C364.5,225.6,349.3,232.4,334.6,229.2z"/>
			<path class="st13" d="M335.3,228.3c-16.3-3.2-17-19.6-3.2-30.3c9.4-7.3,22.2-10,33.4-8.6c13,1.6,18.9,12.1,7.6,25
				C363.9,224.8,349.6,231.1,335.3,228.3z"/>
			<path class="st14" d="M336,227.3c-16-2.8-16.6-18.7-3.2-29c9.4-7.2,22-9.7,32.5-8.4c12.3,1.5,18,11.5,6.9,24
				C363.4,223.9,349.9,229.8,336,227.3z"/>
			<path class="st15" d="M336.7,226.4c-15.6-2.4-16.2-17.9-3.2-27.6c9.4-7,21.7-9.3,31.6-8.1c11.7,1.4,17.2,10.9,6.2,23.1
				C362.8,223.1,350.1,228.5,336.7,226.4z"/>
			<path class="st16" d="M337.4,225.5c-15.3-1.9-15.8-17.1-3.2-26.2c9.4-6.8,21.5-8.9,30.7-7.9c11.1,1.2,16.3,10.3,5.5,22.1
				C362.3,222.2,350.4,227.1,337.4,225.5z"/>
			<path class="st17" d="M338.1,224.6c-14.9-1.5-15.3-16.3-3.2-24.9c9.4-6.7,21.2-8.5,29.8-7.6c10.4,1.1,15.5,9.7,4.8,21.1
				C361.7,221.4,350.7,225.8,338.1,224.6z"/>
			<path class="st18" d="M338.8,223.6c-14.6-1.1-14.9-15.4-3.2-23.5c9.4-6.5,20.9-8.1,28.9-7.4c9.8,0.9,14.7,9.1,4.1,20.1
				C361.2,220.5,351,224.5,338.8,223.6z"/>
			<path class="st19" d="M339.5,222.7c-14.3-0.7-14.5-14.6-3.2-22.1c9.4-6.3,20.7-7.7,28-7.1c9.2,0.8,13.9,8.5,3.4,19.1
				C360.6,219.7,351.3,223.2,339.5,222.7z"/>
			<path class="st20" d="M340.2,221.8c-13.9-0.2-14-13.7-3.2-20.8c9.5-6.1,20.4-7.4,27.1-6.8c8.5,0.7,13,7.9,2.7,18.1
				C360.1,218.9,351.6,221.9,340.2,221.8z"/>
			<path class="st21" d="M340.9,220.8c-13.6,0.2-13.6-12.9-3.2-19.4c9.5-5.9,20.2-7,26.2-6.6c7.9,0.5,12.2,7.3,2,17.2
				C359.6,218,351.9,220.6,340.9,220.8z"/>
			<path class="st22" d="M341.6,219.9c-13.2,0.7-13.1-12-3.2-18c9.5-5.7,19.9-6.6,25.3-6.3c7.3,0.4,11.4,6.8,1.3,16.2
				C359.1,217.2,352.2,219.4,341.6,219.9z"/>
			<path class="st23" d="M342.3,219c-12.9,1.1-12.7-11.2-3.2-16.7c9.5-5.5,19.7-6.2,24.4-6.1c6.7,0.2,10.6,6.2,0.6,15.2
				C358.5,216.4,352.5,218.1,342.3,219z"/>
		</g>
		<g class="st1">
			<path class="st2" d="M303.7,185.5c-19.6,8.9-39.5-7.5-38.7-32.5c0.4-13.1,7.5-27.8,22.5-38.7c16.2-11.9,38.2,1.3,41.1,22.6
				C331.3,157.6,322,177.2,303.7,185.5z"/>
			<path class="st3" d="M303.3,184.2c-19.1,8.9-38.4-7.1-37.5-31.4c0.5-13,7.6-27.3,22-37.9c15.7-11.6,37,1.1,39.6,22
				C330.1,157,321.1,175.9,303.3,184.2z"/>
			<path class="st4" d="M303,182.9c-18.5,9-37.4-6.7-36.4-30.3c0.6-12.9,7.7-26.9,21.6-37.1c15.1-11.2,35.7,0.9,38.2,21.4
				C328.8,156.4,320.1,174.6,303,182.9z"/>
			<path class="st5" d="M302.6,181.6c-18,9-36.4-6.3-35.2-29.2c0.7-12.8,7.8-26.4,21.1-36.3c14.6-10.9,34.4,0.7,36.8,20.8
				C327.5,155.8,319.2,173.3,302.6,181.6z"/>
			<path class="st6" d="M302.2,180.3c-17.5,9-35.3-5.9-34-28.1c0.8-12.6,7.9-26,20.6-35.5c14.1-10.5,33.1,0.5,35.4,20.2
				C326.3,155.2,318.3,172.1,302.2,180.3z"/>
			<path class="st7" d="M301.9,179c-16.9,9.1-34.3-5.5-32.8-27c0.8-12.5,8-25.5,20.2-34.7c13.5-10.2,31.9,0.3,34,19.7
				C325.1,154.6,317.3,170.8,301.9,179z"/>
			<path class="st8" d="M301.5,177.8c-16.4,9.1-33.2-5.1-31.7-25.9c0.9-12.4,8.1-25.1,19.7-33.8c13-9.8,30.6,0.1,32.5,19.1
				C323.8,154.1,316.4,169.5,301.5,177.8z"/>
			<path class="st9" d="M301.1,176.5c-15.9,9.1-32.2-4.7-30.5-24.8c1-12.3,8.2-24.6,19.3-33c12.5-9.4,29.3-0.1,31.1,18.5
				C322.6,153.5,315.5,168.2,301.1,176.5z"/>
			<path class="st10" d="M300.8,175.2c-15.4,9.2-31.1-4.3-29.3-23.7c1.1-12.2,8.3-24.2,18.8-32.2c11.9-9.1,28-0.4,29.7,17.9
				C321.4,152.9,314.5,167,300.8,175.2z"/>
			<path class="st11" d="M300.4,173.9c-14.8,9.2-30.1-3.9-28.1-22.7c1.2-12.1,8.4-23.7,18.4-31.4c11.4-8.7,26.8-0.6,28.3,17.3
				C320.1,152.3,313.6,165.7,300.4,173.9z"/>
			<path class="st12" d="M300,172.6c-14.3,9.3-29-3.4-27-21.6c1.3-12,8.5-23.3,17.9-30.6c10.8-8.4,25.5-0.8,26.8,16.7
				C318.9,151.7,312.7,164.4,300,172.6z"/>
			<path class="st13" d="M299.6,171.3c-13.8,9.3-27.9-3-25.8-20.5c1.5-11.8,8.6-22.8,17.5-29.8c10.3-8,24.2-1,25.4,16.1
				C317.7,151.1,311.7,163.2,299.6,171.3z"/>
			<path class="st14" d="M299.3,170c-13.2,9.3-26.8-2.6-24.6-19.4c1.6-11.7,8.7-22.4,17-28.9c9.8-7.7,23-1.2,24,15.6
				C316.4,150.5,310.8,161.9,299.3,170z"/>
			<path class="st15" d="M298.9,168.8c-12.7,9.4-25.8-2.2-23.4-18.3c1.7-11.6,8.8-21.9,16.6-28.1c9.2-7.3,21.7-1.4,22.6,15
				C315.2,149.9,309.9,160.6,298.9,168.8z"/>
			<path class="st16" d="M298.5,167.5c-12.1,9.5-24.7-1.8-22.3-17.2c1.8-11.5,8.8-21.5,16.1-27.3c8.7-7,20.5-1.6,21.1,14.4
				C314,149.3,308.9,159.4,298.5,167.5z"/>
			<path class="st17" d="M298.2,166.2c-11.6,9.5-23.6-1.4-21.1-16.1c1.9-11.4,8.9-21,15.6-26.5c8.1-6.6,19.2-1.9,19.7,13.8
				C312.8,148.7,308,158.1,298.2,166.2z"/>
			<path class="st18" d="M297.8,164.9c-11.1,9.6-22.5-1-19.9-15c2-11.3,9-20.6,15.2-25.7c7.6-6.3,18-2.1,18.3,13.2
				C311.6,148.1,307.1,156.9,297.8,164.9z"/>
			<path class="st19" d="M297.4,163.6c-10.5,9.6-21.4-0.6-18.8-13.9c2.2-11.1,9.1-20.1,14.7-24.8c7.1-5.9,16.7-2.3,16.9,12.6
				C310.4,147.5,306.2,155.6,297.4,163.6z"/>
			<path class="st20" d="M297.1,162.3c-10,9.7-20.2-0.2-17.6-12.8c2.3-11,9.2-19.7,14.3-24c6.5-5.6,15.5-2.5,15.4,12.1
				C309.2,146.9,305.2,154.4,297.1,162.3z"/>
			<path class="st21" d="M296.7,161c-9.4,9.8-19.1,0.3-16.4-11.7c2.5-10.9,9.3-19.2,13.8-23.2c6-5.3,14.3-2.7,14,11.5
				C308,146.3,304.3,153.1,296.7,161z"/>
			<path class="st22" d="M296.3,159.8c-8.9,9.8-18,0.7-15.2-10.6c2.6-10.8,9.4-18.8,13.4-22.4c5.4-4.9,13.1-2.9,12.6,10.9
				C306.8,145.7,303.4,151.9,296.3,159.8z"/>
			<path class="st23" d="M296,158.5c-8.3,9.9-16.9,1.1-14.1-9.5c2.8-10.6,9.5-18.3,12.9-21.6c4.9-4.6,11.9-3.1,11.2,10.3
				C305.6,145.1,302.5,150.6,296,158.5z"/>
		</g>
		<g class="st1">
			<path class="st2" d="M241.7,162.3c-6.2,20.6-26.8,23.3-45.1,6.3c-9.6-8.9-16-23.9-14.4-42.4c1.7-20.1,24.9-23,42.8-11.2
				C242.5,126.7,247.5,143.1,241.7,162.3z"/>
			<path class="st3" d="M240.7,161.7c-5.8,20.2-26,22.9-43.7,6.2c-9.5-8.9-15.6-23.7-14.1-41.5c1.6-19.4,24-22.5,41.5-10.7
				C241.3,127,246.1,142.9,240.7,161.7z"/>
			<path class="st4" d="M239.7,161.1c-5.5,19.9-25.3,22.5-42.3,6.1c-9.3-8.9-15.2-23.5-13.8-40.7c1.5-18.8,23.1-21.8,40.2-10.3
				C240.1,127.3,244.8,142.7,239.7,161.1z"/>
			<path class="st5" d="M238.7,160.4c-5.1,19.5-24.5,22-41,6c-9.2-8.9-14.8-23.3-13.4-39.8c1.4-18.2,22.1-21.3,38.8-9.8
				C238.9,127.6,243.4,142.5,238.7,160.4z"/>
			<path class="st6" d="M237.7,159.8c-4.7,19.1-23.7,21.6-39.6,5.9c-9-8.9-14.4-23-13.1-38.9c1.3-17.5,21.2-20.7,37.5-9.4
				C237.6,127.9,242.1,142.3,237.7,159.8z"/>
			<path class="st7" d="M236.8,159.2c-4.3,18.7-23,21.1-38.2,5.8c-8.9-8.9-14-22.8-12.8-38c1.2-16.9,20.2-20.1,36.2-8.9
				C236.4,128.2,240.7,142.1,236.8,159.2z"/>
			<path class="st8" d="M235.8,158.5c-4,18.4-22.2,20.7-36.9,5.8c-8.7-8.9-13.6-22.6-12.5-37.1c1.1-16.2,19.3-19.5,34.9-8.4
				C235.2,128.6,239.4,141.9,235.8,158.5z"/>
			<path class="st9" d="M234.8,157.9c-3.6,18-21.5,20.2-35.5,5.7c-8.6-8.9-13.2-22.4-12.2-36.3c1.1-15.6,18.4-18.9,33.6-8
				C234,128.9,238,141.7,234.8,157.9z"/>
			<path class="st10" d="M233.8,157.2c-3.2,17.6-20.7,19.8-34.1,5.6c-8.4-8.9-12.7-22.1-11.9-35.4c1-15,17.4-18.3,32.2-7.5
				C232.8,129.2,236.7,141.5,233.8,157.2z"/>
			<path class="st11" d="M232.9,156.6c-2.8,17.2-19.9,19.3-32.8,5.5c-8.3-8.9-12.3-21.9-11.5-34.5c0.9-14.3,16.5-17.7,30.9-7.1
				C231.6,129.5,235.4,141.3,232.9,156.6z"/>
			<path class="st12" d="M231.9,156c-2.4,16.9-19.1,18.8-31.4,5.4c-8.1-8.9-11.9-21.7-11.2-33.6c0.8-13.7,15.6-17.2,29.6-6.6
				C230.4,129.8,234,141.1,231.9,156z"/>
			<path class="st13" d="M230.9,155.3c-2.1,16.5-18.3,18.3-30.1,5.3c-8-8.9-11.5-21.5-10.9-32.7c0.7-13,14.6-16.6,28.3-6.2
				C229.2,130.1,232.7,140.9,230.9,155.3z"/>
			<path class="st14" d="M229.9,154.7c-1.7,16.1-17.6,17.9-28.7,5.2c-7.8-8.9-11.1-21.2-10.6-31.9c0.6-12.4,13.7-16,27-5.7
				C228.1,130.4,231.4,140.7,229.9,154.7z"/>
			<path class="st15" d="M228.9,154c-1.3,15.7-16.8,17.4-27.3,5.1c-7.7-8.9-10.7-21-10.3-31c0.5-11.8,12.8-15.4,25.7-5.3
				C226.9,130.7,230,140.5,228.9,154z"/>
			<path class="st16" d="M228,153.4c-0.9,15.4-16,16.9-26,5c-7.5-8.9-10.3-20.8-10-30.1c0.5-11.1,11.8-14.9,24.3-4.8
				C225.7,131,228.7,140.3,228,153.4z"/>
			<path class="st17" d="M227,152.8c-0.5,15-15.2,16.4-24.6,4.9c-7.3-8.9-9.9-20.6-9.6-29.2c0.4-10.5,10.9-14.3,23-4.4
				C224.5,131.2,227.4,140.1,227,152.8z"/>
			<path class="st18" d="M226,152.1c-0.1,14.6-14.4,15.9-23.2,4.8c-7.1-9-9.5-20.3-9.3-28.3c0.3-9.9,10-13.7,21.7-3.9
				C223.3,131.5,226.1,139.9,226,152.1z"/>
			<path class="st19" d="M225,151.5c0.3,14.3-13.6,15.4-21.9,4.7c-7-9-9.2-20.1-9-27.4c0.2-9.2,9.1-13.2,20.4-3.5
				C222.1,131.8,224.8,139.7,225,151.5z"/>
			<path class="st20" d="M224.1,150.9c0.7,13.9-12.7,14.9-20.5,4.6c-6.8-9-8.8-19.9-8.7-26.6c0.1-8.6,8.2-12.6,19.1-3
				C220.9,132.1,223.5,139.5,224.1,150.9z"/>
			<path class="st21" d="M223.1,150.2c1.1,13.5-11.9,14.4-19.1,4.5c-6.6-9-8.4-19.7-8.4-25.7c0-7.9,7.3-12.1,17.8-2.5
				C219.8,132.4,222.1,139.3,223.1,150.2z"/>
			<path class="st22" d="M222.1,149.6c1.6,13.1-11.1,13.9-17.8,4.4c-6.4-9.1-8-19.4-8.1-24.8c-0.1-7.3,6.4-11.5,16.4-2.1
				C218.6,132.6,220.8,139.1,222.1,149.6z"/>
			<path class="st23" d="M221.1,148.9c2,12.8-10.3,13.4-16.4,4.3c-6.2-9.1-7.6-19.2-7.7-23.9c-0.2-6.7,5.5-11,15.1-1.6
				C217.4,132.9,219.5,138.9,221.1,148.9z"/>
		</g>
		<g class="st1">
			<path class="st2" d="M311.9,299.1c-10-19,2.7-35.4,27.7-36.1c13.1-0.4,28.2,5.9,40,20.2c12.8,15.5,8.6,32.9-12.4,36.9
				C346.6,324,321.3,316.9,311.9,299.1z"/>
			<path class="st3" d="M313.1,298.8c-10-18.5,2.5-34.6,26.8-35.1c13-0.3,27.7,6,39.2,19.8c12.5,15,8.4,31.9-12.3,35.7
				C346.8,323.1,322.4,316.1,313.1,298.8z"/>
			<path class="st4" d="M314.2,298.6c-10-18,2.3-33.7,25.9-34c12.9-0.2,27.3,6.1,38.3,19.4c12.1,14.5,8.1,30.8-12.2,34.5
				C346.9,322,323.5,315.3,314.2,298.6z"/>
			<path class="st5" d="M315.4,298.4c-10-17.5,2.1-33.2,25-33c12.8,0.1,26.8,6.2,37.5,19c11.7,14,7.9,29.8-12,33.3
				C347.1,321,324.6,314.5,315.4,298.4z"/>
			<path class="st6" d="M316.5,298.1c-10-16.9,1.8-32.4,24.1-32c12.7,0.2,26.4,6.4,36.6,18.6c11.3,13.4,7.7,28.7-11.9,32.1
				C347.2,320,325.7,313.7,316.5,298.1z"/>
			<path class="st7" d="M317.6,297.9c-10-16.4,1.6-31.2,23.2-31c12.6,0.1,26,6.5,35.8,18.1c10.9,12.9,7.5,27.7-11.8,30.9
				C347.4,319,326.8,312.9,317.6,297.9z"/>
			<path class="st8" d="M318.8,297.7c-10-15.9,1.4-30.3,22.3-29.9c12.5,0.2,25.5,6.6,34.9,17.7c10.6,12.4,7.2,26.7-11.6,29.7
				C347.5,317.9,327.9,312.1,318.8,297.7z"/>
			<path class="st9" d="M319.9,297.5c-10-15.3,1.1-29.4,21.4-28.9c12.3,0.3,25.1,6.7,34.1,17.3c10.2,11.9,7,25.7-11.5,28.5
				C347.7,316.9,329,311.3,319.9,297.5z"/>
			<path class="st10" d="M321.1,297.2c-10-14.8,0.9-28.6,20.5-27.9c12.2,0.4,24.6,6.9,33.3,16.9c9.8,11.4,6.8,24.6-11.4,27.3
				C347.8,315.9,330.1,310.5,321.1,297.2z"/>
			<path class="st11" d="M322.2,297c-10.1-14.3,0.7-27.7,19.6-26.9c12.1,0.5,24.2,7,32.4,16.5c9.4,10.9,6.5,23.6-11.2,26.1
				C348,314.9,331.2,309.7,322.2,297z"/>
			<path class="st12" d="M323.4,296.8c-10.1-13.7,0.5-26.8,18.7-25.8c12,0.7,23.7,7.1,31.6,16.1c9,10.3,6.3,22.6-11.1,24.9
				C348.1,313.9,332.3,308.9,323.4,296.8z"/>
			<path class="st13" d="M324.5,296.5c-10.1-13.2,0.2-25.9,17.8-24.8c11.9,0.8,23.3,7.2,30.7,15.7c8.6,9.8,6.1,21.6-11,23.7
				C348.3,312.9,333.4,308.1,324.5,296.5z"/>
			<path class="st14" d="M325.7,296.3c-10.1-12.7,0-25.1,16.8-23.8c11.8,0.9,22.8,7.3,29.9,15.3c8.2,9.3,5.9,20.6-10.8,22.5
				C348.4,311.9,334.5,307.3,325.7,296.3z"/>
			<path class="st15" d="M326.8,296.1c-10.1-12.1-0.2-24.2,15.9-22.8c11.7,1,22.4,7.5,29,14.9c7.9,8.8,5.6,19.6-10.7,21.3
				C348.6,310.9,335.5,306.5,326.8,296.1z"/>
			<path class="st16" d="M328,295.8c-10.1-11.6-0.4-23.3,15-21.7c11.6,1.1,21.9,7.6,28.2,14.5c7.5,8.3,5.4,18.5-10.6,20.1
				C348.7,309.9,336.6,305.8,328,295.8z"/>
			<path class="st17" d="M329.1,295.6c-10.2-11-0.7-22.3,14.1-20.7c11.5,1.3,21.5,7.7,27.3,14.1c7.1,7.7,5.2,17.5-10.4,18.9
				C348.9,308.9,337.7,305,329.1,295.6z"/>
			<path class="st18" d="M330.2,295.4c-10.2-10.5-0.9-21.4,13.2-19.7c11.4,1.4,21.1,7.8,26.5,13.7c6.7,7.2,4.9,16.6-10.3,17.7
				C349.1,307.9,338.8,304.2,330.2,295.4z"/>
			<path class="st19" d="M331.4,295.2c-10.2-10-1.1-20.5,12.3-18.7c11.3,1.5,20.6,7.9,25.7,13.3c6.3,6.7,4.7,15.6-10.2,16.5
				C349.2,307,339.9,303.4,331.4,295.2z"/>
			<path class="st20" d="M332.5,294.9c-10.3-9.4-1.4-19.6,11.4-17.6c11.1,1.7,20.2,8,24.8,12.9c6,6.2,4.5,14.6-10,15.3
				C349.4,306,340.9,302.6,332.5,294.9z"/>
			<path class="st21" d="M333.7,294.7c-10.3-8.8-1.6-18.6,10.5-16.6c11,1.8,19.7,8.2,24,12.5c5.6,5.6,4.3,13.6-9.9,14.2
				C349.5,305,342,301.8,333.7,294.7z"/>
			<path class="st22" d="M334.8,294.5c-10.3-8.3-1.8-17.7,9.6-15.6c10.9,2,19.3,8.3,23.1,12.1c5.2,5.1,4,12.7-9.8,13
				C349.7,304,343.1,301.1,334.8,294.5z"/>
			<path class="st23" d="M336,294.2c-10.4-7.7-2.1-16.8,8.7-14.6c10.8,2.2,18.9,8.4,22.3,11.6c4.8,4.6,3.8,11.7-9.6,11.8
				C349.8,303.1,344.2,300.3,336,294.2z"/>
		</g>
		<g class="st1">
			<path class="st2" d="M262.8,329.7c6.6-20.5,27.2-22.8,45.2-5.4c9.4,9.1,15.5,24.2,13.6,42.7c-2.1,20.1-17.4,29.2-35.1,17
				C269.2,372,256.6,348.8,262.8,329.7z"/>
			<path class="st3" d="M263.6,330.1c6.2-20.1,26.5-22.3,43.9-5.3c9.3,9.1,15.1,23.9,13.2,41.6c-2,19.4-16.9,28.4-34.2,16.3
				C269.9,371.1,257.8,348.8,263.6,330.1z"/>
			<path class="st4" d="M264.4,330.5c5.8-19.7,25.9-21.9,42.6-5.2c9.1,9.1,14.6,23.5,12.9,40.6c-1.9,18.8-16.4,27.6-33.3,15.7
				C270.5,370.2,258.9,348.8,264.4,330.5z"/>
			<path class="st5" d="M265.1,330.9c5.5-19.4,25.2-21.4,41.4-5.1c9,9.1,14.2,23.1,12.5,39.5c-1.8,18.1-15.9,26.8-32.4,15.1
				C271.2,369.4,260.1,348.8,265.1,330.9z"/>
			<path class="st6" d="M265.9,331.3c5.1-19,24.6-20.9,40.1-5c8.9,9.1,13.8,22.7,12.2,38.5c-1.7,17.5-15.4,26.1-31.5,14.5
				C271.8,368.5,261.2,348.7,265.9,331.3z"/>
			<path class="st7" d="M266.7,331.7c4.7-18.6,23.9-20.5,38.9-4.9c8.7,9.1,13.3,22.3,11.9,37.5c-1.6,16.9-14.9,25.3-30.6,13.8
				C272.5,367.7,262.4,348.7,266.7,331.7z"/>
			<path class="st8" d="M267.5,332.1c4.3-18.3,23.2-20,37.6-4.8c8.6,9.1,12.9,21.9,11.5,36.4c-1.5,16.2-14.4,24.5-29.7,13.2
				C273.1,366.8,263.5,348.7,267.5,332.1z"/>
			<path class="st9" d="M268.2,332.5c3.9-17.9,22.6-19.5,36.3-4.7c8.4,9,12.4,21.5,11.2,35.4c-1.4,15.6-13.8,23.8-28.8,12.6
				C273.7,366,264.7,348.7,268.2,332.5z"/>
			<path class="st10" d="M269,332.9c3.5-17.5,21.9-19,35.1-4.6c8.3,9,12,21.1,10.8,34.3c-1.3,14.9-13.3,23-27.9,12
				C274.4,365.1,265.8,348.7,269,332.9z"/>
			<path class="st11" d="M269.8,333.3c3.1-17.2,21.2-18.5,33.8-4.5c8.1,9,11.5,20.7,10.5,33.3c-1.2,14.3-12.8,22.3-27,11.3
				C275,364.3,267,348.6,269.8,333.3z"/>
			<path class="st12" d="M270.6,333.7c2.8-16.8,20.5-18,32.5-4.3c7.9,9,11.1,20.3,10.1,32.2c-1.1,13.7-12.3,21.5-26.2,10.7
				C275.7,363.4,268.1,348.6,270.6,333.7z"/>
			<path class="st13" d="M271.3,334.1c2.4-16.4,19.8-17.5,31.3-4.2c7.8,9,10.6,19.9,9.8,31.2c-1,13-11.8,20.7-25.3,10.1
				C276.3,362.6,269.3,348.6,271.3,334.1z"/>
			<path class="st14" d="M272.1,334.6c2-16.1,19.1-17,30-4.1c7.6,9,10.2,19.5,9.4,30.1c-0.9,12.4-11.3,20-24.4,9.5
				C276.9,361.7,270.4,348.5,272.1,334.6z"/>
			<path class="st15" d="M272.9,335c1.6-15.7,18.4-16.5,28.8-4c7.5,9.1,9.8,19.1,9.1,29.1c-0.8,11.8-10.8,19.2-23.5,8.8
				C277.6,360.9,271.5,348.5,272.9,335z"/>
			<path class="st16" d="M273.7,335.4c1.2-15.4,17.7-16,27.5-3.9c7.3,9.1,9.3,18.7,8.8,28c-0.7,11.1-10.3,18.5-22.6,8.2
				C278.2,360.1,272.7,348.5,273.7,335.4z"/>
			<path class="st17" d="M274.4,335.8c0.8-15,17-15.5,26.2-3.8c7.1,9.1,8.9,18.3,8.4,27c-0.6,10.5-9.8,17.8-21.7,7.6
				C278.8,359.2,273.8,348.5,274.4,335.8z"/>
			<path class="st18" d="M275.2,336.2c0.4-14.6,16.3-15,25-3.7c7,9.1,8.4,18,8.1,26c-0.5,9.8-9.3,17-20.8,7
				C279.4,358.4,274.9,348.4,275.2,336.2z"/>
			<path class="st19" d="M276,336.6c-0.1-14.3,15.6-14.5,23.7-3.6c6.8,9.1,8,17.6,7.7,24.9c-0.3,9.2-8.8,16.3-19.9,6.3
				C280.1,357.6,276,348.4,276,336.6z"/>
			<path class="st20" d="M276.8,337c-0.5-13.9,14.9-13.9,22.4-3.5c6.6,9.1,7.6,17.2,7.4,23.9c-0.2,8.6-8.3,15.6-19,5.7
				C280.7,356.8,277.2,348.4,276.8,337z"/>
			<path class="st21" d="M277.6,337.4c-0.9-13.5,14.2-13.4,21.2-3.4c6.4,9.2,7.1,16.8,7,22.8c-0.1,7.9-7.8,14.8-18.2,5.1
				C281.3,355.9,278.3,348.4,277.6,337.4z"/>
			<path class="st22" d="M278.3,337.8c-1.3-13.2,13.4-12.9,19.9-3.3c6.2,9.2,6.7,16.4,6.7,21.8c0,7.3-7.4,14.1-17.3,4.5
				C281.9,355.1,279.4,348.3,278.3,337.8z"/>
			<path class="st23" d="M279.1,338.2c-1.7-12.8,12.7-12.3,18.7-3.1c6,9.2,6.3,16,6.4,20.7c0.1,6.7-6.9,13.4-16.4,3.8
				C282.5,354.3,280.5,348.3,279.1,338.2z"/>
		</g>
		<g class="st1">
			<path class="st2" d="M202.2,320.3c18.6-10.8,35.5,1.3,37.2,26.2c0.9,13.1-4.7,28.4-18.5,40.8c-15,13.5-32.5,10-37.4-10.9
				C178.7,356,184.8,330.4,202.2,320.3z"/>
			<path class="st3" d="M202.4,321c18-10.6,34.5,0.9,36.1,25.2c0.9,13-4.8,27.9-18.1,39.9c-14.5,13.1-31.5,9.8-36.2-10.7
				C179.6,355.7,185.6,330.9,202.4,321z"/>
			<path class="st4" d="M202.6,321.8c17.3-10.3,33.4,0.6,35,24.2c0.8,12.8-4.9,27.5-17.6,39.1c-14,12.7-30.5,9.6-35-10.5
				C180.6,355.4,186.4,331.4,202.6,321.8z"/>
			<path class="st5" d="M202.7,322.6c16.7-10.1,32.5,0.3,33.9,23.3c0.8,12.7-4.9,27-17.2,38.2c-13.5,12.3-29.5,9.4-33.9-10.4
				C181.5,355.1,187.1,332,202.7,322.6z"/>
			<path class="st6" d="M202.9,323.4c16.1-9.8,31.5,0,32.8,22.3c0.8,12.6-5,26.6-16.8,37.3c-12.9,11.9-28.5,9.2-32.7-10.2
				C182.4,354.8,187.9,332.5,202.9,323.4z"/>
			<path class="st7" d="M203.1,324.2c15.4-9.6,30.4-0.3,31.7,21.3c0.7,12.5-5.1,26.1-16.3,36.4c-12.4,11.5-27.5,9-31.5-10
				C183.3,354.5,188.7,333.1,203.1,324.2z"/>
			<path class="st8" d="M203.2,324.9c14.8-9.4,29.4-0.6,30.6,20.3c0.7,12.3-5.1,25.7-15.9,35.6c-11.9,11.1-26.5,8.8-30.3-9.9
				C184.2,354.2,189.4,333.6,203.2,324.9z"/>
			<path class="st9" d="M203.4,325.7c14.2-9.1,28.4-0.9,29.5,19.3c0.6,12.2-5.2,25.2-15.4,34.7c-11.4,10.7-25.5,8.7-29.1-9.7
				C185.1,353.9,190.2,334.1,203.4,325.7z"/>
			<path class="st10" d="M203.6,326.5c13.5-8.9,27.4-1.2,28.4,18.4c0.6,12.1-5.3,24.8-15,33.8c-10.9,10.3-24.5,8.5-27.9-9.5
				C186,353.6,191,334.7,203.6,326.5z"/>
			<path class="st11" d="M203.7,327.3c12.9-8.6,26.4-1.5,27.3,17.4c0.6,11.9-5.4,24.3-14.6,32.9c-10.5,9.8-23.5,8.3-26.8-9.4
				C186.9,353.3,191.8,335.2,203.7,327.3z"/>
			<path class="st12" d="M203.9,328c12.3-8.4,25.4-1.9,26.2,16.4c0.5,11.8-5.5,23.8-14.1,32c-9.9,9.4-22.5,8.1-25.6-9.2
				C187.8,353,192.5,335.8,203.9,328z"/>
			<path class="st13" d="M204.1,328.8c11.6-8.2,24.4-2.2,25.1,15.4c0.5,11.7-5.5,23.4-13.7,31.2c-9.4,9-21.5,7.9-24.4-9
				C188.7,352.7,193.3,336.3,204.1,328.8z"/>
			<path class="st14" d="M204.2,329.6c11-7.9,23.3-2.5,24,14.5c0.4,11.5-5.6,22.9-13.3,30.3c-8.9,8.6-20.5,7.7-23.2-8.9
				C189.6,352.4,194.1,336.9,204.2,329.6z"/>
			<path class="st15" d="M204.4,330.4c10.4-7.7,22.3-2.8,22.9,13.5c0.4,11.4-5.7,22.5-12.8,29.4c-8.4,8.2-19.6,7.5-22-8.7
				C190.5,352.2,194.8,337.4,204.4,330.4z"/>
			<path class="st16" d="M204.6,331.1c9.8-7.4,21.3-3.1,21.8,12.5c0.4,11.3-5.8,22-12.4,28.5c-7.9,7.8-18.6,7.4-20.9-8.5
				C191.4,351.9,195.6,337.9,204.6,331.1z"/>
			<path class="st17" d="M204.7,331.9c9.1-7.2,20.3-3.4,20.7,11.5c0.3,11.1-5.8,21.5-12,27.7c-7.4,7.4-17.6,7.2-19.7-8.4
				C192.3,351.6,196.4,338.5,204.7,331.9z"/>
			<path class="st18" d="M204.9,332.7c8.5-6.9,19.2-3.7,19.6,10.6c0.3,11-5.9,21.1-11.5,26.8c-6.9,7-16.7,7-18.5-8.2
				C193.2,351.3,197.2,339,204.9,332.7z"/>
			<path class="st19" d="M205.1,333.5c7.9-6.7,18.2-4,18.5,9.6c0.2,10.9-6,20.6-11.1,25.9c-6.4,6.6-15.7,6.8-17.3-8
				C194.1,351,197.9,339.6,205.1,333.5z"/>
			<path class="st20" d="M205.2,334.2c7.2-6.5,17.2-4.4,17.4,8.6c0.2,10.8-6,20.2-10.7,25c-5.9,6.2-14.7,6.6-16.1-7.9
				C194.9,350.7,198.7,340.1,205.2,334.2z"/>
			<path class="st21" d="M205.4,335c6.6-6.2,16.1-4.7,16.3,7.6c0.1,10.6-6.1,19.7-10.2,24.2c-5.4,5.8-13.8,6.4-14.9-7.7
				C195.8,350.4,199.5,340.6,205.4,335z"/>
			<path class="st22" d="M205.6,335.8c6-6,15.1-5,15.2,6.7c0,10.5-6.2,19.3-9.8,23.3c-4.9,5.4-12.9,6.3-13.8-7.5
				C196.7,350.1,200.2,341.2,205.6,335.8z"/>
			<path class="st23" d="M205.7,336.6c5.3-5.8,14.1-5.3,14.1,5.7c0,10.4-6.2,18.8-9.4,22.4c-4.4,5-12,6.1-12.6-7.4
				C197.5,349.8,201,341.7,205.7,336.6z"/>
		</g>
		<g class="st1">
			<path class="st2" d="M165.9,267.3c21.2,3.3,26.9,20.7,12.5,41.2c-7.6,10.7-24.4,16.2-42.9,17.2c-20.1,1-31.5-12.7-22.2-32
				C122.5,274.8,146.1,264.2,165.9,267.3z"/>
			<path class="st3" d="M165.5,267.9c20.6,3.1,26.3,19.8,12.2,39.7c-7.5,10.6-24,15.9-41.9,16.9c-19.5,1-30.6-12.3-21.4-31.1
				C123.3,275.1,146.2,265,165.5,267.9z"/>
			<path class="st4" d="M165,268.5c20,2.9,25.6,19,12,38.3c-7.5,10.5-23.6,15.7-40.9,16.6c-18.8,1-29.7-11.8-20.6-30.3
				C124.3,275.5,146.4,265.7,165,268.5z"/>
			<path class="st5" d="M164.5,269.1c19.3,2.7,25,18.1,11.7,36.8c-7.4,10.4-23.3,15.4-39.8,16.3c-18.2,1-28.8-11.3-19.7-29.4
				C125.2,275.8,146.5,266.5,164.5,269.1z"/>
			<path class="st6" d="M164,269.6c18.7,2.5,24.4,17.2,11.5,35.4c-7.3,10.2-22.9,15.1-38.8,16.1c-17.5,1.1-27.9-10.8-18.9-28.5
				C126.1,276.2,146.6,267.3,164,269.6z"/>
			<path class="st7" d="M163.6,270.2c18,2.3,23.8,16.3,11.2,33.9c-7.3,10.1-22.6,14.9-37.8,15.8c-16.9,1.1-27-10.3-18.1-27.6
				C127,276.5,146.8,268,163.6,270.2z"/>
			<path class="st8" d="M163.1,270.8c17.4,2.1,23.2,15.5,10.9,32.5c-7.2,10-22.2,14.6-36.8,15.5c-16.2,1.1-26.1-9.8-17.3-26.8
				C127.9,276.8,146.9,268.8,163.1,270.8z"/>
			<path class="st9" d="M162.6,271.3c16.8,1.8,22.6,14.6,10.7,31c-7.2,9.9-21.8,14.4-35.7,15.3c-15.6,1.1-25.2-9.4-16.5-25.9
				C128.7,277.2,147.1,269.6,162.6,271.3z"/>
			<path class="st10" d="M162.1,271.9c16.1,1.6,22,13.7,10.4,29.6c-7.1,9.7-21.5,14.1-34.7,15c-15,1.1-24.4-8.9-15.7-25
				C129.6,277.5,147.2,270.3,162.1,271.9z"/>
			<path class="st11" d="M161.7,272.5c15.5,1.4,21.4,12.8,10.2,28.1c-7.1,9.6-21.1,13.8-33.7,14.7c-14.3,1.1-23.5-8.4-14.9-24.1
				C130.5,277.9,147.3,271.1,161.7,272.5z"/>
			<path class="st12" d="M161.2,273.1c14.8,1.2,20.8,11.9,9.9,26.6c-7,9.5-20.7,13.5-32.6,14.5c-13.7,1-22.6-7.9-14.1-23.3
				C131.4,278.2,147.5,271.9,161.2,273.1z"/>
			<path class="st13" d="M160.7,273.6c14.2,1,20.2,11,9.6,25.2c-7,9.4-20.4,13.3-31.6,14.2c-13,1.1-21.7-7.4-13.2-22.4
				C132.3,278.5,147.6,272.7,160.7,273.6z"/>
			<path class="st14" d="M160.2,274.2c13.5,0.8,19.6,10.2,9.4,23.7c-6.9,9.2-20,13-30.6,13.9c-12.4,1.1-20.8-7-12.4-21.5
				C133.2,278.9,147.8,273.4,160.2,274.2z"/>
			<path class="st15" d="M159.8,274.8c12.9,0.6,18.9,9.3,9.1,22.3c-6.9,9.1-19.6,12.8-29.6,13.6c-11.7,1.1-19.9-6.5-11.6-20.6
				C134.1,279.2,147.9,274.2,159.8,274.8z"/>
			<path class="st16" d="M159.3,275.3c12.3,0.4,18.3,8.4,8.9,20.8c-6.8,9-19.3,12.5-28.5,13.4c-11.1,1.1-19.1-6-10.8-19.8
				C134.9,279.6,148.1,275,159.3,275.3z"/>
			<path class="st17" d="M158.8,275.9c11.6,0.2,17.7,7.5,8.6,19.4c-6.8,8.8-18.9,12.2-27.5,13.1c-10.4,1.1-18.2-5.6-10-18.9
				C135.8,279.9,148.2,275.7,158.8,275.9z"/>
			<path class="st18" d="M158.3,276.5c11,0,17.1,6.6,8.3,17.9c-6.7,8.7-18.5,12-26.5,12.8c-9.8,1.1-17.3-5.1-9.2-18
				C136.7,280.2,148.3,276.5,158.3,276.5z"/>
			<path class="st19" d="M157.9,277.1c10.3-0.2,16.4,5.7,8.1,16.5c-6.7,8.6-18.2,11.7-25.5,12.6c-9.1,1.1-16.5-4.6-8.4-17.2
				C137.5,280.5,148.5,277.3,157.9,277.1z"/>
			<path class="st20" d="M157.4,277.6c9.7-0.5,15.8,4.8,7.8,15c-6.6,8.4-17.8,11.5-24.4,12.3c-8.5,1.1-15.6-4.2-7.6-16.3
				C138.4,280.9,148.6,278,157.4,277.6z"/>
			<path class="st21" d="M156.9,278.2c9.1-0.7,15.2,3.9,7.5,13.6c-6.6,8.3-17.4,11.2-23.4,12c-7.9,1.1-14.8-3.7-6.8-15.4
				C139.2,281.2,148.8,278.8,156.9,278.2z"/>
			<path class="st22" d="M156.5,278.8c8.4-0.9,14.6,3,7.3,12.1c-6.6,8.2-17.1,10.9-22.4,11.8c-7.2,1.1-13.9-3.3-5.9-14.5
				C140.1,281.5,148.9,279.6,156.5,278.8z"/>
			<path class="st23" d="M156,279.3c7.8-1.1,13.9,2.1,7,10.7c-6.5,8-16.7,10.7-21.4,11.5c-6.6,1.1-13.1-2.8-5.1-13.7
				C140.9,281.8,149.1,280.3,156,279.3z"/>
		</g>
		<g class="st1">
			<path class="st2" d="M320.3,274.6c-18.3-16.8-10.9-39.5,16-50c14.1-5.5,32.9-4.6,51.3,6.3c20,11.8,22.2,32.3,1,44.9
				C367.7,288.1,337.4,290.2,320.3,274.6z"/>
			<path class="st3" d="M321.4,273.9c-18.1-16.2-10.8-38.4,15.4-48.5c14-5.4,32.5-4.3,50.2,6.2c19.4,11.4,21.6,31.3,0.6,43.6
				C367.5,287,338.3,289,321.4,273.9z"/>
			<path class="st4" d="M322.6,273.2c-17.9-15.6-10.7-37.5,14.8-47.1c13.9-5.2,32-4,49.2,6c18.8,11,20.9,30.3,0.3,42.2
				C367.2,285.8,339.1,287.7,322.6,273.2z"/>
			<path class="st5" d="M323.7,272.5c-17.7-15-10.6-36.5,14.2-45.6c13.9-5.1,31.6-3.7,48.1,5.9c18.2,10.6,20.2,29.2,0,40.9
				C367,284.6,340.1,286.4,323.7,272.5z"/>
			<path class="st6" d="M324.9,271.8c-17.5-14.5-10.5-35.5,13.7-44.2c13.8-4.9,31.2-3.4,47,5.8c17.5,10.2,19.6,28.2-0.3,39.5
				C366.8,283.5,340.9,285.1,324.9,271.8z"/>
			<path class="st7" d="M326,271.1c-17.3-13.9-10.5-34.5,13.1-42.7c13.7-4.8,30.7-3.1,45.9,5.7c16.9,9.7,18.9,27.2-0.7,38.2
				C366.5,282.3,341.8,283.8,326,271.1z"/>
			<path class="st8" d="M327.2,270.4c-17.1-13.3-10.4-33.4,12.5-41.2c13.6-4.6,30.3-2.8,44.9,5.6c16.3,9.3,18.3,26.1-1,36.8
				C366.3,281.1,342.7,282.5,327.2,270.4z"/>
			<path class="st9" d="M328.3,269.7c-16.9-12.7-10.3-32.4,11.9-39.8c13.5-4.5,29.8-2.5,43.8,5.5c15.7,8.9,17.6,25.1-1.3,35.5
				C366.1,280,343.6,281.2,328.3,269.7z"/>
			<path class="st10" d="M329.5,269c-16.7-12.1-10.2-31.4,11.3-38.3c13.5-4.3,29.4-2.2,42.7,5.4c15.1,8.5,17,24.1-1.6,34.1
				C365.8,278.8,344.5,279.9,329.5,269z"/>
			<path class="st11" d="M330.7,268.3c-16.5-11.6-10.1-30.3,10.7-36.8c13.4-4.2,29-1.9,41.6,5.3c14.4,8.1,16.3,23.1-2,32.8
				C365.6,277.7,345.3,278.6,330.7,268.3z"/>
			<path class="st12" d="M331.8,267.6c-16.3-11-10-29.3,10.1-35.4c13.3-4,28.5-1.6,40.6,5.2c13.8,7.7,15.7,22.1-2.3,31.4
				C365.4,276.5,346.2,277.3,331.8,267.6z"/>
			<path class="st13" d="M333,266.9c-16.1-10.4-9.9-28.2,9.6-33.9c13.2-3.8,28.1-1.3,39.5,5c13.2,7.3,15,21-2.6,30
				C365.2,275.4,347.1,276,333,266.9z"/>
			<path class="st14" d="M334.1,266.2c-15.9-9.8-9.8-27.2,9-32.4c13.2-3.7,27.7-1,38.4,4.9c12.6,6.9,14.4,20-2.9,28.7
				C364.9,274.2,348,274.7,334.1,266.2z"/>
			<path class="st15" d="M335.3,265.5c-15.7-9.2-9.7-26.1,8.4-31c13.1-3.5,27.2-0.6,37.3,4.8c12,6.5,13.8,19-3.3,27.3
				C364.7,273.1,348.8,273.5,335.3,265.5z"/>
			<path class="st16" d="M336.4,264.8c-15.5-8.6-9.6-25.1,7.8-29.5c13-3.3,26.8-0.3,36.3,4.7c11.3,6,13.1,18-3.6,26
				C364.5,271.9,349.7,272.2,336.4,264.8z"/>
			<path class="st17" d="M337.6,264.1c-15.4-8-9.5-24,7.2-28c13-3.1,26.4,0,35.2,4.6c10.7,5.6,12.5,17-3.9,24.6
				C364.3,270.8,350.6,270.9,337.6,264.1z"/>
			<path class="st18" d="M338.7,263.4c-15.2-7.4-9.4-22.9,6.6-26.6c12.9-2.9,25.9,0.3,34.1,4.5c10.1,5.2,11.8,16-4.2,23.3
				C364.1,269.7,351.4,269.6,338.7,263.4z"/>
			<path class="st19" d="M339.9,262.7c-15-6.8-9.2-21.8,6.1-25.1c12.8-2.7,25.5,0.6,33,4.4c9.5,4.8,11.2,15-4.6,21.9
				C363.8,268.6,352.3,268.4,339.9,262.7z"/>
			<path class="st20" d="M341,262c-14.8-6.2-9.1-20.7,5.5-23.6c12.8-2.5,25.1,0.9,32,4.3c8.9,4.4,10.6,14-4.9,20.6
				C363.6,267.4,353.2,267.1,341,262z"/>
			<path class="st21" d="M342.2,261.3c-14.6-5.6-9-19.6,4.9-22.2c12.7-2.3,24.6,1.2,30.9,4.2c8.3,4,10,13.1-5.2,19.2
				C363.4,266.3,354,265.8,342.2,261.3z"/>
			<path class="st22" d="M343.3,260.6c-14.5-5-8.9-18.5,4.3-20.7c12.6-2.1,24.2,1.4,29.8,4c7.7,3.5,9.3,12.1-5.5,17.9
				C363.2,265.2,354.9,264.6,343.3,260.6z"/>
			<path class="st23" d="M344.5,259.9c-14.3-4.3-8.8-17.4,3.7-19.2c12.6-1.9,23.8,1.7,28.8,3.9c7.1,3.1,8.7,11.2-5.9,16.5
				C363,264.1,355.8,263.3,344.5,259.9z"/>
		</g>
		<g class="st1">
			<path class="st2" d="M317.6,215.5c-24.8,0-34.7-21.8-22.1-47.7c6.7-13.6,21.1-25.6,42-30.1c22.7-4.8,39.1,14.7,31.9,38.4
				C362.6,199.3,340.9,215.5,317.6,215.5z"/>
			<path class="st3" d="M318,214.2c-24.3,0.3-34-21.1-21.5-46.2c6.7-13.4,21-25.1,41.2-29.4c22-4.7,37.9,14.1,30.8,37.3
				C361.6,198.4,340.6,213.9,318,214.2z"/>
			<path class="st4" d="M318.4,212.9c-23.7,0.7-33.3-20.4-20.9-44.7c6.7-13.3,20.9-24.6,40.3-28.8c21.3-4.6,36.6,13.5,29.6,36.3
				C360.6,197.4,340.4,212.4,318.4,212.9z"/>
			<path class="st5" d="M318.8,211.6c-23.2,0.9-32.5-19.7-20.4-43.2c6.8-13.1,20.8-24.1,39.4-28.1c20.5-4.5,35.4,12.9,28.4,35.2
				C359.6,196.4,340.2,210.8,318.8,211.6z"/>
			<path class="st6" d="M319.2,210.3c-22.7,1.2-31.8-19-19.8-41.8c6.8-12.9,20.7-23.6,38.6-27.5c19.8-4.4,34.2,12.3,27.2,34.2
				C358.6,195.4,340,209.3,319.2,210.3z"/>
			<path class="st7" d="M319.5,209c-22.1,1.5-31-18.3-19.2-40.3c6.9-12.8,20.5-23.1,37.7-26.9c19.1-4.3,33,11.7,26,33.1
				C357.6,194.4,339.7,207.7,319.5,209z"/>
			<path class="st8" d="M319.9,207.8c-21.6,1.8-30.3-17.6-18.7-38.8c6.9-12.6,20.4-22.5,36.8-26.2c18.3-4.1,31.8,11.1,24.8,32
				C356.6,193.5,339.5,206.2,319.9,207.8z"/>
			<path class="st9" d="M320.3,206.5c-21,2-29.5-16.9-18.1-37.3c6.9-12.4,20.3-22,36-25.6c17.6-4,30.6,10.5,23.6,31
				C355.6,192.5,339.3,204.6,320.3,206.5z"/>
			<path class="st10" d="M320.7,205.2c-20.5,2.3-28.7-16.2-17.6-35.9c7-12.3,20.2-21.5,35.1-24.9c16.9-3.9,29.3,9.9,22.4,29.9
				C354.6,191.5,339.1,203.1,320.7,205.2z"/>
			<path class="st11" d="M321,203.9c-20,2.6-28-15.5-17-34.4c7-12.1,20.1-21,34.2-24.3c16.1-3.8,28.1,9.3,21.2,28.9
				C353.6,190.5,338.8,201.5,321,203.9z"/>
			<path class="st12" d="M321.4,202.6c-19.4,2.9-27.2-14.8-16.4-32.9c7.1-11.9,20-20.4,33.4-23.6c15.4-3.7,26.9,8.7,20,27.8
				C352.6,189.5,338.6,200,321.4,202.6z"/>
			<path class="st13" d="M321.8,201.3c-18.9,3.2-26.4-14.1-15.9-31.4c7.2-11.8,19.9-19.9,32.5-23c14.7-3.6,25.7,8.2,18.8,26.7
				C351.7,188.6,338.4,198.4,321.8,201.3z"/>
			<path class="st14" d="M322.2,200c-18.4,3.5-25.6-13.4-15.3-30c7.2-11.6,19.7-19.4,31.6-22.3c13.9-3.4,24.5,7.6,17.6,25.7
				C350.7,187.6,338.1,196.9,322.2,200z"/>
			<path class="st15" d="M322.5,198.7c-17.8,3.9-24.8-12.7-14.8-28.5c7.3-11.4,19.6-18.9,30.8-21.7c13.2-3.3,23.3,7,16.4,24.6
				C349.7,186.6,337.9,195.4,322.5,198.7z"/>
			<path class="st16" d="M322.9,197.4c-17.3,4.2-24-12-14.2-27c7.4-11.2,19.5-18.4,29.9-21.1c12.4-3.2,22.1,6.4,15.2,23.6
				C348.7,185.7,337.7,193.8,322.9,197.4z"/>
			<path class="st17" d="M323.3,196.1c-16.7,4.5-23.2-11.3-13.6-25.5c7.4-11.1,19.4-17.9,29-20.4c11.7-3.1,21,5.8,14,22.5
				C347.8,184.7,337.5,192.3,323.3,196.1z"/>
			<path class="st18" d="M323.7,194.8c-16.2,4.8-22.4-10.6-13.1-24.1c7.5-10.9,19.3-17.3,28.2-19.8c11-3,19.8,5.2,12.8,21.4
				C346.8,183.7,337.3,190.8,323.7,194.8z"/>
			<path class="st19" d="M324.1,193.5c-15.6,5.1-21.6-9.8-12.5-22.6c7.6-10.7,19.2-16.8,27.3-19.1c10.2-2.9,18.6,4.6,11.6,20.4
				C345.8,182.7,337,189.3,324.1,193.5z"/>
			<path class="st20" d="M324.4,192.2c-15.1,5.5-20.7-9.1-11.9-21.1c7.7-10.5,19-16.3,26.4-18.5c9.5-2.8,17.4,4,10.4,19.3
				C344.9,181.8,336.8,187.8,324.4,192.2z"/>
			<path class="st21" d="M324.8,190.9c-14.6,5.8-19.9-8.3-11.4-19.6c7.8-10.3,18.9-15.8,25.6-17.8c8.8-2.7,16.3,3.5,9.2,18.3
				C343.9,180.8,336.6,186.3,324.8,190.9z"/>
			<path class="st22" d="M325.2,189.6c-14,6.1-19.1-7.6-10.8-18.2c7.9-10.1,18.8-15.3,24.7-17.2c8-2.6,15.1,2.9,8.1,17.2
				C343,179.9,336.4,184.7,325.2,189.6z"/>
			<path class="st23" d="M325.6,188.4c-13.4,6.5-18.2-6.8-10.3-16.7c8-9.9,18.7-14.8,23.8-16.6c7.3-2.5,14,2.4,6.9,16.1
				C342,178.9,336.2,183.2,325.6,188.4z"/>
		</g>
		<g class="st1">
			<path class="st2" d="M281.4,172.3c-17,18.1-44.1,11.8-54.3-15.2c-5.4-14.2-4.2-33,6.9-51.2C246,86,276,86.6,288.3,108
				C300.5,128.9,297.2,155.3,281.4,172.3z"/>
			<path class="st3" d="M280.5,171.2c-16.4,17.9-42.9,11.6-52.6-14.7c-5.2-14.1-3.9-32.5,6.7-50.2c11.6-19.3,40.6-18.8,52.6,2.3
				C298.9,129,295.8,154.5,280.5,171.2z"/>
			<path class="st4" d="M279.6,170.1c-15.8,17.7-41.7,11.5-51-14.1c-5.1-14-3.6-32.1,6.6-49.1c11.2-18.6,39.1-18.2,50.8,2.5
				C297.2,129.1,294.2,153.7,279.6,170.1z"/>
			<path class="st5" d="M278.7,169c-15.2,17.5-40.5,11.4-49.3-13.6c-4.9-13.9-3.3-31.6,6.5-48c10.8-18,37.6-17.7,49,2.7
				C295.6,129.2,292.7,152.8,278.7,169z"/>
			<path class="st6" d="M277.8,167.9c-14.7,17.3-39.2,11.2-47.6-13.1c-4.8-13.8-3.1-31.2,6.4-46.9c10.4-17.4,36.1-17.2,47.2,2.9
				C294,129.3,291.2,152,277.8,167.9z"/>
			<path class="st7" d="M276.9,166.8c-14.1,17.1-38,11.1-46-12.5c-4.6-13.7-2.8-30.8,6.2-45.9c9.9-16.8,34.6-16.7,45.4,3.1
				C292.4,129.4,289.7,151.2,276.9,166.8z"/>
			<path class="st8" d="M276,165.7c-13.5,16.9-36.8,11-44.3-12c-4.5-13.7-2.5-30.3,6.1-44.8c9.5-16.2,33.1-16.2,43.6,3.2
				C290.7,129.5,288.2,150.3,276,165.7z"/>
			<path class="st9" d="M275.1,164.6c-12.9,16.7-35.5,10.8-42.6-11.4c-4.3-13.6-2.2-29.9,6-43.7c9.1-15.6,31.7-15.6,41.8,3.4
				C289.1,129.6,286.7,149.5,275.1,164.6z"/>
			<path class="st10" d="M274.2,163.5c-12.3,16.5-34.3,10.7-40.9-10.9c-4.2-13.5-1.8-29.4,5.9-42.7c8.7-15,30.2-15.1,40,3.6
				C287.5,129.7,285.2,148.7,274.2,163.5z"/>
			<path class="st11" d="M273.3,162.4c-11.7,16.4-33,10.5-39.3-10.4c-4-13.4-1.5-29,5.7-41.6c8.3-14.3,28.7-14.6,38.2,3.8
				C285.9,129.8,283.8,147.8,273.3,162.4z"/>
			<path class="st12" d="M272.4,161.3c-11.2,16.2-31.8,10.4-37.6-9.8c-3.8-13.3-1.2-28.5,5.6-40.5c7.9-13.7,27.2-14.1,36.4,4
				C284.3,129.9,282.3,147,272.4,161.3z"/>
			<path class="st13" d="M271.5,160.2c-10.6,16-30.5,10.2-35.9-9.3c-3.7-13.3-0.9-28.1,5.5-39.4c7.4-13.1,25.7-13.6,34.5,4.2
				C282.7,130,280.8,146.2,271.5,160.2z"/>
			<path class="st14" d="M270.6,159.1c-10,15.8-29.2,10.1-34.2-8.8c-3.5-13.2-0.6-27.7,5.4-38.4c7-12.5,24.3-13.1,32.7,4.4
				C281.1,130.1,279.3,145.4,270.6,159.1z"/>
			<path class="st15" d="M269.7,158c-9.4,15.6-28,9.9-32.6-8.2c-3.3-13.1-0.3-27.2,5.2-37.3c6.6-11.9,22.8-12.6,30.9,4.6
				C279.5,130.2,277.8,144.5,269.7,158z"/>
			<path class="st16" d="M268.8,156.9c-8.8,15.4-26.7,9.7-30.9-7.7c-3.2-13.1,0-26.8,5.1-36.2c6.2-11.3,21.3-12.1,29.1,4.7
				C277.9,130.2,276.3,143.7,268.8,156.9z"/>
			<path class="st17" d="M267.9,155.8c-8.2,15.3-25.4,9.6-29.2-7.2c-3-13,0.3-26.4,5-35.1c5.8-10.7,19.9-11.6,27.3,4.9
				C276.3,130.3,274.8,142.9,267.9,155.8z"/>
			<path class="st18" d="M267,154.7c-7.6,15.1-24.1,9.4-27.5-6.6c-2.8-12.9,0.6-25.9,4.9-34.1c5.3-10.1,18.4-11.1,25.5,5.1
				C274.7,130.4,273.4,142.1,267,154.7z"/>
			<path class="st19" d="M266.1,153.6c-7,14.9-22.8,9.2-25.9-6.1c-2.6-12.8,0.9-25.5,4.8-33c4.9-9.4,17-10.6,23.7,5.3
				C273.2,130.5,271.9,141.3,266.1,153.6z"/>
			<path class="st20" d="M265.2,152.6c-6.4,14.7-21.5,9.1-24.2-5.6c-2.4-12.8,1.1-25,4.6-31.9c4.5-8.8,15.5-10.1,21.9,5.5
				C271.6,130.6,270.4,140.5,265.2,152.6z"/>
			<path class="st21" d="M264.3,151.5c-5.7,14.6-20.1,8.9-22.5-5c-2.2-12.7,1.4-24.6,4.5-30.9c4-8.2,14.1-9.6,20.1,5.7
				C270,130.7,268.9,139.7,264.3,151.5z"/>
			<path class="st22" d="M263.4,150.4c-5.1,14.4-18.8,8.8-20.9-4.5c-1.9-12.6,1.7-24.2,4.4-29.8c3.6-7.6,12.7-9.1,18.3,5.9
				C268.5,130.7,267.5,138.8,263.4,150.4z"/>
			<path class="st23" d="M262.5,149.3c-4.5,14.2-17.5,8.6-19.2-4c-1.7-12.6,2-23.7,4.3-28.7c3.2-7,11.3-8.6,16.5,6.1
				C266.9,130.8,266,138,262.5,149.3z"/>
		</g>
		<g class="st1">
			<path class="st2" d="M223.9,202.4c-5.9,24.1-29.4,28.5-51.5,10c-11.6-9.7-19.9-26.6-19.1-48c0.8-23.2,17.7-35,39-22.4
				C213,154.3,229.4,179.8,223.9,202.4z"/>
			<path class="st3" d="M222.7,201.7c-5.5,23.6-28.6,28-50,9.8c-11.5-9.7-19.4-26.4-18.7-47c0.7-22.5,17.1-33.9,37.9-21.5
				C212.1,155,227.9,179.7,222.7,201.7z"/>
			<path class="st4" d="M221.6,201c-5.1,23.2-27.8,27.4-48.4,9.6c-11.3-9.7-18.9-26.2-18.3-46c0.6-21.7,16.5-32.8,36.9-20.5
				C211.2,155.8,226.3,179.5,221.6,201z"/>
			<path class="st5" d="M220.4,200.4c-4.7,22.7-26.9,26.8-46.8,9.4c-11.1-9.7-18.4-25.9-17.9-45.1c0.5-21,15.9-31.8,35.9-19.6
				C210.3,156.6,224.7,179.4,220.4,200.4z"/>
			<path class="st6" d="M219.2,199.7c-4.3,22.3-26.1,26.3-45.3,9.2c-10.9-9.7-18-25.7-17.5-44.1c0.5-20.3,15.3-30.7,34.8-18.7
				C209.4,157.3,223.2,179.2,219.2,199.7z"/>
			<path class="st7" d="M218.1,199c-3.9,21.8-25.2,25.7-43.7,9c-10.8-9.7-17.5-25.5-17.1-43.1c0.4-19.5,14.7-29.6,33.8-17.7
				C208.5,158.1,221.6,179.1,218.1,199z"/>
			<path class="st8" d="M216.9,198.3c-3.5,21.4-24.4,25.2-42.1,8.8c-10.6-9.7-17-25.2-16.6-42.1c0.3-18.8,14.2-28.6,32.8-16.8
				C207.6,158.9,220.1,178.9,216.9,198.3z"/>
			<path class="st9" d="M215.8,197.7c-3,20.9-23.5,24.6-40.6,8.6c-10.4-9.7-16.5-25-16.2-41.1c0.3-18,13.6-27.5,31.7-15.9
				C206.7,159.6,218.5,178.8,215.8,197.7z"/>
			<path class="st10" d="M214.6,197c-2.6,20.5-22.7,24-39,8.5c-10.3-9.7-16-24.7-15.8-40.1c0.3-17.3,13-26.5,30.7-14.9
				C205.8,160.4,217,178.6,214.6,197z"/>
			<path class="st11" d="M213.4,196.3c-2.2,20-21.8,23.4-37.4,8.3c-10.1-9.8-15.5-24.5-15.4-39.1c0.2-16.6,12.4-25.4,29.7-14
				C204.9,161.1,215.4,178.5,213.4,196.3z"/>
			<path class="st12" d="M212.3,195.6c-1.8,19.6-20.9,22.8-35.9,8.1c-9.9-9.8-15.1-24.3-15-38.1c0.1-15.8,11.8-24.3,28.7-13.1
				C204,161.9,213.8,178.3,212.3,195.6z"/>
			<path class="st13" d="M211.1,194.9c-1.4,19.1-20,22.2-34.3,7.9c-9.7-9.8-14.6-24-14.5-37.1c0.1-15.1,11.2-23.3,27.6-12.1
				C203.1,162.6,212.3,178.2,211.1,194.9z"/>
			<path class="st14" d="M209.9,194.3c-1,18.7-19.2,21.6-32.7,7.7c-9.5-9.8-14.1-23.8-14.1-36.1c0-14.3,10.7-22.2,26.6-11.2
				C202.2,163.4,210.8,178,209.9,194.3z"/>
			<path class="st15" d="M208.8,193.6c-0.5,18.2-18.3,21-31.2,7.5c-9.4-9.8-13.6-23.6-13.7-35.1c-0.1-13.6,10.1-21.2,25.6-10.3
				C201.3,164.1,209.2,177.9,208.8,193.6z"/>
			<path class="st16" d="M207.6,192.9c-0.1,17.8-17.4,20.4-29.6,7.3c-9.2-9.8-13.2-23.3-13.3-34.1c-0.1-12.8,9.5-20.2,24.5-9.3
				C200.4,164.9,207.7,177.7,207.6,192.9z"/>
			<path class="st17" d="M206.4,192.2c0.3,17.3-16.5,19.8-28,7.1c-9-9.9-12.7-23.1-12.9-33.1c-0.2-12.1,8.9-19.1,23.5-8.4
				C199.5,165.6,206.1,177.6,206.4,192.2z"/>
			<path class="st18" d="M205.3,191.6c0.8,16.9-15.6,19.2-26.5,6.9c-8.8-9.9-12.2-22.9-12.5-32.1c-0.3-11.4,8.4-18.1,22.5-7.5
				C198.6,166.3,204.6,177.4,205.3,191.6z"/>
			<path class="st19" d="M204.1,190.9c1.2,16.4-14.7,18.6-24.9,6.7c-8.6-9.9-11.8-22.6-12-31.1c-0.4-10.6,7.8-17.1,21.4-6.5
				C197.7,167.1,203.1,177.3,204.1,190.9z"/>
			<path class="st20" d="M202.9,190.2c1.7,16-13.8,18-23.3,6.5c-8.4-10-11.3-22.4-11.6-30.1c-0.4-9.9,7.3-16,20.4-5.6
				C196.8,167.8,201.6,177.1,202.9,190.2z"/>
			<path class="st21" d="M201.8,189.5c2.1,15.5-12.9,17.3-21.8,6.3c-8.1-10-10.8-22.2-11.2-29.1c-0.5-9.1,6.7-15,19.4-4.7
				C196,168.5,200,177,201.8,189.5z"/>
			<path class="st22" d="M200.6,188.9c2.6,15.1-12,16.7-20.2,6.2c-7.9-10.1-10.4-21.9-10.8-28.1c-0.6-8.4,6.2-14,18.3-3.7
				C195.1,169.2,198.5,176.8,200.6,188.9z"/>
			<path class="st23" d="M199.4,188.2c3.1,14.6-11,16.1-18.7,6c-7.7-10.1-9.9-21.7-10.4-27.1c-0.7-7.7,5.6-13,17.3-2.8
				C194.2,169.9,197,176.7,199.4,188.2z"/>
		</g>
		<g class="st1">
			<path class="st2" d="M163.9,370.8c-24.8,1.3-35.8-19.9-24.5-46.5c5.9-13.9,19.8-26.7,40.4-32.2c22.5-6,41.8,8.4,35.9,32.4
				C210,348,187.1,369.5,163.9,370.8z"/>
			<path class="st3" d="M164.2,369.4c-24.2,1.6-35-19.3-23.8-45c6-13.8,19.7-26.2,39.6-31.5c21.7-5.8,40.5,8,34.5,31.6
				C208.9,347.2,186.8,368,164.2,369.4z"/>
			<path class="st4" d="M164.5,368.1c-23.7,1.8-34.2-18.6-23.2-43.6c6-13.6,19.6-25.7,38.8-30.8c21-5.7,39.1,7.7,33.2,30.8
				C207.7,346.5,186.5,366.4,164.5,368.1z"/>
			<path class="st5" d="M164.9,366.8c-23.1,2.1-33.5-18-22.6-42.1c6.1-13.4,19.5-25.1,37.9-30.2c20.3-5.5,37.7,7.4,31.9,30
				C206.6,345.8,186.2,364.9,164.9,366.8z"/>
			<path class="st6" d="M165.2,365.5c-22.6,2.4-32.7-17.4-21.9-40.7c6.1-13.3,19.4-24.6,37.1-29.5c19.5-5.4,36.4,7.1,30.5,29.2
				C205.4,345.1,185.9,363.3,165.2,365.5z"/>
			<path class="st7" d="M165.5,364.2c-22,2.6-31.9-16.7-21.3-39.2c6.2-13.1,19.3-24.1,36.3-28.8c18.8-5.2,35.1,6.7,29.2,28.4
				C204.3,344.4,185.6,361.8,165.5,364.2z"/>
			<path class="st8" d="M165.8,362.9c-21.5,2.9-31.1-16-20.6-37.8c6.2-13,19.2-23.6,35.4-28.1c18.1-5.1,33.7,6.4,27.8,27.6
				C203.1,343.6,185.3,360.3,165.8,362.9z"/>
			<path class="st9" d="M166.1,361.6c-20.9,3.1-30.3-15.4-20-36.3c6.3-12.8,19.1-23.1,34.6-27.4c17.4-4.9,32.4,6.1,26.5,26.8
				C202,342.9,185,358.7,166.1,361.6z"/>
			<path class="st10" d="M166.4,360.3c-20.4,3.4-29.5-14.7-19.4-34.9c6.3-12.6,19-22.5,33.8-26.7c16.6-4.8,31,5.7,25.1,26
				C200.8,342.2,184.7,357.2,166.4,360.3z"/>
			<path class="st11" d="M166.7,359c-19.8,3.7-28.7-14.1-18.7-33.5c6.4-12.5,19-22,32.9-26c15.9-4.6,29.7,5.4,23.8,25.3
				C199.7,341.5,184.4,355.7,166.7,359z"/>
			<path class="st12" d="M167,357.6c-19.2,3.9-27.9-13.4-18.1-32c6.5-12.3,18.9-21.5,32.1-25.3c15.2-4.5,28.4,5.1,22.4,24.5
				C198.6,340.8,184.1,354.2,167,357.6z"/>
			<path class="st13" d="M167.3,356.3c-18.7,4.2-27.1-12.8-17.5-30.6c6.5-12.1,18.8-20.9,31.3-24.7c14.5-4.3,27.1,4.8,21.1,23.7
				C197.5,340,183.8,352.6,167.3,356.3z"/>
			<path class="st14" d="M167.6,355c-18.1,4.5-26.2-12.1-16.8-29.1c6.6-12,18.7-20.4,30.4-24c13.7-4.2,25.7,4.4,19.8,22.9
				C196.3,339.3,183.4,351.1,167.6,355z"/>
			<path class="st15" d="M168,353.7c-17.6,4.8-25.4-11.4-16.2-27.7c6.7-11.8,18.6-19.9,29.6-23.3c13-4,24.4,4.1,18.4,22.1
				C195.2,338.6,183.1,349.6,168,353.7z"/>
			<path class="st16" d="M168.3,352.4c-17,5.1-24.6-10.7-15.6-26.2c6.8-11.6,18.5-19.4,28.8-22.6c12.3-3.9,23.1,3.8,17.1,21.3
				C194.1,337.9,182.8,348.1,168.3,352.4z"/>
			<path class="st17" d="M168.6,351.1c-16.5,5.3-23.7-10.1-14.9-24.8c6.8-11.4,18.4-18.8,27.9-21.9c11.5-3.7,21.8,3.5,15.7,20.5
				C193,337.2,182.5,346.6,168.6,351.1z"/>
			<path class="st18" d="M168.9,349.8c-15.9,5.6-22.9-9.4-14.3-23.3c6.9-11.3,18.3-18.3,27.1-21.2c10.8-3.6,20.5,3.2,14.4,19.7
				C191.9,336.5,182.2,345.1,168.9,349.8z"/>
			<path class="st19" d="M169.2,348.5c-15.4,5.9-22-8.7-13.6-21.9c7-11.1,18.3-17.8,26.3-20.5c10.1-3.4,19.2,2.8,13,18.9
				C190.8,335.8,181.9,343.5,169.2,348.5z"/>
			<path class="st20" d="M169.5,347.2c-14.8,6.2-21.2-8-13-20.5c7.1-10.9,18.2-17.3,25.4-19.8c9.3-3.3,17.9,2.5,11.7,18.1
				C189.7,335,181.6,342,169.5,347.2z"/>
			<path class="st21" d="M169.8,345.8c-14.2,6.5-20.3-7.3-12.4-19c7.2-10.7,18.1-16.8,24.6-19.2c8.6-3.1,16.6,2.2,10.4,17.3
				C188.6,334.3,181.3,340.6,169.8,345.8z"/>
			<path class="st22" d="M170.1,344.5c-13.7,6.8-19.4-6.6-11.7-17.6c7.4-10.5,18-16.3,23.8-18.5c7.9-3,15.4,1.9,9,16.6
				C187.5,333.6,181.1,339.1,170.1,344.5z"/>
			<path class="st23" d="M170.4,343.2c-13.1,7.2-18.6-5.9-11.1-16.1c7.5-10.3,17.9-15.7,22.9-17.8c7.1-2.9,14.1,1.6,7.7,15.8
				C186.4,332.9,180.8,337.6,170.4,343.2z"/>
		</g>
		<g class="st1">
			<path class="st2" d="M110.2,281.9c-21.7-12-19.8-35.9,3.8-52.4c12.4-8.7,30.9-12.2,51.4-5.9c22.2,6.8,29.2,26.2,11.4,43.5
				C159.5,283.9,130.5,293.1,110.2,281.9z"/>
			<path class="st3" d="M111.2,280.9c-21.4-11.5-19.5-34.9,3.6-50.8c12.4-8.5,30.6-11.8,50.3-5.8c21.5,6.5,28.3,25.4,10.8,42.2
				C159,282.9,131.1,291.6,111.2,280.9z"/>
			<path class="st4" d="M112.1,280C91,269,92.9,246,115.5,230.7c12.3-8.4,30.2-11.4,49.2-5.6c20.8,6.3,27.4,24.5,10.2,41
				C158.5,281.8,131.6,290.2,112.1,280z"/>
			<path class="st5" d="M113.1,279c-20.7-10.5-18.9-33,3.2-47.7c12.3-8.2,29.8-11,48.1-5.5c20.1,6,26.5,23.7,9.5,39.8
				C158,280.7,132.2,288.7,113.1,279z"/>
			<path class="st6" d="M114,278.1c-20.4-9.9-18.5-32,2.9-46.1c12.2-8,29.5-10.6,47.1-5.4c19.4,5.8,25.6,22.8,8.9,38.5
				C157.5,279.6,132.7,287.2,114,278.1z"/>
			<path class="st7" d="M115,277.1c-20.1-9.4-18.2-31.1,2.7-44.6c12.2-7.9,29.1-10.2,46-5.2c18.7,5.5,24.8,22,8.3,37.3
				C157,278.5,133.3,285.7,115,277.1z"/>
			<path class="st8" d="M115.9,276.2c-19.7-8.9-17.9-30.1,2.5-43c12.2-7.7,28.8-9.8,44.9-5.1c18,5.3,23.9,21.1,7.7,36
				C156.5,277.5,133.9,284.3,115.9,276.2z"/>
			<path class="st9" d="M116.9,275.2c-19.4-8.4-17.6-29.1,2.3-41.4c12.1-7.5,28.4-9.4,43.9-4.9c17.3,5,23,20.3,7,34.8
				C156,276.4,134.4,282.8,116.9,275.2z"/>
			<path class="st10" d="M117.9,274.3c-19.1-7.9-17.2-28.1,2-39.9c12.1-7.4,28.1-9,42.8-4.8c16.6,4.8,22.2,19.5,6.4,33.6
				C155.5,275.3,135,281.4,117.9,274.3z"/>
			<path class="st11" d="M118.8,273.3c-18.7-7.4-16.9-27.1,1.8-38.3c12-7.2,27.7-8.6,41.7-4.6c15.9,4.5,21.3,18.6,5.8,32.3
				C155,274.3,135.5,279.9,118.8,273.3z"/>
			<path class="st12" d="M119.8,272.4c-18.4-6.8-16.6-26.1,1.6-36.7c12-7,27.4-8.2,40.7-4.5c15.2,4.3,20.4,17.8,5.1,31.1
				C154.5,273.2,136.1,278.4,119.8,272.4z"/>
			<path class="st13" d="M120.7,271.4c-18.1-6.3-16.2-25.2,1.4-35.2c12-6.8,27-7.8,39.6-4.3c14.5,4,19.6,16.9,4.5,29.8
				C154,272.1,136.6,277,120.7,271.4z"/>
			<path class="st14" d="M121.7,270.5c-17.8-5.8-15.9-24.1,1.1-33.6c11.9-6.6,26.7-7.4,38.5-4.2c13.8,3.7,18.7,16.1,3.9,28.6
				C153.5,271.1,137.2,275.5,121.7,270.5z"/>
			<path class="st15" d="M122.6,269.5c-17.4-5.3-15.5-23.1,0.9-32.1c11.9-6.5,26.3-7,37.4-4.1c13.1,3.5,17.8,15.3,3.2,27.4
				C153.1,270,137.7,274.1,122.6,269.5z"/>
			<path class="st16" d="M123.6,268.6c-17.1-4.7-15.2-22.1,0.7-30.5c11.9-6.3,26-6.6,36.4-3.9c12.4,3.2,17,14.4,2.6,26.1
				C152.6,269,138.2,272.6,123.6,268.6z"/>
			<path class="st17" d="M124.6,267.6c-16.8-4.2-14.8-21.1,0.5-28.9c11.9-6.1,25.6-6.2,35.3-3.8c11.8,3,16.1,13.6,2,24.9
				C152.1,267.9,138.8,271.2,124.6,267.6z"/>
			<path class="st18" d="M125.5,266.7c-16.5-3.6-14.4-20.1,0.2-27.4c11.8-5.9,25.3-5.8,34.2-3.6c11.1,2.7,15.3,12.8,1.3,23.6
				C151.6,266.9,139.3,269.8,125.5,266.7z"/>
			<path class="st19" d="M126.5,265.7c-16.2-3.1-14.1-19,0-25.8c11.8-5.7,24.9-5.4,33.2-3.5c10.4,2.4,14.4,12,0.7,22.4
				C151.1,265.8,139.9,268.3,126.5,265.7z"/>
			<path class="st20" d="M127.4,264.8c-15.8-2.5-13.7-18-0.2-24.2c11.8-5.5,24.6-5,32.1-3.3c9.7,2.2,13.6,11.2,0.1,21.2
				C150.7,264.8,140.4,266.9,127.4,264.8z"/>
			<path class="st21" d="M128.4,263.9c-15.5-2-13.4-17-0.4-22.7c11.8-5.2,24.2-4.7,31-3.2c9,1.9,12.8,10.4-0.6,19.9
				C150.2,263.7,141,265.5,128.4,263.9z"/>
			<path class="st22" d="M129.3,262.9c-15.2-1.4-13-15.9-0.7-21.1c11.8-5,23.9-4.3,29.9-3.1c8.3,1.6,11.9,9.6-1.2,18.7
				C149.7,262.7,141.5,264.1,129.3,262.9z"/>
			<path class="st23" d="M130.3,262c-14.9-0.9-12.6-14.8-0.9-19.6c11.8-4.8,23.5-3.9,28.9-2.9c7.6,1.4,11.1,8.8-1.8,17.4
				C149.3,261.7,142.1,262.6,130.3,262z"/>
		</g>
		<g class="st1">
			<path class="st2" d="M288.9,329c-3.9-24.5,16.2-37.6,43.7-29.1c14.5,4.5,28.6,16.9,36.2,36.9c8.3,21.7-2.8,39.1-27.3,35.7
				C317.6,369.2,292.6,351.9,288.9,329z"/>
			<path class="st3" d="M290.1,329c-4.1-23.9,15.6-36.9,42.4-28.5c14.3,4.6,28,16.8,35.3,36.2c7.9,21.1-2.5,37.8-26.6,34.5
				C318,367.9,293.8,351.3,290.1,329z"/>
			<path class="st4" d="M291.2,329c-4.3-23.4,15.2-36.3,41.1-27.9c14.2,4.6,27.5,16.6,34.5,35.5c7.6,20.4-2.2,36.5-25.8,33.3
				C318.5,366.7,295.1,350.7,291.2,329z"/>
			<path class="st5" d="M292.3,329.1c-4.5-22.8,14.7-35.7,39.8-27.3c14,4.7,26.9,16.5,33.6,34.7c7.3,19.7-1.9,35.3-25.1,32
				C318.9,365.5,296.4,350.1,292.3,329.1z"/>
			<path class="st6" d="M293.4,329.1c-4.7-22.2,14.2-35,38.5-26.7c13.8,4.7,26.3,16.3,32.8,34c7,19-1.6,34-24.4,30.8
				C319.4,364.3,297.7,349.5,293.4,329.1z"/>
			<path class="st7" d="M294.5,329.1c-4.9-21.6,13.6-34.3,37.2-26.1c13.7,4.8,25.8,16.2,31.9,33.3c6.6,18.3-1.3,32.7-23.6,29.5
				C319.8,363.1,298.9,348.9,294.5,329.1z"/>
			<path class="st8" d="M295.6,329.2c-5.1-21,13.1-33.6,35.9-25.5c13.5,4.9,25.2,16.1,31.1,32.6c6.3,17.7-1,31.4-22.9,28.3
				C320.3,361.9,300.2,348.3,295.6,329.2z"/>
			<path class="st9" d="M296.7,329.2c-5.3-20.5,12.6-33,34.5-24.9c13.4,4.9,24.6,15.9,30.2,31.8c6,17-0.7,30.1-22.2,27.1
				C320.7,360.7,301.5,347.7,296.7,329.2z"/>
			<path class="st10" d="M297.8,329.3c-5.5-19.9,12.1-32.3,33.2-24.2c13.2,5,24,15.8,29.3,31.1c5.7,16.3-0.4,28.8-21.4,25.8
				C321.2,359.4,302.8,347.1,297.8,329.3z"/>
			<path class="st11" d="M298.9,329.3c-5.7-19.3,11.6-31.6,31.9-23.6c13.1,5.1,23.5,15.6,28.5,30.4c5.4,15.6-0.1,27.6-20.7,24.6
				C321.6,358.2,304,346.5,298.9,329.3z"/>
			<path class="st12" d="M300.1,329.3c-5.9-18.7,11.1-30.9,30.6-23c12.9,5.2,22.9,15.5,27.6,29.7c5,15,0.2,26.3-20,23.4
				C322.1,357,305.3,345.9,300.1,329.3z"/>
			<path class="st13" d="M301.2,329.4c-6.1-18.2,10.6-30.2,29.3-22.4c12.7,5.3,22.3,15.4,26.8,28.9c4.7,14.3,0.5,25-19.2,22.1
				C322.5,355.8,306.5,345.3,301.2,329.4z"/>
			<path class="st14" d="M302.3,329.4c-6.3-17.6,10.1-29.4,28-21.8c12.6,5.3,21.7,15.2,25.9,28.2c4.4,13.6,0.8,23.7-18.5,20.9
				C323,354.6,307.8,344.7,302.3,329.4z"/>
			<path class="st15" d="M303.4,329.4c-6.6-17,9.6-28.7,26.7-21.2c12.4,5.4,21.2,15.1,25.1,27.5c4,13,1.1,22.4-17.8,19.7
				C323.4,353.4,309.1,344.1,303.4,329.4z"/>
			<path class="st16" d="M304.5,329.5c-6.8-16.4,9-28,25.4-20.6c12.2,5.5,20.6,14.9,24.2,26.8c3.7,12.3,1.4,21.1-17,18.4
				C323.9,352.2,310.3,343.5,304.5,329.5z"/>
			<path class="st17" d="M305.6,329.5c-7-15.8,8.5-27.3,24.1-20c12.1,5.6,20,14.8,23.3,26c3.4,11.6,1.7,19.9-16.3,17.2
				C324.3,351,311.6,343,305.6,329.5z"/>
			<path class="st18" d="M306.7,329.6c-7.2-15.2,8-26.5,22.8-19.4c11.9,5.7,19.5,14.6,22.5,25.3c3.1,10.9,2,18.6-15.6,16
				C324.8,349.7,312.8,342.4,306.7,329.6z"/>
			<path class="st19" d="M307.8,329.6c-7.5-14.7,7.5-25.8,21.5-18.8c11.7,5.9,18.9,14.5,21.6,24.6c2.8,10.3,2.3,17.3-14.8,14.7
				C325.2,348.5,314,341.8,307.8,329.6z"/>
			<path class="st20" d="M308.9,329.6c-7.7-14.1,6.9-25,20.2-18.2c11.6,6,18.3,14.4,20.8,23.9c2.4,9.6,2.5,16-14.1,13.5
				C325.7,347.3,315.3,341.2,308.9,329.6z"/>
			<path class="st21" d="M310.1,329.7c-8-13.5,6.4-24.3,18.9-17.6c11.4,6.1,17.8,14.2,19.9,23.1c2.1,8.9,2.8,14.7-13.4,12.3
				C326.1,346.1,316.5,340.6,310.1,329.7z"/>
			<path class="st22" d="M311.2,329.7c-8.2-12.9,5.8-23.5,17.5-17c11.2,6.2,17.2,14.1,19,22.4c1.8,8.2,3.1,13.4-12.6,11
				C326.6,344.9,317.7,340,311.2,329.7z"/>
			<path class="st23" d="M312.3,329.7c-8.5-12.3,5.3-22.7,16.2-16.4c11,6.4,16.7,13.9,18.2,21.7c1.5,7.5,3.4,12.2-11.9,9.8
				C327,343.7,319,339.5,312.3,329.7z"/>
		</g>
		<g class="st1">
			<path class="st2" d="M275.6,324.4c-17.6-17.4-40-8.9-49.1,18.5c-4.8,14.4-3,33.1,8.8,50.9c12.8,19.4,33.4,20.6,44.9-1.3
				C291.5,371.1,292.1,340.7,275.6,324.4z"/>
			<path class="st3" d="M274.9,325.3c-17-17.3-39.1-8.9-47.9,17.8c-4.6,14.3-2.8,32.5,8.7,49.8c12.5,18.8,32.2,20.1,43.5-1.4
				C290.2,370.7,290.9,341.4,274.9,325.3z"/>
			<path class="st4" d="M274.3,326.2c-16.4-17.1-38.3-8.9-46.6,17.1c-4.5,14.2-2.5,32,8.6,48.7c12.1,18.1,31,19.6,42.1-1.5
				C289,370.4,289.6,342,274.3,326.2z"/>
			<path class="st5" d="M273.7,327.1c-15.9-16.9-37.5-8.9-45.4,16.4c-4.4,14.1-2.3,31.5,8.5,47.6c11.7,17.4,29.7,19.1,40.6-1.7
				C287.7,370,288.4,342.7,273.7,327.1z"/>
			<path class="st6" d="M273.1,328c-15.3-16.7-36.7-8.9-44.1,15.6c-4.2,14-2.1,30.9,8.5,46.5c11.4,16.8,28.5,18.5,39.2-1.8
				C286.5,369.7,287.1,343.4,273.1,328z"/>
			<path class="st7" d="M272.5,329c-14.7-16.6-35.8-9-42.9,14.9c-4.1,13.9-1.9,30.4,8.4,45.3c11,16.1,27.3,18,37.8-1.9
				C285.2,369.4,285.9,344.1,272.5,329z"/>
			<path class="st8" d="M271.8,329.9c-14.1-16.4-35-9-41.6,14.2c-3.9,13.8-1.7,29.8,8.3,44.2c10.7,15.5,26.1,17.5,36.4-2
				C284,369,284.7,344.8,271.8,329.9z"/>
			<path class="st9" d="M271.2,330.8c-13.5-16.2-34.1-9-40.3,13.5c-3.8,13.7-1.5,29.3,8.2,43.1c10.3,14.8,24.9,17,34.9-2.2
				C282.7,368.7,283.5,345.5,271.2,330.8z"/>
			<path class="st10" d="M270.6,331.7c-12.9-16.1-33.3-9-39.1,12.8c-3.6,13.7-1.3,28.7,8.1,42c9.9,14.2,23.7,16.5,33.5-2.3
				C281.5,368.3,282.2,346.2,270.6,331.7z"/>
			<path class="st11" d="M270,332.7c-12.4-15.9-32.4-9-37.8,12.1c-3.5,13.6-1,28.2,8,40.9c9.6,13.5,22.4,16,32.1-2.4
				C280.2,368,281,346.8,270,332.7z"/>
			<path class="st12" d="M269.4,333.6c-11.8-15.7-31.5-9-36.6,11.4c-3.3,13.5-0.8,27.6,7.9,39.7c9.2,12.8,21.2,15.5,30.6-2.6
				C279,367.6,279.8,347.5,269.4,333.6z"/>
			<path class="st13" d="M268.8,334.5c-11.2-15.6-30.7-9-35.3,10.7c-3.2,13.4-0.6,27.1,7.8,38.6c8.9,12.2,20,15,29.2-2.7
				C277.7,367.3,278.6,348.2,268.8,334.5z"/>
			<path class="st14" d="M268.1,335.4c-10.6-15.4-29.8-9-34.1,10c-3,13.3-0.4,26.5,7.8,37.5c8.5,11.5,18.8,14.5,27.8-2.8
				C276.5,366.9,277.4,348.9,268.1,335.4z"/>
			<path class="st15" d="M267.5,336.4c-10-15.2-28.9-9-32.8,9.3c-2.8,13.3-0.1,26,7.7,36.4c8.2,10.9,17.6,14,26.3-2.9
				C275.2,366.6,276.1,349.5,267.5,336.4z"/>
			<path class="st16" d="M266.9,337.3c-9.4-15.1-28-9-31.6,8.6c-2.7,13.2,0.1,25.4,7.6,35.3c7.8,10.2,16.4,13.5,24.9-3.1
				C274,366.3,274.9,350.2,266.9,337.3z"/>
			<path class="st17" d="M266.3,338.2c-8.8-14.9-27.1-9-30.3,7.9c-2.5,13.1,0.3,24.9,7.5,34.1c7.4,9.5,15.2,12.9,23.5-3.2
				C272.8,365.9,273.7,350.9,266.3,338.2z"/>
			<path class="st18" d="M265.7,339.1c-8.2-14.8-26.2-9-29,7.2c-2.3,13,0.5,24.4,7.4,33c7.1,8.9,13.9,12.4,22.1-3.3
				C271.5,365.6,272.5,351.5,265.7,339.1z"/>
			<path class="st19" d="M265,340.1c-7.5-14.6-25.3-9-27.8,6.5c-2.1,12.9,0.7,23.8,7.3,31.9c6.7,8.2,12.7,11.9,20.6-3.4
				C270.3,365.2,271.3,352.2,265,340.1z"/>
			<path class="st20" d="M264.4,341c-6.9-14.5-24.4-9-26.5,5.8c-1.9,12.9,0.9,23.3,7.2,30.8c6.4,7.6,11.5,11.4,19.2-3.6
				C269,364.9,270.1,352.9,264.4,341z"/>
			<path class="st21" d="M263.8,341.9c-6.3-14.3-23.4-9-25.3,5c-1.7,12.8,1.1,22.7,7.1,29.7c6,6.9,10.3,10.9,17.8-3.7
				C267.8,364.5,268.9,353.5,263.8,341.9z"/>
			<path class="st22" d="M263.2,342.8c-5.7-14.2-22.5-9-24,4.3c-1.5,12.7,1.3,22.2,7.1,28.5c5.6,6.3,9.1,10.4,16.3-3.8
				C266.5,364.2,267.7,354.2,263.2,342.8z"/>
			<path class="st23" d="M262.6,343.8c-5-14.1-21.6-9-22.8,3.6c-1.2,12.6,1.6,21.7,7,27.4c5.3,5.6,7.9,9.9,14.9-4
				C265.3,363.9,266.5,354.9,262.6,343.8z"/>
		</g>
	</g>
	<g>
		<path class="st24" d="M263.6,131.5c0,17.7-16.4,32.1-16.4,32.1s-16.4-14.4-16.4-32.1c0-17.7,16.4-32.1,16.4-32.1
			S263.6,113.8,263.6,131.5z"/>
		<path class="st24" d="M263.6,355.8c0,17.7-16.4,32.1-16.4,32.1s-16.4-14.4-16.4-32.1c0-17.7,16.4-32.1,16.4-32.1
			S263.6,338.1,263.6,355.8z"/>
		<path class="st24" d="M135,227.2c17.7,0,32.1,16.4,32.1,16.4s-14.4,16.4-32.1,16.4c-17.7,0-32.1-16.4-32.1-16.4
			S117.3,227.2,135,227.2z"/>
		<path class="st24" d="M359.3,227.2c17.7,0,32.1,16.4,32.1,16.4s-14.4,16.4-32.1,16.4c-17.7,0-32.1-16.4-32.1-16.4
			S341.6,227.2,359.3,227.2z"/>
		<path class="st24" d="M156.2,311.3c12.5-12.5,34.3-11.1,34.3-11.1s1.4,21.8-11.1,34.3c-12.5,12.5-34.3,11.1-34.3,11.1
			S143.7,323.9,156.2,311.3z"/>
		<path class="st24" d="M314.8,152.7c12.5-12.5,34.3-11.1,34.3-11.1s1.4,21.8-11.1,34.3c-12.5,12.5-34.3,11.1-34.3,11.1
			S302.3,165.3,314.8,152.7z"/>
		<path class="st24" d="M314.8,334.5c-12.5-12.5-11.1-34.3-11.1-34.3s21.8-1.4,34.3,11.1c12.5,12.5,11.1,34.3,11.1,34.3
			S327.4,347.1,314.8,334.5z"/>
		<path class="st24" d="M156.2,176c-12.5-12.5-11.1-34.3-11.1-34.3s21.8-1.4,34.3,11.1c12.5,12.5,11.1,34.3,11.1,34.3
			S168.8,188.5,156.2,176z"/>
	</g>
	<g>
		<path class="st24" d="M345.7,298.7c-13.1-5.4-18.7-22-18.7-22s15.6-7.7,28.8-2.3c13.1,5.4,18.7,22,18.7,22
			S358.8,304.1,345.7,298.7z"/>
		<path class="st24" d="M138.5,212.9c-13.1-5.4-18.7-22-18.7-22s15.6-7.7,28.8-2.3c13.1,5.4,18.7,22,18.7,22
			S151.6,218.3,138.5,212.9z"/>
		<path class="st24" d="M216.4,135c5.4,13.1-2.3,28.7-2.3,28.7s-16.5-5.6-22-18.7c-5.4-13.1,2.3-28.8,2.3-28.8
			S210.9,121.9,216.4,135z"/>
		<path class="st24" d="M302.2,342.2c5.4,13.1-2.3,28.7-2.3,28.7s-16.5-5.6-22-18.7c-5.4-13.1,2.3-28.8,2.3-28.8
			S296.8,329.1,302.2,342.2z"/>
		<path class="st24" d="M138.5,274.4c13.1-5.4,28.8,2.3,28.8,2.3s-5.6,16.5-18.7,22c-13.1,5.4-28.8-2.3-28.8-2.3
			S125.4,279.9,138.5,274.4z"/>
		<path class="st24" d="M345.7,188.6c13.1-5.4,28.8,2.3,28.8,2.3s-5.6,16.5-18.7,22c-13.1,5.4-28.8-2.3-28.8-2.3
			S332.6,194,345.7,188.6z"/>
		<path class="st24" d="M192.1,342.2c5.4-13.1,22-18.7,22-18.7s7.7,15.6,2.3,28.8c-5.4,13.1-22,18.7-22,18.7
			S186.7,355.3,192.1,342.2z"/>
		<path class="st24" d="M277.9,135c5.4-13.1,22-18.7,22-18.7s7.7,15.6,2.3,28.8c-5.4,13.1-22,18.7-22,18.7S272.5,148.1,277.9,135z"
			/>
	</g>
	<g>
		<linearGradient id="SVGID_1_" gradientUnits="userSpaceOnUse" x1="232.5564" y1="116.9237" x2="264.7359" y2="149.1031">
			<stop  offset="0" style="stop-color:#FFD45C"/>
			<stop  offset="1" style="stop-color:#FF9D00"/>
		</linearGradient>
		<path class="st25" d="M265.1,133c0,17.7-16.4,32.1-16.4,32.1s-16.4-14.4-16.4-32.1c0-17.7,16.4-32.1,16.4-32.1
			S265.1,115.3,265.1,133z"/>
		<linearGradient id="SVGID_2_" gradientUnits="userSpaceOnUse" x1="232.5568" y1="341.1976" x2="264.7355" y2="373.3763">
			<stop  offset="0" style="stop-color:#FFD45C"/>
			<stop  offset="1" style="stop-color:#FF9D00"/>
		</linearGradient>
		<path class="st26" d="M265.1,357.3c0,17.7-16.4,32.1-16.4,32.1s-16.4-14.4-16.4-32.1c0-17.7,16.4-32.1,16.4-32.1
			S265.1,339.6,265.1,357.3z"/>
		
			<linearGradient id="SVGID_3_" gradientUnits="userSpaceOnUse" x1="4337.1157" y1="-505.4226" x2="4304.936" y2="-473.2427" gradientTransform="matrix(0 -1 1 0 625.8335 4566.168)">
			<stop  offset="0" style="stop-color:#FFD45C"/>
			<stop  offset="1" style="stop-color:#FF9D00"/>
		</linearGradient>
		<path class="st27" d="M136.5,228.7c17.7,0,32.1,16.4,32.1,16.4s-14.4,16.4-32.1,16.4c-17.7,0-32.1-16.4-32.1-16.4
			S118.8,228.7,136.5,228.7z"/>
		
			<linearGradient id="SVGID_4_" gradientUnits="userSpaceOnUse" x1="4337.1157" y1="-281.1405" x2="4304.936" y2="-248.9607" gradientTransform="matrix(0 -1 1 0 625.8335 4566.168)">
			<stop  offset="0" style="stop-color:#FFD45C"/>
			<stop  offset="1" style="stop-color:#FF9D00"/>
		</linearGradient>
		<path class="st28" d="M360.8,228.7c17.7,0,32.1,16.4,32.1,16.4s-14.4,16.4-32.1,16.4c-17.7,0-32.1-16.4-32.1-16.4
			S343.1,228.7,360.8,228.7z"/>
		
			<linearGradient id="SVGID_5_" gradientUnits="userSpaceOnUse" x1="5492.1294" y1="1418.0538" x2="5459.3027" y2="1418.0538" gradientTransform="matrix(-0.7071 -0.7071 0.7071 -0.7071 3038.5254 5199.0293)">
			<stop  offset="0" style="stop-color:#FFD45C"/>
			<stop  offset="1" style="stop-color:#FF9D00"/>
		</linearGradient>
		<path class="st29" d="M157.7,312.8c12.5-12.5,34.3-11.1,34.3-11.1s1.4,21.8-11.1,34.3c-12.5,12.5-34.3,11.1-34.3,11.1
			S145.2,325.4,157.7,312.8z"/>
		
			<linearGradient id="SVGID_6_" gradientUnits="userSpaceOnUse" x1="5492.1294" y1="1642.333" x2="5459.3027" y2="1642.333" gradientTransform="matrix(-0.7071 -0.7071 0.7071 -0.7071 3038.5254 5199.0293)">
			<stop  offset="0" style="stop-color:#FFD45C"/>
			<stop  offset="1" style="stop-color:#FF9D00"/>
		</linearGradient>
		<path class="st30" d="M316.3,154.3c12.5-12.5,34.3-11.1,34.3-11.1s1.4,21.8-11.1,34.3c-12.5,12.5-34.3,11.1-34.3,11.1
			S303.8,166.8,316.3,154.3z"/>
		
			<linearGradient id="SVGID_7_" gradientUnits="userSpaceOnUse" x1="3036.1533" y1="4769.853" x2="3036.1533" y2="4705.6362" gradientTransform="matrix(-0.7071 0.7071 -0.7071 -0.7071 5824.8633 1527.6396)">
			<stop  offset="0" style="stop-color:#FFD45C"/>
			<stop  offset="1" style="stop-color:#FF9D00"/>
		</linearGradient>
		<path class="st31" d="M316.3,336.1c-12.5-12.5-11.1-34.3-11.1-34.3s21.8-1.4,34.3,11.1c12.5,12.5,11.1,34.3,11.1,34.3
			S328.9,348.6,316.3,336.1z"/>
		
			<linearGradient id="SVGID_8_" gradientUnits="userSpaceOnUse" x1="3036.1533" y1="4994.1323" x2="3036.1533" y2="4929.9155" gradientTransform="matrix(-0.7071 0.7071 -0.7071 -0.7071 5824.8633 1527.6396)">
			<stop  offset="0" style="stop-color:#FFD45C"/>
			<stop  offset="1" style="stop-color:#FF9D00"/>
		</linearGradient>
		<path class="st32" d="M157.7,177.5c-12.5-12.5-11.1-34.3-11.1-34.3s21.8-1.4,34.3,11.1c12.5,12.5,11.1,34.3,11.1,34.3
			S170.3,190,157.7,177.5z"/>
	</g>
	<g>
		<linearGradient id="SVGID_9_" gradientUnits="userSpaceOnUse" x1="335.4666" y1="271.2847" x2="369.0238" y2="304.8419">
			<stop  offset="0" style="stop-color:#FFBB31"/>
			<stop  offset="1" style="stop-color:#FF9D00"/>
		</linearGradient>
		<path class="st33" d="M347.2,300.2c-13.1-5.4-18.7-22-18.7-22s15.6-7.7,28.8-2.3c13.1,5.4,18.7,22,18.7,22
			S360.3,305.6,347.2,300.2z"/>
		<linearGradient id="SVGID_10_" gradientUnits="userSpaceOnUse" x1="128.2557" y1="185.4533" x2="161.8129" y2="219.0105">
			<stop  offset="0" style="stop-color:#FFBB31"/>
			<stop  offset="1" style="stop-color:#FF9D00"/>
		</linearGradient>
		<path class="st34" d="M140,214.4c-13.1-5.4-18.7-22-18.7-22s15.6-7.7,28.8-2.3c13.1,5.4,18.7,22,18.7,22S153.1,219.8,140,214.4z"
			/>
		<linearGradient id="SVGID_11_" gradientUnits="userSpaceOnUse" x1="188.9502" y1="124.7588" x2="222.5122" y2="158.3207">
			<stop  offset="0" style="stop-color:#FFBB31"/>
			<stop  offset="1" style="stop-color:#FF9D00"/>
		</linearGradient>
		<path class="st35" d="M217.9,136.5c5.4,13.1-2.3,28.8-2.3,28.8s-16.5-5.6-22-18.7c-5.4-13.1,2.3-28.8,2.3-28.8
			S212.4,123.4,217.9,136.5z"/>
		<linearGradient id="SVGID_12_" gradientUnits="userSpaceOnUse" x1="274.7696" y1="331.9629" x2="308.3362" y2="365.5294">
			<stop  offset="0" style="stop-color:#FFBB31"/>
			<stop  offset="1" style="stop-color:#FF9D00"/>
		</linearGradient>
		<path class="st36" d="M303.7,343.7c5.4,13.1-2.3,28.8-2.3,28.8s-16.5-5.6-22-18.7c-5.4-13.1,2.3-28.8,2.3-28.8
			S298.3,330.6,303.7,343.7z"/>
		<linearGradient id="SVGID_13_" gradientUnits="userSpaceOnUse" x1="135.1004" y1="278.1167" x2="154.9819" y2="297.9982">
			<stop  offset="0" style="stop-color:#FFBB31"/>
			<stop  offset="1" style="stop-color:#FF9D00"/>
		</linearGradient>
		<path class="st37" d="M140,275.9c13.1-5.4,28.8,2.3,28.8,2.3s-5.6,16.5-18.7,22c-13.1,5.4-28.8-2.3-28.8-2.3
			S126.9,281.4,140,275.9z"/>
		<linearGradient id="SVGID_14_" gradientUnits="userSpaceOnUse" x1="342.3084" y1="192.2824" x2="362.1976" y2="212.1715">
			<stop  offset="0" style="stop-color:#FFBB31"/>
			<stop  offset="1" style="stop-color:#FF9D00"/>
		</linearGradient>
		<path class="st38" d="M347.2,190.1c13.1-5.4,28.8,2.3,28.8,2.3s-5.6,16.5-18.7,22c-13.1,5.4-28.8-2.3-28.8-2.3
			S334.1,195.5,347.2,190.1z"/>
		<linearGradient id="SVGID_15_" gradientUnits="userSpaceOnUse" x1="195.7841" y1="338.8051" x2="215.6742" y2="358.6951">
			<stop  offset="0" style="stop-color:#FFBB31"/>
			<stop  offset="1" style="stop-color:#FF9D00"/>
		</linearGradient>
		<path class="st39" d="M193.6,343.7c5.4-13.1,22-18.7,22-18.7s7.7,15.6,2.3,28.8c-5.4,13.1-22,18.7-22,18.7
			S188.2,356.8,193.6,343.7z"/>
		<linearGradient id="SVGID_16_" gradientUnits="userSpaceOnUse" x1="281.6063" y1="131.5991" x2="301.4955" y2="151.4883">
			<stop  offset="0" style="stop-color:#FFBB31"/>
			<stop  offset="1" style="stop-color:#FF9D00"/>
		</linearGradient>
		<path class="st40" d="M279.4,136.5c5.4-13.1,22-18.7,22-18.7s7.7,15.6,2.3,28.8c-5.4,13.1-22,18.7-22,18.7S274,149.6,279.4,136.5z
			"/>
	</g>
	<g class="st0">
		<path class="st2" d="M350.7,360.3c-46.4,38.5-109.9,46.7-166.1,11.6c-74.9-46.7-57.7-109.9-23.3-111.4c33.8-1.4,62.3,9.8,84.1-13
			c25.3-26.5,25.5-55.7,32.2-86.3c7.4-34,50.6-44.9,97.2,4.6C425.3,219.7,409.1,311.8,350.7,360.3z"/>
		<path class="st41" d="M349.3,357.4c-45.1,37.7-106.6,46.1-161.5,12.7c-73.4-44.4-58-105.9-24.7-107.5
			c32.5-1.5,61.8,10.7,84.5-13.4c25.2-26.8,25.2-55.5,31.4-85.6c6.9-33.2,48.9-43.7,93.8,4.8C421.4,220.5,406.3,309.8,349.3,357.4z"
			/>
		<path class="st42" d="M347.9,354.5C304.1,391.5,244.6,400,191,368.4c-71.9-42.1-58.3-101.9-26-103.7c31.3-1.7,61.4,11.5,84.9-13.9
			c25.1-27.1,24.8-55.3,30.6-85c6.3-32.4,47-42.4,90.4,5C417.3,221.4,403.4,307.7,347.9,354.5z"/>
		<path class="st43" d="M346.5,351.7c-42.5,36.1-99.9,44.7-152.2,14.9c-70.3-40.1-58.5-97.9-27.4-99.9c30.1-1.9,60.9,12.3,85.4-14.4
			c25.1-27.3,24.4-55.1,29.7-84.3c5.8-31.5,45.2-41.1,87,5.2C413.3,222.2,400.5,305.7,346.5,351.7z"/>
		<path class="st44" d="M345.1,348.8c-41.2,35.3-96.7,44-147.6,16c-68.8-37.8-58.8-93.9-28.7-96c28.8-2,60.4,13.2,85.8-14.8
			c25-27.6,24.1-54.9,28.9-83.6c5.2-30.7,43.4-39.8,83.7,5.4C409.3,223.1,397.6,303.6,345.1,348.8z"/>
		<path class="st45" d="M343.7,345.9c-39.9,34.5-93.4,43.4-143,17.1c-67.2-35.6-59.1-89.9-30.1-92.2c27.6-2.2,60,14,86.2-15.3
			c24.9-27.8,23.7-54.7,28.1-82.9c4.6-29.9,41.7-38.5,80.3,5.6C405.3,223.9,394.7,301.6,343.7,345.9z"/>
		<path class="st46" d="M342.3,343.1c-38.6,33.7-90.1,42.7-138.3,18.2c-65.7-33.4-59.4-85.9-31.4-88.3c26.3-2.3,59.5,14.8,86.7-15.8
			c24.9-28.1,23.4-54.5,27.3-82.2c4.1-29,39.9-37.2,76.9,5.8C401.3,224.7,391.9,299.5,342.3,343.1z"/>
		<path class="st47" d="M340.9,340.2c-37.3,33-86.8,42-133.7,19.3c-64.2-31.1-59.6-81.8-32.8-84.5c25.1-2.5,59.1,15.7,87.1-16.2
			c24.8-28.3,23-54.2,26.5-81.5c3.5-28.2,38.1-36,73.5,6C397.3,225.5,389,297.5,340.9,340.2z"/>
		<path class="st48" d="M339.5,337.3c-36,32.2-83.5,41.4-129.1,20.3c-62.7-28.9-59.9-77.8-34.1-80.6c23.8-2.6,58.7,16.6,87.5-16.7
			c24.8-28.6,22.7-54,25.6-80.9c3-27.3,36.3-34.7,70.2,6.2C393.3,226.3,386.1,295.5,339.5,337.3z"/>
		<path class="st49" d="M338.1,334.4c-34.7,31.4-80.2,40.7-124.5,21.4c-61.2-26.7-60.2-73.8-35.5-76.8c22.6-2.7,58.2,17.4,88-17.2
			c24.7-28.8,22.4-53.8,24.8-80.2c2.5-26.5,34.6-33.4,66.8,6.4C389.4,227.1,383.2,293.4,338.1,334.4z"/>
		<path class="st50" d="M336.7,331.6c-33.5,30.6-76.9,40.1-119.8,22.5c-59.7-24.4-60.5-69.8-36.8-73c21.3-2.9,57.8,18.3,88.4-17.7
			c24.7-29,22-53.6,24-79.5c2-25.6,32.8-32.2,63.4,6.6C385.4,227.9,380.3,291.4,336.7,331.6z"/>
		<path class="st51" d="M335.3,328.7c-32.2,29.8-73.7,39.4-115.2,23.6c-58.2-22.2-60.7-65.7-38.1-69.1c20.1-3,57.4,19.2,88.8-18.1
			c24.7-29.2,21.7-53.3,23.2-78.8c1.4-24.8,31-31,60,6.8C381.4,228.7,377.5,289.3,335.3,328.7z"/>
		<path class="st52" d="M333.9,325.8c-30.8,29.1-70.4,38.8-110.6,24.7c-56.7-19.9-61-61.7-39.5-65.3c18.8-3.1,57,20,89.3-18.6
			c24.6-29.5,21.4-53.1,22.4-78.1c0.9-23.9,29.3-29.7,56.6,7C377.5,229.5,374.7,287.4,333.9,325.8z"/>
		<path class="st53" d="M332.5,322.9c-29.5,28.3-67.1,38.2-105.9,25.8c-55.2-17.6-61.3-57.6-40.8-61.4c17.6-3.2,56.5,20.9,89.7-19.1
			c24.6-29.7,21.1-52.9,21.5-77.5c0.4-23,27.5-28.5,53.3,7.2C373.5,230.3,371.8,285.3,332.5,322.9z"/>
		<path class="st54" d="M331.1,320.1c-28.2,27.5-63.9,37.6-101.3,26.9c-53.7-15.3-61.6-53.6-42.2-57.6c16.3-3.4,56.1,21.8,90.1-19.5
			c24.6-29.9,20.8-52.7,20.7-76.8c-0.1-22.2,25.8-27.3,49.9,7.4C369.6,231,368.9,283.3,331.1,320.1z"/>
		<path class="st55" d="M329.7,317.2c-26.9,26.7-60.6,36.9-96.7,28c-52.2-13-61.8-49.5-43.5-53.7c15.1-3.5,55.7,22.7,90.5-20
			c24.6-30.1,20.5-52.4,19.9-76.1c-0.5-21.3,24.1-26.1,46.5,7.6C365.7,231.7,366,281.2,329.7,317.2z"/>
		<path class="st56" d="M328.3,314.3c-25.7,25.8-57.4,36.4-92,29.1c-50.7-10.7-62.1-45.5-44.9-49.9c13.8-3.5,55.3,23.6,91-20.5
			c24.5-30.3,20.2-52.2,19.1-75.4c-1-20.5,22.4-24.9,43.1,7.7C361.8,232.5,363.1,279.1,328.3,314.3z"/>
		<path class="st57" d="M326.9,311.4c-24.4,25-54.1,35.8-87.4,30.1c-49.3-8.3-62.4-41.4-46.2-46.1c12.6-3.6,54.9,24.5,91.4-20.9
			c24.5-30.5,20-52,18.3-74.7c-1.5-19.6,20.7-23.7,39.8,7.9C357.9,233.2,360.2,277.1,326.9,311.4z"/>
		<path class="st58" d="M325.5,308.6c-23.1,24.2-50.9,35.2-82.8,31.2c-47.8-6-62.7-37.3-47.6-42.2c11.3-3.7,54.5,25.4,91.8-21.4
			c24.5-30.7,19.7-51.8,17.5-74c-1.9-18.8,19.1-22.6,36.4,8.1C354.1,233.9,357.3,275,325.5,308.6z"/>
		<path class="st59" d="M324.1,305.7c-21.8,23.4-47.6,34.7-78.2,32.3c-46.3-3.6-62.9-33.2-48.9-38.4c10.1-3.8,54.2,26.3,92.3-21.9
			c24.5-30.9,19.5-51.5,16.6-73.4c-2.4-17.9,17.5-21.4,33,8.3C350.3,234.6,354.4,273,324.1,305.7z"/>
		<path class="st60" d="M322.7,302.8c-20.5,22.7-44.4,34.1-73.5,33.4c-44.8-1.1-63.1-29-50.3-34.5c8.9-3.8,53.8,27.2,92.7-22.3
			c24.5-31.1,19.3-51.3,15.8-72.7c-2.8-17.1,16-20.3,29.6,8.5C346.5,235.2,351.5,270.9,322.7,302.8z"/>
		<path class="st61" d="M321.3,300c-19.2,21.9-41.1,33.6-68.9,34.5c-43.3,1.4-63.4-24.8-51.6-30.7c7.7-3.8,53.4,28.1,93.1-22.8
			c24.5-31.3,19.1-51.1,15-72c-3.2-16.3,14.6-19.2,26.2,8.7C342.8,235.9,348.7,268.9,321.3,300z"/>
	</g>
	<path class="st24" d="M338.6,243.7c0,50.5-40.9,91.4-91.4,91.4c-50.5,0-91.4-40.9-91.4-91.4c0-50.5,40.9-91.4,91.4-91.4
		C297.6,152.2,338.6,193.2,338.6,243.7z"/>
	<linearGradient id="SVGID_17_" gradientUnits="userSpaceOnUse" x1="183.9967" y1="180.5007" x2="313.2872" y2="309.7912">
		<stop  offset="0" style="stop-color:#FFD45C"/>
		<stop  offset="1" style="stop-color:#FF9D00"/>
	</linearGradient>
	<path class="st62" d="M340.1,245.1c0,50.5-40.9,91.4-91.4,91.4c-50.5,0-91.4-40.9-91.4-91.4c0-50.5,40.9-91.4,91.4-91.4
		C299.1,153.7,340.1,194.7,340.1,245.1z"/>
</g>
</svg>
